%TF.GenerationSoftware,KiCad,Pcbnew,9.0.4*%
%TF.CreationDate,2025-10-05T00:11:34-04:00*%
%TF.ProjectId,bldc motor controller,626c6463-206d-46f7-946f-7220636f6e74,rev?*%
%TF.SameCoordinates,Original*%
%TF.FileFunction,Copper,L4,Bot*%
%TF.FilePolarity,Positive*%
%FSLAX46Y46*%
G04 Gerber Fmt 4.6, Leading zero omitted, Abs format (unit mm)*
G04 Created by KiCad (PCBNEW 9.0.4) date 2025-10-05 00:11:34*
%MOMM*%
%LPD*%
G01*
G04 APERTURE LIST*
G04 Aperture macros list*
%AMRoundRect*
0 Rectangle with rounded corners*
0 $1 Rounding radius*
0 $2 $3 $4 $5 $6 $7 $8 $9 X,Y pos of 4 corners*
0 Add a 4 corners polygon primitive as box body*
4,1,4,$2,$3,$4,$5,$6,$7,$8,$9,$2,$3,0*
0 Add four circle primitives for the rounded corners*
1,1,$1+$1,$2,$3*
1,1,$1+$1,$4,$5*
1,1,$1+$1,$6,$7*
1,1,$1+$1,$8,$9*
0 Add four rect primitives between the rounded corners*
20,1,$1+$1,$2,$3,$4,$5,0*
20,1,$1+$1,$4,$5,$6,$7,0*
20,1,$1+$1,$6,$7,$8,$9,0*
20,1,$1+$1,$8,$9,$2,$3,0*%
G04 Aperture macros list end*
%TA.AperFunction,ComponentPad*%
%ADD10C,1.700000*%
%TD*%
%TA.AperFunction,ComponentPad*%
%ADD11R,1.700000X1.700000*%
%TD*%
%TA.AperFunction,SMDPad,CuDef*%
%ADD12RoundRect,0.075000X-0.075000X0.125000X-0.075000X-0.125000X0.075000X-0.125000X0.075000X0.125000X0*%
%TD*%
%TA.AperFunction,ComponentPad*%
%ADD13C,3.800000*%
%TD*%
%TA.AperFunction,SMDPad,CuDef*%
%ADD14RoundRect,0.075000X0.075000X-0.125000X0.075000X0.125000X-0.075000X0.125000X-0.075000X-0.125000X0*%
%TD*%
%TA.AperFunction,SMDPad,CuDef*%
%ADD15R,0.500000X0.280000*%
%TD*%
%TA.AperFunction,SMDPad,CuDef*%
%ADD16R,0.280000X0.500000*%
%TD*%
%TA.AperFunction,SMDPad,CuDef*%
%ADD17RoundRect,0.075000X-0.125000X-0.075000X0.125000X-0.075000X0.125000X0.075000X-0.125000X0.075000X0*%
%TD*%
%TA.AperFunction,SMDPad,CuDef*%
%ADD18RoundRect,0.075000X0.125000X0.075000X-0.125000X0.075000X-0.125000X-0.075000X0.125000X-0.075000X0*%
%TD*%
%TA.AperFunction,ComponentPad*%
%ADD19O,1.700000X2.000000*%
%TD*%
%TA.AperFunction,ComponentPad*%
%ADD20RoundRect,0.250000X0.600000X0.750000X-0.600000X0.750000X-0.600000X-0.750000X0.600000X-0.750000X0*%
%TD*%
%TA.AperFunction,SMDPad,CuDef*%
%ADD21RoundRect,0.225000X0.250000X-0.225000X0.250000X0.225000X-0.250000X0.225000X-0.250000X-0.225000X0*%
%TD*%
%TA.AperFunction,SMDPad,CuDef*%
%ADD22RoundRect,0.250000X0.650000X-0.750000X0.650000X0.750000X-0.650000X0.750000X-0.650000X-0.750000X0*%
%TD*%
%TA.AperFunction,SMDPad,CuDef*%
%ADD23R,1.100000X0.600000*%
%TD*%
%TA.AperFunction,SMDPad,CuDef*%
%ADD24R,0.400000X1.700000*%
%TD*%
%TA.AperFunction,SMDPad,CuDef*%
%ADD25RoundRect,0.200000X0.275000X-0.200000X0.275000X0.200000X-0.275000X0.200000X-0.275000X-0.200000X0*%
%TD*%
%TA.AperFunction,SMDPad,CuDef*%
%ADD26RoundRect,0.250000X-0.475000X0.250000X-0.475000X-0.250000X0.475000X-0.250000X0.475000X0.250000X0*%
%TD*%
%TA.AperFunction,SMDPad,CuDef*%
%ADD27RoundRect,0.140000X0.140000X0.170000X-0.140000X0.170000X-0.140000X-0.170000X0.140000X-0.170000X0*%
%TD*%
%TA.AperFunction,SMDPad,CuDef*%
%ADD28RoundRect,0.140000X0.170000X-0.140000X0.170000X0.140000X-0.170000X0.140000X-0.170000X-0.140000X0*%
%TD*%
%TA.AperFunction,SMDPad,CuDef*%
%ADD29RoundRect,0.250000X-0.250000X-0.475000X0.250000X-0.475000X0.250000X0.475000X-0.250000X0.475000X0*%
%TD*%
%TA.AperFunction,SMDPad,CuDef*%
%ADD30RoundRect,0.250000X-0.325000X-0.650000X0.325000X-0.650000X0.325000X0.650000X-0.325000X0.650000X0*%
%TD*%
%TA.AperFunction,SMDPad,CuDef*%
%ADD31R,3.700000X3.700000*%
%TD*%
%TA.AperFunction,SMDPad,CuDef*%
%ADD32O,0.280000X0.900000*%
%TD*%
%TA.AperFunction,SMDPad,CuDef*%
%ADD33O,0.900000X0.280000*%
%TD*%
%TA.AperFunction,ViaPad*%
%ADD34C,0.600000*%
%TD*%
%TA.AperFunction,Conductor*%
%ADD35C,0.200000*%
%TD*%
%TA.AperFunction,Conductor*%
%ADD36C,0.500000*%
%TD*%
G04 APERTURE END LIST*
D10*
%TO.P,U8,3,3*%
%TO.N,PHASE-C*%
X139910000Y-77550000D03*
%TO.P,U8,2,2*%
%TO.N,PHASE-B*%
X142450000Y-77550000D03*
D11*
%TO.P,U8,1,1*%
%TO.N,PHASE-A*%
X144990000Y-77550000D03*
%TD*%
D12*
%TO.P,C23,2*%
%TO.N,TI_AGND*%
X147800000Y-82550000D03*
%TO.P,C23,1*%
%TO.N,TI_VREF*%
X147800000Y-82050000D03*
%TD*%
D13*
%TO.P,REF\u002A\u002A,1*%
%TO.N,N/C*%
X149250000Y-79850000D03*
%TD*%
D14*
%TO.P,C20,1*%
%TO.N,Net-(U6-C1)*%
X146325000Y-84550000D03*
%TO.P,C20,2*%
%TO.N,TI_AGND*%
X146325000Y-84050000D03*
%TD*%
D12*
%TO.P,C21,1*%
%TO.N,TI_VREF*%
X146150000Y-82150000D03*
%TO.P,C21,2*%
%TO.N,TI_AGND*%
X146150000Y-82650000D03*
%TD*%
%TO.P,C22,1*%
%TO.N,TI_VREF*%
X146950000Y-82100000D03*
%TO.P,C22,2*%
%TO.N,TI_AGND*%
X146950000Y-82600000D03*
%TD*%
D15*
%TO.P,U6,12,INT_1_XL*%
%TO.N,unconnected-(U6-INT_1_XL-Pad12)*%
X148900000Y-84550000D03*
%TO.P,U6,11,INT_2_XL*%
%TO.N,unconnected-(U6-INT_2_XL-Pad11)*%
X148900000Y-84050000D03*
D16*
%TO.P,U6,10,Vdd_IO*%
%TO.N,TI_VREF*%
X148775000Y-83425000D03*
%TO.P,U6,9,Vdd*%
X148275000Y-83425000D03*
%TO.P,U6,8,GND*%
%TO.N,TI_AGND*%
X147775000Y-83425000D03*
%TO.P,U6,7,INT_MAG/DRDY*%
%TO.N,unconnected-(U6-INT_MAG{slash}DRDY-Pad7)*%
X147275000Y-83425000D03*
D15*
%TO.P,U6,6,GND*%
%TO.N,TI_AGND*%
X147150000Y-84050000D03*
%TO.P,U6,5,C1*%
%TO.N,Net-(U6-C1)*%
X147150000Y-84550000D03*
D16*
%TO.P,U6,4,SDA/SDI/SDO*%
%TO.N,SDA1*%
X147275000Y-85175000D03*
%TO.P,U6,3,CS_MAG*%
%TO.N,ENAB_MAG*%
X147775000Y-85175000D03*
%TO.P,U6,2,CS_XL*%
%TO.N,ENAB_XL*%
X148275000Y-85175000D03*
%TO.P,U6,1,SCL/SPC*%
%TO.N,SCL1*%
X148775000Y-85175000D03*
%TD*%
D17*
%TO.P,C16,1*%
%TO.N,TI_AGND*%
X151500000Y-86250000D03*
%TO.P,C16,2*%
%TO.N,TI_VREF*%
X152000000Y-86250000D03*
%TD*%
D18*
%TO.P,C12,1*%
%TO.N,TI_AGND*%
X148255514Y-94595514D03*
%TO.P,C12,2*%
%TO.N,TI_VREF*%
X147755514Y-94595514D03*
%TD*%
%TO.P,C13,2*%
%TO.N,TI_VREF*%
X147755514Y-93795514D03*
%TO.P,C13,1*%
%TO.N,TI_AGND*%
X148255514Y-93795514D03*
%TD*%
D17*
%TO.P,C17,1*%
%TO.N,TI_AGND*%
X151500000Y-85400000D03*
%TO.P,C17,2*%
%TO.N,TI_VREF*%
X152000000Y-85400000D03*
%TD*%
D14*
%TO.P,C15,2*%
%TO.N,TI_VREF*%
X147005514Y-92345514D03*
%TO.P,C15,1*%
%TO.N,TI_AGND*%
X147005514Y-92845514D03*
%TD*%
%TO.P,C14,2*%
%TO.N,TI_VREF*%
X146305514Y-92345514D03*
%TO.P,C14,1*%
%TO.N,TI_AGND*%
X146305514Y-92845514D03*
%TD*%
D13*
%TO.P,REF\u002A\u002A,1*%
%TO.N,N/C*%
X136500000Y-96600000D03*
%TD*%
D19*
%TO.P,CN1,2,2*%
%TO.N,+BATT*%
X141900000Y-97750000D03*
D20*
%TO.P,CN1,1,1*%
%TO.N,TI_AGND*%
X144400000Y-97750000D03*
%TD*%
D21*
%TO.P,C9,2*%
%TO.N,TI_AGND*%
X139550000Y-93900000D03*
%TO.P,C9,1*%
%TO.N,+BATT*%
X139550000Y-95450000D03*
%TD*%
D22*
%TO.P,L1,1,1*%
%TO.N,Net-(U4-SW)*%
X134350000Y-88650000D03*
%TO.P,L1,2,2*%
%TO.N,TI_VREF*%
X134350000Y-84150000D03*
%TD*%
D18*
%TO.P,C19,2*%
%TO.N,TI_AGND*%
X141195620Y-92300000D03*
%TO.P,C19,1*%
%TO.N,TI_VREF*%
X141695620Y-92300000D03*
%TD*%
D23*
%TO.P,U4,1,CB*%
%TO.N,Net-(U4-CB)*%
X133800000Y-92750000D03*
%TO.P,U4,2,GND*%
%TO.N,TI_AGND*%
X133800000Y-91800000D03*
%TO.P,U4,3,FB*%
%TO.N,Net-(U4-FB)*%
X133800000Y-90850000D03*
%TO.P,U4,4,EN*%
%TO.N,+BATT*%
X136500000Y-90850000D03*
%TO.P,U4,5,VIN*%
X136500000Y-91800000D03*
%TO.P,U4,6,SW*%
%TO.N,Net-(U4-SW)*%
X136500000Y-92750000D03*
%TD*%
D24*
%TO.P,U5,1,CSn*%
%TO.N,NSS1*%
X140475620Y-85200000D03*
%TO.P,U5,2,CLK*%
%TO.N,SCK1*%
X141125620Y-85200000D03*
%TO.P,U5,3,MISO*%
%TO.N,MISO1*%
X141775620Y-85200000D03*
%TO.P,U5,4,MOSI*%
%TO.N,MOSI1*%
X142425620Y-85200000D03*
%TO.P,U5,5,TEST*%
%TO.N,TI_AGND*%
X143075620Y-85200000D03*
%TO.P,U5,6,B*%
%TO.N,unconnected-(U5-B-Pad6)*%
X143725620Y-85200000D03*
%TO.P,U5,7,A*%
%TO.N,unconnected-(U5-A-Pad7)*%
X144375620Y-85200000D03*
%TO.P,U5,8,W/PWM*%
%TO.N,unconnected-(U5-W{slash}PWM-Pad8)*%
X144375620Y-90800000D03*
%TO.P,U5,9,V*%
%TO.N,unconnected-(U5-V-Pad9)*%
X143725620Y-90800000D03*
%TO.P,U5,10,U*%
%TO.N,unconnected-(U5-U-Pad10)*%
X143075620Y-90800000D03*
%TO.P,U5,11,VDD*%
%TO.N,TI_VREF*%
X142425620Y-90800000D03*
%TO.P,U5,12,VDD3V*%
X141775620Y-90800000D03*
%TO.P,U5,13,GND*%
%TO.N,TI_AGND*%
X141125620Y-90800000D03*
%TO.P,U5,14,I/PWM*%
%TO.N,unconnected-(U5-I{slash}PWM-Pad14)*%
X140475620Y-90800000D03*
%TD*%
D25*
%TO.P,R6,1*%
%TO.N,Net-(U4-FB)*%
X141700000Y-83150000D03*
%TO.P,R6,2*%
%TO.N,TI_AGND*%
X141700000Y-81500000D03*
%TD*%
D26*
%TO.P,R1,1*%
%TO.N,TI_VREF*%
X139800000Y-81200000D03*
%TO.P,R1,2*%
%TO.N,Net-(U4-FB)*%
X139800000Y-83100000D03*
%TD*%
D27*
%TO.P,C11,1*%
%TO.N,Net-(U4-SW)*%
X136680000Y-93900000D03*
%TO.P,C11,2*%
%TO.N,Net-(U4-CB)*%
X135720000Y-93900000D03*
%TD*%
D28*
%TO.P,C8,1*%
%TO.N,+BATT*%
X146000000Y-97080000D03*
%TO.P,C8,2*%
%TO.N,TI_AGND*%
X146000000Y-96120000D03*
%TD*%
D29*
%TO.P,C2,1*%
%TO.N,TI_VREF*%
X134100000Y-81800000D03*
%TO.P,C2,2*%
%TO.N,TI_AGND*%
X136000000Y-81800000D03*
%TD*%
D30*
%TO.P,C1,1*%
%TO.N,+BATT*%
X141325000Y-95100000D03*
%TO.P,C1,2*%
%TO.N,TI_AGND*%
X144275000Y-95100000D03*
%TD*%
D31*
%TO.P,U3,33,EP*%
%TO.N,TI_AGND*%
X149800000Y-89900000D03*
D32*
%TO.P,U3,32,VSS*%
X151550000Y-87350000D03*
%TO.P,U3,31,PB8-BOOT0*%
%TO.N,BOOT0*%
X151050000Y-87350000D03*
%TO.P,U3,30,PB7*%
%TO.N,unconnected-(U3-PB7-Pad30)*%
X150550000Y-87350000D03*
%TO.P,U3,29,PB6*%
%TO.N,MISO1*%
X150050000Y-87350000D03*
%TO.P,U3,28,PB5*%
%TO.N,MOSI1*%
X149550000Y-87350000D03*
%TO.P,U3,27,PB4*%
%TO.N,unconnected-(U3-PB4-Pad27)*%
X149050000Y-87350000D03*
%TO.P,U3,26,PB3*%
%TO.N,ENAB_XL*%
X148550000Y-87350000D03*
%TO.P,U3,25,PA15*%
%TO.N,ENAB_MAG*%
X148050000Y-87350000D03*
D33*
%TO.P,U3,24,PA14*%
%TO.N,SDA1*%
X147250000Y-88150000D03*
%TO.P,U3,23,PA13*%
%TO.N,SCL1*%
X147250000Y-88650000D03*
%TO.P,U3,22,PA12*%
%TO.N,CAN_TX*%
X147250000Y-89150000D03*
%TO.P,U3,21,PA11*%
%TO.N,CAN_RX*%
X147250000Y-89650000D03*
%TO.P,U3,20,PA10*%
%TO.N,TIM1_CH3*%
X147250000Y-90150000D03*
%TO.P,U3,19,PA9*%
%TO.N,TIM1_CH2*%
X147250000Y-90650000D03*
%TO.P,U3,18,PA8*%
%TO.N,TIM1_CH1*%
X147250000Y-91150000D03*
%TO.P,U3,17,VDD*%
%TO.N,TI_VREF*%
X147250000Y-91650000D03*
D32*
%TO.P,U3,16,VSS*%
%TO.N,TI_AGND*%
X148050000Y-92450000D03*
%TO.P,U3,15,VDDA*%
%TO.N,TI_VREF*%
X148550000Y-92450000D03*
%TO.P,U3,14,VSSA*%
%TO.N,TI_AGND*%
X149050000Y-92450000D03*
%TO.P,U3,13,PB0*%
%TO.N,TIM1_CH2N*%
X149550000Y-92450000D03*
%TO.P,U3,12,PA7*%
%TO.N,TIM1_CH1N*%
X150050000Y-92450000D03*
%TO.P,U3,11,PA6*%
%TO.N,SOC*%
X150550000Y-92450000D03*
%TO.P,U3,10,PA5*%
%TO.N,SCK1*%
X151050000Y-92450000D03*
%TO.P,U3,9,PA4*%
%TO.N,NSS1*%
X151550000Y-92450000D03*
D33*
%TO.P,U3,8,PA3*%
%TO.N,UART_RX*%
X152350000Y-91650000D03*
%TO.P,U3,7,PA2*%
%TO.N,UART_TX*%
X152350000Y-91150000D03*
%TO.P,U3,6,PA1*%
%TO.N,SOB*%
X152350000Y-90650000D03*
%TO.P,U3,5,PA0*%
%TO.N,SOA*%
X152350000Y-90150000D03*
%TO.P,U3,4,PG10-NRST*%
%TO.N,Reset*%
X152350000Y-89650000D03*
%TO.P,U3,3,PF1-OSC_OUT*%
%TO.N,TI_FAULT*%
X152350000Y-89150000D03*
%TO.P,U3,2,PF0-OSC_IN*%
%TO.N,TIM1_CH3N*%
X152350000Y-88650000D03*
%TO.P,U3,1,VDD*%
%TO.N,TI_VREF*%
X152350000Y-88150000D03*
%TD*%
D34*
%TO.N,TI_AGND*%
X147052917Y-93897083D03*
X139550000Y-92650000D03*
%TO.N,SOB*%
X137874000Y-93851000D03*
%TO.N,TIM1_CH3N*%
X153412018Y-84537980D03*
%TO.N,TI_VREF*%
X145000062Y-80700062D03*
%TO.N,I-LIMIT*%
X135726910Y-80350000D03*
%TO.N,SCL1*%
X144550000Y-83500000D03*
%TO.N,TI_FAULT*%
X153818419Y-87800000D03*
%TO.N,CAN_RX*%
X144634828Y-87343799D03*
%TO.N,CAN_TX*%
X143770762Y-87328263D03*
%TO.N,SCL1*%
X149010487Y-85781545D03*
%TO.N,TIM1_CH1N*%
X149952231Y-93817943D03*
%TO.N,SOC*%
X150705514Y-93540000D03*
%TO.N,MOSI1*%
X149450000Y-86450000D03*
%TO.N,UART_TX*%
X153300000Y-92800000D03*
%TO.N,SOA*%
X153678553Y-90127028D03*
%TO.N,TI_VREF*%
X146552917Y-94650000D03*
%TO.N,SCK1*%
X151505374Y-93525002D03*
%TO.N,TI_AGND*%
X152150000Y-82850000D03*
%TO.N,UART_TX*%
X146634998Y-85334785D03*
%TO.N,UART_RX*%
X145640287Y-84443115D03*
X152373265Y-94355583D03*
%TO.N,NSS1*%
X151600000Y-95000000D03*
%TO.N,Reset*%
X153649369Y-89199928D03*
%TO.N,SOB*%
X153328641Y-90846446D03*
%TO.N,TIM1_CH2N*%
X149155514Y-93745514D03*
%TO.N,TI_AGND*%
X148715544Y-96357772D03*
X143037103Y-83361483D03*
%TO.N,+BATT*%
X136100000Y-83536217D03*
%TO.N,SOC*%
X133150000Y-95400000D03*
%TO.N,+BATT*%
X139450000Y-86089416D03*
%TO.N,I-LIMIT*%
X141624555Y-87926974D03*
%TO.N,TI_AVDD*%
X140550001Y-88702000D03*
%TO.N,TIM1_CH2*%
X140469778Y-87369221D03*
%TO.N,TI_VREF*%
X132049000Y-92850000D03*
%TO.N,TI_AGND*%
X132900000Y-94600000D03*
%TO.N,TIM1_CH3*%
X143200000Y-87900000D03*
%TO.N,TI_AVDD*%
X132325680Y-82924320D03*
%TO.N,TIM1_CH1*%
X142301000Y-88700000D03*
X132100000Y-83749750D03*
%TO.N,TI_AGND*%
X138156663Y-89114877D03*
%TO.N,TIM1_CH3N*%
X130549750Y-89000000D03*
%TO.N,TIM1_CH1N*%
X130599750Y-85650000D03*
%TO.N,TIM1_CH3*%
X130549750Y-88200000D03*
%TO.N,TIM1_CH2*%
X130549750Y-86500000D03*
%TO.N,SCK1*%
X141050000Y-86600000D03*
%TO.N,MISO1*%
X142050000Y-86725974D03*
%TO.N,MOSI1*%
X143000000Y-86700000D03*
%TO.N,TI_FAULT*%
X132560290Y-81654050D03*
%TO.N,TIM1_CH2N*%
X130549750Y-87350000D03*
%TO.N,NSS1*%
X140249997Y-86600000D03*
%TO.N,BOOT0*%
X150500000Y-83550000D03*
%TO.N,MISO1*%
X149450000Y-83400000D03*
%TO.N,TI_AGND*%
X136600000Y-78000000D03*
%TO.N,TI_AVDD*%
X136600000Y-79249000D03*
%TD*%
D35*
%TO.N,TI_FAULT*%
X153818419Y-87800000D02*
X153619419Y-87999000D01*
X153619419Y-87999000D02*
X153619419Y-88239927D01*
X153619419Y-88239927D02*
X153549354Y-88309992D01*
X152849354Y-89150000D02*
X152350000Y-89150000D01*
X153549354Y-88309992D02*
X153549354Y-88450000D01*
X153549354Y-88450000D02*
X152849354Y-89150000D01*
%TO.N,UART_TX*%
X153123707Y-92623707D02*
X153123707Y-91923707D01*
X153101000Y-91832668D02*
X153101000Y-91467332D01*
X153300000Y-92800000D02*
X153123707Y-92623707D01*
X153123707Y-91923707D02*
X153066834Y-91866834D01*
X153066834Y-91866834D02*
X153101000Y-91832668D01*
X153101000Y-91467332D02*
X152842668Y-91209000D01*
X152842668Y-91209000D02*
X152409000Y-91209000D01*
X152409000Y-91209000D02*
X152350000Y-91150000D01*
%TO.N,TI_VREF*%
X146552917Y-94650000D02*
X145950000Y-94650000D01*
X145950000Y-94650000D02*
X143600000Y-92300000D01*
X143600000Y-92300000D02*
X141695620Y-92300000D01*
X147701028Y-94650000D02*
X147755514Y-94595514D01*
X146552917Y-94650000D02*
X147701028Y-94650000D01*
%TO.N,TI_AGND*%
X147052917Y-93897083D02*
X147056011Y-93900178D01*
D36*
X139550000Y-92650000D02*
X139550000Y-93900000D01*
D35*
%TO.N,TI_VREF*%
X145000062Y-80700062D02*
X145000062Y-80900062D01*
X145000062Y-80900062D02*
X146250000Y-82150000D01*
%TO.N,SCL1*%
X147250000Y-88650000D02*
X146816332Y-88650000D01*
X146816332Y-88650000D02*
X145651000Y-87484668D01*
X144876620Y-85226620D02*
X144876620Y-83826620D01*
X145651000Y-87484668D02*
X145651000Y-86001000D01*
X145651000Y-86001000D02*
X144876620Y-85226620D01*
X144876620Y-83826620D02*
X144550000Y-83500000D01*
%TO.N,TI_AGND*%
X152150000Y-82850000D02*
X151499000Y-83501000D01*
X151499000Y-83501000D02*
X151499000Y-85700000D01*
X148472316Y-96601000D02*
X146481000Y-96601000D01*
X148715544Y-96357772D02*
X148715544Y-95415544D01*
X148255514Y-94955514D02*
X148255514Y-94595514D01*
X148715544Y-96357772D02*
X148472316Y-96601000D01*
X146481000Y-96601000D02*
X146000000Y-96120000D01*
X148715544Y-95415544D02*
X148255514Y-94955514D01*
%TO.N,TI_VREF*%
X152000000Y-86400000D02*
X152400000Y-86800000D01*
X152400000Y-86800000D02*
X152400000Y-88100000D01*
X152400000Y-88100000D02*
X152350000Y-88150000D01*
X148775000Y-83425000D02*
X148775000Y-82975000D01*
X152751000Y-84949000D02*
X152000000Y-85700000D01*
X148775000Y-82975000D02*
X149399000Y-82351000D01*
X152398943Y-82249000D02*
X152751000Y-82601057D01*
X149399000Y-82351000D02*
X151799057Y-82351000D01*
X151799057Y-82351000D02*
X151901057Y-82249000D01*
X151901057Y-82249000D02*
X152398943Y-82249000D01*
X152751000Y-82601057D02*
X152751000Y-84949000D01*
X148275000Y-83425000D02*
X148275000Y-82291176D01*
X148033824Y-82050000D02*
X147800000Y-82050000D01*
X148275000Y-82291176D02*
X148033824Y-82050000D01*
%TO.N,TI_AGND*%
X146250000Y-82650000D02*
X147700000Y-82650000D01*
X147700000Y-82650000D02*
X147800000Y-82550000D01*
%TO.N,Net-(U4-FB)*%
X139800000Y-83100000D02*
X141650000Y-83100000D01*
%TO.N,TI_AGND*%
X151550000Y-87350000D02*
X151550000Y-88150000D01*
X149050000Y-92450000D02*
X149050000Y-90650000D01*
X133800000Y-91800000D02*
X133050000Y-91800000D01*
X132900000Y-91950000D02*
X132900000Y-94600000D01*
X133050000Y-91800000D02*
X132900000Y-91950000D01*
%TO.N,TI_VREF*%
X147754514Y-94450000D02*
X147754514Y-94595514D01*
X147754514Y-94450000D02*
X147703336Y-94501178D01*
%TO.N,TI_AGND*%
X146305514Y-92845514D02*
X146305514Y-93149681D01*
X146305514Y-93149681D02*
X147056011Y-93900178D01*
X147005514Y-92845514D02*
X147005514Y-93849681D01*
X147005514Y-93849681D02*
X147052917Y-93897083D01*
%TO.N,TI_VREF*%
X139800000Y-81200000D02*
X140299938Y-80700062D01*
X140299938Y-80700062D02*
X145000062Y-80700062D01*
%TO.N,TI_AGND*%
X141700000Y-81500000D02*
X140900062Y-82299938D01*
X140900062Y-82299938D02*
X136499938Y-82299938D01*
X136499938Y-82299938D02*
X136000000Y-81800000D01*
%TO.N,TI_VREF*%
X139800000Y-81200000D02*
X138349000Y-79749000D01*
X135426000Y-79749000D02*
X134100000Y-81075000D01*
X138349000Y-79749000D02*
X135426000Y-79749000D01*
X134100000Y-81075000D02*
X134100000Y-81800000D01*
D36*
%TO.N,+BATT*%
X138624000Y-92974000D02*
X138624000Y-90973000D01*
X138624000Y-90973000D02*
X136500000Y-88849000D01*
D35*
%TO.N,TI_AGND*%
X146000000Y-96120000D02*
X145295000Y-96120000D01*
X145295000Y-96120000D02*
X144275000Y-95100000D01*
D36*
X140689840Y-92999000D02*
X140451000Y-92999000D01*
X140451000Y-92999000D02*
X139550000Y-93900000D01*
D35*
X141150000Y-92300000D02*
X139550000Y-93900000D01*
D36*
X140689840Y-92999000D02*
X139550000Y-91859160D01*
X139550000Y-91859160D02*
X139550000Y-90508214D01*
X144400000Y-97750000D02*
X144400000Y-95738204D01*
X141660796Y-92999000D02*
X140689840Y-92999000D01*
X144400000Y-95738204D02*
X141660796Y-92999000D01*
%TO.N,+BATT*%
X141325000Y-95100000D02*
X141325000Y-97175000D01*
D35*
%TO.N,TIM1_CH3*%
X143200000Y-87900000D02*
X143244799Y-87944799D01*
X143244799Y-87944799D02*
X144409831Y-87944799D01*
X144409831Y-87944799D02*
X146615032Y-90150000D01*
X146615032Y-90150000D02*
X147250000Y-90150000D01*
%TO.N,TIM1_CH2*%
X147250000Y-90650000D02*
X146547932Y-90650000D01*
X142599000Y-88051476D02*
X141873498Y-87325974D01*
X142951057Y-88501000D02*
X142599000Y-88148943D01*
X146547932Y-90650000D02*
X144398932Y-88501000D01*
X144398932Y-88501000D02*
X142951057Y-88501000D01*
X142599000Y-88148943D02*
X142599000Y-88051476D01*
X141873498Y-87325974D02*
X140513025Y-87325974D01*
X140513025Y-87325974D02*
X140469778Y-87369221D01*
%TO.N,Net-(U4-FB)*%
X133800000Y-90850000D02*
X133149000Y-90199000D01*
X133149000Y-90199000D02*
X133149000Y-87664840D01*
X139800000Y-83100000D02*
X135551000Y-87349000D01*
X135551000Y-87349000D02*
X133464840Y-87349000D01*
X133464840Y-87349000D02*
X133149000Y-87664840D01*
%TO.N,SCK1*%
X141125620Y-85200000D02*
X141125620Y-86524380D01*
X141125620Y-86524380D02*
X141050000Y-86600000D01*
%TO.N,MISO1*%
X141775620Y-85200000D02*
X141775620Y-86451594D01*
X141775620Y-86451594D02*
X142050000Y-86725974D01*
%TO.N,MOSI1*%
X142425620Y-85200000D02*
X142425620Y-86125620D01*
X142425620Y-86125620D02*
X143000000Y-86700000D01*
%TO.N,TIM1_CH3N*%
X152350000Y-88650000D02*
X152782254Y-88650000D01*
X152350000Y-88650000D02*
X152783668Y-88650000D01*
%TO.N,TI_VREF*%
X152000000Y-85700000D02*
X152000000Y-86400000D01*
%TO.N,TIM1_CH1*%
X142301000Y-88700000D02*
X142503000Y-88902000D01*
X142503000Y-88902000D02*
X144152000Y-88902000D01*
X144152000Y-88902000D02*
X146400000Y-91150000D01*
X146400000Y-91150000D02*
X147250000Y-91150000D01*
%TO.N,CAN_RX*%
X144634828Y-87343799D02*
X144634828Y-87602696D01*
X146682132Y-89650000D02*
X147250000Y-89650000D01*
X144634828Y-87602696D02*
X146682132Y-89650000D01*
%TO.N,CAN_TX*%
X143770762Y-87328263D02*
X144356226Y-86742799D01*
X144356226Y-86742799D02*
X145142799Y-86742799D01*
X145250000Y-87650768D02*
X146749232Y-89150000D01*
X145142799Y-86742799D02*
X145250000Y-86850000D01*
X146749232Y-89150000D02*
X147250000Y-89150000D01*
X145250000Y-86850000D02*
X145250000Y-87650768D01*
%TO.N,ENAB_MAG*%
X148050000Y-87350000D02*
X147775000Y-87075000D01*
X147775000Y-87075000D02*
X147775000Y-85175000D01*
%TO.N,ENAB_XL*%
X148275000Y-85175000D02*
X148275000Y-85896001D01*
X148275000Y-85896001D02*
X148550000Y-86171001D01*
X148550000Y-86171001D02*
X148550000Y-87350000D01*
%TO.N,SCL1*%
X149010487Y-85781545D02*
X148775000Y-85546058D01*
X148775000Y-85546058D02*
X148775000Y-85175000D01*
%TO.N,MOSI1*%
X149430778Y-86720778D02*
X149550000Y-86840000D01*
X149450000Y-86450000D02*
X149430778Y-86469222D01*
X149430778Y-86469222D02*
X149430778Y-86720778D01*
X149550000Y-86840000D02*
X149550000Y-87350000D01*
%TO.N,SDA1*%
X147235998Y-85214002D02*
X147235998Y-85583728D01*
X146883941Y-85935785D02*
X146514215Y-85935785D01*
X147235998Y-85583728D02*
X146883941Y-85935785D01*
X146514215Y-85935785D02*
X146400000Y-86050000D01*
X146400000Y-86050000D02*
X146400000Y-87300000D01*
X146400000Y-87300000D02*
X147250000Y-88150000D01*
%TO.N,MISO1*%
X149450000Y-83400000D02*
X150399000Y-84349000D01*
X150050000Y-86351028D02*
X150050000Y-87350000D01*
X150399000Y-84349000D02*
X150399000Y-86002028D01*
X150399000Y-86002028D02*
X150050000Y-86351028D01*
%TO.N,BOOT0*%
X150500000Y-83550000D02*
X150800000Y-83850000D01*
X150800000Y-86433824D02*
X151099000Y-86732824D01*
X151099000Y-86732824D02*
X151099000Y-87390000D01*
X150800000Y-83850000D02*
X150800000Y-86433824D01*
%TO.N,NSS1*%
X151600000Y-95000000D02*
X151754317Y-94845683D01*
X151754317Y-94845683D02*
X151754317Y-94126002D01*
X151754317Y-94126002D02*
X152106374Y-93773945D01*
X152106374Y-93493626D02*
X152305377Y-93294623D01*
X152305377Y-93205377D02*
X151550000Y-92450000D01*
X152106374Y-93773945D02*
X152106374Y-93493626D01*
X152305377Y-93294623D02*
X152305377Y-93205377D01*
%TO.N,TI_AGND*%
X141700000Y-81500000D02*
X142851000Y-82651000D01*
X142851000Y-82651000D02*
X146250000Y-82651000D01*
X146250000Y-82650000D02*
X146250000Y-83975000D01*
X146250000Y-83975000D02*
X146325000Y-84050000D01*
%TO.N,TI_VREF*%
X147600000Y-82100000D02*
X147850000Y-82100000D01*
X147600000Y-82100000D02*
X146300000Y-82100000D01*
%TO.N,+BATT*%
X146000000Y-97080000D02*
X146000000Y-98286160D01*
X146000000Y-98286160D02*
X145235160Y-99051000D01*
X145235160Y-99051000D02*
X143201000Y-99051000D01*
X143201000Y-99051000D02*
X141900000Y-97750000D01*
%TO.N,TI_VREF*%
X146305514Y-92345514D02*
X147005514Y-92345514D01*
%TO.N,TI_AGND*%
X151500000Y-86950000D02*
X151500000Y-85700000D01*
%TO.N,SOC*%
X150550000Y-93540000D02*
X150705514Y-93540000D01*
%TO.N,Net-(U6-C1)*%
X147150000Y-84550000D02*
X146325000Y-84550000D01*
%TO.N,UART_RX*%
X152400000Y-94047419D02*
X152507374Y-93940045D01*
X152400000Y-91700000D02*
X152350000Y-91650000D01*
X152706377Y-93460723D02*
X152706377Y-93039277D01*
X152507374Y-93940045D02*
X152507374Y-93659726D01*
X152706377Y-93039277D02*
X152400000Y-92732900D01*
X152373265Y-94355583D02*
X152400000Y-94328848D01*
X152400000Y-94328848D02*
X152400000Y-94047419D01*
X152400000Y-92732900D02*
X152400000Y-91700000D01*
X152507374Y-93659726D02*
X152706377Y-93460723D01*
%TO.N,TI_VREF*%
X148089154Y-93344514D02*
X147972690Y-93344514D01*
X148550000Y-92883668D02*
X148089154Y-93344514D01*
%TO.N,TIM1_CH2N*%
X149550000Y-92450000D02*
X149550000Y-93351028D01*
%TO.N,TI_VREF*%
X148550000Y-92450000D02*
X148550000Y-92883668D01*
%TO.N,TIM1_CH2N*%
X149550000Y-93351028D02*
X149155514Y-93745514D01*
%TO.N,TI_VREF*%
X147754514Y-93562690D02*
X147754514Y-94450000D01*
%TO.N,TI_AGND*%
X147654486Y-92845514D02*
X148050000Y-92450000D01*
%TO.N,TI_VREF*%
X147972690Y-93344514D02*
X147754514Y-93562690D01*
%TO.N,TI_AGND*%
X147005514Y-92845514D02*
X147654486Y-92845514D01*
%TO.N,TIM1_CH1N*%
X149952231Y-93437769D02*
X150050000Y-93340000D01*
X150050000Y-93340000D02*
X150050000Y-92450000D01*
X149952231Y-93817943D02*
X149952231Y-93437769D01*
%TO.N,TI_AGND*%
X149050000Y-93001085D02*
X148255514Y-93795571D01*
X149050000Y-92450000D02*
X149050000Y-93001085D01*
X148255514Y-93795571D02*
X148255514Y-94595514D01*
%TO.N,SOC*%
X150550000Y-93540000D02*
X150705514Y-93695514D01*
X150550000Y-92450000D02*
X150550000Y-93540000D01*
%TO.N,Reset*%
X153528408Y-89436216D02*
X153314624Y-89650000D01*
X153528408Y-89320889D02*
X153528408Y-89436216D01*
X153314624Y-89650000D02*
X152350000Y-89650000D01*
%TO.N,TI_VREF*%
X148775000Y-83425000D02*
X148275000Y-83425000D01*
%TO.N,TI_AGND*%
X147675000Y-84050000D02*
X147150000Y-84050000D01*
X147775000Y-83950000D02*
X147675000Y-84050000D01*
X147775000Y-83425000D02*
X147775000Y-83950000D01*
%TO.N,TI_VREF*%
X147250000Y-92101028D02*
X147005514Y-92345514D01*
%TO.N,TI_AGND*%
X146305514Y-92845514D02*
X147005514Y-92845514D01*
%TO.N,TI_VREF*%
X147250000Y-91650000D02*
X147250000Y-92101028D01*
%TO.N,TI_AGND*%
X147150000Y-84050000D02*
X146325000Y-84050000D01*
%TO.N,SOB*%
X153132195Y-90650000D02*
X152350000Y-90650000D01*
X153328641Y-90846446D02*
X153132195Y-90650000D01*
%TO.N,SOA*%
X153678553Y-90127028D02*
X153655581Y-90150000D01*
X153655581Y-90150000D02*
X152350000Y-90150000D01*
%TO.N,SCK1*%
X151505374Y-93339042D02*
X151050000Y-92883668D01*
X151505374Y-93525002D02*
X151505374Y-93339042D01*
X151050000Y-92883668D02*
X151050000Y-92450000D01*
D36*
%TO.N,TI_AGND*%
X138156663Y-89114877D02*
X139550000Y-90508214D01*
X139550000Y-90508214D02*
X139550000Y-92650000D01*
D35*
%TO.N,NSS1*%
X140475620Y-85200000D02*
X140249997Y-85425623D01*
X140249997Y-85425623D02*
X140249997Y-86600000D01*
D36*
%TO.N,+BATT*%
X136500000Y-90850000D02*
X136500000Y-88849000D01*
X136500000Y-88849000D02*
X139349000Y-86000000D01*
X141250000Y-97100000D02*
X141900000Y-97750000D01*
D35*
%TO.N,TI_VREF*%
X132250000Y-92951000D02*
X132250000Y-92650000D01*
X132050000Y-92850000D02*
X132250000Y-92650000D01*
%TO.N,Net-(U4-CB)*%
X135720000Y-93900000D02*
X134570000Y-92750000D01*
X134570000Y-92750000D02*
X133800000Y-92750000D01*
%TO.N,Net-(U4-SW)*%
X136500000Y-92750000D02*
X135898000Y-92750000D01*
X135898000Y-92750000D02*
X135150000Y-92002000D01*
X136500000Y-92750000D02*
X136500000Y-93720000D01*
X136500000Y-93720000D02*
X136680000Y-93900000D01*
%TO.N,TI_AGND*%
X132651000Y-91401000D02*
X132651000Y-85866100D01*
X132651000Y-85866100D02*
X132817100Y-85700000D01*
X132817100Y-85700000D02*
X135287576Y-85700000D01*
X133050000Y-91800000D02*
X132651000Y-91401000D01*
X135287576Y-85700000D02*
X136951000Y-84036576D01*
X136951000Y-84036576D02*
X136951000Y-83538690D01*
X136951000Y-83538690D02*
X136000000Y-82587690D01*
X136000000Y-82587690D02*
X136000000Y-81800000D01*
%TO.N,TI_VREF*%
X132250000Y-92650000D02*
X132250000Y-85700000D01*
X132250000Y-85700000D02*
X133800000Y-84150000D01*
%TO.N,TI_AGND*%
X141700000Y-81500000D02*
X143075620Y-82875620D01*
X143075620Y-82875620D02*
X143075620Y-85200000D01*
%TO.N,TI_VREF*%
X141695620Y-92300000D02*
X146260000Y-92300000D01*
%TO.N,Net-(U4-SW)*%
X135150000Y-92002000D02*
X135150000Y-89150000D01*
%TO.N,TI_VREF*%
X134100000Y-83450000D02*
X134100000Y-81800000D01*
D36*
%TO.N,+BATT*%
X136400000Y-90850000D02*
X136400000Y-91800000D01*
D35*
%TO.N,TI_VREF*%
X142425620Y-90800000D02*
X141775620Y-90800000D01*
X141775620Y-90800000D02*
X141775620Y-92220000D01*
X141775620Y-92220000D02*
X141695620Y-92300000D01*
%TO.N,TI_AGND*%
X141125620Y-90800000D02*
X141125620Y-92230000D01*
X141125620Y-92230000D02*
X141195620Y-92300000D01*
D36*
%TO.N,+BATT*%
X141850000Y-97750000D02*
X139550000Y-95450000D01*
X138624000Y-92974000D02*
X136500000Y-90850000D01*
X138624000Y-94524000D02*
X138624000Y-92974000D01*
X139550000Y-95450000D02*
X138624000Y-94524000D01*
D35*
%TO.N,TIM1_CH3N*%
X153318419Y-84693853D02*
X153318419Y-88115249D01*
X153318419Y-88115249D02*
X152783668Y-88650000D01*
X153474292Y-84537980D02*
X153318419Y-84693853D01*
X153412018Y-84537980D02*
X153474292Y-84537980D01*
%TD*%
%TA.AperFunction,Conductor*%
%TO.N,TI_AGND*%
G36*
X139503173Y-86990656D02*
G01*
X139520952Y-86991928D01*
X139535230Y-87002617D01*
X139551939Y-87008851D01*
X139576877Y-87033794D01*
X139576885Y-87033800D01*
X139576889Y-87033806D01*
X139576893Y-87033810D01*
X139578882Y-87036468D01*
X139628208Y-87110289D01*
X139651753Y-87133834D01*
X139657070Y-87140938D01*
X139681480Y-87206405D01*
X139679412Y-87239429D01*
X139669278Y-87290374D01*
X139669278Y-87448067D01*
X139700039Y-87602710D01*
X139700042Y-87602722D01*
X139760380Y-87748393D01*
X139760387Y-87748406D01*
X139847988Y-87879509D01*
X139847991Y-87879513D01*
X139956519Y-87988041D01*
X139990004Y-88049364D01*
X139985020Y-88119056D01*
X139956519Y-88163403D01*
X139928214Y-88191707D01*
X139928211Y-88191711D01*
X139840610Y-88322814D01*
X139840603Y-88322827D01*
X139780265Y-88468498D01*
X139780262Y-88468510D01*
X139749501Y-88623153D01*
X139749501Y-88780846D01*
X139780262Y-88935489D01*
X139780265Y-88935501D01*
X139840603Y-89081172D01*
X139840610Y-89081185D01*
X139928211Y-89212288D01*
X139928214Y-89212292D01*
X140040093Y-89324171D01*
X140073578Y-89385494D01*
X140068594Y-89455186D01*
X140026724Y-89511118D01*
X139918072Y-89592455D01*
X139831826Y-89707664D01*
X139831822Y-89707671D01*
X139781528Y-89842517D01*
X139775121Y-89902116D01*
X139775120Y-89902135D01*
X139775120Y-91697870D01*
X139775121Y-91697876D01*
X139781528Y-91757483D01*
X139831822Y-91892328D01*
X139831826Y-91892335D01*
X139918072Y-92007544D01*
X139918075Y-92007547D01*
X140033284Y-92093793D01*
X140033291Y-92093797D01*
X140060379Y-92103900D01*
X140168137Y-92144091D01*
X140227747Y-92150500D01*
X140723492Y-92150499D01*
X140783103Y-92144091D01*
X140827787Y-92127425D01*
X140897478Y-92122441D01*
X140958801Y-92155926D01*
X140992286Y-92217249D01*
X140995120Y-92243607D01*
X140995120Y-92412727D01*
X141009933Y-92525235D01*
X141009933Y-92525236D01*
X141020070Y-92549710D01*
X141067922Y-92665233D01*
X141160169Y-92785451D01*
X141280387Y-92877698D01*
X141420384Y-92935687D01*
X141532900Y-92950500D01*
X141532907Y-92950500D01*
X141858333Y-92950500D01*
X141858340Y-92950500D01*
X141970856Y-92935687D01*
X142033016Y-92909938D01*
X142080469Y-92900500D01*
X143299903Y-92900500D01*
X143366942Y-92920185D01*
X143387584Y-92936819D01*
X145465139Y-95014374D01*
X145465149Y-95014385D01*
X145469479Y-95018715D01*
X145469480Y-95018716D01*
X145581284Y-95130520D01*
X145661193Y-95176655D01*
X145661194Y-95176656D01*
X145718209Y-95209574D01*
X145718210Y-95209575D01*
X145718212Y-95209575D01*
X145718215Y-95209577D01*
X145870943Y-95250501D01*
X145973153Y-95250501D01*
X146040192Y-95270186D01*
X146042044Y-95271399D01*
X146173731Y-95359390D01*
X146173744Y-95359397D01*
X146319415Y-95419735D01*
X146319420Y-95419737D01*
X146406232Y-95437005D01*
X146474070Y-95450499D01*
X146474073Y-95450500D01*
X146474075Y-95450500D01*
X146631761Y-95450500D01*
X146631762Y-95450499D01*
X146786414Y-95419737D01*
X146932096Y-95359394D01*
X146932102Y-95359390D01*
X147063792Y-95271398D01*
X147130470Y-95250520D01*
X147132683Y-95250500D01*
X147621967Y-95250500D01*
X147621971Y-95250501D01*
X147780085Y-95250501D01*
X147795455Y-95246382D01*
X147810358Y-95246046D01*
X147811196Y-95246271D01*
X147813155Y-95246014D01*
X147918227Y-95246014D01*
X147918234Y-95246014D01*
X148030750Y-95231201D01*
X148170747Y-95173212D01*
X148290965Y-95080965D01*
X148383212Y-94960747D01*
X148441201Y-94820750D01*
X148456014Y-94708234D01*
X148456014Y-94482794D01*
X148456012Y-94482785D01*
X148455877Y-94480716D01*
X148456014Y-94480103D01*
X148456014Y-94478735D01*
X148456320Y-94478735D01*
X148471129Y-94412532D01*
X148520823Y-94363417D01*
X148589182Y-94348965D01*
X148648502Y-94369493D01*
X148776328Y-94454904D01*
X148776341Y-94454911D01*
X148908497Y-94509651D01*
X148922017Y-94515251D01*
X149059670Y-94542632D01*
X149076667Y-94546013D01*
X149076670Y-94546014D01*
X149076672Y-94546014D01*
X149234358Y-94546014D01*
X149234359Y-94546013D01*
X149389011Y-94515251D01*
X149430221Y-94498180D01*
X149499688Y-94490711D01*
X149546566Y-94509640D01*
X149573043Y-94527332D01*
X149573058Y-94527340D01*
X149700475Y-94580117D01*
X149718734Y-94587680D01*
X149842627Y-94612324D01*
X149873384Y-94618442D01*
X149873387Y-94618443D01*
X149873389Y-94618443D01*
X150031075Y-94618443D01*
X150031076Y-94618442D01*
X150185728Y-94587680D01*
X150331410Y-94527337D01*
X150462520Y-94439732D01*
X150526104Y-94376147D01*
X150587424Y-94342664D01*
X150608278Y-94339952D01*
X150621061Y-94339383D01*
X150626672Y-94340500D01*
X150784356Y-94340500D01*
X150838556Y-94329718D01*
X150847982Y-94329300D01*
X150873113Y-94335481D01*
X150898886Y-94337788D01*
X150906484Y-94343690D01*
X150915829Y-94345989D01*
X150933626Y-94364774D01*
X150954064Y-94380650D01*
X150957265Y-94389725D01*
X150963883Y-94396710D01*
X150968699Y-94422134D01*
X150977309Y-94446540D01*
X150975096Y-94455904D01*
X150976887Y-94465359D01*
X150967193Y-94489349D01*
X150961242Y-94514537D01*
X150956589Y-94522069D01*
X150890609Y-94620814D01*
X150890602Y-94620827D01*
X150830264Y-94766498D01*
X150830261Y-94766510D01*
X150799500Y-94921153D01*
X150799500Y-95078846D01*
X150830261Y-95233489D01*
X150830264Y-95233501D01*
X150890602Y-95379172D01*
X150890609Y-95379185D01*
X150978210Y-95510288D01*
X150978213Y-95510292D01*
X151089707Y-95621786D01*
X151089711Y-95621789D01*
X151220814Y-95709390D01*
X151220827Y-95709397D01*
X151354263Y-95764667D01*
X151366503Y-95769737D01*
X151518690Y-95800009D01*
X151521153Y-95800499D01*
X151521156Y-95800500D01*
X151521158Y-95800500D01*
X151678844Y-95800500D01*
X151678845Y-95800499D01*
X151833497Y-95769737D01*
X151979179Y-95709394D01*
X152073887Y-95646112D01*
X152140562Y-95625235D01*
X152207942Y-95643719D01*
X152254633Y-95695698D01*
X152265809Y-95764667D01*
X152239723Y-95826528D01*
X152052256Y-96061604D01*
X152047769Y-96066918D01*
X151585201Y-96584532D01*
X151580422Y-96589586D01*
X151089586Y-97080422D01*
X151084532Y-97085201D01*
X150566918Y-97547769D01*
X150561604Y-97552256D01*
X150018885Y-97985061D01*
X150013327Y-97989244D01*
X149447186Y-98390941D01*
X149441403Y-98394805D01*
X148853633Y-98764125D01*
X148847642Y-98767659D01*
X148240086Y-99103444D01*
X148233907Y-99106636D01*
X147608483Y-99407824D01*
X147602134Y-99410665D01*
X146960814Y-99676309D01*
X146954316Y-99678790D01*
X146299087Y-99908065D01*
X146292460Y-99910177D01*
X145625418Y-100102348D01*
X145618683Y-100104085D01*
X144941923Y-100258551D01*
X144935101Y-100259908D01*
X144250733Y-100376187D01*
X144243845Y-100377159D01*
X143554052Y-100454879D01*
X143547122Y-100455464D01*
X142854036Y-100494388D01*
X142847083Y-100494583D01*
X142152917Y-100494583D01*
X142145964Y-100494388D01*
X141452877Y-100455464D01*
X141445947Y-100454879D01*
X140756154Y-100377159D01*
X140749266Y-100376187D01*
X140064898Y-100259908D01*
X140058076Y-100258551D01*
X139381316Y-100104085D01*
X139374581Y-100102348D01*
X138707539Y-99910177D01*
X138700912Y-99908065D01*
X138045683Y-99678790D01*
X138039185Y-99676309D01*
X137397865Y-99410665D01*
X137391517Y-99407824D01*
X136937252Y-99189062D01*
X136885392Y-99142240D01*
X136867079Y-99074813D01*
X136888127Y-99008189D01*
X136941853Y-98963520D01*
X136963458Y-98956451D01*
X137165591Y-98910316D01*
X137420079Y-98821267D01*
X137662997Y-98704284D01*
X137891289Y-98560838D01*
X138102085Y-98392734D01*
X138292734Y-98202085D01*
X138460838Y-97991289D01*
X138604284Y-97762997D01*
X138721267Y-97520079D01*
X138810316Y-97265591D01*
X138870312Y-97002732D01*
X138900500Y-96734809D01*
X138900500Y-96478633D01*
X138920185Y-96411594D01*
X138972989Y-96365839D01*
X139042147Y-96355895D01*
X139063492Y-96360924D01*
X139152292Y-96390349D01*
X139251655Y-96400500D01*
X139387768Y-96400499D01*
X139454808Y-96420183D01*
X139475450Y-96436818D01*
X140513181Y-97474548D01*
X140546666Y-97535871D01*
X140549500Y-97562229D01*
X140549500Y-98006286D01*
X140580511Y-98202085D01*
X140582754Y-98216243D01*
X140647068Y-98414181D01*
X140648444Y-98418414D01*
X140744951Y-98607820D01*
X140869890Y-98779786D01*
X141020213Y-98930109D01*
X141192179Y-99055048D01*
X141192181Y-99055049D01*
X141192184Y-99055051D01*
X141381588Y-99151557D01*
X141583757Y-99217246D01*
X141793713Y-99250500D01*
X141793714Y-99250500D01*
X142006286Y-99250500D01*
X142006287Y-99250500D01*
X142216243Y-99217246D01*
X142371739Y-99166721D01*
X142441579Y-99164727D01*
X142497737Y-99196972D01*
X142716139Y-99415374D01*
X142716149Y-99415385D01*
X142720479Y-99419715D01*
X142720480Y-99419716D01*
X142832284Y-99531520D01*
X142919095Y-99581639D01*
X142919097Y-99581641D01*
X142957151Y-99603611D01*
X142969215Y-99610577D01*
X143121943Y-99651501D01*
X143121946Y-99651501D01*
X143287653Y-99651501D01*
X143287669Y-99651500D01*
X145148491Y-99651500D01*
X145148507Y-99651501D01*
X145156103Y-99651501D01*
X145314214Y-99651501D01*
X145314217Y-99651501D01*
X145466945Y-99610577D01*
X145517064Y-99581639D01*
X145603876Y-99531520D01*
X145715680Y-99419716D01*
X145715680Y-99419714D01*
X145725888Y-99409507D01*
X145725890Y-99409504D01*
X146358506Y-98776888D01*
X146358511Y-98776884D01*
X146368714Y-98766680D01*
X146368716Y-98766680D01*
X146480520Y-98654876D01*
X146534812Y-98560838D01*
X146559577Y-98517945D01*
X146600500Y-98365217D01*
X146600500Y-98207103D01*
X146600500Y-97746666D01*
X146620185Y-97679627D01*
X146636820Y-97658984D01*
X146680112Y-97615692D01*
X146680117Y-97615687D01*
X146762494Y-97476395D01*
X146807643Y-97320993D01*
X146810500Y-97284690D01*
X146810500Y-96875310D01*
X146807643Y-96839007D01*
X146777371Y-96734813D01*
X146762495Y-96683609D01*
X146762494Y-96683606D01*
X146762494Y-96683605D01*
X146680117Y-96544313D01*
X146680115Y-96544311D01*
X146680112Y-96544307D01*
X146565692Y-96429887D01*
X146565684Y-96429881D01*
X146457394Y-96365839D01*
X146426395Y-96347506D01*
X146426394Y-96347505D01*
X146426393Y-96347505D01*
X146426390Y-96347504D01*
X146270997Y-96302357D01*
X146270991Y-96302356D01*
X146234697Y-96299500D01*
X146234690Y-96299500D01*
X145765310Y-96299500D01*
X145765302Y-96299500D01*
X145729008Y-96302356D01*
X145729002Y-96302357D01*
X145573609Y-96347504D01*
X145573606Y-96347505D01*
X145434315Y-96429881D01*
X145434307Y-96429887D01*
X145319887Y-96544307D01*
X145319881Y-96544315D01*
X145237505Y-96683606D01*
X145237504Y-96683609D01*
X145192357Y-96839002D01*
X145192356Y-96839008D01*
X145189500Y-96875302D01*
X145189500Y-97284697D01*
X145192356Y-97320991D01*
X145192357Y-97320997D01*
X145237504Y-97476390D01*
X145237505Y-97476393D01*
X145319881Y-97615684D01*
X145319887Y-97615692D01*
X145363180Y-97658984D01*
X145377884Y-97685912D01*
X145394477Y-97711731D01*
X145395368Y-97717930D01*
X145396666Y-97720307D01*
X145399500Y-97746666D01*
X145399500Y-97986063D01*
X145379815Y-98053102D01*
X145363181Y-98073744D01*
X145022744Y-98414181D01*
X144961421Y-98447666D01*
X144935063Y-98450500D01*
X143501097Y-98450500D01*
X143434058Y-98430815D01*
X143413416Y-98414181D01*
X143261680Y-98262445D01*
X143228195Y-98201122D01*
X143226888Y-98155366D01*
X143250500Y-98006286D01*
X143250500Y-97493713D01*
X143247756Y-97476390D01*
X143217246Y-97283757D01*
X143151557Y-97081588D01*
X143055051Y-96892184D01*
X143055049Y-96892181D01*
X143055048Y-96892179D01*
X142930109Y-96720213D01*
X142779786Y-96569890D01*
X142607820Y-96444951D01*
X142418414Y-96348444D01*
X142418413Y-96348443D01*
X142418412Y-96348443D01*
X142355398Y-96327968D01*
X142297723Y-96288531D01*
X142270525Y-96224173D01*
X142282440Y-96155326D01*
X142288174Y-96144948D01*
X142334814Y-96069334D01*
X142389999Y-95902797D01*
X142400500Y-95800009D01*
X142400499Y-94399992D01*
X142398063Y-94376149D01*
X142389999Y-94297203D01*
X142389998Y-94297200D01*
X142334814Y-94130666D01*
X142242712Y-93981344D01*
X142118656Y-93857288D01*
X141969334Y-93765186D01*
X141802797Y-93710001D01*
X141802795Y-93710000D01*
X141700010Y-93699500D01*
X140949998Y-93699500D01*
X140949980Y-93699501D01*
X140847203Y-93710000D01*
X140847200Y-93710001D01*
X140680668Y-93765185D01*
X140680663Y-93765187D01*
X140531342Y-93857289D01*
X140407289Y-93981342D01*
X140315187Y-94130663D01*
X140315185Y-94130668D01*
X140287859Y-94213132D01*
X140260001Y-94297203D01*
X140260001Y-94297204D01*
X140260000Y-94297204D01*
X140249500Y-94399983D01*
X140249500Y-94437934D01*
X140229815Y-94504973D01*
X140177011Y-94550728D01*
X140107853Y-94560672D01*
X140086496Y-94555640D01*
X139947709Y-94509651D01*
X139848352Y-94499500D01*
X139848345Y-94499500D01*
X139712230Y-94499500D01*
X139645191Y-94479815D01*
X139624549Y-94463181D01*
X139410819Y-94249451D01*
X139377334Y-94188128D01*
X139374500Y-94161770D01*
X139374500Y-90899082D01*
X139368085Y-90866832D01*
X139345659Y-90754088D01*
X139305320Y-90656702D01*
X139297292Y-90637320D01*
X139289087Y-90617511D01*
X139289080Y-90617498D01*
X139233364Y-90534114D01*
X139206950Y-90494582D01*
X137649048Y-88936680D01*
X137615563Y-88875357D01*
X137620547Y-88805665D01*
X137649046Y-88761320D01*
X139389937Y-87020428D01*
X139405588Y-87011882D01*
X139418203Y-86999271D01*
X139435619Y-86995484D01*
X139451260Y-86986944D01*
X139469048Y-86988216D01*
X139486477Y-86984427D01*
X139503173Y-86990656D01*
G37*
%TD.AperFunction*%
%TA.AperFunction,Conductor*%
G36*
X132785535Y-93335264D02*
G01*
X132815350Y-93337397D01*
X132819676Y-93340635D01*
X132825018Y-93341476D01*
X132847351Y-93361352D01*
X132871284Y-93379267D01*
X132892455Y-93407547D01*
X133007664Y-93493793D01*
X133007671Y-93493797D01*
X133142517Y-93544091D01*
X133142516Y-93544091D01*
X133149444Y-93544835D01*
X133202127Y-93550500D01*
X134397872Y-93550499D01*
X134397874Y-93550498D01*
X134397888Y-93550498D01*
X134436471Y-93546349D01*
X134450299Y-93544863D01*
X134519059Y-93557268D01*
X134551236Y-93580471D01*
X134903181Y-93932416D01*
X134936666Y-93993739D01*
X134939500Y-94020097D01*
X134939500Y-94134697D01*
X134942356Y-94170991D01*
X134942357Y-94170997D01*
X134987504Y-94326390D01*
X134987505Y-94326393D01*
X134987506Y-94326395D01*
X135009401Y-94363417D01*
X135069881Y-94465684D01*
X135069887Y-94465692D01*
X135085504Y-94481309D01*
X135118989Y-94542632D01*
X135114005Y-94612324D01*
X135075136Y-94665937D01*
X134897915Y-94807265D01*
X134707265Y-94997915D01*
X134539161Y-95208712D01*
X134395714Y-95437005D01*
X134278734Y-95679917D01*
X134189687Y-95934397D01*
X134189684Y-95934405D01*
X134129688Y-96197268D01*
X134129686Y-96197280D01*
X134099500Y-96465186D01*
X134099500Y-96734815D01*
X134127633Y-96984505D01*
X134123232Y-97009628D01*
X134122842Y-97035139D01*
X134117304Y-97043473D01*
X134115578Y-97053327D01*
X134098292Y-97072084D01*
X134084173Y-97093332D01*
X134075009Y-97097348D01*
X134068229Y-97104706D01*
X134043541Y-97111141D01*
X134020180Y-97121381D01*
X134010301Y-97119806D01*
X134000619Y-97122330D01*
X133976372Y-97114397D01*
X133951182Y-97110381D01*
X133938652Y-97102055D01*
X133934213Y-97100603D01*
X133921786Y-97090848D01*
X133915467Y-97085201D01*
X133910413Y-97080422D01*
X133419577Y-96589586D01*
X133414798Y-96584532D01*
X133240009Y-96388943D01*
X133210015Y-96325839D01*
X133218900Y-96256536D01*
X133263841Y-96203038D01*
X133308274Y-96184699D01*
X133383497Y-96169737D01*
X133529179Y-96109394D01*
X133660289Y-96021789D01*
X133771789Y-95910289D01*
X133859394Y-95779179D01*
X133919737Y-95633497D01*
X133950500Y-95478842D01*
X133950500Y-95321158D01*
X133950500Y-95321155D01*
X133950499Y-95321153D01*
X133935553Y-95246014D01*
X133919737Y-95166503D01*
X133904833Y-95130521D01*
X133859397Y-95020827D01*
X133859390Y-95020814D01*
X133771789Y-94889711D01*
X133771786Y-94889707D01*
X133660292Y-94778213D01*
X133660288Y-94778210D01*
X133529185Y-94690609D01*
X133529172Y-94690602D01*
X133383501Y-94630264D01*
X133383489Y-94630261D01*
X133228845Y-94599500D01*
X133228842Y-94599500D01*
X133071158Y-94599500D01*
X133071155Y-94599500D01*
X132916510Y-94630261D01*
X132916498Y-94630264D01*
X132770827Y-94690602D01*
X132770814Y-94690609D01*
X132639711Y-94778210D01*
X132639707Y-94778213D01*
X132528213Y-94889707D01*
X132528210Y-94889711D01*
X132440609Y-95020814D01*
X132440604Y-95020824D01*
X132423515Y-95062081D01*
X132418234Y-95068634D01*
X132416236Y-95076810D01*
X132396636Y-95095434D01*
X132379673Y-95116485D01*
X132371687Y-95119142D01*
X132365587Y-95124940D01*
X132339032Y-95130011D01*
X132313379Y-95138549D01*
X132305223Y-95136467D01*
X132296957Y-95138046D01*
X132271875Y-95127955D01*
X132245680Y-95121269D01*
X132238260Y-95114431D01*
X132232137Y-95111968D01*
X132207825Y-95086383D01*
X132109059Y-94947186D01*
X132105194Y-94941403D01*
X131735874Y-94353633D01*
X131732340Y-94347642D01*
X131457026Y-93849500D01*
X131396551Y-93740078D01*
X131393363Y-93733906D01*
X131331515Y-93605477D01*
X131320163Y-93536536D01*
X131347885Y-93472402D01*
X131405881Y-93433436D01*
X131475736Y-93432011D01*
X131530916Y-93463995D01*
X131538707Y-93471786D01*
X131538711Y-93471789D01*
X131669814Y-93559390D01*
X131669827Y-93559397D01*
X131801370Y-93613883D01*
X131815503Y-93619737D01*
X131961747Y-93648827D01*
X131970153Y-93650499D01*
X131970156Y-93650500D01*
X131970158Y-93650500D01*
X132127844Y-93650500D01*
X132127845Y-93650499D01*
X132282497Y-93619737D01*
X132395166Y-93573067D01*
X132428172Y-93559397D01*
X132428172Y-93559396D01*
X132428179Y-93559394D01*
X132559289Y-93471789D01*
X132561843Y-93469234D01*
X132569571Y-93462133D01*
X132577984Y-93455035D01*
X132618716Y-93431520D01*
X132688059Y-93362176D01*
X132692062Y-93358800D01*
X132719419Y-93346741D01*
X132745658Y-93332413D01*
X132751049Y-93332798D01*
X132755997Y-93330618D01*
X132785535Y-93335264D01*
G37*
%TD.AperFunction*%
%TA.AperFunction,Conductor*%
G36*
X145870468Y-92920185D02*
G01*
X145878901Y-92926113D01*
X145940281Y-92973212D01*
X146080278Y-93031201D01*
X146192794Y-93046014D01*
X146192801Y-93046014D01*
X146418227Y-93046014D01*
X146418234Y-93046014D01*
X146530750Y-93031201D01*
X146608061Y-92999176D01*
X146677530Y-92991708D01*
X146702963Y-92999175D01*
X146780278Y-93031201D01*
X146892794Y-93046014D01*
X146892801Y-93046014D01*
X147118227Y-93046014D01*
X147118234Y-93046014D01*
X147129957Y-93044470D01*
X147143986Y-93046657D01*
X147157932Y-93043969D01*
X147177823Y-93051931D01*
X147198990Y-93055231D01*
X147209610Y-93064656D01*
X147222797Y-93069935D01*
X147235226Y-93087389D01*
X147251249Y-93101608D01*
X147255088Y-93115278D01*
X147263327Y-93126848D01*
X147264346Y-93148249D01*
X147270139Y-93168875D01*
X147266041Y-93183813D01*
X147266653Y-93196639D01*
X147253537Y-93229405D01*
X147234813Y-93261838D01*
X147234811Y-93261841D01*
X147194939Y-93330900D01*
X147191829Y-93338410D01*
X147190306Y-93337779D01*
X147175023Y-93368758D01*
X147127815Y-93430281D01*
X147069827Y-93570277D01*
X147069827Y-93570278D01*
X147055014Y-93682786D01*
X147055014Y-93805941D01*
X147035329Y-93872980D01*
X146982525Y-93918735D01*
X146913367Y-93928679D01*
X146883562Y-93920502D01*
X146786418Y-93880264D01*
X146786406Y-93880261D01*
X146631762Y-93849500D01*
X146631759Y-93849500D01*
X146474075Y-93849500D01*
X146474072Y-93849500D01*
X146319427Y-93880261D01*
X146319415Y-93880264D01*
X146190960Y-93933472D01*
X146121491Y-93940941D01*
X146059012Y-93909666D01*
X146055827Y-93906592D01*
X145261416Y-93112181D01*
X145227931Y-93050858D01*
X145232915Y-92981166D01*
X145274787Y-92925233D01*
X145340251Y-92900816D01*
X145349097Y-92900500D01*
X145803429Y-92900500D01*
X145870468Y-92920185D01*
G37*
%TD.AperFunction*%
%TA.AperFunction,Conductor*%
G36*
X133017833Y-91597587D02*
G01*
X133142517Y-91644091D01*
X133142516Y-91644091D01*
X133149444Y-91644835D01*
X133202127Y-91650500D01*
X134397872Y-91650499D01*
X134412242Y-91648954D01*
X134427649Y-91651733D01*
X134443147Y-91649505D01*
X134461329Y-91657808D01*
X134481001Y-91661357D01*
X134492460Y-91672025D01*
X134506703Y-91678530D01*
X134517509Y-91695345D01*
X134532140Y-91708966D01*
X134536517Y-91724923D01*
X134544477Y-91737308D01*
X134549500Y-91772243D01*
X134549500Y-91827756D01*
X134529815Y-91894795D01*
X134477011Y-91940550D01*
X134412247Y-91951045D01*
X134397873Y-91949500D01*
X134397864Y-91949500D01*
X133202129Y-91949500D01*
X133202123Y-91949501D01*
X133142515Y-91955909D01*
X133017832Y-92002412D01*
X132987225Y-92004600D01*
X132956853Y-92008968D01*
X132952697Y-92007070D01*
X132948141Y-92007396D01*
X132921213Y-91992692D01*
X132893297Y-91979943D01*
X132890826Y-91976098D01*
X132886818Y-91973910D01*
X132872115Y-91946983D01*
X132855523Y-91921165D01*
X132854631Y-91914962D01*
X132853334Y-91912587D01*
X132850500Y-91886230D01*
X132850500Y-91713769D01*
X132870185Y-91646730D01*
X132922989Y-91600975D01*
X132992147Y-91591031D01*
X133017833Y-91597587D01*
G37*
%TD.AperFunction*%
%TA.AperFunction,Conductor*%
G36*
X151338143Y-88262630D02*
G01*
X151347193Y-88262954D01*
X151368897Y-88278024D01*
X151392527Y-88289852D01*
X151398666Y-88298694D01*
X151404585Y-88302804D01*
X151422594Y-88333157D01*
X151430626Y-88352549D01*
X151438093Y-88422019D01*
X151430626Y-88447450D01*
X151424115Y-88463168D01*
X151424112Y-88463180D01*
X151399500Y-88586911D01*
X151399500Y-88713088D01*
X151424112Y-88836819D01*
X151424115Y-88836831D01*
X151430626Y-88852550D01*
X151438093Y-88922020D01*
X151430626Y-88947450D01*
X151424115Y-88963168D01*
X151424112Y-88963180D01*
X151399500Y-89086911D01*
X151399500Y-89213088D01*
X151424112Y-89336819D01*
X151424115Y-89336831D01*
X151430626Y-89352550D01*
X151438093Y-89422020D01*
X151430626Y-89447450D01*
X151424115Y-89463168D01*
X151424112Y-89463180D01*
X151399500Y-89586911D01*
X151399500Y-89713088D01*
X151424112Y-89836819D01*
X151424115Y-89836831D01*
X151430626Y-89852550D01*
X151438093Y-89922020D01*
X151430626Y-89947450D01*
X151424115Y-89963168D01*
X151424112Y-89963180D01*
X151399500Y-90086911D01*
X151399500Y-90213088D01*
X151424112Y-90336819D01*
X151424115Y-90336831D01*
X151430626Y-90352550D01*
X151438093Y-90422020D01*
X151430626Y-90447450D01*
X151424115Y-90463168D01*
X151424112Y-90463180D01*
X151399500Y-90586911D01*
X151399500Y-90713088D01*
X151424112Y-90836819D01*
X151424115Y-90836831D01*
X151430626Y-90852550D01*
X151438093Y-90922020D01*
X151430626Y-90947450D01*
X151424115Y-90963168D01*
X151424112Y-90963180D01*
X151399500Y-91086911D01*
X151399500Y-91213088D01*
X151424112Y-91336819D01*
X151424115Y-91336831D01*
X151430626Y-91352550D01*
X151433904Y-91383050D01*
X151439354Y-91413255D01*
X151437803Y-91419328D01*
X151438093Y-91422020D01*
X151430625Y-91447452D01*
X151425920Y-91458811D01*
X151382079Y-91513215D01*
X151358811Y-91525920D01*
X151347452Y-91530625D01*
X151321334Y-91533433D01*
X151315785Y-91535280D01*
X151312338Y-91534400D01*
X151277983Y-91538094D01*
X151252550Y-91530626D01*
X151236831Y-91524115D01*
X151236819Y-91524112D01*
X151113087Y-91499500D01*
X151113084Y-91499500D01*
X150986916Y-91499500D01*
X150986913Y-91499500D01*
X150863180Y-91524112D01*
X150863168Y-91524115D01*
X150847450Y-91530626D01*
X150777980Y-91538093D01*
X150752550Y-91530626D01*
X150736831Y-91524115D01*
X150736819Y-91524112D01*
X150613087Y-91499500D01*
X150613084Y-91499500D01*
X150486916Y-91499500D01*
X150486913Y-91499500D01*
X150363180Y-91524112D01*
X150363168Y-91524115D01*
X150347450Y-91530626D01*
X150277980Y-91538093D01*
X150252550Y-91530626D01*
X150236831Y-91524115D01*
X150236819Y-91524112D01*
X150113087Y-91499500D01*
X150113084Y-91499500D01*
X149986916Y-91499500D01*
X149986913Y-91499500D01*
X149863180Y-91524112D01*
X149863168Y-91524115D01*
X149847450Y-91530626D01*
X149777980Y-91538093D01*
X149752550Y-91530626D01*
X149736831Y-91524115D01*
X149736819Y-91524112D01*
X149613087Y-91499500D01*
X149613084Y-91499500D01*
X149486916Y-91499500D01*
X149486913Y-91499500D01*
X149363180Y-91524112D01*
X149363168Y-91524115D01*
X149246611Y-91572394D01*
X149246607Y-91572396D01*
X149141709Y-91642487D01*
X149141701Y-91642493D01*
X149137681Y-91646514D01*
X149076358Y-91679999D01*
X149006666Y-91675015D01*
X148962319Y-91646514D01*
X148958298Y-91642493D01*
X148958290Y-91642487D01*
X148853392Y-91572396D01*
X148853388Y-91572394D01*
X148736831Y-91524115D01*
X148736819Y-91524112D01*
X148613087Y-91499500D01*
X148613084Y-91499500D01*
X148486916Y-91499500D01*
X148486913Y-91499500D01*
X148363180Y-91524112D01*
X148363172Y-91524114D01*
X148339419Y-91533953D01*
X148330421Y-91534920D01*
X148322639Y-91539538D01*
X148296225Y-91538595D01*
X148269949Y-91541420D01*
X148261857Y-91537369D01*
X148252814Y-91537047D01*
X148231102Y-91521973D01*
X148207471Y-91510144D01*
X148201335Y-91501307D01*
X148195420Y-91497201D01*
X148177409Y-91466849D01*
X148174034Y-91458703D01*
X148169375Y-91447456D01*
X148161904Y-91377989D01*
X148169373Y-91352548D01*
X148175886Y-91336827D01*
X148200500Y-91213084D01*
X148200500Y-91086916D01*
X148200500Y-91086913D01*
X148200499Y-91086911D01*
X148175887Y-90963179D01*
X148175886Y-90963173D01*
X148169374Y-90947454D01*
X148161905Y-90877987D01*
X148169373Y-90852548D01*
X148175886Y-90836827D01*
X148200500Y-90713084D01*
X148200500Y-90586916D01*
X148200500Y-90586913D01*
X148200499Y-90586911D01*
X148184446Y-90506207D01*
X148175886Y-90463173D01*
X148169374Y-90447454D01*
X148161905Y-90377987D01*
X148169373Y-90352548D01*
X148175886Y-90336827D01*
X148200500Y-90213084D01*
X148200500Y-90086916D01*
X148200500Y-90086913D01*
X148200499Y-90086911D01*
X148192796Y-90048186D01*
X148175886Y-89963173D01*
X148169374Y-89947454D01*
X148161905Y-89877987D01*
X148169373Y-89852548D01*
X148175886Y-89836827D01*
X148200500Y-89713084D01*
X148200500Y-89586916D01*
X148200500Y-89586913D01*
X148200499Y-89586911D01*
X148185423Y-89511118D01*
X148175886Y-89463173D01*
X148169374Y-89447454D01*
X148161905Y-89377987D01*
X148169373Y-89352548D01*
X148175886Y-89336827D01*
X148200500Y-89213084D01*
X148200500Y-89086916D01*
X148200500Y-89086913D01*
X148200499Y-89086911D01*
X148198894Y-89078842D01*
X148175886Y-88963173D01*
X148169374Y-88947454D01*
X148161905Y-88877987D01*
X148169373Y-88852548D01*
X148175886Y-88836827D01*
X148200500Y-88713084D01*
X148200500Y-88586916D01*
X148200500Y-88586913D01*
X148200499Y-88586911D01*
X148177645Y-88472017D01*
X148175886Y-88463173D01*
X148175884Y-88463168D01*
X148175883Y-88463164D01*
X148169375Y-88447453D01*
X148166095Y-88416951D01*
X148160645Y-88386744D01*
X148162194Y-88380674D01*
X148161905Y-88377984D01*
X148169373Y-88352549D01*
X148174080Y-88341186D01*
X148217920Y-88286784D01*
X148241183Y-88274081D01*
X148252548Y-88269373D01*
X148278664Y-88266565D01*
X148284214Y-88264719D01*
X148287660Y-88265598D01*
X148322016Y-88261905D01*
X148347453Y-88269375D01*
X148363164Y-88275883D01*
X148363168Y-88275884D01*
X148363173Y-88275886D01*
X148477837Y-88298694D01*
X148486911Y-88300499D01*
X148486914Y-88300500D01*
X148486916Y-88300500D01*
X148613086Y-88300500D01*
X148613087Y-88300499D01*
X148736827Y-88275886D01*
X148752545Y-88269374D01*
X148822013Y-88261905D01*
X148847451Y-88269373D01*
X148863173Y-88275886D01*
X148977837Y-88298694D01*
X148986911Y-88300499D01*
X148986914Y-88300500D01*
X148986916Y-88300500D01*
X149113086Y-88300500D01*
X149113087Y-88300499D01*
X149236827Y-88275886D01*
X149252545Y-88269374D01*
X149322013Y-88261905D01*
X149347451Y-88269373D01*
X149363173Y-88275886D01*
X149477837Y-88298694D01*
X149486911Y-88300499D01*
X149486914Y-88300500D01*
X149486916Y-88300500D01*
X149613086Y-88300500D01*
X149613087Y-88300499D01*
X149736827Y-88275886D01*
X149752545Y-88269374D01*
X149822013Y-88261905D01*
X149847451Y-88269373D01*
X149863173Y-88275886D01*
X149977837Y-88298694D01*
X149986911Y-88300499D01*
X149986914Y-88300500D01*
X149986916Y-88300500D01*
X150113086Y-88300500D01*
X150113087Y-88300499D01*
X150236827Y-88275886D01*
X150252545Y-88269374D01*
X150322013Y-88261905D01*
X150347451Y-88269373D01*
X150363173Y-88275886D01*
X150477837Y-88298694D01*
X150486911Y-88300499D01*
X150486914Y-88300500D01*
X150486916Y-88300500D01*
X150613086Y-88300500D01*
X150613087Y-88300499D01*
X150736827Y-88275886D01*
X150752545Y-88269374D01*
X150822013Y-88261905D01*
X150847451Y-88269373D01*
X150863173Y-88275886D01*
X150977837Y-88298694D01*
X150986911Y-88300499D01*
X150986914Y-88300500D01*
X150986916Y-88300500D01*
X151113086Y-88300500D01*
X151113087Y-88300499D01*
X151236827Y-88275886D01*
X151260581Y-88266046D01*
X151269581Y-88265079D01*
X151277368Y-88260459D01*
X151303775Y-88261402D01*
X151330047Y-88258578D01*
X151338143Y-88262630D01*
G37*
%TD.AperFunction*%
%TA.AperFunction,Conductor*%
G36*
X138115942Y-80369185D02*
G01*
X138136584Y-80385819D01*
X138539902Y-80789137D01*
X138573387Y-80850460D01*
X138575580Y-80889414D01*
X138574500Y-80899986D01*
X138574500Y-81500001D01*
X138574501Y-81500019D01*
X138585000Y-81602796D01*
X138585001Y-81602799D01*
X138623215Y-81718119D01*
X138640186Y-81769334D01*
X138721815Y-81901677D01*
X138732289Y-81918657D01*
X138856346Y-82042714D01*
X138859182Y-82044463D01*
X138860717Y-82046170D01*
X138862011Y-82047193D01*
X138861836Y-82047414D01*
X138905905Y-82096411D01*
X138917126Y-82165374D01*
X138889282Y-82229456D01*
X138859182Y-82255537D01*
X138856346Y-82257285D01*
X138732289Y-82381342D01*
X138640187Y-82530663D01*
X138640185Y-82530668D01*
X138628322Y-82566468D01*
X138585001Y-82697203D01*
X138585001Y-82697204D01*
X138585000Y-82697204D01*
X138574500Y-82799983D01*
X138574500Y-83400000D01*
X138574501Y-83400011D01*
X138575581Y-83410583D01*
X138562808Y-83479275D01*
X138539903Y-83510860D01*
X135338584Y-86712181D01*
X135277261Y-86745666D01*
X135250903Y-86748500D01*
X133385782Y-86748500D01*
X133233052Y-86789423D01*
X133205138Y-86805540D01*
X133205129Y-86805546D01*
X133200659Y-86808127D01*
X133096124Y-86868480D01*
X133054338Y-86910265D01*
X133045230Y-86916591D01*
X133022178Y-86924265D01*
X133000858Y-86935908D01*
X132989625Y-86935104D01*
X132978938Y-86938663D01*
X132955397Y-86932656D01*
X132931166Y-86930924D01*
X132922149Y-86924174D01*
X132911237Y-86921390D01*
X132894680Y-86903610D01*
X132875233Y-86889052D01*
X132871297Y-86878500D01*
X132863622Y-86870258D01*
X132859305Y-86846350D01*
X132850816Y-86823588D01*
X132850500Y-86814742D01*
X132850500Y-86000096D01*
X132870185Y-85933057D01*
X132886815Y-85912419D01*
X133208513Y-85590720D01*
X133269836Y-85557236D01*
X133339528Y-85562220D01*
X133361290Y-85572863D01*
X133380659Y-85584810D01*
X133380660Y-85584810D01*
X133380666Y-85584814D01*
X133547203Y-85639999D01*
X133649991Y-85650500D01*
X135050008Y-85650499D01*
X135152797Y-85639999D01*
X135319334Y-85584814D01*
X135468656Y-85492712D01*
X135592712Y-85368656D01*
X135684814Y-85219334D01*
X135739999Y-85052797D01*
X135750500Y-84950009D01*
X135750499Y-84433973D01*
X135770183Y-84366935D01*
X135822987Y-84321180D01*
X135892146Y-84311236D01*
X135898690Y-84312357D01*
X136021153Y-84336716D01*
X136021156Y-84336717D01*
X136021158Y-84336717D01*
X136178844Y-84336717D01*
X136178845Y-84336716D01*
X136333497Y-84305954D01*
X136479179Y-84245611D01*
X136610289Y-84158006D01*
X136721789Y-84046506D01*
X136809394Y-83915396D01*
X136869737Y-83769714D01*
X136900500Y-83615059D01*
X136900500Y-83457375D01*
X136900500Y-83457372D01*
X136900499Y-83457370D01*
X136899284Y-83451264D01*
X136869737Y-83302720D01*
X136869735Y-83302715D01*
X136809397Y-83157044D01*
X136809390Y-83157031D01*
X136721789Y-83025928D01*
X136721786Y-83025924D01*
X136610292Y-82914430D01*
X136610288Y-82914427D01*
X136479185Y-82826826D01*
X136479172Y-82826819D01*
X136333501Y-82766481D01*
X136333489Y-82766478D01*
X136178845Y-82735717D01*
X136178842Y-82735717D01*
X136021158Y-82735717D01*
X136021155Y-82735717D01*
X135866510Y-82766478D01*
X135866498Y-82766481D01*
X135720827Y-82826819D01*
X135720814Y-82826826D01*
X135665983Y-82863464D01*
X135599305Y-82884342D01*
X135531925Y-82865857D01*
X135509411Y-82848043D01*
X135468657Y-82807289D01*
X135468656Y-82807288D01*
X135375888Y-82750069D01*
X135319336Y-82715187D01*
X135319331Y-82715185D01*
X135265065Y-82697203D01*
X135152797Y-82660001D01*
X135152795Y-82660000D01*
X135146371Y-82657872D01*
X135147186Y-82655410D01*
X135096091Y-82627696D01*
X135062433Y-82566468D01*
X135065818Y-82500767D01*
X135089999Y-82427797D01*
X135100500Y-82325009D01*
X135100499Y-81274992D01*
X135089999Y-81172203D01*
X135089849Y-81171752D01*
X135082239Y-81148784D01*
X135079837Y-81078956D01*
X135115569Y-81018914D01*
X135178089Y-80987721D01*
X135247549Y-80995282D01*
X135268836Y-81006678D01*
X135347731Y-81059394D01*
X135347733Y-81059395D01*
X135347737Y-81059397D01*
X135493408Y-81119735D01*
X135493413Y-81119737D01*
X135639441Y-81148784D01*
X135648063Y-81150499D01*
X135648066Y-81150500D01*
X135648068Y-81150500D01*
X135805754Y-81150500D01*
X135805755Y-81150499D01*
X135960407Y-81119737D01*
X136106089Y-81059394D01*
X136237199Y-80971789D01*
X136348699Y-80860289D01*
X136436304Y-80729179D01*
X136496647Y-80583497D01*
X136523339Y-80449309D01*
X136555724Y-80387398D01*
X136616439Y-80352824D01*
X136644956Y-80349500D01*
X138048903Y-80349500D01*
X138115942Y-80369185D01*
G37*
%TD.AperFunction*%
%TA.AperFunction,Conductor*%
G36*
X152064255Y-82922002D02*
G01*
X152122118Y-82961164D01*
X152149623Y-83025392D01*
X152150500Y-83040114D01*
X152150500Y-84625500D01*
X152130815Y-84692539D01*
X152078011Y-84738294D01*
X152026500Y-84749500D01*
X151837272Y-84749500D01*
X151724764Y-84764313D01*
X151724763Y-84764313D01*
X151577258Y-84825412D01*
X151576554Y-84823713D01*
X151518603Y-84837774D01*
X151452575Y-84814923D01*
X151409383Y-84760003D01*
X151400500Y-84713914D01*
X151400500Y-83770945D01*
X151400499Y-83770941D01*
X151400488Y-83770901D01*
X151387620Y-83722873D01*
X151359577Y-83618215D01*
X151330639Y-83568095D01*
X151329494Y-83566112D01*
X151317109Y-83544657D01*
X151317097Y-83544609D01*
X151300500Y-83482664D01*
X151300500Y-83471155D01*
X151300499Y-83471153D01*
X151269738Y-83316510D01*
X151269737Y-83316503D01*
X151264026Y-83302715D01*
X151209397Y-83170827D01*
X151209391Y-83170816D01*
X151191734Y-83144390D01*
X151170857Y-83077712D01*
X151189342Y-83010332D01*
X151241321Y-82963643D01*
X151294837Y-82951500D01*
X151712388Y-82951500D01*
X151712404Y-82951501D01*
X151720000Y-82951501D01*
X151878111Y-82951501D01*
X151878114Y-82951501D01*
X151994409Y-82920339D01*
X152064255Y-82922002D01*
G37*
%TD.AperFunction*%
%TA.AperFunction,Conductor*%
G36*
X144435459Y-81305014D02*
G01*
X144451253Y-81304489D01*
X144483828Y-81318074D01*
X144489202Y-81321280D01*
X144489773Y-81321851D01*
X144620883Y-81409456D01*
X144673584Y-81431285D01*
X144681328Y-81435905D01*
X144705477Y-81454712D01*
X145463181Y-82212416D01*
X145496666Y-82273739D01*
X145499500Y-82300097D01*
X145499500Y-82312727D01*
X145514313Y-82425235D01*
X145514313Y-82425236D01*
X145563979Y-82545141D01*
X145572302Y-82565233D01*
X145664549Y-82685451D01*
X145784767Y-82777698D01*
X145924764Y-82835687D01*
X146037280Y-82850500D01*
X146037287Y-82850500D01*
X146262713Y-82850500D01*
X146262720Y-82850500D01*
X146375236Y-82835687D01*
X146515231Y-82777699D01*
X146522742Y-82774588D01*
X146523328Y-82776004D01*
X146582315Y-82761685D01*
X146648346Y-82784526D01*
X146691545Y-82839440D01*
X146698198Y-82908993D01*
X146692617Y-82928878D01*
X146640910Y-83067513D01*
X146640909Y-83067517D01*
X146634500Y-83127127D01*
X146634500Y-83127134D01*
X146634500Y-83127135D01*
X146634500Y-83722870D01*
X146634679Y-83726195D01*
X146633311Y-83726268D01*
X146621847Y-83789633D01*
X146574213Y-83840748D01*
X146506505Y-83857995D01*
X146494805Y-83857015D01*
X146437730Y-83849501D01*
X146437725Y-83849500D01*
X146437720Y-83849500D01*
X146229275Y-83849500D01*
X146162236Y-83829815D01*
X146150616Y-83821358D01*
X146150579Y-83821327D01*
X146019472Y-83733724D01*
X146019459Y-83733717D01*
X145873788Y-83673379D01*
X145873776Y-83673376D01*
X145719132Y-83642615D01*
X145719129Y-83642615D01*
X145561445Y-83642615D01*
X145561444Y-83642615D01*
X145560981Y-83642707D01*
X145560734Y-83642684D01*
X145555382Y-83643212D01*
X145555281Y-83642196D01*
X145537148Y-83640572D01*
X145513333Y-83642846D01*
X145502986Y-83637511D01*
X145491390Y-83636473D01*
X145472496Y-83621793D01*
X145451231Y-83610830D01*
X145439991Y-83596537D01*
X145436217Y-83593605D01*
X145429414Y-83583087D01*
X145366888Y-83474788D01*
X145350871Y-83424932D01*
X145350500Y-83421167D01*
X145350500Y-83421158D01*
X145348396Y-83410583D01*
X145329684Y-83316510D01*
X145319737Y-83266503D01*
X145280105Y-83170821D01*
X145259397Y-83120827D01*
X145259390Y-83120814D01*
X145171789Y-82989711D01*
X145171786Y-82989707D01*
X145060292Y-82878213D01*
X145060288Y-82878210D01*
X144929185Y-82790609D01*
X144929172Y-82790602D01*
X144783501Y-82730264D01*
X144783489Y-82730261D01*
X144628845Y-82699500D01*
X144628842Y-82699500D01*
X144471158Y-82699500D01*
X144471155Y-82699500D01*
X144316510Y-82730261D01*
X144316498Y-82730264D01*
X144170827Y-82790602D01*
X144170814Y-82790609D01*
X144039711Y-82878210D01*
X144039707Y-82878213D01*
X143928213Y-82989707D01*
X143928210Y-82989711D01*
X143840609Y-83120814D01*
X143840602Y-83120827D01*
X143780264Y-83266498D01*
X143780261Y-83266510D01*
X143749500Y-83421153D01*
X143749500Y-83578846D01*
X143773859Y-83701309D01*
X143767632Y-83770901D01*
X143724768Y-83826078D01*
X143658879Y-83849322D01*
X143652243Y-83849500D01*
X143477750Y-83849500D01*
X143477743Y-83849501D01*
X143418136Y-83855908D01*
X143283291Y-83906202D01*
X143283284Y-83906206D01*
X143168075Y-83992452D01*
X143163301Y-83997227D01*
X143101978Y-84030712D01*
X143032286Y-84025728D01*
X142987939Y-83997227D01*
X142983164Y-83992452D01*
X142867955Y-83906206D01*
X142867948Y-83906202D01*
X142733102Y-83855908D01*
X142733104Y-83855908D01*
X142696282Y-83851950D01*
X142631731Y-83825212D01*
X142591883Y-83767820D01*
X142589390Y-83697994D01*
X142603421Y-83664511D01*
X142618478Y-83639606D01*
X142669086Y-83477196D01*
X142675500Y-83406616D01*
X142675500Y-82893384D01*
X142669086Y-82822804D01*
X142618478Y-82660394D01*
X142530472Y-82514815D01*
X142530470Y-82514813D01*
X142530469Y-82514811D01*
X142410188Y-82394530D01*
X142368406Y-82369272D01*
X142264606Y-82306522D01*
X142102196Y-82255914D01*
X142102194Y-82255913D01*
X142102192Y-82255913D01*
X142052778Y-82251423D01*
X142031616Y-82249500D01*
X141368384Y-82249500D01*
X141349145Y-82251248D01*
X141297807Y-82255913D01*
X141135393Y-82306522D01*
X141005069Y-82385306D01*
X140978248Y-82392387D01*
X140952484Y-82402648D01*
X140944943Y-82401180D01*
X140937514Y-82403142D01*
X140911124Y-82394599D01*
X140883901Y-82389302D01*
X140875283Y-82382997D01*
X140871040Y-82381624D01*
X140855188Y-82368778D01*
X140854212Y-82367844D01*
X140743656Y-82257288D01*
X140729657Y-82248653D01*
X140720185Y-82239589D01*
X140709044Y-82220212D01*
X140694096Y-82203594D01*
X140691966Y-82190510D01*
X140685359Y-82179018D01*
X140686462Y-82156693D01*
X140682872Y-82134632D01*
X140688154Y-82122473D01*
X140688809Y-82109233D01*
X140701805Y-82091050D01*
X140710713Y-82070549D01*
X140725815Y-82057462D01*
X140729440Y-82052392D01*
X140733560Y-82050750D01*
X140740817Y-82044462D01*
X140743656Y-82042712D01*
X140867712Y-81918656D01*
X140959814Y-81769334D01*
X141014999Y-81602797D01*
X141025500Y-81500009D01*
X141025500Y-81424562D01*
X141045185Y-81357523D01*
X141097989Y-81311768D01*
X141149500Y-81300562D01*
X144420296Y-81300562D01*
X144435459Y-81305014D01*
G37*
%TD.AperFunction*%
%TA.AperFunction,Conductor*%
G36*
X142854036Y-75505612D02*
G01*
X143547130Y-75544535D01*
X143554049Y-75545119D01*
X144243869Y-75622843D01*
X144250706Y-75623808D01*
X144935108Y-75740092D01*
X144941916Y-75741446D01*
X145618697Y-75895917D01*
X145625405Y-75897647D01*
X145758773Y-75936070D01*
X145829151Y-75956346D01*
X145888121Y-75993821D01*
X145917469Y-76057228D01*
X145907878Y-76126436D01*
X145862393Y-76179472D01*
X145795455Y-76199498D01*
X145794823Y-76199500D01*
X144092129Y-76199500D01*
X144092123Y-76199501D01*
X144032516Y-76205908D01*
X143897671Y-76256202D01*
X143897664Y-76256206D01*
X143782455Y-76342452D01*
X143782452Y-76342455D01*
X143696206Y-76457664D01*
X143696203Y-76457669D01*
X143647189Y-76589083D01*
X143605317Y-76645016D01*
X143539853Y-76669433D01*
X143471580Y-76654581D01*
X143443326Y-76633430D01*
X143329786Y-76519890D01*
X143157820Y-76394951D01*
X142968414Y-76298444D01*
X142968413Y-76298443D01*
X142968412Y-76298443D01*
X142766243Y-76232754D01*
X142766241Y-76232753D01*
X142766240Y-76232753D01*
X142604957Y-76207208D01*
X142556287Y-76199500D01*
X142343713Y-76199500D01*
X142295042Y-76207208D01*
X142133760Y-76232753D01*
X141931585Y-76298444D01*
X141742179Y-76394951D01*
X141570213Y-76519890D01*
X141419890Y-76670213D01*
X141294949Y-76842182D01*
X141290484Y-76850946D01*
X141242509Y-76901742D01*
X141174688Y-76918536D01*
X141108553Y-76895998D01*
X141069516Y-76850946D01*
X141065050Y-76842182D01*
X140940109Y-76670213D01*
X140789786Y-76519890D01*
X140617820Y-76394951D01*
X140428414Y-76298444D01*
X140428413Y-76298443D01*
X140428412Y-76298443D01*
X140226243Y-76232754D01*
X140226241Y-76232753D01*
X140226240Y-76232753D01*
X140064957Y-76207208D01*
X140016287Y-76199500D01*
X139803713Y-76199500D01*
X139755042Y-76207208D01*
X139593760Y-76232753D01*
X139391585Y-76298444D01*
X139202179Y-76394951D01*
X139030213Y-76519890D01*
X138879890Y-76670213D01*
X138754951Y-76842179D01*
X138658444Y-77031585D01*
X138592753Y-77233760D01*
X138589487Y-77254384D01*
X138559500Y-77443713D01*
X138559500Y-77656287D01*
X138592754Y-77866243D01*
X138654821Y-78057266D01*
X138658444Y-78068414D01*
X138754951Y-78257820D01*
X138879890Y-78429786D01*
X139030213Y-78580109D01*
X139202179Y-78705048D01*
X139202181Y-78705049D01*
X139202184Y-78705051D01*
X139391588Y-78801557D01*
X139593757Y-78867246D01*
X139803713Y-78900500D01*
X139803714Y-78900500D01*
X140016286Y-78900500D01*
X140016287Y-78900500D01*
X140226243Y-78867246D01*
X140428412Y-78801557D01*
X140617816Y-78705051D01*
X140704138Y-78642335D01*
X140789786Y-78580109D01*
X140789788Y-78580106D01*
X140789792Y-78580104D01*
X140940104Y-78429792D01*
X140940106Y-78429788D01*
X140940109Y-78429786D01*
X141065048Y-78257820D01*
X141065047Y-78257820D01*
X141065051Y-78257816D01*
X141069514Y-78249054D01*
X141117488Y-78198259D01*
X141185308Y-78181463D01*
X141251444Y-78203999D01*
X141290486Y-78249056D01*
X141294951Y-78257820D01*
X141419890Y-78429786D01*
X141570213Y-78580109D01*
X141742179Y-78705048D01*
X141742181Y-78705049D01*
X141742184Y-78705051D01*
X141931588Y-78801557D01*
X142133757Y-78867246D01*
X142343713Y-78900500D01*
X142343714Y-78900500D01*
X142556286Y-78900500D01*
X142556287Y-78900500D01*
X142766243Y-78867246D01*
X142968412Y-78801557D01*
X143157816Y-78705051D01*
X143329792Y-78580104D01*
X143443329Y-78466566D01*
X143504648Y-78433084D01*
X143574340Y-78438068D01*
X143630274Y-78479939D01*
X143647189Y-78510917D01*
X143696202Y-78642328D01*
X143696206Y-78642335D01*
X143782452Y-78757544D01*
X143782455Y-78757547D01*
X143897664Y-78843793D01*
X143897671Y-78843797D01*
X144032517Y-78894091D01*
X144032516Y-78894091D01*
X144039444Y-78894835D01*
X144092127Y-78900500D01*
X145887872Y-78900499D01*
X145947483Y-78894091D01*
X146082331Y-78843796D01*
X146197546Y-78757546D01*
X146283796Y-78642331D01*
X146334091Y-78507483D01*
X146340500Y-78447873D01*
X146340499Y-76652128D01*
X146334091Y-76592517D01*
X146333963Y-76592175D01*
X146283797Y-76457671D01*
X146283793Y-76457664D01*
X146197547Y-76342455D01*
X146197544Y-76342452D01*
X146131843Y-76293268D01*
X146123961Y-76282739D01*
X146112857Y-76275683D01*
X146103424Y-76255304D01*
X146089972Y-76237334D01*
X146089033Y-76224214D01*
X146083508Y-76212276D01*
X146086589Y-76190037D01*
X146084988Y-76167643D01*
X146091292Y-76156097D01*
X146093098Y-76143068D01*
X146107713Y-76126025D01*
X146118474Y-76106320D01*
X146130018Y-76100016D01*
X146138582Y-76090031D01*
X146160091Y-76083595D01*
X146179797Y-76072836D01*
X146194432Y-76073321D01*
X146205520Y-76070004D01*
X146240480Y-76074848D01*
X146270843Y-76083595D01*
X146292463Y-76089823D01*
X146299063Y-76091926D01*
X146889257Y-76298444D01*
X146954316Y-76321209D01*
X146960813Y-76323689D01*
X147602142Y-76589338D01*
X147608475Y-76592171D01*
X148233915Y-76893367D01*
X148240078Y-76896551D01*
X148454730Y-77015184D01*
X148847642Y-77232340D01*
X148853632Y-77235873D01*
X148883093Y-77254385D01*
X148929384Y-77306718D01*
X148940034Y-77375772D01*
X148911659Y-77439620D01*
X148853270Y-77477993D01*
X148844715Y-77480270D01*
X148584406Y-77539684D01*
X148584397Y-77539687D01*
X148329917Y-77628734D01*
X148087005Y-77745714D01*
X147858712Y-77889161D01*
X147647915Y-78057265D01*
X147457265Y-78247915D01*
X147289161Y-78458712D01*
X147145714Y-78687005D01*
X147028734Y-78929917D01*
X146939687Y-79184397D01*
X146939684Y-79184405D01*
X146879688Y-79447268D01*
X146879686Y-79447280D01*
X146849500Y-79715186D01*
X146849500Y-79984813D01*
X146879686Y-80252719D01*
X146879688Y-80252731D01*
X146939684Y-80515594D01*
X146939687Y-80515602D01*
X147028734Y-80770082D01*
X147145714Y-81012994D01*
X147277625Y-81222928D01*
X147296625Y-81290165D01*
X147276257Y-81357000D01*
X147222989Y-81402214D01*
X147156446Y-81411839D01*
X147062730Y-81399501D01*
X147062725Y-81399500D01*
X147062720Y-81399500D01*
X146837280Y-81399500D01*
X146837272Y-81399500D01*
X146724764Y-81414313D01*
X146724763Y-81414313D01*
X146584769Y-81472300D01*
X146584765Y-81472303D01*
X146582718Y-81473874D01*
X146580679Y-81474662D01*
X146577732Y-81476364D01*
X146577466Y-81475904D01*
X146561397Y-81482117D01*
X146542165Y-81494477D01*
X146521889Y-81497392D01*
X146517550Y-81499070D01*
X146507230Y-81499500D01*
X146500097Y-81499500D01*
X146433058Y-81479815D01*
X146412416Y-81463181D01*
X145835413Y-80886178D01*
X145801928Y-80824855D01*
X145801577Y-80785127D01*
X145799965Y-80784969D01*
X145800562Y-80778906D01*
X145800562Y-80621217D01*
X145800561Y-80621215D01*
X145769799Y-80466565D01*
X145769797Y-80466560D01*
X145709459Y-80320889D01*
X145709452Y-80320876D01*
X145621851Y-80189773D01*
X145621848Y-80189769D01*
X145510354Y-80078275D01*
X145510350Y-80078272D01*
X145379247Y-79990671D01*
X145379234Y-79990664D01*
X145233563Y-79930326D01*
X145233551Y-79930323D01*
X145078907Y-79899562D01*
X145078904Y-79899562D01*
X144921220Y-79899562D01*
X144921217Y-79899562D01*
X144766572Y-79930323D01*
X144766560Y-79930326D01*
X144620889Y-79990664D01*
X144620876Y-79990671D01*
X144489187Y-80078664D01*
X144422509Y-80099542D01*
X144420296Y-80099562D01*
X140220881Y-80099562D01*
X140068151Y-80140485D01*
X140033911Y-80160255D01*
X140033909Y-80160256D01*
X139994708Y-80182888D01*
X139932709Y-80199500D01*
X139700097Y-80199500D01*
X139633058Y-80179815D01*
X139612416Y-80163181D01*
X138836590Y-79387355D01*
X138836588Y-79387352D01*
X138717717Y-79268481D01*
X138717716Y-79268480D01*
X138630904Y-79218360D01*
X138630904Y-79218359D01*
X138630900Y-79218358D01*
X138580785Y-79189423D01*
X138428057Y-79148499D01*
X138269943Y-79148499D01*
X138262347Y-79148499D01*
X138262331Y-79148500D01*
X137497956Y-79148500D01*
X137430917Y-79128815D01*
X137385162Y-79076011D01*
X137376339Y-79048691D01*
X137369738Y-79015510D01*
X137369737Y-79015503D01*
X137334288Y-78929921D01*
X137309397Y-78869827D01*
X137309390Y-78869814D01*
X137221789Y-78738711D01*
X137221786Y-78738707D01*
X137110292Y-78627213D01*
X137110288Y-78627210D01*
X136979185Y-78539609D01*
X136979172Y-78539602D01*
X136833501Y-78479264D01*
X136833489Y-78479261D01*
X136678845Y-78448500D01*
X136678842Y-78448500D01*
X136521158Y-78448500D01*
X136521155Y-78448500D01*
X136366510Y-78479261D01*
X136366498Y-78479264D01*
X136220827Y-78539602D01*
X136220814Y-78539609D01*
X136089711Y-78627210D01*
X136089707Y-78627213D01*
X135978213Y-78738707D01*
X135978210Y-78738711D01*
X135890609Y-78869814D01*
X135890602Y-78869827D01*
X135830264Y-79015498D01*
X135830261Y-79015510D01*
X135823661Y-79048691D01*
X135791276Y-79110602D01*
X135730561Y-79145176D01*
X135702044Y-79148500D01*
X135505057Y-79148500D01*
X135346943Y-79148500D01*
X135194215Y-79189423D01*
X135194214Y-79189423D01*
X135194212Y-79189424D01*
X135194209Y-79189425D01*
X135144096Y-79218359D01*
X135144095Y-79218360D01*
X135100689Y-79243420D01*
X135057285Y-79268479D01*
X135057282Y-79268481D01*
X134945478Y-79380286D01*
X133776913Y-80548850D01*
X133715590Y-80582335D01*
X133701842Y-80584526D01*
X133697215Y-80584998D01*
X133697201Y-80585001D01*
X133530668Y-80640185D01*
X133530663Y-80640187D01*
X133381342Y-80732289D01*
X133257288Y-80856343D01*
X133257285Y-80856347D01*
X133193465Y-80959816D01*
X133141517Y-81006541D01*
X133072555Y-81017762D01*
X133019036Y-80997821D01*
X132939474Y-80944659D01*
X132939462Y-80944652D01*
X132793791Y-80884314D01*
X132793779Y-80884311D01*
X132639135Y-80853550D01*
X132639132Y-80853550D01*
X132490468Y-80853550D01*
X132479051Y-80850197D01*
X132467208Y-80851349D01*
X132446142Y-80840534D01*
X132423429Y-80833865D01*
X132415638Y-80824874D01*
X132405051Y-80819439D01*
X132393175Y-80798950D01*
X132377674Y-80781061D01*
X132375980Y-80769286D01*
X132370013Y-80758990D01*
X132371099Y-80735336D01*
X132367730Y-80711903D01*
X132372753Y-80699323D01*
X132373219Y-80689193D01*
X132389338Y-80657795D01*
X132510780Y-80486638D01*
X132514912Y-80481147D01*
X132947765Y-79938367D01*
X132952206Y-79933108D01*
X133414814Y-79415449D01*
X133419559Y-79410431D01*
X133910431Y-78919559D01*
X133915449Y-78914814D01*
X134433108Y-78452206D01*
X134438367Y-78447765D01*
X134981147Y-78014912D01*
X134986637Y-78010780D01*
X135552836Y-77609042D01*
X135558573Y-77605209D01*
X136146368Y-77235872D01*
X136152357Y-77232340D01*
X136412889Y-77088349D01*
X136759935Y-76896543D01*
X136766069Y-76893374D01*
X137391537Y-76592165D01*
X137397843Y-76589343D01*
X138039198Y-76323684D01*
X138045671Y-76321213D01*
X138700946Y-76091923D01*
X138707505Y-76089832D01*
X139374602Y-75897645D01*
X139381293Y-75895919D01*
X140058090Y-75741445D01*
X140064884Y-75740093D01*
X140749298Y-75623807D01*
X140756125Y-75622844D01*
X141445953Y-75545119D01*
X141452866Y-75544535D01*
X142145964Y-75505612D01*
X142152917Y-75505417D01*
X142847083Y-75505417D01*
X142854036Y-75505612D01*
G37*
%TD.AperFunction*%
%TD*%
M02*
