%TF.GenerationSoftware,KiCad,Pcbnew,9.0.4*%
%TF.CreationDate,2025-10-05T00:11:34-04:00*%
%TF.ProjectId,bldc motor controller,626c6463-206d-46f7-946f-7220636f6e74,rev?*%
%TF.SameCoordinates,Original*%
%TF.FileFunction,Copper,L2,Inr*%
%TF.FilePolarity,Positive*%
%FSLAX46Y46*%
G04 Gerber Fmt 4.6, Leading zero omitted, Abs format (unit mm)*
G04 Created by KiCad (PCBNEW 9.0.4) date 2025-10-05 00:11:34*
%MOMM*%
%LPD*%
G01*
G04 APERTURE LIST*
%TA.AperFunction,ComponentPad*%
%ADD10C,1.700000*%
%TD*%
%TA.AperFunction,ComponentPad*%
%ADD11R,1.700000X1.700000*%
%TD*%
%TA.AperFunction,ComponentPad*%
%ADD12C,3.800000*%
%TD*%
%TA.AperFunction,ViaPad*%
%ADD13C,0.600000*%
%TD*%
%TA.AperFunction,Conductor*%
%ADD14C,0.200000*%
%TD*%
G04 APERTURE END LIST*
D10*
%TO.N,PHASE-C*%
%TO.C,U8*%
X139910000Y-77550000D03*
%TO.N,PHASE-B*%
X142450000Y-77550000D03*
D11*
%TO.N,PHASE-A*%
X144990000Y-77550000D03*
%TD*%
D12*
%TO.N,N/C*%
%TO.C,REF\u002A\u002A*%
X149250000Y-79850000D03*
%TD*%
%TO.N,N/C*%
%TO.C,REF\u002A\u002A*%
X136500000Y-96600000D03*
%TD*%
D13*
%TO.N,TI_AGND*%
X147052917Y-93897083D03*
X139550000Y-92650000D03*
%TO.N,SOB*%
X137874000Y-93851000D03*
%TO.N,TIM1_CH3N*%
X153412018Y-84537980D03*
%TO.N,TI_VREF*%
X145000062Y-80700062D03*
%TO.N,I-LIMIT*%
X135726910Y-80350000D03*
%TO.N,SCL1*%
X144550000Y-83500000D03*
%TO.N,TI_FAULT*%
X153818419Y-87800000D03*
%TO.N,CAN_RX*%
X144634828Y-87343799D03*
%TO.N,CAN_TX*%
X143770762Y-87328263D03*
%TO.N,SCL1*%
X149010487Y-85781545D03*
%TO.N,TIM1_CH1N*%
X149952231Y-93817943D03*
%TO.N,SOC*%
X150705514Y-93540000D03*
%TO.N,MOSI1*%
X149450000Y-86450000D03*
%TO.N,UART_TX*%
X153300000Y-92800000D03*
%TO.N,SOA*%
X153678553Y-90127028D03*
%TO.N,TI_VREF*%
X146552917Y-94650000D03*
%TO.N,SCK1*%
X151505374Y-93525002D03*
%TO.N,TI_AGND*%
X152150000Y-82850000D03*
%TO.N,UART_TX*%
X146634998Y-85334785D03*
%TO.N,UART_RX*%
X145640287Y-84443115D03*
X152373265Y-94355583D03*
%TO.N,NSS1*%
X151600000Y-95000000D03*
%TO.N,Reset*%
X153649369Y-89199928D03*
%TO.N,SOB*%
X153328641Y-90846446D03*
%TO.N,TIM1_CH2N*%
X149155514Y-93745514D03*
%TO.N,TI_AGND*%
X148715544Y-96357772D03*
X143037103Y-83361483D03*
%TO.N,+BATT*%
X136100000Y-83536217D03*
%TO.N,SOC*%
X133150000Y-95400000D03*
%TO.N,+BATT*%
X139450000Y-86089416D03*
%TO.N,I-LIMIT*%
X141624555Y-87926974D03*
%TO.N,TI_AVDD*%
X140550001Y-88702000D03*
%TO.N,TIM1_CH2*%
X140469778Y-87369221D03*
%TO.N,TI_VREF*%
X132049000Y-92850000D03*
%TO.N,TI_AGND*%
X132900000Y-94600000D03*
%TO.N,TIM1_CH3*%
X143200000Y-87900000D03*
%TO.N,TI_AVDD*%
X132325680Y-82924320D03*
%TO.N,TIM1_CH1*%
X142301000Y-88700000D03*
X132100000Y-83749750D03*
%TO.N,TI_AGND*%
X138156663Y-89114877D03*
%TO.N,TIM1_CH3N*%
X130549750Y-89000000D03*
%TO.N,TIM1_CH1N*%
X130599750Y-85650000D03*
%TO.N,TIM1_CH3*%
X130549750Y-88200000D03*
%TO.N,TIM1_CH2*%
X130549750Y-86500000D03*
%TO.N,SCK1*%
X141050000Y-86600000D03*
%TO.N,MISO1*%
X142050000Y-86725974D03*
%TO.N,MOSI1*%
X143000000Y-86700000D03*
%TO.N,TI_FAULT*%
X132560290Y-81654050D03*
%TO.N,TIM1_CH2N*%
X130549750Y-87350000D03*
%TO.N,NSS1*%
X140249997Y-86600000D03*
%TO.N,BOOT0*%
X150500000Y-83550000D03*
%TO.N,MISO1*%
X149450000Y-83400000D03*
%TO.N,TI_AGND*%
X136600000Y-78000000D03*
%TO.N,TI_AVDD*%
X136600000Y-79249000D03*
%TD*%
D14*
%TO.N,TI_FAULT*%
X154450000Y-87168419D02*
X154450000Y-86650057D01*
X153818419Y-87800000D02*
X154450000Y-87168419D01*
X154450000Y-86650057D02*
X150395744Y-82595801D01*
X150395744Y-82595801D02*
X145062844Y-82595801D01*
X145062844Y-82595801D02*
X140967043Y-78500000D01*
X140967043Y-78500000D02*
X140446339Y-78500000D01*
X140446339Y-78500000D02*
X140345339Y-78601000D01*
X139373661Y-78500000D02*
X135000000Y-78500000D01*
X132560290Y-80939710D02*
X132560290Y-81654050D01*
X140345339Y-78601000D02*
X139474661Y-78601000D01*
X135000000Y-78500000D02*
X132560290Y-80939710D01*
X139474661Y-78601000D02*
X139373661Y-78500000D01*
%TO.N,UART_TX*%
X153123707Y-92623707D02*
X153123707Y-91823494D01*
X153123707Y-91823494D02*
X146634998Y-85334785D01*
X153300000Y-92800000D02*
X153123707Y-92623707D01*
%TO.N,TI_AVDD*%
X132325680Y-82924320D02*
X132325680Y-82274320D01*
X132325680Y-82274320D02*
X132344950Y-82255050D01*
X138850000Y-80100000D02*
X138850000Y-87001999D01*
X132344950Y-82255050D02*
X132809233Y-82255050D01*
X132809233Y-82255050D02*
X133161290Y-81902993D01*
X133161290Y-81902993D02*
X133161290Y-81438710D01*
X133161290Y-81438710D02*
X135350000Y-79250000D01*
X135350000Y-79250000D02*
X138000000Y-79250000D01*
X138850000Y-87001999D02*
X140550001Y-88702000D01*
X138000000Y-79250000D02*
X138850000Y-80100000D01*
%TO.N,TI_VREF*%
X146552917Y-94650000D02*
X146552917Y-94552917D01*
X146552917Y-94552917D02*
X143950000Y-91950000D01*
X143950000Y-91950000D02*
X132949000Y-91950000D01*
X132949000Y-91950000D02*
X132049000Y-92850000D01*
%TO.N,UART_RX*%
X152373265Y-93095049D02*
X152373265Y-94355583D01*
X145640287Y-84443115D02*
X145675317Y-84478145D01*
X145675317Y-84478145D02*
X145675317Y-85225047D01*
X145675317Y-85225047D02*
X150806374Y-90356104D01*
X150806374Y-90356104D02*
X150806374Y-91528158D01*
X150806374Y-91528158D02*
X152373265Y-93095049D01*
%TO.N,TIM1_CH2N*%
X149155514Y-93745514D02*
X147862000Y-92452000D01*
X147862000Y-92452000D02*
X145768743Y-92452000D01*
X144366743Y-91050000D02*
X141085200Y-91050000D01*
X137715800Y-91050000D02*
X135509943Y-91050000D01*
X145768743Y-92452000D02*
X144366743Y-91050000D01*
X141085200Y-91050000D02*
X140933200Y-91202000D01*
X140933200Y-91202000D02*
X137867800Y-91202000D01*
X137867800Y-91202000D02*
X137715800Y-91050000D01*
X135509943Y-91050000D02*
X131809943Y-87350000D01*
X131809943Y-87350000D02*
X130549750Y-87350000D01*
%TO.N,TIM1_CH1N*%
X145934843Y-92051000D02*
X144383843Y-90500000D01*
X149952231Y-93352231D02*
X148651000Y-92051000D01*
X144383843Y-90500000D02*
X141068100Y-90500000D01*
X148651000Y-92051000D02*
X145934843Y-92051000D01*
X149952231Y-93817943D02*
X149952231Y-93352231D01*
X141068100Y-90500000D02*
X140767100Y-90801000D01*
X130677043Y-85650000D02*
X130599750Y-85650000D01*
X140767100Y-90801000D02*
X138033900Y-90801000D01*
X138033900Y-90801000D02*
X137732900Y-90500000D01*
X137732900Y-90500000D02*
X135527043Y-90500000D01*
X135527043Y-90500000D02*
X130677043Y-85650000D01*
%TO.N,I-LIMIT*%
X141624555Y-87926974D02*
X141624555Y-88477389D01*
X141624555Y-88477389D02*
X140738124Y-89363820D01*
X140738124Y-89363820D02*
X139255549Y-89363820D01*
X139255549Y-89363820D02*
X138449000Y-88557271D01*
X138449000Y-88557271D02*
X138449000Y-83072090D01*
X138449000Y-83072090D02*
X135726910Y-80350000D01*
%TO.N,TIM1_CH1*%
X132100000Y-83749750D02*
X133050250Y-83749750D01*
X133050250Y-83749750D02*
X134238834Y-82561166D01*
X135500000Y-82561166D02*
X135500000Y-87700000D01*
X134238834Y-82561166D02*
X135500000Y-82561166D01*
X135500000Y-87700000D02*
X138200000Y-90400000D01*
X138200000Y-90400000D02*
X140601000Y-90400000D01*
X140601000Y-90400000D02*
X142301000Y-88700000D01*
%TO.N,SCK1*%
X141873498Y-87325974D02*
X142250000Y-87702476D01*
X142250000Y-87702476D02*
X142250000Y-87799057D01*
X146100943Y-91650000D02*
X149665457Y-91650000D01*
X151505374Y-93489917D02*
X151505374Y-93525002D01*
X141775974Y-87325974D02*
X141873498Y-87325974D01*
X142250000Y-87799057D02*
X146100943Y-91650000D01*
X141050000Y-86600000D02*
X141775974Y-87325974D01*
X149665457Y-91650000D02*
X151505374Y-93489917D01*
%TO.N,MISO1*%
X149450000Y-83400000D02*
X149300000Y-83250000D01*
X144301057Y-82899000D02*
X143949000Y-83251057D01*
X144896744Y-82996801D02*
X144798943Y-82899000D01*
X149300000Y-83250000D02*
X147046042Y-83250000D01*
X144798943Y-82899000D02*
X144301057Y-82899000D01*
X147046042Y-83250000D02*
X146792843Y-82996801D01*
X146792843Y-82996801D02*
X144896744Y-82996801D01*
X143949000Y-84701000D02*
X142050000Y-86600000D01*
X143949000Y-83251057D02*
X143949000Y-84701000D01*
X142050000Y-86600000D02*
X142050000Y-86725974D01*
%TO.N,MOSI1*%
X149450000Y-86450000D02*
X148828999Y-86450000D01*
X143000000Y-86225175D02*
X143000000Y-86700000D01*
X148828999Y-86450000D02*
X146177800Y-83798801D01*
X146177800Y-83798801D02*
X145426374Y-83798801D01*
X145426374Y-83798801D02*
X143000000Y-86225175D01*
%TO.N,SCL1*%
X144550000Y-83500000D02*
X144652199Y-83397801D01*
X144652199Y-83397801D02*
X146626743Y-83397801D01*
X146626743Y-83397801D02*
X149010487Y-85781545D01*
%TD*%
%TA.AperFunction,Conductor*%
%TO.N,TI_AGND*%
G36*
X143716942Y-92570185D02*
G01*
X143737584Y-92586819D01*
X145716098Y-94565333D01*
X145749583Y-94626656D01*
X145752417Y-94653014D01*
X145752417Y-94728846D01*
X145783178Y-94883489D01*
X145783181Y-94883501D01*
X145843519Y-95029172D01*
X145843526Y-95029185D01*
X145931127Y-95160288D01*
X145931130Y-95160292D01*
X146042624Y-95271786D01*
X146042628Y-95271789D01*
X146173731Y-95359390D01*
X146173744Y-95359397D01*
X146319415Y-95419735D01*
X146319420Y-95419737D01*
X146406232Y-95437005D01*
X146474070Y-95450499D01*
X146474073Y-95450500D01*
X146474075Y-95450500D01*
X146631761Y-95450500D01*
X146631762Y-95450499D01*
X146786414Y-95419737D01*
X146932096Y-95359394D01*
X147063206Y-95271789D01*
X147174706Y-95160289D01*
X147262311Y-95029179D01*
X147265771Y-95020827D01*
X147320080Y-94889711D01*
X147322654Y-94883497D01*
X147353417Y-94728842D01*
X147353417Y-94571158D01*
X147353417Y-94571155D01*
X147353416Y-94571153D01*
X147351275Y-94560390D01*
X147322654Y-94416503D01*
X147302274Y-94367300D01*
X147262314Y-94270827D01*
X147262307Y-94270814D01*
X147174706Y-94139711D01*
X147174703Y-94139707D01*
X147063209Y-94028213D01*
X147063205Y-94028210D01*
X146932102Y-93940609D01*
X146932089Y-93940602D01*
X146786416Y-93880263D01*
X146786408Y-93880261D01*
X146752257Y-93873468D01*
X146690346Y-93841083D01*
X146688768Y-93839532D01*
X146113417Y-93264181D01*
X146079932Y-93202858D01*
X146084916Y-93133166D01*
X146126788Y-93077233D01*
X146192252Y-93052816D01*
X146201098Y-93052500D01*
X147561903Y-93052500D01*
X147628942Y-93072185D01*
X147649584Y-93088819D01*
X148320939Y-93760174D01*
X148354424Y-93821497D01*
X148354875Y-93823663D01*
X148385775Y-93979005D01*
X148385778Y-93979015D01*
X148446116Y-94124686D01*
X148446123Y-94124699D01*
X148533724Y-94255802D01*
X148533727Y-94255806D01*
X148645221Y-94367300D01*
X148645225Y-94367303D01*
X148776328Y-94454904D01*
X148776341Y-94454911D01*
X148920293Y-94514537D01*
X148922017Y-94515251D01*
X149076667Y-94546013D01*
X149076670Y-94546014D01*
X149076672Y-94546014D01*
X149234358Y-94546014D01*
X149234359Y-94546013D01*
X149389011Y-94515251D01*
X149430221Y-94498180D01*
X149499688Y-94490711D01*
X149546566Y-94509640D01*
X149573043Y-94527332D01*
X149573058Y-94527340D01*
X149678846Y-94571158D01*
X149718734Y-94587680D01*
X149810518Y-94605937D01*
X149873384Y-94618442D01*
X149873387Y-94618443D01*
X149873389Y-94618443D01*
X150031075Y-94618443D01*
X150031076Y-94618442D01*
X150185728Y-94587680D01*
X150331410Y-94527337D01*
X150462520Y-94439732D01*
X150526104Y-94376147D01*
X150587424Y-94342664D01*
X150608278Y-94339952D01*
X150621061Y-94339383D01*
X150626672Y-94340500D01*
X150784356Y-94340500D01*
X150838556Y-94329718D01*
X150847982Y-94329300D01*
X150873113Y-94335481D01*
X150898886Y-94337788D01*
X150906484Y-94343690D01*
X150915829Y-94345989D01*
X150933626Y-94364774D01*
X150954064Y-94380650D01*
X150957265Y-94389725D01*
X150963883Y-94396710D01*
X150968698Y-94422130D01*
X150977309Y-94446540D01*
X150975096Y-94455904D01*
X150976887Y-94465359D01*
X150967193Y-94489349D01*
X150961242Y-94514537D01*
X150956589Y-94522069D01*
X150890609Y-94620814D01*
X150890602Y-94620827D01*
X150830264Y-94766498D01*
X150830261Y-94766510D01*
X150799500Y-94921153D01*
X150799500Y-95078846D01*
X150830261Y-95233489D01*
X150830264Y-95233501D01*
X150890602Y-95379172D01*
X150890609Y-95379185D01*
X150978210Y-95510288D01*
X150978213Y-95510292D01*
X151089707Y-95621786D01*
X151089711Y-95621789D01*
X151220814Y-95709390D01*
X151220827Y-95709397D01*
X151354263Y-95764667D01*
X151366503Y-95769737D01*
X151521153Y-95800499D01*
X151521156Y-95800500D01*
X151521158Y-95800500D01*
X151678844Y-95800500D01*
X151678845Y-95800499D01*
X151833497Y-95769737D01*
X151979179Y-95709394D01*
X152073887Y-95646112D01*
X152140562Y-95625235D01*
X152207942Y-95643719D01*
X152254633Y-95695698D01*
X152265809Y-95764667D01*
X152239723Y-95826528D01*
X152052256Y-96061604D01*
X152047769Y-96066918D01*
X151585201Y-96584532D01*
X151580422Y-96589586D01*
X151089586Y-97080422D01*
X151084532Y-97085201D01*
X150566918Y-97547769D01*
X150561604Y-97552256D01*
X150018885Y-97985061D01*
X150013327Y-97989244D01*
X149447186Y-98390941D01*
X149441403Y-98394805D01*
X148853633Y-98764125D01*
X148847642Y-98767659D01*
X148240086Y-99103444D01*
X148233907Y-99106636D01*
X147608483Y-99407824D01*
X147602134Y-99410665D01*
X146960814Y-99676309D01*
X146954316Y-99678790D01*
X146299087Y-99908065D01*
X146292460Y-99910177D01*
X145625418Y-100102348D01*
X145618683Y-100104085D01*
X144941923Y-100258551D01*
X144935101Y-100259908D01*
X144250733Y-100376187D01*
X144243845Y-100377159D01*
X143554052Y-100454879D01*
X143547122Y-100455464D01*
X142854036Y-100494388D01*
X142847083Y-100494583D01*
X142152917Y-100494583D01*
X142145964Y-100494388D01*
X141452877Y-100455464D01*
X141445947Y-100454879D01*
X140756154Y-100377159D01*
X140749266Y-100376187D01*
X140064898Y-100259908D01*
X140058076Y-100258551D01*
X139381316Y-100104085D01*
X139374581Y-100102348D01*
X138707539Y-99910177D01*
X138700912Y-99908065D01*
X138045683Y-99678790D01*
X138039185Y-99676309D01*
X137397865Y-99410665D01*
X137391517Y-99407824D01*
X136937252Y-99189062D01*
X136885392Y-99142240D01*
X136867079Y-99074813D01*
X136888127Y-99008189D01*
X136941853Y-98963520D01*
X136963458Y-98956451D01*
X137165591Y-98910316D01*
X137420079Y-98821267D01*
X137662997Y-98704284D01*
X137891289Y-98560838D01*
X138102085Y-98392734D01*
X138292734Y-98202085D01*
X138460838Y-97991289D01*
X138550532Y-97848543D01*
X140899499Y-97848543D01*
X140937947Y-98041829D01*
X140937950Y-98041839D01*
X141013364Y-98223907D01*
X141013371Y-98223920D01*
X141122860Y-98387781D01*
X141122863Y-98387785D01*
X141262214Y-98527136D01*
X141262218Y-98527139D01*
X141426079Y-98636628D01*
X141426092Y-98636635D01*
X141589416Y-98704285D01*
X141608165Y-98712051D01*
X141608169Y-98712051D01*
X141608170Y-98712052D01*
X141801456Y-98750500D01*
X141801459Y-98750500D01*
X141998543Y-98750500D01*
X142128582Y-98724632D01*
X142191835Y-98712051D01*
X142373914Y-98636632D01*
X142537782Y-98527139D01*
X142677139Y-98387782D01*
X142786632Y-98223914D01*
X142862051Y-98041835D01*
X142900500Y-97848541D01*
X142900500Y-97651459D01*
X142900500Y-97651456D01*
X142862052Y-97458170D01*
X142862051Y-97458169D01*
X142862051Y-97458165D01*
X142795012Y-97296317D01*
X142786635Y-97276092D01*
X142786628Y-97276079D01*
X142677139Y-97112218D01*
X142677136Y-97112214D01*
X142537785Y-96972863D01*
X142537781Y-96972860D01*
X142373920Y-96863371D01*
X142373907Y-96863364D01*
X142191839Y-96787950D01*
X142191829Y-96787947D01*
X141998543Y-96749500D01*
X141998541Y-96749500D01*
X141801459Y-96749500D01*
X141801457Y-96749500D01*
X141608170Y-96787947D01*
X141608160Y-96787950D01*
X141426092Y-96863364D01*
X141426079Y-96863371D01*
X141262218Y-96972860D01*
X141262214Y-96972863D01*
X141122863Y-97112214D01*
X141122860Y-97112218D01*
X141013371Y-97276079D01*
X141013364Y-97276092D01*
X140937950Y-97458160D01*
X140937947Y-97458170D01*
X140899500Y-97651456D01*
X140899500Y-97651459D01*
X140899500Y-97848541D01*
X140899500Y-97848543D01*
X140899499Y-97848543D01*
X138550532Y-97848543D01*
X138604284Y-97762997D01*
X138721267Y-97520079D01*
X138810316Y-97265591D01*
X138870312Y-97002732D01*
X138900500Y-96734809D01*
X138900500Y-96465191D01*
X138870312Y-96197268D01*
X138810316Y-95934409D01*
X138721267Y-95679921D01*
X138604284Y-95437003D01*
X138460838Y-95208711D01*
X138292734Y-94997915D01*
X138102998Y-94808179D01*
X138069513Y-94746856D01*
X138074497Y-94677164D01*
X138116369Y-94621231D01*
X138143225Y-94605937D01*
X138187309Y-94587678D01*
X138253173Y-94560397D01*
X138253176Y-94560395D01*
X138253179Y-94560394D01*
X138384289Y-94472789D01*
X138495789Y-94361289D01*
X138583394Y-94230179D01*
X138643737Y-94084497D01*
X138674500Y-93929842D01*
X138674500Y-93772158D01*
X138674500Y-93772155D01*
X138674499Y-93772153D01*
X138660173Y-93700134D01*
X138643737Y-93617503D01*
X138636694Y-93600500D01*
X138583397Y-93471827D01*
X138583390Y-93471814D01*
X138495789Y-93340711D01*
X138495786Y-93340707D01*
X138384292Y-93229213D01*
X138384288Y-93229210D01*
X138253185Y-93141609D01*
X138253172Y-93141602D01*
X138107501Y-93081264D01*
X138107489Y-93081261D01*
X137952845Y-93050500D01*
X137952842Y-93050500D01*
X137795158Y-93050500D01*
X137795155Y-93050500D01*
X137640510Y-93081261D01*
X137640498Y-93081264D01*
X137494827Y-93141602D01*
X137494814Y-93141609D01*
X137363711Y-93229210D01*
X137363707Y-93229213D01*
X137252213Y-93340707D01*
X137252210Y-93340711D01*
X137164609Y-93471814D01*
X137164602Y-93471827D01*
X137104264Y-93617498D01*
X137104261Y-93617510D01*
X137073500Y-93772153D01*
X137073500Y-93929846D01*
X137104262Y-94084498D01*
X137104565Y-94085495D01*
X137104569Y-94086042D01*
X137105451Y-94090472D01*
X137104610Y-94090639D01*
X137105184Y-94155362D01*
X137067931Y-94214472D01*
X137004635Y-94244059D01*
X136958310Y-94242373D01*
X136902735Y-94229688D01*
X136902719Y-94229686D01*
X136634813Y-94199500D01*
X136634809Y-94199500D01*
X136365191Y-94199500D01*
X136365186Y-94199500D01*
X136097280Y-94229686D01*
X136097268Y-94229688D01*
X135834405Y-94289684D01*
X135834397Y-94289687D01*
X135579917Y-94378734D01*
X135337005Y-94495714D01*
X135108712Y-94639161D01*
X134897915Y-94807265D01*
X134707265Y-94997915D01*
X134539161Y-95208712D01*
X134395714Y-95437005D01*
X134278734Y-95679917D01*
X134189687Y-95934397D01*
X134189684Y-95934405D01*
X134129688Y-96197268D01*
X134129686Y-96197280D01*
X134099500Y-96465186D01*
X134099500Y-96734815D01*
X134127633Y-96984505D01*
X134123232Y-97009628D01*
X134122842Y-97035139D01*
X134117304Y-97043473D01*
X134115578Y-97053327D01*
X134098292Y-97072084D01*
X134084173Y-97093332D01*
X134075009Y-97097348D01*
X134068229Y-97104706D01*
X134043541Y-97111141D01*
X134020180Y-97121381D01*
X134010301Y-97119806D01*
X134000619Y-97122330D01*
X133976372Y-97114397D01*
X133951182Y-97110381D01*
X133938652Y-97102055D01*
X133934213Y-97100603D01*
X133921786Y-97090848D01*
X133915467Y-97085201D01*
X133910413Y-97080422D01*
X133419577Y-96589586D01*
X133414798Y-96584532D01*
X133240009Y-96388943D01*
X133210015Y-96325839D01*
X133218900Y-96256536D01*
X133263841Y-96203038D01*
X133308274Y-96184699D01*
X133383497Y-96169737D01*
X133529179Y-96109394D01*
X133660289Y-96021789D01*
X133771789Y-95910289D01*
X133859394Y-95779179D01*
X133919737Y-95633497D01*
X133950500Y-95478842D01*
X133950500Y-95321158D01*
X133950500Y-95321155D01*
X133950499Y-95321153D01*
X133928133Y-95208712D01*
X133919737Y-95166503D01*
X133897148Y-95111968D01*
X133859397Y-95020827D01*
X133859390Y-95020814D01*
X133771789Y-94889711D01*
X133771786Y-94889707D01*
X133660292Y-94778213D01*
X133660288Y-94778210D01*
X133529185Y-94690609D01*
X133529172Y-94690602D01*
X133383501Y-94630264D01*
X133383489Y-94630261D01*
X133228845Y-94599500D01*
X133228842Y-94599500D01*
X133071158Y-94599500D01*
X133071155Y-94599500D01*
X132916510Y-94630261D01*
X132916498Y-94630264D01*
X132770827Y-94690602D01*
X132770814Y-94690609D01*
X132639711Y-94778210D01*
X132639707Y-94778213D01*
X132528213Y-94889707D01*
X132528210Y-94889711D01*
X132440609Y-95020814D01*
X132440604Y-95020824D01*
X132423515Y-95062081D01*
X132418234Y-95068634D01*
X132416236Y-95076810D01*
X132396636Y-95095434D01*
X132379673Y-95116485D01*
X132371687Y-95119142D01*
X132365587Y-95124940D01*
X132339032Y-95130011D01*
X132313379Y-95138549D01*
X132305223Y-95136467D01*
X132296957Y-95138046D01*
X132271875Y-95127955D01*
X132245680Y-95121269D01*
X132238260Y-95114431D01*
X132232137Y-95111968D01*
X132207825Y-95086383D01*
X132109059Y-94947186D01*
X132105194Y-94941403D01*
X131735874Y-94353633D01*
X131732340Y-94347642D01*
X131507379Y-93940606D01*
X131396551Y-93740078D01*
X131393363Y-93733906D01*
X131331515Y-93605477D01*
X131320163Y-93536536D01*
X131347885Y-93472402D01*
X131405881Y-93433436D01*
X131475736Y-93432011D01*
X131530916Y-93463995D01*
X131538707Y-93471786D01*
X131538711Y-93471789D01*
X131669814Y-93559390D01*
X131669827Y-93559397D01*
X131815498Y-93619735D01*
X131815503Y-93619737D01*
X131970153Y-93650499D01*
X131970156Y-93650500D01*
X131970158Y-93650500D01*
X132127844Y-93650500D01*
X132127845Y-93650499D01*
X132282497Y-93619737D01*
X132428179Y-93559394D01*
X132559289Y-93471789D01*
X132670789Y-93360289D01*
X132758394Y-93229179D01*
X132818737Y-93083497D01*
X132849500Y-92928842D01*
X132849638Y-92928150D01*
X132882023Y-92866239D01*
X132883518Y-92864716D01*
X133161416Y-92586819D01*
X133222739Y-92553334D01*
X133249097Y-92550500D01*
X143649903Y-92550500D01*
X143716942Y-92570185D01*
G37*
%TD.AperFunction*%
%TA.AperFunction,Conductor*%
G36*
X131576885Y-87970185D02*
G01*
X131597527Y-87986819D01*
X134748527Y-91137819D01*
X134782012Y-91199142D01*
X134777028Y-91268834D01*
X134735156Y-91324767D01*
X134669692Y-91349184D01*
X134660846Y-91349500D01*
X132869942Y-91349500D01*
X132717214Y-91390423D01*
X132698030Y-91401500D01*
X132698027Y-91401501D01*
X132580290Y-91469475D01*
X132580282Y-91469481D01*
X132034339Y-92015425D01*
X131973016Y-92048910D01*
X131970850Y-92049361D01*
X131815508Y-92080261D01*
X131815498Y-92080264D01*
X131669827Y-92140602D01*
X131669814Y-92140609D01*
X131538711Y-92228210D01*
X131538707Y-92228213D01*
X131427213Y-92339707D01*
X131427210Y-92339711D01*
X131339609Y-92470814D01*
X131339602Y-92470827D01*
X131279264Y-92616498D01*
X131279261Y-92616510D01*
X131248500Y-92771153D01*
X131248500Y-92863004D01*
X131228815Y-92930043D01*
X131176011Y-92975798D01*
X131106853Y-92985742D01*
X131043297Y-92956717D01*
X131009939Y-92910457D01*
X130823690Y-92460814D01*
X130821209Y-92454316D01*
X130800718Y-92395755D01*
X130591926Y-91799063D01*
X130589829Y-91792484D01*
X130397647Y-91125405D01*
X130395914Y-91118683D01*
X130391764Y-91100502D01*
X130241446Y-90441916D01*
X130240091Y-90435101D01*
X130233560Y-90396665D01*
X130150299Y-89906620D01*
X130158476Y-89837230D01*
X130202870Y-89783277D01*
X130269385Y-89761889D01*
X130309980Y-89769436D01*
X130310426Y-89767969D01*
X130316242Y-89769732D01*
X130316253Y-89769737D01*
X130440629Y-89794477D01*
X130470903Y-89800499D01*
X130470906Y-89800500D01*
X130470908Y-89800500D01*
X130628594Y-89800500D01*
X130628595Y-89800499D01*
X130783247Y-89769737D01*
X130928929Y-89709394D01*
X131060039Y-89621789D01*
X131171539Y-89510289D01*
X131259144Y-89379179D01*
X131319487Y-89233497D01*
X131350250Y-89078842D01*
X131350250Y-88921158D01*
X131350250Y-88921155D01*
X131350249Y-88921153D01*
X131319488Y-88766510D01*
X131319487Y-88766503D01*
X131287649Y-88689639D01*
X131270175Y-88647452D01*
X131262706Y-88577983D01*
X131270175Y-88552548D01*
X131300966Y-88478210D01*
X131319487Y-88433497D01*
X131350250Y-88278842D01*
X131350250Y-88121158D01*
X131348734Y-88113536D01*
X131345781Y-88098690D01*
X131347659Y-88077705D01*
X131344661Y-88056853D01*
X131350711Y-88043603D01*
X131352010Y-88029099D01*
X131364933Y-88012463D01*
X131373686Y-87993297D01*
X131385939Y-87985422D01*
X131394873Y-87973922D01*
X131414739Y-87966913D01*
X131432464Y-87955523D01*
X131457049Y-87951988D01*
X131460763Y-87950678D01*
X131467399Y-87950500D01*
X131509846Y-87950500D01*
X131576885Y-87970185D01*
G37*
%TD.AperFunction*%
%TA.AperFunction,Conductor*%
G36*
X148789021Y-83870185D02*
G01*
X148825086Y-83905612D01*
X148828211Y-83910290D01*
X148939707Y-84021786D01*
X148939711Y-84021789D01*
X149070814Y-84109390D01*
X149070827Y-84109397D01*
X149216498Y-84169735D01*
X149216503Y-84169737D01*
X149362627Y-84198803D01*
X149371153Y-84200499D01*
X149371156Y-84200500D01*
X149371158Y-84200500D01*
X149528844Y-84200500D01*
X149528845Y-84200499D01*
X149683497Y-84169737D01*
X149822026Y-84112356D01*
X149891494Y-84104888D01*
X149953973Y-84136163D01*
X149957158Y-84139237D01*
X149989707Y-84171786D01*
X149989711Y-84171789D01*
X150120814Y-84259390D01*
X150120827Y-84259397D01*
X150243003Y-84310003D01*
X150266503Y-84319737D01*
X150419901Y-84350250D01*
X150421153Y-84350499D01*
X150421156Y-84350500D01*
X150421158Y-84350500D01*
X150578844Y-84350500D01*
X150578845Y-84350499D01*
X150733497Y-84319737D01*
X150879179Y-84259394D01*
X150961793Y-84204193D01*
X150992939Y-84183382D01*
X151059616Y-84162504D01*
X151126996Y-84180988D01*
X151149511Y-84198803D01*
X153751222Y-86800514D01*
X153784707Y-86861837D01*
X153779723Y-86931529D01*
X153737851Y-86987462D01*
X153687733Y-87009812D01*
X153584927Y-87030261D01*
X153584917Y-87030264D01*
X153439246Y-87090602D01*
X153439233Y-87090609D01*
X153308130Y-87178210D01*
X153308126Y-87178213D01*
X153196632Y-87289707D01*
X153196629Y-87289711D01*
X153109028Y-87420814D01*
X153109021Y-87420827D01*
X153048683Y-87566498D01*
X153048680Y-87566510D01*
X153017919Y-87721153D01*
X153017919Y-87878846D01*
X153048680Y-88033489D01*
X153048683Y-88033501D01*
X153109021Y-88179172D01*
X153109028Y-88179185D01*
X153196629Y-88310288D01*
X153196632Y-88310292D01*
X153227302Y-88340962D01*
X153260787Y-88402285D01*
X153255803Y-88471977D01*
X153213931Y-88527910D01*
X153208512Y-88531745D01*
X153139080Y-88578138D01*
X153139076Y-88578141D01*
X153027582Y-88689635D01*
X153027579Y-88689639D01*
X152939978Y-88820742D01*
X152939971Y-88820755D01*
X152879633Y-88966426D01*
X152879630Y-88966438D01*
X152848869Y-89121081D01*
X152848869Y-89278774D01*
X152879630Y-89433417D01*
X152879633Y-89433429D01*
X152939971Y-89579099D01*
X152939977Y-89579110D01*
X152965007Y-89616570D01*
X152985884Y-89683247D01*
X152971266Y-89743906D01*
X152969159Y-89747848D01*
X152908817Y-89893526D01*
X152908814Y-89893538D01*
X152878053Y-90048181D01*
X152878053Y-90118486D01*
X152858368Y-90185525D01*
X152841959Y-90205942D01*
X152833230Y-90214715D01*
X152818352Y-90224657D01*
X152706852Y-90336157D01*
X152695484Y-90353169D01*
X152686979Y-90361719D01*
X152666492Y-90372973D01*
X152648554Y-90387963D01*
X152636440Y-90389483D01*
X152625742Y-90395361D01*
X152602422Y-90393753D01*
X152579228Y-90396665D01*
X152568216Y-90391395D01*
X152556038Y-90390556D01*
X152537288Y-90376595D01*
X152516203Y-90366505D01*
X152511392Y-90361944D01*
X149585372Y-87435924D01*
X149551887Y-87374601D01*
X149556871Y-87304909D01*
X149598743Y-87248976D01*
X149648860Y-87226626D01*
X149683497Y-87219737D01*
X149829179Y-87159394D01*
X149960289Y-87071789D01*
X150071789Y-86960289D01*
X150159394Y-86829179D01*
X150219737Y-86683497D01*
X150250500Y-86528842D01*
X150250500Y-86371158D01*
X150250500Y-86371155D01*
X150250499Y-86371153D01*
X150235683Y-86296669D01*
X150219737Y-86216503D01*
X150200283Y-86169537D01*
X150159397Y-86070827D01*
X150159390Y-86070814D01*
X150071789Y-85939711D01*
X150071786Y-85939707D01*
X149960289Y-85828210D01*
X149859599Y-85760932D01*
X149814794Y-85707320D01*
X149806873Y-85682021D01*
X149780224Y-85548048D01*
X149752592Y-85481337D01*
X149719884Y-85402372D01*
X149719877Y-85402359D01*
X149632276Y-85271256D01*
X149632273Y-85271252D01*
X149520779Y-85159758D01*
X149520775Y-85159755D01*
X149389672Y-85072154D01*
X149389659Y-85072147D01*
X149243988Y-85011809D01*
X149243978Y-85011806D01*
X149088636Y-84980906D01*
X149026725Y-84948521D01*
X149025147Y-84946970D01*
X148140358Y-84062181D01*
X148106873Y-84000858D01*
X148111857Y-83931166D01*
X148153729Y-83875233D01*
X148219193Y-83850816D01*
X148228039Y-83850500D01*
X148721982Y-83850500D01*
X148789021Y-83870185D01*
G37*
%TD.AperFunction*%
%TA.AperFunction,Conductor*%
G36*
X151855703Y-79719669D02*
G01*
X151866954Y-79730749D01*
X152045304Y-79930323D01*
X152047769Y-79933081D01*
X152052251Y-79938389D01*
X152485069Y-80481125D01*
X152489235Y-80486661D01*
X152789044Y-80909202D01*
X152890941Y-81052813D01*
X152894805Y-81058596D01*
X153264125Y-81646366D01*
X153267659Y-81652357D01*
X153603444Y-82259913D01*
X153606636Y-82266092D01*
X153907824Y-82891516D01*
X153910665Y-82897865D01*
X154176309Y-83539185D01*
X154178790Y-83545683D01*
X154338063Y-84000858D01*
X154393051Y-84158006D01*
X154408065Y-84200912D01*
X154410176Y-84207539D01*
X154410178Y-84207544D01*
X154412434Y-84215376D01*
X154412342Y-84233268D01*
X154416101Y-84237164D01*
X154425380Y-84260311D01*
X154602348Y-84874581D01*
X154604085Y-84881316D01*
X154758551Y-85558076D01*
X154759908Y-85564898D01*
X154806464Y-85838905D01*
X154798287Y-85908295D01*
X154753894Y-85962248D01*
X154687378Y-85983636D01*
X154619858Y-85965667D01*
X154596535Y-85947357D01*
X153953308Y-85304130D01*
X153919823Y-85242807D01*
X153924807Y-85173115D01*
X153953306Y-85128769D01*
X154033807Y-85048269D01*
X154121412Y-84917159D01*
X154181755Y-84771477D01*
X154212518Y-84616822D01*
X154212518Y-84459138D01*
X154212518Y-84459135D01*
X154184609Y-84318831D01*
X154185398Y-84310003D01*
X154178718Y-84297151D01*
X154121415Y-84158807D01*
X154121408Y-84158794D01*
X154033807Y-84027691D01*
X154033804Y-84027687D01*
X153922310Y-83916193D01*
X153922306Y-83916190D01*
X153791203Y-83828589D01*
X153791190Y-83828582D01*
X153645519Y-83768244D01*
X153645507Y-83768241D01*
X153490863Y-83737480D01*
X153490860Y-83737480D01*
X153333176Y-83737480D01*
X153333173Y-83737480D01*
X153178528Y-83768241D01*
X153178516Y-83768244D01*
X153032845Y-83828582D01*
X153032832Y-83828589D01*
X152901729Y-83916190D01*
X152821229Y-83996690D01*
X152759905Y-84030174D01*
X152690214Y-84025190D01*
X152645867Y-83996689D01*
X150883334Y-82234156D01*
X150883332Y-82234153D01*
X150764461Y-82115282D01*
X150764460Y-82115281D01*
X150677648Y-82065161D01*
X150677648Y-82065160D01*
X150677644Y-82065159D01*
X150638460Y-82042535D01*
X150625981Y-82035330D01*
X150577766Y-81984762D01*
X150564545Y-81916155D01*
X150590514Y-81851290D01*
X150622012Y-81822950D01*
X150641289Y-81810838D01*
X150852085Y-81642734D01*
X151042734Y-81452085D01*
X151210838Y-81241289D01*
X151354284Y-81012997D01*
X151471267Y-80770079D01*
X151560316Y-80515591D01*
X151620312Y-80252732D01*
X151650500Y-79984809D01*
X151650500Y-79813382D01*
X151670185Y-79746343D01*
X151722989Y-79700588D01*
X151792147Y-79690644D01*
X151855703Y-79719669D01*
G37*
%TD.AperFunction*%
%TA.AperFunction,Conductor*%
G36*
X146240480Y-76074848D02*
G01*
X146277576Y-76085534D01*
X146292463Y-76089823D01*
X146299063Y-76091926D01*
X146889257Y-76298444D01*
X146954316Y-76321209D01*
X146960813Y-76323689D01*
X147602142Y-76589338D01*
X147608475Y-76592171D01*
X148233915Y-76893367D01*
X148240078Y-76896551D01*
X148454730Y-77015184D01*
X148847642Y-77232340D01*
X148853632Y-77235873D01*
X148883093Y-77254385D01*
X148929384Y-77306718D01*
X148940034Y-77375772D01*
X148911659Y-77439620D01*
X148853270Y-77477993D01*
X148844715Y-77480270D01*
X148584406Y-77539684D01*
X148584397Y-77539687D01*
X148329917Y-77628734D01*
X148087005Y-77745714D01*
X147858712Y-77889161D01*
X147647915Y-78057265D01*
X147457265Y-78247915D01*
X147289161Y-78458712D01*
X147145714Y-78687005D01*
X147028734Y-78929917D01*
X146939687Y-79184397D01*
X146939684Y-79184405D01*
X146879688Y-79447268D01*
X146879686Y-79447280D01*
X146849500Y-79715186D01*
X146849500Y-79984813D01*
X146879686Y-80252719D01*
X146879687Y-80252728D01*
X146879688Y-80252732D01*
X146884915Y-80275632D01*
X146939684Y-80515594D01*
X146939687Y-80515602D01*
X147028734Y-80770082D01*
X147145714Y-81012994D01*
X147145716Y-81012997D01*
X147289162Y-81241289D01*
X147353406Y-81321848D01*
X147457265Y-81452084D01*
X147647921Y-81642740D01*
X147812961Y-81774354D01*
X147853102Y-81831542D01*
X147855952Y-81901354D01*
X147820607Y-81961624D01*
X147758288Y-81993217D01*
X147735649Y-81995301D01*
X145362941Y-81995301D01*
X145295902Y-81975616D01*
X145275260Y-81958982D01*
X145024359Y-81708081D01*
X144990874Y-81646758D01*
X144995858Y-81577066D01*
X145037730Y-81521133D01*
X145087849Y-81498783D01*
X145135026Y-81489398D01*
X145233559Y-81469799D01*
X145379241Y-81409456D01*
X145510351Y-81321851D01*
X145621851Y-81210351D01*
X145709456Y-81079241D01*
X145717679Y-81059390D01*
X145769797Y-80933563D01*
X145769799Y-80933559D01*
X145800562Y-80778904D01*
X145800562Y-80621220D01*
X145800562Y-80621217D01*
X145800561Y-80621215D01*
X145779553Y-80515602D01*
X145769799Y-80466565D01*
X145769797Y-80466560D01*
X145709459Y-80320889D01*
X145709452Y-80320876D01*
X145621851Y-80189773D01*
X145621848Y-80189769D01*
X145510354Y-80078275D01*
X145510350Y-80078272D01*
X145379247Y-79990671D01*
X145379234Y-79990664D01*
X145233563Y-79930326D01*
X145233551Y-79930323D01*
X145078907Y-79899562D01*
X145078904Y-79899562D01*
X144921220Y-79899562D01*
X144921217Y-79899562D01*
X144766572Y-79930323D01*
X144766560Y-79930326D01*
X144620889Y-79990664D01*
X144620876Y-79990671D01*
X144489773Y-80078272D01*
X144489769Y-80078275D01*
X144378275Y-80189769D01*
X144378272Y-80189773D01*
X144290671Y-80320876D01*
X144290664Y-80320889D01*
X144230326Y-80466560D01*
X144230323Y-80466570D01*
X144201340Y-80612275D01*
X144168955Y-80674186D01*
X144108239Y-80708760D01*
X144038469Y-80705019D01*
X143992042Y-80675764D01*
X142428459Y-79112181D01*
X142394974Y-79050858D01*
X142399958Y-78981166D01*
X142441830Y-78925233D01*
X142507294Y-78900816D01*
X142516140Y-78900500D01*
X142556286Y-78900500D01*
X142556287Y-78900500D01*
X142766243Y-78867246D01*
X142968412Y-78801557D01*
X143157816Y-78705051D01*
X143329792Y-78580104D01*
X143443329Y-78466566D01*
X143504648Y-78433084D01*
X143574340Y-78438068D01*
X143630274Y-78479939D01*
X143647189Y-78510917D01*
X143696202Y-78642328D01*
X143696206Y-78642335D01*
X143782452Y-78757544D01*
X143782455Y-78757547D01*
X143897664Y-78843793D01*
X143897671Y-78843797D01*
X144032517Y-78894091D01*
X144032516Y-78894091D01*
X144039444Y-78894835D01*
X144092127Y-78900500D01*
X145887872Y-78900499D01*
X145947483Y-78894091D01*
X146082331Y-78843796D01*
X146197546Y-78757546D01*
X146283796Y-78642331D01*
X146334091Y-78507483D01*
X146340500Y-78447873D01*
X146340499Y-76652128D01*
X146334091Y-76592517D01*
X146333963Y-76592175D01*
X146283797Y-76457671D01*
X146283793Y-76457664D01*
X146197547Y-76342455D01*
X146197544Y-76342452D01*
X146131843Y-76293268D01*
X146089972Y-76237334D01*
X146084988Y-76167643D01*
X146118474Y-76106320D01*
X146179797Y-76072836D01*
X146240480Y-76074848D01*
G37*
%TD.AperFunction*%
%TA.AperFunction,Conductor*%
G36*
X142854036Y-75505612D02*
G01*
X143547130Y-75544535D01*
X143554049Y-75545119D01*
X144243869Y-75622843D01*
X144250706Y-75623808D01*
X144935108Y-75740092D01*
X144941916Y-75741446D01*
X145618697Y-75895917D01*
X145625405Y-75897647D01*
X145758773Y-75936070D01*
X145829151Y-75956346D01*
X145888121Y-75993821D01*
X145917469Y-76057228D01*
X145907878Y-76126436D01*
X145862393Y-76179472D01*
X145795455Y-76199498D01*
X145794823Y-76199500D01*
X144092129Y-76199500D01*
X144092123Y-76199501D01*
X144032516Y-76205908D01*
X143897671Y-76256202D01*
X143897664Y-76256206D01*
X143782455Y-76342452D01*
X143782452Y-76342455D01*
X143696206Y-76457664D01*
X143696203Y-76457669D01*
X143647189Y-76589083D01*
X143605317Y-76645016D01*
X143539853Y-76669433D01*
X143471580Y-76654581D01*
X143443326Y-76633430D01*
X143329786Y-76519890D01*
X143157820Y-76394951D01*
X142968414Y-76298444D01*
X142968413Y-76298443D01*
X142968412Y-76298443D01*
X142766243Y-76232754D01*
X142766241Y-76232753D01*
X142766240Y-76232753D01*
X142604957Y-76207208D01*
X142556287Y-76199500D01*
X142343713Y-76199500D01*
X142295042Y-76207208D01*
X142133760Y-76232753D01*
X141931585Y-76298444D01*
X141742179Y-76394951D01*
X141570213Y-76519890D01*
X141419890Y-76670213D01*
X141294949Y-76842182D01*
X141290484Y-76850946D01*
X141242509Y-76901742D01*
X141174688Y-76918536D01*
X141108553Y-76895998D01*
X141069516Y-76850946D01*
X141065050Y-76842182D01*
X140940109Y-76670213D01*
X140789786Y-76519890D01*
X140617820Y-76394951D01*
X140428414Y-76298444D01*
X140428413Y-76298443D01*
X140428412Y-76298443D01*
X140226243Y-76232754D01*
X140226241Y-76232753D01*
X140226240Y-76232753D01*
X140064957Y-76207208D01*
X140016287Y-76199500D01*
X139803713Y-76199500D01*
X139755042Y-76207208D01*
X139593760Y-76232753D01*
X139391585Y-76298444D01*
X139202179Y-76394951D01*
X139030213Y-76519890D01*
X138879890Y-76670213D01*
X138754951Y-76842179D01*
X138658444Y-77031585D01*
X138592753Y-77233760D01*
X138559500Y-77443713D01*
X138559500Y-77656286D01*
X138575309Y-77756102D01*
X138566354Y-77825396D01*
X138521358Y-77878848D01*
X138454606Y-77899487D01*
X138452836Y-77899500D01*
X135532521Y-77899500D01*
X135501623Y-77890427D01*
X135470339Y-77882782D01*
X135468308Y-77880644D01*
X135465482Y-77879815D01*
X135444408Y-77855494D01*
X135422209Y-77832134D01*
X135421655Y-77829236D01*
X135419727Y-77827011D01*
X135415144Y-77795139D01*
X135409103Y-77763504D01*
X135410202Y-77760770D01*
X135409783Y-77757853D01*
X135423163Y-77728554D01*
X135435180Y-77698684D01*
X135438050Y-77695956D01*
X135438808Y-77694297D01*
X135460765Y-77674371D01*
X135504795Y-77643128D01*
X135552828Y-77609048D01*
X135558573Y-77605209D01*
X136146368Y-77235872D01*
X136152357Y-77232340D01*
X136412889Y-77088349D01*
X136759935Y-76896543D01*
X136766069Y-76893374D01*
X137391537Y-76592165D01*
X137397843Y-76589343D01*
X138039198Y-76323684D01*
X138045671Y-76321213D01*
X138700946Y-76091923D01*
X138707505Y-76089832D01*
X139374602Y-75897645D01*
X139381293Y-75895919D01*
X140058090Y-75741445D01*
X140064884Y-75740093D01*
X140749298Y-75623807D01*
X140756125Y-75622844D01*
X141445953Y-75545119D01*
X141452866Y-75544535D01*
X142145964Y-75505612D01*
X142152917Y-75505417D01*
X142847083Y-75505417D01*
X142854036Y-75505612D01*
G37*
%TD.AperFunction*%
%TD*%
%TA.AperFunction,NonConductor*%
G36*
X139121082Y-79104649D02*
G01*
X139134829Y-79103995D01*
X139167594Y-79117112D01*
X139242877Y-79160577D01*
X139395604Y-79201501D01*
X139395606Y-79201501D01*
X139561315Y-79201501D01*
X139561331Y-79201500D01*
X140258670Y-79201500D01*
X140258686Y-79201501D01*
X140266282Y-79201501D01*
X140424393Y-79201501D01*
X140424396Y-79201501D01*
X140577124Y-79160577D01*
X140577128Y-79160575D01*
X140611274Y-79140859D01*
X140622312Y-79134485D01*
X140690211Y-79118010D01*
X140756238Y-79140859D01*
X140771997Y-79154189D01*
X143896633Y-82278825D01*
X143930118Y-82340148D01*
X143925134Y-82409840D01*
X143896633Y-82454187D01*
X143573214Y-82777605D01*
X143573215Y-82777606D01*
X143468478Y-82882343D01*
X143438684Y-82933948D01*
X143423787Y-82959752D01*
X143389423Y-83019272D01*
X143348499Y-83172000D01*
X143348499Y-83172002D01*
X143348499Y-83340103D01*
X143348500Y-83340116D01*
X143348500Y-84400902D01*
X143328815Y-84467941D01*
X143312181Y-84488583D01*
X141878083Y-85922680D01*
X141836345Y-85950174D01*
X141825763Y-85954394D01*
X141816503Y-85956237D01*
X141695576Y-86006326D01*
X141694832Y-86006623D01*
X141660821Y-86009827D01*
X141626872Y-86013478D01*
X141626113Y-86013098D01*
X141625270Y-86013178D01*
X141594961Y-85997504D01*
X141564393Y-85982203D01*
X141563263Y-85981112D01*
X141563208Y-85981084D01*
X141563175Y-85981028D01*
X141561208Y-85979129D01*
X141560292Y-85978213D01*
X141560288Y-85978210D01*
X141429185Y-85890609D01*
X141429172Y-85890602D01*
X141283501Y-85830264D01*
X141283489Y-85830261D01*
X141128845Y-85799500D01*
X141128842Y-85799500D01*
X140971158Y-85799500D01*
X140971155Y-85799500D01*
X140816510Y-85830261D01*
X140816498Y-85830264D01*
X140697450Y-85879575D01*
X140627980Y-85887044D01*
X140602546Y-85879575D01*
X140483498Y-85830264D01*
X140483486Y-85830261D01*
X140328842Y-85799500D01*
X140328839Y-85799500D01*
X140279222Y-85799500D01*
X140212183Y-85779815D01*
X140166428Y-85727011D01*
X140164660Y-85722951D01*
X140159394Y-85710237D01*
X140159390Y-85710230D01*
X140071789Y-85579127D01*
X140071786Y-85579123D01*
X139960292Y-85467629D01*
X139960288Y-85467626D01*
X139829185Y-85380025D01*
X139829172Y-85380018D01*
X139683501Y-85319680D01*
X139683491Y-85319677D01*
X139550308Y-85293185D01*
X139488397Y-85260800D01*
X139453823Y-85200084D01*
X139450500Y-85171568D01*
X139450500Y-80189060D01*
X139450501Y-80189047D01*
X139450501Y-80020944D01*
X139442389Y-79990671D01*
X139409577Y-79868216D01*
X139357837Y-79778599D01*
X139330524Y-79731290D01*
X139330518Y-79731282D01*
X139289880Y-79690644D01*
X138911415Y-79312180D01*
X138877931Y-79250858D01*
X138882915Y-79181167D01*
X138924786Y-79125233D01*
X138990251Y-79100816D01*
X138999097Y-79100500D01*
X139105595Y-79100500D01*
X139121082Y-79104649D01*
G37*
%TD.AperFunction*%
%TA.AperFunction,NonConductor*%
G36*
X134930182Y-80621565D02*
G01*
X134986115Y-80663437D01*
X135001409Y-80690294D01*
X135017514Y-80729175D01*
X135017519Y-80729185D01*
X135105120Y-80860288D01*
X135105123Y-80860292D01*
X135216617Y-80971786D01*
X135216621Y-80971789D01*
X135347724Y-81059390D01*
X135347737Y-81059397D01*
X135493408Y-81119735D01*
X135493413Y-81119737D01*
X135558057Y-81132595D01*
X135648759Y-81150638D01*
X135710670Y-81183023D01*
X135712249Y-81184574D01*
X137812181Y-83284506D01*
X137845666Y-83345829D01*
X137848500Y-83372187D01*
X137848500Y-88470601D01*
X137848499Y-88470619D01*
X137848499Y-88636325D01*
X137848498Y-88636325D01*
X137889423Y-88789056D01*
X137901663Y-88810256D01*
X137968477Y-88925983D01*
X137968481Y-88925988D01*
X138087349Y-89044856D01*
X138087355Y-89044861D01*
X138630312Y-89587819D01*
X138640924Y-89607255D01*
X138655425Y-89623989D01*
X138657341Y-89637320D01*
X138663797Y-89649142D01*
X138662217Y-89671228D01*
X138665369Y-89693147D01*
X138659773Y-89705398D01*
X138658813Y-89718834D01*
X138645542Y-89736560D01*
X138636344Y-89756703D01*
X138625012Y-89763985D01*
X138616941Y-89774767D01*
X138596195Y-89782504D01*
X138577566Y-89794477D01*
X138555647Y-89797628D01*
X138551477Y-89799184D01*
X138542631Y-89799500D01*
X138500098Y-89799500D01*
X138433059Y-89779815D01*
X138412417Y-89763181D01*
X136136819Y-87487583D01*
X136103334Y-87426260D01*
X136100500Y-87399902D01*
X136100500Y-84454064D01*
X136120185Y-84387025D01*
X136172989Y-84341270D01*
X136200309Y-84332447D01*
X136216291Y-84329267D01*
X136333497Y-84305954D01*
X136479179Y-84245611D01*
X136610289Y-84158006D01*
X136721789Y-84046506D01*
X136809394Y-83915396D01*
X136869737Y-83769714D01*
X136900500Y-83615059D01*
X136900500Y-83457375D01*
X136900500Y-83457372D01*
X136900499Y-83457370D01*
X136883555Y-83372187D01*
X136869737Y-83302720D01*
X136843536Y-83239464D01*
X136809397Y-83157044D01*
X136809390Y-83157031D01*
X136721789Y-83025928D01*
X136721786Y-83025924D01*
X136610292Y-82914430D01*
X136610288Y-82914427D01*
X136479185Y-82826826D01*
X136479172Y-82826819D01*
X136333501Y-82766481D01*
X136333491Y-82766478D01*
X136200308Y-82739986D01*
X136138397Y-82707601D01*
X136103823Y-82646885D01*
X136100500Y-82618369D01*
X136100500Y-82482111D01*
X136100500Y-82482109D01*
X136059577Y-82329382D01*
X136023037Y-82266092D01*
X135980524Y-82192456D01*
X135980518Y-82192448D01*
X135868717Y-82080647D01*
X135868709Y-82080641D01*
X135731790Y-82001592D01*
X135731786Y-82001590D01*
X135731784Y-82001589D01*
X135579057Y-81960666D01*
X135579056Y-81960666D01*
X134325504Y-81960666D01*
X134325488Y-81960665D01*
X134317892Y-81960665D01*
X134159777Y-81960665D01*
X134079969Y-81982050D01*
X134007049Y-82001589D01*
X133947790Y-82035802D01*
X133941890Y-82037233D01*
X133937303Y-82041208D01*
X133908330Y-82045373D01*
X133879889Y-82052273D01*
X133874153Y-82050287D01*
X133868145Y-82051152D01*
X133841515Y-82038990D01*
X133813863Y-82029420D01*
X133810112Y-82024650D01*
X133804589Y-82022128D01*
X133788762Y-81997501D01*
X133770673Y-81974499D01*
X133769256Y-81967150D01*
X133766814Y-81963350D01*
X133761791Y-81928414D01*
X133761791Y-81883918D01*
X133761791Y-81851290D01*
X133761791Y-81823935D01*
X133761790Y-81823931D01*
X133761790Y-81738806D01*
X133781475Y-81671767D01*
X133798104Y-81651129D01*
X134799169Y-80650064D01*
X134860490Y-80616581D01*
X134930182Y-80621565D01*
G37*
%TD.AperFunction*%
%TA.AperFunction,NonConductor*%
G36*
X131693115Y-82016158D02*
G01*
X131734700Y-82072305D01*
X131739329Y-82142021D01*
X131738074Y-82147138D01*
X131725179Y-82195263D01*
X131725179Y-82344555D01*
X131718314Y-82367933D01*
X131715678Y-82392158D01*
X131705763Y-82410677D01*
X131705494Y-82411594D01*
X131705080Y-82411952D01*
X131704281Y-82413446D01*
X131616289Y-82545134D01*
X131616282Y-82545147D01*
X131555944Y-82690818D01*
X131555941Y-82690830D01*
X131525180Y-82845473D01*
X131525180Y-82845478D01*
X131525180Y-83003162D01*
X131525180Y-83003164D01*
X131525179Y-83003164D01*
X131543661Y-83096073D01*
X131537434Y-83165665D01*
X131509726Y-83207945D01*
X131478212Y-83239459D01*
X131478208Y-83239464D01*
X131390609Y-83370564D01*
X131390602Y-83370577D01*
X131330264Y-83516248D01*
X131330261Y-83516260D01*
X131299500Y-83670903D01*
X131299500Y-83828596D01*
X131330261Y-83983239D01*
X131330264Y-83983251D01*
X131390602Y-84128922D01*
X131390609Y-84128935D01*
X131478210Y-84260038D01*
X131478213Y-84260042D01*
X131589707Y-84371536D01*
X131589711Y-84371539D01*
X131720814Y-84459140D01*
X131720827Y-84459147D01*
X131866498Y-84519485D01*
X131866503Y-84519487D01*
X132021153Y-84550249D01*
X132021156Y-84550250D01*
X132021158Y-84550250D01*
X132178844Y-84550250D01*
X132178845Y-84550249D01*
X132333497Y-84519487D01*
X132479179Y-84459144D01*
X132489476Y-84452264D01*
X132610875Y-84371148D01*
X132677553Y-84350270D01*
X132679766Y-84350250D01*
X132963581Y-84350250D01*
X132963597Y-84350251D01*
X132971193Y-84350251D01*
X133129304Y-84350251D01*
X133129307Y-84350251D01*
X133282035Y-84309327D01*
X133303124Y-84297151D01*
X133333983Y-84279335D01*
X133333994Y-84279327D01*
X133334006Y-84279321D01*
X133418966Y-84230270D01*
X133530770Y-84118466D01*
X133530770Y-84118464D01*
X133540974Y-84108261D01*
X133540977Y-84108256D01*
X134451251Y-83197985D01*
X134478178Y-83183281D01*
X134503997Y-83166689D01*
X134510197Y-83165797D01*
X134512574Y-83164500D01*
X134538932Y-83161666D01*
X134775500Y-83161666D01*
X134842539Y-83181351D01*
X134888294Y-83234155D01*
X134899500Y-83285666D01*
X134899500Y-87613330D01*
X134899499Y-87613348D01*
X134899499Y-87779054D01*
X134899498Y-87779054D01*
X134919604Y-87854088D01*
X134940423Y-87931785D01*
X134960468Y-87966503D01*
X134985644Y-88010109D01*
X135019479Y-88068715D01*
X135138349Y-88187585D01*
X135138355Y-88187590D01*
X136638583Y-89687819D01*
X136672068Y-89749142D01*
X136667084Y-89818834D01*
X136625212Y-89874767D01*
X136559748Y-89899184D01*
X136550902Y-89899500D01*
X135827141Y-89899500D01*
X135760102Y-89879815D01*
X135739460Y-89863181D01*
X131415130Y-85538852D01*
X131381645Y-85477529D01*
X131381219Y-85475489D01*
X131369487Y-85416503D01*
X131329382Y-85319680D01*
X131309147Y-85270827D01*
X131309140Y-85270814D01*
X131221539Y-85139711D01*
X131221536Y-85139707D01*
X131110042Y-85028213D01*
X131110038Y-85028210D01*
X130978935Y-84940609D01*
X130978922Y-84940602D01*
X130833251Y-84880264D01*
X130833239Y-84880261D01*
X130678595Y-84849500D01*
X130678592Y-84849500D01*
X130569644Y-84849500D01*
X130502605Y-84829815D01*
X130456850Y-84777011D01*
X130446906Y-84707853D01*
X130450490Y-84691172D01*
X130471909Y-84616826D01*
X130589832Y-84207505D01*
X130591923Y-84200946D01*
X130821213Y-83545671D01*
X130823690Y-83539185D01*
X130857577Y-83457375D01*
X131089343Y-82897843D01*
X131092165Y-82891537D01*
X131393374Y-82266069D01*
X131396543Y-82259935D01*
X131509772Y-82055062D01*
X131559428Y-82005911D01*
X131627776Y-81991408D01*
X131693115Y-82016158D01*
G37*
%TD.AperFunction*%
%TA.AperFunction,NonConductor*%
G36*
X144964486Y-85180651D02*
G01*
X144994150Y-85182773D01*
X144998611Y-85186112D01*
X145004112Y-85186993D01*
X145026276Y-85206823D01*
X145050083Y-85224645D01*
X145052029Y-85229864D01*
X145056183Y-85233580D01*
X145070333Y-85265914D01*
X145074816Y-85282129D01*
X145074816Y-85304104D01*
X145115740Y-85456832D01*
X145121973Y-85467627D01*
X145129887Y-85481335D01*
X145129888Y-85481337D01*
X145194794Y-85593759D01*
X145194798Y-85593764D01*
X145313666Y-85712632D01*
X145313672Y-85712637D01*
X150169555Y-90568520D01*
X150203040Y-90629843D01*
X150205874Y-90656201D01*
X150205874Y-91053837D01*
X150204163Y-91059661D01*
X150205313Y-91065623D01*
X150194433Y-91092798D01*
X150186189Y-91120876D01*
X150181601Y-91124850D01*
X150179345Y-91130488D01*
X150155499Y-91147468D01*
X150133385Y-91166631D01*
X150127377Y-91167494D01*
X150122431Y-91171017D01*
X150093193Y-91172409D01*
X150064227Y-91176575D01*
X150057153Y-91174126D01*
X150052641Y-91174342D01*
X150019875Y-91161225D01*
X149966636Y-91130488D01*
X149914697Y-91100501D01*
X149897242Y-91090423D01*
X149744514Y-91049499D01*
X149586400Y-91049499D01*
X149578804Y-91049499D01*
X149578788Y-91049500D01*
X146401040Y-91049500D01*
X146334001Y-91029815D01*
X146313359Y-91013181D01*
X143849158Y-88548980D01*
X143815673Y-88487657D01*
X143820657Y-88417965D01*
X143833737Y-88392408D01*
X143909390Y-88279185D01*
X143909390Y-88279184D01*
X143909394Y-88279179D01*
X143960680Y-88155363D01*
X143979930Y-88131473D01*
X143997434Y-88106264D01*
X144002820Y-88103068D01*
X144004520Y-88100959D01*
X144027788Y-88088254D01*
X144139611Y-88041935D01*
X144209077Y-88034467D01*
X144249930Y-88050964D01*
X144250275Y-88050320D01*
X144255643Y-88053189D01*
X144255649Y-88053193D01*
X144255655Y-88053195D01*
X144255656Y-88053196D01*
X144340294Y-88088254D01*
X144401331Y-88113536D01*
X144555981Y-88144298D01*
X144555984Y-88144299D01*
X144555986Y-88144299D01*
X144713672Y-88144299D01*
X144713673Y-88144298D01*
X144868325Y-88113536D01*
X145014007Y-88053193D01*
X145145117Y-87965588D01*
X145256617Y-87854088D01*
X145344222Y-87722978D01*
X145404565Y-87577296D01*
X145435328Y-87422641D01*
X145435328Y-87264957D01*
X145435328Y-87264954D01*
X145435327Y-87264952D01*
X145418073Y-87178210D01*
X145404565Y-87110302D01*
X145388611Y-87071786D01*
X145344225Y-86964626D01*
X145344218Y-86964613D01*
X145256617Y-86833510D01*
X145256614Y-86833506D01*
X145145120Y-86722012D01*
X145145116Y-86722009D01*
X145014013Y-86634408D01*
X145014000Y-86634401D01*
X144868329Y-86574063D01*
X144868317Y-86574060D01*
X144713673Y-86543299D01*
X144713670Y-86543299D01*
X144555986Y-86543299D01*
X144555983Y-86543299D01*
X144401338Y-86574060D01*
X144401326Y-86574063D01*
X144265980Y-86630125D01*
X144196511Y-86637594D01*
X144155659Y-86621097D01*
X144155315Y-86621742D01*
X144149943Y-86618870D01*
X144149941Y-86618869D01*
X144149938Y-86618868D01*
X144149933Y-86618865D01*
X144004263Y-86558527D01*
X144004253Y-86558524D01*
X143855223Y-86528880D01*
X143793312Y-86496495D01*
X143764854Y-86454715D01*
X143754044Y-86428617D01*
X143746575Y-86359148D01*
X143777850Y-86296669D01*
X143780895Y-86293513D01*
X144863136Y-85211272D01*
X144868024Y-85208603D01*
X144871112Y-85203964D01*
X144898362Y-85192038D01*
X144924458Y-85177789D01*
X144930014Y-85178186D01*
X144935120Y-85175952D01*
X144964486Y-85180651D01*
G37*
%TD.AperFunction*%
M02*
