<svg xmlns="http://www.w3.org/2000/svg"
     width="2048.000px" height="2048.000px"
     viewBox="0 0 2048.000 2048.000">
  <path d="M 141.000 656.000 L 92.000 803.000 L 392.000 1698.000 L 1342.000 1699.000 L 1443.000 1644.000 L 1580.000 1241.000 L 969.000 1611.000 L 537.000 1610.000 L 475.000 1586.000 L 430.000 1522.000 Z M 1790.000 824.000 L 1436.000 557.000 L 1599.000 1228.000 L 1467.000 1629.000 L 1413.000 1690.000 L 1344.000 1712.000 L 402.000 1712.000 L 531.000 1809.000 L 1504.000 1809.000 L 1804.000 898.000 Z M 424.000 1131.000 L 962.000 1600.000 L 1585.000 1222.000 L 1419.000 546.000 L 700.000 483.000 Z M 1068.000 212.000 L 707.000 471.000 L 1429.000 534.000 L 1776.000 786.000 L 1814.000 846.000 L 1520.000 1804.000 L 1652.000 1707.000 L 1953.000 807.000 L 1157.000 218.000 Z M 1946.000 783.000 L 1900.000 643.000 L 1109.000 61.000 L 349.000 615.000 L 294.000 715.000 L 418.000 1111.000 L 686.000 471.000 L 1038.000 210.000 L 1120.000 194.000 Z M 1086.000 60.000 L 934.000 62.000 L 150.000 640.000 L 444.000 1520.000 L 512.000 1591.000 L 938.000 1597.000 L 413.000 1142.000 L 286.000 757.000 L 288.000 672.000 L 343.000 603.000 Z M 932.000 47.000 L 1112.000 47.000 L 1920.000 651.000 L 1967.000 809.000 L 1669.000 1701.000 L 1519.000 1822.000 L 525.000 1822.000 L 380.000 1708.000 L 77.000 803.000 L 137.000 632.000 Z M 0.000 0.000 L 0.000 2047.000 L 2047.000 2047.000 L 2047.000 0.000 Z"
        fill="none"
        stroke="white"
        stroke-width="1.5"
        stroke-linejoin="round"
        stroke-linecap="round"
        fill-rule="evenodd"/>
</svg>