G04 #@! TF.GenerationSoftware,KiCad,Pcbnew,9.0.4*
G04 #@! TF.CreationDate,2025-10-13T14:39:45-04:00*
G04 #@! TF.ProjectId,bldc motor controller,626c6463-206d-46f7-946f-7220636f6e74,rev?*
G04 #@! TF.SameCoordinates,Original*
G04 #@! TF.FileFunction,Copper,L1,Top*
G04 #@! TF.FilePolarity,Positive*
%FSLAX46Y46*%
G04 Gerber Fmt 4.6, Leading zero omitted, Abs format (unit mm)*
G04 Created by KiCad (PCBNEW 9.0.4) date 2025-10-13 14:39:45*
%MOMM*%
%LPD*%
G01*
G04 APERTURE LIST*
G04 Aperture macros list*
%AMRoundRect*
0 Rectangle with rounded corners*
0 $1 Rounding radius*
0 $2 $3 $4 $5 $6 $7 $8 $9 X,Y pos of 4 corners*
0 Add a 4 corners polygon primitive as box body*
4,1,4,$2,$3,$4,$5,$6,$7,$8,$9,$2,$3,0*
0 Add four circle primitives for the rounded corners*
1,1,$1+$1,$2,$3*
1,1,$1+$1,$4,$5*
1,1,$1+$1,$6,$7*
1,1,$1+$1,$8,$9*
0 Add four rect primitives between the rounded corners*
20,1,$1+$1,$2,$3,$4,$5,0*
20,1,$1+$1,$4,$5,$6,$7,0*
20,1,$1+$1,$6,$7,$8,$9,0*
20,1,$1+$1,$8,$9,$2,$3,0*%
G04 Aperture macros list end*
G04 #@! TA.AperFunction,SMDPad,CuDef*
%ADD10R,0.720000X0.550000*%
G04 #@! TD*
G04 #@! TA.AperFunction,SMDPad,CuDef*
%ADD11R,0.550000X0.720000*%
G04 #@! TD*
G04 #@! TA.AperFunction,SMDPad,CuDef*
%ADD12R,0.800000X0.800000*%
G04 #@! TD*
G04 #@! TA.AperFunction,ComponentPad*
%ADD13R,0.850000X0.850000*%
G04 #@! TD*
G04 #@! TA.AperFunction,ComponentPad*
%ADD14C,0.850000*%
G04 #@! TD*
G04 #@! TA.AperFunction,ComponentPad*
%ADD15RoundRect,0.250000X-0.600000X-0.750000X0.600000X-0.750000X0.600000X0.750000X-0.600000X0.750000X0*%
G04 #@! TD*
G04 #@! TA.AperFunction,ComponentPad*
%ADD16O,1.700000X2.000000*%
G04 #@! TD*
G04 #@! TA.AperFunction,SMDPad,CuDef*
%ADD17RoundRect,0.075000X-0.125000X-0.075000X0.125000X-0.075000X0.125000X0.075000X-0.125000X0.075000X0*%
G04 #@! TD*
G04 #@! TA.AperFunction,SMDPad,CuDef*
%ADD18RoundRect,0.140000X-0.140000X-0.170000X0.140000X-0.170000X0.140000X0.170000X-0.140000X0.170000X0*%
G04 #@! TD*
G04 #@! TA.AperFunction,SMDPad,CuDef*
%ADD19RoundRect,0.225000X-0.250000X0.225000X-0.250000X-0.225000X0.250000X-0.225000X0.250000X0.225000X0*%
G04 #@! TD*
G04 #@! TA.AperFunction,ComponentPad*
%ADD20R,1.700000X1.700000*%
G04 #@! TD*
G04 #@! TA.AperFunction,ComponentPad*
%ADD21C,1.700000*%
G04 #@! TD*
G04 #@! TA.AperFunction,SMDPad,CuDef*
%ADD22RoundRect,0.200000X-0.200000X-0.275000X0.200000X-0.275000X0.200000X0.275000X-0.200000X0.275000X0*%
G04 #@! TD*
G04 #@! TA.AperFunction,SMDPad,CuDef*
%ADD23RoundRect,0.150000X-0.700000X0.150000X-0.700000X-0.150000X0.700000X-0.150000X0.700000X0.150000X0*%
G04 #@! TD*
G04 #@! TA.AperFunction,SMDPad,CuDef*
%ADD24RoundRect,0.250000X-1.150000X0.250000X-1.150000X-0.250000X1.150000X-0.250000X1.150000X0.250000X0*%
G04 #@! TD*
G04 #@! TA.AperFunction,SMDPad,CuDef*
%ADD25RoundRect,0.140000X0.170000X-0.140000X0.170000X0.140000X-0.170000X0.140000X-0.170000X-0.140000X0*%
G04 #@! TD*
G04 #@! TA.AperFunction,SMDPad,CuDef*
%ADD26RoundRect,0.140000X-0.170000X0.140000X-0.170000X-0.140000X0.170000X-0.140000X0.170000X0.140000X0*%
G04 #@! TD*
G04 #@! TA.AperFunction,SMDPad,CuDef*
%ADD27RoundRect,0.075000X0.075000X-0.125000X0.075000X0.125000X-0.075000X0.125000X-0.075000X-0.125000X0*%
G04 #@! TD*
G04 #@! TA.AperFunction,SMDPad,CuDef*
%ADD28O,0.280000X0.790000*%
G04 #@! TD*
G04 #@! TA.AperFunction,SMDPad,CuDef*
%ADD29O,0.790000X0.280000*%
G04 #@! TD*
G04 #@! TA.AperFunction,SMDPad,CuDef*
%ADD30R,4.000000X3.000000*%
G04 #@! TD*
G04 #@! TA.AperFunction,ComponentPad*
%ADD31C,3.800000*%
G04 #@! TD*
G04 #@! TA.AperFunction,SMDPad,CuDef*
%ADD32RoundRect,0.135000X0.185000X-0.135000X0.185000X0.135000X-0.185000X0.135000X-0.185000X-0.135000X0*%
G04 #@! TD*
G04 #@! TA.AperFunction,ViaPad*
%ADD33C,0.600000*%
G04 #@! TD*
G04 #@! TA.AperFunction,Conductor*
%ADD34C,0.200000*%
G04 #@! TD*
G04 #@! TA.AperFunction,Conductor*
%ADD35C,0.500000*%
G04 #@! TD*
G04 APERTURE END LIST*
D10*
G04 #@! TO.P,SW2,1,1*
G04 #@! TO.N,unconnected-(SW2-Pad1)*
X150250000Y-93350000D03*
G04 #@! TO.P,SW2,2,2*
G04 #@! TO.N,unconnected-(SW2-Pad2)*
X147550000Y-93350000D03*
G04 #@! TO.P,SW2,3,3*
G04 #@! TO.N,TI_VREF*
X150250000Y-92550000D03*
G04 #@! TO.P,SW2,4,4*
G04 #@! TO.N,BOOT0*
X147550000Y-92550000D03*
G04 #@! TD*
D11*
G04 #@! TO.P,SW1,1,1*
G04 #@! TO.N,TI_AGND*
X144100000Y-93650000D03*
G04 #@! TO.P,SW1,2,2*
G04 #@! TO.N,Reset*
X144100000Y-90950000D03*
G04 #@! TO.P,SW1,3,3*
G04 #@! TO.N,unconnected-(SW1-Pad3)*
X144900000Y-93650000D03*
G04 #@! TO.P,SW1,4,4*
G04 #@! TO.N,unconnected-(SW1-Pad4)*
X144900000Y-90950000D03*
G04 #@! TD*
D12*
G04 #@! TO.P,LED1,1,K*
G04 #@! TO.N,Net-(LED1-K)*
X135550500Y-97100000D03*
G04 #@! TO.P,LED1,2,A*
G04 #@! TO.N,TI_VREF*
X137149500Y-97100000D03*
G04 #@! TD*
D13*
G04 #@! TO.P,J1,1,Pin_1*
G04 #@! TO.N,UART_TX*
X145600000Y-85000000D03*
D14*
G04 #@! TO.P,J1,2,Pin_2*
G04 #@! TO.N,UART_RX*
X145600000Y-84000000D03*
G04 #@! TO.P,J1,3,Pin_3*
G04 #@! TO.N,TI_VREF*
X145600000Y-83000000D03*
G04 #@! TO.P,J1,4,Pin_4*
G04 #@! TO.N,TI_AGND*
X145600000Y-82000000D03*
G04 #@! TD*
D15*
G04 #@! TO.P,-BAT+1,1,1*
G04 #@! TO.N,-BATT*
X140900000Y-96750000D03*
D16*
G04 #@! TO.P,-BAT+1,2,2*
G04 #@! TO.N,+BATT*
X143400000Y-96750000D03*
G04 #@! TD*
D17*
G04 #@! TO.P,R10,1*
G04 #@! TO.N,Net-(U1-SDO{slash}MODE_SR)*
X140350000Y-91800000D03*
G04 #@! TO.P,R10,2*
G04 #@! TO.N,TI_AGND*
X140850000Y-91800000D03*
G04 #@! TD*
G04 #@! TO.P,C5,1*
G04 #@! TO.N,Net-(U1-SOC)*
X142550000Y-88250000D03*
G04 #@! TO.P,C5,2*
G04 #@! TO.N,TI_AGND*
X143050000Y-88250000D03*
G04 #@! TD*
D18*
G04 #@! TO.P,C24,1*
G04 #@! TO.N,Reset*
X144070000Y-89950000D03*
G04 #@! TO.P,C24,2*
G04 #@! TO.N,TI_AGND*
X145030000Y-89950000D03*
G04 #@! TD*
D19*
G04 #@! TO.P,C7,1*
G04 #@! TO.N,TI_AGND*
X131650000Y-89425000D03*
G04 #@! TO.P,C7,2*
G04 #@! TO.N,TI_AVDD*
X131650000Y-90975000D03*
G04 #@! TD*
D20*
G04 #@! TO.P,U8,1,1*
G04 #@! TO.N,PHASE-A*
X145590000Y-78200000D03*
D21*
G04 #@! TO.P,U8,2,2*
G04 #@! TO.N,PHASE-B*
X143050000Y-78200000D03*
G04 #@! TO.P,U8,3,3*
G04 #@! TO.N,PHASE-C*
X140510000Y-78200000D03*
G04 #@! TD*
D17*
G04 #@! TO.P,C4,1*
G04 #@! TO.N,Net-(U1-SOB)*
X142850000Y-87400000D03*
G04 #@! TO.P,C4,2*
G04 #@! TO.N,TI_AGND*
X143350000Y-87400000D03*
G04 #@! TD*
D22*
G04 #@! TO.P,R8,1*
G04 #@! TO.N,Net-(LED1-K)*
X135475000Y-95400000D03*
G04 #@! TO.P,R8,2*
G04 #@! TO.N,TI_AGND*
X137125000Y-95400000D03*
G04 #@! TD*
D17*
G04 #@! TO.P,R3,1*
G04 #@! TO.N,Net-(U1-SOB)*
X142850000Y-86800000D03*
G04 #@! TO.P,R3,2*
G04 #@! TO.N,SOB*
X143350000Y-86800000D03*
G04 #@! TD*
D23*
G04 #@! TO.P,U7,1,1*
G04 #@! TO.N,CAN_RX*
X148400000Y-86875000D03*
G04 #@! TO.P,U7,2,2*
G04 #@! TO.N,CAN_TX*
X148400000Y-88125000D03*
D24*
G04 #@! TO.P,U7,MP*
G04 #@! TO.N,N/C*
X151750000Y-85025000D03*
X151750000Y-89975000D03*
G04 #@! TD*
D17*
G04 #@! TO.P,R11,1*
G04 #@! TO.N,Net-(U1-nSCS{slash}OCP)*
X141300000Y-89250000D03*
G04 #@! TO.P,R11,2*
G04 #@! TO.N,TI_AGND*
X141800000Y-89250000D03*
G04 #@! TD*
G04 #@! TO.P,R4,1*
G04 #@! TO.N,Net-(U1-SOC)*
X143750000Y-88250000D03*
G04 #@! TO.P,R4,2*
G04 #@! TO.N,SOC*
X144250000Y-88250000D03*
G04 #@! TD*
D25*
G04 #@! TO.P,C18,1*
G04 #@! TO.N,TI_AGND*
X142750000Y-90530000D03*
G04 #@! TO.P,C18,2*
G04 #@! TO.N,TI_VREF*
X142750000Y-89570000D03*
G04 #@! TD*
D26*
G04 #@! TO.P,C10,1*
G04 #@! TO.N,+BATT*
X131450000Y-86420000D03*
G04 #@! TO.P,C10,2*
G04 #@! TO.N,TI_AVDD*
X131450000Y-87380000D03*
G04 #@! TD*
D27*
G04 #@! TO.P,R2,1*
G04 #@! TO.N,Net-(U1-SOA)*
X142200000Y-87200000D03*
G04 #@! TO.P,R2,2*
G04 #@! TO.N,SOA*
X142200000Y-86700000D03*
G04 #@! TD*
D28*
G04 #@! TO.P,U1,1,CP*
G04 #@! TO.N,TI_AVDD*
X139400000Y-86092250D03*
G04 #@! TO.P,U1,2,VM*
G04 #@! TO.N,-BATT*
X138900000Y-86092250D03*
G04 #@! TO.P,U1,3,PGND*
G04 #@! TO.N,+BATT*
X138050000Y-86092250D03*
G04 #@! TO.P,U1,4,OUTA*
G04 #@! TO.N,PHASE-A*
X137200000Y-86092250D03*
G04 #@! TO.P,U1,5,OUTB*
G04 #@! TO.N,PHASE-B*
X136350000Y-86092250D03*
G04 #@! TO.P,U1,6,OUTC*
G04 #@! TO.N,PHASE-C*
X135500000Y-86092250D03*
D29*
G04 #@! TO.P,U1,7,PGND*
G04 #@! TO.N,+BATT*
X134542500Y-86749750D03*
G04 #@! TO.P,U1,8,AGND*
G04 #@! TO.N,TI_AGND*
X134542500Y-87249750D03*
G04 #@! TO.P,U1,9,AVDD*
G04 #@! TO.N,TI_AVDD*
X134542500Y-87749750D03*
G04 #@! TO.P,U1,10,GVDD*
G04 #@! TO.N,I-LIMIT*
X134542500Y-88249750D03*
G04 #@! TO.P,U1,11,DRVOFF*
G04 #@! TO.N,TI_AGND*
X134542500Y-88749750D03*
G04 #@! TO.P,U1,12,nFAULT*
G04 #@! TO.N,TI_FAULT*
X134542500Y-89249750D03*
G04 #@! TO.P,U1,13,nSLEEP*
G04 #@! TO.N,TI_AVDD*
X134542500Y-89749750D03*
G04 #@! TO.P,U1,14,INHA*
G04 #@! TO.N,TIM1_CH1*
X134542500Y-90249750D03*
D28*
G04 #@! TO.P,U1,15,INLA*
G04 #@! TO.N,TIM1_CH1N*
X135500000Y-90907250D03*
G04 #@! TO.P,U1,16,INHB*
G04 #@! TO.N,TIM1_CH2*
X136350000Y-90907250D03*
G04 #@! TO.P,U1,17,INLB*
G04 #@! TO.N,TIM1_CH2N*
X137200000Y-90907250D03*
G04 #@! TO.P,U1,18,INHC*
G04 #@! TO.N,TIM1_CH3*
X138050000Y-90907250D03*
G04 #@! TO.P,U1,19,INLC*
G04 #@! TO.N,TIM1_CH3N*
X138900000Y-90907250D03*
G04 #@! TO.P,U1,20,SDO/MODE_SR*
G04 #@! TO.N,Net-(U1-SDO{slash}MODE_SR)*
X139400000Y-90907250D03*
D29*
G04 #@! TO.P,U1,21,SDI/GAIN*
G04 #@! TO.N,Net-(U1-SDI{slash}GAIN)*
X140357500Y-90249750D03*
G04 #@! TO.P,U1,22,SCLK/SLEW*
G04 #@! TO.N,TI_AGND*
X140357500Y-89749750D03*
G04 #@! TO.P,U1,23,nSCS/OCP*
G04 #@! TO.N,Net-(U1-nSCS{slash}OCP)*
X140357500Y-89249750D03*
G04 #@! TO.P,U1,24,VREF*
G04 #@! TO.N,TI_VREF*
X140357500Y-88749750D03*
G04 #@! TO.P,U1,25,SOC*
G04 #@! TO.N,Net-(U1-SOC)*
X140357500Y-88249750D03*
G04 #@! TO.P,U1,26,SOB*
G04 #@! TO.N,Net-(U1-SOB)*
X140357500Y-87749750D03*
G04 #@! TO.P,U1,27,SOA*
G04 #@! TO.N,Net-(U1-SOA)*
X140357500Y-87249750D03*
G04 #@! TO.P,U1,28,ILIMIT*
G04 #@! TO.N,I-LIMIT*
X140357500Y-86749750D03*
D30*
G04 #@! TO.P,U1,29,EP*
G04 #@! TO.N,TI_AGND*
X137450000Y-88499750D03*
G04 #@! TD*
D26*
G04 #@! TO.P,C8,1*
G04 #@! TO.N,+BATT*
X142350000Y-82170000D03*
G04 #@! TO.P,C8,2*
G04 #@! TO.N,-BATT*
X142350000Y-83130000D03*
G04 #@! TD*
D31*
G04 #@! TO.P,M2,1*
G04 #@! TO.N,N/C*
X136000000Y-79900000D03*
G04 #@! TD*
G04 #@! TO.P,M2,1*
G04 #@! TO.N,N/C*
X148850000Y-96300000D03*
G04 #@! TD*
D27*
G04 #@! TO.P,C3,1*
G04 #@! TO.N,Net-(U1-SOA)*
X141500000Y-87200000D03*
G04 #@! TO.P,C3,2*
G04 #@! TO.N,TI_AGND*
X141500000Y-86700000D03*
G04 #@! TD*
G04 #@! TO.P,C6,1*
G04 #@! TO.N,TI_AGND*
X133650000Y-88800000D03*
G04 #@! TO.P,C6,2*
G04 #@! TO.N,I-LIMIT*
X133650000Y-88300000D03*
G04 #@! TD*
D32*
G04 #@! TO.P,R7,1*
G04 #@! TO.N,BOOT0*
X146200000Y-92610000D03*
G04 #@! TO.P,R7,2*
G04 #@! TO.N,TI_AGND*
X146200000Y-91590000D03*
G04 #@! TD*
D17*
G04 #@! TO.P,R9,1*
G04 #@! TO.N,Net-(U1-SDI{slash}GAIN)*
X141300000Y-90250000D03*
G04 #@! TO.P,R9,2*
G04 #@! TO.N,TI_AGND*
X141800000Y-90250000D03*
G04 #@! TD*
D33*
G04 #@! TO.N,+BATT*
X135500000Y-94300000D03*
X141500000Y-82050000D03*
X131446446Y-85196446D03*
G04 #@! TO.N,TI_AGND*
X141746088Y-92560334D03*
X148050000Y-91550000D03*
X153100000Y-82000000D03*
X132950000Y-89050000D03*
X143829103Y-83630224D03*
X152178554Y-84099000D03*
X150800000Y-83400000D03*
X145200000Y-87650000D03*
X132850000Y-87200000D03*
X148000000Y-77650000D03*
G04 #@! TO.N,TI_VREF*
X142393614Y-88799279D03*
X143200000Y-82750000D03*
X153100000Y-84000000D03*
X151450000Y-93600000D03*
X134450000Y-83900000D03*
G04 #@! TO.N,I-LIMIT*
X142550000Y-84399998D03*
X132850000Y-88350000D03*
G04 #@! TO.N,TI_AVDD*
X142055022Y-83905023D03*
X130600000Y-85700000D03*
G04 #@! TO.N,Reset*
X146050000Y-88450000D03*
G04 #@! TO.N,SOA*
X146650000Y-87950000D03*
G04 #@! TO.N,SOB*
X146155099Y-87454948D03*
G04 #@! TO.N,SOC*
X148999991Y-84103030D03*
X144250000Y-89000000D03*
G04 #@! TO.N,BOOT0*
X148799995Y-91600000D03*
G04 #@! TO.N,TIM1_CH1N*
X132250000Y-92286454D03*
X149799995Y-84800000D03*
G04 #@! TO.N,TIM1_CH1*
X132842186Y-91857815D03*
X153450000Y-86950000D03*
G04 #@! TO.N,TI_FAULT*
X146650000Y-88950000D03*
X132500000Y-90100000D03*
G04 #@! TO.N,TIM1_CH3*
X153450000Y-87950000D03*
X138500000Y-94300000D03*
G04 #@! TO.N,TIM1_CH3N*
X145824293Y-89125707D03*
X138648055Y-92740948D03*
G04 #@! TO.N,TIM1_CH2N*
X147428554Y-84621446D03*
X132800000Y-93300000D03*
G04 #@! TO.N,TIM1_CH2*
X154000000Y-87450000D03*
X133499999Y-93108259D03*
G04 #@! TO.N,SDA1*
X147250000Y-79850000D03*
X153950000Y-90200000D03*
G04 #@! TO.N,NSS1*
X148299995Y-84100000D03*
X145450000Y-91801000D03*
G04 #@! TO.N,SCL1*
X148100000Y-82550000D03*
X154150000Y-89450000D03*
G04 #@! TO.N,ENAB_XL*
X147200000Y-83000000D03*
X151299995Y-92249995D03*
G04 #@! TO.N,SCK1*
X148799995Y-84800000D03*
X145700000Y-90800000D03*
G04 #@! TO.N,CAN_RX*
X153950000Y-88450000D03*
G04 #@! TO.N,ENAB_MAG*
X146659435Y-80225814D03*
X151799995Y-91649995D03*
G04 #@! TO.N,CAN_TX*
X153450000Y-88950000D03*
G04 #@! TO.N,-BATT*
X141500000Y-83200000D03*
G04 #@! TD*
D34*
G04 #@! TO.N,TI_VREF*
X151450000Y-93600000D02*
X151050000Y-94000000D01*
X147836999Y-94000000D02*
X146686999Y-95150000D01*
X151050000Y-94000000D02*
X147836999Y-94000000D01*
X139074000Y-95150001D02*
X137174000Y-97050000D01*
X146686999Y-95150000D02*
X139074000Y-95150001D01*
G04 #@! TO.N,TI_AGND*
X134542500Y-87249750D02*
X136200000Y-87249750D01*
X134542500Y-88749750D02*
X137200000Y-88749750D01*
D35*
G04 #@! TO.N,PHASE-B*
X140999002Y-79401003D02*
X141003235Y-79401000D01*
X141003235Y-79401000D02*
X141007477Y-79401017D01*
X141007477Y-79401017D02*
X141010465Y-79398005D01*
X141010465Y-79398005D02*
X141708005Y-78700465D01*
X141708005Y-78700465D02*
X141711017Y-78697477D01*
X141711017Y-78697477D02*
X141710986Y-78688995D01*
X136350000Y-86092250D02*
X136350000Y-84050000D01*
X136350000Y-84050000D02*
X140998990Y-79401010D01*
X140998990Y-79401010D02*
X141003239Y-79401010D01*
D34*
G04 #@! TO.N,TIM1_CH2N*
X133399996Y-93900010D02*
X134207245Y-93899989D01*
D35*
G04 #@! TO.N,PHASE-A*
X141252206Y-80002000D02*
X141247994Y-80001986D01*
X141245025Y-80004974D02*
X141247994Y-80001986D01*
X141252206Y-80002000D02*
X141256407Y-80001988D01*
X141259387Y-79999025D02*
X141256407Y-80001988D01*
D34*
G04 #@! TO.N,TIM1_CH3*
X138499999Y-93300000D02*
X138050000Y-92849999D01*
G04 #@! TO.N,SOA*
X146648420Y-86249993D02*
X147140902Y-86742477D01*
G04 #@! TO.N,TI_AVDD*
X130689000Y-85711000D02*
X130699981Y-85722008D01*
X130700000Y-85737556D02*
X130699981Y-85722008D01*
X130689000Y-85711000D02*
X130677999Y-85700000D01*
X131450000Y-87780000D02*
X131450000Y-87380002D01*
G04 #@! TO.N,I-LIMIT*
X133800244Y-88249735D02*
X133699997Y-88349995D01*
X142200012Y-84907254D02*
X142200001Y-84749999D01*
G04 #@! TO.N,Net-(U1-SOC)*
X141941979Y-88250250D02*
X141941482Y-88249739D01*
X141940771Y-88249750D02*
X141941482Y-88249739D01*
X141941979Y-88250250D02*
X141942482Y-88250744D01*
X141943186Y-88250750D02*
X141942482Y-88250744D01*
G04 #@! TO.N,TI_AGND*
X146199997Y-90104762D02*
X146045237Y-89950003D01*
X141750024Y-91699940D02*
X141650001Y-91800004D01*
X141748044Y-92201956D02*
X141749986Y-92199993D01*
X141750000Y-92197233D02*
X141749986Y-92199993D01*
X141748044Y-92201956D02*
X141746098Y-92203916D01*
X141746088Y-92206678D02*
X141746098Y-92203916D01*
D35*
G04 #@! TO.N,+BATT*
X134417625Y-86624875D02*
X134292749Y-86500000D01*
X132750001Y-86499996D02*
X131446446Y-85196446D01*
X134212752Y-86419993D02*
X131450000Y-86420000D01*
D34*
X141500000Y-82050000D02*
X142230000Y-82050000D01*
D35*
X132750001Y-86499996D02*
X134292749Y-86500000D01*
X141449992Y-82000019D02*
X140250000Y-82000001D01*
X134417625Y-86624875D02*
X134212752Y-86419993D01*
X141500000Y-82050000D02*
X141449992Y-82000019D01*
X138049993Y-84199997D02*
X138050000Y-86092250D01*
X138049993Y-84199997D02*
X140250000Y-82000001D01*
D34*
G04 #@! TO.N,TI_AGND*
X134542500Y-88749750D02*
X133700250Y-88749750D01*
X141746088Y-92560334D02*
X142749995Y-91556419D01*
X143399994Y-88600003D02*
X143050000Y-88250000D01*
X146200000Y-91590000D02*
X148009996Y-91589993D01*
X142749995Y-91556419D02*
X142750000Y-90530000D01*
X148050000Y-91550000D02*
X148009996Y-91589993D01*
X141746088Y-92560334D02*
X141039671Y-92560344D01*
X141800000Y-90250000D02*
X141800000Y-89250000D01*
X141749017Y-92200283D02*
X141750024Y-91699940D01*
X141746075Y-92946092D02*
X142549999Y-93750003D01*
X141746088Y-92206678D02*
X141746088Y-92560334D01*
X141750000Y-92197233D02*
X141749999Y-89749751D01*
X133624870Y-87224885D02*
X134542500Y-87249750D01*
X132574999Y-89425000D02*
X132950000Y-89050000D01*
X143829103Y-83630224D02*
X143829103Y-84370897D01*
X132850000Y-87200000D02*
X133624870Y-87224885D01*
X144949999Y-87400000D02*
X145200000Y-87650000D01*
X143829103Y-84370897D02*
X141500000Y-86700000D01*
X141650001Y-91800004D02*
X140850000Y-91800000D01*
X133250244Y-88749736D02*
X132950000Y-89050000D01*
X138200004Y-95400010D02*
X137125000Y-95400000D01*
X138200004Y-95400010D02*
X141039671Y-92560344D01*
X134542500Y-88749750D02*
X133250244Y-88749736D01*
X140357500Y-89749750D02*
X138700000Y-89749750D01*
X141746075Y-92946092D02*
X141746088Y-92560334D01*
X132574999Y-89425000D02*
X131650000Y-89425000D01*
X143400000Y-89879999D02*
X142750000Y-90530000D01*
X142549999Y-93750003D02*
X144000000Y-93750000D01*
X146199997Y-90104762D02*
X146200000Y-91590000D01*
X141800000Y-90250000D02*
X141700000Y-90150000D01*
X146045237Y-89950003D02*
X145030000Y-89950000D01*
X143400000Y-89879999D02*
X143399994Y-88600003D01*
X144949999Y-87400000D02*
X143350000Y-87400000D01*
X140357500Y-89749750D02*
X141749999Y-89749751D01*
G04 #@! TO.N,TI_VREF*
X142393612Y-89213614D02*
X142750000Y-89570000D01*
X142344090Y-88749735D02*
X142393614Y-88799279D01*
X142393614Y-88799279D02*
X142393612Y-89213614D01*
X151450000Y-93600000D02*
X150400000Y-92550000D01*
X142344090Y-88749735D02*
X140357500Y-88749750D01*
G04 #@! TO.N,Net-(U1-SOA)*
X140357500Y-87249750D02*
X141500000Y-87249750D01*
X141500000Y-87200000D02*
X142200000Y-87200000D01*
G04 #@! TO.N,Net-(U1-SOB)*
X142850000Y-87400000D02*
X142850000Y-86800000D01*
X142850000Y-87400000D02*
X142500243Y-87749733D01*
X142500243Y-87749733D02*
X140357500Y-87749750D01*
G04 #@! TO.N,Net-(U1-SOC)*
X142549988Y-88157593D02*
X142808586Y-87898971D01*
X143398998Y-87899003D02*
X142808586Y-87898971D01*
X142549988Y-88157593D02*
X142550000Y-88250000D01*
X141943186Y-88250750D02*
X142599250Y-88250750D01*
X141940771Y-88249750D02*
X140357500Y-88249750D01*
X143398998Y-87899003D02*
X143750000Y-88250000D01*
G04 #@! TO.N,I-LIMIT*
X142200001Y-84749999D02*
X142550000Y-84399998D01*
X133800244Y-88249735D02*
X134542500Y-88249750D01*
X132850000Y-88350000D02*
X133699997Y-88349995D01*
X142200012Y-84907254D02*
X140357500Y-86749750D01*
G04 #@! TO.N,TI_AVDD*
X130699985Y-86630006D02*
X131450000Y-87380001D01*
X130973999Y-88256000D02*
X131450000Y-87780000D01*
X142055022Y-83905023D02*
X141560038Y-84399978D01*
X134008773Y-89749755D02*
X132783512Y-90974981D01*
X132783512Y-90974981D02*
X131650000Y-90974999D01*
X131819756Y-87749735D02*
X134542500Y-87749750D01*
X131819756Y-87749735D02*
X131450000Y-87380001D01*
X141560038Y-84399978D02*
X140799996Y-84399989D01*
X134008773Y-89749755D02*
X134542500Y-89749750D01*
X130973999Y-88256000D02*
X130973998Y-90299000D01*
X131650000Y-90974999D02*
X130973998Y-90299000D01*
X130700000Y-85737556D02*
X130699985Y-86630006D01*
X130600000Y-85700000D02*
X130677999Y-85700000D01*
X140799996Y-84399989D02*
X139400000Y-85799998D01*
G04 #@! TO.N,Reset*
X146050000Y-88450000D02*
X145570001Y-88450000D01*
X144070000Y-89950000D02*
X144070000Y-90980000D01*
X144070000Y-89950000D02*
X145570001Y-88450000D01*
G04 #@! TO.N,Net-(LED1-K)*
X135475000Y-95400000D02*
X135475000Y-96950000D01*
G04 #@! TO.N,SOA*
X146648420Y-86249993D02*
X142600000Y-86250001D01*
X147140902Y-86742477D02*
X147140897Y-87459102D01*
X142600000Y-86250001D02*
X142200000Y-86650000D01*
X147140897Y-87459102D02*
X146650000Y-87950000D01*
G04 #@! TO.N,SOB*
X145500150Y-86800000D02*
X146155099Y-87454948D01*
X145500150Y-86800000D02*
X143350000Y-86800000D01*
G04 #@! TO.N,SOC*
X144250000Y-89000000D02*
X144250000Y-88250000D01*
G04 #@! TO.N,BOOT0*
X147350000Y-92550000D02*
X147150003Y-92550000D01*
X147849995Y-92550001D02*
X147624997Y-92550000D01*
X148799995Y-91600000D02*
X147849995Y-92550001D01*
X147150003Y-92550000D02*
X146260000Y-92550000D01*
G04 #@! TO.N,Net-(U1-SDI{slash}GAIN)*
X141300000Y-90250000D02*
X140357750Y-90250000D01*
G04 #@! TO.N,Net-(U1-SDO{slash}MODE_SR)*
X140292747Y-91800009D02*
X139400000Y-90907250D01*
G04 #@! TO.N,Net-(U1-nSCS{slash}OCP)*
X140357500Y-89249750D02*
X141299750Y-89249750D01*
G04 #@! TO.N,TIM1_CH1N*
X135042747Y-90907243D02*
X135500000Y-90907250D01*
X133300004Y-92650011D02*
X135042747Y-90907243D01*
X133300004Y-92650011D02*
X132613544Y-92650004D01*
X132250000Y-92286454D02*
X132613544Y-92650004D01*
G04 #@! TO.N,TIM1_CH1*
X132842186Y-91857815D02*
X134450250Y-90249750D01*
G04 #@! TO.N,TI_FAULT*
X133800244Y-89249735D02*
X132949999Y-90099998D01*
X133800244Y-89249735D02*
X134542500Y-89249750D01*
X132949999Y-90099998D02*
X132500000Y-90100000D01*
D35*
G04 #@! TO.N,PHASE-B*
X142200005Y-78200011D02*
X143050000Y-78200000D01*
X142200005Y-78200011D02*
X141711001Y-78693236D01*
G04 #@! TO.N,PHASE-C*
X135499997Y-83849999D02*
X135500000Y-86092250D01*
X140510013Y-78840005D02*
X140510000Y-78200000D01*
X135499997Y-83849999D02*
X140510013Y-78840005D01*
D34*
G04 #@! TO.N,TIM1_CH3*
X138050000Y-92849999D02*
X138050000Y-90907250D01*
X138500000Y-94300000D02*
X138499999Y-93300000D01*
G04 #@! TO.N,TIM1_CH3N*
X138899980Y-92399991D02*
X138648071Y-92651952D01*
X138648055Y-92740948D02*
X138648071Y-92651952D01*
X138899980Y-92399991D02*
X138900000Y-90907250D01*
D35*
G04 #@! TO.N,PHASE-A*
X141245025Y-80004974D02*
X137199990Y-84049996D01*
X144239999Y-79550000D02*
X145590000Y-78200000D01*
X141708409Y-79549990D02*
X141259387Y-79999025D01*
X137199990Y-84049996D02*
X137200000Y-86092250D01*
X141708409Y-79549990D02*
X144239999Y-79550000D01*
D34*
G04 #@! TO.N,TIM1_CH2N*
X134207245Y-93899989D02*
X137200000Y-90907250D01*
X132800000Y-93300000D02*
X133399996Y-93900010D01*
G04 #@! TO.N,TIM1_CH2*
X133499999Y-93108259D02*
X133527299Y-93135561D01*
X134121692Y-93135567D02*
X136350000Y-90907250D01*
X133527299Y-93135561D02*
X134121692Y-93135567D01*
G04 #@! TO.N,CAN_RX*
X153241472Y-88450016D02*
X153950000Y-88450000D01*
X151666481Y-86874994D02*
X153241472Y-88450016D01*
X151666481Y-86874994D02*
X147950000Y-86875000D01*
G04 #@! TO.N,CAN_TX*
X148775000Y-88949999D02*
X147950000Y-88125000D01*
X148775000Y-88949999D02*
X153450000Y-88950000D01*
D35*
G04 #@! TO.N,-BATT*
X141500000Y-83200000D02*
X140250001Y-83200000D01*
D34*
X141500000Y-83200000D02*
X142280000Y-83200000D01*
D35*
X140250001Y-83200000D02*
X138899990Y-84549996D01*
X138899990Y-84549996D02*
X138900000Y-86092250D01*
G04 #@! TD*
M02*
