G04 #@! TF.GenerationSoftware,KiCad,Pcbnew,9.0.4*
G04 #@! TF.CreationDate,2025-10-13T14:39:45-04:00*
G04 #@! TF.ProjectId,bldc motor controller,626c6463-206d-46f7-946f-7220636f6e74,rev?*
G04 #@! TF.SameCoordinates,Original*
G04 #@! TF.FileFunction,Copper,L6,Bot*
G04 #@! TF.FilePolarity,Positive*
%FSLAX46Y46*%
G04 Gerber Fmt 4.6, Leading zero omitted, Abs format (unit mm)*
G04 Created by KiCad (PCBNEW 9.0.4) date 2025-10-13 14:39:45*
%MOMM*%
%LPD*%
G01*
G04 APERTURE LIST*
G04 Aperture macros list*
%AMRoundRect*
0 Rectangle with rounded corners*
0 $1 Rounding radius*
0 $2 $3 $4 $5 $6 $7 $8 $9 X,Y pos of 4 corners*
0 Add a 4 corners polygon primitive as box body*
4,1,4,$2,$3,$4,$5,$6,$7,$8,$9,$2,$3,0*
0 Add four circle primitives for the rounded corners*
1,1,$1+$1,$2,$3*
1,1,$1+$1,$4,$5*
1,1,$1+$1,$6,$7*
1,1,$1+$1,$8,$9*
0 Add four rect primitives between the rounded corners*
20,1,$1+$1,$2,$3,$4,$5,0*
20,1,$1+$1,$4,$5,$6,$7,0*
20,1,$1+$1,$6,$7,$8,$9,0*
20,1,$1+$1,$8,$9,$2,$3,0*%
G04 Aperture macros list end*
G04 #@! TA.AperFunction,EtchedComponent*
%ADD10C,0.000000*%
G04 #@! TD*
G04 #@! TA.AperFunction,SMDPad,CuDef*
%ADD11C,0.500000*%
G04 #@! TD*
G04 #@! TA.AperFunction,ComponentPad*
%ADD12R,0.850000X0.850000*%
G04 #@! TD*
G04 #@! TA.AperFunction,ComponentPad*
%ADD13C,0.850000*%
G04 #@! TD*
G04 #@! TA.AperFunction,ComponentPad*
%ADD14RoundRect,0.250000X-0.600000X-0.750000X0.600000X-0.750000X0.600000X0.750000X-0.600000X0.750000X0*%
G04 #@! TD*
G04 #@! TA.AperFunction,ComponentPad*
%ADD15O,1.700000X2.000000*%
G04 #@! TD*
G04 #@! TA.AperFunction,ComponentPad*
%ADD16R,1.700000X1.700000*%
G04 #@! TD*
G04 #@! TA.AperFunction,ComponentPad*
%ADD17C,1.700000*%
G04 #@! TD*
G04 #@! TA.AperFunction,ComponentPad*
%ADD18C,3.800000*%
G04 #@! TD*
G04 #@! TA.AperFunction,SMDPad,CuDef*
%ADD19RoundRect,0.075000X-0.125000X-0.075000X0.125000X-0.075000X0.125000X0.075000X-0.125000X0.075000X0*%
G04 #@! TD*
G04 #@! TA.AperFunction,SMDPad,CuDef*
%ADD20RoundRect,0.225000X0.225000X0.250000X-0.225000X0.250000X-0.225000X-0.250000X0.225000X-0.250000X0*%
G04 #@! TD*
G04 #@! TA.AperFunction,SMDPad,CuDef*
%ADD21RoundRect,0.075000X0.125000X0.075000X-0.125000X0.075000X-0.125000X-0.075000X0.125000X-0.075000X0*%
G04 #@! TD*
G04 #@! TA.AperFunction,SMDPad,CuDef*
%ADD22RoundRect,0.075000X0.075000X-0.125000X0.075000X0.125000X-0.075000X0.125000X-0.075000X-0.125000X0*%
G04 #@! TD*
G04 #@! TA.AperFunction,SMDPad,CuDef*
%ADD23RoundRect,0.250000X-0.750000X-0.650000X0.750000X-0.650000X0.750000X0.650000X-0.750000X0.650000X0*%
G04 #@! TD*
G04 #@! TA.AperFunction,SMDPad,CuDef*
%ADD24R,0.500000X0.280000*%
G04 #@! TD*
G04 #@! TA.AperFunction,SMDPad,CuDef*
%ADD25R,0.280000X0.500000*%
G04 #@! TD*
G04 #@! TA.AperFunction,SMDPad,CuDef*
%ADD26R,0.400000X1.700000*%
G04 #@! TD*
G04 #@! TA.AperFunction,SMDPad,CuDef*
%ADD27O,0.900000X0.280000*%
G04 #@! TD*
G04 #@! TA.AperFunction,SMDPad,CuDef*
%ADD28O,0.280000X0.900000*%
G04 #@! TD*
G04 #@! TA.AperFunction,SMDPad,CuDef*
%ADD29R,3.700000X3.700000*%
G04 #@! TD*
G04 #@! TA.AperFunction,SMDPad,CuDef*
%ADD30R,1.100000X0.600000*%
G04 #@! TD*
G04 #@! TA.AperFunction,SMDPad,CuDef*
%ADD31RoundRect,0.200000X-0.200000X-0.275000X0.200000X-0.275000X0.200000X0.275000X-0.200000X0.275000X0*%
G04 #@! TD*
G04 #@! TA.AperFunction,SMDPad,CuDef*
%ADD32RoundRect,0.140000X-0.140000X-0.170000X0.140000X-0.170000X0.140000X0.170000X-0.140000X0.170000X0*%
G04 #@! TD*
G04 #@! TA.AperFunction,SMDPad,CuDef*
%ADD33RoundRect,0.250000X-0.475000X0.250000X-0.475000X-0.250000X0.475000X-0.250000X0.475000X0.250000X0*%
G04 #@! TD*
G04 #@! TA.AperFunction,SMDPad,CuDef*
%ADD34RoundRect,0.250000X0.250000X0.475000X-0.250000X0.475000X-0.250000X-0.475000X0.250000X-0.475000X0*%
G04 #@! TD*
G04 #@! TA.AperFunction,SMDPad,CuDef*
%ADD35RoundRect,0.250000X0.325000X0.650000X-0.325000X0.650000X-0.325000X-0.650000X0.325000X-0.650000X0*%
G04 #@! TD*
G04 #@! TA.AperFunction,ViaPad*
%ADD36C,0.600000*%
G04 #@! TD*
G04 #@! TA.AperFunction,Conductor*
%ADD37C,0.200000*%
G04 #@! TD*
G04 #@! TA.AperFunction,Conductor*
%ADD38C,0.500000*%
G04 #@! TD*
G04 APERTURE END LIST*
D10*
G04 #@! TA.AperFunction,EtchedComponent*
G04 #@! TO.C,NT1*
G36*
X136000000Y-93550000D02*
G01*
X135500000Y-93550000D01*
X135500000Y-92550000D01*
X136000000Y-92550000D01*
X136000000Y-93550000D01*
G37*
G04 #@! TD.AperFunction*
G04 #@! TD*
D11*
G04 #@! TO.P,NT1,1,1*
G04 #@! TO.N,-BATT*
X135750000Y-93550000D03*
G04 #@! TO.P,NT1,2,2*
G04 #@! TO.N,TI_AGND*
X135750000Y-92550000D03*
G04 #@! TD*
D12*
G04 #@! TO.P,J1,1,Pin_1*
G04 #@! TO.N,UART_TX*
X145600000Y-85000000D03*
D13*
G04 #@! TO.P,J1,2,Pin_2*
G04 #@! TO.N,UART_RX*
X145600000Y-84000000D03*
G04 #@! TO.P,J1,3,Pin_3*
G04 #@! TO.N,TI_VREF*
X145600000Y-83000000D03*
G04 #@! TO.P,J1,4,Pin_4*
G04 #@! TO.N,TI_AGND*
X145600000Y-82000000D03*
G04 #@! TD*
D14*
G04 #@! TO.P,-BAT+1,1,1*
G04 #@! TO.N,-BATT*
X140900000Y-96750000D03*
D15*
G04 #@! TO.P,-BAT+1,2,2*
G04 #@! TO.N,+BATT*
X143400000Y-96750000D03*
G04 #@! TD*
D16*
G04 #@! TO.P,U8,1,1*
G04 #@! TO.N,PHASE-A*
X145590000Y-78200000D03*
D17*
G04 #@! TO.P,U8,2,2*
G04 #@! TO.N,PHASE-B*
X143050000Y-78200000D03*
G04 #@! TO.P,U8,3,3*
G04 #@! TO.N,PHASE-C*
X140510000Y-78200000D03*
G04 #@! TD*
D18*
G04 #@! TO.P,M2,1*
G04 #@! TO.N,N/C*
X136000000Y-79900000D03*
G04 #@! TD*
G04 #@! TO.P,M2,1*
G04 #@! TO.N,N/C*
X148850000Y-96300000D03*
G04 #@! TD*
D19*
G04 #@! TO.P,C13,1*
G04 #@! TO.N,TI_AGND*
X150850000Y-84100000D03*
G04 #@! TO.P,C13,2*
G04 #@! TO.N,TI_VREF*
X151350000Y-84100000D03*
G04 #@! TD*
D20*
G04 #@! TO.P,C9,1*
G04 #@! TO.N,+BATT*
X142975000Y-98500000D03*
G04 #@! TO.P,C9,2*
G04 #@! TO.N,-BATT*
X141425000Y-98500000D03*
G04 #@! TD*
D21*
G04 #@! TO.P,C16,1*
G04 #@! TO.N,TI_AGND*
X147200000Y-91600000D03*
G04 #@! TO.P,C16,2*
G04 #@! TO.N,TI_VREF*
X146700000Y-91600000D03*
G04 #@! TD*
D19*
G04 #@! TO.P,C20,1*
G04 #@! TO.N,Net-(U6-C1)*
X148700000Y-79475000D03*
G04 #@! TO.P,C20,2*
G04 #@! TO.N,TI_AGND*
X149200000Y-79475000D03*
G04 #@! TD*
D22*
G04 #@! TO.P,C23,1*
G04 #@! TO.N,TI_VREF*
X151100000Y-81325000D03*
G04 #@! TO.P,C23,2*
G04 #@! TO.N,TI_AGND*
X151100000Y-80825000D03*
G04 #@! TD*
D23*
G04 #@! TO.P,L1,1,1*
G04 #@! TO.N,Net-(U4-SW)*
X133500000Y-85250000D03*
G04 #@! TO.P,L1,2,2*
G04 #@! TO.N,TI_VREF*
X138000000Y-85250000D03*
G04 #@! TD*
D24*
G04 #@! TO.P,U6,1,SCL/SPC*
G04 #@! TO.N,SCL1*
X148075000Y-81825000D03*
G04 #@! TO.P,U6,2,CS_XL*
G04 #@! TO.N,ENAB_XL*
X148075000Y-81325000D03*
G04 #@! TO.P,U6,3,CS_MAG*
G04 #@! TO.N,ENAB_MAG*
X148075000Y-80825000D03*
G04 #@! TO.P,U6,4,SDA/SDI/SDO*
G04 #@! TO.N,SDA1*
X148075000Y-80325000D03*
D25*
G04 #@! TO.P,U6,5,C1*
G04 #@! TO.N,Net-(U6-C1)*
X148700000Y-80200000D03*
G04 #@! TO.P,U6,6,GND*
G04 #@! TO.N,TI_AGND*
X149200000Y-80200000D03*
D24*
G04 #@! TO.P,U6,7,INT_MAG/DRDY*
G04 #@! TO.N,unconnected-(U6-INT_MAG{slash}DRDY-Pad7)*
X149825000Y-80325000D03*
G04 #@! TO.P,U6,8,GND*
G04 #@! TO.N,TI_AGND*
X149825000Y-80825000D03*
G04 #@! TO.P,U6,9,Vdd*
G04 #@! TO.N,TI_VREF*
X149825000Y-81325000D03*
G04 #@! TO.P,U6,10,Vdd_IO*
X149825000Y-81825000D03*
D25*
G04 #@! TO.P,U6,11,INT_2_XL*
G04 #@! TO.N,unconnected-(U6-INT_2_XL-Pad11)*
X149200000Y-81950000D03*
G04 #@! TO.P,U6,12,INT_1_XL*
G04 #@! TO.N,unconnected-(U6-INT_1_XL-Pad12)*
X148700000Y-81950000D03*
G04 #@! TD*
D26*
G04 #@! TO.P,U5,1,CSn*
G04 #@! TO.N,NSS1*
X144350000Y-91250000D03*
G04 #@! TO.P,U5,2,CLK*
G04 #@! TO.N,SCK1*
X143700000Y-91250000D03*
G04 #@! TO.P,U5,3,MISO*
G04 #@! TO.N,MISO1*
X143050000Y-91250000D03*
G04 #@! TO.P,U5,4,MOSI*
G04 #@! TO.N,MOSI1*
X142400000Y-91250000D03*
G04 #@! TO.P,U5,5,TEST*
G04 #@! TO.N,TI_AGND*
X141750000Y-91250000D03*
G04 #@! TO.P,U5,6,B*
G04 #@! TO.N,unconnected-(U5-B-Pad6)*
X141100000Y-91250000D03*
G04 #@! TO.P,U5,7,A*
G04 #@! TO.N,unconnected-(U5-A-Pad7)*
X140450000Y-91250000D03*
G04 #@! TO.P,U5,8,W/PWM*
G04 #@! TO.N,unconnected-(U5-W{slash}PWM-Pad8)*
X140450000Y-85650000D03*
G04 #@! TO.P,U5,9,V*
G04 #@! TO.N,unconnected-(U5-V-Pad9)*
X141100000Y-85650000D03*
G04 #@! TO.P,U5,10,U*
G04 #@! TO.N,unconnected-(U5-U-Pad10)*
X141750000Y-85650000D03*
G04 #@! TO.P,U5,11,VDD*
G04 #@! TO.N,TI_VREF*
X142400000Y-85650000D03*
G04 #@! TO.P,U5,12,VDD3V*
X143050000Y-85650000D03*
G04 #@! TO.P,U5,13,GND*
G04 #@! TO.N,TI_AGND*
X143700000Y-85650000D03*
G04 #@! TO.P,U5,14,I/PWM*
G04 #@! TO.N,unconnected-(U5-I{slash}PWM-Pad14)*
X144350000Y-85650000D03*
G04 #@! TD*
D21*
G04 #@! TO.P,C17,1*
G04 #@! TO.N,TI_AGND*
X147200000Y-92250000D03*
G04 #@! TO.P,C17,2*
G04 #@! TO.N,TI_VREF*
X146700000Y-92250000D03*
G04 #@! TD*
D19*
G04 #@! TO.P,C14,1*
G04 #@! TO.N,TI_AGND*
X152600000Y-85250000D03*
G04 #@! TO.P,C14,2*
G04 #@! TO.N,TI_VREF*
X153100000Y-85250000D03*
G04 #@! TD*
D22*
G04 #@! TO.P,C21,1*
G04 #@! TO.N,TI_VREF*
X151700000Y-81325000D03*
G04 #@! TO.P,C21,2*
G04 #@! TO.N,TI_AGND*
X151700000Y-80825000D03*
G04 #@! TD*
D27*
G04 #@! TO.P,U3,1,VDD*
G04 #@! TO.N,TI_VREF*
X147499995Y-89950000D03*
G04 #@! TO.P,U3,2,PF0-OSC_IN*
G04 #@! TO.N,TIM1_CH3N*
X147499995Y-89450000D03*
G04 #@! TO.P,U3,3,PF1-OSC_OUT*
G04 #@! TO.N,TI_FAULT*
X147499995Y-88950000D03*
G04 #@! TO.P,U3,4,PG10-NRST*
G04 #@! TO.N,Reset*
X147499995Y-88450000D03*
G04 #@! TO.P,U3,5,PA0*
G04 #@! TO.N,SOA*
X147499995Y-87950000D03*
G04 #@! TO.P,U3,6,PA1*
G04 #@! TO.N,SOB*
X147499995Y-87450000D03*
G04 #@! TO.P,U3,7,PA2*
G04 #@! TO.N,UART_TX*
X147499995Y-86950000D03*
G04 #@! TO.P,U3,8,PA3*
G04 #@! TO.N,UART_RX*
X147499995Y-86450000D03*
D28*
G04 #@! TO.P,U3,9,PA4*
G04 #@! TO.N,NSS1*
X148299995Y-85650000D03*
G04 #@! TO.P,U3,10,PA5*
G04 #@! TO.N,SCK1*
X148799995Y-85650000D03*
G04 #@! TO.P,U3,11,PA6*
G04 #@! TO.N,SOC*
X149299995Y-85650000D03*
G04 #@! TO.P,U3,12,PA7*
G04 #@! TO.N,TIM1_CH1N*
X149799995Y-85650000D03*
G04 #@! TO.P,U3,13,PB0*
G04 #@! TO.N,TIM1_CH2N*
X150299995Y-85650000D03*
G04 #@! TO.P,U3,14,VSSA*
G04 #@! TO.N,TI_AGND*
X150799995Y-85650000D03*
G04 #@! TO.P,U3,15,VDDA*
G04 #@! TO.N,TI_VREF*
X151299995Y-85650000D03*
G04 #@! TO.P,U3,16,VSS*
G04 #@! TO.N,TI_AGND*
X151799995Y-85650000D03*
D27*
G04 #@! TO.P,U3,17,VDD*
G04 #@! TO.N,TI_VREF*
X152599995Y-86450000D03*
G04 #@! TO.P,U3,18,PA8*
G04 #@! TO.N,TIM1_CH1*
X152599995Y-86950000D03*
G04 #@! TO.P,U3,19,PA9*
G04 #@! TO.N,TIM1_CH2*
X152599995Y-87450000D03*
G04 #@! TO.P,U3,20,PA10*
G04 #@! TO.N,TIM1_CH3*
X152599995Y-87950000D03*
G04 #@! TO.P,U3,21,PA11*
G04 #@! TO.N,CAN_RX*
X152599995Y-88450000D03*
G04 #@! TO.P,U3,22,PA12*
G04 #@! TO.N,CAN_TX*
X152599995Y-88950000D03*
G04 #@! TO.P,U3,23,PA13*
G04 #@! TO.N,SCL1*
X152599995Y-89450000D03*
G04 #@! TO.P,U3,24,PA14*
G04 #@! TO.N,SDA1*
X152599995Y-89950000D03*
D28*
G04 #@! TO.P,U3,25,PA15*
G04 #@! TO.N,ENAB_MAG*
X151799995Y-90750000D03*
G04 #@! TO.P,U3,26,PB3*
G04 #@! TO.N,ENAB_XL*
X151299995Y-90750000D03*
G04 #@! TO.P,U3,27,PB4*
G04 #@! TO.N,unconnected-(U3-PB4-Pad27)*
X150799995Y-90750000D03*
G04 #@! TO.P,U3,28,PB5*
G04 #@! TO.N,MOSI1*
X150299995Y-90750000D03*
G04 #@! TO.P,U3,29,PB6*
G04 #@! TO.N,MISO1*
X149799995Y-90750000D03*
G04 #@! TO.P,U3,30,PB7*
G04 #@! TO.N,unconnected-(U3-PB7-Pad30)*
X149299995Y-90750000D03*
G04 #@! TO.P,U3,31,PB8-BOOT0*
G04 #@! TO.N,BOOT0*
X148799995Y-90750000D03*
G04 #@! TO.P,U3,32,VSS*
G04 #@! TO.N,TI_AGND*
X148299995Y-90750000D03*
D29*
G04 #@! TO.P,U3,33,EP*
X150049995Y-88200000D03*
G04 #@! TD*
D30*
G04 #@! TO.P,U4,1,CB*
G04 #@! TO.N,Net-(U4-CB)*
X137150000Y-93214000D03*
G04 #@! TO.P,U4,2,GND*
G04 #@! TO.N,-BATT*
X137150000Y-94164000D03*
G04 #@! TO.P,U4,3,FB*
G04 #@! TO.N,Net-(U4-FB)*
X137150000Y-95114000D03*
G04 #@! TO.P,U4,4,EN*
G04 #@! TO.N,+BATT*
X134450000Y-95114000D03*
G04 #@! TO.P,U4,5,VIN*
X134450000Y-94164000D03*
G04 #@! TO.P,U4,6,SW*
G04 #@! TO.N,Net-(U4-SW)*
X134450000Y-93214000D03*
G04 #@! TD*
D31*
G04 #@! TO.P,R6,1*
G04 #@! TO.N,Net-(U4-FB)*
X137075000Y-96450000D03*
G04 #@! TO.P,R6,2*
G04 #@! TO.N,-BATT*
X138725000Y-96450000D03*
G04 #@! TD*
D22*
G04 #@! TO.P,C22,1*
G04 #@! TO.N,TI_VREF*
X150500000Y-81325000D03*
G04 #@! TO.P,C22,2*
G04 #@! TO.N,TI_AGND*
X150500000Y-80825000D03*
G04 #@! TD*
D32*
G04 #@! TO.P,C11,1*
G04 #@! TO.N,Net-(U4-SW)*
X135170000Y-91200000D03*
G04 #@! TO.P,C11,2*
G04 #@! TO.N,Net-(U4-CB)*
X136130000Y-91200000D03*
G04 #@! TD*
D19*
G04 #@! TO.P,C12,1*
G04 #@! TO.N,TI_AGND*
X150850000Y-84750000D03*
G04 #@! TO.P,C12,2*
G04 #@! TO.N,TI_VREF*
X151350000Y-84750000D03*
G04 #@! TD*
G04 #@! TO.P,C19,1*
G04 #@! TO.N,TI_VREF*
X143150000Y-84400000D03*
G04 #@! TO.P,C19,2*
G04 #@! TO.N,TI_AGND*
X143650000Y-84400000D03*
G04 #@! TD*
D33*
G04 #@! TO.P,R1,1*
G04 #@! TO.N,TI_VREF*
X138300000Y-89700000D03*
G04 #@! TO.P,R1,2*
G04 #@! TO.N,Net-(U4-FB)*
X138300000Y-91600000D03*
G04 #@! TD*
D19*
G04 #@! TO.P,C15,1*
G04 #@! TO.N,TI_AGND*
X152600000Y-84650000D03*
G04 #@! TO.P,C15,2*
G04 #@! TO.N,TI_VREF*
X153100000Y-84650000D03*
G04 #@! TD*
D34*
G04 #@! TO.P,C2,1*
G04 #@! TO.N,TI_VREF*
X136400000Y-89500000D03*
G04 #@! TO.P,C2,2*
G04 #@! TO.N,TI_AGND*
X134500000Y-89500000D03*
G04 #@! TD*
D35*
G04 #@! TO.P,C1,1*
G04 #@! TO.N,+BATT*
X143725000Y-94200000D03*
G04 #@! TO.P,C1,2*
G04 #@! TO.N,-BATT*
X140775000Y-94200000D03*
G04 #@! TD*
D36*
G04 #@! TO.N,+BATT*
X135500000Y-94300000D03*
X141500000Y-82050000D03*
X131446446Y-85196446D03*
G04 #@! TO.N,TI_AGND*
X141746088Y-92560334D03*
X148050000Y-91550000D03*
X153100000Y-82000000D03*
X132950000Y-89050000D03*
X143829103Y-83630224D03*
X152178554Y-84099000D03*
X150800000Y-83400000D03*
X145200000Y-87650000D03*
X132850000Y-87200000D03*
X148000000Y-77650000D03*
G04 #@! TO.N,TI_VREF*
X142393614Y-88799279D03*
X143200000Y-82750000D03*
X153100000Y-84000000D03*
X151450000Y-93600000D03*
X134450000Y-83900000D03*
G04 #@! TO.N,I-LIMIT*
X142550000Y-84399998D03*
X132850000Y-88350000D03*
G04 #@! TO.N,TI_AVDD*
X142055022Y-83905023D03*
X130600000Y-85700000D03*
G04 #@! TO.N,Reset*
X146050000Y-88450000D03*
G04 #@! TO.N,SOA*
X146650000Y-87950000D03*
G04 #@! TO.N,SOB*
X146155099Y-87454948D03*
G04 #@! TO.N,SOC*
X148999991Y-84103030D03*
X144250000Y-89000000D03*
G04 #@! TO.N,BOOT0*
X148799995Y-91600000D03*
G04 #@! TO.N,TIM1_CH1N*
X132250000Y-92286454D03*
X149799995Y-84800000D03*
G04 #@! TO.N,TIM1_CH1*
X132842186Y-91857815D03*
X153450000Y-86950000D03*
G04 #@! TO.N,TI_FAULT*
X146650000Y-88950000D03*
X132500000Y-90100000D03*
G04 #@! TO.N,TIM1_CH3*
X153450000Y-87950000D03*
X138500000Y-94300000D03*
G04 #@! TO.N,TIM1_CH3N*
X145824293Y-89125707D03*
X138648055Y-92740948D03*
G04 #@! TO.N,TIM1_CH2N*
X147428554Y-84621446D03*
X132800000Y-93300000D03*
G04 #@! TO.N,TIM1_CH2*
X154000000Y-87450000D03*
X133499999Y-93108259D03*
G04 #@! TO.N,SDA1*
X147250000Y-79850000D03*
X153950000Y-90200000D03*
G04 #@! TO.N,NSS1*
X148299995Y-84100000D03*
X145450000Y-91801000D03*
G04 #@! TO.N,SCL1*
X148100000Y-82550000D03*
X154150000Y-89450000D03*
G04 #@! TO.N,ENAB_XL*
X147200000Y-83000000D03*
X151299995Y-92249995D03*
G04 #@! TO.N,SCK1*
X148799995Y-84800000D03*
X145700000Y-90800000D03*
G04 #@! TO.N,CAN_RX*
X153950000Y-88450000D03*
G04 #@! TO.N,ENAB_MAG*
X146659435Y-80225814D03*
X151799995Y-91649995D03*
G04 #@! TO.N,CAN_TX*
X153450000Y-88950000D03*
G04 #@! TO.N,-BATT*
X141500000Y-83200000D03*
G04 #@! TD*
D37*
G04 #@! TO.N,TI_AGND*
X135750000Y-92550000D02*
X135396447Y-92550000D01*
X135396447Y-92550000D02*
X134500000Y-91653553D01*
X134500000Y-91653553D02*
X134500000Y-89500000D01*
D38*
G04 #@! TO.N,-BATT*
X137150000Y-94164000D02*
X136364000Y-94164000D01*
X136364000Y-94164000D02*
X135750000Y-93550000D01*
X141500000Y-83200000D02*
X141199947Y-83200013D01*
X141199947Y-83200013D02*
X139599999Y-84799942D01*
X139599999Y-84799942D02*
X139599979Y-93025008D01*
X139599979Y-93025008D02*
X140900000Y-94325029D01*
X140900000Y-94325029D02*
X140900000Y-96150000D01*
D37*
X140849987Y-96750000D02*
X139025000Y-96750000D01*
X139025000Y-96750000D02*
X138825000Y-96550000D01*
D38*
X136500004Y-97449990D02*
X136250010Y-97199995D01*
X140900000Y-96750000D02*
X140200010Y-97449990D01*
X140200010Y-97449990D02*
X136500004Y-97449990D01*
X136548000Y-94164001D02*
X137150000Y-94164000D01*
X136250010Y-97199995D02*
X136249993Y-94461997D01*
X136249993Y-94461997D02*
X136548000Y-94164001D01*
D37*
G04 #@! TO.N,TI_AGND*
X143829103Y-83630224D02*
X143919768Y-83630207D01*
X143919768Y-83630207D02*
X145549975Y-82000000D01*
G04 #@! TO.N,TI_VREF*
X150350000Y-82350000D02*
X149401999Y-83298000D01*
X149401999Y-83298000D02*
X147967791Y-83297988D01*
X144873981Y-83675992D02*
X144873989Y-86577995D01*
X143050000Y-85975000D02*
X143050017Y-88142900D01*
X144750995Y-86700989D02*
X143299000Y-86700999D01*
X147967791Y-83297988D02*
X147765802Y-83500016D01*
X147765802Y-83500016D02*
X146400016Y-83500016D01*
X146400016Y-83500016D02*
X145900000Y-83000000D01*
X144873989Y-86577995D02*
X144750995Y-86700989D01*
X145500000Y-83049997D02*
X144873981Y-83675992D01*
X143299000Y-86700999D02*
X143050000Y-86451999D01*
X143050017Y-88142900D02*
X142393614Y-88799279D01*
X143050000Y-86451999D02*
X143050000Y-85975000D01*
G04 #@! TO.N,UART_TX*
X147189995Y-86950000D02*
X145600000Y-85360005D01*
X145600000Y-85360005D02*
X145600000Y-85000000D01*
G04 #@! TO.N,Net-(U4-SW)*
X134450000Y-93214000D02*
X134450000Y-92757108D01*
X134450000Y-92757108D02*
X132354332Y-90661440D01*
X132354332Y-90661440D02*
X131897459Y-90661440D01*
X135200000Y-91170000D02*
X135200000Y-86950000D01*
X135200000Y-86950000D02*
X133500000Y-85250000D01*
G04 #@! TO.N,TI_VREF*
X138000000Y-85250000D02*
X135800000Y-85250000D01*
X135800000Y-85250000D02*
X134450000Y-83900000D01*
G04 #@! TO.N,TI_AVDD*
X142042487Y-81793281D02*
X142042487Y-83892488D01*
X142042487Y-83892488D02*
X142055022Y-83905023D01*
G04 #@! TO.N,NSS1*
X148299995Y-84100000D02*
X148299995Y-85650000D01*
G04 #@! TO.N,TIM1_CH2N*
X150299995Y-85650000D02*
X150299995Y-84386065D01*
X150299995Y-84386065D02*
X149512926Y-83598996D01*
X149512926Y-83598996D02*
X148092473Y-83598999D01*
X147798977Y-84250998D02*
X147428554Y-84621446D01*
X148092473Y-83598999D02*
X147799015Y-83892487D01*
X147799015Y-83892487D02*
X147798977Y-84250998D01*
G04 #@! TO.N,NSS1*
X145450000Y-91801000D02*
X144901000Y-91801000D01*
X144901000Y-91801000D02*
X144350000Y-91250000D01*
G04 #@! TO.N,SCK1*
X143700500Y-90199500D02*
X143700999Y-90198998D01*
X143701707Y-90199000D02*
X143700999Y-90198998D01*
X143700000Y-90200707D02*
X143700001Y-90200000D01*
X143700500Y-90199500D02*
X143700001Y-90200000D01*
G04 #@! TO.N,ENAB_XL*
X147437000Y-82234268D02*
X147623990Y-82047264D01*
G04 #@! TO.N,MISO1*
X143050000Y-92051999D02*
X143599000Y-92600999D01*
G04 #@! TO.N,SOB*
X146163545Y-87450000D02*
X146160039Y-87449982D01*
G04 #@! TO.N,TI_AVDD*
X141798190Y-81549006D02*
X142042487Y-81793281D01*
G04 #@! TO.N,TI_VREF*
X142400000Y-88788377D02*
X142399994Y-88792890D01*
X142396807Y-88796086D02*
X142399994Y-88792890D01*
X149824985Y-81825005D02*
X149825000Y-81325001D01*
X143150000Y-82835355D02*
X143149753Y-82822723D01*
X143146761Y-82810447D02*
X143149753Y-82822723D01*
G04 #@! TO.N,TI_AGND*
X141748044Y-92301956D02*
X141746098Y-92303916D01*
X141746088Y-92306678D02*
X141746098Y-92303916D01*
X151100000Y-80525000D02*
X151100000Y-80824999D01*
X151100000Y-80525000D02*
X151100001Y-80825000D01*
X141750000Y-92297233D02*
X141750003Y-92300001D01*
X141748044Y-92301956D02*
X141750003Y-92300001D01*
X152199993Y-85649983D02*
X151799999Y-85650003D01*
D38*
G04 #@! TO.N,+BATT*
X140955180Y-99325995D02*
X142273992Y-99325984D01*
X131446433Y-92867105D02*
X131446446Y-85196446D01*
X135363994Y-94164014D02*
X134450000Y-94164001D01*
X134266000Y-95114000D02*
X134082000Y-95114000D01*
X143725000Y-97031250D02*
X143724986Y-97874994D01*
X143725000Y-96281250D02*
X143725000Y-96000000D01*
X139929180Y-98299995D02*
X140955180Y-99325995D01*
X135500000Y-94300000D02*
X135363994Y-94164014D01*
X142273992Y-99325984D02*
X143724986Y-97874994D01*
X133693351Y-95113988D02*
X134266000Y-95114000D01*
X143725000Y-95250000D02*
X143725000Y-96000000D01*
X131446433Y-92867105D02*
X133693351Y-95113988D01*
X143725000Y-95250000D02*
X143725000Y-94200000D01*
X139929180Y-98299995D02*
X136500058Y-98299999D01*
X134449993Y-96249944D02*
X136500058Y-98299999D01*
X134449993Y-96249944D02*
X134450000Y-94164001D01*
D37*
G04 #@! TO.N,TI_AGND*
X151100000Y-80824999D02*
X150687500Y-80825000D01*
X152600000Y-84699263D02*
X152600000Y-84779104D01*
X143829103Y-83630224D02*
X143829101Y-84220896D01*
X151799999Y-85650003D02*
X151799995Y-86450000D01*
X151100000Y-80824999D02*
X151700000Y-80825000D01*
X148299995Y-90015624D02*
X148299995Y-89950000D01*
X148299995Y-91110952D02*
X148299982Y-91299999D01*
X150153125Y-80825000D02*
X150462500Y-80825000D01*
X148299995Y-90212498D02*
X148299995Y-90146873D01*
X143700000Y-85650000D02*
X143700000Y-84450000D01*
X141746088Y-92306678D02*
X141746088Y-92560334D01*
X153100000Y-82000000D02*
X151625003Y-80524991D01*
X150799995Y-85650000D02*
X150799995Y-84150005D01*
X152600000Y-84350000D02*
X152375004Y-84124992D01*
X150153125Y-80825000D02*
X150059375Y-80825000D01*
X148299995Y-91086394D02*
X148299995Y-91110952D01*
X152600000Y-84350000D02*
X152600000Y-84566421D01*
X151100000Y-80525000D02*
X151625003Y-80524991D01*
X148299995Y-90015624D02*
X148299995Y-90146873D01*
X150800000Y-83400000D02*
X150849981Y-83450008D01*
X150687500Y-80825000D02*
X150462500Y-80825000D01*
X148299995Y-90212498D02*
X148299995Y-90474996D01*
X152600000Y-84862682D02*
X152600000Y-84946262D01*
X152600000Y-84779104D02*
X152600000Y-84820893D01*
X149199998Y-78850000D02*
X149200000Y-80200000D01*
X148050000Y-91550000D02*
X148299982Y-91299999D01*
X141750000Y-92297233D02*
X141750000Y-91250000D01*
X150059375Y-80825000D02*
X149965625Y-80825000D01*
X150849981Y-83450008D02*
X150850000Y-84100000D01*
X152204548Y-84125017D02*
X152375004Y-84124992D01*
X143829101Y-84220896D02*
X143650000Y-84400000D01*
X152600000Y-84820893D02*
X152600000Y-84862682D01*
X147225000Y-91575000D02*
X147200000Y-92250000D01*
X132850000Y-87200000D02*
X134500005Y-88849998D01*
X148050000Y-91550000D02*
X147225000Y-91575000D01*
X152599970Y-85249987D02*
X152199993Y-85649983D01*
X152600000Y-84566421D02*
X152600000Y-84699263D01*
X152204548Y-84125017D02*
X152178554Y-84099000D01*
X152599970Y-85249987D02*
X152600000Y-84946262D01*
X149199998Y-78850000D02*
X148000000Y-77650000D01*
X134500005Y-88849998D02*
X134500000Y-89500000D01*
G04 #@! TO.N,TI_VREF*
X146700000Y-91600000D02*
X146700000Y-92006250D01*
X153099989Y-85949990D02*
X152599995Y-86450000D01*
X151550000Y-81325000D02*
X151587500Y-81325000D01*
X146700000Y-92006250D02*
X146700000Y-92168750D01*
X138799929Y-86049942D02*
X138012576Y-85262576D01*
X146700002Y-90749995D02*
X147499995Y-89950000D01*
X153099989Y-85949990D02*
X153100000Y-85556248D01*
X151250000Y-81325000D02*
X151550000Y-81325000D01*
X151250000Y-81325000D02*
X151100000Y-81325000D01*
X151299995Y-85650000D02*
X151299995Y-84150005D01*
X147180000Y-89950000D02*
X145941472Y-89950016D01*
X150153125Y-81325000D02*
X150296875Y-81325000D01*
X153100000Y-85249999D02*
X153100000Y-84775000D01*
X153100000Y-84400000D02*
X153100000Y-84525000D01*
X151450001Y-82349995D02*
X152800000Y-83700000D01*
X143200000Y-82750000D02*
X143199998Y-82757207D01*
X153100000Y-85443751D02*
X153100000Y-85475003D01*
X142742895Y-88450004D02*
X142393614Y-88799279D01*
X153100000Y-84650000D02*
X153100000Y-84775000D01*
X151100000Y-81325000D02*
X150950000Y-81325000D01*
X150350000Y-82350000D02*
X151450001Y-82349995D01*
X144441481Y-88449993D02*
X145941472Y-89950016D01*
X151851007Y-83599017D02*
X152699004Y-83598988D01*
X138799927Y-89200057D02*
X138300000Y-89700000D01*
X153100000Y-85331249D02*
X153100000Y-85443751D01*
X151700000Y-82600000D02*
X153100000Y-84000000D01*
X153100000Y-84525000D02*
X153100000Y-84650000D01*
X146700000Y-92168750D02*
X146700000Y-92250000D01*
X150500000Y-81325000D02*
X150409375Y-81325000D01*
X150121875Y-81325000D02*
X150090625Y-81325000D01*
X138799929Y-86049942D02*
X138799927Y-89200057D01*
X144441481Y-88449993D02*
X142742895Y-88450004D01*
X153100000Y-85249999D02*
X153100000Y-85331249D01*
X150353125Y-81325000D02*
X150296875Y-81325000D01*
X150121875Y-81325000D02*
X150153125Y-81325000D01*
X150737500Y-81325000D02*
X150950000Y-81325000D01*
X142400000Y-85650001D02*
X142400000Y-88788377D01*
X151662500Y-81325000D02*
X151587500Y-81325000D01*
X151700000Y-81325000D02*
X151700000Y-82600000D01*
X150737500Y-81325000D02*
X150500000Y-81325000D01*
X151851007Y-83599017D02*
X151350000Y-84100000D01*
X150350000Y-82350000D02*
X149824985Y-81825005D01*
X143146761Y-82810447D02*
X143199998Y-82757207D01*
X149825000Y-81325001D02*
X150090625Y-81325000D01*
X143150000Y-82835355D02*
X143150000Y-85550000D01*
X142396807Y-88796086D02*
X142393614Y-88799279D01*
X150409375Y-81325000D02*
X150353125Y-81325000D01*
X153100000Y-85556248D02*
X153100000Y-85475003D01*
X146700000Y-91375002D02*
X146700000Y-91600000D01*
X136400000Y-89500000D02*
X138100000Y-89500000D01*
X146700000Y-91375002D02*
X146700002Y-90749995D01*
X153100000Y-84400000D02*
X153100000Y-84131250D01*
G04 #@! TO.N,TI_AVDD*
X130900000Y-85399999D02*
X130600000Y-85700000D01*
X141292477Y-81548995D02*
X141798190Y-81549006D01*
X130900011Y-84262195D02*
X130900000Y-85399999D01*
X141292477Y-81548995D02*
X140841483Y-82000011D01*
X133162190Y-82000001D02*
X140841483Y-82000011D01*
X130900011Y-84262195D02*
X133162190Y-82000001D01*
G04 #@! TO.N,Net-(U4-SW)*
X131897459Y-90661440D02*
X131897463Y-86852561D01*
X131897463Y-86852561D02*
X133500000Y-85250000D01*
G04 #@! TO.N,Net-(U4-CB)*
X136130001Y-92193999D02*
X137150000Y-93214000D01*
X136130001Y-92193999D02*
X136130000Y-91200000D01*
G04 #@! TO.N,Net-(U6-C1)*
X148700000Y-79575000D02*
X148700000Y-80200000D01*
G04 #@! TO.N,Reset*
X146050000Y-88450000D02*
X147499995Y-88450000D01*
G04 #@! TO.N,Net-(U4-FB)*
X137075000Y-96450000D02*
X137075000Y-95189000D01*
G04 #@! TO.N,SOA*
X146650000Y-87950000D02*
X147499995Y-87950000D01*
G04 #@! TO.N,SOB*
X146163545Y-87450000D02*
X147499995Y-87450000D01*
X146160039Y-87449982D02*
X146155099Y-87454948D01*
G04 #@! TO.N,SOC*
X148999991Y-84103030D02*
X149300016Y-84403025D01*
X149300016Y-84403025D02*
X149299995Y-85650000D01*
G04 #@! TO.N,BOOT0*
X148799995Y-91600000D02*
X148799995Y-90750000D01*
G04 #@! TO.N,TIM1_CH1N*
X149799995Y-84800000D02*
X149799995Y-85650000D01*
G04 #@! TO.N,TIM1_CH1*
X153450000Y-86950000D02*
X152599995Y-86950000D01*
G04 #@! TO.N,TI_FAULT*
X146650000Y-88950000D02*
X147499995Y-88950000D01*
G04 #@! TO.N,TIM1_CH3*
X153450000Y-87950000D02*
X152599995Y-87950000D01*
G04 #@! TO.N,TIM1_CH3N*
X146148586Y-89449997D02*
X147499995Y-89450000D01*
X145824293Y-89125707D02*
X146148586Y-89449997D01*
G04 #@! TO.N,TIM1_CH2*
X154000000Y-87450000D02*
X152599995Y-87450000D01*
G04 #@! TO.N,UART_RX*
X146150001Y-84049995D02*
X147499993Y-85399996D01*
X146150001Y-84049995D02*
X145500000Y-84050000D01*
X147499993Y-85399996D02*
X147499995Y-86450000D01*
G04 #@! TO.N,MOSI1*
X148699994Y-92999986D02*
X142400001Y-92999999D01*
X150300004Y-91400008D02*
X148699994Y-92999986D01*
X150300004Y-91400008D02*
X150299995Y-90750000D01*
X142400001Y-92999999D02*
X142400000Y-91250000D01*
G04 #@! TO.N,SDA1*
X153699999Y-89950000D02*
X152599995Y-89950000D01*
X147725002Y-80324996D02*
X148075000Y-80325000D01*
X147725002Y-80324996D02*
X147250000Y-79850000D01*
X153699999Y-89950000D02*
X153950000Y-90200000D01*
G04 #@! TO.N,SCL1*
X154150000Y-89450000D02*
X152599995Y-89450000D01*
X148075000Y-82524999D02*
X148075000Y-81825000D01*
X148100000Y-82550000D02*
X148075000Y-82524999D01*
G04 #@! TO.N,MISO1*
X143050000Y-92051999D02*
X143050000Y-91250000D01*
X143599000Y-92600999D02*
X148507514Y-92600997D01*
X149800011Y-91308527D02*
X148507514Y-92600997D01*
X149800011Y-91308527D02*
X149799995Y-90750000D01*
G04 #@! TO.N,ENAB_XL*
X147200000Y-83000000D02*
X147249981Y-82949992D01*
X147624000Y-81484001D02*
X147623990Y-82047264D01*
X148075000Y-81483999D02*
X148075000Y-81325000D01*
X147249986Y-82421263D02*
X147437000Y-82234268D01*
X147249981Y-82949992D02*
X147249986Y-82421263D01*
X151299995Y-90750000D02*
X151299995Y-92050000D01*
X147624000Y-81484001D02*
X148075000Y-81483999D01*
G04 #@! TO.N,SCK1*
X148799995Y-84800000D02*
X148799995Y-85650000D01*
X143700000Y-90200707D02*
X143700000Y-91250000D01*
X145000000Y-90550000D02*
X144648998Y-90199003D01*
X145000000Y-90550000D02*
X145449995Y-90550010D01*
X145700000Y-90800000D02*
X145449995Y-90550010D01*
X144648998Y-90199003D02*
X143701707Y-90199000D01*
G04 #@! TO.N,CAN_RX*
X153950000Y-88450000D02*
X152599995Y-88450000D01*
G04 #@! TO.N,ENAB_MAG*
X151799995Y-91649995D02*
X151799995Y-90750000D01*
X147258627Y-80824984D02*
X148075000Y-80825000D01*
X146659435Y-80225814D02*
X147258627Y-80824984D01*
G04 #@! TO.N,CAN_TX*
X153450000Y-88950000D02*
X152599995Y-88950000D01*
G04 #@! TO.N,-BATT*
X141425000Y-98500000D02*
X141425000Y-96925000D01*
G04 #@! TO.N,Net-(U4-FB)*
X137900001Y-95114004D02*
X137150000Y-95114000D01*
X137900001Y-95114004D02*
X138000004Y-95014001D01*
X138000004Y-95014001D02*
X138000000Y-91900000D01*
G04 #@! TD*
M02*
