M48
; DRILL file {KiCad 9.0.4} date 2025-10-13T14:39:45-0400
; FORMAT={-:-/ absolute / metric / decimal}
; #@! TF.CreationDate,2025-10-13T14:39:45-04:00
; #@! TF.GenerationSoftware,Kicad,Pcbnew,9.0.4
; #@! TF.FileFunction,Plated,1,6,PTH
FMAT,2
METRIC
; #@! TA.AperFunction,Plated,PTH,ViaDrill
T1C0.300
; #@! TA.AperFunction,Plated,PTH,ComponentDrill
T2C0.500
; #@! TA.AperFunction,Plated,PTH,ComponentDrill
T3C1.000
; #@! TA.AperFunction,Plated,PTH,ComponentDrill
T4C2.200
%
G90
G05
T1
X130.6Y-85.7
X131.446Y-85.196
X132.25Y-92.286
X132.5Y-90.1
X132.8Y-93.3
X132.842Y-91.858
X132.85Y-87.2
X132.85Y-88.35
X132.95Y-89.05
X133.5Y-93.108
X134.45Y-83.9
X135.5Y-94.3
X138.5Y-94.3
X138.648Y-92.741
X141.5Y-82.05
X141.5Y-83.2
X141.746Y-92.56
X142.055Y-83.905
X142.394Y-88.799
X142.55Y-84.4
X143.2Y-82.75
X143.829Y-83.63
X144.25Y-89.0
X145.2Y-87.65
X145.45Y-91.801
X145.7Y-90.8
X145.824Y-89.126
X146.05Y-88.45
X146.155Y-87.455
X146.65Y-87.95
X146.65Y-88.95
X146.659Y-80.226
X147.2Y-83.0
X147.25Y-79.85
X147.429Y-84.621
X148.0Y-77.65
X148.05Y-91.55
X148.1Y-82.55
X148.3Y-84.1
X148.8Y-84.8
X148.8Y-91.6
X149.0Y-84.103
X149.8Y-84.8
X150.8Y-83.4
X151.3Y-92.25
X151.45Y-93.6
X151.8Y-91.65
X152.179Y-84.099
X153.1Y-82.0
X153.1Y-84.0
X153.45Y-86.95
X153.45Y-87.95
X153.45Y-88.95
X153.95Y-88.45
X153.95Y-90.2
X154.0Y-87.45
X154.15Y-89.45
T2
X145.6Y-82.0
X145.6Y-83.0
X145.6Y-84.0
X145.6Y-85.0
T3
X140.51Y-78.2
X140.9Y-96.75
X143.05Y-78.2
X143.4Y-96.75
X145.59Y-78.2
T4
X136.0Y-79.9
X148.85Y-96.3
M30
