G04 #@! TF.GenerationSoftware,KiCad,Pcbnew,9.0.4*
G04 #@! TF.CreationDate,2025-10-13T14:39:45-04:00*
G04 #@! TF.ProjectId,bldc motor controller,626c6463-206d-46f7-946f-7220636f6e74,rev?*
G04 #@! TF.SameCoordinates,Original*
G04 #@! TF.FileFunction,Copper,L2,Inr*
G04 #@! TF.FilePolarity,Positive*
%FSLAX46Y46*%
G04 Gerber Fmt 4.6, Leading zero omitted, Abs format (unit mm)*
G04 Created by KiCad (PCBNEW 9.0.4) date 2025-10-13 14:39:45*
%MOMM*%
%LPD*%
G01*
G04 APERTURE LIST*
G04 Aperture macros list*
%AMRoundRect*
0 Rectangle with rounded corners*
0 $1 Rounding radius*
0 $2 $3 $4 $5 $6 $7 $8 $9 X,Y pos of 4 corners*
0 Add a 4 corners polygon primitive as box body*
4,1,4,$2,$3,$4,$5,$6,$7,$8,$9,$2,$3,0*
0 Add four circle primitives for the rounded corners*
1,1,$1+$1,$2,$3*
1,1,$1+$1,$4,$5*
1,1,$1+$1,$6,$7*
1,1,$1+$1,$8,$9*
0 Add four rect primitives between the rounded corners*
20,1,$1+$1,$2,$3,$4,$5,0*
20,1,$1+$1,$4,$5,$6,$7,0*
20,1,$1+$1,$6,$7,$8,$9,0*
20,1,$1+$1,$8,$9,$2,$3,0*%
G04 Aperture macros list end*
G04 #@! TA.AperFunction,ComponentPad*
%ADD10R,0.850000X0.850000*%
G04 #@! TD*
G04 #@! TA.AperFunction,ComponentPad*
%ADD11C,0.850000*%
G04 #@! TD*
G04 #@! TA.AperFunction,ComponentPad*
%ADD12RoundRect,0.250000X-0.600000X-0.750000X0.600000X-0.750000X0.600000X0.750000X-0.600000X0.750000X0*%
G04 #@! TD*
G04 #@! TA.AperFunction,ComponentPad*
%ADD13O,1.700000X2.000000*%
G04 #@! TD*
G04 #@! TA.AperFunction,ComponentPad*
%ADD14R,1.700000X1.700000*%
G04 #@! TD*
G04 #@! TA.AperFunction,ComponentPad*
%ADD15C,1.700000*%
G04 #@! TD*
G04 #@! TA.AperFunction,ComponentPad*
%ADD16C,3.800000*%
G04 #@! TD*
G04 #@! TA.AperFunction,ViaPad*
%ADD17C,0.600000*%
G04 #@! TD*
G04 APERTURE END LIST*
D10*
G04 #@! TO.N,UART_TX*
G04 #@! TO.C,J1*
X145600000Y-85000000D03*
D11*
G04 #@! TO.N,UART_RX*
X145600000Y-84000000D03*
G04 #@! TO.N,TI_VREF*
X145600000Y-83000000D03*
G04 #@! TO.N,TI_AGND*
X145600000Y-82000000D03*
G04 #@! TD*
D12*
G04 #@! TO.N,-BATT*
G04 #@! TO.C,-BAT+1*
X140900000Y-96750000D03*
D13*
G04 #@! TO.N,+BATT*
X143400000Y-96750000D03*
G04 #@! TD*
D14*
G04 #@! TO.N,PHASE-A*
G04 #@! TO.C,U8*
X145590000Y-78200000D03*
D15*
G04 #@! TO.N,PHASE-B*
X143050000Y-78200000D03*
G04 #@! TO.N,PHASE-C*
X140510000Y-78200000D03*
G04 #@! TD*
D16*
G04 #@! TO.N,N/C*
G04 #@! TO.C,M2*
X136000000Y-79900000D03*
G04 #@! TD*
G04 #@! TO.N,N/C*
G04 #@! TO.C,M2*
X148850000Y-96300000D03*
G04 #@! TD*
D17*
G04 #@! TO.N,+BATT*
X135500000Y-94300000D03*
X141500000Y-82050000D03*
X131446446Y-85196446D03*
G04 #@! TO.N,TI_AGND*
X141746088Y-92560334D03*
X148050000Y-91550000D03*
X153100000Y-82000000D03*
X132950000Y-89050000D03*
X143829103Y-83630224D03*
X152178554Y-84099000D03*
X150800000Y-83400000D03*
X145200000Y-87650000D03*
X132850000Y-87200000D03*
X148000000Y-77650000D03*
G04 #@! TO.N,TI_VREF*
X142393614Y-88799279D03*
X143200000Y-82750000D03*
X153100000Y-84000000D03*
X151450000Y-93600000D03*
X134450000Y-83900000D03*
G04 #@! TO.N,I-LIMIT*
X142550000Y-84399998D03*
X132850000Y-88350000D03*
G04 #@! TO.N,TI_AVDD*
X142055022Y-83905023D03*
X130600000Y-85700000D03*
G04 #@! TO.N,Reset*
X146050000Y-88450000D03*
G04 #@! TO.N,SOA*
X146650000Y-87950000D03*
G04 #@! TO.N,SOB*
X146155099Y-87454948D03*
G04 #@! TO.N,SOC*
X148999991Y-84103030D03*
X144250000Y-89000000D03*
G04 #@! TO.N,BOOT0*
X148799995Y-91600000D03*
G04 #@! TO.N,TIM1_CH1N*
X132250000Y-92286454D03*
X149799995Y-84800000D03*
G04 #@! TO.N,TIM1_CH1*
X132842186Y-91857815D03*
X153450000Y-86950000D03*
G04 #@! TO.N,TI_FAULT*
X146650000Y-88950000D03*
X132500000Y-90100000D03*
G04 #@! TO.N,TIM1_CH3*
X153450000Y-87950000D03*
X138500000Y-94300000D03*
G04 #@! TO.N,TIM1_CH3N*
X145824293Y-89125707D03*
X138648055Y-92740948D03*
G04 #@! TO.N,TIM1_CH2N*
X147428554Y-84621446D03*
X132800000Y-93300000D03*
G04 #@! TO.N,TIM1_CH2*
X154000000Y-87450000D03*
X133499999Y-93108259D03*
G04 #@! TO.N,SDA1*
X147250000Y-79850000D03*
X153950000Y-90200000D03*
G04 #@! TO.N,NSS1*
X148299995Y-84100000D03*
X145450000Y-91801000D03*
G04 #@! TO.N,SCL1*
X148100000Y-82550000D03*
X154150000Y-89450000D03*
G04 #@! TO.N,ENAB_XL*
X147200000Y-83000000D03*
X151299995Y-92249995D03*
G04 #@! TO.N,SCK1*
X148799995Y-84800000D03*
X145700000Y-90800000D03*
G04 #@! TO.N,CAN_RX*
X153950000Y-88450000D03*
G04 #@! TO.N,ENAB_MAG*
X146659435Y-80225814D03*
X151799995Y-91649995D03*
G04 #@! TO.N,CAN_TX*
X153450000Y-88950000D03*
G04 #@! TO.N,-BATT*
X141500000Y-83200000D03*
G04 #@! TD*
G04 #@! TA.AperFunction,Conductor*
G04 #@! TO.N,-BATT*
G36*
X142854036Y-75505612D02*
G01*
X143547130Y-75544535D01*
X143554049Y-75545119D01*
X144243869Y-75622843D01*
X144250706Y-75623808D01*
X144935108Y-75740092D01*
X144941916Y-75741446D01*
X145618697Y-75895917D01*
X145625405Y-75897647D01*
X146292484Y-76089829D01*
X146299063Y-76091926D01*
X146954316Y-76321209D01*
X146960813Y-76323689D01*
X147602142Y-76589338D01*
X147608475Y-76592171D01*
X147753484Y-76662004D01*
X147805343Y-76708826D01*
X147823656Y-76776254D01*
X147802608Y-76842878D01*
X147748882Y-76887546D01*
X147747135Y-76888285D01*
X147620823Y-76940604D01*
X147620814Y-76940609D01*
X147489711Y-77028210D01*
X147489707Y-77028213D01*
X147378213Y-77139707D01*
X147378210Y-77139711D01*
X147290609Y-77270814D01*
X147290602Y-77270827D01*
X147230264Y-77416498D01*
X147230261Y-77416510D01*
X147199500Y-77571153D01*
X147199500Y-77728846D01*
X147230261Y-77883489D01*
X147230264Y-77883501D01*
X147290602Y-78029172D01*
X147290609Y-78029185D01*
X147378210Y-78160288D01*
X147378213Y-78160292D01*
X147489707Y-78271786D01*
X147489711Y-78271789D01*
X147620814Y-78359390D01*
X147620827Y-78359397D01*
X147766498Y-78419735D01*
X147766503Y-78419737D01*
X147907298Y-78447743D01*
X147921153Y-78450499D01*
X147921156Y-78450500D01*
X147921158Y-78450500D01*
X148078844Y-78450500D01*
X148078845Y-78450499D01*
X148233497Y-78419737D01*
X148379179Y-78359394D01*
X148510289Y-78271789D01*
X148621789Y-78160289D01*
X148709394Y-78029179D01*
X148769737Y-77883497D01*
X148800500Y-77728842D01*
X148800500Y-77571158D01*
X148800500Y-77571155D01*
X148772854Y-77432172D01*
X148779081Y-77362580D01*
X148821944Y-77307403D01*
X148887834Y-77284158D01*
X148955831Y-77300226D01*
X148960418Y-77302971D01*
X149441403Y-77605194D01*
X149447180Y-77609054D01*
X150013344Y-78010768D01*
X150018868Y-78014925D01*
X150561614Y-78447751D01*
X150566908Y-78452222D01*
X150801259Y-78661650D01*
X151084532Y-78914798D01*
X151089586Y-78919577D01*
X151580422Y-79410413D01*
X151585201Y-79415467D01*
X152043982Y-79928844D01*
X152047769Y-79933081D01*
X152052251Y-79938389D01*
X152485069Y-80481125D01*
X152489235Y-80486661D01*
X152725808Y-80820079D01*
X152890941Y-81052813D01*
X152894793Y-81058577D01*
X152896411Y-81061151D01*
X152915423Y-81128384D01*
X152895068Y-81195223D01*
X152841808Y-81240447D01*
X152838882Y-81241703D01*
X152720824Y-81290604D01*
X152720814Y-81290609D01*
X152589711Y-81378210D01*
X152589707Y-81378213D01*
X152478213Y-81489707D01*
X152478210Y-81489711D01*
X152390609Y-81620814D01*
X152390602Y-81620827D01*
X152330264Y-81766498D01*
X152330261Y-81766510D01*
X152299500Y-81921153D01*
X152299500Y-82078846D01*
X152330261Y-82233489D01*
X152330264Y-82233501D01*
X152390602Y-82379172D01*
X152390609Y-82379185D01*
X152478210Y-82510288D01*
X152478213Y-82510292D01*
X152589707Y-82621786D01*
X152589711Y-82621789D01*
X152720814Y-82709390D01*
X152720827Y-82709397D01*
X152866498Y-82769735D01*
X152866503Y-82769737D01*
X153021153Y-82800499D01*
X153021156Y-82800500D01*
X153021158Y-82800500D01*
X153178844Y-82800500D01*
X153178845Y-82800499D01*
X153333497Y-82769737D01*
X153479179Y-82709394D01*
X153536411Y-82671153D01*
X153615354Y-82618405D01*
X153616366Y-82619920D01*
X153672788Y-82595945D01*
X153741657Y-82607722D01*
X153793227Y-82654864D01*
X153798887Y-82665306D01*
X153907824Y-82891516D01*
X153910665Y-82897865D01*
X154176309Y-83539185D01*
X154178790Y-83545683D01*
X154408065Y-84200912D01*
X154410176Y-84207537D01*
X154420182Y-84242267D01*
X154602348Y-84874581D01*
X154604085Y-84881316D01*
X154758551Y-85558076D01*
X154759908Y-85564898D01*
X154876187Y-86249266D01*
X154877159Y-86256154D01*
X154954879Y-86945947D01*
X154955464Y-86952874D01*
X154955464Y-86952876D01*
X154960801Y-87047897D01*
X154944907Y-87115935D01*
X154894752Y-87164579D01*
X154826260Y-87178385D01*
X154761176Y-87152970D01*
X154722435Y-87102304D01*
X154711444Y-87075770D01*
X154709394Y-87070821D01*
X154709392Y-87070818D01*
X154709390Y-87070814D01*
X154621789Y-86939711D01*
X154621786Y-86939707D01*
X154510292Y-86828213D01*
X154510288Y-86828210D01*
X154379185Y-86740609D01*
X154379176Y-86740604D01*
X154246219Y-86685532D01*
X154191816Y-86641691D01*
X154179114Y-86618430D01*
X154159394Y-86570821D01*
X154112407Y-86500500D01*
X154071789Y-86439710D01*
X153960292Y-86328213D01*
X153960288Y-86328210D01*
X153829185Y-86240609D01*
X153829172Y-86240602D01*
X153683501Y-86180264D01*
X153683489Y-86180261D01*
X153528845Y-86149500D01*
X153528842Y-86149500D01*
X153371158Y-86149500D01*
X153371155Y-86149500D01*
X153216510Y-86180261D01*
X153216498Y-86180264D01*
X153070827Y-86240602D01*
X153070814Y-86240609D01*
X152939711Y-86328210D01*
X152939707Y-86328213D01*
X152828213Y-86439707D01*
X152828210Y-86439711D01*
X152740609Y-86570814D01*
X152740602Y-86570827D01*
X152680264Y-86716498D01*
X152680261Y-86716510D01*
X152649500Y-86871153D01*
X152649500Y-87028846D01*
X152680261Y-87183489D01*
X152680264Y-87183501D01*
X152740602Y-87329172D01*
X152740609Y-87329185D01*
X152775304Y-87381109D01*
X152796182Y-87447786D01*
X152777698Y-87515167D01*
X152775304Y-87518891D01*
X152740609Y-87570814D01*
X152740602Y-87570827D01*
X152680264Y-87716498D01*
X152680261Y-87716510D01*
X152649500Y-87871153D01*
X152649500Y-88028846D01*
X152680261Y-88183489D01*
X152680264Y-88183501D01*
X152740602Y-88329172D01*
X152740609Y-88329185D01*
X152775304Y-88381109D01*
X152796182Y-88447786D01*
X152777698Y-88515167D01*
X152775304Y-88518891D01*
X152740609Y-88570814D01*
X152740602Y-88570827D01*
X152680264Y-88716498D01*
X152680261Y-88716510D01*
X152649500Y-88871153D01*
X152649500Y-89028846D01*
X152680261Y-89183489D01*
X152680264Y-89183501D01*
X152740602Y-89329172D01*
X152740609Y-89329185D01*
X152828210Y-89460288D01*
X152828213Y-89460292D01*
X152939707Y-89571786D01*
X152939711Y-89571789D01*
X153070814Y-89659390D01*
X153070818Y-89659392D01*
X153070821Y-89659394D01*
X153158256Y-89695610D01*
X153212656Y-89739449D01*
X153234722Y-89805743D01*
X153225362Y-89857622D01*
X153180264Y-89966498D01*
X153180261Y-89966510D01*
X153149500Y-90121153D01*
X153149500Y-90278846D01*
X153180261Y-90433489D01*
X153180264Y-90433501D01*
X153240602Y-90579172D01*
X153240609Y-90579185D01*
X153328210Y-90710288D01*
X153328213Y-90710292D01*
X153439707Y-90821786D01*
X153439711Y-90821789D01*
X153570814Y-90909390D01*
X153570827Y-90909397D01*
X153716498Y-90969735D01*
X153716503Y-90969737D01*
X153871153Y-91000499D01*
X153871156Y-91000500D01*
X153871158Y-91000500D01*
X154028844Y-91000500D01*
X154028845Y-91000499D01*
X154183497Y-90969737D01*
X154329179Y-90909394D01*
X154450789Y-90828136D01*
X154473527Y-90821016D01*
X154494558Y-90809810D01*
X154506261Y-90810767D01*
X154517465Y-90807259D01*
X154540443Y-90813562D01*
X154564195Y-90815505D01*
X154573522Y-90822636D01*
X154584845Y-90825743D01*
X154600769Y-90843470D01*
X154619699Y-90857945D01*
X154623689Y-90868987D01*
X154631536Y-90877722D01*
X154635347Y-90901244D01*
X154643447Y-90923655D01*
X154641948Y-90941979D01*
X154642712Y-90946692D01*
X154640570Y-90958832D01*
X154604085Y-91118683D01*
X154602348Y-91125418D01*
X154410177Y-91792460D01*
X154408065Y-91799087D01*
X154178790Y-92454316D01*
X154176309Y-92460814D01*
X153910665Y-93102134D01*
X153907824Y-93108483D01*
X153606636Y-93733907D01*
X153603444Y-93740086D01*
X153267659Y-94347642D01*
X153264125Y-94353633D01*
X152894805Y-94941403D01*
X152890941Y-94947186D01*
X152489244Y-95513327D01*
X152485061Y-95518885D01*
X152052256Y-96061604D01*
X152047769Y-96066918D01*
X151585201Y-96584532D01*
X151580422Y-96589586D01*
X151439531Y-96730477D01*
X151378208Y-96763962D01*
X151308516Y-96758978D01*
X151252583Y-96717106D01*
X151228166Y-96651642D01*
X151228630Y-96628912D01*
X151243863Y-96493713D01*
X151250500Y-96434809D01*
X151250500Y-96165191D01*
X151220312Y-95897268D01*
X151160316Y-95634409D01*
X151071267Y-95379921D01*
X150954284Y-95137003D01*
X150810838Y-94908711D01*
X150642734Y-94697915D01*
X150452085Y-94507266D01*
X150241289Y-94339162D01*
X150012997Y-94195716D01*
X150012994Y-94195714D01*
X149770082Y-94078734D01*
X149515602Y-93989687D01*
X149515594Y-93989684D01*
X149318446Y-93944687D01*
X149252732Y-93929688D01*
X149252728Y-93929687D01*
X149252719Y-93929686D01*
X148984813Y-93899500D01*
X148984809Y-93899500D01*
X148715191Y-93899500D01*
X148715186Y-93899500D01*
X148447280Y-93929686D01*
X148447268Y-93929688D01*
X148184405Y-93989684D01*
X148184397Y-93989687D01*
X147929917Y-94078734D01*
X147687005Y-94195714D01*
X147458712Y-94339161D01*
X147247915Y-94507265D01*
X147057265Y-94697915D01*
X146889161Y-94908712D01*
X146745714Y-95137005D01*
X146628734Y-95379917D01*
X146539687Y-95634397D01*
X146539684Y-95634405D01*
X146479688Y-95897268D01*
X146479686Y-95897280D01*
X146449500Y-96165186D01*
X146449500Y-96434813D01*
X146479686Y-96702719D01*
X146479688Y-96702731D01*
X146539684Y-96965594D01*
X146539687Y-96965602D01*
X146628734Y-97220082D01*
X146745714Y-97462994D01*
X146745716Y-97462997D01*
X146889162Y-97691289D01*
X147057266Y-97902085D01*
X147247915Y-98092734D01*
X147458711Y-98260838D01*
X147687003Y-98404284D01*
X147929921Y-98521267D01*
X148121049Y-98588145D01*
X148184397Y-98610312D01*
X148184405Y-98610315D01*
X148184408Y-98610315D01*
X148184409Y-98610316D01*
X148447268Y-98670312D01*
X148447276Y-98670312D01*
X148447281Y-98670314D01*
X148539551Y-98680710D01*
X148603965Y-98707776D01*
X148643520Y-98765371D01*
X148645658Y-98835208D01*
X148609700Y-98895114D01*
X148585649Y-98912458D01*
X148240086Y-99103444D01*
X148233907Y-99106636D01*
X147608483Y-99407824D01*
X147602134Y-99410665D01*
X146960814Y-99676309D01*
X146954316Y-99678790D01*
X146299087Y-99908065D01*
X146292460Y-99910177D01*
X145625418Y-100102348D01*
X145618683Y-100104085D01*
X144941923Y-100258551D01*
X144935101Y-100259908D01*
X144250733Y-100376187D01*
X144243845Y-100377159D01*
X143554052Y-100454879D01*
X143547122Y-100455464D01*
X142854036Y-100494388D01*
X142847083Y-100494583D01*
X142152917Y-100494583D01*
X142145964Y-100494388D01*
X141452877Y-100455464D01*
X141445947Y-100454879D01*
X140756154Y-100377159D01*
X140749266Y-100376187D01*
X140064898Y-100259908D01*
X140058076Y-100258551D01*
X139381316Y-100104085D01*
X139374581Y-100102348D01*
X138707539Y-99910177D01*
X138700912Y-99908065D01*
X138045683Y-99678790D01*
X138039185Y-99676309D01*
X137397865Y-99410665D01*
X137391516Y-99407824D01*
X136766092Y-99106636D01*
X136759913Y-99103444D01*
X136152357Y-98767659D01*
X136146366Y-98764125D01*
X135558596Y-98394805D01*
X135552813Y-98390941D01*
X135215429Y-98151555D01*
X134986661Y-97989235D01*
X134981125Y-97985069D01*
X134438389Y-97552251D01*
X134433081Y-97547769D01*
X134288330Y-97418412D01*
X133915467Y-97085201D01*
X133910413Y-97080422D01*
X133419577Y-96589586D01*
X133414799Y-96584533D01*
X133403124Y-96571469D01*
X133403123Y-96571468D01*
X133333637Y-96493713D01*
X142049500Y-96493713D01*
X142049500Y-97006287D01*
X142082754Y-97216243D01*
X142084001Y-97220082D01*
X142148444Y-97418414D01*
X142244951Y-97607820D01*
X142369890Y-97779786D01*
X142520213Y-97930109D01*
X142692179Y-98055048D01*
X142692181Y-98055049D01*
X142692184Y-98055051D01*
X142881588Y-98151557D01*
X143083757Y-98217246D01*
X143293713Y-98250500D01*
X143293714Y-98250500D01*
X143506286Y-98250500D01*
X143506287Y-98250500D01*
X143716243Y-98217246D01*
X143918412Y-98151557D01*
X144107816Y-98055051D01*
X144129789Y-98039086D01*
X144279786Y-97930109D01*
X144279788Y-97930106D01*
X144279792Y-97930104D01*
X144430104Y-97779792D01*
X144430106Y-97779788D01*
X144430109Y-97779786D01*
X144555048Y-97607820D01*
X144555047Y-97607820D01*
X144555051Y-97607816D01*
X144651557Y-97418412D01*
X144717246Y-97216243D01*
X144750500Y-97006287D01*
X144750500Y-96493713D01*
X144717246Y-96283757D01*
X144651557Y-96081588D01*
X144555051Y-95892184D01*
X144555049Y-95892181D01*
X144555048Y-95892179D01*
X144430109Y-95720213D01*
X144279786Y-95569890D01*
X144107820Y-95444951D01*
X143918414Y-95348444D01*
X143918413Y-95348443D01*
X143918412Y-95348443D01*
X143716243Y-95282754D01*
X143716241Y-95282753D01*
X143716240Y-95282753D01*
X143554957Y-95257208D01*
X143506287Y-95249500D01*
X143293713Y-95249500D01*
X143245042Y-95257208D01*
X143083760Y-95282753D01*
X142881585Y-95348444D01*
X142692179Y-95444951D01*
X142520213Y-95569890D01*
X142369890Y-95720213D01*
X142244951Y-95892179D01*
X142148444Y-96081585D01*
X142082753Y-96283760D01*
X142058829Y-96434811D01*
X142049500Y-96493713D01*
X133333637Y-96493713D01*
X133280999Y-96434811D01*
X132952222Y-96066908D01*
X132947743Y-96061604D01*
X132816699Y-95897280D01*
X132514925Y-95518868D01*
X132510768Y-95513344D01*
X132109054Y-94947180D01*
X132105194Y-94941403D01*
X132084652Y-94908711D01*
X131979295Y-94741036D01*
X131735874Y-94353633D01*
X131732340Y-94347642D01*
X131662432Y-94221153D01*
X134699500Y-94221153D01*
X134699500Y-94378846D01*
X134730261Y-94533489D01*
X134730264Y-94533501D01*
X134790602Y-94679172D01*
X134790609Y-94679185D01*
X134878210Y-94810288D01*
X134878213Y-94810292D01*
X134989707Y-94921786D01*
X134989711Y-94921789D01*
X135120814Y-95009390D01*
X135120827Y-95009397D01*
X135266498Y-95069735D01*
X135266503Y-95069737D01*
X135421153Y-95100499D01*
X135421156Y-95100500D01*
X135421158Y-95100500D01*
X135578844Y-95100500D01*
X135578845Y-95100499D01*
X135733497Y-95069737D01*
X135879179Y-95009394D01*
X136010289Y-94921789D01*
X136121789Y-94810289D01*
X136209394Y-94679179D01*
X136269737Y-94533497D01*
X136300500Y-94378842D01*
X136300500Y-94221158D01*
X136300500Y-94221155D01*
X136300499Y-94221153D01*
X137699500Y-94221153D01*
X137699500Y-94378846D01*
X137730261Y-94533489D01*
X137730264Y-94533501D01*
X137790602Y-94679172D01*
X137790609Y-94679185D01*
X137878210Y-94810288D01*
X137878213Y-94810292D01*
X137989707Y-94921786D01*
X137989711Y-94921789D01*
X138120814Y-95009390D01*
X138120827Y-95009397D01*
X138266498Y-95069735D01*
X138266503Y-95069737D01*
X138421153Y-95100499D01*
X138421156Y-95100500D01*
X138421158Y-95100500D01*
X138578844Y-95100500D01*
X138578845Y-95100499D01*
X138733497Y-95069737D01*
X138879179Y-95009394D01*
X139010289Y-94921789D01*
X139121789Y-94810289D01*
X139209394Y-94679179D01*
X139269737Y-94533497D01*
X139300500Y-94378842D01*
X139300500Y-94221158D01*
X139300500Y-94221155D01*
X139300499Y-94221153D01*
X139278447Y-94110292D01*
X139269737Y-94066503D01*
X139246082Y-94009394D01*
X139209397Y-93920827D01*
X139209390Y-93920814D01*
X139121789Y-93789711D01*
X139121786Y-93789707D01*
X139010292Y-93678213D01*
X139010288Y-93678210D01*
X138999140Y-93670761D01*
X138954335Y-93617148D01*
X138945628Y-93547823D01*
X138975783Y-93484796D01*
X139020585Y-93453096D01*
X139027234Y-93450342D01*
X139158344Y-93362737D01*
X139269844Y-93251237D01*
X139357449Y-93120127D01*
X139417792Y-92974445D01*
X139448555Y-92819790D01*
X139448555Y-92662106D01*
X139448555Y-92662103D01*
X139448554Y-92662101D01*
X139417793Y-92507453D01*
X139417792Y-92507451D01*
X139407038Y-92481487D01*
X140945588Y-92481487D01*
X140945588Y-92639180D01*
X140976349Y-92793823D01*
X140976352Y-92793835D01*
X141036690Y-92939506D01*
X141036697Y-92939519D01*
X141124298Y-93070622D01*
X141124301Y-93070626D01*
X141235795Y-93182120D01*
X141235799Y-93182123D01*
X141366902Y-93269724D01*
X141366915Y-93269731D01*
X141512586Y-93330069D01*
X141512591Y-93330071D01*
X141667241Y-93360833D01*
X141667244Y-93360834D01*
X141667246Y-93360834D01*
X141824932Y-93360834D01*
X141824933Y-93360833D01*
X141979585Y-93330071D01*
X142125267Y-93269728D01*
X142256377Y-93182123D01*
X142367877Y-93070623D01*
X142455482Y-92939513D01*
X142515825Y-92793831D01*
X142546588Y-92639176D01*
X142546588Y-92481492D01*
X142546588Y-92481489D01*
X142546587Y-92481487D01*
X142534911Y-92422789D01*
X142515825Y-92326837D01*
X142509385Y-92311289D01*
X142455485Y-92181161D01*
X142455478Y-92181148D01*
X142367877Y-92050045D01*
X142367874Y-92050041D01*
X142256380Y-91938547D01*
X142256376Y-91938544D01*
X142125273Y-91850943D01*
X142125260Y-91850936D01*
X141979589Y-91790598D01*
X141979577Y-91790595D01*
X141824933Y-91759834D01*
X141824930Y-91759834D01*
X141667246Y-91759834D01*
X141667243Y-91759834D01*
X141512598Y-91790595D01*
X141512586Y-91790598D01*
X141366915Y-91850936D01*
X141366902Y-91850943D01*
X141235799Y-91938544D01*
X141235795Y-91938547D01*
X141124301Y-92050041D01*
X141124298Y-92050045D01*
X141036697Y-92181148D01*
X141036690Y-92181161D01*
X140976352Y-92326832D01*
X140976349Y-92326844D01*
X140945588Y-92481487D01*
X139407038Y-92481487D01*
X139357452Y-92361775D01*
X139357445Y-92361762D01*
X139269844Y-92230659D01*
X139269841Y-92230655D01*
X139158347Y-92119161D01*
X139158343Y-92119158D01*
X139027240Y-92031557D01*
X139027227Y-92031550D01*
X138881556Y-91971212D01*
X138881544Y-91971209D01*
X138726900Y-91940448D01*
X138726897Y-91940448D01*
X138569213Y-91940448D01*
X138569210Y-91940448D01*
X138414565Y-91971209D01*
X138414553Y-91971212D01*
X138268882Y-92031550D01*
X138268869Y-92031557D01*
X138137766Y-92119158D01*
X138137762Y-92119161D01*
X138026268Y-92230655D01*
X138026265Y-92230659D01*
X137938664Y-92361762D01*
X137938657Y-92361775D01*
X137878319Y-92507446D01*
X137878316Y-92507458D01*
X137847555Y-92662101D01*
X137847555Y-92819794D01*
X137878316Y-92974437D01*
X137878319Y-92974449D01*
X137938657Y-93120120D01*
X137938664Y-93120133D01*
X138026265Y-93251236D01*
X138026268Y-93251240D01*
X138137763Y-93362735D01*
X138148913Y-93370185D01*
X138193718Y-93423797D01*
X138202426Y-93493122D01*
X138172272Y-93556150D01*
X138127477Y-93587848D01*
X138120829Y-93590601D01*
X138120814Y-93590609D01*
X137989711Y-93678210D01*
X137989707Y-93678213D01*
X137878213Y-93789707D01*
X137878210Y-93789711D01*
X137790609Y-93920814D01*
X137790602Y-93920827D01*
X137730264Y-94066498D01*
X137730261Y-94066510D01*
X137699500Y-94221153D01*
X136300499Y-94221153D01*
X136278447Y-94110292D01*
X136269737Y-94066503D01*
X136246082Y-94009394D01*
X136209397Y-93920827D01*
X136209390Y-93920814D01*
X136121789Y-93789711D01*
X136121786Y-93789707D01*
X136010292Y-93678213D01*
X136010288Y-93678210D01*
X135879185Y-93590609D01*
X135879172Y-93590602D01*
X135733501Y-93530264D01*
X135733489Y-93530261D01*
X135578845Y-93499500D01*
X135578842Y-93499500D01*
X135421158Y-93499500D01*
X135421155Y-93499500D01*
X135266510Y-93530261D01*
X135266498Y-93530264D01*
X135120827Y-93590602D01*
X135120814Y-93590609D01*
X134989711Y-93678210D01*
X134989707Y-93678213D01*
X134878213Y-93789707D01*
X134878210Y-93789711D01*
X134790609Y-93920814D01*
X134790602Y-93920827D01*
X134730264Y-94066498D01*
X134730261Y-94066510D01*
X134699500Y-94221153D01*
X131662432Y-94221153D01*
X131496440Y-93920814D01*
X131396551Y-93740078D01*
X131393363Y-93733907D01*
X131367010Y-93679185D01*
X131092171Y-93108475D01*
X131089334Y-93102134D01*
X131084188Y-93089711D01*
X130823689Y-92460813D01*
X130821210Y-92454316D01*
X130753003Y-92259394D01*
X130734882Y-92207607D01*
X131449500Y-92207607D01*
X131449500Y-92365300D01*
X131480261Y-92519943D01*
X131480264Y-92519955D01*
X131540602Y-92665626D01*
X131540609Y-92665639D01*
X131628210Y-92796742D01*
X131628213Y-92796746D01*
X131739707Y-92908240D01*
X131739711Y-92908243D01*
X131870814Y-92995844D01*
X131870827Y-92995851D01*
X131937091Y-93023298D01*
X131991495Y-93067138D01*
X132013560Y-93133432D01*
X132011257Y-93162049D01*
X131999500Y-93221158D01*
X131999500Y-93378846D01*
X132030261Y-93533489D01*
X132030264Y-93533501D01*
X132090602Y-93679172D01*
X132090609Y-93679185D01*
X132178210Y-93810288D01*
X132178213Y-93810292D01*
X132289707Y-93921786D01*
X132289711Y-93921789D01*
X132420814Y-94009390D01*
X132420827Y-94009397D01*
X132558683Y-94066498D01*
X132566503Y-94069737D01*
X132721153Y-94100499D01*
X132721156Y-94100500D01*
X132721158Y-94100500D01*
X132878844Y-94100500D01*
X132878845Y-94100499D01*
X132889179Y-94098443D01*
X132914287Y-94093450D01*
X132914292Y-94093449D01*
X132999800Y-94076439D01*
X133033497Y-94069737D01*
X133179179Y-94009394D01*
X133308045Y-93923287D01*
X133374720Y-93902411D01*
X133401127Y-93904774D01*
X133406962Y-93905935D01*
X133421154Y-93908759D01*
X133421157Y-93908759D01*
X133578843Y-93908759D01*
X133578844Y-93908758D01*
X133733496Y-93877996D01*
X133879178Y-93817653D01*
X134010288Y-93730048D01*
X134121788Y-93618548D01*
X134209393Y-93487438D01*
X134269736Y-93341756D01*
X134300499Y-93187101D01*
X134300499Y-93029417D01*
X134300499Y-93029414D01*
X134300498Y-93029412D01*
X134293821Y-92995844D01*
X134269736Y-92874762D01*
X134268503Y-92871785D01*
X134209396Y-92729086D01*
X134209389Y-92729073D01*
X134121788Y-92597970D01*
X134121785Y-92597966D01*
X134010291Y-92486472D01*
X134010287Y-92486469D01*
X133879184Y-92398868D01*
X133879171Y-92398861D01*
X133733500Y-92338523D01*
X133733490Y-92338520D01*
X133674764Y-92326839D01*
X133612854Y-92294454D01*
X133578279Y-92233738D01*
X133582019Y-92163969D01*
X133584384Y-92157795D01*
X133611923Y-92091312D01*
X133642686Y-91936657D01*
X133642686Y-91778973D01*
X133642686Y-91778970D01*
X133642685Y-91778968D01*
X133622769Y-91678844D01*
X133611923Y-91624318D01*
X133611921Y-91624313D01*
X133551583Y-91478642D01*
X133551576Y-91478629D01*
X133463975Y-91347526D01*
X133463972Y-91347522D01*
X133352478Y-91236028D01*
X133352474Y-91236025D01*
X133221371Y-91148424D01*
X133221358Y-91148417D01*
X133075687Y-91088079D01*
X133075675Y-91088076D01*
X132921031Y-91057315D01*
X132921028Y-91057315D01*
X132904035Y-91057315D01*
X132836996Y-91037630D01*
X132791241Y-90984826D01*
X132781297Y-90915668D01*
X132810322Y-90852112D01*
X132856583Y-90818754D01*
X132879172Y-90809397D01*
X132879172Y-90809396D01*
X132879179Y-90809394D01*
X133010289Y-90721789D01*
X133121789Y-90610289D01*
X133209394Y-90479179D01*
X133269737Y-90333497D01*
X133300500Y-90178842D01*
X133300500Y-90021158D01*
X133300500Y-90021155D01*
X133274069Y-89888280D01*
X133280296Y-89818688D01*
X133323159Y-89763511D01*
X133326796Y-89760985D01*
X133329174Y-89759396D01*
X133329179Y-89759394D01*
X133460289Y-89671789D01*
X133571789Y-89560289D01*
X133659394Y-89429179D01*
X133719737Y-89283497D01*
X133750500Y-89128842D01*
X133750500Y-88971158D01*
X133750500Y-88971155D01*
X133750499Y-88971153D01*
X133731994Y-88878125D01*
X133719737Y-88816503D01*
X133679943Y-88720432D01*
X141593114Y-88720432D01*
X141593114Y-88878125D01*
X141623875Y-89032768D01*
X141623878Y-89032780D01*
X141684216Y-89178451D01*
X141684223Y-89178464D01*
X141771824Y-89309567D01*
X141771827Y-89309571D01*
X141883321Y-89421065D01*
X141883325Y-89421068D01*
X142014428Y-89508669D01*
X142014441Y-89508676D01*
X142139048Y-89560289D01*
X142160117Y-89569016D01*
X142314767Y-89599778D01*
X142314770Y-89599779D01*
X142314772Y-89599779D01*
X142472458Y-89599779D01*
X142472459Y-89599778D01*
X142627111Y-89569016D01*
X142739780Y-89522346D01*
X142772786Y-89508676D01*
X142772786Y-89508675D01*
X142772793Y-89508673D01*
X142903903Y-89421068D01*
X143015403Y-89309568D01*
X143103008Y-89178458D01*
X143163351Y-89032776D01*
X143181863Y-88939711D01*
X143185555Y-88921153D01*
X143449500Y-88921153D01*
X143449500Y-89078846D01*
X143480261Y-89233489D01*
X143480264Y-89233501D01*
X143540602Y-89379172D01*
X143540609Y-89379185D01*
X143628210Y-89510288D01*
X143628213Y-89510292D01*
X143739707Y-89621786D01*
X143739711Y-89621789D01*
X143870814Y-89709390D01*
X143870827Y-89709397D01*
X143999690Y-89762773D01*
X144016503Y-89769737D01*
X144149013Y-89796095D01*
X144171153Y-89800499D01*
X144171156Y-89800500D01*
X144171158Y-89800500D01*
X144328844Y-89800500D01*
X144328845Y-89800499D01*
X144483497Y-89769737D01*
X144601592Y-89720821D01*
X144629172Y-89709397D01*
X144629172Y-89709396D01*
X144629179Y-89709394D01*
X144760289Y-89621789D01*
X144871789Y-89510289D01*
X144894360Y-89476508D01*
X144947972Y-89431703D01*
X145017296Y-89422994D01*
X145080324Y-89453148D01*
X145112025Y-89497947D01*
X145114898Y-89504885D01*
X145114902Y-89504892D01*
X145202503Y-89635995D01*
X145202506Y-89635999D01*
X145314003Y-89747496D01*
X145440714Y-89832161D01*
X145485519Y-89885773D01*
X145494226Y-89955098D01*
X145464072Y-90018125D01*
X145419276Y-90049824D01*
X145320824Y-90090604D01*
X145320814Y-90090609D01*
X145189711Y-90178210D01*
X145189707Y-90178213D01*
X145078213Y-90289707D01*
X145078210Y-90289711D01*
X144990609Y-90420814D01*
X144990602Y-90420827D01*
X144930264Y-90566498D01*
X144930261Y-90566510D01*
X144899500Y-90721153D01*
X144899500Y-90878846D01*
X144930260Y-91033488D01*
X144930263Y-91033498D01*
X144944002Y-91066666D01*
X144951471Y-91136135D01*
X144920195Y-91198614D01*
X144917122Y-91201799D01*
X144828213Y-91290707D01*
X144828210Y-91290711D01*
X144740609Y-91421814D01*
X144740602Y-91421827D01*
X144680264Y-91567498D01*
X144680261Y-91567510D01*
X144649500Y-91722153D01*
X144649500Y-91879846D01*
X144680261Y-92034489D01*
X144680264Y-92034501D01*
X144740602Y-92180172D01*
X144740609Y-92180185D01*
X144828210Y-92311288D01*
X144828213Y-92311292D01*
X144939707Y-92422786D01*
X144939711Y-92422789D01*
X145070814Y-92510390D01*
X145070827Y-92510397D01*
X145216498Y-92570735D01*
X145216503Y-92570737D01*
X145353392Y-92597966D01*
X145371153Y-92601499D01*
X145371156Y-92601500D01*
X145371158Y-92601500D01*
X145528844Y-92601500D01*
X145528845Y-92601499D01*
X145683497Y-92570737D01*
X145806106Y-92519951D01*
X145829172Y-92510397D01*
X145829172Y-92510396D01*
X145829179Y-92510394D01*
X145960289Y-92422789D01*
X146071789Y-92311289D01*
X146159394Y-92180179D01*
X146162871Y-92171786D01*
X146184669Y-92119159D01*
X146219737Y-92034497D01*
X146250500Y-91879842D01*
X146250500Y-91722158D01*
X146250500Y-91722155D01*
X146250499Y-91722153D01*
X146231812Y-91628208D01*
X146219737Y-91567503D01*
X146219735Y-91567498D01*
X146205998Y-91534333D01*
X146203861Y-91514457D01*
X146196875Y-91495727D01*
X146200202Y-91480430D01*
X146199205Y-91471153D01*
X147249500Y-91471153D01*
X147249500Y-91628846D01*
X147280261Y-91783489D01*
X147280264Y-91783501D01*
X147340602Y-91929172D01*
X147340609Y-91929185D01*
X147428210Y-92060288D01*
X147428213Y-92060292D01*
X147539707Y-92171786D01*
X147539711Y-92171789D01*
X147670814Y-92259390D01*
X147670827Y-92259397D01*
X147816498Y-92319735D01*
X147816503Y-92319737D01*
X147971153Y-92350499D01*
X147971156Y-92350500D01*
X147971158Y-92350500D01*
X148128844Y-92350500D01*
X148128845Y-92350499D01*
X148283497Y-92319737D01*
X148317581Y-92305618D01*
X148387047Y-92298149D01*
X148414870Y-92307827D01*
X148415187Y-92307063D01*
X148547261Y-92361769D01*
X148566498Y-92369737D01*
X148721148Y-92400499D01*
X148721151Y-92400500D01*
X148721153Y-92400500D01*
X148878839Y-92400500D01*
X148878840Y-92400499D01*
X149033492Y-92369737D01*
X149174599Y-92311289D01*
X149179167Y-92309397D01*
X149179167Y-92309396D01*
X149179174Y-92309394D01*
X149310284Y-92221789D01*
X149360925Y-92171148D01*
X150499495Y-92171148D01*
X150499495Y-92328841D01*
X150530256Y-92483484D01*
X150530259Y-92483496D01*
X150590597Y-92629167D01*
X150590604Y-92629180D01*
X150678205Y-92760283D01*
X150678208Y-92760287D01*
X150789702Y-92871781D01*
X150789707Y-92871785D01*
X150817793Y-92890551D01*
X150862599Y-92944162D01*
X150871308Y-93013487D01*
X150841154Y-93076515D01*
X150836589Y-93081332D01*
X150828210Y-93089710D01*
X150828210Y-93089711D01*
X150740609Y-93220814D01*
X150740602Y-93220827D01*
X150680264Y-93366498D01*
X150680261Y-93366510D01*
X150649500Y-93521153D01*
X150649500Y-93678846D01*
X150680261Y-93833489D01*
X150680264Y-93833501D01*
X150740602Y-93979172D01*
X150740609Y-93979185D01*
X150828210Y-94110288D01*
X150828213Y-94110292D01*
X150939707Y-94221786D01*
X150939711Y-94221789D01*
X151070814Y-94309390D01*
X151070827Y-94309397D01*
X151170514Y-94350688D01*
X151216503Y-94369737D01*
X151371153Y-94400499D01*
X151371156Y-94400500D01*
X151371158Y-94400500D01*
X151528844Y-94400500D01*
X151528845Y-94400499D01*
X151683497Y-94369737D01*
X151829179Y-94309394D01*
X151960289Y-94221789D01*
X152071789Y-94110289D01*
X152159394Y-93979179D01*
X152219737Y-93833497D01*
X152250500Y-93678842D01*
X152250500Y-93521158D01*
X152250500Y-93521155D01*
X152250499Y-93521153D01*
X152236414Y-93450342D01*
X152219737Y-93366503D01*
X152217389Y-93360834D01*
X152159397Y-93220827D01*
X152159390Y-93220814D01*
X152071789Y-93089711D01*
X152071786Y-93089707D01*
X151960291Y-92978212D01*
X151948869Y-92970580D01*
X151932199Y-92959441D01*
X151887395Y-92905831D01*
X151878686Y-92836506D01*
X151908841Y-92773478D01*
X151913393Y-92768674D01*
X151921784Y-92760284D01*
X152009389Y-92629174D01*
X152069732Y-92483492D01*
X152073876Y-92462656D01*
X152106257Y-92400747D01*
X152148040Y-92372284D01*
X152179174Y-92359389D01*
X152310284Y-92271784D01*
X152421784Y-92160284D01*
X152509389Y-92029174D01*
X152569732Y-91883492D01*
X152600495Y-91728837D01*
X152600495Y-91571153D01*
X152600495Y-91571150D01*
X152600494Y-91571148D01*
X152589667Y-91516717D01*
X152569732Y-91416498D01*
X152562567Y-91399200D01*
X152509392Y-91270822D01*
X152509385Y-91270809D01*
X152421784Y-91139706D01*
X152421781Y-91139702D01*
X152310287Y-91028208D01*
X152310283Y-91028205D01*
X152179180Y-90940604D01*
X152179167Y-90940597D01*
X152033496Y-90880259D01*
X152033484Y-90880256D01*
X151878840Y-90849495D01*
X151878837Y-90849495D01*
X151721153Y-90849495D01*
X151721150Y-90849495D01*
X151566505Y-90880256D01*
X151566493Y-90880259D01*
X151420822Y-90940597D01*
X151420809Y-90940604D01*
X151289706Y-91028205D01*
X151289702Y-91028208D01*
X151178208Y-91139702D01*
X151178205Y-91139706D01*
X151090604Y-91270809D01*
X151090597Y-91270822D01*
X151030258Y-91416495D01*
X151030257Y-91416498D01*
X151026112Y-91437338D01*
X150993725Y-91499248D01*
X150951952Y-91527702D01*
X150920821Y-91540597D01*
X150920813Y-91540602D01*
X150789710Y-91628202D01*
X150789702Y-91628208D01*
X150678208Y-91739702D01*
X150678205Y-91739706D01*
X150590604Y-91870809D01*
X150590597Y-91870822D01*
X150530259Y-92016493D01*
X150530256Y-92016505D01*
X150499495Y-92171148D01*
X149360925Y-92171148D01*
X149421784Y-92110289D01*
X149509389Y-91979179D01*
X149512690Y-91971211D01*
X149530097Y-91929185D01*
X149569732Y-91833497D01*
X149600495Y-91678842D01*
X149600495Y-91521158D01*
X149600495Y-91521155D01*
X149600494Y-91521153D01*
X149586971Y-91453170D01*
X149569732Y-91366503D01*
X149561870Y-91347522D01*
X149509392Y-91220827D01*
X149509385Y-91220814D01*
X149421784Y-91089711D01*
X149421781Y-91089707D01*
X149310287Y-90978213D01*
X149310283Y-90978210D01*
X149179180Y-90890609D01*
X149179167Y-90890602D01*
X149033496Y-90830264D01*
X149033484Y-90830261D01*
X148878840Y-90799500D01*
X148878837Y-90799500D01*
X148721153Y-90799500D01*
X148721150Y-90799500D01*
X148566500Y-90830261D01*
X148566492Y-90830264D01*
X148532410Y-90844381D01*
X148462941Y-90851848D01*
X148435123Y-90842174D01*
X148434808Y-90842937D01*
X148283501Y-90780264D01*
X148283489Y-90780261D01*
X148128845Y-90749500D01*
X148128842Y-90749500D01*
X147971158Y-90749500D01*
X147971155Y-90749500D01*
X147816510Y-90780261D01*
X147816498Y-90780264D01*
X147670827Y-90840602D01*
X147670814Y-90840609D01*
X147539711Y-90928210D01*
X147539707Y-90928213D01*
X147428213Y-91039707D01*
X147428210Y-91039711D01*
X147340609Y-91170814D01*
X147340602Y-91170827D01*
X147280264Y-91316498D01*
X147280261Y-91316510D01*
X147249500Y-91471153D01*
X146199205Y-91471153D01*
X146198529Y-91464864D01*
X146207477Y-91446987D01*
X146211727Y-91427454D01*
X146228414Y-91405161D01*
X146229805Y-91402385D01*
X146232878Y-91399200D01*
X146321789Y-91310289D01*
X146409394Y-91179179D01*
X146412854Y-91170827D01*
X146434452Y-91118683D01*
X146469737Y-91033497D01*
X146500500Y-90878842D01*
X146500500Y-90721158D01*
X146500500Y-90721155D01*
X146500499Y-90721153D01*
X146478447Y-90610292D01*
X146469737Y-90566503D01*
X146433569Y-90479185D01*
X146409397Y-90420827D01*
X146409390Y-90420814D01*
X146321789Y-90289711D01*
X146321786Y-90289707D01*
X146210292Y-90178213D01*
X146210288Y-90178210D01*
X146083578Y-90093545D01*
X146038773Y-90039933D01*
X146030066Y-89970608D01*
X146060220Y-89907580D01*
X146105017Y-89875882D01*
X146203466Y-89835104D01*
X146203469Y-89835102D01*
X146203472Y-89835101D01*
X146255256Y-89800500D01*
X146339647Y-89744112D01*
X146340729Y-89745732D01*
X146396741Y-89721931D01*
X146435309Y-89723477D01*
X146465302Y-89729443D01*
X146571155Y-89750500D01*
X146571158Y-89750500D01*
X146728844Y-89750500D01*
X146728845Y-89750499D01*
X146883497Y-89719737D01*
X147029179Y-89659394D01*
X147160289Y-89571789D01*
X147271789Y-89460289D01*
X147359394Y-89329179D01*
X147367518Y-89309567D01*
X147399030Y-89233489D01*
X147419737Y-89183497D01*
X147450500Y-89028842D01*
X147450500Y-88871158D01*
X147450500Y-88871155D01*
X147450499Y-88871153D01*
X147441906Y-88827952D01*
X147419737Y-88716503D01*
X147400815Y-88670821D01*
X147359396Y-88570825D01*
X147359394Y-88570822D01*
X147359394Y-88570821D01*
X147324694Y-88518889D01*
X147303816Y-88452215D01*
X147322300Y-88384835D01*
X147324676Y-88381136D01*
X147359394Y-88329179D01*
X147419737Y-88183497D01*
X147450500Y-88028842D01*
X147450500Y-87871158D01*
X147450500Y-87871155D01*
X147450499Y-87871153D01*
X147431373Y-87775000D01*
X147419737Y-87716503D01*
X147397246Y-87662204D01*
X147359397Y-87570827D01*
X147359390Y-87570814D01*
X147271789Y-87439711D01*
X147271786Y-87439707D01*
X147160292Y-87328213D01*
X147160288Y-87328210D01*
X147029182Y-87240607D01*
X146960255Y-87212057D01*
X146905852Y-87168216D01*
X146893149Y-87144953D01*
X146864493Y-87075769D01*
X146833140Y-87028846D01*
X146776888Y-86944658D01*
X146665391Y-86833161D01*
X146665387Y-86833158D01*
X146534284Y-86745557D01*
X146534271Y-86745550D01*
X146388600Y-86685212D01*
X146388588Y-86685209D01*
X146233944Y-86654448D01*
X146233941Y-86654448D01*
X146076257Y-86654448D01*
X146076254Y-86654448D01*
X145921609Y-86685209D01*
X145921597Y-86685212D01*
X145775926Y-86745550D01*
X145775913Y-86745557D01*
X145644813Y-86833156D01*
X145644807Y-86833161D01*
X145608194Y-86869773D01*
X145546870Y-86903257D01*
X145477179Y-86898271D01*
X145473064Y-86896652D01*
X145433497Y-86880263D01*
X145433493Y-86880262D01*
X145433488Y-86880260D01*
X145278845Y-86849500D01*
X145278842Y-86849500D01*
X145121158Y-86849500D01*
X145121155Y-86849500D01*
X144966510Y-86880261D01*
X144966498Y-86880264D01*
X144820827Y-86940602D01*
X144820814Y-86940609D01*
X144689711Y-87028210D01*
X144689707Y-87028213D01*
X144578213Y-87139707D01*
X144578210Y-87139711D01*
X144490609Y-87270814D01*
X144490602Y-87270827D01*
X144430264Y-87416498D01*
X144430261Y-87416510D01*
X144399500Y-87571153D01*
X144399500Y-87728846D01*
X144430261Y-87883489D01*
X144430264Y-87883501D01*
X144492937Y-88034808D01*
X144490492Y-88035820D01*
X144502366Y-88093030D01*
X144477324Y-88158258D01*
X144420993Y-88199593D01*
X144354581Y-88204619D01*
X144328846Y-88199500D01*
X144328842Y-88199500D01*
X144171158Y-88199500D01*
X144171155Y-88199500D01*
X144016510Y-88230261D01*
X144016498Y-88230264D01*
X143870827Y-88290602D01*
X143870814Y-88290609D01*
X143739711Y-88378210D01*
X143739707Y-88378213D01*
X143628213Y-88489707D01*
X143628210Y-88489711D01*
X143540609Y-88620814D01*
X143540602Y-88620827D01*
X143480264Y-88766498D01*
X143480261Y-88766510D01*
X143449500Y-88921153D01*
X143185555Y-88921153D01*
X143191573Y-88890897D01*
X143191577Y-88890876D01*
X143194114Y-88878120D01*
X143194114Y-88720434D01*
X143194113Y-88720432D01*
X143184245Y-88670821D01*
X143163351Y-88565782D01*
X143120359Y-88461989D01*
X143103011Y-88420106D01*
X143103004Y-88420093D01*
X143015403Y-88288990D01*
X143015400Y-88288986D01*
X142903906Y-88177492D01*
X142903902Y-88177489D01*
X142772799Y-88089888D01*
X142772786Y-88089881D01*
X142627115Y-88029543D01*
X142627103Y-88029540D01*
X142472459Y-87998779D01*
X142472456Y-87998779D01*
X142314772Y-87998779D01*
X142314769Y-87998779D01*
X142160124Y-88029540D01*
X142160112Y-88029543D01*
X142014441Y-88089881D01*
X142014428Y-88089888D01*
X141883325Y-88177489D01*
X141883321Y-88177492D01*
X141771827Y-88288986D01*
X141771824Y-88288990D01*
X141684223Y-88420093D01*
X141684216Y-88420106D01*
X141623878Y-88565777D01*
X141623875Y-88565789D01*
X141593114Y-88720432D01*
X133679943Y-88720432D01*
X133659394Y-88670821D01*
X133639004Y-88640305D01*
X133635145Y-88632206D01*
X133630975Y-88606210D01*
X133623107Y-88581082D01*
X133624481Y-88565725D01*
X133624079Y-88563218D01*
X133624866Y-88561415D01*
X133625470Y-88554676D01*
X133650500Y-88428844D01*
X133650500Y-88271155D01*
X133650499Y-88271153D01*
X133633061Y-88183489D01*
X133619737Y-88116503D01*
X133594803Y-88056306D01*
X133559397Y-87970827D01*
X133559390Y-87970814D01*
X133474582Y-87843891D01*
X133453704Y-87777214D01*
X133472188Y-87709834D01*
X133474582Y-87706109D01*
X133559390Y-87579185D01*
X133559390Y-87579184D01*
X133559394Y-87579179D01*
X133562719Y-87571153D01*
X133617163Y-87439711D01*
X133619737Y-87433497D01*
X133650500Y-87278842D01*
X133650500Y-87121158D01*
X133650500Y-87121155D01*
X133650499Y-87121153D01*
X133641472Y-87075770D01*
X133619737Y-86966503D01*
X133612657Y-86949410D01*
X133559397Y-86820827D01*
X133559390Y-86820814D01*
X133471789Y-86689711D01*
X133471786Y-86689707D01*
X133360292Y-86578213D01*
X133360288Y-86578210D01*
X133229185Y-86490609D01*
X133229172Y-86490602D01*
X133083501Y-86430264D01*
X133083489Y-86430261D01*
X132928845Y-86399500D01*
X132928842Y-86399500D01*
X132771158Y-86399500D01*
X132771155Y-86399500D01*
X132616510Y-86430261D01*
X132616498Y-86430264D01*
X132470827Y-86490602D01*
X132470814Y-86490609D01*
X132339711Y-86578210D01*
X132339707Y-86578213D01*
X132228213Y-86689707D01*
X132228210Y-86689711D01*
X132140609Y-86820814D01*
X132140602Y-86820827D01*
X132080264Y-86966498D01*
X132080261Y-86966510D01*
X132049500Y-87121153D01*
X132049500Y-87278846D01*
X132080261Y-87433489D01*
X132080264Y-87433501D01*
X132140602Y-87579172D01*
X132140609Y-87579185D01*
X132225417Y-87706109D01*
X132246295Y-87772787D01*
X132227810Y-87840167D01*
X132225417Y-87843891D01*
X132140609Y-87970814D01*
X132140602Y-87970827D01*
X132080264Y-88116498D01*
X132080261Y-88116510D01*
X132049500Y-88271153D01*
X132049500Y-88428846D01*
X132080261Y-88583489D01*
X132080264Y-88583501D01*
X132140602Y-88729171D01*
X132140609Y-88729184D01*
X132156015Y-88752240D01*
X132176893Y-88818917D01*
X132174530Y-88845323D01*
X132149500Y-88971155D01*
X132149500Y-89128846D01*
X132175930Y-89261720D01*
X132169703Y-89331312D01*
X132126840Y-89386489D01*
X132123204Y-89389013D01*
X131989711Y-89478210D01*
X131989707Y-89478213D01*
X131878213Y-89589707D01*
X131878210Y-89589711D01*
X131790609Y-89720814D01*
X131790602Y-89720827D01*
X131730264Y-89866498D01*
X131730261Y-89866510D01*
X131699500Y-90021153D01*
X131699500Y-90178846D01*
X131730261Y-90333489D01*
X131730264Y-90333501D01*
X131790602Y-90479172D01*
X131790609Y-90479185D01*
X131878210Y-90610288D01*
X131878213Y-90610292D01*
X131989707Y-90721786D01*
X131989711Y-90721789D01*
X132120814Y-90809390D01*
X132120827Y-90809397D01*
X132266498Y-90869735D01*
X132266503Y-90869737D01*
X132421153Y-90900499D01*
X132421156Y-90900500D01*
X132438151Y-90900500D01*
X132505190Y-90920185D01*
X132550945Y-90972989D01*
X132560889Y-91042147D01*
X132531864Y-91105703D01*
X132485603Y-91139061D01*
X132463013Y-91148417D01*
X132463000Y-91148424D01*
X132331897Y-91236025D01*
X132331893Y-91236028D01*
X132220399Y-91347522D01*
X132220396Y-91347526D01*
X132149807Y-91453170D01*
X132096195Y-91497975D01*
X132070898Y-91505896D01*
X132016506Y-91516715D01*
X132016500Y-91516717D01*
X131870827Y-91577056D01*
X131870814Y-91577063D01*
X131739711Y-91664664D01*
X131739707Y-91664667D01*
X131628213Y-91776161D01*
X131628210Y-91776165D01*
X131540609Y-91907268D01*
X131540602Y-91907281D01*
X131480264Y-92052952D01*
X131480261Y-92052964D01*
X131449500Y-92207607D01*
X130734882Y-92207607D01*
X130591926Y-91799063D01*
X130589829Y-91792484D01*
X130397647Y-91125405D01*
X130395914Y-91118683D01*
X130392951Y-91105703D01*
X130241446Y-90441916D01*
X130240091Y-90435101D01*
X130239819Y-90433501D01*
X130123808Y-89750706D01*
X130122843Y-89743869D01*
X130045119Y-89054049D01*
X130044535Y-89047122D01*
X130043729Y-89032776D01*
X130005612Y-88354036D01*
X130005417Y-88347083D01*
X130005417Y-87652916D01*
X130005612Y-87645963D01*
X130016617Y-87450000D01*
X130044536Y-86952857D01*
X130045120Y-86945947D01*
X130092265Y-86527516D01*
X130119331Y-86463103D01*
X130176926Y-86423547D01*
X130246763Y-86421410D01*
X130262934Y-86426837D01*
X130366503Y-86469737D01*
X130521153Y-86500499D01*
X130521156Y-86500500D01*
X130521158Y-86500500D01*
X130678844Y-86500500D01*
X130678845Y-86500499D01*
X130833497Y-86469737D01*
X130979179Y-86409394D01*
X131110289Y-86321789D01*
X131221789Y-86210289D01*
X131309394Y-86079179D01*
X131311749Y-86073492D01*
X131355590Y-86019090D01*
X131421884Y-85997025D01*
X131426310Y-85996946D01*
X131525290Y-85996946D01*
X131525291Y-85996945D01*
X131679943Y-85966183D01*
X131825625Y-85905840D01*
X131956735Y-85818235D01*
X132068235Y-85706735D01*
X132155840Y-85575625D01*
X132158279Y-85569738D01*
X132183273Y-85509396D01*
X132216183Y-85429943D01*
X132246946Y-85275288D01*
X132246946Y-85117604D01*
X132246946Y-85117601D01*
X132246945Y-85117599D01*
X132245313Y-85109395D01*
X132216183Y-84962949D01*
X132194370Y-84910287D01*
X132155843Y-84817273D01*
X132155836Y-84817260D01*
X132068235Y-84686157D01*
X132068232Y-84686153D01*
X131956738Y-84574659D01*
X131956734Y-84574656D01*
X131825631Y-84487055D01*
X131825618Y-84487048D01*
X131679947Y-84426710D01*
X131679935Y-84426707D01*
X131525291Y-84395946D01*
X131525288Y-84395946D01*
X131367604Y-84395946D01*
X131367601Y-84395946D01*
X131212956Y-84426707D01*
X131212944Y-84426710D01*
X131067273Y-84487048D01*
X131067260Y-84487055D01*
X130936157Y-84574656D01*
X130936153Y-84574659D01*
X130824659Y-84686153D01*
X130824656Y-84686157D01*
X130737055Y-84817260D01*
X130737053Y-84817265D01*
X130737052Y-84817267D01*
X130734697Y-84822950D01*
X130722154Y-84838516D01*
X130713849Y-84856703D01*
X130700680Y-84865166D01*
X130690859Y-84877354D01*
X130671889Y-84883668D01*
X130655071Y-84894477D01*
X130627516Y-84898438D01*
X130624566Y-84899421D01*
X130620136Y-84899500D01*
X130555240Y-84899500D01*
X130488201Y-84879815D01*
X130442446Y-84827011D01*
X130432502Y-84757853D01*
X130436086Y-84741173D01*
X130484058Y-84574657D01*
X130589829Y-84207515D01*
X130591923Y-84200946D01*
X130724818Y-83821153D01*
X133649500Y-83821153D01*
X133649500Y-83978846D01*
X133680261Y-84133489D01*
X133680264Y-84133501D01*
X133740602Y-84279172D01*
X133740609Y-84279185D01*
X133828210Y-84410288D01*
X133828213Y-84410292D01*
X133939707Y-84521786D01*
X133939711Y-84521789D01*
X134070814Y-84609390D01*
X134070827Y-84609397D01*
X134216498Y-84669735D01*
X134216503Y-84669737D01*
X134302581Y-84686859D01*
X134371153Y-84700499D01*
X134371156Y-84700500D01*
X134371158Y-84700500D01*
X134528844Y-84700500D01*
X134528845Y-84700499D01*
X134683497Y-84669737D01*
X134829179Y-84609394D01*
X134960289Y-84521789D01*
X135071789Y-84410289D01*
X135159394Y-84279179D01*
X135163214Y-84269958D01*
X135201369Y-84177842D01*
X135219737Y-84133497D01*
X135250500Y-83978842D01*
X135250500Y-83826176D01*
X141254522Y-83826176D01*
X141254522Y-83983869D01*
X141285283Y-84138512D01*
X141285286Y-84138524D01*
X141345624Y-84284195D01*
X141345631Y-84284208D01*
X141433232Y-84415311D01*
X141433235Y-84415315D01*
X141544729Y-84526809D01*
X141544733Y-84526812D01*
X141675836Y-84614413D01*
X141675840Y-84614415D01*
X141675843Y-84614417D01*
X141744897Y-84643020D01*
X141799298Y-84686859D01*
X141812004Y-84710127D01*
X141840604Y-84779173D01*
X141840609Y-84779183D01*
X141928210Y-84910286D01*
X141928213Y-84910290D01*
X142039707Y-85021784D01*
X142039711Y-85021787D01*
X142170814Y-85109388D01*
X142170827Y-85109395D01*
X142224769Y-85131738D01*
X142316503Y-85169735D01*
X142468463Y-85199962D01*
X142471153Y-85200497D01*
X142471156Y-85200498D01*
X142471158Y-85200498D01*
X142628844Y-85200498D01*
X142628845Y-85200497D01*
X142783497Y-85169735D01*
X142929179Y-85109392D01*
X143060289Y-85021787D01*
X143171789Y-84910287D01*
X143259394Y-84779177D01*
X143319737Y-84633495D01*
X143350500Y-84478840D01*
X143350500Y-84478833D01*
X143351097Y-84472780D01*
X143353722Y-84473038D01*
X143370185Y-84416975D01*
X143422989Y-84371220D01*
X143492147Y-84361276D01*
X143521952Y-84369453D01*
X143566606Y-84387949D01*
X143595606Y-84399961D01*
X143750256Y-84430723D01*
X143750259Y-84430724D01*
X143750261Y-84430724D01*
X143907947Y-84430724D01*
X143907948Y-84430723D01*
X144062600Y-84399961D01*
X144208282Y-84339618D01*
X144339392Y-84252013D01*
X144450892Y-84140513D01*
X144464453Y-84120217D01*
X144479894Y-84107312D01*
X144491700Y-84091016D01*
X144506154Y-84085365D01*
X144518063Y-84075413D01*
X144538032Y-84072904D01*
X144556774Y-84065578D01*
X144571987Y-84068638D01*
X144587388Y-84066704D01*
X144605543Y-84075390D01*
X144625271Y-84079359D01*
X144636415Y-84090159D01*
X144650416Y-84096858D01*
X144660992Y-84113979D01*
X144675444Y-84127985D01*
X144684206Y-84151557D01*
X144687136Y-84156300D01*
X144688294Y-84160856D01*
X144688766Y-84162876D01*
X144710067Y-84269958D01*
X144718699Y-84290797D01*
X144721004Y-84300648D01*
X144719598Y-84325835D01*
X144722295Y-84350917D01*
X144717152Y-84369660D01*
X144717111Y-84370409D01*
X144716847Y-84370772D01*
X144716447Y-84372233D01*
X144680908Y-84467517D01*
X144674501Y-84527116D01*
X144674500Y-84527135D01*
X144674500Y-85472870D01*
X144674501Y-85472876D01*
X144680908Y-85532483D01*
X144731202Y-85667328D01*
X144731206Y-85667335D01*
X144817452Y-85782544D01*
X144817455Y-85782547D01*
X144932664Y-85868793D01*
X144932671Y-85868797D01*
X145067517Y-85919091D01*
X145067516Y-85919091D01*
X145074444Y-85919835D01*
X145127127Y-85925500D01*
X146072872Y-85925499D01*
X146132483Y-85919091D01*
X146267331Y-85868796D01*
X146382546Y-85782546D01*
X146468796Y-85667331D01*
X146519091Y-85532483D01*
X146525500Y-85472873D01*
X146525499Y-85119562D01*
X146545183Y-85052526D01*
X146597987Y-85006771D01*
X146667146Y-84996827D01*
X146730701Y-85025852D01*
X146752601Y-85050674D01*
X146806764Y-85131734D01*
X146806767Y-85131738D01*
X146918261Y-85243232D01*
X146918265Y-85243235D01*
X147049368Y-85330836D01*
X147049381Y-85330843D01*
X147195052Y-85391181D01*
X147195057Y-85391183D01*
X147348908Y-85421786D01*
X147349707Y-85421945D01*
X147349710Y-85421946D01*
X147349712Y-85421946D01*
X147507398Y-85421946D01*
X147507399Y-85421945D01*
X147662051Y-85391183D01*
X147807733Y-85330840D01*
X147938843Y-85243235D01*
X147948629Y-85233449D01*
X148009951Y-85199962D01*
X148079642Y-85204944D01*
X148135577Y-85246813D01*
X148139415Y-85252235D01*
X148178208Y-85310292D01*
X148289702Y-85421786D01*
X148289706Y-85421789D01*
X148420809Y-85509390D01*
X148420822Y-85509397D01*
X148566493Y-85569735D01*
X148566498Y-85569737D01*
X148721148Y-85600499D01*
X148721151Y-85600500D01*
X148721153Y-85600500D01*
X148878839Y-85600500D01*
X148878840Y-85600499D01*
X149033492Y-85569737D01*
X149179174Y-85509394D01*
X149231105Y-85474694D01*
X149297780Y-85453816D01*
X149365160Y-85472300D01*
X149368858Y-85474676D01*
X149420816Y-85509394D01*
X149420818Y-85509395D01*
X149420820Y-85509396D01*
X149566493Y-85569735D01*
X149566498Y-85569737D01*
X149721148Y-85600499D01*
X149721151Y-85600500D01*
X149721153Y-85600500D01*
X149878839Y-85600500D01*
X149878840Y-85600499D01*
X150033492Y-85569737D01*
X150179174Y-85509394D01*
X150310284Y-85421789D01*
X150421784Y-85310289D01*
X150509389Y-85179179D01*
X150569732Y-85033497D01*
X150600495Y-84878842D01*
X150600495Y-84721158D01*
X150600495Y-84721155D01*
X150600494Y-84721153D01*
X150583058Y-84633499D01*
X150569732Y-84566503D01*
X150559833Y-84542604D01*
X150509392Y-84420827D01*
X150509385Y-84420814D01*
X150473467Y-84367059D01*
X150452589Y-84300381D01*
X150471074Y-84233001D01*
X150523052Y-84186311D01*
X150592022Y-84175135D01*
X150600750Y-84176549D01*
X150648043Y-84185956D01*
X150721155Y-84200500D01*
X150721158Y-84200500D01*
X150878844Y-84200500D01*
X150878845Y-84200499D01*
X151033497Y-84169737D01*
X151174923Y-84111157D01*
X151179172Y-84109397D01*
X151179173Y-84109396D01*
X151179179Y-84109394D01*
X151188396Y-84103234D01*
X151255069Y-84082354D01*
X151322451Y-84100834D01*
X151369144Y-84152810D01*
X151378908Y-84182142D01*
X151408815Y-84332491D01*
X151408818Y-84332501D01*
X151469156Y-84478172D01*
X151469163Y-84478185D01*
X151556764Y-84609288D01*
X151556767Y-84609292D01*
X151668261Y-84720786D01*
X151668265Y-84720789D01*
X151799368Y-84808390D01*
X151799381Y-84808397D01*
X151911755Y-84854943D01*
X151945057Y-84868737D01*
X152074460Y-84894477D01*
X152099707Y-84899499D01*
X152099710Y-84899500D01*
X152099712Y-84899500D01*
X152257398Y-84899500D01*
X152257399Y-84899499D01*
X152412051Y-84868737D01*
X152536316Y-84817265D01*
X152557726Y-84808397D01*
X152557726Y-84808396D01*
X152557733Y-84808394D01*
X152557738Y-84808390D01*
X152557741Y-84808389D01*
X152601465Y-84779173D01*
X152656499Y-84742400D01*
X152723174Y-84721522D01*
X152772839Y-84730940D01*
X152866503Y-84769737D01*
X153021153Y-84800499D01*
X153021156Y-84800500D01*
X153021158Y-84800500D01*
X153178844Y-84800500D01*
X153178845Y-84800499D01*
X153333497Y-84769737D01*
X153451676Y-84720786D01*
X153479172Y-84709397D01*
X153479172Y-84709396D01*
X153479179Y-84709394D01*
X153610289Y-84621789D01*
X153721789Y-84510289D01*
X153809394Y-84379179D01*
X153869737Y-84233497D01*
X153900500Y-84078842D01*
X153900500Y-83921158D01*
X153900500Y-83921155D01*
X153900499Y-83921153D01*
X153887155Y-83854069D01*
X153869737Y-83766503D01*
X153860677Y-83744629D01*
X153809397Y-83620827D01*
X153809390Y-83620814D01*
X153721789Y-83489711D01*
X153721786Y-83489707D01*
X153610292Y-83378213D01*
X153610288Y-83378210D01*
X153479185Y-83290609D01*
X153479172Y-83290602D01*
X153333501Y-83230264D01*
X153333489Y-83230261D01*
X153178845Y-83199500D01*
X153178842Y-83199500D01*
X153021158Y-83199500D01*
X153021155Y-83199500D01*
X152866510Y-83230261D01*
X152866498Y-83230264D01*
X152720827Y-83290602D01*
X152720814Y-83290609D01*
X152622055Y-83356599D01*
X152555378Y-83377477D01*
X152505712Y-83368058D01*
X152412055Y-83329264D01*
X152412043Y-83329261D01*
X152257399Y-83298500D01*
X152257396Y-83298500D01*
X152099712Y-83298500D01*
X152099709Y-83298500D01*
X151945064Y-83329261D01*
X151945052Y-83329264D01*
X151799381Y-83389602D01*
X151799365Y-83389611D01*
X151790151Y-83395768D01*
X151723474Y-83416645D01*
X151656094Y-83398160D01*
X151609404Y-83346180D01*
X151599645Y-83316857D01*
X151569738Y-83166508D01*
X151569737Y-83166507D01*
X151569737Y-83166503D01*
X151556560Y-83134690D01*
X151509397Y-83020827D01*
X151509390Y-83020814D01*
X151421789Y-82889711D01*
X151421786Y-82889707D01*
X151310292Y-82778213D01*
X151310288Y-82778210D01*
X151179185Y-82690609D01*
X151179172Y-82690602D01*
X151033501Y-82630264D01*
X151033489Y-82630261D01*
X150878845Y-82599500D01*
X150878842Y-82599500D01*
X150721158Y-82599500D01*
X150721155Y-82599500D01*
X150566510Y-82630261D01*
X150566498Y-82630264D01*
X150420827Y-82690602D01*
X150420814Y-82690609D01*
X150289711Y-82778210D01*
X150289707Y-82778213D01*
X150178213Y-82889707D01*
X150178210Y-82889711D01*
X150090609Y-83020814D01*
X150090602Y-83020827D01*
X150030264Y-83166498D01*
X150030261Y-83166510D01*
X149999500Y-83321153D01*
X149999500Y-83478846D01*
X150030261Y-83633489D01*
X150030264Y-83633501D01*
X150090602Y-83779172D01*
X150090612Y-83779190D01*
X150126527Y-83832941D01*
X150133142Y-83854069D01*
X150144102Y-83873315D01*
X150143380Y-83886766D01*
X150147405Y-83899618D01*
X150141547Y-83920969D01*
X150140362Y-83943084D01*
X150132483Y-83954009D01*
X150128920Y-83966998D01*
X150112447Y-83981794D01*
X150099495Y-83999756D01*
X150086960Y-84004687D01*
X150076941Y-84013688D01*
X150055084Y-84017229D01*
X150034477Y-84025338D01*
X150012363Y-84024152D01*
X150007971Y-84024864D01*
X149999233Y-84023448D01*
X149873411Y-83998420D01*
X149811500Y-83966035D01*
X149776926Y-83905319D01*
X149775994Y-83901034D01*
X149769728Y-83869533D01*
X149732307Y-83779190D01*
X149709388Y-83723857D01*
X149709381Y-83723844D01*
X149621780Y-83592741D01*
X149621777Y-83592737D01*
X149510283Y-83481243D01*
X149510279Y-83481240D01*
X149379176Y-83393639D01*
X149379163Y-83393632D01*
X149233492Y-83333294D01*
X149233480Y-83333291D01*
X149078836Y-83302530D01*
X149078833Y-83302530D01*
X148921149Y-83302530D01*
X148921144Y-83302530D01*
X148770816Y-83332432D01*
X148701224Y-83326205D01*
X148646047Y-83283342D01*
X148622803Y-83217452D01*
X148638871Y-83149455D01*
X148658940Y-83123137D01*
X148721789Y-83060289D01*
X148809394Y-82929179D01*
X148869737Y-82783497D01*
X148900500Y-82628842D01*
X148900500Y-82471158D01*
X148900500Y-82471155D01*
X148900499Y-82471153D01*
X148884541Y-82390928D01*
X148869737Y-82316503D01*
X148869735Y-82316498D01*
X148809397Y-82170827D01*
X148809390Y-82170814D01*
X148721789Y-82039711D01*
X148721786Y-82039707D01*
X148610292Y-81928213D01*
X148610288Y-81928210D01*
X148479185Y-81840609D01*
X148479172Y-81840602D01*
X148333501Y-81780264D01*
X148333489Y-81780261D01*
X148178845Y-81749500D01*
X148178842Y-81749500D01*
X148021158Y-81749500D01*
X148021155Y-81749500D01*
X147866510Y-81780261D01*
X147866498Y-81780264D01*
X147720827Y-81840602D01*
X147720814Y-81840609D01*
X147589711Y-81928210D01*
X147589707Y-81928213D01*
X147478213Y-82039707D01*
X147478207Y-82039715D01*
X147406611Y-82146867D01*
X147352999Y-82191673D01*
X147283674Y-82200380D01*
X147279318Y-82199594D01*
X147278845Y-82199500D01*
X147278842Y-82199500D01*
X147121158Y-82199500D01*
X147121155Y-82199500D01*
X146966510Y-82230261D01*
X146966498Y-82230264D01*
X146820827Y-82290602D01*
X146820814Y-82290609D01*
X146684646Y-82381595D01*
X146683304Y-82379587D01*
X146628787Y-82402731D01*
X146559922Y-82390928D01*
X146508369Y-82343768D01*
X146490497Y-82276223D01*
X146492835Y-82255370D01*
X146525500Y-82091156D01*
X146525500Y-81908843D01*
X146489934Y-81730047D01*
X146489933Y-81730046D01*
X146489933Y-81730042D01*
X146474480Y-81692734D01*
X146420168Y-81561612D01*
X146420166Y-81561608D01*
X146318886Y-81410032D01*
X146318880Y-81410024D01*
X146189975Y-81281119D01*
X146189967Y-81281113D01*
X146038391Y-81179833D01*
X146038387Y-81179831D01*
X145869962Y-81110068D01*
X145869952Y-81110065D01*
X145691156Y-81074500D01*
X145691154Y-81074500D01*
X145508846Y-81074500D01*
X145508844Y-81074500D01*
X145330047Y-81110065D01*
X145330037Y-81110068D01*
X145161612Y-81179831D01*
X145161608Y-81179833D01*
X145010032Y-81281113D01*
X145010024Y-81281119D01*
X144881119Y-81410024D01*
X144881113Y-81410032D01*
X144779833Y-81561608D01*
X144779831Y-81561612D01*
X144710068Y-81730037D01*
X144710065Y-81730047D01*
X144674500Y-81908843D01*
X144674500Y-81908846D01*
X144674500Y-82091154D01*
X144674500Y-82091156D01*
X144674499Y-82091156D01*
X144710065Y-82269952D01*
X144710067Y-82269958D01*
X144779835Y-82438394D01*
X144781525Y-82441556D01*
X144781908Y-82443399D01*
X144782164Y-82444016D01*
X144782047Y-82444064D01*
X144795761Y-82509960D01*
X144781525Y-82558444D01*
X144779835Y-82561605D01*
X144710067Y-82730041D01*
X144710065Y-82730047D01*
X144674500Y-82908843D01*
X144674500Y-83045844D01*
X144654815Y-83112883D01*
X144602011Y-83158638D01*
X144532853Y-83168582D01*
X144469297Y-83139557D01*
X144454650Y-83124513D01*
X144450890Y-83119932D01*
X144339395Y-83008437D01*
X144339391Y-83008434D01*
X144208288Y-82920833D01*
X144208275Y-82920826D01*
X144077048Y-82866471D01*
X144022644Y-82822630D01*
X144000579Y-82756336D01*
X144000500Y-82751910D01*
X144000500Y-82671155D01*
X144000499Y-82671153D01*
X143992365Y-82630261D01*
X143969737Y-82516503D01*
X143962901Y-82500000D01*
X143909397Y-82370827D01*
X143909390Y-82370814D01*
X143821789Y-82239711D01*
X143821786Y-82239707D01*
X143710292Y-82128213D01*
X143710288Y-82128210D01*
X143579185Y-82040609D01*
X143579172Y-82040602D01*
X143433501Y-81980264D01*
X143433489Y-81980261D01*
X143278845Y-81949500D01*
X143278842Y-81949500D01*
X143121158Y-81949500D01*
X143121155Y-81949500D01*
X142966510Y-81980261D01*
X142966498Y-81980264D01*
X142820827Y-82040602D01*
X142820814Y-82040609D01*
X142689711Y-82128210D01*
X142689707Y-82128213D01*
X142578213Y-82239707D01*
X142504616Y-82349851D01*
X142504613Y-82349857D01*
X142490606Y-82370821D01*
X142430263Y-82516503D01*
X142424658Y-82544678D01*
X142424655Y-82544687D01*
X142399500Y-82671153D01*
X142399500Y-82828846D01*
X142431333Y-82988882D01*
X142425106Y-83058474D01*
X142382243Y-83113651D01*
X142316353Y-83136895D01*
X142285524Y-83134690D01*
X142133866Y-83104523D01*
X142133864Y-83104523D01*
X141976180Y-83104523D01*
X141976177Y-83104523D01*
X141821532Y-83135284D01*
X141821520Y-83135287D01*
X141675849Y-83195625D01*
X141675836Y-83195632D01*
X141544733Y-83283233D01*
X141544729Y-83283236D01*
X141433235Y-83394730D01*
X141433232Y-83394734D01*
X141345631Y-83525837D01*
X141345624Y-83525850D01*
X141285286Y-83671521D01*
X141285283Y-83671533D01*
X141254522Y-83826176D01*
X135250500Y-83826176D01*
X135250500Y-83821158D01*
X135250500Y-83821155D01*
X135250499Y-83821153D01*
X135231143Y-83723844D01*
X135219737Y-83666503D01*
X135199915Y-83618648D01*
X135159397Y-83520827D01*
X135159390Y-83520814D01*
X135071789Y-83389711D01*
X135071786Y-83389707D01*
X134960292Y-83278213D01*
X134960288Y-83278210D01*
X134829185Y-83190609D01*
X134829172Y-83190602D01*
X134683501Y-83130264D01*
X134683489Y-83130261D01*
X134528845Y-83099500D01*
X134528842Y-83099500D01*
X134371158Y-83099500D01*
X134371155Y-83099500D01*
X134216510Y-83130261D01*
X134216498Y-83130264D01*
X134070827Y-83190602D01*
X134070814Y-83190609D01*
X133939711Y-83278210D01*
X133939707Y-83278213D01*
X133828213Y-83389707D01*
X133828210Y-83389711D01*
X133740609Y-83520814D01*
X133740602Y-83520827D01*
X133680264Y-83666498D01*
X133680261Y-83666510D01*
X133649500Y-83821153D01*
X130724818Y-83821153D01*
X130794915Y-83620827D01*
X130821210Y-83545683D01*
X130823690Y-83539185D01*
X131089343Y-82897843D01*
X131092165Y-82891537D01*
X131393374Y-82266069D01*
X131396543Y-82259935D01*
X131732341Y-81652354D01*
X131735874Y-81646366D01*
X131751925Y-81620821D01*
X132105209Y-81058573D01*
X132109042Y-81052836D01*
X132510780Y-80486637D01*
X132514912Y-80481147D01*
X132947765Y-79938367D01*
X132952206Y-79933108D01*
X133411998Y-79418600D01*
X133471345Y-79381731D01*
X133541207Y-79382800D01*
X133599400Y-79421469D01*
X133627449Y-79485462D01*
X133627676Y-79515112D01*
X133599500Y-79765184D01*
X133599500Y-80034813D01*
X133629686Y-80302719D01*
X133629688Y-80302731D01*
X133689684Y-80565594D01*
X133689687Y-80565602D01*
X133778734Y-80820082D01*
X133895714Y-81062994D01*
X133895716Y-81062997D01*
X134039162Y-81291289D01*
X134207266Y-81502085D01*
X134397915Y-81692734D01*
X134608711Y-81860838D01*
X134784276Y-81971153D01*
X134837005Y-82004285D01*
X134912433Y-82040609D01*
X135079921Y-82121267D01*
X135221519Y-82170814D01*
X135334397Y-82210312D01*
X135334405Y-82210315D01*
X135334408Y-82210315D01*
X135334409Y-82210316D01*
X135597268Y-82270312D01*
X135865187Y-82300499D01*
X135865188Y-82300500D01*
X135865191Y-82300500D01*
X136134812Y-82300500D01*
X136134812Y-82300499D01*
X136402732Y-82270312D01*
X136665591Y-82210316D01*
X136920079Y-82121267D01*
X137162997Y-82004284D01*
X137215724Y-81971153D01*
X140699500Y-81971153D01*
X140699500Y-82128846D01*
X140730261Y-82283489D01*
X140730264Y-82283501D01*
X140790602Y-82429172D01*
X140790609Y-82429185D01*
X140878210Y-82560288D01*
X140878213Y-82560292D01*
X140989707Y-82671786D01*
X140989711Y-82671789D01*
X141120814Y-82759390D01*
X141120827Y-82759397D01*
X141220060Y-82800500D01*
X141266503Y-82819737D01*
X141421153Y-82850499D01*
X141421156Y-82850500D01*
X141421158Y-82850500D01*
X141578844Y-82850500D01*
X141578845Y-82850499D01*
X141733497Y-82819737D01*
X141879179Y-82759394D01*
X142010289Y-82671789D01*
X142121789Y-82560289D01*
X142209394Y-82429179D01*
X142269737Y-82283497D01*
X142296915Y-82146867D01*
X142300500Y-82128844D01*
X142300500Y-81971155D01*
X142300499Y-81971153D01*
X142274531Y-81840606D01*
X142269737Y-81816503D01*
X142269735Y-81816498D01*
X142209397Y-81670827D01*
X142209390Y-81670814D01*
X142121789Y-81539711D01*
X142121786Y-81539707D01*
X142010292Y-81428213D01*
X142010288Y-81428210D01*
X141879185Y-81340609D01*
X141879172Y-81340602D01*
X141733501Y-81280264D01*
X141733489Y-81280261D01*
X141578845Y-81249500D01*
X141578842Y-81249500D01*
X141421158Y-81249500D01*
X141421155Y-81249500D01*
X141266510Y-81280261D01*
X141266498Y-81280264D01*
X141120827Y-81340602D01*
X141120814Y-81340609D01*
X140989711Y-81428210D01*
X140989707Y-81428213D01*
X140878213Y-81539707D01*
X140878210Y-81539711D01*
X140790609Y-81670814D01*
X140790602Y-81670827D01*
X140730264Y-81816498D01*
X140730261Y-81816510D01*
X140699500Y-81971153D01*
X137215724Y-81971153D01*
X137391289Y-81860838D01*
X137602085Y-81692734D01*
X137792734Y-81502085D01*
X137960838Y-81291289D01*
X138104284Y-81062997D01*
X138221267Y-80820079D01*
X138310316Y-80565591D01*
X138370312Y-80302732D01*
X138400500Y-80034809D01*
X138400500Y-79765191D01*
X138370312Y-79497268D01*
X138310316Y-79234409D01*
X138308811Y-79230109D01*
X138277493Y-79140606D01*
X138221267Y-78979921D01*
X138104284Y-78737003D01*
X137960838Y-78508711D01*
X137792734Y-78297915D01*
X137602085Y-78107266D01*
X137585090Y-78093713D01*
X139159500Y-78093713D01*
X139159500Y-78306286D01*
X139182248Y-78449915D01*
X139192754Y-78516243D01*
X139253657Y-78703683D01*
X139258444Y-78718414D01*
X139354951Y-78907820D01*
X139479890Y-79079786D01*
X139630213Y-79230109D01*
X139802179Y-79355048D01*
X139802181Y-79355049D01*
X139802184Y-79355051D01*
X139991588Y-79451557D01*
X140193757Y-79517246D01*
X140403713Y-79550500D01*
X140403714Y-79550500D01*
X140616286Y-79550500D01*
X140616287Y-79550500D01*
X140826243Y-79517246D01*
X141028412Y-79451557D01*
X141217816Y-79355051D01*
X141304138Y-79292335D01*
X141389786Y-79230109D01*
X141389788Y-79230106D01*
X141389792Y-79230104D01*
X141540104Y-79079792D01*
X141540106Y-79079788D01*
X141540109Y-79079786D01*
X141665048Y-78907820D01*
X141665047Y-78907820D01*
X141665051Y-78907816D01*
X141669514Y-78899054D01*
X141717488Y-78848259D01*
X141785308Y-78831463D01*
X141851444Y-78853999D01*
X141890486Y-78899056D01*
X141894951Y-78907820D01*
X142019890Y-79079786D01*
X142170213Y-79230109D01*
X142342179Y-79355048D01*
X142342181Y-79355049D01*
X142342184Y-79355051D01*
X142531588Y-79451557D01*
X142733757Y-79517246D01*
X142943713Y-79550500D01*
X142943714Y-79550500D01*
X143156286Y-79550500D01*
X143156287Y-79550500D01*
X143366243Y-79517246D01*
X143568412Y-79451557D01*
X143757816Y-79355051D01*
X143929792Y-79230104D01*
X144043329Y-79116566D01*
X144104648Y-79083084D01*
X144174340Y-79088068D01*
X144230274Y-79129939D01*
X144247189Y-79160917D01*
X144296202Y-79292328D01*
X144296206Y-79292335D01*
X144382452Y-79407544D01*
X144382455Y-79407547D01*
X144497664Y-79493793D01*
X144497671Y-79493797D01*
X144632517Y-79544091D01*
X144632516Y-79544091D01*
X144639444Y-79544835D01*
X144692127Y-79550500D01*
X145915924Y-79550499D01*
X145982963Y-79570184D01*
X146028718Y-79622987D01*
X146038662Y-79692146D01*
X146019026Y-79743389D01*
X145950047Y-79846623D01*
X145950037Y-79846641D01*
X145889699Y-79992312D01*
X145889696Y-79992324D01*
X145858935Y-80146967D01*
X145858935Y-80304660D01*
X145889696Y-80459303D01*
X145889699Y-80459315D01*
X145950037Y-80604986D01*
X145950044Y-80604999D01*
X146037645Y-80736102D01*
X146037648Y-80736106D01*
X146149142Y-80847600D01*
X146149146Y-80847603D01*
X146280249Y-80935204D01*
X146280262Y-80935211D01*
X146425933Y-80995549D01*
X146425938Y-80995551D01*
X146580588Y-81026313D01*
X146580591Y-81026314D01*
X146580593Y-81026314D01*
X146738279Y-81026314D01*
X146738280Y-81026313D01*
X146892932Y-80995551D01*
X147038614Y-80935208D01*
X147169724Y-80847603D01*
X147281224Y-80736103D01*
X147311356Y-80691005D01*
X147364966Y-80646203D01*
X147390254Y-80638284D01*
X147483497Y-80619737D01*
X147607834Y-80568235D01*
X147629172Y-80559397D01*
X147629172Y-80559396D01*
X147629179Y-80559394D01*
X147760289Y-80471789D01*
X147871789Y-80360289D01*
X147959394Y-80229179D01*
X148019737Y-80083497D01*
X148050500Y-79928842D01*
X148050500Y-79771158D01*
X148050500Y-79771155D01*
X148050499Y-79771153D01*
X148034783Y-79692146D01*
X148019737Y-79616503D01*
X148019735Y-79616498D01*
X147959397Y-79470827D01*
X147959390Y-79470814D01*
X147871789Y-79339711D01*
X147871786Y-79339707D01*
X147760292Y-79228213D01*
X147760288Y-79228210D01*
X147629185Y-79140609D01*
X147629172Y-79140602D01*
X147483501Y-79080264D01*
X147483489Y-79080261D01*
X147328845Y-79049500D01*
X147328842Y-79049500D01*
X147171158Y-79049500D01*
X147171153Y-79049500D01*
X147088690Y-79065903D01*
X147019098Y-79059676D01*
X146963921Y-79016813D01*
X146940677Y-78950923D01*
X146940499Y-78944320D01*
X146940499Y-77302128D01*
X146934091Y-77242517D01*
X146932810Y-77239083D01*
X146883797Y-77107671D01*
X146883793Y-77107664D01*
X146797547Y-76992455D01*
X146797544Y-76992452D01*
X146682335Y-76906206D01*
X146682328Y-76906202D01*
X146547482Y-76855908D01*
X146547483Y-76855908D01*
X146487883Y-76849501D01*
X146487881Y-76849500D01*
X146487873Y-76849500D01*
X146487864Y-76849500D01*
X144692129Y-76849500D01*
X144692123Y-76849501D01*
X144632516Y-76855908D01*
X144497671Y-76906202D01*
X144497664Y-76906206D01*
X144382455Y-76992452D01*
X144382452Y-76992455D01*
X144296206Y-77107664D01*
X144296203Y-77107669D01*
X144247189Y-77239083D01*
X144205317Y-77295016D01*
X144139853Y-77319433D01*
X144071580Y-77304581D01*
X144043326Y-77283430D01*
X143929786Y-77169890D01*
X143757820Y-77044951D01*
X143568414Y-76948444D01*
X143568413Y-76948443D01*
X143568412Y-76948443D01*
X143366243Y-76882754D01*
X143366241Y-76882753D01*
X143366240Y-76882753D01*
X143204957Y-76857208D01*
X143156287Y-76849500D01*
X142943713Y-76849500D01*
X142895042Y-76857208D01*
X142733760Y-76882753D01*
X142632672Y-76915598D01*
X142555699Y-76940609D01*
X142531585Y-76948444D01*
X142342179Y-77044951D01*
X142170213Y-77169890D01*
X142019890Y-77320213D01*
X141894949Y-77492182D01*
X141890484Y-77500946D01*
X141842509Y-77551742D01*
X141774688Y-77568536D01*
X141708553Y-77545998D01*
X141669516Y-77500946D01*
X141665050Y-77492182D01*
X141540109Y-77320213D01*
X141389786Y-77169890D01*
X141217820Y-77044951D01*
X141028414Y-76948444D01*
X141028413Y-76948443D01*
X141028412Y-76948443D01*
X140826243Y-76882754D01*
X140826241Y-76882753D01*
X140826240Y-76882753D01*
X140664957Y-76857208D01*
X140616287Y-76849500D01*
X140403713Y-76849500D01*
X140355042Y-76857208D01*
X140193760Y-76882753D01*
X140092672Y-76915598D01*
X140015699Y-76940609D01*
X139991585Y-76948444D01*
X139802179Y-77044951D01*
X139630213Y-77169890D01*
X139479890Y-77320213D01*
X139354951Y-77492179D01*
X139258444Y-77681585D01*
X139192753Y-77883760D01*
X139159500Y-78093713D01*
X137585090Y-78093713D01*
X137391289Y-77939162D01*
X137162997Y-77795716D01*
X137162994Y-77795714D01*
X136920082Y-77678734D01*
X136665602Y-77589687D01*
X136665594Y-77589684D01*
X136468446Y-77544687D01*
X136402732Y-77529688D01*
X136402728Y-77529687D01*
X136402719Y-77529686D01*
X136140988Y-77500195D01*
X136114383Y-77489015D01*
X136086770Y-77480600D01*
X136082564Y-77475645D01*
X136076574Y-77473128D01*
X136060234Y-77449336D01*
X136041557Y-77427331D01*
X136040698Y-77420889D01*
X136037019Y-77415533D01*
X136036136Y-77386683D01*
X136032321Y-77358075D01*
X136035080Y-77352191D01*
X136034882Y-77345696D01*
X136049735Y-77320950D01*
X136061993Y-77294819D01*
X136068979Y-77288888D01*
X136070840Y-77285790D01*
X136088893Y-77271986D01*
X136146368Y-77235873D01*
X136152357Y-77232340D01*
X136265352Y-77169890D01*
X136759935Y-76896543D01*
X136766069Y-76893374D01*
X137391537Y-76592165D01*
X137397843Y-76589343D01*
X138039198Y-76323684D01*
X138045671Y-76321213D01*
X138700946Y-76091923D01*
X138707505Y-76089832D01*
X139374602Y-75897645D01*
X139381293Y-75895919D01*
X140058090Y-75741445D01*
X140064884Y-75740093D01*
X140749298Y-75623807D01*
X140756125Y-75622844D01*
X141445953Y-75545119D01*
X141452866Y-75544535D01*
X142145964Y-75505612D01*
X142152917Y-75505417D01*
X142847083Y-75505417D01*
X142854036Y-75505612D01*
G37*
G04 #@! TD.AperFunction*
G04 #@! TD*
M02*
