G04 #@! TF.GenerationSoftware,KiCad,Pcbnew,9.0.4*
G04 #@! TF.CreationDate,2025-10-13T14:39:45-04:00*
G04 #@! TF.ProjectId,bldc motor controller,626c6463-206d-46f7-946f-7220636f6e74,rev?*
G04 #@! TF.SameCoordinates,Original*
G04 #@! TF.FileFunction,AssemblyDrawing,Bot*
%FSLAX46Y46*%
G04 Gerber Fmt 4.6, Leading zero omitted, Abs format (unit mm)*
G04 Created by KiCad (PCBNEW 9.0.4) date 2025-10-13 14:39:45*
%MOMM*%
%LPD*%
G01*
G04 APERTURE LIST*
%ADD10C,0.150000*%
%ADD11C,0.040000*%
%ADD12C,0.060000*%
%ADD13C,0.080000*%
%ADD14C,0.120000*%
%ADD15C,0.100000*%
G04 APERTURE END LIST*
D10*
X153052380Y-82650057D02*
X153004761Y-82602438D01*
X153004761Y-82602438D02*
X152909523Y-82554819D01*
X152909523Y-82554819D02*
X152671428Y-82554819D01*
X152671428Y-82554819D02*
X152576190Y-82602438D01*
X152576190Y-82602438D02*
X152528571Y-82650057D01*
X152528571Y-82650057D02*
X152480952Y-82745295D01*
X152480952Y-82745295D02*
X152480952Y-82840533D01*
X152480952Y-82840533D02*
X152528571Y-82983390D01*
X152528571Y-82983390D02*
X153099999Y-83554819D01*
X153099999Y-83554819D02*
X152480952Y-83554819D01*
X152052380Y-83459580D02*
X152004761Y-83507200D01*
X152004761Y-83507200D02*
X152052380Y-83554819D01*
X152052380Y-83554819D02*
X152099999Y-83507200D01*
X152099999Y-83507200D02*
X152052380Y-83459580D01*
X152052380Y-83459580D02*
X152052380Y-83554819D01*
X151623809Y-82650057D02*
X151576190Y-82602438D01*
X151576190Y-82602438D02*
X151480952Y-82554819D01*
X151480952Y-82554819D02*
X151242857Y-82554819D01*
X151242857Y-82554819D02*
X151147619Y-82602438D01*
X151147619Y-82602438D02*
X151100000Y-82650057D01*
X151100000Y-82650057D02*
X151052381Y-82745295D01*
X151052381Y-82745295D02*
X151052381Y-82840533D01*
X151052381Y-82840533D02*
X151100000Y-82983390D01*
X151100000Y-82983390D02*
X151671428Y-83554819D01*
X151671428Y-83554819D02*
X151052381Y-83554819D01*
X150623809Y-82554819D02*
X150623809Y-83364342D01*
X150623809Y-83364342D02*
X150576190Y-83459580D01*
X150576190Y-83459580D02*
X150528571Y-83507200D01*
X150528571Y-83507200D02*
X150433333Y-83554819D01*
X150433333Y-83554819D02*
X150242857Y-83554819D01*
X150242857Y-83554819D02*
X150147619Y-83507200D01*
X150147619Y-83507200D02*
X150100000Y-83459580D01*
X150100000Y-83459580D02*
X150052381Y-83364342D01*
X150052381Y-83364342D02*
X150052381Y-82554819D01*
X149242857Y-83031009D02*
X149576190Y-83031009D01*
X149576190Y-83554819D02*
X149576190Y-82554819D01*
X149576190Y-82554819D02*
X149100000Y-82554819D01*
D11*
X151260714Y-84809765D02*
X151272618Y-84821670D01*
X151272618Y-84821670D02*
X151308333Y-84833574D01*
X151308333Y-84833574D02*
X151332142Y-84833574D01*
X151332142Y-84833574D02*
X151367856Y-84821670D01*
X151367856Y-84821670D02*
X151391666Y-84797860D01*
X151391666Y-84797860D02*
X151403571Y-84774050D01*
X151403571Y-84774050D02*
X151415475Y-84726431D01*
X151415475Y-84726431D02*
X151415475Y-84690717D01*
X151415475Y-84690717D02*
X151403571Y-84643098D01*
X151403571Y-84643098D02*
X151391666Y-84619289D01*
X151391666Y-84619289D02*
X151367856Y-84595479D01*
X151367856Y-84595479D02*
X151332142Y-84583574D01*
X151332142Y-84583574D02*
X151308333Y-84583574D01*
X151308333Y-84583574D02*
X151272618Y-84595479D01*
X151272618Y-84595479D02*
X151260714Y-84607384D01*
X151022618Y-84833574D02*
X151165475Y-84833574D01*
X151094047Y-84833574D02*
X151094047Y-84583574D01*
X151094047Y-84583574D02*
X151117856Y-84619289D01*
X151117856Y-84619289D02*
X151141666Y-84643098D01*
X151141666Y-84643098D02*
X151165475Y-84655003D01*
X150939285Y-84583574D02*
X150784523Y-84583574D01*
X150784523Y-84583574D02*
X150867857Y-84678812D01*
X150867857Y-84678812D02*
X150832142Y-84678812D01*
X150832142Y-84678812D02*
X150808333Y-84690717D01*
X150808333Y-84690717D02*
X150796428Y-84702622D01*
X150796428Y-84702622D02*
X150784523Y-84726431D01*
X150784523Y-84726431D02*
X150784523Y-84785955D01*
X150784523Y-84785955D02*
X150796428Y-84809765D01*
X150796428Y-84809765D02*
X150808333Y-84821670D01*
X150808333Y-84821670D02*
X150832142Y-84833574D01*
X150832142Y-84833574D02*
X150903571Y-84833574D01*
X150903571Y-84833574D02*
X150927380Y-84821670D01*
X150927380Y-84821670D02*
X150939285Y-84809765D01*
D10*
X143509524Y-100384819D02*
X144080952Y-100384819D01*
X143795238Y-100384819D02*
X143795238Y-99384819D01*
X143795238Y-99384819D02*
X143890476Y-99527676D01*
X143890476Y-99527676D02*
X143985714Y-99622914D01*
X143985714Y-99622914D02*
X144080952Y-99670533D01*
X142890476Y-99384819D02*
X142795238Y-99384819D01*
X142795238Y-99384819D02*
X142700000Y-99432438D01*
X142700000Y-99432438D02*
X142652381Y-99480057D01*
X142652381Y-99480057D02*
X142604762Y-99575295D01*
X142604762Y-99575295D02*
X142557143Y-99765771D01*
X142557143Y-99765771D02*
X142557143Y-100003866D01*
X142557143Y-100003866D02*
X142604762Y-100194342D01*
X142604762Y-100194342D02*
X142652381Y-100289580D01*
X142652381Y-100289580D02*
X142700000Y-100337200D01*
X142700000Y-100337200D02*
X142795238Y-100384819D01*
X142795238Y-100384819D02*
X142890476Y-100384819D01*
X142890476Y-100384819D02*
X142985714Y-100337200D01*
X142985714Y-100337200D02*
X143033333Y-100289580D01*
X143033333Y-100289580D02*
X143080952Y-100194342D01*
X143080952Y-100194342D02*
X143128571Y-100003866D01*
X143128571Y-100003866D02*
X143128571Y-99765771D01*
X143128571Y-99765771D02*
X143080952Y-99575295D01*
X143080952Y-99575295D02*
X143033333Y-99480057D01*
X143033333Y-99480057D02*
X142985714Y-99432438D01*
X142985714Y-99432438D02*
X142890476Y-99384819D01*
X140938095Y-99718152D02*
X140938095Y-100384819D01*
X141366666Y-99718152D02*
X141366666Y-100241961D01*
X141366666Y-100241961D02*
X141319047Y-100337200D01*
X141319047Y-100337200D02*
X141223809Y-100384819D01*
X141223809Y-100384819D02*
X141080952Y-100384819D01*
X141080952Y-100384819D02*
X140985714Y-100337200D01*
X140985714Y-100337200D02*
X140938095Y-100289580D01*
X140604761Y-99718152D02*
X140223809Y-99718152D01*
X140461904Y-100384819D02*
X140461904Y-99527676D01*
X140461904Y-99527676D02*
X140414285Y-99432438D01*
X140414285Y-99432438D02*
X140319047Y-99384819D01*
X140319047Y-99384819D02*
X140223809Y-99384819D01*
D12*
X142266666Y-98643832D02*
X142285714Y-98662880D01*
X142285714Y-98662880D02*
X142342856Y-98681927D01*
X142342856Y-98681927D02*
X142380952Y-98681927D01*
X142380952Y-98681927D02*
X142438095Y-98662880D01*
X142438095Y-98662880D02*
X142476190Y-98624784D01*
X142476190Y-98624784D02*
X142495237Y-98586689D01*
X142495237Y-98586689D02*
X142514285Y-98510499D01*
X142514285Y-98510499D02*
X142514285Y-98453356D01*
X142514285Y-98453356D02*
X142495237Y-98377165D01*
X142495237Y-98377165D02*
X142476190Y-98339070D01*
X142476190Y-98339070D02*
X142438095Y-98300975D01*
X142438095Y-98300975D02*
X142380952Y-98281927D01*
X142380952Y-98281927D02*
X142342856Y-98281927D01*
X142342856Y-98281927D02*
X142285714Y-98300975D01*
X142285714Y-98300975D02*
X142266666Y-98320022D01*
X142076190Y-98681927D02*
X141999999Y-98681927D01*
X141999999Y-98681927D02*
X141961904Y-98662880D01*
X141961904Y-98662880D02*
X141942856Y-98643832D01*
X141942856Y-98643832D02*
X141904761Y-98586689D01*
X141904761Y-98586689D02*
X141885714Y-98510499D01*
X141885714Y-98510499D02*
X141885714Y-98358118D01*
X141885714Y-98358118D02*
X141904761Y-98320022D01*
X141904761Y-98320022D02*
X141923809Y-98300975D01*
X141923809Y-98300975D02*
X141961904Y-98281927D01*
X141961904Y-98281927D02*
X142038095Y-98281927D01*
X142038095Y-98281927D02*
X142076190Y-98300975D01*
X142076190Y-98300975D02*
X142095237Y-98320022D01*
X142095237Y-98320022D02*
X142114285Y-98358118D01*
X142114285Y-98358118D02*
X142114285Y-98453356D01*
X142114285Y-98453356D02*
X142095237Y-98491451D01*
X142095237Y-98491451D02*
X142076190Y-98510499D01*
X142076190Y-98510499D02*
X142038095Y-98529546D01*
X142038095Y-98529546D02*
X141961904Y-98529546D01*
X141961904Y-98529546D02*
X141923809Y-98510499D01*
X141923809Y-98510499D02*
X141904761Y-98491451D01*
X141904761Y-98491451D02*
X141885714Y-98453356D01*
D10*
X148735714Y-93054819D02*
X149307142Y-93054819D01*
X149021428Y-93054819D02*
X149021428Y-92054819D01*
X149021428Y-92054819D02*
X149116666Y-92197676D01*
X149116666Y-92197676D02*
X149211904Y-92292914D01*
X149211904Y-92292914D02*
X149307142Y-92340533D01*
X148116666Y-92054819D02*
X148021428Y-92054819D01*
X148021428Y-92054819D02*
X147926190Y-92102438D01*
X147926190Y-92102438D02*
X147878571Y-92150057D01*
X147878571Y-92150057D02*
X147830952Y-92245295D01*
X147830952Y-92245295D02*
X147783333Y-92435771D01*
X147783333Y-92435771D02*
X147783333Y-92673866D01*
X147783333Y-92673866D02*
X147830952Y-92864342D01*
X147830952Y-92864342D02*
X147878571Y-92959580D01*
X147878571Y-92959580D02*
X147926190Y-93007200D01*
X147926190Y-93007200D02*
X148021428Y-93054819D01*
X148021428Y-93054819D02*
X148116666Y-93054819D01*
X148116666Y-93054819D02*
X148211904Y-93007200D01*
X148211904Y-93007200D02*
X148259523Y-92959580D01*
X148259523Y-92959580D02*
X148307142Y-92864342D01*
X148307142Y-92864342D02*
X148354761Y-92673866D01*
X148354761Y-92673866D02*
X148354761Y-92435771D01*
X148354761Y-92435771D02*
X148307142Y-92245295D01*
X148307142Y-92245295D02*
X148259523Y-92150057D01*
X148259523Y-92150057D02*
X148211904Y-92102438D01*
X148211904Y-92102438D02*
X148116666Y-92054819D01*
X147164285Y-92054819D02*
X147069047Y-92054819D01*
X147069047Y-92054819D02*
X146973809Y-92102438D01*
X146973809Y-92102438D02*
X146926190Y-92150057D01*
X146926190Y-92150057D02*
X146878571Y-92245295D01*
X146878571Y-92245295D02*
X146830952Y-92435771D01*
X146830952Y-92435771D02*
X146830952Y-92673866D01*
X146830952Y-92673866D02*
X146878571Y-92864342D01*
X146878571Y-92864342D02*
X146926190Y-92959580D01*
X146926190Y-92959580D02*
X146973809Y-93007200D01*
X146973809Y-93007200D02*
X147069047Y-93054819D01*
X147069047Y-93054819D02*
X147164285Y-93054819D01*
X147164285Y-93054819D02*
X147259523Y-93007200D01*
X147259523Y-93007200D02*
X147307142Y-92959580D01*
X147307142Y-92959580D02*
X147354761Y-92864342D01*
X147354761Y-92864342D02*
X147402380Y-92673866D01*
X147402380Y-92673866D02*
X147402380Y-92435771D01*
X147402380Y-92435771D02*
X147354761Y-92245295D01*
X147354761Y-92245295D02*
X147307142Y-92150057D01*
X147307142Y-92150057D02*
X147259523Y-92102438D01*
X147259523Y-92102438D02*
X147164285Y-92054819D01*
X145640475Y-92388152D02*
X145640475Y-93054819D01*
X145640475Y-92483390D02*
X145592856Y-92435771D01*
X145592856Y-92435771D02*
X145497618Y-92388152D01*
X145497618Y-92388152D02*
X145354761Y-92388152D01*
X145354761Y-92388152D02*
X145259523Y-92435771D01*
X145259523Y-92435771D02*
X145211904Y-92531009D01*
X145211904Y-92531009D02*
X145211904Y-93054819D01*
X144878570Y-92388152D02*
X144497618Y-92388152D01*
X144735713Y-93054819D02*
X144735713Y-92197676D01*
X144735713Y-92197676D02*
X144688094Y-92102438D01*
X144688094Y-92102438D02*
X144592856Y-92054819D01*
X144592856Y-92054819D02*
X144497618Y-92054819D01*
D11*
X147110714Y-91069765D02*
X147122618Y-91081670D01*
X147122618Y-91081670D02*
X147158333Y-91093574D01*
X147158333Y-91093574D02*
X147182142Y-91093574D01*
X147182142Y-91093574D02*
X147217856Y-91081670D01*
X147217856Y-91081670D02*
X147241666Y-91057860D01*
X147241666Y-91057860D02*
X147253571Y-91034050D01*
X147253571Y-91034050D02*
X147265475Y-90986431D01*
X147265475Y-90986431D02*
X147265475Y-90950717D01*
X147265475Y-90950717D02*
X147253571Y-90903098D01*
X147253571Y-90903098D02*
X147241666Y-90879289D01*
X147241666Y-90879289D02*
X147217856Y-90855479D01*
X147217856Y-90855479D02*
X147182142Y-90843574D01*
X147182142Y-90843574D02*
X147158333Y-90843574D01*
X147158333Y-90843574D02*
X147122618Y-90855479D01*
X147122618Y-90855479D02*
X147110714Y-90867384D01*
X146872618Y-91093574D02*
X147015475Y-91093574D01*
X146944047Y-91093574D02*
X146944047Y-90843574D01*
X146944047Y-90843574D02*
X146967856Y-90879289D01*
X146967856Y-90879289D02*
X146991666Y-90903098D01*
X146991666Y-90903098D02*
X147015475Y-90915003D01*
X146658333Y-90843574D02*
X146705952Y-90843574D01*
X146705952Y-90843574D02*
X146729761Y-90855479D01*
X146729761Y-90855479D02*
X146741666Y-90867384D01*
X146741666Y-90867384D02*
X146765476Y-90903098D01*
X146765476Y-90903098D02*
X146777380Y-90950717D01*
X146777380Y-90950717D02*
X146777380Y-91045955D01*
X146777380Y-91045955D02*
X146765476Y-91069765D01*
X146765476Y-91069765D02*
X146753571Y-91081670D01*
X146753571Y-91081670D02*
X146729761Y-91093574D01*
X146729761Y-91093574D02*
X146682142Y-91093574D01*
X146682142Y-91093574D02*
X146658333Y-91081670D01*
X146658333Y-91081670D02*
X146646428Y-91069765D01*
X146646428Y-91069765D02*
X146634523Y-91045955D01*
X146634523Y-91045955D02*
X146634523Y-90986431D01*
X146634523Y-90986431D02*
X146646428Y-90962622D01*
X146646428Y-90962622D02*
X146658333Y-90950717D01*
X146658333Y-90950717D02*
X146682142Y-90938812D01*
X146682142Y-90938812D02*
X146729761Y-90938812D01*
X146729761Y-90938812D02*
X146753571Y-90950717D01*
X146753571Y-90950717D02*
X146765476Y-90962622D01*
X146765476Y-90962622D02*
X146777380Y-90986431D01*
D10*
X150926190Y-78025057D02*
X150878571Y-77977438D01*
X150878571Y-77977438D02*
X150783333Y-77929819D01*
X150783333Y-77929819D02*
X150545238Y-77929819D01*
X150545238Y-77929819D02*
X150450000Y-77977438D01*
X150450000Y-77977438D02*
X150402381Y-78025057D01*
X150402381Y-78025057D02*
X150354762Y-78120295D01*
X150354762Y-78120295D02*
X150354762Y-78215533D01*
X150354762Y-78215533D02*
X150402381Y-78358390D01*
X150402381Y-78358390D02*
X150973809Y-78929819D01*
X150973809Y-78929819D02*
X150354762Y-78929819D01*
X149973809Y-78025057D02*
X149926190Y-77977438D01*
X149926190Y-77977438D02*
X149830952Y-77929819D01*
X149830952Y-77929819D02*
X149592857Y-77929819D01*
X149592857Y-77929819D02*
X149497619Y-77977438D01*
X149497619Y-77977438D02*
X149450000Y-78025057D01*
X149450000Y-78025057D02*
X149402381Y-78120295D01*
X149402381Y-78120295D02*
X149402381Y-78215533D01*
X149402381Y-78215533D02*
X149450000Y-78358390D01*
X149450000Y-78358390D02*
X150021428Y-78929819D01*
X150021428Y-78929819D02*
X149402381Y-78929819D01*
X148783333Y-77929819D02*
X148688095Y-77929819D01*
X148688095Y-77929819D02*
X148592857Y-77977438D01*
X148592857Y-77977438D02*
X148545238Y-78025057D01*
X148545238Y-78025057D02*
X148497619Y-78120295D01*
X148497619Y-78120295D02*
X148450000Y-78310771D01*
X148450000Y-78310771D02*
X148450000Y-78548866D01*
X148450000Y-78548866D02*
X148497619Y-78739342D01*
X148497619Y-78739342D02*
X148545238Y-78834580D01*
X148545238Y-78834580D02*
X148592857Y-78882200D01*
X148592857Y-78882200D02*
X148688095Y-78929819D01*
X148688095Y-78929819D02*
X148783333Y-78929819D01*
X148783333Y-78929819D02*
X148878571Y-78882200D01*
X148878571Y-78882200D02*
X148926190Y-78834580D01*
X148926190Y-78834580D02*
X148973809Y-78739342D01*
X148973809Y-78739342D02*
X149021428Y-78548866D01*
X149021428Y-78548866D02*
X149021428Y-78310771D01*
X149021428Y-78310771D02*
X148973809Y-78120295D01*
X148973809Y-78120295D02*
X148926190Y-78025057D01*
X148926190Y-78025057D02*
X148878571Y-77977438D01*
X148878571Y-77977438D02*
X148783333Y-77929819D01*
X148021428Y-78263152D02*
X148021428Y-78929819D01*
X148021428Y-78358390D02*
X147973809Y-78310771D01*
X147973809Y-78310771D02*
X147878571Y-78263152D01*
X147878571Y-78263152D02*
X147735714Y-78263152D01*
X147735714Y-78263152D02*
X147640476Y-78310771D01*
X147640476Y-78310771D02*
X147592857Y-78406009D01*
X147592857Y-78406009D02*
X147592857Y-78929819D01*
X147259523Y-78263152D02*
X146878571Y-78263152D01*
X147116666Y-78929819D02*
X147116666Y-78072676D01*
X147116666Y-78072676D02*
X147069047Y-77977438D01*
X147069047Y-77977438D02*
X146973809Y-77929819D01*
X146973809Y-77929819D02*
X146878571Y-77929819D01*
D11*
X149110714Y-80184765D02*
X149122618Y-80196670D01*
X149122618Y-80196670D02*
X149158333Y-80208574D01*
X149158333Y-80208574D02*
X149182142Y-80208574D01*
X149182142Y-80208574D02*
X149217856Y-80196670D01*
X149217856Y-80196670D02*
X149241666Y-80172860D01*
X149241666Y-80172860D02*
X149253571Y-80149050D01*
X149253571Y-80149050D02*
X149265475Y-80101431D01*
X149265475Y-80101431D02*
X149265475Y-80065717D01*
X149265475Y-80065717D02*
X149253571Y-80018098D01*
X149253571Y-80018098D02*
X149241666Y-79994289D01*
X149241666Y-79994289D02*
X149217856Y-79970479D01*
X149217856Y-79970479D02*
X149182142Y-79958574D01*
X149182142Y-79958574D02*
X149158333Y-79958574D01*
X149158333Y-79958574D02*
X149122618Y-79970479D01*
X149122618Y-79970479D02*
X149110714Y-79982384D01*
X149015475Y-79982384D02*
X149003571Y-79970479D01*
X149003571Y-79970479D02*
X148979761Y-79958574D01*
X148979761Y-79958574D02*
X148920237Y-79958574D01*
X148920237Y-79958574D02*
X148896428Y-79970479D01*
X148896428Y-79970479D02*
X148884523Y-79982384D01*
X148884523Y-79982384D02*
X148872618Y-80006193D01*
X148872618Y-80006193D02*
X148872618Y-80030003D01*
X148872618Y-80030003D02*
X148884523Y-80065717D01*
X148884523Y-80065717D02*
X149027380Y-80208574D01*
X149027380Y-80208574D02*
X148872618Y-80208574D01*
X148717857Y-79958574D02*
X148694047Y-79958574D01*
X148694047Y-79958574D02*
X148670238Y-79970479D01*
X148670238Y-79970479D02*
X148658333Y-79982384D01*
X148658333Y-79982384D02*
X148646428Y-80006193D01*
X148646428Y-80006193D02*
X148634523Y-80053812D01*
X148634523Y-80053812D02*
X148634523Y-80113336D01*
X148634523Y-80113336D02*
X148646428Y-80160955D01*
X148646428Y-80160955D02*
X148658333Y-80184765D01*
X148658333Y-80184765D02*
X148670238Y-80196670D01*
X148670238Y-80196670D02*
X148694047Y-80208574D01*
X148694047Y-80208574D02*
X148717857Y-80208574D01*
X148717857Y-80208574D02*
X148741666Y-80196670D01*
X148741666Y-80196670D02*
X148753571Y-80184765D01*
X148753571Y-80184765D02*
X148765476Y-80160955D01*
X148765476Y-80160955D02*
X148777380Y-80113336D01*
X148777380Y-80113336D02*
X148777380Y-80053812D01*
X148777380Y-80053812D02*
X148765476Y-80006193D01*
X148765476Y-80006193D02*
X148753571Y-79982384D01*
X148753571Y-79982384D02*
X148741666Y-79970479D01*
X148741666Y-79970479D02*
X148717857Y-79958574D01*
D10*
X150554819Y-79527380D02*
X150554819Y-78955952D01*
X150554819Y-79241666D02*
X149554819Y-79241666D01*
X149554819Y-79241666D02*
X149697676Y-79146428D01*
X149697676Y-79146428D02*
X149792914Y-79051190D01*
X149792914Y-79051190D02*
X149840533Y-78955952D01*
X149554819Y-80146428D02*
X149554819Y-80241666D01*
X149554819Y-80241666D02*
X149602438Y-80336904D01*
X149602438Y-80336904D02*
X149650057Y-80384523D01*
X149650057Y-80384523D02*
X149745295Y-80432142D01*
X149745295Y-80432142D02*
X149935771Y-80479761D01*
X149935771Y-80479761D02*
X150173866Y-80479761D01*
X150173866Y-80479761D02*
X150364342Y-80432142D01*
X150364342Y-80432142D02*
X150459580Y-80384523D01*
X150459580Y-80384523D02*
X150507200Y-80336904D01*
X150507200Y-80336904D02*
X150554819Y-80241666D01*
X150554819Y-80241666D02*
X150554819Y-80146428D01*
X150554819Y-80146428D02*
X150507200Y-80051190D01*
X150507200Y-80051190D02*
X150459580Y-80003571D01*
X150459580Y-80003571D02*
X150364342Y-79955952D01*
X150364342Y-79955952D02*
X150173866Y-79908333D01*
X150173866Y-79908333D02*
X149935771Y-79908333D01*
X149935771Y-79908333D02*
X149745295Y-79955952D01*
X149745295Y-79955952D02*
X149650057Y-80003571D01*
X149650057Y-80003571D02*
X149602438Y-80051190D01*
X149602438Y-80051190D02*
X149554819Y-80146428D01*
X149554819Y-81098809D02*
X149554819Y-81194047D01*
X149554819Y-81194047D02*
X149602438Y-81289285D01*
X149602438Y-81289285D02*
X149650057Y-81336904D01*
X149650057Y-81336904D02*
X149745295Y-81384523D01*
X149745295Y-81384523D02*
X149935771Y-81432142D01*
X149935771Y-81432142D02*
X150173866Y-81432142D01*
X150173866Y-81432142D02*
X150364342Y-81384523D01*
X150364342Y-81384523D02*
X150459580Y-81336904D01*
X150459580Y-81336904D02*
X150507200Y-81289285D01*
X150507200Y-81289285D02*
X150554819Y-81194047D01*
X150554819Y-81194047D02*
X150554819Y-81098809D01*
X150554819Y-81098809D02*
X150507200Y-81003571D01*
X150507200Y-81003571D02*
X150459580Y-80955952D01*
X150459580Y-80955952D02*
X150364342Y-80908333D01*
X150364342Y-80908333D02*
X150173866Y-80860714D01*
X150173866Y-80860714D02*
X149935771Y-80860714D01*
X149935771Y-80860714D02*
X149745295Y-80908333D01*
X149745295Y-80908333D02*
X149650057Y-80955952D01*
X149650057Y-80955952D02*
X149602438Y-81003571D01*
X149602438Y-81003571D02*
X149554819Y-81098809D01*
X149888152Y-81860714D02*
X150554819Y-81860714D01*
X149983390Y-81860714D02*
X149935771Y-81908333D01*
X149935771Y-81908333D02*
X149888152Y-82003571D01*
X149888152Y-82003571D02*
X149888152Y-82146428D01*
X149888152Y-82146428D02*
X149935771Y-82241666D01*
X149935771Y-82241666D02*
X150031009Y-82289285D01*
X150031009Y-82289285D02*
X150554819Y-82289285D01*
X150031009Y-83098809D02*
X150031009Y-82765476D01*
X150554819Y-82765476D02*
X149554819Y-82765476D01*
X149554819Y-82765476D02*
X149554819Y-83241666D01*
D11*
X151809765Y-80914285D02*
X151821670Y-80902381D01*
X151821670Y-80902381D02*
X151833574Y-80866666D01*
X151833574Y-80866666D02*
X151833574Y-80842857D01*
X151833574Y-80842857D02*
X151821670Y-80807143D01*
X151821670Y-80807143D02*
X151797860Y-80783333D01*
X151797860Y-80783333D02*
X151774050Y-80771428D01*
X151774050Y-80771428D02*
X151726431Y-80759524D01*
X151726431Y-80759524D02*
X151690717Y-80759524D01*
X151690717Y-80759524D02*
X151643098Y-80771428D01*
X151643098Y-80771428D02*
X151619289Y-80783333D01*
X151619289Y-80783333D02*
X151595479Y-80807143D01*
X151595479Y-80807143D02*
X151583574Y-80842857D01*
X151583574Y-80842857D02*
X151583574Y-80866666D01*
X151583574Y-80866666D02*
X151595479Y-80902381D01*
X151595479Y-80902381D02*
X151607384Y-80914285D01*
X151607384Y-81009524D02*
X151595479Y-81021428D01*
X151595479Y-81021428D02*
X151583574Y-81045238D01*
X151583574Y-81045238D02*
X151583574Y-81104762D01*
X151583574Y-81104762D02*
X151595479Y-81128571D01*
X151595479Y-81128571D02*
X151607384Y-81140476D01*
X151607384Y-81140476D02*
X151631193Y-81152381D01*
X151631193Y-81152381D02*
X151655003Y-81152381D01*
X151655003Y-81152381D02*
X151690717Y-81140476D01*
X151690717Y-81140476D02*
X151833574Y-80997619D01*
X151833574Y-80997619D02*
X151833574Y-81152381D01*
X151583574Y-81235714D02*
X151583574Y-81390476D01*
X151583574Y-81390476D02*
X151678812Y-81307142D01*
X151678812Y-81307142D02*
X151678812Y-81342857D01*
X151678812Y-81342857D02*
X151690717Y-81366666D01*
X151690717Y-81366666D02*
X151702622Y-81378571D01*
X151702622Y-81378571D02*
X151726431Y-81390476D01*
X151726431Y-81390476D02*
X151785955Y-81390476D01*
X151785955Y-81390476D02*
X151809765Y-81378571D01*
X151809765Y-81378571D02*
X151821670Y-81366666D01*
X151821670Y-81366666D02*
X151833574Y-81342857D01*
X151833574Y-81342857D02*
X151833574Y-81271428D01*
X151833574Y-81271428D02*
X151821670Y-81247619D01*
X151821670Y-81247619D02*
X151809765Y-81235714D01*
D10*
X137488094Y-81250057D02*
X137440475Y-81202438D01*
X137440475Y-81202438D02*
X137345237Y-81154819D01*
X137345237Y-81154819D02*
X137107142Y-81154819D01*
X137107142Y-81154819D02*
X137011904Y-81202438D01*
X137011904Y-81202438D02*
X136964285Y-81250057D01*
X136964285Y-81250057D02*
X136916666Y-81345295D01*
X136916666Y-81345295D02*
X136916666Y-81440533D01*
X136916666Y-81440533D02*
X136964285Y-81583390D01*
X136964285Y-81583390D02*
X137535713Y-82154819D01*
X137535713Y-82154819D02*
X136916666Y-82154819D01*
X136535713Y-81250057D02*
X136488094Y-81202438D01*
X136488094Y-81202438D02*
X136392856Y-81154819D01*
X136392856Y-81154819D02*
X136154761Y-81154819D01*
X136154761Y-81154819D02*
X136059523Y-81202438D01*
X136059523Y-81202438D02*
X136011904Y-81250057D01*
X136011904Y-81250057D02*
X135964285Y-81345295D01*
X135964285Y-81345295D02*
X135964285Y-81440533D01*
X135964285Y-81440533D02*
X136011904Y-81583390D01*
X136011904Y-81583390D02*
X136583332Y-82154819D01*
X136583332Y-82154819D02*
X135964285Y-82154819D01*
X135107142Y-81488152D02*
X135107142Y-82154819D01*
X135535713Y-81488152D02*
X135535713Y-82011961D01*
X135535713Y-82011961D02*
X135488094Y-82107200D01*
X135488094Y-82107200D02*
X135392856Y-82154819D01*
X135392856Y-82154819D02*
X135249999Y-82154819D01*
X135249999Y-82154819D02*
X135154761Y-82107200D01*
X135154761Y-82107200D02*
X135107142Y-82059580D01*
X134630951Y-82154819D02*
X134630951Y-81154819D01*
X134630951Y-81631009D02*
X134059523Y-81631009D01*
X134059523Y-82154819D02*
X134059523Y-81154819D01*
X135916666Y-85704819D02*
X136392856Y-85704819D01*
X136392856Y-85704819D02*
X136392856Y-84704819D01*
X135059523Y-85704819D02*
X135630951Y-85704819D01*
X135345237Y-85704819D02*
X135345237Y-84704819D01*
X135345237Y-84704819D02*
X135440475Y-84847676D01*
X135440475Y-84847676D02*
X135535713Y-84942914D01*
X135535713Y-84942914D02*
X135630951Y-84990533D01*
X146716366Y-80813095D02*
X146668747Y-80860714D01*
X146668747Y-80860714D02*
X146621128Y-80955952D01*
X146621128Y-80955952D02*
X146716366Y-81146428D01*
X146716366Y-81146428D02*
X146668747Y-81241666D01*
X146668747Y-81241666D02*
X146621128Y-81289285D01*
X142669154Y-92873866D02*
X142621535Y-92826247D01*
X142621535Y-92826247D02*
X142526297Y-92778628D01*
X142526297Y-92778628D02*
X142335821Y-92873866D01*
X142335821Y-92873866D02*
X142240583Y-92826247D01*
X142240583Y-92826247D02*
X142192964Y-92778628D01*
X148592857Y-93038152D02*
X148592857Y-93704819D01*
X148830952Y-92657200D02*
X149069047Y-93371485D01*
X149069047Y-93371485D02*
X148450000Y-93371485D01*
X148069047Y-93609580D02*
X148021428Y-93657200D01*
X148021428Y-93657200D02*
X148069047Y-93704819D01*
X148069047Y-93704819D02*
X148116666Y-93657200D01*
X148116666Y-93657200D02*
X148069047Y-93609580D01*
X148069047Y-93609580D02*
X148069047Y-93704819D01*
X147688095Y-92704819D02*
X147021429Y-92704819D01*
X147021429Y-92704819D02*
X147450000Y-93704819D01*
X145450000Y-93038152D02*
X145450000Y-93704819D01*
X145878571Y-93038152D02*
X145878571Y-93561961D01*
X145878571Y-93561961D02*
X145830952Y-93657200D01*
X145830952Y-93657200D02*
X145735714Y-93704819D01*
X145735714Y-93704819D02*
X145592857Y-93704819D01*
X145592857Y-93704819D02*
X145497619Y-93657200D01*
X145497619Y-93657200D02*
X145450000Y-93609580D01*
X145116666Y-93038152D02*
X144735714Y-93038152D01*
X144973809Y-93704819D02*
X144973809Y-92847676D01*
X144973809Y-92847676D02*
X144926190Y-92752438D01*
X144926190Y-92752438D02*
X144830952Y-92704819D01*
X144830952Y-92704819D02*
X144735714Y-92704819D01*
D11*
X147110714Y-91719765D02*
X147122618Y-91731670D01*
X147122618Y-91731670D02*
X147158333Y-91743574D01*
X147158333Y-91743574D02*
X147182142Y-91743574D01*
X147182142Y-91743574D02*
X147217856Y-91731670D01*
X147217856Y-91731670D02*
X147241666Y-91707860D01*
X147241666Y-91707860D02*
X147253571Y-91684050D01*
X147253571Y-91684050D02*
X147265475Y-91636431D01*
X147265475Y-91636431D02*
X147265475Y-91600717D01*
X147265475Y-91600717D02*
X147253571Y-91553098D01*
X147253571Y-91553098D02*
X147241666Y-91529289D01*
X147241666Y-91529289D02*
X147217856Y-91505479D01*
X147217856Y-91505479D02*
X147182142Y-91493574D01*
X147182142Y-91493574D02*
X147158333Y-91493574D01*
X147158333Y-91493574D02*
X147122618Y-91505479D01*
X147122618Y-91505479D02*
X147110714Y-91517384D01*
X146872618Y-91743574D02*
X147015475Y-91743574D01*
X146944047Y-91743574D02*
X146944047Y-91493574D01*
X146944047Y-91493574D02*
X146967856Y-91529289D01*
X146967856Y-91529289D02*
X146991666Y-91553098D01*
X146991666Y-91553098D02*
X147015475Y-91565003D01*
X146789285Y-91493574D02*
X146622619Y-91493574D01*
X146622619Y-91493574D02*
X146729761Y-91743574D01*
D10*
X154635714Y-84704819D02*
X155207142Y-84704819D01*
X154921428Y-84704819D02*
X154921428Y-83704819D01*
X154921428Y-83704819D02*
X155016666Y-83847676D01*
X155016666Y-83847676D02*
X155111904Y-83942914D01*
X155111904Y-83942914D02*
X155207142Y-83990533D01*
X154016666Y-83704819D02*
X153921428Y-83704819D01*
X153921428Y-83704819D02*
X153826190Y-83752438D01*
X153826190Y-83752438D02*
X153778571Y-83800057D01*
X153778571Y-83800057D02*
X153730952Y-83895295D01*
X153730952Y-83895295D02*
X153683333Y-84085771D01*
X153683333Y-84085771D02*
X153683333Y-84323866D01*
X153683333Y-84323866D02*
X153730952Y-84514342D01*
X153730952Y-84514342D02*
X153778571Y-84609580D01*
X153778571Y-84609580D02*
X153826190Y-84657200D01*
X153826190Y-84657200D02*
X153921428Y-84704819D01*
X153921428Y-84704819D02*
X154016666Y-84704819D01*
X154016666Y-84704819D02*
X154111904Y-84657200D01*
X154111904Y-84657200D02*
X154159523Y-84609580D01*
X154159523Y-84609580D02*
X154207142Y-84514342D01*
X154207142Y-84514342D02*
X154254761Y-84323866D01*
X154254761Y-84323866D02*
X154254761Y-84085771D01*
X154254761Y-84085771D02*
X154207142Y-83895295D01*
X154207142Y-83895295D02*
X154159523Y-83800057D01*
X154159523Y-83800057D02*
X154111904Y-83752438D01*
X154111904Y-83752438D02*
X154016666Y-83704819D01*
X153064285Y-83704819D02*
X152969047Y-83704819D01*
X152969047Y-83704819D02*
X152873809Y-83752438D01*
X152873809Y-83752438D02*
X152826190Y-83800057D01*
X152826190Y-83800057D02*
X152778571Y-83895295D01*
X152778571Y-83895295D02*
X152730952Y-84085771D01*
X152730952Y-84085771D02*
X152730952Y-84323866D01*
X152730952Y-84323866D02*
X152778571Y-84514342D01*
X152778571Y-84514342D02*
X152826190Y-84609580D01*
X152826190Y-84609580D02*
X152873809Y-84657200D01*
X152873809Y-84657200D02*
X152969047Y-84704819D01*
X152969047Y-84704819D02*
X153064285Y-84704819D01*
X153064285Y-84704819D02*
X153159523Y-84657200D01*
X153159523Y-84657200D02*
X153207142Y-84609580D01*
X153207142Y-84609580D02*
X153254761Y-84514342D01*
X153254761Y-84514342D02*
X153302380Y-84323866D01*
X153302380Y-84323866D02*
X153302380Y-84085771D01*
X153302380Y-84085771D02*
X153254761Y-83895295D01*
X153254761Y-83895295D02*
X153207142Y-83800057D01*
X153207142Y-83800057D02*
X153159523Y-83752438D01*
X153159523Y-83752438D02*
X153064285Y-83704819D01*
X151540475Y-84038152D02*
X151540475Y-84704819D01*
X151540475Y-84133390D02*
X151492856Y-84085771D01*
X151492856Y-84085771D02*
X151397618Y-84038152D01*
X151397618Y-84038152D02*
X151254761Y-84038152D01*
X151254761Y-84038152D02*
X151159523Y-84085771D01*
X151159523Y-84085771D02*
X151111904Y-84181009D01*
X151111904Y-84181009D02*
X151111904Y-84704819D01*
X150778570Y-84038152D02*
X150397618Y-84038152D01*
X150635713Y-84704819D02*
X150635713Y-83847676D01*
X150635713Y-83847676D02*
X150588094Y-83752438D01*
X150588094Y-83752438D02*
X150492856Y-83704819D01*
X150492856Y-83704819D02*
X150397618Y-83704819D01*
D11*
X153010714Y-85959765D02*
X153022618Y-85971670D01*
X153022618Y-85971670D02*
X153058333Y-85983574D01*
X153058333Y-85983574D02*
X153082142Y-85983574D01*
X153082142Y-85983574D02*
X153117856Y-85971670D01*
X153117856Y-85971670D02*
X153141666Y-85947860D01*
X153141666Y-85947860D02*
X153153571Y-85924050D01*
X153153571Y-85924050D02*
X153165475Y-85876431D01*
X153165475Y-85876431D02*
X153165475Y-85840717D01*
X153165475Y-85840717D02*
X153153571Y-85793098D01*
X153153571Y-85793098D02*
X153141666Y-85769289D01*
X153141666Y-85769289D02*
X153117856Y-85745479D01*
X153117856Y-85745479D02*
X153082142Y-85733574D01*
X153082142Y-85733574D02*
X153058333Y-85733574D01*
X153058333Y-85733574D02*
X153022618Y-85745479D01*
X153022618Y-85745479D02*
X153010714Y-85757384D01*
X152772618Y-85983574D02*
X152915475Y-85983574D01*
X152844047Y-85983574D02*
X152844047Y-85733574D01*
X152844047Y-85733574D02*
X152867856Y-85769289D01*
X152867856Y-85769289D02*
X152891666Y-85793098D01*
X152891666Y-85793098D02*
X152915475Y-85805003D01*
X152558333Y-85816908D02*
X152558333Y-85983574D01*
X152617857Y-85721670D02*
X152677380Y-85900241D01*
X152677380Y-85900241D02*
X152522619Y-85900241D01*
D10*
X151154819Y-79527380D02*
X151154819Y-78955952D01*
X151154819Y-79241666D02*
X150154819Y-79241666D01*
X150154819Y-79241666D02*
X150297676Y-79146428D01*
X150297676Y-79146428D02*
X150392914Y-79051190D01*
X150392914Y-79051190D02*
X150440533Y-78955952D01*
X150154819Y-80146428D02*
X150154819Y-80241666D01*
X150154819Y-80241666D02*
X150202438Y-80336904D01*
X150202438Y-80336904D02*
X150250057Y-80384523D01*
X150250057Y-80384523D02*
X150345295Y-80432142D01*
X150345295Y-80432142D02*
X150535771Y-80479761D01*
X150535771Y-80479761D02*
X150773866Y-80479761D01*
X150773866Y-80479761D02*
X150964342Y-80432142D01*
X150964342Y-80432142D02*
X151059580Y-80384523D01*
X151059580Y-80384523D02*
X151107200Y-80336904D01*
X151107200Y-80336904D02*
X151154819Y-80241666D01*
X151154819Y-80241666D02*
X151154819Y-80146428D01*
X151154819Y-80146428D02*
X151107200Y-80051190D01*
X151107200Y-80051190D02*
X151059580Y-80003571D01*
X151059580Y-80003571D02*
X150964342Y-79955952D01*
X150964342Y-79955952D02*
X150773866Y-79908333D01*
X150773866Y-79908333D02*
X150535771Y-79908333D01*
X150535771Y-79908333D02*
X150345295Y-79955952D01*
X150345295Y-79955952D02*
X150250057Y-80003571D01*
X150250057Y-80003571D02*
X150202438Y-80051190D01*
X150202438Y-80051190D02*
X150154819Y-80146428D01*
X150154819Y-81098809D02*
X150154819Y-81194047D01*
X150154819Y-81194047D02*
X150202438Y-81289285D01*
X150202438Y-81289285D02*
X150250057Y-81336904D01*
X150250057Y-81336904D02*
X150345295Y-81384523D01*
X150345295Y-81384523D02*
X150535771Y-81432142D01*
X150535771Y-81432142D02*
X150773866Y-81432142D01*
X150773866Y-81432142D02*
X150964342Y-81384523D01*
X150964342Y-81384523D02*
X151059580Y-81336904D01*
X151059580Y-81336904D02*
X151107200Y-81289285D01*
X151107200Y-81289285D02*
X151154819Y-81194047D01*
X151154819Y-81194047D02*
X151154819Y-81098809D01*
X151154819Y-81098809D02*
X151107200Y-81003571D01*
X151107200Y-81003571D02*
X151059580Y-80955952D01*
X151059580Y-80955952D02*
X150964342Y-80908333D01*
X150964342Y-80908333D02*
X150773866Y-80860714D01*
X150773866Y-80860714D02*
X150535771Y-80860714D01*
X150535771Y-80860714D02*
X150345295Y-80908333D01*
X150345295Y-80908333D02*
X150250057Y-80955952D01*
X150250057Y-80955952D02*
X150202438Y-81003571D01*
X150202438Y-81003571D02*
X150154819Y-81098809D01*
X150488152Y-81860714D02*
X151154819Y-81860714D01*
X150583390Y-81860714D02*
X150535771Y-81908333D01*
X150535771Y-81908333D02*
X150488152Y-82003571D01*
X150488152Y-82003571D02*
X150488152Y-82146428D01*
X150488152Y-82146428D02*
X150535771Y-82241666D01*
X150535771Y-82241666D02*
X150631009Y-82289285D01*
X150631009Y-82289285D02*
X151154819Y-82289285D01*
X150631009Y-83098809D02*
X150631009Y-82765476D01*
X151154819Y-82765476D02*
X150154819Y-82765476D01*
X150154819Y-82765476D02*
X150154819Y-83241666D01*
D11*
X152409765Y-80914285D02*
X152421670Y-80902381D01*
X152421670Y-80902381D02*
X152433574Y-80866666D01*
X152433574Y-80866666D02*
X152433574Y-80842857D01*
X152433574Y-80842857D02*
X152421670Y-80807143D01*
X152421670Y-80807143D02*
X152397860Y-80783333D01*
X152397860Y-80783333D02*
X152374050Y-80771428D01*
X152374050Y-80771428D02*
X152326431Y-80759524D01*
X152326431Y-80759524D02*
X152290717Y-80759524D01*
X152290717Y-80759524D02*
X152243098Y-80771428D01*
X152243098Y-80771428D02*
X152219289Y-80783333D01*
X152219289Y-80783333D02*
X152195479Y-80807143D01*
X152195479Y-80807143D02*
X152183574Y-80842857D01*
X152183574Y-80842857D02*
X152183574Y-80866666D01*
X152183574Y-80866666D02*
X152195479Y-80902381D01*
X152195479Y-80902381D02*
X152207384Y-80914285D01*
X152207384Y-81009524D02*
X152195479Y-81021428D01*
X152195479Y-81021428D02*
X152183574Y-81045238D01*
X152183574Y-81045238D02*
X152183574Y-81104762D01*
X152183574Y-81104762D02*
X152195479Y-81128571D01*
X152195479Y-81128571D02*
X152207384Y-81140476D01*
X152207384Y-81140476D02*
X152231193Y-81152381D01*
X152231193Y-81152381D02*
X152255003Y-81152381D01*
X152255003Y-81152381D02*
X152290717Y-81140476D01*
X152290717Y-81140476D02*
X152433574Y-80997619D01*
X152433574Y-80997619D02*
X152433574Y-81152381D01*
X152433574Y-81390476D02*
X152433574Y-81247619D01*
X152433574Y-81319047D02*
X152183574Y-81319047D01*
X152183574Y-81319047D02*
X152219289Y-81295238D01*
X152219289Y-81295238D02*
X152243098Y-81271428D01*
X152243098Y-81271428D02*
X152255003Y-81247619D01*
D10*
X145923358Y-87938095D02*
X145875739Y-87985714D01*
X145875739Y-87985714D02*
X145828120Y-88080952D01*
X145828120Y-88080952D02*
X145923358Y-88271428D01*
X145923358Y-88271428D02*
X145875739Y-88366666D01*
X145875739Y-88366666D02*
X145828120Y-88414285D01*
X136061904Y-91632866D02*
X136014285Y-91585247D01*
X136014285Y-91585247D02*
X135919047Y-91537628D01*
X135919047Y-91537628D02*
X135728571Y-91632866D01*
X135728571Y-91632866D02*
X135633333Y-91585247D01*
X135633333Y-91585247D02*
X135585714Y-91537628D01*
X139780951Y-94570057D02*
X139733332Y-94522438D01*
X139733332Y-94522438D02*
X139638094Y-94474819D01*
X139638094Y-94474819D02*
X139399999Y-94474819D01*
X139399999Y-94474819D02*
X139304761Y-94522438D01*
X139304761Y-94522438D02*
X139257142Y-94570057D01*
X139257142Y-94570057D02*
X139209523Y-94665295D01*
X139209523Y-94665295D02*
X139209523Y-94760533D01*
X139209523Y-94760533D02*
X139257142Y-94903390D01*
X139257142Y-94903390D02*
X139828570Y-95474819D01*
X139828570Y-95474819D02*
X139209523Y-95474819D01*
X138828570Y-94570057D02*
X138780951Y-94522438D01*
X138780951Y-94522438D02*
X138685713Y-94474819D01*
X138685713Y-94474819D02*
X138447618Y-94474819D01*
X138447618Y-94474819D02*
X138352380Y-94522438D01*
X138352380Y-94522438D02*
X138304761Y-94570057D01*
X138304761Y-94570057D02*
X138257142Y-94665295D01*
X138257142Y-94665295D02*
X138257142Y-94760533D01*
X138257142Y-94760533D02*
X138304761Y-94903390D01*
X138304761Y-94903390D02*
X138876189Y-95474819D01*
X138876189Y-95474819D02*
X138257142Y-95474819D01*
X137828570Y-95379580D02*
X137780951Y-95427200D01*
X137780951Y-95427200D02*
X137828570Y-95474819D01*
X137828570Y-95474819D02*
X137876189Y-95427200D01*
X137876189Y-95427200D02*
X137828570Y-95379580D01*
X137828570Y-95379580D02*
X137828570Y-95474819D01*
X136828571Y-95474819D02*
X137399999Y-95474819D01*
X137114285Y-95474819D02*
X137114285Y-94474819D01*
X137114285Y-94474819D02*
X137209523Y-94617676D01*
X137209523Y-94617676D02*
X137304761Y-94712914D01*
X137304761Y-94712914D02*
X137399999Y-94760533D01*
X136399999Y-95474819D02*
X136399999Y-94474819D01*
X136304761Y-95093866D02*
X136019047Y-95474819D01*
X136019047Y-94808152D02*
X136399999Y-95189104D01*
D12*
X137966666Y-96631927D02*
X138099999Y-96441451D01*
X138195237Y-96631927D02*
X138195237Y-96231927D01*
X138195237Y-96231927D02*
X138042856Y-96231927D01*
X138042856Y-96231927D02*
X138004761Y-96250975D01*
X138004761Y-96250975D02*
X137985714Y-96270022D01*
X137985714Y-96270022D02*
X137966666Y-96308118D01*
X137966666Y-96308118D02*
X137966666Y-96365260D01*
X137966666Y-96365260D02*
X137985714Y-96403356D01*
X137985714Y-96403356D02*
X138004761Y-96422403D01*
X138004761Y-96422403D02*
X138042856Y-96441451D01*
X138042856Y-96441451D02*
X138195237Y-96441451D01*
X137623809Y-96231927D02*
X137699999Y-96231927D01*
X137699999Y-96231927D02*
X137738095Y-96250975D01*
X137738095Y-96250975D02*
X137757142Y-96270022D01*
X137757142Y-96270022D02*
X137795237Y-96327165D01*
X137795237Y-96327165D02*
X137814285Y-96403356D01*
X137814285Y-96403356D02*
X137814285Y-96555737D01*
X137814285Y-96555737D02*
X137795237Y-96593832D01*
X137795237Y-96593832D02*
X137776190Y-96612880D01*
X137776190Y-96612880D02*
X137738095Y-96631927D01*
X137738095Y-96631927D02*
X137661904Y-96631927D01*
X137661904Y-96631927D02*
X137623809Y-96612880D01*
X137623809Y-96612880D02*
X137604761Y-96593832D01*
X137604761Y-96593832D02*
X137585714Y-96555737D01*
X137585714Y-96555737D02*
X137585714Y-96460499D01*
X137585714Y-96460499D02*
X137604761Y-96422403D01*
X137604761Y-96422403D02*
X137623809Y-96403356D01*
X137623809Y-96403356D02*
X137661904Y-96384308D01*
X137661904Y-96384308D02*
X137738095Y-96384308D01*
X137738095Y-96384308D02*
X137776190Y-96403356D01*
X137776190Y-96403356D02*
X137795237Y-96422403D01*
X137795237Y-96422403D02*
X137814285Y-96460499D01*
D10*
X149954819Y-80003571D02*
X149954819Y-79432143D01*
X149954819Y-79717857D02*
X148954819Y-79717857D01*
X148954819Y-79717857D02*
X149097676Y-79622619D01*
X149097676Y-79622619D02*
X149192914Y-79527381D01*
X149192914Y-79527381D02*
X149240533Y-79432143D01*
X148954819Y-80622619D02*
X148954819Y-80717857D01*
X148954819Y-80717857D02*
X149002438Y-80813095D01*
X149002438Y-80813095D02*
X149050057Y-80860714D01*
X149050057Y-80860714D02*
X149145295Y-80908333D01*
X149145295Y-80908333D02*
X149335771Y-80955952D01*
X149335771Y-80955952D02*
X149573866Y-80955952D01*
X149573866Y-80955952D02*
X149764342Y-80908333D01*
X149764342Y-80908333D02*
X149859580Y-80860714D01*
X149859580Y-80860714D02*
X149907200Y-80813095D01*
X149907200Y-80813095D02*
X149954819Y-80717857D01*
X149954819Y-80717857D02*
X149954819Y-80622619D01*
X149954819Y-80622619D02*
X149907200Y-80527381D01*
X149907200Y-80527381D02*
X149859580Y-80479762D01*
X149859580Y-80479762D02*
X149764342Y-80432143D01*
X149764342Y-80432143D02*
X149573866Y-80384524D01*
X149573866Y-80384524D02*
X149335771Y-80384524D01*
X149335771Y-80384524D02*
X149145295Y-80432143D01*
X149145295Y-80432143D02*
X149050057Y-80479762D01*
X149050057Y-80479762D02*
X149002438Y-80527381D01*
X149002438Y-80527381D02*
X148954819Y-80622619D01*
X149288152Y-81813095D02*
X149954819Y-81813095D01*
X149288152Y-81384524D02*
X149811961Y-81384524D01*
X149811961Y-81384524D02*
X149907200Y-81432143D01*
X149907200Y-81432143D02*
X149954819Y-81527381D01*
X149954819Y-81527381D02*
X149954819Y-81670238D01*
X149954819Y-81670238D02*
X149907200Y-81765476D01*
X149907200Y-81765476D02*
X149859580Y-81813095D01*
X149431009Y-82622619D02*
X149431009Y-82289286D01*
X149954819Y-82289286D02*
X148954819Y-82289286D01*
X148954819Y-82289286D02*
X148954819Y-82765476D01*
D11*
X151209765Y-80914285D02*
X151221670Y-80902381D01*
X151221670Y-80902381D02*
X151233574Y-80866666D01*
X151233574Y-80866666D02*
X151233574Y-80842857D01*
X151233574Y-80842857D02*
X151221670Y-80807143D01*
X151221670Y-80807143D02*
X151197860Y-80783333D01*
X151197860Y-80783333D02*
X151174050Y-80771428D01*
X151174050Y-80771428D02*
X151126431Y-80759524D01*
X151126431Y-80759524D02*
X151090717Y-80759524D01*
X151090717Y-80759524D02*
X151043098Y-80771428D01*
X151043098Y-80771428D02*
X151019289Y-80783333D01*
X151019289Y-80783333D02*
X150995479Y-80807143D01*
X150995479Y-80807143D02*
X150983574Y-80842857D01*
X150983574Y-80842857D02*
X150983574Y-80866666D01*
X150983574Y-80866666D02*
X150995479Y-80902381D01*
X150995479Y-80902381D02*
X151007384Y-80914285D01*
X151007384Y-81009524D02*
X150995479Y-81021428D01*
X150995479Y-81021428D02*
X150983574Y-81045238D01*
X150983574Y-81045238D02*
X150983574Y-81104762D01*
X150983574Y-81104762D02*
X150995479Y-81128571D01*
X150995479Y-81128571D02*
X151007384Y-81140476D01*
X151007384Y-81140476D02*
X151031193Y-81152381D01*
X151031193Y-81152381D02*
X151055003Y-81152381D01*
X151055003Y-81152381D02*
X151090717Y-81140476D01*
X151090717Y-81140476D02*
X151233574Y-80997619D01*
X151233574Y-80997619D02*
X151233574Y-81152381D01*
X151007384Y-81247619D02*
X150995479Y-81259523D01*
X150995479Y-81259523D02*
X150983574Y-81283333D01*
X150983574Y-81283333D02*
X150983574Y-81342857D01*
X150983574Y-81342857D02*
X150995479Y-81366666D01*
X150995479Y-81366666D02*
X151007384Y-81378571D01*
X151007384Y-81378571D02*
X151031193Y-81390476D01*
X151031193Y-81390476D02*
X151055003Y-81390476D01*
X151055003Y-81390476D02*
X151090717Y-81378571D01*
X151090717Y-81378571D02*
X151233574Y-81235714D01*
X151233574Y-81235714D02*
X151233574Y-81390476D01*
D10*
X137673809Y-89494819D02*
X137578571Y-89494819D01*
X137578571Y-89494819D02*
X137483333Y-89542438D01*
X137483333Y-89542438D02*
X137435714Y-89590057D01*
X137435714Y-89590057D02*
X137388095Y-89685295D01*
X137388095Y-89685295D02*
X137340476Y-89875771D01*
X137340476Y-89875771D02*
X137340476Y-90113866D01*
X137340476Y-90113866D02*
X137388095Y-90304342D01*
X137388095Y-90304342D02*
X137435714Y-90399580D01*
X137435714Y-90399580D02*
X137483333Y-90447200D01*
X137483333Y-90447200D02*
X137578571Y-90494819D01*
X137578571Y-90494819D02*
X137673809Y-90494819D01*
X137673809Y-90494819D02*
X137769047Y-90447200D01*
X137769047Y-90447200D02*
X137816666Y-90399580D01*
X137816666Y-90399580D02*
X137864285Y-90304342D01*
X137864285Y-90304342D02*
X137911904Y-90113866D01*
X137911904Y-90113866D02*
X137911904Y-89875771D01*
X137911904Y-89875771D02*
X137864285Y-89685295D01*
X137864285Y-89685295D02*
X137816666Y-89590057D01*
X137816666Y-89590057D02*
X137769047Y-89542438D01*
X137769047Y-89542438D02*
X137673809Y-89494819D01*
X136911904Y-90399580D02*
X136864285Y-90447200D01*
X136864285Y-90447200D02*
X136911904Y-90494819D01*
X136911904Y-90494819D02*
X136959523Y-90447200D01*
X136959523Y-90447200D02*
X136911904Y-90399580D01*
X136911904Y-90399580D02*
X136911904Y-90494819D01*
X135911905Y-90494819D02*
X136483333Y-90494819D01*
X136197619Y-90494819D02*
X136197619Y-89494819D01*
X136197619Y-89494819D02*
X136292857Y-89637676D01*
X136292857Y-89637676D02*
X136388095Y-89732914D01*
X136388095Y-89732914D02*
X136483333Y-89780533D01*
X134292857Y-89828152D02*
X134292857Y-90494819D01*
X134721428Y-89828152D02*
X134721428Y-90351961D01*
X134721428Y-90351961D02*
X134673809Y-90447200D01*
X134673809Y-90447200D02*
X134578571Y-90494819D01*
X134578571Y-90494819D02*
X134435714Y-90494819D01*
X134435714Y-90494819D02*
X134340476Y-90447200D01*
X134340476Y-90447200D02*
X134292857Y-90399580D01*
X133483333Y-89971009D02*
X133816666Y-89971009D01*
X133816666Y-90494819D02*
X133816666Y-89494819D01*
X133816666Y-89494819D02*
X133340476Y-89494819D01*
D11*
X135810714Y-91289765D02*
X135822618Y-91301670D01*
X135822618Y-91301670D02*
X135858333Y-91313574D01*
X135858333Y-91313574D02*
X135882142Y-91313574D01*
X135882142Y-91313574D02*
X135917856Y-91301670D01*
X135917856Y-91301670D02*
X135941666Y-91277860D01*
X135941666Y-91277860D02*
X135953571Y-91254050D01*
X135953571Y-91254050D02*
X135965475Y-91206431D01*
X135965475Y-91206431D02*
X135965475Y-91170717D01*
X135965475Y-91170717D02*
X135953571Y-91123098D01*
X135953571Y-91123098D02*
X135941666Y-91099289D01*
X135941666Y-91099289D02*
X135917856Y-91075479D01*
X135917856Y-91075479D02*
X135882142Y-91063574D01*
X135882142Y-91063574D02*
X135858333Y-91063574D01*
X135858333Y-91063574D02*
X135822618Y-91075479D01*
X135822618Y-91075479D02*
X135810714Y-91087384D01*
X135572618Y-91313574D02*
X135715475Y-91313574D01*
X135644047Y-91313574D02*
X135644047Y-91063574D01*
X135644047Y-91063574D02*
X135667856Y-91099289D01*
X135667856Y-91099289D02*
X135691666Y-91123098D01*
X135691666Y-91123098D02*
X135715475Y-91135003D01*
X135334523Y-91313574D02*
X135477380Y-91313574D01*
X135405952Y-91313574D02*
X135405952Y-91063574D01*
X135405952Y-91063574D02*
X135429761Y-91099289D01*
X135429761Y-91099289D02*
X135453571Y-91123098D01*
X135453571Y-91123098D02*
X135477380Y-91135003D01*
D10*
X152409524Y-84204819D02*
X152980952Y-84204819D01*
X152695238Y-84204819D02*
X152695238Y-83204819D01*
X152695238Y-83204819D02*
X152790476Y-83347676D01*
X152790476Y-83347676D02*
X152885714Y-83442914D01*
X152885714Y-83442914D02*
X152980952Y-83490533D01*
X151790476Y-83204819D02*
X151695238Y-83204819D01*
X151695238Y-83204819D02*
X151600000Y-83252438D01*
X151600000Y-83252438D02*
X151552381Y-83300057D01*
X151552381Y-83300057D02*
X151504762Y-83395295D01*
X151504762Y-83395295D02*
X151457143Y-83585771D01*
X151457143Y-83585771D02*
X151457143Y-83823866D01*
X151457143Y-83823866D02*
X151504762Y-84014342D01*
X151504762Y-84014342D02*
X151552381Y-84109580D01*
X151552381Y-84109580D02*
X151600000Y-84157200D01*
X151600000Y-84157200D02*
X151695238Y-84204819D01*
X151695238Y-84204819D02*
X151790476Y-84204819D01*
X151790476Y-84204819D02*
X151885714Y-84157200D01*
X151885714Y-84157200D02*
X151933333Y-84109580D01*
X151933333Y-84109580D02*
X151980952Y-84014342D01*
X151980952Y-84014342D02*
X152028571Y-83823866D01*
X152028571Y-83823866D02*
X152028571Y-83585771D01*
X152028571Y-83585771D02*
X151980952Y-83395295D01*
X151980952Y-83395295D02*
X151933333Y-83300057D01*
X151933333Y-83300057D02*
X151885714Y-83252438D01*
X151885714Y-83252438D02*
X151790476Y-83204819D01*
X150266666Y-83538152D02*
X150266666Y-84204819D01*
X150266666Y-83633390D02*
X150219047Y-83585771D01*
X150219047Y-83585771D02*
X150123809Y-83538152D01*
X150123809Y-83538152D02*
X149980952Y-83538152D01*
X149980952Y-83538152D02*
X149885714Y-83585771D01*
X149885714Y-83585771D02*
X149838095Y-83681009D01*
X149838095Y-83681009D02*
X149838095Y-84204819D01*
X149504761Y-83538152D02*
X149123809Y-83538152D01*
X149361904Y-84204819D02*
X149361904Y-83347676D01*
X149361904Y-83347676D02*
X149314285Y-83252438D01*
X149314285Y-83252438D02*
X149219047Y-83204819D01*
X149219047Y-83204819D02*
X149123809Y-83204819D01*
D11*
X151260714Y-85459765D02*
X151272618Y-85471670D01*
X151272618Y-85471670D02*
X151308333Y-85483574D01*
X151308333Y-85483574D02*
X151332142Y-85483574D01*
X151332142Y-85483574D02*
X151367856Y-85471670D01*
X151367856Y-85471670D02*
X151391666Y-85447860D01*
X151391666Y-85447860D02*
X151403571Y-85424050D01*
X151403571Y-85424050D02*
X151415475Y-85376431D01*
X151415475Y-85376431D02*
X151415475Y-85340717D01*
X151415475Y-85340717D02*
X151403571Y-85293098D01*
X151403571Y-85293098D02*
X151391666Y-85269289D01*
X151391666Y-85269289D02*
X151367856Y-85245479D01*
X151367856Y-85245479D02*
X151332142Y-85233574D01*
X151332142Y-85233574D02*
X151308333Y-85233574D01*
X151308333Y-85233574D02*
X151272618Y-85245479D01*
X151272618Y-85245479D02*
X151260714Y-85257384D01*
X151022618Y-85483574D02*
X151165475Y-85483574D01*
X151094047Y-85483574D02*
X151094047Y-85233574D01*
X151094047Y-85233574D02*
X151117856Y-85269289D01*
X151117856Y-85269289D02*
X151141666Y-85293098D01*
X151141666Y-85293098D02*
X151165475Y-85305003D01*
X150927380Y-85257384D02*
X150915476Y-85245479D01*
X150915476Y-85245479D02*
X150891666Y-85233574D01*
X150891666Y-85233574D02*
X150832142Y-85233574D01*
X150832142Y-85233574D02*
X150808333Y-85245479D01*
X150808333Y-85245479D02*
X150796428Y-85257384D01*
X150796428Y-85257384D02*
X150784523Y-85281193D01*
X150784523Y-85281193D02*
X150784523Y-85305003D01*
X150784523Y-85305003D02*
X150796428Y-85340717D01*
X150796428Y-85340717D02*
X150939285Y-85483574D01*
X150939285Y-85483574D02*
X150784523Y-85483574D01*
D10*
X145185714Y-83854819D02*
X145757142Y-83854819D01*
X145471428Y-83854819D02*
X145471428Y-82854819D01*
X145471428Y-82854819D02*
X145566666Y-82997676D01*
X145566666Y-82997676D02*
X145661904Y-83092914D01*
X145661904Y-83092914D02*
X145757142Y-83140533D01*
X144566666Y-82854819D02*
X144471428Y-82854819D01*
X144471428Y-82854819D02*
X144376190Y-82902438D01*
X144376190Y-82902438D02*
X144328571Y-82950057D01*
X144328571Y-82950057D02*
X144280952Y-83045295D01*
X144280952Y-83045295D02*
X144233333Y-83235771D01*
X144233333Y-83235771D02*
X144233333Y-83473866D01*
X144233333Y-83473866D02*
X144280952Y-83664342D01*
X144280952Y-83664342D02*
X144328571Y-83759580D01*
X144328571Y-83759580D02*
X144376190Y-83807200D01*
X144376190Y-83807200D02*
X144471428Y-83854819D01*
X144471428Y-83854819D02*
X144566666Y-83854819D01*
X144566666Y-83854819D02*
X144661904Y-83807200D01*
X144661904Y-83807200D02*
X144709523Y-83759580D01*
X144709523Y-83759580D02*
X144757142Y-83664342D01*
X144757142Y-83664342D02*
X144804761Y-83473866D01*
X144804761Y-83473866D02*
X144804761Y-83235771D01*
X144804761Y-83235771D02*
X144757142Y-83045295D01*
X144757142Y-83045295D02*
X144709523Y-82950057D01*
X144709523Y-82950057D02*
X144661904Y-82902438D01*
X144661904Y-82902438D02*
X144566666Y-82854819D01*
X143614285Y-82854819D02*
X143519047Y-82854819D01*
X143519047Y-82854819D02*
X143423809Y-82902438D01*
X143423809Y-82902438D02*
X143376190Y-82950057D01*
X143376190Y-82950057D02*
X143328571Y-83045295D01*
X143328571Y-83045295D02*
X143280952Y-83235771D01*
X143280952Y-83235771D02*
X143280952Y-83473866D01*
X143280952Y-83473866D02*
X143328571Y-83664342D01*
X143328571Y-83664342D02*
X143376190Y-83759580D01*
X143376190Y-83759580D02*
X143423809Y-83807200D01*
X143423809Y-83807200D02*
X143519047Y-83854819D01*
X143519047Y-83854819D02*
X143614285Y-83854819D01*
X143614285Y-83854819D02*
X143709523Y-83807200D01*
X143709523Y-83807200D02*
X143757142Y-83759580D01*
X143757142Y-83759580D02*
X143804761Y-83664342D01*
X143804761Y-83664342D02*
X143852380Y-83473866D01*
X143852380Y-83473866D02*
X143852380Y-83235771D01*
X143852380Y-83235771D02*
X143804761Y-83045295D01*
X143804761Y-83045295D02*
X143757142Y-82950057D01*
X143757142Y-82950057D02*
X143709523Y-82902438D01*
X143709523Y-82902438D02*
X143614285Y-82854819D01*
X142090475Y-83188152D02*
X142090475Y-83854819D01*
X142090475Y-83283390D02*
X142042856Y-83235771D01*
X142042856Y-83235771D02*
X141947618Y-83188152D01*
X141947618Y-83188152D02*
X141804761Y-83188152D01*
X141804761Y-83188152D02*
X141709523Y-83235771D01*
X141709523Y-83235771D02*
X141661904Y-83331009D01*
X141661904Y-83331009D02*
X141661904Y-83854819D01*
X141328570Y-83188152D02*
X140947618Y-83188152D01*
X141185713Y-83854819D02*
X141185713Y-82997676D01*
X141185713Y-82997676D02*
X141138094Y-82902438D01*
X141138094Y-82902438D02*
X141042856Y-82854819D01*
X141042856Y-82854819D02*
X140947618Y-82854819D01*
D11*
X143560714Y-85109765D02*
X143572618Y-85121670D01*
X143572618Y-85121670D02*
X143608333Y-85133574D01*
X143608333Y-85133574D02*
X143632142Y-85133574D01*
X143632142Y-85133574D02*
X143667856Y-85121670D01*
X143667856Y-85121670D02*
X143691666Y-85097860D01*
X143691666Y-85097860D02*
X143703571Y-85074050D01*
X143703571Y-85074050D02*
X143715475Y-85026431D01*
X143715475Y-85026431D02*
X143715475Y-84990717D01*
X143715475Y-84990717D02*
X143703571Y-84943098D01*
X143703571Y-84943098D02*
X143691666Y-84919289D01*
X143691666Y-84919289D02*
X143667856Y-84895479D01*
X143667856Y-84895479D02*
X143632142Y-84883574D01*
X143632142Y-84883574D02*
X143608333Y-84883574D01*
X143608333Y-84883574D02*
X143572618Y-84895479D01*
X143572618Y-84895479D02*
X143560714Y-84907384D01*
X143322618Y-85133574D02*
X143465475Y-85133574D01*
X143394047Y-85133574D02*
X143394047Y-84883574D01*
X143394047Y-84883574D02*
X143417856Y-84919289D01*
X143417856Y-84919289D02*
X143441666Y-84943098D01*
X143441666Y-84943098D02*
X143465475Y-84955003D01*
X143203571Y-85133574D02*
X143155952Y-85133574D01*
X143155952Y-85133574D02*
X143132142Y-85121670D01*
X143132142Y-85121670D02*
X143120238Y-85109765D01*
X143120238Y-85109765D02*
X143096428Y-85074050D01*
X143096428Y-85074050D02*
X143084523Y-85026431D01*
X143084523Y-85026431D02*
X143084523Y-84931193D01*
X143084523Y-84931193D02*
X143096428Y-84907384D01*
X143096428Y-84907384D02*
X143108333Y-84895479D01*
X143108333Y-84895479D02*
X143132142Y-84883574D01*
X143132142Y-84883574D02*
X143179761Y-84883574D01*
X143179761Y-84883574D02*
X143203571Y-84895479D01*
X143203571Y-84895479D02*
X143215476Y-84907384D01*
X143215476Y-84907384D02*
X143227380Y-84931193D01*
X143227380Y-84931193D02*
X143227380Y-84990717D01*
X143227380Y-84990717D02*
X143215476Y-85014527D01*
X143215476Y-85014527D02*
X143203571Y-85026431D01*
X143203571Y-85026431D02*
X143179761Y-85038336D01*
X143179761Y-85038336D02*
X143132142Y-85038336D01*
X143132142Y-85038336D02*
X143108333Y-85026431D01*
X143108333Y-85026431D02*
X143096428Y-85014527D01*
X143096428Y-85014527D02*
X143084523Y-84990717D01*
D10*
X139434819Y-88864285D02*
X139434819Y-88673809D01*
X139434819Y-88673809D02*
X139482438Y-88578571D01*
X139482438Y-88578571D02*
X139530057Y-88530952D01*
X139530057Y-88530952D02*
X139672914Y-88435714D01*
X139672914Y-88435714D02*
X139863390Y-88388095D01*
X139863390Y-88388095D02*
X140244342Y-88388095D01*
X140244342Y-88388095D02*
X140339580Y-88435714D01*
X140339580Y-88435714D02*
X140387200Y-88483333D01*
X140387200Y-88483333D02*
X140434819Y-88578571D01*
X140434819Y-88578571D02*
X140434819Y-88769047D01*
X140434819Y-88769047D02*
X140387200Y-88864285D01*
X140387200Y-88864285D02*
X140339580Y-88911904D01*
X140339580Y-88911904D02*
X140244342Y-88959523D01*
X140244342Y-88959523D02*
X140006247Y-88959523D01*
X140006247Y-88959523D02*
X139911009Y-88911904D01*
X139911009Y-88911904D02*
X139863390Y-88864285D01*
X139863390Y-88864285D02*
X139815771Y-88769047D01*
X139815771Y-88769047D02*
X139815771Y-88578571D01*
X139815771Y-88578571D02*
X139863390Y-88483333D01*
X139863390Y-88483333D02*
X139911009Y-88435714D01*
X139911009Y-88435714D02*
X140006247Y-88388095D01*
X140434819Y-89435714D02*
X140434819Y-89626190D01*
X140434819Y-89626190D02*
X140387200Y-89721428D01*
X140387200Y-89721428D02*
X140339580Y-89769047D01*
X140339580Y-89769047D02*
X140196723Y-89864285D01*
X140196723Y-89864285D02*
X140006247Y-89911904D01*
X140006247Y-89911904D02*
X139625295Y-89911904D01*
X139625295Y-89911904D02*
X139530057Y-89864285D01*
X139530057Y-89864285D02*
X139482438Y-89816666D01*
X139482438Y-89816666D02*
X139434819Y-89721428D01*
X139434819Y-89721428D02*
X139434819Y-89530952D01*
X139434819Y-89530952D02*
X139482438Y-89435714D01*
X139482438Y-89435714D02*
X139530057Y-89388095D01*
X139530057Y-89388095D02*
X139625295Y-89340476D01*
X139625295Y-89340476D02*
X139863390Y-89340476D01*
X139863390Y-89340476D02*
X139958628Y-89388095D01*
X139958628Y-89388095D02*
X140006247Y-89435714D01*
X140006247Y-89435714D02*
X140053866Y-89530952D01*
X140053866Y-89530952D02*
X140053866Y-89721428D01*
X140053866Y-89721428D02*
X140006247Y-89816666D01*
X140006247Y-89816666D02*
X139958628Y-89864285D01*
X139958628Y-89864285D02*
X139863390Y-89911904D01*
X140339580Y-90340476D02*
X140387200Y-90388095D01*
X140387200Y-90388095D02*
X140434819Y-90340476D01*
X140434819Y-90340476D02*
X140387200Y-90292857D01*
X140387200Y-90292857D02*
X140339580Y-90340476D01*
X140339580Y-90340476D02*
X140434819Y-90340476D01*
X139863390Y-90959523D02*
X139815771Y-90864285D01*
X139815771Y-90864285D02*
X139768152Y-90816666D01*
X139768152Y-90816666D02*
X139672914Y-90769047D01*
X139672914Y-90769047D02*
X139625295Y-90769047D01*
X139625295Y-90769047D02*
X139530057Y-90816666D01*
X139530057Y-90816666D02*
X139482438Y-90864285D01*
X139482438Y-90864285D02*
X139434819Y-90959523D01*
X139434819Y-90959523D02*
X139434819Y-91149999D01*
X139434819Y-91149999D02*
X139482438Y-91245237D01*
X139482438Y-91245237D02*
X139530057Y-91292856D01*
X139530057Y-91292856D02*
X139625295Y-91340475D01*
X139625295Y-91340475D02*
X139672914Y-91340475D01*
X139672914Y-91340475D02*
X139768152Y-91292856D01*
X139768152Y-91292856D02*
X139815771Y-91245237D01*
X139815771Y-91245237D02*
X139863390Y-91149999D01*
X139863390Y-91149999D02*
X139863390Y-90959523D01*
X139863390Y-90959523D02*
X139911009Y-90864285D01*
X139911009Y-90864285D02*
X139958628Y-90816666D01*
X139958628Y-90816666D02*
X140053866Y-90769047D01*
X140053866Y-90769047D02*
X140244342Y-90769047D01*
X140244342Y-90769047D02*
X140339580Y-90816666D01*
X140339580Y-90816666D02*
X140387200Y-90864285D01*
X140387200Y-90864285D02*
X140434819Y-90959523D01*
X140434819Y-90959523D02*
X140434819Y-91149999D01*
X140434819Y-91149999D02*
X140387200Y-91245237D01*
X140387200Y-91245237D02*
X140339580Y-91292856D01*
X140339580Y-91292856D02*
X140244342Y-91340475D01*
X140244342Y-91340475D02*
X140053866Y-91340475D01*
X140053866Y-91340475D02*
X139958628Y-91292856D01*
X139958628Y-91292856D02*
X139911009Y-91245237D01*
X139911009Y-91245237D02*
X139863390Y-91149999D01*
X140434819Y-92530952D02*
X139434819Y-92530952D01*
X140053866Y-92626190D02*
X140434819Y-92911904D01*
X139768152Y-92911904D02*
X140149104Y-92530952D01*
D13*
X138527149Y-90566666D02*
X138289054Y-90400000D01*
X138527149Y-90280952D02*
X138027149Y-90280952D01*
X138027149Y-90280952D02*
X138027149Y-90471428D01*
X138027149Y-90471428D02*
X138050959Y-90519047D01*
X138050959Y-90519047D02*
X138074768Y-90542857D01*
X138074768Y-90542857D02*
X138122387Y-90566666D01*
X138122387Y-90566666D02*
X138193816Y-90566666D01*
X138193816Y-90566666D02*
X138241435Y-90542857D01*
X138241435Y-90542857D02*
X138265244Y-90519047D01*
X138265244Y-90519047D02*
X138289054Y-90471428D01*
X138289054Y-90471428D02*
X138289054Y-90280952D01*
X138527149Y-91042857D02*
X138527149Y-90757143D01*
X138527149Y-90900000D02*
X138027149Y-90900000D01*
X138027149Y-90900000D02*
X138098578Y-90852381D01*
X138098578Y-90852381D02*
X138146197Y-90804762D01*
X138146197Y-90804762D02*
X138170006Y-90757143D01*
D10*
X154492857Y-83438152D02*
X154492857Y-84104819D01*
X154730952Y-83057200D02*
X154969047Y-83771485D01*
X154969047Y-83771485D02*
X154350000Y-83771485D01*
X153969047Y-84009580D02*
X153921428Y-84057200D01*
X153921428Y-84057200D02*
X153969047Y-84104819D01*
X153969047Y-84104819D02*
X154016666Y-84057200D01*
X154016666Y-84057200D02*
X153969047Y-84009580D01*
X153969047Y-84009580D02*
X153969047Y-84104819D01*
X153588095Y-83104819D02*
X152921429Y-83104819D01*
X152921429Y-83104819D02*
X153350000Y-84104819D01*
X151350000Y-83438152D02*
X151350000Y-84104819D01*
X151778571Y-83438152D02*
X151778571Y-83961961D01*
X151778571Y-83961961D02*
X151730952Y-84057200D01*
X151730952Y-84057200D02*
X151635714Y-84104819D01*
X151635714Y-84104819D02*
X151492857Y-84104819D01*
X151492857Y-84104819D02*
X151397619Y-84057200D01*
X151397619Y-84057200D02*
X151350000Y-84009580D01*
X151016666Y-83438152D02*
X150635714Y-83438152D01*
X150873809Y-84104819D02*
X150873809Y-83247676D01*
X150873809Y-83247676D02*
X150826190Y-83152438D01*
X150826190Y-83152438D02*
X150730952Y-83104819D01*
X150730952Y-83104819D02*
X150635714Y-83104819D01*
D11*
X153010714Y-85359765D02*
X153022618Y-85371670D01*
X153022618Y-85371670D02*
X153058333Y-85383574D01*
X153058333Y-85383574D02*
X153082142Y-85383574D01*
X153082142Y-85383574D02*
X153117856Y-85371670D01*
X153117856Y-85371670D02*
X153141666Y-85347860D01*
X153141666Y-85347860D02*
X153153571Y-85324050D01*
X153153571Y-85324050D02*
X153165475Y-85276431D01*
X153165475Y-85276431D02*
X153165475Y-85240717D01*
X153165475Y-85240717D02*
X153153571Y-85193098D01*
X153153571Y-85193098D02*
X153141666Y-85169289D01*
X153141666Y-85169289D02*
X153117856Y-85145479D01*
X153117856Y-85145479D02*
X153082142Y-85133574D01*
X153082142Y-85133574D02*
X153058333Y-85133574D01*
X153058333Y-85133574D02*
X153022618Y-85145479D01*
X153022618Y-85145479D02*
X153010714Y-85157384D01*
X152772618Y-85383574D02*
X152915475Y-85383574D01*
X152844047Y-85383574D02*
X152844047Y-85133574D01*
X152844047Y-85133574D02*
X152867856Y-85169289D01*
X152867856Y-85169289D02*
X152891666Y-85193098D01*
X152891666Y-85193098D02*
X152915475Y-85205003D01*
X152546428Y-85133574D02*
X152665476Y-85133574D01*
X152665476Y-85133574D02*
X152677380Y-85252622D01*
X152677380Y-85252622D02*
X152665476Y-85240717D01*
X152665476Y-85240717D02*
X152641666Y-85228812D01*
X152641666Y-85228812D02*
X152582142Y-85228812D01*
X152582142Y-85228812D02*
X152558333Y-85240717D01*
X152558333Y-85240717D02*
X152546428Y-85252622D01*
X152546428Y-85252622D02*
X152534523Y-85276431D01*
X152534523Y-85276431D02*
X152534523Y-85335955D01*
X152534523Y-85335955D02*
X152546428Y-85359765D01*
X152546428Y-85359765D02*
X152558333Y-85371670D01*
X152558333Y-85371670D02*
X152582142Y-85383574D01*
X152582142Y-85383574D02*
X152641666Y-85383574D01*
X152641666Y-85383574D02*
X152665476Y-85371670D01*
X152665476Y-85371670D02*
X152677380Y-85359765D01*
D10*
X138949999Y-90730057D02*
X138902380Y-90682438D01*
X138902380Y-90682438D02*
X138807142Y-90634819D01*
X138807142Y-90634819D02*
X138569047Y-90634819D01*
X138569047Y-90634819D02*
X138473809Y-90682438D01*
X138473809Y-90682438D02*
X138426190Y-90730057D01*
X138426190Y-90730057D02*
X138378571Y-90825295D01*
X138378571Y-90825295D02*
X138378571Y-90920533D01*
X138378571Y-90920533D02*
X138426190Y-91063390D01*
X138426190Y-91063390D02*
X138997618Y-91634819D01*
X138997618Y-91634819D02*
X138378571Y-91634819D01*
X137997618Y-90730057D02*
X137949999Y-90682438D01*
X137949999Y-90682438D02*
X137854761Y-90634819D01*
X137854761Y-90634819D02*
X137616666Y-90634819D01*
X137616666Y-90634819D02*
X137521428Y-90682438D01*
X137521428Y-90682438D02*
X137473809Y-90730057D01*
X137473809Y-90730057D02*
X137426190Y-90825295D01*
X137426190Y-90825295D02*
X137426190Y-90920533D01*
X137426190Y-90920533D02*
X137473809Y-91063390D01*
X137473809Y-91063390D02*
X138045237Y-91634819D01*
X138045237Y-91634819D02*
X137426190Y-91634819D01*
X136569047Y-90968152D02*
X136569047Y-91634819D01*
X136997618Y-90968152D02*
X136997618Y-91491961D01*
X136997618Y-91491961D02*
X136949999Y-91587200D01*
X136949999Y-91587200D02*
X136854761Y-91634819D01*
X136854761Y-91634819D02*
X136711904Y-91634819D01*
X136711904Y-91634819D02*
X136616666Y-91587200D01*
X136616666Y-91587200D02*
X136569047Y-91539580D01*
X135759523Y-91111009D02*
X136092856Y-91111009D01*
X136092856Y-91634819D02*
X136092856Y-90634819D01*
X136092856Y-90634819D02*
X135616666Y-90634819D01*
X134521428Y-90587200D02*
X135378570Y-91872914D01*
X133664285Y-91634819D02*
X134235713Y-91634819D01*
X133949999Y-91634819D02*
X133949999Y-90634819D01*
X133949999Y-90634819D02*
X134045237Y-90777676D01*
X134045237Y-90777676D02*
X134140475Y-90872914D01*
X134140475Y-90872914D02*
X134235713Y-90920533D01*
X133045237Y-90634819D02*
X132949999Y-90634819D01*
X132949999Y-90634819D02*
X132854761Y-90682438D01*
X132854761Y-90682438D02*
X132807142Y-90730057D01*
X132807142Y-90730057D02*
X132759523Y-90825295D01*
X132759523Y-90825295D02*
X132711904Y-91015771D01*
X132711904Y-91015771D02*
X132711904Y-91253866D01*
X132711904Y-91253866D02*
X132759523Y-91444342D01*
X132759523Y-91444342D02*
X132807142Y-91539580D01*
X132807142Y-91539580D02*
X132854761Y-91587200D01*
X132854761Y-91587200D02*
X132949999Y-91634819D01*
X132949999Y-91634819D02*
X133045237Y-91634819D01*
X133045237Y-91634819D02*
X133140475Y-91587200D01*
X133140475Y-91587200D02*
X133188094Y-91539580D01*
X133188094Y-91539580D02*
X133235713Y-91444342D01*
X133235713Y-91444342D02*
X133283332Y-91253866D01*
X133283332Y-91253866D02*
X133283332Y-91015771D01*
X133283332Y-91015771D02*
X133235713Y-90825295D01*
X133235713Y-90825295D02*
X133188094Y-90730057D01*
X133188094Y-90730057D02*
X133140475Y-90682438D01*
X133140475Y-90682438D02*
X133045237Y-90634819D01*
X132378570Y-90968152D02*
X132140475Y-91634819D01*
X132140475Y-91634819D02*
X131902380Y-90968152D01*
D13*
X135533333Y-89679530D02*
X135557142Y-89703340D01*
X135557142Y-89703340D02*
X135628571Y-89727149D01*
X135628571Y-89727149D02*
X135676190Y-89727149D01*
X135676190Y-89727149D02*
X135747618Y-89703340D01*
X135747618Y-89703340D02*
X135795237Y-89655720D01*
X135795237Y-89655720D02*
X135819047Y-89608101D01*
X135819047Y-89608101D02*
X135842856Y-89512863D01*
X135842856Y-89512863D02*
X135842856Y-89441435D01*
X135842856Y-89441435D02*
X135819047Y-89346197D01*
X135819047Y-89346197D02*
X135795237Y-89298578D01*
X135795237Y-89298578D02*
X135747618Y-89250959D01*
X135747618Y-89250959D02*
X135676190Y-89227149D01*
X135676190Y-89227149D02*
X135628571Y-89227149D01*
X135628571Y-89227149D02*
X135557142Y-89250959D01*
X135557142Y-89250959D02*
X135533333Y-89274768D01*
X135342856Y-89274768D02*
X135319047Y-89250959D01*
X135319047Y-89250959D02*
X135271428Y-89227149D01*
X135271428Y-89227149D02*
X135152380Y-89227149D01*
X135152380Y-89227149D02*
X135104761Y-89250959D01*
X135104761Y-89250959D02*
X135080952Y-89274768D01*
X135080952Y-89274768D02*
X135057142Y-89322387D01*
X135057142Y-89322387D02*
X135057142Y-89370006D01*
X135057142Y-89370006D02*
X135080952Y-89441435D01*
X135080952Y-89441435D02*
X135366666Y-89727149D01*
X135366666Y-89727149D02*
X135057142Y-89727149D01*
D10*
X144202380Y-95600057D02*
X144154761Y-95552438D01*
X144154761Y-95552438D02*
X144059523Y-95504819D01*
X144059523Y-95504819D02*
X143821428Y-95504819D01*
X143821428Y-95504819D02*
X143726190Y-95552438D01*
X143726190Y-95552438D02*
X143678571Y-95600057D01*
X143678571Y-95600057D02*
X143630952Y-95695295D01*
X143630952Y-95695295D02*
X143630952Y-95790533D01*
X143630952Y-95790533D02*
X143678571Y-95933390D01*
X143678571Y-95933390D02*
X144249999Y-96504819D01*
X144249999Y-96504819D02*
X143630952Y-96504819D01*
X143202380Y-96409580D02*
X143154761Y-96457200D01*
X143154761Y-96457200D02*
X143202380Y-96504819D01*
X143202380Y-96504819D02*
X143249999Y-96457200D01*
X143249999Y-96457200D02*
X143202380Y-96409580D01*
X143202380Y-96409580D02*
X143202380Y-96504819D01*
X142773809Y-95600057D02*
X142726190Y-95552438D01*
X142726190Y-95552438D02*
X142630952Y-95504819D01*
X142630952Y-95504819D02*
X142392857Y-95504819D01*
X142392857Y-95504819D02*
X142297619Y-95552438D01*
X142297619Y-95552438D02*
X142250000Y-95600057D01*
X142250000Y-95600057D02*
X142202381Y-95695295D01*
X142202381Y-95695295D02*
X142202381Y-95790533D01*
X142202381Y-95790533D02*
X142250000Y-95933390D01*
X142250000Y-95933390D02*
X142821428Y-96504819D01*
X142821428Y-96504819D02*
X142202381Y-96504819D01*
X141773809Y-95504819D02*
X141773809Y-96314342D01*
X141773809Y-96314342D02*
X141726190Y-96409580D01*
X141726190Y-96409580D02*
X141678571Y-96457200D01*
X141678571Y-96457200D02*
X141583333Y-96504819D01*
X141583333Y-96504819D02*
X141392857Y-96504819D01*
X141392857Y-96504819D02*
X141297619Y-96457200D01*
X141297619Y-96457200D02*
X141250000Y-96409580D01*
X141250000Y-96409580D02*
X141202381Y-96314342D01*
X141202381Y-96314342D02*
X141202381Y-95504819D01*
X140392857Y-95981009D02*
X140726190Y-95981009D01*
X140726190Y-96504819D02*
X140726190Y-95504819D01*
X140726190Y-95504819D02*
X140250000Y-95504819D01*
D14*
X142383332Y-94487664D02*
X142421428Y-94525760D01*
X142421428Y-94525760D02*
X142535713Y-94563855D01*
X142535713Y-94563855D02*
X142611904Y-94563855D01*
X142611904Y-94563855D02*
X142726190Y-94525760D01*
X142726190Y-94525760D02*
X142802380Y-94449569D01*
X142802380Y-94449569D02*
X142840475Y-94373379D01*
X142840475Y-94373379D02*
X142878571Y-94220998D01*
X142878571Y-94220998D02*
X142878571Y-94106712D01*
X142878571Y-94106712D02*
X142840475Y-93954331D01*
X142840475Y-93954331D02*
X142802380Y-93878140D01*
X142802380Y-93878140D02*
X142726190Y-93801950D01*
X142726190Y-93801950D02*
X142611904Y-93763855D01*
X142611904Y-93763855D02*
X142535713Y-93763855D01*
X142535713Y-93763855D02*
X142421428Y-93801950D01*
X142421428Y-93801950D02*
X142383332Y-93840045D01*
X141621428Y-94563855D02*
X142078571Y-94563855D01*
X141849999Y-94563855D02*
X141849999Y-93763855D01*
X141849999Y-93763855D02*
X141926190Y-93878140D01*
X141926190Y-93878140D02*
X142002380Y-93954331D01*
X142002380Y-93954331D02*
X142078571Y-93992426D01*
D15*
G04 #@! TO.C,C13*
X150900000Y-84000000D02*
X150900000Y-84200000D01*
X150900000Y-84200000D02*
X151300000Y-84200000D01*
X151300000Y-84000000D02*
X150900000Y-84000000D01*
X151300000Y-84200000D02*
X151300000Y-84000000D01*
G04 #@! TO.C,C9*
X141400000Y-98100000D02*
X141400000Y-98900000D01*
X141400000Y-98900000D02*
X143000000Y-98900000D01*
X143000000Y-98100000D02*
X141400000Y-98100000D01*
X143000000Y-98900000D02*
X143000000Y-98100000D01*
G04 #@! TO.C,C16*
X146750000Y-91500000D02*
X146750000Y-91700000D01*
X146750000Y-91700000D02*
X147150000Y-91700000D01*
X147150000Y-91500000D02*
X146750000Y-91500000D01*
X147150000Y-91700000D02*
X147150000Y-91500000D01*
G04 #@! TO.C,C20*
X148750000Y-79375000D02*
X148750000Y-79575000D01*
X148750000Y-79575000D02*
X149150000Y-79575000D01*
X149150000Y-79375000D02*
X148750000Y-79375000D01*
X149150000Y-79575000D02*
X149150000Y-79375000D01*
G04 #@! TO.C,C23*
X151000000Y-80875000D02*
X151000000Y-81275000D01*
X151000000Y-81275000D02*
X151200000Y-81275000D01*
X151200000Y-80875000D02*
X151000000Y-80875000D01*
X151200000Y-81275000D02*
X151200000Y-80875000D01*
G04 #@! TO.C,L1*
X132900000Y-87850000D02*
X138600000Y-87850000D01*
X138600000Y-82650000D01*
X132900000Y-82650000D01*
X132900000Y-87850000D01*
G04 #@! TO.C,C17*
X146750000Y-92150000D02*
X146750000Y-92350000D01*
X146750000Y-92350000D02*
X147150000Y-92350000D01*
X147150000Y-92150000D02*
X146750000Y-92150000D01*
X147150000Y-92350000D02*
X147150000Y-92150000D01*
G04 #@! TO.C,C14*
X152650000Y-85150000D02*
X152650000Y-85350000D01*
X152650000Y-85350000D02*
X153050000Y-85350000D01*
X153050000Y-85150000D02*
X152650000Y-85150000D01*
X153050000Y-85350000D02*
X153050000Y-85150000D01*
G04 #@! TO.C,C21*
X151600000Y-80875000D02*
X151600000Y-81275000D01*
X151600000Y-81275000D02*
X151800000Y-81275000D01*
X151800000Y-80875000D02*
X151600000Y-80875000D01*
X151800000Y-81275000D02*
X151800000Y-80875000D01*
G04 #@! TO.C,R6*
X137100000Y-96037500D02*
X137100000Y-96862500D01*
X137100000Y-96862500D02*
X138700000Y-96862500D01*
X138700000Y-96037500D02*
X137100000Y-96037500D01*
X138700000Y-96862500D02*
X138700000Y-96037500D01*
G04 #@! TO.C,C22*
X150400000Y-80875000D02*
X150400000Y-81275000D01*
X150400000Y-81275000D02*
X150600000Y-81275000D01*
X150600000Y-80875000D02*
X150400000Y-80875000D01*
X150600000Y-81275000D02*
X150600000Y-80875000D01*
G04 #@! TO.C,C11*
X135150000Y-90950000D02*
X135150000Y-91450000D01*
X135150000Y-91450000D02*
X136150000Y-91450000D01*
X136150000Y-90950000D02*
X135150000Y-90950000D01*
X136150000Y-91450000D02*
X136150000Y-90950000D01*
G04 #@! TO.C,C12*
X150900000Y-84650000D02*
X150900000Y-84850000D01*
X150900000Y-84850000D02*
X151300000Y-84850000D01*
X151300000Y-84650000D02*
X150900000Y-84650000D01*
X151300000Y-84850000D02*
X151300000Y-84650000D01*
G04 #@! TO.C,C19*
X143200000Y-84300000D02*
X143200000Y-84500000D01*
X143200000Y-84500000D02*
X143600000Y-84500000D01*
X143600000Y-84300000D02*
X143200000Y-84300000D01*
X143600000Y-84500000D02*
X143600000Y-84300000D01*
G04 #@! TO.C,R1*
X137675000Y-89650000D02*
X137675000Y-91650000D01*
X137675000Y-91650000D02*
X138925000Y-91650000D01*
X138925000Y-89650000D02*
X137675000Y-89650000D01*
X138925000Y-91650000D02*
X138925000Y-89650000D01*
G04 #@! TO.C,C15*
X152650000Y-84550000D02*
X152650000Y-84750000D01*
X152650000Y-84750000D02*
X153050000Y-84750000D01*
X153050000Y-84550000D02*
X152650000Y-84550000D01*
X153050000Y-84750000D02*
X153050000Y-84550000D01*
G04 #@! TO.C,C2*
X134450000Y-88875000D02*
X134450000Y-90125000D01*
X134450000Y-90125000D02*
X136450000Y-90125000D01*
X136450000Y-88875000D02*
X134450000Y-88875000D01*
X136450000Y-90125000D02*
X136450000Y-88875000D01*
G04 #@! TO.C,C1*
X140650000Y-93400000D02*
X140650000Y-95000000D01*
X140650000Y-95000000D02*
X143850000Y-95000000D01*
X143850000Y-93400000D02*
X140650000Y-93400000D01*
X143850000Y-95000000D02*
X143850000Y-93400000D01*
G04 #@! TD*
M02*
