G04 #@! TF.GenerationSoftware,KiCad,Pcbnew,9.0.4*
G04 #@! TF.CreationDate,2025-10-13T14:39:45-04:00*
G04 #@! TF.ProjectId,bldc motor controller,626c6463-206d-46f7-946f-7220636f6e74,rev?*
G04 #@! TF.SameCoordinates,Original*
G04 #@! TF.FileFunction,Other,User*
%FSLAX46Y46*%
G04 Gerber Fmt 4.6, Leading zero omitted, Abs format (unit mm)*
G04 Created by KiCad (PCBNEW 9.0.4) date 2025-10-13 14:39:45*
%MOMM*%
%LPD*%
G01*
G04 APERTURE LIST*
%ADD10C,0.050000*%
G04 APERTURE END LIST*
D10*
G04 #@! TO.C,J1*
X146740000Y-86000000D02*
X146740000Y-81000000D01*
X146740000Y-81000000D02*
X144460000Y-81000000D01*
X144460000Y-86000000D02*
X146740000Y-86000000D01*
X144460000Y-81000000D02*
X144460000Y-86000000D01*
G04 #@! TO.C,-BAT+1*
X137900000Y-94650000D02*
X137900000Y-99450000D01*
X137900000Y-99450000D02*
X146400000Y-99450000D01*
X146400000Y-94650000D02*
X137900000Y-94650000D01*
X146400000Y-99450000D02*
X146400000Y-94650000D01*
G04 #@! TO.C,R10*
X140000000Y-91500000D02*
X141200000Y-91500000D01*
X140000000Y-92100000D02*
X140000000Y-91500000D01*
X141200000Y-91500000D02*
X141200000Y-92100000D01*
X141200000Y-92100000D02*
X140000000Y-92100000D01*
G04 #@! TO.C,C5*
X142200000Y-87950000D02*
X143400000Y-87950000D01*
X142200000Y-88550000D02*
X142200000Y-87950000D01*
X143400000Y-87950000D02*
X143400000Y-88550000D01*
X143400000Y-88550000D02*
X142200000Y-88550000D01*
G04 #@! TO.C,C24*
X143640000Y-89490000D02*
X145460000Y-89490000D01*
X143640000Y-90410000D02*
X143640000Y-89490000D01*
X145460000Y-89490000D02*
X145460000Y-90410000D01*
X145460000Y-90410000D02*
X143640000Y-90410000D01*
G04 #@! TO.C,C7*
X130920000Y-88720000D02*
X132380000Y-88720000D01*
X130920000Y-91680000D02*
X130920000Y-88720000D01*
X132380000Y-88720000D02*
X132380000Y-91680000D01*
X132380000Y-91680000D02*
X130920000Y-91680000D01*
G04 #@! TO.C,U8*
X138740000Y-76430000D02*
X138740000Y-79970000D01*
X138740000Y-79970000D02*
X147360000Y-79970000D01*
X147360000Y-76430000D02*
X138740000Y-76430000D01*
X147360000Y-79970000D02*
X147360000Y-76430000D01*
G04 #@! TO.C,C4*
X142500000Y-87100000D02*
X143700000Y-87100000D01*
X142500000Y-87700000D02*
X142500000Y-87100000D01*
X143700000Y-87100000D02*
X143700000Y-87700000D01*
X143700000Y-87700000D02*
X142500000Y-87700000D01*
G04 #@! TO.C,R8*
X134820000Y-94670000D02*
X137780000Y-94670000D01*
X134820000Y-96130000D02*
X134820000Y-94670000D01*
X137780000Y-94670000D02*
X137780000Y-96130000D01*
X137780000Y-96130000D02*
X134820000Y-96130000D01*
G04 #@! TO.C,R3*
X142500000Y-86500000D02*
X143700000Y-86500000D01*
X142500000Y-87100000D02*
X142500000Y-86500000D01*
X143700000Y-86500000D02*
X143700000Y-87100000D01*
X143700000Y-87100000D02*
X142500000Y-87100000D01*
G04 #@! TO.C,U7*
X147050000Y-86070000D02*
X148100000Y-86070000D01*
X147050000Y-88930000D02*
X147050000Y-86070000D01*
X148100000Y-84120000D02*
X149850000Y-84120000D01*
X148100000Y-86070000D02*
X148100000Y-84120000D01*
X148100000Y-88930000D02*
X147050000Y-88930000D01*
X148100000Y-90880000D02*
X148100000Y-88930000D01*
X149850000Y-84020000D02*
X153650000Y-84020000D01*
X149850000Y-84120000D02*
X149850000Y-84020000D01*
X149850000Y-90880000D02*
X148100000Y-90880000D01*
X149850000Y-90980000D02*
X149850000Y-90880000D01*
X153350000Y-86030000D02*
X153350000Y-88970000D01*
X153350000Y-88970000D02*
X153650000Y-88970000D01*
X153650000Y-84020000D02*
X153650000Y-86030000D01*
X153650000Y-86030000D02*
X153350000Y-86030000D01*
X153650000Y-88970000D02*
X153650000Y-90980000D01*
X153650000Y-90980000D02*
X149850000Y-90980000D01*
G04 #@! TO.C,R11*
X140950000Y-88950000D02*
X142150000Y-88950000D01*
X140950000Y-89550000D02*
X140950000Y-88950000D01*
X142150000Y-88950000D02*
X142150000Y-89550000D01*
X142150000Y-89550000D02*
X140950000Y-89550000D01*
G04 #@! TO.C,R4*
X143400000Y-87950000D02*
X144600000Y-87950000D01*
X143400000Y-88550000D02*
X143400000Y-87950000D01*
X144600000Y-87950000D02*
X144600000Y-88550000D01*
X144600000Y-88550000D02*
X143400000Y-88550000D01*
G04 #@! TO.C,C18*
X142290000Y-89140000D02*
X143210000Y-89140000D01*
X142290000Y-90960000D02*
X142290000Y-89140000D01*
X143210000Y-89140000D02*
X143210000Y-90960000D01*
X143210000Y-90960000D02*
X142290000Y-90960000D01*
G04 #@! TO.C,C10*
X130990000Y-85990000D02*
X131910000Y-85990000D01*
X130990000Y-87810000D02*
X130990000Y-85990000D01*
X131910000Y-85990000D02*
X131910000Y-87810000D01*
X131910000Y-87810000D02*
X130990000Y-87810000D01*
G04 #@! TO.C,R2*
X141900000Y-86350000D02*
X142500000Y-86350000D01*
X141900000Y-87550000D02*
X141900000Y-86350000D01*
X142500000Y-86350000D02*
X142500000Y-87550000D01*
X142500000Y-87550000D02*
X141900000Y-87550000D01*
G04 #@! TO.C,C8*
X141890000Y-81740000D02*
X142810000Y-81740000D01*
X141890000Y-83560000D02*
X141890000Y-81740000D01*
X142810000Y-81740000D02*
X142810000Y-83560000D01*
X142810000Y-83560000D02*
X141890000Y-83560000D01*
G04 #@! TO.C,M2*
X138150000Y-79900000D02*
G75*
G02*
X133850000Y-79900000I-2150000J0D01*
G01*
X133850000Y-79900000D02*
G75*
G02*
X138150000Y-79900000I2150000J0D01*
G01*
X151000000Y-96300000D02*
G75*
G02*
X146700000Y-96300000I-2150000J0D01*
G01*
X146700000Y-96300000D02*
G75*
G02*
X151000000Y-96300000I2150000J0D01*
G01*
G04 #@! TO.C,C3*
X141200000Y-86350000D02*
X141800000Y-86350000D01*
X141200000Y-87550000D02*
X141200000Y-86350000D01*
X141800000Y-86350000D02*
X141800000Y-87550000D01*
X141800000Y-87550000D02*
X141200000Y-87550000D01*
G04 #@! TO.C,C6*
X133350000Y-87950000D02*
X133950000Y-87950000D01*
X133350000Y-89150000D02*
X133350000Y-87950000D01*
X133950000Y-87950000D02*
X133950000Y-89150000D01*
X133950000Y-89150000D02*
X133350000Y-89150000D01*
G04 #@! TO.C,R7*
X145730000Y-91170000D02*
X146670000Y-91170000D01*
X145730000Y-93030000D02*
X145730000Y-91170000D01*
X146670000Y-91170000D02*
X146670000Y-93030000D01*
X146670000Y-93030000D02*
X145730000Y-93030000D01*
G04 #@! TO.C,R9*
X140950000Y-89950000D02*
X142150000Y-89950000D01*
X140950000Y-90550000D02*
X140950000Y-89950000D01*
X142150000Y-89950000D02*
X142150000Y-90550000D01*
X142150000Y-90550000D02*
X140950000Y-90550000D01*
G04 #@! TD*
M02*
