G04 #@! TF.GenerationSoftware,KiCad,Pcbnew,9.0.4*
G04 #@! TF.CreationDate,2025-10-13T14:39:45-04:00*
G04 #@! TF.ProjectId,bldc motor controller,626c6463-206d-46f7-946f-7220636f6e74,rev?*
G04 #@! TF.SameCoordinates,Original*
G04 #@! TF.FileFunction,Legend,Top*
G04 #@! TF.FilePolarity,Positive*
%FSLAX46Y46*%
G04 Gerber Fmt 4.6, Leading zero omitted, Abs format (unit mm)*
G04 Created by KiCad (PCBNEW 9.0.4) date 2025-10-13 14:39:45*
%MOMM*%
%LPD*%
G01*
G04 APERTURE LIST*
G04 Aperture macros list*
%AMRoundRect*
0 Rectangle with rounded corners*
0 $1 Rounding radius*
0 $2 $3 $4 $5 $6 $7 $8 $9 X,Y pos of 4 corners*
0 Add a 4 corners polygon primitive as box body*
4,1,4,$2,$3,$4,$5,$6,$7,$8,$9,$2,$3,0*
0 Add four circle primitives for the rounded corners*
1,1,$1+$1,$2,$3*
1,1,$1+$1,$4,$5*
1,1,$1+$1,$6,$7*
1,1,$1+$1,$8,$9*
0 Add four rect primitives between the rounded corners*
20,1,$1+$1,$2,$3,$4,$5,0*
20,1,$1+$1,$4,$5,$6,$7,0*
20,1,$1+$1,$6,$7,$8,$9,0*
20,1,$1+$1,$8,$9,$2,$3,0*%
G04 Aperture macros list end*
%ADD10C,0.200000*%
%ADD11C,0.150000*%
%ADD12C,0.062500*%
%ADD13C,0.254000*%
%ADD14C,0.120000*%
%ADD15C,0.300000*%
%ADD16R,0.720000X0.550000*%
%ADD17R,0.550000X0.720000*%
%ADD18R,0.800000X0.800000*%
%ADD19R,0.850000X0.850000*%
%ADD20C,0.850000*%
%ADD21RoundRect,0.250000X-0.600000X-0.750000X0.600000X-0.750000X0.600000X0.750000X-0.600000X0.750000X0*%
%ADD22O,1.700000X2.000000*%
%ADD23RoundRect,0.075000X-0.125000X-0.075000X0.125000X-0.075000X0.125000X0.075000X-0.125000X0.075000X0*%
%ADD24RoundRect,0.140000X-0.140000X-0.170000X0.140000X-0.170000X0.140000X0.170000X-0.140000X0.170000X0*%
%ADD25RoundRect,0.225000X-0.250000X0.225000X-0.250000X-0.225000X0.250000X-0.225000X0.250000X0.225000X0*%
%ADD26R,1.700000X1.700000*%
%ADD27C,1.700000*%
%ADD28RoundRect,0.200000X-0.200000X-0.275000X0.200000X-0.275000X0.200000X0.275000X-0.200000X0.275000X0*%
%ADD29RoundRect,0.150000X-0.700000X0.150000X-0.700000X-0.150000X0.700000X-0.150000X0.700000X0.150000X0*%
%ADD30RoundRect,0.250000X-1.150000X0.250000X-1.150000X-0.250000X1.150000X-0.250000X1.150000X0.250000X0*%
%ADD31RoundRect,0.140000X0.170000X-0.140000X0.170000X0.140000X-0.170000X0.140000X-0.170000X-0.140000X0*%
%ADD32RoundRect,0.140000X-0.170000X0.140000X-0.170000X-0.140000X0.170000X-0.140000X0.170000X0.140000X0*%
%ADD33RoundRect,0.075000X0.075000X-0.125000X0.075000X0.125000X-0.075000X0.125000X-0.075000X-0.125000X0*%
%ADD34O,0.280000X0.790000*%
%ADD35O,0.790000X0.280000*%
%ADD36R,4.000000X3.000000*%
%ADD37C,3.800000*%
%ADD38RoundRect,0.135000X0.185000X-0.135000X0.185000X0.135000X-0.185000X0.135000X-0.185000X-0.135000X0*%
G04 APERTURE END LIST*
D10*
X150257142Y-83856980D02*
X150209523Y-83904600D01*
X150209523Y-83904600D02*
X150066666Y-83952219D01*
X150066666Y-83952219D02*
X149971428Y-83952219D01*
X149971428Y-83952219D02*
X149828571Y-83904600D01*
X149828571Y-83904600D02*
X149733333Y-83809361D01*
X149733333Y-83809361D02*
X149685714Y-83714123D01*
X149685714Y-83714123D02*
X149638095Y-83523647D01*
X149638095Y-83523647D02*
X149638095Y-83380790D01*
X149638095Y-83380790D02*
X149685714Y-83190314D01*
X149685714Y-83190314D02*
X149733333Y-83095076D01*
X149733333Y-83095076D02*
X149828571Y-82999838D01*
X149828571Y-82999838D02*
X149971428Y-82952219D01*
X149971428Y-82952219D02*
X150066666Y-82952219D01*
X150066666Y-82952219D02*
X150209523Y-82999838D01*
X150209523Y-82999838D02*
X150257142Y-83047457D01*
X150638095Y-83666504D02*
X151114285Y-83666504D01*
X150542857Y-83952219D02*
X150876190Y-82952219D01*
X150876190Y-82952219D02*
X151209523Y-83952219D01*
X151542857Y-83952219D02*
X151542857Y-82952219D01*
X151542857Y-82952219D02*
X152114285Y-83952219D01*
X152114285Y-83952219D02*
X152114285Y-82952219D01*
X140338095Y-80466504D02*
X140814285Y-80466504D01*
X140242857Y-80752219D02*
X140576190Y-79752219D01*
X140576190Y-79752219D02*
X140909523Y-80752219D01*
X143100000Y-80228409D02*
X143242857Y-80276028D01*
X143242857Y-80276028D02*
X143290476Y-80323647D01*
X143290476Y-80323647D02*
X143338095Y-80418885D01*
X143338095Y-80418885D02*
X143338095Y-80561742D01*
X143338095Y-80561742D02*
X143290476Y-80656980D01*
X143290476Y-80656980D02*
X143242857Y-80704600D01*
X143242857Y-80704600D02*
X143147619Y-80752219D01*
X143147619Y-80752219D02*
X142766667Y-80752219D01*
X142766667Y-80752219D02*
X142766667Y-79752219D01*
X142766667Y-79752219D02*
X143100000Y-79752219D01*
X143100000Y-79752219D02*
X143195238Y-79799838D01*
X143195238Y-79799838D02*
X143242857Y-79847457D01*
X143242857Y-79847457D02*
X143290476Y-79942695D01*
X143290476Y-79942695D02*
X143290476Y-80037933D01*
X143290476Y-80037933D02*
X143242857Y-80133171D01*
X143242857Y-80133171D02*
X143195238Y-80180790D01*
X143195238Y-80180790D02*
X143100000Y-80228409D01*
X143100000Y-80228409D02*
X142766667Y-80228409D01*
X145861905Y-80656980D02*
X145814286Y-80704600D01*
X145814286Y-80704600D02*
X145671429Y-80752219D01*
X145671429Y-80752219D02*
X145576191Y-80752219D01*
X145576191Y-80752219D02*
X145433334Y-80704600D01*
X145433334Y-80704600D02*
X145338096Y-80609361D01*
X145338096Y-80609361D02*
X145290477Y-80514123D01*
X145290477Y-80514123D02*
X145242858Y-80323647D01*
X145242858Y-80323647D02*
X145242858Y-80180790D01*
X145242858Y-80180790D02*
X145290477Y-79990314D01*
X145290477Y-79990314D02*
X145338096Y-79895076D01*
X145338096Y-79895076D02*
X145433334Y-79799838D01*
X145433334Y-79799838D02*
X145576191Y-79752219D01*
X145576191Y-79752219D02*
X145671429Y-79752219D01*
X145671429Y-79752219D02*
X145814286Y-79799838D01*
X145814286Y-79799838D02*
X145861905Y-79847457D01*
X154602219Y-88954762D02*
X154126028Y-89288095D01*
X154602219Y-89526190D02*
X153602219Y-89526190D01*
X153602219Y-89526190D02*
X153602219Y-89145238D01*
X153602219Y-89145238D02*
X153649838Y-89050000D01*
X153649838Y-89050000D02*
X153697457Y-89002381D01*
X153697457Y-89002381D02*
X153792695Y-88954762D01*
X153792695Y-88954762D02*
X153935552Y-88954762D01*
X153935552Y-88954762D02*
X154030790Y-89002381D01*
X154030790Y-89002381D02*
X154078409Y-89050000D01*
X154078409Y-89050000D02*
X154126028Y-89145238D01*
X154126028Y-89145238D02*
X154126028Y-89526190D01*
X153602219Y-88621428D02*
X154602219Y-87954762D01*
X153602219Y-87954762D02*
X154602219Y-88621428D01*
X153602219Y-86954761D02*
X153602219Y-86383333D01*
X154602219Y-86669047D02*
X153602219Y-86669047D01*
X153602219Y-86145237D02*
X154602219Y-85478571D01*
X153602219Y-85478571D02*
X154602219Y-86145237D01*
D11*
X147566667Y-95034200D02*
X147709524Y-95081819D01*
X147709524Y-95081819D02*
X147947619Y-95081819D01*
X147947619Y-95081819D02*
X148042857Y-95034200D01*
X148042857Y-95034200D02*
X148090476Y-94986580D01*
X148090476Y-94986580D02*
X148138095Y-94891342D01*
X148138095Y-94891342D02*
X148138095Y-94796104D01*
X148138095Y-94796104D02*
X148090476Y-94700866D01*
X148090476Y-94700866D02*
X148042857Y-94653247D01*
X148042857Y-94653247D02*
X147947619Y-94605628D01*
X147947619Y-94605628D02*
X147757143Y-94558009D01*
X147757143Y-94558009D02*
X147661905Y-94510390D01*
X147661905Y-94510390D02*
X147614286Y-94462771D01*
X147614286Y-94462771D02*
X147566667Y-94367533D01*
X147566667Y-94367533D02*
X147566667Y-94272295D01*
X147566667Y-94272295D02*
X147614286Y-94177057D01*
X147614286Y-94177057D02*
X147661905Y-94129438D01*
X147661905Y-94129438D02*
X147757143Y-94081819D01*
X147757143Y-94081819D02*
X147995238Y-94081819D01*
X147995238Y-94081819D02*
X148138095Y-94129438D01*
X148471429Y-94081819D02*
X148709524Y-95081819D01*
X148709524Y-95081819D02*
X148900000Y-94367533D01*
X148900000Y-94367533D02*
X149090476Y-95081819D01*
X149090476Y-95081819D02*
X149328572Y-94081819D01*
X149661905Y-94177057D02*
X149709524Y-94129438D01*
X149709524Y-94129438D02*
X149804762Y-94081819D01*
X149804762Y-94081819D02*
X150042857Y-94081819D01*
X150042857Y-94081819D02*
X150138095Y-94129438D01*
X150138095Y-94129438D02*
X150185714Y-94177057D01*
X150185714Y-94177057D02*
X150233333Y-94272295D01*
X150233333Y-94272295D02*
X150233333Y-94367533D01*
X150233333Y-94367533D02*
X150185714Y-94510390D01*
X150185714Y-94510390D02*
X149614286Y-95081819D01*
X149614286Y-95081819D02*
X150233333Y-95081819D01*
X143230200Y-93633332D02*
X143277819Y-93490475D01*
X143277819Y-93490475D02*
X143277819Y-93252380D01*
X143277819Y-93252380D02*
X143230200Y-93157142D01*
X143230200Y-93157142D02*
X143182580Y-93109523D01*
X143182580Y-93109523D02*
X143087342Y-93061904D01*
X143087342Y-93061904D02*
X142992104Y-93061904D01*
X142992104Y-93061904D02*
X142896866Y-93109523D01*
X142896866Y-93109523D02*
X142849247Y-93157142D01*
X142849247Y-93157142D02*
X142801628Y-93252380D01*
X142801628Y-93252380D02*
X142754009Y-93442856D01*
X142754009Y-93442856D02*
X142706390Y-93538094D01*
X142706390Y-93538094D02*
X142658771Y-93585713D01*
X142658771Y-93585713D02*
X142563533Y-93633332D01*
X142563533Y-93633332D02*
X142468295Y-93633332D01*
X142468295Y-93633332D02*
X142373057Y-93585713D01*
X142373057Y-93585713D02*
X142325438Y-93538094D01*
X142325438Y-93538094D02*
X142277819Y-93442856D01*
X142277819Y-93442856D02*
X142277819Y-93204761D01*
X142277819Y-93204761D02*
X142325438Y-93061904D01*
X142277819Y-92728570D02*
X143277819Y-92490475D01*
X143277819Y-92490475D02*
X142563533Y-92299999D01*
X142563533Y-92299999D02*
X143277819Y-92109523D01*
X143277819Y-92109523D02*
X142277819Y-91871428D01*
X143277819Y-90966666D02*
X143277819Y-91538094D01*
X143277819Y-91252380D02*
X142277819Y-91252380D01*
X142277819Y-91252380D02*
X142420676Y-91347618D01*
X142420676Y-91347618D02*
X142515914Y-91442856D01*
X142515914Y-91442856D02*
X142563533Y-91538094D01*
X135181452Y-96023319D02*
X134705262Y-96023319D01*
X134705262Y-96023319D02*
X134705262Y-95023319D01*
X135514786Y-95499509D02*
X135848119Y-95499509D01*
X135990976Y-96023319D02*
X135514786Y-96023319D01*
X135514786Y-96023319D02*
X135514786Y-95023319D01*
X135514786Y-95023319D02*
X135990976Y-95023319D01*
X136419548Y-96023319D02*
X136419548Y-95023319D01*
X136419548Y-95023319D02*
X136657643Y-95023319D01*
X136657643Y-95023319D02*
X136800500Y-95070938D01*
X136800500Y-95070938D02*
X136895738Y-95166176D01*
X136895738Y-95166176D02*
X136943357Y-95261414D01*
X136943357Y-95261414D02*
X136990976Y-95451890D01*
X136990976Y-95451890D02*
X136990976Y-95594747D01*
X136990976Y-95594747D02*
X136943357Y-95785223D01*
X136943357Y-95785223D02*
X136895738Y-95880461D01*
X136895738Y-95880461D02*
X136800500Y-95975700D01*
X136800500Y-95975700D02*
X136657643Y-96023319D01*
X136657643Y-96023319D02*
X136419548Y-96023319D01*
X137943357Y-96023319D02*
X137371929Y-96023319D01*
X137657643Y-96023319D02*
X137657643Y-95023319D01*
X137657643Y-95023319D02*
X137562405Y-95166176D01*
X137562405Y-95166176D02*
X137467167Y-95261414D01*
X137467167Y-95261414D02*
X137371929Y-95309033D01*
X145266666Y-86064819D02*
X145266666Y-86779104D01*
X145266666Y-86779104D02*
X145219047Y-86921961D01*
X145219047Y-86921961D02*
X145123809Y-87017200D01*
X145123809Y-87017200D02*
X144980952Y-87064819D01*
X144980952Y-87064819D02*
X144885714Y-87064819D01*
X146266666Y-87064819D02*
X145695238Y-87064819D01*
X145980952Y-87064819D02*
X145980952Y-86064819D01*
X145980952Y-86064819D02*
X145885714Y-86207676D01*
X145885714Y-86207676D02*
X145790476Y-86302914D01*
X145790476Y-86302914D02*
X145695238Y-86350533D01*
X139364286Y-94023866D02*
X140126191Y-94023866D01*
X140935714Y-93881009D02*
X141078571Y-93928628D01*
X141078571Y-93928628D02*
X141126190Y-93976247D01*
X141126190Y-93976247D02*
X141173809Y-94071485D01*
X141173809Y-94071485D02*
X141173809Y-94214342D01*
X141173809Y-94214342D02*
X141126190Y-94309580D01*
X141126190Y-94309580D02*
X141078571Y-94357200D01*
X141078571Y-94357200D02*
X140983333Y-94404819D01*
X140983333Y-94404819D02*
X140602381Y-94404819D01*
X140602381Y-94404819D02*
X140602381Y-93404819D01*
X140602381Y-93404819D02*
X140935714Y-93404819D01*
X140935714Y-93404819D02*
X141030952Y-93452438D01*
X141030952Y-93452438D02*
X141078571Y-93500057D01*
X141078571Y-93500057D02*
X141126190Y-93595295D01*
X141126190Y-93595295D02*
X141126190Y-93690533D01*
X141126190Y-93690533D02*
X141078571Y-93785771D01*
X141078571Y-93785771D02*
X141030952Y-93833390D01*
X141030952Y-93833390D02*
X140935714Y-93881009D01*
X140935714Y-93881009D02*
X140602381Y-93881009D01*
X141554762Y-94119104D02*
X142030952Y-94119104D01*
X141459524Y-94404819D02*
X141792857Y-93404819D01*
X141792857Y-93404819D02*
X142126190Y-94404819D01*
X142316667Y-93404819D02*
X142888095Y-93404819D01*
X142602381Y-94404819D02*
X142602381Y-93404819D01*
X143221429Y-94023866D02*
X143983334Y-94023866D01*
X143602381Y-94404819D02*
X143602381Y-93642914D01*
X144983333Y-94404819D02*
X144411905Y-94404819D01*
X144697619Y-94404819D02*
X144697619Y-93404819D01*
X144697619Y-93404819D02*
X144602381Y-93547676D01*
X144602381Y-93547676D02*
X144507143Y-93642914D01*
X144507143Y-93642914D02*
X144411905Y-93690533D01*
D12*
X140378571Y-92678059D02*
X140211905Y-92439964D01*
X140092857Y-92678059D02*
X140092857Y-92178059D01*
X140092857Y-92178059D02*
X140283333Y-92178059D01*
X140283333Y-92178059D02*
X140330952Y-92201869D01*
X140330952Y-92201869D02*
X140354762Y-92225678D01*
X140354762Y-92225678D02*
X140378571Y-92273297D01*
X140378571Y-92273297D02*
X140378571Y-92344726D01*
X140378571Y-92344726D02*
X140354762Y-92392345D01*
X140354762Y-92392345D02*
X140330952Y-92416154D01*
X140330952Y-92416154D02*
X140283333Y-92439964D01*
X140283333Y-92439964D02*
X140092857Y-92439964D01*
X140854762Y-92678059D02*
X140569048Y-92678059D01*
X140711905Y-92678059D02*
X140711905Y-92178059D01*
X140711905Y-92178059D02*
X140664286Y-92249488D01*
X140664286Y-92249488D02*
X140616667Y-92297107D01*
X140616667Y-92297107D02*
X140569048Y-92320916D01*
X141164285Y-92178059D02*
X141211904Y-92178059D01*
X141211904Y-92178059D02*
X141259523Y-92201869D01*
X141259523Y-92201869D02*
X141283333Y-92225678D01*
X141283333Y-92225678D02*
X141307142Y-92273297D01*
X141307142Y-92273297D02*
X141330952Y-92368535D01*
X141330952Y-92368535D02*
X141330952Y-92487583D01*
X141330952Y-92487583D02*
X141307142Y-92582821D01*
X141307142Y-92582821D02*
X141283333Y-92630440D01*
X141283333Y-92630440D02*
X141259523Y-92654250D01*
X141259523Y-92654250D02*
X141211904Y-92678059D01*
X141211904Y-92678059D02*
X141164285Y-92678059D01*
X141164285Y-92678059D02*
X141116666Y-92654250D01*
X141116666Y-92654250D02*
X141092857Y-92630440D01*
X141092857Y-92630440D02*
X141069047Y-92582821D01*
X141069047Y-92582821D02*
X141045238Y-92487583D01*
X141045238Y-92487583D02*
X141045238Y-92368535D01*
X141045238Y-92368535D02*
X141069047Y-92273297D01*
X141069047Y-92273297D02*
X141092857Y-92225678D01*
X141092857Y-92225678D02*
X141116666Y-92201869D01*
X141116666Y-92201869D02*
X141164285Y-92178059D01*
X143116666Y-88980440D02*
X143092857Y-89004250D01*
X143092857Y-89004250D02*
X143021428Y-89028059D01*
X143021428Y-89028059D02*
X142973809Y-89028059D01*
X142973809Y-89028059D02*
X142902381Y-89004250D01*
X142902381Y-89004250D02*
X142854762Y-88956630D01*
X142854762Y-88956630D02*
X142830952Y-88909011D01*
X142830952Y-88909011D02*
X142807143Y-88813773D01*
X142807143Y-88813773D02*
X142807143Y-88742345D01*
X142807143Y-88742345D02*
X142830952Y-88647107D01*
X142830952Y-88647107D02*
X142854762Y-88599488D01*
X142854762Y-88599488D02*
X142902381Y-88551869D01*
X142902381Y-88551869D02*
X142973809Y-88528059D01*
X142973809Y-88528059D02*
X143021428Y-88528059D01*
X143021428Y-88528059D02*
X143092857Y-88551869D01*
X143092857Y-88551869D02*
X143116666Y-88575678D01*
X143569047Y-88528059D02*
X143330952Y-88528059D01*
X143330952Y-88528059D02*
X143307143Y-88766154D01*
X143307143Y-88766154D02*
X143330952Y-88742345D01*
X143330952Y-88742345D02*
X143378571Y-88718535D01*
X143378571Y-88718535D02*
X143497619Y-88718535D01*
X143497619Y-88718535D02*
X143545238Y-88742345D01*
X143545238Y-88742345D02*
X143569047Y-88766154D01*
X143569047Y-88766154D02*
X143592857Y-88813773D01*
X143592857Y-88813773D02*
X143592857Y-88932821D01*
X143592857Y-88932821D02*
X143569047Y-88980440D01*
X143569047Y-88980440D02*
X143545238Y-89004250D01*
X143545238Y-89004250D02*
X143497619Y-89028059D01*
X143497619Y-89028059D02*
X143378571Y-89028059D01*
X143378571Y-89028059D02*
X143330952Y-89004250D01*
X143330952Y-89004250D02*
X143307143Y-88980440D01*
X145928571Y-90080440D02*
X145904762Y-90104250D01*
X145904762Y-90104250D02*
X145833333Y-90128059D01*
X145833333Y-90128059D02*
X145785714Y-90128059D01*
X145785714Y-90128059D02*
X145714286Y-90104250D01*
X145714286Y-90104250D02*
X145666667Y-90056630D01*
X145666667Y-90056630D02*
X145642857Y-90009011D01*
X145642857Y-90009011D02*
X145619048Y-89913773D01*
X145619048Y-89913773D02*
X145619048Y-89842345D01*
X145619048Y-89842345D02*
X145642857Y-89747107D01*
X145642857Y-89747107D02*
X145666667Y-89699488D01*
X145666667Y-89699488D02*
X145714286Y-89651869D01*
X145714286Y-89651869D02*
X145785714Y-89628059D01*
X145785714Y-89628059D02*
X145833333Y-89628059D01*
X145833333Y-89628059D02*
X145904762Y-89651869D01*
X145904762Y-89651869D02*
X145928571Y-89675678D01*
X146119048Y-89675678D02*
X146142857Y-89651869D01*
X146142857Y-89651869D02*
X146190476Y-89628059D01*
X146190476Y-89628059D02*
X146309524Y-89628059D01*
X146309524Y-89628059D02*
X146357143Y-89651869D01*
X146357143Y-89651869D02*
X146380952Y-89675678D01*
X146380952Y-89675678D02*
X146404762Y-89723297D01*
X146404762Y-89723297D02*
X146404762Y-89770916D01*
X146404762Y-89770916D02*
X146380952Y-89842345D01*
X146380952Y-89842345D02*
X146095238Y-90128059D01*
X146095238Y-90128059D02*
X146404762Y-90128059D01*
X146833333Y-89794726D02*
X146833333Y-90128059D01*
X146714285Y-89604250D02*
X146595238Y-89961392D01*
X146595238Y-89961392D02*
X146904761Y-89961392D01*
D11*
X132359580Y-92816666D02*
X132407200Y-92864285D01*
X132407200Y-92864285D02*
X132454819Y-93007142D01*
X132454819Y-93007142D02*
X132454819Y-93102380D01*
X132454819Y-93102380D02*
X132407200Y-93245237D01*
X132407200Y-93245237D02*
X132311961Y-93340475D01*
X132311961Y-93340475D02*
X132216723Y-93388094D01*
X132216723Y-93388094D02*
X132026247Y-93435713D01*
X132026247Y-93435713D02*
X131883390Y-93435713D01*
X131883390Y-93435713D02*
X131692914Y-93388094D01*
X131692914Y-93388094D02*
X131597676Y-93340475D01*
X131597676Y-93340475D02*
X131502438Y-93245237D01*
X131502438Y-93245237D02*
X131454819Y-93102380D01*
X131454819Y-93102380D02*
X131454819Y-93007142D01*
X131454819Y-93007142D02*
X131502438Y-92864285D01*
X131502438Y-92864285D02*
X131550057Y-92816666D01*
X131454819Y-92483332D02*
X131454819Y-91816666D01*
X131454819Y-91816666D02*
X132454819Y-92245237D01*
X147424819Y-78961904D02*
X148234342Y-78961904D01*
X148234342Y-78961904D02*
X148329580Y-78914285D01*
X148329580Y-78914285D02*
X148377200Y-78866666D01*
X148377200Y-78866666D02*
X148424819Y-78771428D01*
X148424819Y-78771428D02*
X148424819Y-78580952D01*
X148424819Y-78580952D02*
X148377200Y-78485714D01*
X148377200Y-78485714D02*
X148329580Y-78438095D01*
X148329580Y-78438095D02*
X148234342Y-78390476D01*
X148234342Y-78390476D02*
X147424819Y-78390476D01*
X147853390Y-77771428D02*
X147805771Y-77866666D01*
X147805771Y-77866666D02*
X147758152Y-77914285D01*
X147758152Y-77914285D02*
X147662914Y-77961904D01*
X147662914Y-77961904D02*
X147615295Y-77961904D01*
X147615295Y-77961904D02*
X147520057Y-77914285D01*
X147520057Y-77914285D02*
X147472438Y-77866666D01*
X147472438Y-77866666D02*
X147424819Y-77771428D01*
X147424819Y-77771428D02*
X147424819Y-77580952D01*
X147424819Y-77580952D02*
X147472438Y-77485714D01*
X147472438Y-77485714D02*
X147520057Y-77438095D01*
X147520057Y-77438095D02*
X147615295Y-77390476D01*
X147615295Y-77390476D02*
X147662914Y-77390476D01*
X147662914Y-77390476D02*
X147758152Y-77438095D01*
X147758152Y-77438095D02*
X147805771Y-77485714D01*
X147805771Y-77485714D02*
X147853390Y-77580952D01*
X147853390Y-77580952D02*
X147853390Y-77771428D01*
X147853390Y-77771428D02*
X147901009Y-77866666D01*
X147901009Y-77866666D02*
X147948628Y-77914285D01*
X147948628Y-77914285D02*
X148043866Y-77961904D01*
X148043866Y-77961904D02*
X148234342Y-77961904D01*
X148234342Y-77961904D02*
X148329580Y-77914285D01*
X148329580Y-77914285D02*
X148377200Y-77866666D01*
X148377200Y-77866666D02*
X148424819Y-77771428D01*
X148424819Y-77771428D02*
X148424819Y-77580952D01*
X148424819Y-77580952D02*
X148377200Y-77485714D01*
X148377200Y-77485714D02*
X148329580Y-77438095D01*
X148329580Y-77438095D02*
X148234342Y-77390476D01*
X148234342Y-77390476D02*
X148043866Y-77390476D01*
X148043866Y-77390476D02*
X147948628Y-77438095D01*
X147948628Y-77438095D02*
X147901009Y-77485714D01*
X147901009Y-77485714D02*
X147853390Y-77580952D01*
D12*
X144166666Y-87630440D02*
X144142857Y-87654250D01*
X144142857Y-87654250D02*
X144071428Y-87678059D01*
X144071428Y-87678059D02*
X144023809Y-87678059D01*
X144023809Y-87678059D02*
X143952381Y-87654250D01*
X143952381Y-87654250D02*
X143904762Y-87606630D01*
X143904762Y-87606630D02*
X143880952Y-87559011D01*
X143880952Y-87559011D02*
X143857143Y-87463773D01*
X143857143Y-87463773D02*
X143857143Y-87392345D01*
X143857143Y-87392345D02*
X143880952Y-87297107D01*
X143880952Y-87297107D02*
X143904762Y-87249488D01*
X143904762Y-87249488D02*
X143952381Y-87201869D01*
X143952381Y-87201869D02*
X144023809Y-87178059D01*
X144023809Y-87178059D02*
X144071428Y-87178059D01*
X144071428Y-87178059D02*
X144142857Y-87201869D01*
X144142857Y-87201869D02*
X144166666Y-87225678D01*
X144595238Y-87344726D02*
X144595238Y-87678059D01*
X144476190Y-87154250D02*
X144357143Y-87511392D01*
X144357143Y-87511392D02*
X144666666Y-87511392D01*
X137116666Y-94528059D02*
X136950000Y-94289964D01*
X136830952Y-94528059D02*
X136830952Y-94028059D01*
X136830952Y-94028059D02*
X137021428Y-94028059D01*
X137021428Y-94028059D02*
X137069047Y-94051869D01*
X137069047Y-94051869D02*
X137092857Y-94075678D01*
X137092857Y-94075678D02*
X137116666Y-94123297D01*
X137116666Y-94123297D02*
X137116666Y-94194726D01*
X137116666Y-94194726D02*
X137092857Y-94242345D01*
X137092857Y-94242345D02*
X137069047Y-94266154D01*
X137069047Y-94266154D02*
X137021428Y-94289964D01*
X137021428Y-94289964D02*
X136830952Y-94289964D01*
X137402381Y-94242345D02*
X137354762Y-94218535D01*
X137354762Y-94218535D02*
X137330952Y-94194726D01*
X137330952Y-94194726D02*
X137307143Y-94147107D01*
X137307143Y-94147107D02*
X137307143Y-94123297D01*
X137307143Y-94123297D02*
X137330952Y-94075678D01*
X137330952Y-94075678D02*
X137354762Y-94051869D01*
X137354762Y-94051869D02*
X137402381Y-94028059D01*
X137402381Y-94028059D02*
X137497619Y-94028059D01*
X137497619Y-94028059D02*
X137545238Y-94051869D01*
X137545238Y-94051869D02*
X137569047Y-94075678D01*
X137569047Y-94075678D02*
X137592857Y-94123297D01*
X137592857Y-94123297D02*
X137592857Y-94147107D01*
X137592857Y-94147107D02*
X137569047Y-94194726D01*
X137569047Y-94194726D02*
X137545238Y-94218535D01*
X137545238Y-94218535D02*
X137497619Y-94242345D01*
X137497619Y-94242345D02*
X137402381Y-94242345D01*
X137402381Y-94242345D02*
X137354762Y-94266154D01*
X137354762Y-94266154D02*
X137330952Y-94289964D01*
X137330952Y-94289964D02*
X137307143Y-94337583D01*
X137307143Y-94337583D02*
X137307143Y-94432821D01*
X137307143Y-94432821D02*
X137330952Y-94480440D01*
X137330952Y-94480440D02*
X137354762Y-94504250D01*
X137354762Y-94504250D02*
X137402381Y-94528059D01*
X137402381Y-94528059D02*
X137497619Y-94528059D01*
X137497619Y-94528059D02*
X137545238Y-94504250D01*
X137545238Y-94504250D02*
X137569047Y-94480440D01*
X137569047Y-94480440D02*
X137592857Y-94432821D01*
X137592857Y-94432821D02*
X137592857Y-94337583D01*
X137592857Y-94337583D02*
X137569047Y-94289964D01*
X137569047Y-94289964D02*
X137545238Y-94266154D01*
X137545238Y-94266154D02*
X137497619Y-94242345D01*
X144216666Y-86928059D02*
X144050000Y-86689964D01*
X143930952Y-86928059D02*
X143930952Y-86428059D01*
X143930952Y-86428059D02*
X144121428Y-86428059D01*
X144121428Y-86428059D02*
X144169047Y-86451869D01*
X144169047Y-86451869D02*
X144192857Y-86475678D01*
X144192857Y-86475678D02*
X144216666Y-86523297D01*
X144216666Y-86523297D02*
X144216666Y-86594726D01*
X144216666Y-86594726D02*
X144192857Y-86642345D01*
X144192857Y-86642345D02*
X144169047Y-86666154D01*
X144169047Y-86666154D02*
X144121428Y-86689964D01*
X144121428Y-86689964D02*
X143930952Y-86689964D01*
X144383333Y-86428059D02*
X144692857Y-86428059D01*
X144692857Y-86428059D02*
X144526190Y-86618535D01*
X144526190Y-86618535D02*
X144597619Y-86618535D01*
X144597619Y-86618535D02*
X144645238Y-86642345D01*
X144645238Y-86642345D02*
X144669047Y-86666154D01*
X144669047Y-86666154D02*
X144692857Y-86713773D01*
X144692857Y-86713773D02*
X144692857Y-86832821D01*
X144692857Y-86832821D02*
X144669047Y-86880440D01*
X144669047Y-86880440D02*
X144645238Y-86904250D01*
X144645238Y-86904250D02*
X144597619Y-86928059D01*
X144597619Y-86928059D02*
X144454762Y-86928059D01*
X144454762Y-86928059D02*
X144407143Y-86904250D01*
X144407143Y-86904250D02*
X144383333Y-86880440D01*
D11*
X150204819Y-88261904D02*
X151014342Y-88261904D01*
X151014342Y-88261904D02*
X151109580Y-88214285D01*
X151109580Y-88214285D02*
X151157200Y-88166666D01*
X151157200Y-88166666D02*
X151204819Y-88071428D01*
X151204819Y-88071428D02*
X151204819Y-87880952D01*
X151204819Y-87880952D02*
X151157200Y-87785714D01*
X151157200Y-87785714D02*
X151109580Y-87738095D01*
X151109580Y-87738095D02*
X151014342Y-87690476D01*
X151014342Y-87690476D02*
X150204819Y-87690476D01*
X150204819Y-87309523D02*
X150204819Y-86642857D01*
X150204819Y-86642857D02*
X151204819Y-87071428D01*
D12*
X141828059Y-88521428D02*
X141589964Y-88688094D01*
X141828059Y-88807142D02*
X141328059Y-88807142D01*
X141328059Y-88807142D02*
X141328059Y-88616666D01*
X141328059Y-88616666D02*
X141351869Y-88569047D01*
X141351869Y-88569047D02*
X141375678Y-88545237D01*
X141375678Y-88545237D02*
X141423297Y-88521428D01*
X141423297Y-88521428D02*
X141494726Y-88521428D01*
X141494726Y-88521428D02*
X141542345Y-88545237D01*
X141542345Y-88545237D02*
X141566154Y-88569047D01*
X141566154Y-88569047D02*
X141589964Y-88616666D01*
X141589964Y-88616666D02*
X141589964Y-88807142D01*
X141828059Y-88045237D02*
X141828059Y-88330951D01*
X141828059Y-88188094D02*
X141328059Y-88188094D01*
X141328059Y-88188094D02*
X141399488Y-88235713D01*
X141399488Y-88235713D02*
X141447107Y-88283332D01*
X141447107Y-88283332D02*
X141470916Y-88330951D01*
X141828059Y-87569047D02*
X141828059Y-87854761D01*
X141828059Y-87711904D02*
X141328059Y-87711904D01*
X141328059Y-87711904D02*
X141399488Y-87759523D01*
X141399488Y-87759523D02*
X141447107Y-87807142D01*
X141447107Y-87807142D02*
X141470916Y-87854761D01*
X145066666Y-88478059D02*
X144900000Y-88239964D01*
X144780952Y-88478059D02*
X144780952Y-87978059D01*
X144780952Y-87978059D02*
X144971428Y-87978059D01*
X144971428Y-87978059D02*
X145019047Y-88001869D01*
X145019047Y-88001869D02*
X145042857Y-88025678D01*
X145042857Y-88025678D02*
X145066666Y-88073297D01*
X145066666Y-88073297D02*
X145066666Y-88144726D01*
X145066666Y-88144726D02*
X145042857Y-88192345D01*
X145042857Y-88192345D02*
X145019047Y-88216154D01*
X145019047Y-88216154D02*
X144971428Y-88239964D01*
X144971428Y-88239964D02*
X144780952Y-88239964D01*
X145495238Y-88144726D02*
X145495238Y-88478059D01*
X145376190Y-87954250D02*
X145257143Y-88311392D01*
X145257143Y-88311392D02*
X145566666Y-88311392D01*
X142278571Y-91630440D02*
X142254762Y-91654250D01*
X142254762Y-91654250D02*
X142183333Y-91678059D01*
X142183333Y-91678059D02*
X142135714Y-91678059D01*
X142135714Y-91678059D02*
X142064286Y-91654250D01*
X142064286Y-91654250D02*
X142016667Y-91606630D01*
X142016667Y-91606630D02*
X141992857Y-91559011D01*
X141992857Y-91559011D02*
X141969048Y-91463773D01*
X141969048Y-91463773D02*
X141969048Y-91392345D01*
X141969048Y-91392345D02*
X141992857Y-91297107D01*
X141992857Y-91297107D02*
X142016667Y-91249488D01*
X142016667Y-91249488D02*
X142064286Y-91201869D01*
X142064286Y-91201869D02*
X142135714Y-91178059D01*
X142135714Y-91178059D02*
X142183333Y-91178059D01*
X142183333Y-91178059D02*
X142254762Y-91201869D01*
X142254762Y-91201869D02*
X142278571Y-91225678D01*
X142754762Y-91678059D02*
X142469048Y-91678059D01*
X142611905Y-91678059D02*
X142611905Y-91178059D01*
X142611905Y-91178059D02*
X142564286Y-91249488D01*
X142564286Y-91249488D02*
X142516667Y-91297107D01*
X142516667Y-91297107D02*
X142469048Y-91320916D01*
X143040476Y-91392345D02*
X142992857Y-91368535D01*
X142992857Y-91368535D02*
X142969047Y-91344726D01*
X142969047Y-91344726D02*
X142945238Y-91297107D01*
X142945238Y-91297107D02*
X142945238Y-91273297D01*
X142945238Y-91273297D02*
X142969047Y-91225678D01*
X142969047Y-91225678D02*
X142992857Y-91201869D01*
X142992857Y-91201869D02*
X143040476Y-91178059D01*
X143040476Y-91178059D02*
X143135714Y-91178059D01*
X143135714Y-91178059D02*
X143183333Y-91201869D01*
X143183333Y-91201869D02*
X143207142Y-91225678D01*
X143207142Y-91225678D02*
X143230952Y-91273297D01*
X143230952Y-91273297D02*
X143230952Y-91297107D01*
X143230952Y-91297107D02*
X143207142Y-91344726D01*
X143207142Y-91344726D02*
X143183333Y-91368535D01*
X143183333Y-91368535D02*
X143135714Y-91392345D01*
X143135714Y-91392345D02*
X143040476Y-91392345D01*
X143040476Y-91392345D02*
X142992857Y-91416154D01*
X142992857Y-91416154D02*
X142969047Y-91439964D01*
X142969047Y-91439964D02*
X142945238Y-91487583D01*
X142945238Y-91487583D02*
X142945238Y-91582821D01*
X142945238Y-91582821D02*
X142969047Y-91630440D01*
X142969047Y-91630440D02*
X142992857Y-91654250D01*
X142992857Y-91654250D02*
X143040476Y-91678059D01*
X143040476Y-91678059D02*
X143135714Y-91678059D01*
X143135714Y-91678059D02*
X143183333Y-91654250D01*
X143183333Y-91654250D02*
X143207142Y-91630440D01*
X143207142Y-91630440D02*
X143230952Y-91582821D01*
X143230952Y-91582821D02*
X143230952Y-91487583D01*
X143230952Y-91487583D02*
X143207142Y-91439964D01*
X143207142Y-91439964D02*
X143183333Y-91416154D01*
X143183333Y-91416154D02*
X143135714Y-91392345D01*
D11*
X132009580Y-85092857D02*
X132057200Y-85140476D01*
X132057200Y-85140476D02*
X132104819Y-85283333D01*
X132104819Y-85283333D02*
X132104819Y-85378571D01*
X132104819Y-85378571D02*
X132057200Y-85521428D01*
X132057200Y-85521428D02*
X131961961Y-85616666D01*
X131961961Y-85616666D02*
X131866723Y-85664285D01*
X131866723Y-85664285D02*
X131676247Y-85711904D01*
X131676247Y-85711904D02*
X131533390Y-85711904D01*
X131533390Y-85711904D02*
X131342914Y-85664285D01*
X131342914Y-85664285D02*
X131247676Y-85616666D01*
X131247676Y-85616666D02*
X131152438Y-85521428D01*
X131152438Y-85521428D02*
X131104819Y-85378571D01*
X131104819Y-85378571D02*
X131104819Y-85283333D01*
X131104819Y-85283333D02*
X131152438Y-85140476D01*
X131152438Y-85140476D02*
X131200057Y-85092857D01*
X132104819Y-84140476D02*
X132104819Y-84711904D01*
X132104819Y-84426190D02*
X131104819Y-84426190D01*
X131104819Y-84426190D02*
X131247676Y-84521428D01*
X131247676Y-84521428D02*
X131342914Y-84616666D01*
X131342914Y-84616666D02*
X131390533Y-84711904D01*
X131104819Y-83521428D02*
X131104819Y-83426190D01*
X131104819Y-83426190D02*
X131152438Y-83330952D01*
X131152438Y-83330952D02*
X131200057Y-83283333D01*
X131200057Y-83283333D02*
X131295295Y-83235714D01*
X131295295Y-83235714D02*
X131485771Y-83188095D01*
X131485771Y-83188095D02*
X131723866Y-83188095D01*
X131723866Y-83188095D02*
X131914342Y-83235714D01*
X131914342Y-83235714D02*
X132009580Y-83283333D01*
X132009580Y-83283333D02*
X132057200Y-83330952D01*
X132057200Y-83330952D02*
X132104819Y-83426190D01*
X132104819Y-83426190D02*
X132104819Y-83521428D01*
X132104819Y-83521428D02*
X132057200Y-83616666D01*
X132057200Y-83616666D02*
X132009580Y-83664285D01*
X132009580Y-83664285D02*
X131914342Y-83711904D01*
X131914342Y-83711904D02*
X131723866Y-83759523D01*
X131723866Y-83759523D02*
X131485771Y-83759523D01*
X131485771Y-83759523D02*
X131295295Y-83711904D01*
X131295295Y-83711904D02*
X131200057Y-83664285D01*
X131200057Y-83664285D02*
X131152438Y-83616666D01*
X131152438Y-83616666D02*
X131104819Y-83521428D01*
D12*
X142378059Y-85883333D02*
X142139964Y-86049999D01*
X142378059Y-86169047D02*
X141878059Y-86169047D01*
X141878059Y-86169047D02*
X141878059Y-85978571D01*
X141878059Y-85978571D02*
X141901869Y-85930952D01*
X141901869Y-85930952D02*
X141925678Y-85907142D01*
X141925678Y-85907142D02*
X141973297Y-85883333D01*
X141973297Y-85883333D02*
X142044726Y-85883333D01*
X142044726Y-85883333D02*
X142092345Y-85907142D01*
X142092345Y-85907142D02*
X142116154Y-85930952D01*
X142116154Y-85930952D02*
X142139964Y-85978571D01*
X142139964Y-85978571D02*
X142139964Y-86169047D01*
X141925678Y-85692856D02*
X141901869Y-85669047D01*
X141901869Y-85669047D02*
X141878059Y-85621428D01*
X141878059Y-85621428D02*
X141878059Y-85502380D01*
X141878059Y-85502380D02*
X141901869Y-85454761D01*
X141901869Y-85454761D02*
X141925678Y-85430952D01*
X141925678Y-85430952D02*
X141973297Y-85407142D01*
X141973297Y-85407142D02*
X142020916Y-85407142D01*
X142020916Y-85407142D02*
X142092345Y-85430952D01*
X142092345Y-85430952D02*
X142378059Y-85716666D01*
X142378059Y-85716666D02*
X142378059Y-85407142D01*
D11*
X136438095Y-91604819D02*
X136438095Y-92414342D01*
X136438095Y-92414342D02*
X136485714Y-92509580D01*
X136485714Y-92509580D02*
X136533333Y-92557200D01*
X136533333Y-92557200D02*
X136628571Y-92604819D01*
X136628571Y-92604819D02*
X136819047Y-92604819D01*
X136819047Y-92604819D02*
X136914285Y-92557200D01*
X136914285Y-92557200D02*
X136961904Y-92509580D01*
X136961904Y-92509580D02*
X137009523Y-92414342D01*
X137009523Y-92414342D02*
X137009523Y-91604819D01*
X138009523Y-92604819D02*
X137438095Y-92604819D01*
X137723809Y-92604819D02*
X137723809Y-91604819D01*
X137723809Y-91604819D02*
X137628571Y-91747676D01*
X137628571Y-91747676D02*
X137533333Y-91842914D01*
X137533333Y-91842914D02*
X137438095Y-91890533D01*
X144009580Y-83016666D02*
X144057200Y-83064285D01*
X144057200Y-83064285D02*
X144104819Y-83207142D01*
X144104819Y-83207142D02*
X144104819Y-83302380D01*
X144104819Y-83302380D02*
X144057200Y-83445237D01*
X144057200Y-83445237D02*
X143961961Y-83540475D01*
X143961961Y-83540475D02*
X143866723Y-83588094D01*
X143866723Y-83588094D02*
X143676247Y-83635713D01*
X143676247Y-83635713D02*
X143533390Y-83635713D01*
X143533390Y-83635713D02*
X143342914Y-83588094D01*
X143342914Y-83588094D02*
X143247676Y-83540475D01*
X143247676Y-83540475D02*
X143152438Y-83445237D01*
X143152438Y-83445237D02*
X143104819Y-83302380D01*
X143104819Y-83302380D02*
X143104819Y-83207142D01*
X143104819Y-83207142D02*
X143152438Y-83064285D01*
X143152438Y-83064285D02*
X143200057Y-83016666D01*
X143533390Y-82445237D02*
X143485771Y-82540475D01*
X143485771Y-82540475D02*
X143438152Y-82588094D01*
X143438152Y-82588094D02*
X143342914Y-82635713D01*
X143342914Y-82635713D02*
X143295295Y-82635713D01*
X143295295Y-82635713D02*
X143200057Y-82588094D01*
X143200057Y-82588094D02*
X143152438Y-82540475D01*
X143152438Y-82540475D02*
X143104819Y-82445237D01*
X143104819Y-82445237D02*
X143104819Y-82254761D01*
X143104819Y-82254761D02*
X143152438Y-82159523D01*
X143152438Y-82159523D02*
X143200057Y-82111904D01*
X143200057Y-82111904D02*
X143295295Y-82064285D01*
X143295295Y-82064285D02*
X143342914Y-82064285D01*
X143342914Y-82064285D02*
X143438152Y-82111904D01*
X143438152Y-82111904D02*
X143485771Y-82159523D01*
X143485771Y-82159523D02*
X143533390Y-82254761D01*
X143533390Y-82254761D02*
X143533390Y-82445237D01*
X143533390Y-82445237D02*
X143581009Y-82540475D01*
X143581009Y-82540475D02*
X143628628Y-82588094D01*
X143628628Y-82588094D02*
X143723866Y-82635713D01*
X143723866Y-82635713D02*
X143914342Y-82635713D01*
X143914342Y-82635713D02*
X144009580Y-82588094D01*
X144009580Y-82588094D02*
X144057200Y-82540475D01*
X144057200Y-82540475D02*
X144104819Y-82445237D01*
X144104819Y-82445237D02*
X144104819Y-82254761D01*
X144104819Y-82254761D02*
X144057200Y-82159523D01*
X144057200Y-82159523D02*
X144009580Y-82111904D01*
X144009580Y-82111904D02*
X143914342Y-82064285D01*
X143914342Y-82064285D02*
X143723866Y-82064285D01*
X143723866Y-82064285D02*
X143628628Y-82111904D01*
X143628628Y-82111904D02*
X143581009Y-82159523D01*
X143581009Y-82159523D02*
X143533390Y-82254761D01*
D10*
X133552219Y-82709523D02*
X132552219Y-82709523D01*
X132552219Y-82709523D02*
X133266504Y-82376190D01*
X133266504Y-82376190D02*
X132552219Y-82042857D01*
X132552219Y-82042857D02*
X133552219Y-82042857D01*
X132647457Y-81614285D02*
X132599838Y-81566666D01*
X132599838Y-81566666D02*
X132552219Y-81471428D01*
X132552219Y-81471428D02*
X132552219Y-81233333D01*
X132552219Y-81233333D02*
X132599838Y-81138095D01*
X132599838Y-81138095D02*
X132647457Y-81090476D01*
X132647457Y-81090476D02*
X132742695Y-81042857D01*
X132742695Y-81042857D02*
X132837933Y-81042857D01*
X132837933Y-81042857D02*
X132980790Y-81090476D01*
X132980790Y-81090476D02*
X133552219Y-81661904D01*
X133552219Y-81661904D02*
X133552219Y-81042857D01*
X151040476Y-94802219D02*
X151040476Y-93802219D01*
X151040476Y-93802219D02*
X151373809Y-94516504D01*
X151373809Y-94516504D02*
X151707142Y-93802219D01*
X151707142Y-93802219D02*
X151707142Y-94802219D01*
X152135714Y-93897457D02*
X152183333Y-93849838D01*
X152183333Y-93849838D02*
X152278571Y-93802219D01*
X152278571Y-93802219D02*
X152516666Y-93802219D01*
X152516666Y-93802219D02*
X152611904Y-93849838D01*
X152611904Y-93849838D02*
X152659523Y-93897457D01*
X152659523Y-93897457D02*
X152707142Y-93992695D01*
X152707142Y-93992695D02*
X152707142Y-94087933D01*
X152707142Y-94087933D02*
X152659523Y-94230790D01*
X152659523Y-94230790D02*
X152088095Y-94802219D01*
X152088095Y-94802219D02*
X152707142Y-94802219D01*
D12*
X141630440Y-85833333D02*
X141654250Y-85857142D01*
X141654250Y-85857142D02*
X141678059Y-85928571D01*
X141678059Y-85928571D02*
X141678059Y-85976190D01*
X141678059Y-85976190D02*
X141654250Y-86047618D01*
X141654250Y-86047618D02*
X141606630Y-86095237D01*
X141606630Y-86095237D02*
X141559011Y-86119047D01*
X141559011Y-86119047D02*
X141463773Y-86142856D01*
X141463773Y-86142856D02*
X141392345Y-86142856D01*
X141392345Y-86142856D02*
X141297107Y-86119047D01*
X141297107Y-86119047D02*
X141249488Y-86095237D01*
X141249488Y-86095237D02*
X141201869Y-86047618D01*
X141201869Y-86047618D02*
X141178059Y-85976190D01*
X141178059Y-85976190D02*
X141178059Y-85928571D01*
X141178059Y-85928571D02*
X141201869Y-85857142D01*
X141201869Y-85857142D02*
X141225678Y-85833333D01*
X141178059Y-85666666D02*
X141178059Y-85357142D01*
X141178059Y-85357142D02*
X141368535Y-85523809D01*
X141368535Y-85523809D02*
X141368535Y-85452380D01*
X141368535Y-85452380D02*
X141392345Y-85404761D01*
X141392345Y-85404761D02*
X141416154Y-85380952D01*
X141416154Y-85380952D02*
X141463773Y-85357142D01*
X141463773Y-85357142D02*
X141582821Y-85357142D01*
X141582821Y-85357142D02*
X141630440Y-85380952D01*
X141630440Y-85380952D02*
X141654250Y-85404761D01*
X141654250Y-85404761D02*
X141678059Y-85452380D01*
X141678059Y-85452380D02*
X141678059Y-85595237D01*
X141678059Y-85595237D02*
X141654250Y-85642856D01*
X141654250Y-85642856D02*
X141630440Y-85666666D01*
X133730440Y-87583333D02*
X133754250Y-87607142D01*
X133754250Y-87607142D02*
X133778059Y-87678571D01*
X133778059Y-87678571D02*
X133778059Y-87726190D01*
X133778059Y-87726190D02*
X133754250Y-87797618D01*
X133754250Y-87797618D02*
X133706630Y-87845237D01*
X133706630Y-87845237D02*
X133659011Y-87869047D01*
X133659011Y-87869047D02*
X133563773Y-87892856D01*
X133563773Y-87892856D02*
X133492345Y-87892856D01*
X133492345Y-87892856D02*
X133397107Y-87869047D01*
X133397107Y-87869047D02*
X133349488Y-87845237D01*
X133349488Y-87845237D02*
X133301869Y-87797618D01*
X133301869Y-87797618D02*
X133278059Y-87726190D01*
X133278059Y-87726190D02*
X133278059Y-87678571D01*
X133278059Y-87678571D02*
X133301869Y-87607142D01*
X133301869Y-87607142D02*
X133325678Y-87583333D01*
X133278059Y-87154761D02*
X133278059Y-87249999D01*
X133278059Y-87249999D02*
X133301869Y-87297618D01*
X133301869Y-87297618D02*
X133325678Y-87321428D01*
X133325678Y-87321428D02*
X133397107Y-87369047D01*
X133397107Y-87369047D02*
X133492345Y-87392856D01*
X133492345Y-87392856D02*
X133682821Y-87392856D01*
X133682821Y-87392856D02*
X133730440Y-87369047D01*
X133730440Y-87369047D02*
X133754250Y-87345237D01*
X133754250Y-87345237D02*
X133778059Y-87297618D01*
X133778059Y-87297618D02*
X133778059Y-87202380D01*
X133778059Y-87202380D02*
X133754250Y-87154761D01*
X133754250Y-87154761D02*
X133730440Y-87130952D01*
X133730440Y-87130952D02*
X133682821Y-87107142D01*
X133682821Y-87107142D02*
X133563773Y-87107142D01*
X133563773Y-87107142D02*
X133516154Y-87130952D01*
X133516154Y-87130952D02*
X133492345Y-87154761D01*
X133492345Y-87154761D02*
X133468535Y-87202380D01*
X133468535Y-87202380D02*
X133468535Y-87297618D01*
X133468535Y-87297618D02*
X133492345Y-87345237D01*
X133492345Y-87345237D02*
X133516154Y-87369047D01*
X133516154Y-87369047D02*
X133563773Y-87392856D01*
X147016666Y-91828059D02*
X146850000Y-91589964D01*
X146730952Y-91828059D02*
X146730952Y-91328059D01*
X146730952Y-91328059D02*
X146921428Y-91328059D01*
X146921428Y-91328059D02*
X146969047Y-91351869D01*
X146969047Y-91351869D02*
X146992857Y-91375678D01*
X146992857Y-91375678D02*
X147016666Y-91423297D01*
X147016666Y-91423297D02*
X147016666Y-91494726D01*
X147016666Y-91494726D02*
X146992857Y-91542345D01*
X146992857Y-91542345D02*
X146969047Y-91566154D01*
X146969047Y-91566154D02*
X146921428Y-91589964D01*
X146921428Y-91589964D02*
X146730952Y-91589964D01*
X147183333Y-91328059D02*
X147516666Y-91328059D01*
X147516666Y-91328059D02*
X147302381Y-91828059D01*
X141466666Y-91178059D02*
X141300000Y-90939964D01*
X141180952Y-91178059D02*
X141180952Y-90678059D01*
X141180952Y-90678059D02*
X141371428Y-90678059D01*
X141371428Y-90678059D02*
X141419047Y-90701869D01*
X141419047Y-90701869D02*
X141442857Y-90725678D01*
X141442857Y-90725678D02*
X141466666Y-90773297D01*
X141466666Y-90773297D02*
X141466666Y-90844726D01*
X141466666Y-90844726D02*
X141442857Y-90892345D01*
X141442857Y-90892345D02*
X141419047Y-90916154D01*
X141419047Y-90916154D02*
X141371428Y-90939964D01*
X141371428Y-90939964D02*
X141180952Y-90939964D01*
X141704762Y-91178059D02*
X141800000Y-91178059D01*
X141800000Y-91178059D02*
X141847619Y-91154250D01*
X141847619Y-91154250D02*
X141871428Y-91130440D01*
X141871428Y-91130440D02*
X141919047Y-91059011D01*
X141919047Y-91059011D02*
X141942857Y-90963773D01*
X141942857Y-90963773D02*
X141942857Y-90773297D01*
X141942857Y-90773297D02*
X141919047Y-90725678D01*
X141919047Y-90725678D02*
X141895238Y-90701869D01*
X141895238Y-90701869D02*
X141847619Y-90678059D01*
X141847619Y-90678059D02*
X141752381Y-90678059D01*
X141752381Y-90678059D02*
X141704762Y-90701869D01*
X141704762Y-90701869D02*
X141680952Y-90725678D01*
X141680952Y-90725678D02*
X141657143Y-90773297D01*
X141657143Y-90773297D02*
X141657143Y-90892345D01*
X141657143Y-90892345D02*
X141680952Y-90939964D01*
X141680952Y-90939964D02*
X141704762Y-90963773D01*
X141704762Y-90963773D02*
X141752381Y-90987583D01*
X141752381Y-90987583D02*
X141847619Y-90987583D01*
X141847619Y-90987583D02*
X141895238Y-90963773D01*
X141895238Y-90963773D02*
X141919047Y-90939964D01*
X141919047Y-90939964D02*
X141942857Y-90892345D01*
D13*
G04 #@! TO.C,SW2*
X149750500Y-93800000D02*
X148049500Y-93800000D01*
X149750500Y-92100000D02*
X148049500Y-92100000D01*
X149270500Y-92950000D02*
G75*
G02*
X148529500Y-92950000I-370500J0D01*
G01*
X148529500Y-92950000D02*
G75*
G02*
X149270500Y-92950000I370500J0D01*
G01*
G04 #@! TO.C,SW1*
X143650000Y-93150500D02*
X143650000Y-91449500D01*
X145350000Y-93150500D02*
X145350000Y-91449500D01*
X144870500Y-92300000D02*
G75*
G02*
X144129500Y-92300000I-370500J0D01*
G01*
X144129500Y-92300000D02*
G75*
G02*
X144870500Y-92300000I370500J0D01*
G01*
D11*
G04 #@! TO.C,LED1*
X134860500Y-96645500D02*
X135160500Y-96345500D01*
X134860500Y-96746000D02*
X134860500Y-96645500D01*
X134860500Y-96746000D02*
X134860500Y-97446000D01*
X134860500Y-97446000D02*
X134860500Y-97546000D01*
X134860500Y-97546000D02*
X135160500Y-97846000D01*
X136210500Y-96345500D02*
X135160500Y-96345500D01*
X136210500Y-97846000D02*
X135160500Y-97846000D01*
X136560500Y-97423500D02*
X136230500Y-97093500D01*
X136570500Y-96743500D02*
X136570500Y-96753500D01*
X136570500Y-96743500D02*
X136570500Y-97423500D01*
X136570500Y-96753500D02*
X136230500Y-97093500D01*
X136570500Y-97093500D02*
X136230500Y-97093500D01*
X136570500Y-97423500D02*
X136560500Y-97423500D01*
X136590500Y-96343500D02*
X137740500Y-96343500D01*
X136590500Y-97843500D02*
X137740500Y-97843500D01*
X137740500Y-96343500D02*
X137740500Y-97823500D01*
D14*
G04 #@! TO.C,J1*
X146345000Y-85735000D02*
X145600000Y-85735000D01*
X146345000Y-85000000D02*
X146345000Y-85735000D01*
X146345000Y-84265000D02*
X146345000Y-81390000D01*
X146345000Y-84265000D02*
X146285565Y-84265000D01*
X146345000Y-81390000D02*
X146010030Y-81390000D01*
X145189970Y-81390000D02*
X144855000Y-81390000D01*
X144914435Y-84265000D02*
X144855000Y-84265000D01*
X144855000Y-84265000D02*
X144855000Y-81390000D01*
G04 #@! TO.C,-BAT+1*
X137990000Y-96860000D02*
X137990000Y-99360000D01*
X137990000Y-99360000D02*
X140490000Y-99360000D01*
X138290000Y-95040000D02*
X138290000Y-99060000D01*
X138290000Y-96750000D02*
X138790000Y-96750000D01*
X138290000Y-97560000D02*
X139290000Y-97560000D01*
X138290000Y-99060000D02*
X146010000Y-99060000D01*
X138790000Y-95540000D02*
X145510000Y-95540000D01*
X138790000Y-96750000D02*
X138790000Y-95540000D01*
X139290000Y-97560000D02*
X139290000Y-99060000D01*
X145010000Y-97560000D02*
X145010000Y-99060000D01*
X145510000Y-95540000D02*
X145510000Y-96750000D01*
X145510000Y-96750000D02*
X146010000Y-96750000D01*
X146010000Y-95040000D02*
X138290000Y-95040000D01*
X146010000Y-97560000D02*
X145010000Y-97560000D01*
X146010000Y-99060000D02*
X146010000Y-95040000D01*
G04 #@! TO.C,C24*
X144442164Y-89590000D02*
X144657836Y-89590000D01*
X144442164Y-90310000D02*
X144657836Y-90310000D01*
G04 #@! TO.C,C7*
X131140000Y-90059420D02*
X131140000Y-90340580D01*
X132160000Y-90059420D02*
X132160000Y-90340580D01*
G04 #@! TO.C,U8*
X139130000Y-76820000D02*
X139130000Y-79580000D01*
X144320000Y-76820000D02*
X139130000Y-76820000D01*
X144320000Y-76820000D02*
X144320000Y-79580000D01*
X144320000Y-79580000D02*
X139130000Y-79580000D01*
X145590000Y-76820000D02*
X146970000Y-76820000D01*
X146970000Y-76820000D02*
X146970000Y-78200000D01*
G04 #@! TO.C,R8*
X136062742Y-94877500D02*
X136537258Y-94877500D01*
X136062742Y-95922500D02*
X136537258Y-95922500D01*
G04 #@! TO.C,U7*
X148490000Y-84515000D02*
X148490000Y-86315000D01*
X148490000Y-86315000D02*
X147550000Y-86315000D01*
X148490000Y-90485000D02*
X148490000Y-88685000D01*
X150090000Y-84515000D02*
X148490000Y-84515000D01*
X150090000Y-90485000D02*
X148490000Y-90485000D01*
X152960000Y-85785000D02*
X152960000Y-89215000D01*
G04 #@! TO.C,C18*
X142390000Y-90157836D02*
X142390000Y-89942164D01*
X143110000Y-90157836D02*
X143110000Y-89942164D01*
G04 #@! TO.C,C10*
X131090000Y-86792164D02*
X131090000Y-87007836D01*
X131810000Y-86792164D02*
X131810000Y-87007836D01*
D13*
G04 #@! TO.C,U1*
X134350000Y-85899750D02*
X135129000Y-85899750D01*
X134350000Y-86378750D02*
X134350000Y-85899750D01*
X134350000Y-91099750D02*
X134350000Y-90620750D01*
X135129000Y-91099750D02*
X134350000Y-91099750D01*
X135871000Y-85899750D02*
X135979000Y-85899750D01*
X135979000Y-91099750D02*
X135871000Y-91099750D01*
X136721000Y-85899750D02*
X136829000Y-85899750D01*
X136829000Y-91099750D02*
X136721000Y-91099750D01*
X137571000Y-85899750D02*
X137679000Y-85899750D01*
X137679000Y-91099750D02*
X137571000Y-91099750D01*
X138421000Y-85899750D02*
X138529000Y-85899750D01*
X138529000Y-91099750D02*
X138421000Y-91099750D01*
X139771000Y-85899750D02*
X140450000Y-85899750D01*
X140450000Y-85899750D02*
X140450000Y-85999750D01*
X140450000Y-85999750D02*
X140450000Y-86378750D01*
X140450000Y-90620750D02*
X140450000Y-91099750D01*
X140450000Y-91099750D02*
X139771000Y-91099750D01*
D15*
X139886000Y-85197750D02*
G75*
G02*
X139586000Y-85197750I-150000J0D01*
G01*
X139586000Y-85197750D02*
G75*
G02*
X139886000Y-85197750I150000J0D01*
G01*
D14*
G04 #@! TO.C,C8*
X141990000Y-82542164D02*
X141990000Y-82757836D01*
X142710000Y-82542164D02*
X142710000Y-82757836D01*
G04 #@! TO.C,R7*
X145820000Y-92253641D02*
X145820000Y-91946359D01*
X146580000Y-92253641D02*
X146580000Y-91946359D01*
G04 #@! TD*
%LPC*%
D16*
G04 #@! TO.C,SW2*
X150250000Y-93350000D03*
X147550000Y-93350000D03*
X150250000Y-92550000D03*
X147550000Y-92550000D03*
G04 #@! TD*
D17*
G04 #@! TO.C,SW1*
X144100000Y-93650000D03*
X144100000Y-90950000D03*
X144900000Y-93650000D03*
X144900000Y-90950000D03*
G04 #@! TD*
D18*
G04 #@! TO.C,LED1*
X135550500Y-97100000D03*
X137149500Y-97100000D03*
G04 #@! TD*
D19*
G04 #@! TO.C,J1*
X145600000Y-85000000D03*
D20*
X145600000Y-84000000D03*
X145600000Y-83000000D03*
X145600000Y-82000000D03*
G04 #@! TD*
D21*
G04 #@! TO.C,-BAT+1*
X140900000Y-96750000D03*
D22*
X143400000Y-96750000D03*
G04 #@! TD*
D23*
G04 #@! TO.C,R10*
X140350000Y-91800000D03*
X140850000Y-91800000D03*
G04 #@! TD*
G04 #@! TO.C,C5*
X142550000Y-88250000D03*
X143050000Y-88250000D03*
G04 #@! TD*
D24*
G04 #@! TO.C,C24*
X144070000Y-89950000D03*
X145030000Y-89950000D03*
G04 #@! TD*
D25*
G04 #@! TO.C,C7*
X131650000Y-89425000D03*
X131650000Y-90975000D03*
G04 #@! TD*
D26*
G04 #@! TO.C,U8*
X145590000Y-78200000D03*
D27*
X143050000Y-78200000D03*
X140510000Y-78200000D03*
G04 #@! TD*
D23*
G04 #@! TO.C,C4*
X142850000Y-87400000D03*
X143350000Y-87400000D03*
G04 #@! TD*
D28*
G04 #@! TO.C,R8*
X135475000Y-95400000D03*
X137125000Y-95400000D03*
G04 #@! TD*
D23*
G04 #@! TO.C,R3*
X142850000Y-86800000D03*
X143350000Y-86800000D03*
G04 #@! TD*
D29*
G04 #@! TO.C,U7*
X148400000Y-86875000D03*
X148400000Y-88125000D03*
D30*
X151750000Y-85025000D03*
X151750000Y-89975000D03*
G04 #@! TD*
D23*
G04 #@! TO.C,R11*
X141300000Y-89250000D03*
X141800000Y-89250000D03*
G04 #@! TD*
G04 #@! TO.C,R4*
X143750000Y-88250000D03*
X144250000Y-88250000D03*
G04 #@! TD*
D31*
G04 #@! TO.C,C18*
X142750000Y-90530000D03*
X142750000Y-89570000D03*
G04 #@! TD*
D32*
G04 #@! TO.C,C10*
X131450000Y-86420000D03*
X131450000Y-87380000D03*
G04 #@! TD*
D33*
G04 #@! TO.C,R2*
X142200000Y-87200000D03*
X142200000Y-86700000D03*
G04 #@! TD*
D34*
G04 #@! TO.C,U1*
X139400000Y-86092250D03*
X138900000Y-86092250D03*
X138050000Y-86092250D03*
X137200000Y-86092250D03*
X136350000Y-86092250D03*
X135500000Y-86092250D03*
D35*
X134542500Y-86749750D03*
X134542500Y-87249750D03*
X134542500Y-87749750D03*
X134542500Y-88249750D03*
X134542500Y-88749750D03*
X134542500Y-89249750D03*
X134542500Y-89749750D03*
X134542500Y-90249750D03*
D34*
X135500000Y-90907250D03*
X136350000Y-90907250D03*
X137200000Y-90907250D03*
X138050000Y-90907250D03*
X138900000Y-90907250D03*
X139400000Y-90907250D03*
D35*
X140357500Y-90249750D03*
X140357500Y-89749750D03*
X140357500Y-89249750D03*
X140357500Y-88749750D03*
X140357500Y-88249750D03*
X140357500Y-87749750D03*
X140357500Y-87249750D03*
X140357500Y-86749750D03*
D36*
X137450000Y-88499750D03*
G04 #@! TD*
D32*
G04 #@! TO.C,C8*
X142350000Y-82170000D03*
X142350000Y-83130000D03*
G04 #@! TD*
D37*
G04 #@! TO.C,M2*
X136000000Y-79900000D03*
G04 #@! TD*
G04 #@! TO.C,M2*
X148850000Y-96300000D03*
G04 #@! TD*
D33*
G04 #@! TO.C,C3*
X141500000Y-87200000D03*
X141500000Y-86700000D03*
G04 #@! TD*
G04 #@! TO.C,C6*
X133650000Y-88800000D03*
X133650000Y-88300000D03*
G04 #@! TD*
D38*
G04 #@! TO.C,R7*
X146200000Y-92610000D03*
X146200000Y-91590000D03*
G04 #@! TD*
D23*
G04 #@! TO.C,R9*
X141300000Y-90250000D03*
X141800000Y-90250000D03*
G04 #@! TD*
%LPD*%
M02*
