G04 #@! TF.GenerationSoftware,KiCad,Pcbnew,9.0.4*
G04 #@! TF.CreationDate,2025-10-13T14:39:45-04:00*
G04 #@! TF.ProjectId,bldc motor controller,626c6463-206d-46f7-946f-7220636f6e74,rev?*
G04 #@! TF.SameCoordinates,Original*
G04 #@! TF.FileFunction,Copper,L3,Inr*
G04 #@! TF.FilePolarity,Positive*
%FSLAX46Y46*%
G04 Gerber Fmt 4.6, Leading zero omitted, Abs format (unit mm)*
G04 Created by KiCad (PCBNEW 9.0.4) date 2025-10-13 14:39:45*
%MOMM*%
%LPD*%
G01*
G04 APERTURE LIST*
G04 Aperture macros list*
%AMRoundRect*
0 Rectangle with rounded corners*
0 $1 Rounding radius*
0 $2 $3 $4 $5 $6 $7 $8 $9 X,Y pos of 4 corners*
0 Add a 4 corners polygon primitive as box body*
4,1,4,$2,$3,$4,$5,$6,$7,$8,$9,$2,$3,0*
0 Add four circle primitives for the rounded corners*
1,1,$1+$1,$2,$3*
1,1,$1+$1,$4,$5*
1,1,$1+$1,$6,$7*
1,1,$1+$1,$8,$9*
0 Add four rect primitives between the rounded corners*
20,1,$1+$1,$2,$3,$4,$5,0*
20,1,$1+$1,$4,$5,$6,$7,0*
20,1,$1+$1,$6,$7,$8,$9,0*
20,1,$1+$1,$8,$9,$2,$3,0*%
G04 Aperture macros list end*
G04 #@! TA.AperFunction,ComponentPad*
%ADD10R,0.850000X0.850000*%
G04 #@! TD*
G04 #@! TA.AperFunction,ComponentPad*
%ADD11C,0.850000*%
G04 #@! TD*
G04 #@! TA.AperFunction,ComponentPad*
%ADD12RoundRect,0.250000X-0.600000X-0.750000X0.600000X-0.750000X0.600000X0.750000X-0.600000X0.750000X0*%
G04 #@! TD*
G04 #@! TA.AperFunction,ComponentPad*
%ADD13O,1.700000X2.000000*%
G04 #@! TD*
G04 #@! TA.AperFunction,ComponentPad*
%ADD14R,1.700000X1.700000*%
G04 #@! TD*
G04 #@! TA.AperFunction,ComponentPad*
%ADD15C,1.700000*%
G04 #@! TD*
G04 #@! TA.AperFunction,ComponentPad*
%ADD16C,3.800000*%
G04 #@! TD*
G04 #@! TA.AperFunction,ViaPad*
%ADD17C,0.600000*%
G04 #@! TD*
G04 #@! TA.AperFunction,Conductor*
%ADD18C,0.200000*%
G04 #@! TD*
G04 #@! TA.AperFunction,Conductor*
%ADD19C,0.500000*%
G04 #@! TD*
G04 APERTURE END LIST*
D10*
G04 #@! TO.N,UART_TX*
G04 #@! TO.C,J1*
X145600000Y-85000000D03*
D11*
G04 #@! TO.N,UART_RX*
X145600000Y-84000000D03*
G04 #@! TO.N,TI_VREF*
X145600000Y-83000000D03*
G04 #@! TO.N,TI_AGND*
X145600000Y-82000000D03*
G04 #@! TD*
D12*
G04 #@! TO.N,-BATT*
G04 #@! TO.C,-BAT+1*
X140900000Y-96750000D03*
D13*
G04 #@! TO.N,+BATT*
X143400000Y-96750000D03*
G04 #@! TD*
D14*
G04 #@! TO.N,PHASE-A*
G04 #@! TO.C,U8*
X145590000Y-78200000D03*
D15*
G04 #@! TO.N,PHASE-B*
X143050000Y-78200000D03*
G04 #@! TO.N,PHASE-C*
X140510000Y-78200000D03*
G04 #@! TD*
D16*
G04 #@! TO.N,N/C*
G04 #@! TO.C,M2*
X136000000Y-79900000D03*
G04 #@! TD*
G04 #@! TO.N,N/C*
G04 #@! TO.C,M2*
X148850000Y-96300000D03*
G04 #@! TD*
D17*
G04 #@! TO.N,+BATT*
X135500000Y-94300000D03*
X141500000Y-82050000D03*
X131446446Y-85196446D03*
G04 #@! TO.N,TI_AGND*
X141746088Y-92560334D03*
X148050000Y-91550000D03*
X153100000Y-82000000D03*
X132950000Y-89050000D03*
X143829103Y-83630224D03*
X152178554Y-84099000D03*
X150800000Y-83400000D03*
X145200000Y-87650000D03*
X132850000Y-87200000D03*
X148000000Y-77650000D03*
G04 #@! TO.N,TI_VREF*
X142393614Y-88799279D03*
X143200000Y-82750000D03*
X153100000Y-84000000D03*
X151450000Y-93600000D03*
X134450000Y-83900000D03*
G04 #@! TO.N,I-LIMIT*
X142550000Y-84399998D03*
X132850000Y-88350000D03*
G04 #@! TO.N,TI_AVDD*
X142055022Y-83905023D03*
X130600000Y-85700000D03*
G04 #@! TO.N,Reset*
X146050000Y-88450000D03*
G04 #@! TO.N,SOA*
X146650000Y-87950000D03*
G04 #@! TO.N,SOB*
X146155099Y-87454948D03*
G04 #@! TO.N,SOC*
X148999991Y-84103030D03*
X144250000Y-89000000D03*
G04 #@! TO.N,BOOT0*
X148799995Y-91600000D03*
G04 #@! TO.N,TIM1_CH1N*
X132250000Y-92286454D03*
X149799995Y-84800000D03*
G04 #@! TO.N,TIM1_CH1*
X132842186Y-91857815D03*
X153450000Y-86950000D03*
G04 #@! TO.N,TI_FAULT*
X146650000Y-88950000D03*
X132500000Y-90100000D03*
G04 #@! TO.N,TIM1_CH3*
X153450000Y-87950000D03*
X138500000Y-94300000D03*
G04 #@! TO.N,TIM1_CH3N*
X145824293Y-89125707D03*
X138648055Y-92740948D03*
G04 #@! TO.N,TIM1_CH2N*
X147428554Y-84621446D03*
X132800000Y-93300000D03*
G04 #@! TO.N,TIM1_CH2*
X154000000Y-87450000D03*
X133499999Y-93108259D03*
G04 #@! TO.N,SDA1*
X147250000Y-79850000D03*
X153950000Y-90200000D03*
G04 #@! TO.N,NSS1*
X148299995Y-84100000D03*
X145450000Y-91801000D03*
G04 #@! TO.N,SCL1*
X148100000Y-82550000D03*
X154150000Y-89450000D03*
G04 #@! TO.N,ENAB_XL*
X147200000Y-83000000D03*
X151299995Y-92249995D03*
G04 #@! TO.N,SCK1*
X148799995Y-84800000D03*
X145700000Y-90800000D03*
G04 #@! TO.N,CAN_RX*
X153950000Y-88450000D03*
G04 #@! TO.N,ENAB_MAG*
X146659435Y-80225814D03*
X151799995Y-91649995D03*
G04 #@! TO.N,CAN_TX*
X153450000Y-88950000D03*
G04 #@! TO.N,-BATT*
X141500000Y-83200000D03*
G04 #@! TD*
D18*
G04 #@! TO.N,TIM1_CH2N*
X131748984Y-91559514D02*
X131748982Y-92000000D01*
X132424737Y-90883781D02*
X131748982Y-91559536D01*
X131748982Y-91559536D02*
X131748982Y-92000000D01*
G04 #@! TO.N,SCL1*
X149506482Y-83901000D02*
X151159520Y-83901001D01*
G04 #@! TO.N,TIM1_CH2*
X150349999Y-89850000D02*
X148950001Y-89850000D01*
G04 #@! TO.N,TIM1_CH1*
X145492472Y-90298984D02*
X145792480Y-90299002D01*
X133457515Y-92057535D02*
X133257814Y-91857816D01*
G04 #@! TO.N,TI_VREF*
X141292480Y-81549001D02*
X141707520Y-81549000D01*
X154651023Y-89374688D02*
X154801993Y-89223674D01*
D19*
G04 #@! TO.N,+BATT*
X131298014Y-87302006D02*
X131446451Y-87153555D01*
X139250000Y-98049999D02*
X135500000Y-94300000D01*
X135500000Y-94300000D02*
X132879346Y-94299999D01*
X139250000Y-98049999D02*
X142049999Y-98050000D01*
X131446451Y-87153555D02*
X131446446Y-85196446D01*
X131298019Y-92718645D02*
X131298014Y-87302006D01*
X138353548Y-85196432D02*
X131446446Y-85196446D01*
X142049999Y-98050000D02*
X143550000Y-96550000D01*
X132879346Y-94299999D02*
X131298019Y-92718645D01*
X141500000Y-82050000D02*
X138353548Y-85196432D01*
D18*
G04 #@! TO.N,TI_VREF*
X141707520Y-81549000D02*
X142908527Y-82749983D01*
X154801999Y-86802000D02*
X154801993Y-89223674D01*
X142908527Y-82749983D02*
X143200000Y-82750000D01*
X153100000Y-84000000D02*
X148449992Y-79350015D01*
X154801999Y-86802000D02*
X153100001Y-85099999D01*
X134500000Y-83900000D02*
X134971260Y-83899994D01*
X148449992Y-79350015D02*
X139521259Y-79349990D01*
X134500000Y-83900000D02*
X138941483Y-83900012D01*
X154651023Y-89374688D02*
X154651000Y-90399000D01*
X134971260Y-83899994D02*
X139521259Y-79349990D01*
X141292480Y-81549001D02*
X138941483Y-83900012D01*
X153100000Y-84000000D02*
X153100001Y-85099999D01*
X151450000Y-93600000D02*
X154651000Y-90399000D01*
G04 #@! TO.N,I-LIMIT*
X133101248Y-88098746D02*
X138851245Y-88098744D01*
X132850000Y-88350000D02*
X133101248Y-88098746D01*
X138851245Y-88098744D02*
X142550000Y-84399998D01*
G04 #@! TO.N,TIM1_CH1N*
X132250000Y-92286454D02*
X132249978Y-91741471D01*
X134041480Y-89949999D02*
X132249978Y-91741471D01*
X142149993Y-89949985D02*
X145600001Y-86500002D01*
X145600001Y-86500002D02*
X148099994Y-86499998D01*
X149799995Y-84800000D02*
X148099994Y-86499998D01*
X142149993Y-89949985D02*
X134041480Y-89949999D01*
G04 #@! TO.N,TIM1_CH1*
X142541475Y-93249992D02*
X145492472Y-90298984D01*
X152650002Y-86950004D02*
X150149993Y-89449983D01*
X134807517Y-92057530D02*
X135999998Y-93250003D01*
X133257814Y-91857816D02*
X132842186Y-91857815D01*
X134807517Y-92057530D02*
X133457515Y-92057535D01*
X146641477Y-89449995D02*
X150149993Y-89449983D01*
X135999998Y-93250003D02*
X142541475Y-93249992D01*
X145792480Y-90299002D02*
X146641477Y-89449995D01*
X153450000Y-86950000D02*
X152650002Y-86950004D01*
G04 #@! TO.N,TIM1_CH3*
X138850000Y-93950001D02*
X147449993Y-93949985D01*
X138850000Y-93950001D02*
X138500000Y-94300000D01*
X147449993Y-93949985D02*
X153450000Y-87950000D01*
G04 #@! TO.N,TIM1_CH3N*
X142890671Y-92059347D02*
X145824293Y-89125707D01*
X138648055Y-92740948D02*
X139329662Y-92059317D01*
X142890671Y-92059347D02*
X139329662Y-92059317D01*
G04 #@! TO.N,TIM1_CH2N*
X146374006Y-85676016D02*
X147428554Y-84621446D01*
X139846436Y-89648979D02*
X143819442Y-85675991D01*
X132424737Y-90883781D02*
X133659513Y-89648982D01*
X131748982Y-92000000D02*
X131748979Y-92493952D01*
X143819442Y-85675991D02*
X146374006Y-85676016D01*
X132555025Y-93299999D02*
X131748979Y-92493952D01*
X133659513Y-89648982D02*
X139846436Y-89648979D01*
X132800000Y-93300000D02*
X132555025Y-93299999D01*
G04 #@! TO.N,TIM1_CH2*
X148950001Y-89850000D02*
X145199993Y-93599985D01*
X133883736Y-93600000D02*
X133499983Y-93216269D01*
X133499999Y-93108259D02*
X133499983Y-93216269D01*
X154000000Y-87450000D02*
X152750001Y-87450000D01*
X133883736Y-93600000D02*
X145199993Y-93599985D01*
X150349999Y-89850000D02*
X152750001Y-87450000D01*
G04 #@! TO.N,SCL1*
X148100000Y-82550000D02*
X148155474Y-82550017D01*
X149506482Y-83901000D02*
X148155474Y-82550017D01*
X154500993Y-87242481D02*
X151159520Y-83901001D01*
X154501000Y-89098999D02*
X154500993Y-87242481D01*
X154501000Y-89098999D02*
X154150000Y-89450000D01*
G04 #@! TD*
M02*
