G04 #@! TF.GenerationSoftware,KiCad,Pcbnew,9.0.4*
G04 #@! TF.CreationDate,2025-10-13T14:39:45-04:00*
G04 #@! TF.ProjectId,bldc motor controller,626c6463-206d-46f7-946f-7220636f6e74,rev?*
G04 #@! TF.SameCoordinates,Original*
G04 #@! TF.FileFunction,Other,User*
%FSLAX46Y46*%
G04 Gerber Fmt 4.6, Leading zero omitted, Abs format (unit mm)*
G04 Created by KiCad (PCBNEW 9.0.4) date 2025-10-13 14:39:45*
%MOMM*%
%LPD*%
G01*
G04 APERTURE LIST*
%ADD10C,0.051000*%
G04 APERTURE END LIST*
D10*
G04 #@! TO.C,SW2*
X150200000Y-93750000D02*
X147600000Y-93750000D01*
X150200000Y-92150000D02*
X150200000Y-93750000D01*
X147600000Y-93750000D02*
X147600000Y-92150000D01*
X147600000Y-92150000D02*
X150200000Y-92150000D01*
G04 #@! TO.C,SW1*
X143700000Y-93600000D02*
X143700000Y-91000000D01*
X145300000Y-93600000D02*
X143700000Y-93600000D01*
X143700000Y-91000000D02*
X145300000Y-91000000D01*
X145300000Y-91000000D02*
X145300000Y-93600000D01*
G04 #@! TO.C,LED1*
X135550500Y-96700000D02*
X137150500Y-96700000D01*
X135550500Y-97500000D02*
X135550500Y-96700000D01*
X137150500Y-96700000D02*
X137150500Y-97500000D01*
X137150500Y-97500000D02*
X135550500Y-97500000D01*
G04 #@! TO.C,U1*
X134450000Y-85999750D02*
X134450000Y-90999750D01*
X134450000Y-90999750D02*
X140450000Y-90999750D01*
X140450000Y-85999750D02*
X134450000Y-85999750D01*
X140450000Y-90999750D02*
X140450000Y-85999750D01*
G04 #@! TO.C,U6*
X147950000Y-80075000D02*
X147950000Y-82075000D01*
X147950000Y-82075000D02*
X149950000Y-82075000D01*
X149950000Y-80075000D02*
X147950000Y-80075000D01*
X149950000Y-82075000D02*
X149950000Y-80075000D01*
G04 #@! TO.C,U5*
X139900000Y-86250000D02*
X144900000Y-86250000D01*
X139900000Y-90650000D02*
X139900000Y-86250000D01*
X144900000Y-86250000D02*
X144900000Y-90650000D01*
X144900000Y-90650000D02*
X139900000Y-90650000D01*
G04 #@! TO.C,U3*
X147549995Y-85700000D02*
X147549995Y-90700000D01*
X147549995Y-90700000D02*
X152549995Y-90700000D01*
X152549995Y-85700000D02*
X147549995Y-85700000D01*
X152549995Y-90700000D02*
X152549995Y-85700000D01*
G04 #@! TO.C,U4*
X135000000Y-92714000D02*
X135000000Y-95614000D01*
X135000000Y-95614000D02*
X136600000Y-95614000D01*
X136600000Y-92714000D02*
X135000000Y-92714000D01*
X136600000Y-95614000D02*
X136600000Y-92714000D01*
G04 #@! TD*
M02*
