G04 #@! TF.GenerationSoftware,KiCad,Pcbnew,9.0.4*
G04 #@! TF.CreationDate,2025-10-13T14:39:45-04:00*
G04 #@! TF.ProjectId,bldc motor controller,626c6463-206d-46f7-946f-7220636f6e74,rev?*
G04 #@! TF.SameCoordinates,Original*
G04 #@! TF.FileFunction,Legend,Bot*
G04 #@! TF.FilePolarity,Positive*
%FSLAX46Y46*%
G04 Gerber Fmt 4.6, Leading zero omitted, Abs format (unit mm)*
G04 Created by KiCad (PCBNEW 9.0.4) date 2025-10-13 14:39:45*
%MOMM*%
%LPD*%
G01*
G04 APERTURE LIST*
G04 Aperture macros list*
%AMRoundRect*
0 Rectangle with rounded corners*
0 $1 Rounding radius*
0 $2 $3 $4 $5 $6 $7 $8 $9 X,Y pos of 4 corners*
0 Add a 4 corners polygon primitive as box body*
4,1,4,$2,$3,$4,$5,$6,$7,$8,$9,$2,$3,0*
0 Add four circle primitives for the rounded corners*
1,1,$1+$1,$2,$3*
1,1,$1+$1,$4,$5*
1,1,$1+$1,$6,$7*
1,1,$1+$1,$8,$9*
0 Add four rect primitives between the rounded corners*
20,1,$1+$1,$2,$3,$4,$5,0*
20,1,$1+$1,$4,$5,$6,$7,0*
20,1,$1+$1,$6,$7,$8,$9,0*
20,1,$1+$1,$8,$9,$2,$3,0*%
G04 Aperture macros list end*
%ADD10C,0.062500*%
%ADD11C,0.150000*%
%ADD12C,0.120000*%
%ADD13C,0.100000*%
%ADD14C,0.254000*%
%ADD15C,0.400000*%
%ADD16C,0.200000*%
%ADD17C,0.300000*%
%ADD18R,0.850000X0.850000*%
%ADD19C,0.850000*%
%ADD20RoundRect,0.250000X-0.600000X-0.750000X0.600000X-0.750000X0.600000X0.750000X-0.600000X0.750000X0*%
%ADD21O,1.700000X2.000000*%
%ADD22R,1.700000X1.700000*%
%ADD23C,1.700000*%
%ADD24C,3.800000*%
%ADD25RoundRect,0.075000X-0.125000X-0.075000X0.125000X-0.075000X0.125000X0.075000X-0.125000X0.075000X0*%
%ADD26RoundRect,0.225000X0.225000X0.250000X-0.225000X0.250000X-0.225000X-0.250000X0.225000X-0.250000X0*%
%ADD27RoundRect,0.075000X0.125000X0.075000X-0.125000X0.075000X-0.125000X-0.075000X0.125000X-0.075000X0*%
%ADD28RoundRect,0.075000X0.075000X-0.125000X0.075000X0.125000X-0.075000X0.125000X-0.075000X-0.125000X0*%
%ADD29RoundRect,0.250000X-0.750000X-0.650000X0.750000X-0.650000X0.750000X0.650000X-0.750000X0.650000X0*%
%ADD30R,0.500000X0.280000*%
%ADD31R,0.280000X0.500000*%
%ADD32R,0.400000X1.700000*%
%ADD33O,0.900000X0.280000*%
%ADD34O,0.280000X0.900000*%
%ADD35R,3.700000X3.700000*%
%ADD36R,1.100000X0.600000*%
%ADD37RoundRect,0.200000X-0.200000X-0.275000X0.200000X-0.275000X0.200000X0.275000X-0.200000X0.275000X0*%
%ADD38RoundRect,0.140000X-0.140000X-0.170000X0.140000X-0.170000X0.140000X0.170000X-0.140000X0.170000X0*%
%ADD39RoundRect,0.250000X-0.475000X0.250000X-0.475000X-0.250000X0.475000X-0.250000X0.475000X0.250000X0*%
%ADD40RoundRect,0.250000X0.250000X0.475000X-0.250000X0.475000X-0.250000X-0.475000X0.250000X-0.475000X0*%
%ADD41RoundRect,0.250000X0.325000X0.650000X-0.325000X0.650000X-0.325000X-0.650000X0.325000X-0.650000X0*%
G04 APERTURE END LIST*
D10*
X151471428Y-83680440D02*
X151495237Y-83704250D01*
X151495237Y-83704250D02*
X151566666Y-83728059D01*
X151566666Y-83728059D02*
X151614285Y-83728059D01*
X151614285Y-83728059D02*
X151685713Y-83704250D01*
X151685713Y-83704250D02*
X151733332Y-83656630D01*
X151733332Y-83656630D02*
X151757142Y-83609011D01*
X151757142Y-83609011D02*
X151780951Y-83513773D01*
X151780951Y-83513773D02*
X151780951Y-83442345D01*
X151780951Y-83442345D02*
X151757142Y-83347107D01*
X151757142Y-83347107D02*
X151733332Y-83299488D01*
X151733332Y-83299488D02*
X151685713Y-83251869D01*
X151685713Y-83251869D02*
X151614285Y-83228059D01*
X151614285Y-83228059D02*
X151566666Y-83228059D01*
X151566666Y-83228059D02*
X151495237Y-83251869D01*
X151495237Y-83251869D02*
X151471428Y-83275678D01*
X150995237Y-83728059D02*
X151280951Y-83728059D01*
X151138094Y-83728059D02*
X151138094Y-83228059D01*
X151138094Y-83228059D02*
X151185713Y-83299488D01*
X151185713Y-83299488D02*
X151233332Y-83347107D01*
X151233332Y-83347107D02*
X151280951Y-83370916D01*
X150828571Y-83228059D02*
X150519047Y-83228059D01*
X150519047Y-83228059D02*
X150685714Y-83418535D01*
X150685714Y-83418535D02*
X150614285Y-83418535D01*
X150614285Y-83418535D02*
X150566666Y-83442345D01*
X150566666Y-83442345D02*
X150542857Y-83466154D01*
X150542857Y-83466154D02*
X150519047Y-83513773D01*
X150519047Y-83513773D02*
X150519047Y-83632821D01*
X150519047Y-83632821D02*
X150542857Y-83680440D01*
X150542857Y-83680440D02*
X150566666Y-83704250D01*
X150566666Y-83704250D02*
X150614285Y-83728059D01*
X150614285Y-83728059D02*
X150757142Y-83728059D01*
X150757142Y-83728059D02*
X150804761Y-83704250D01*
X150804761Y-83704250D02*
X150828571Y-83680440D01*
D11*
X145216666Y-99009580D02*
X145264285Y-99057200D01*
X145264285Y-99057200D02*
X145407142Y-99104819D01*
X145407142Y-99104819D02*
X145502380Y-99104819D01*
X145502380Y-99104819D02*
X145645237Y-99057200D01*
X145645237Y-99057200D02*
X145740475Y-98961961D01*
X145740475Y-98961961D02*
X145788094Y-98866723D01*
X145788094Y-98866723D02*
X145835713Y-98676247D01*
X145835713Y-98676247D02*
X145835713Y-98533390D01*
X145835713Y-98533390D02*
X145788094Y-98342914D01*
X145788094Y-98342914D02*
X145740475Y-98247676D01*
X145740475Y-98247676D02*
X145645237Y-98152438D01*
X145645237Y-98152438D02*
X145502380Y-98104819D01*
X145502380Y-98104819D02*
X145407142Y-98104819D01*
X145407142Y-98104819D02*
X145264285Y-98152438D01*
X145264285Y-98152438D02*
X145216666Y-98200057D01*
X144740475Y-99104819D02*
X144549999Y-99104819D01*
X144549999Y-99104819D02*
X144454761Y-99057200D01*
X144454761Y-99057200D02*
X144407142Y-99009580D01*
X144407142Y-99009580D02*
X144311904Y-98866723D01*
X144311904Y-98866723D02*
X144264285Y-98676247D01*
X144264285Y-98676247D02*
X144264285Y-98295295D01*
X144264285Y-98295295D02*
X144311904Y-98200057D01*
X144311904Y-98200057D02*
X144359523Y-98152438D01*
X144359523Y-98152438D02*
X144454761Y-98104819D01*
X144454761Y-98104819D02*
X144645237Y-98104819D01*
X144645237Y-98104819D02*
X144740475Y-98152438D01*
X144740475Y-98152438D02*
X144788094Y-98200057D01*
X144788094Y-98200057D02*
X144835713Y-98295295D01*
X144835713Y-98295295D02*
X144835713Y-98533390D01*
X144835713Y-98533390D02*
X144788094Y-98628628D01*
X144788094Y-98628628D02*
X144740475Y-98676247D01*
X144740475Y-98676247D02*
X144645237Y-98723866D01*
X144645237Y-98723866D02*
X144454761Y-98723866D01*
X144454761Y-98723866D02*
X144359523Y-98676247D01*
X144359523Y-98676247D02*
X144311904Y-98628628D01*
X144311904Y-98628628D02*
X144264285Y-98533390D01*
D10*
X146230440Y-91078571D02*
X146254250Y-91054762D01*
X146254250Y-91054762D02*
X146278059Y-90983333D01*
X146278059Y-90983333D02*
X146278059Y-90935714D01*
X146278059Y-90935714D02*
X146254250Y-90864286D01*
X146254250Y-90864286D02*
X146206630Y-90816667D01*
X146206630Y-90816667D02*
X146159011Y-90792857D01*
X146159011Y-90792857D02*
X146063773Y-90769048D01*
X146063773Y-90769048D02*
X145992345Y-90769048D01*
X145992345Y-90769048D02*
X145897107Y-90792857D01*
X145897107Y-90792857D02*
X145849488Y-90816667D01*
X145849488Y-90816667D02*
X145801869Y-90864286D01*
X145801869Y-90864286D02*
X145778059Y-90935714D01*
X145778059Y-90935714D02*
X145778059Y-90983333D01*
X145778059Y-90983333D02*
X145801869Y-91054762D01*
X145801869Y-91054762D02*
X145825678Y-91078571D01*
X146278059Y-91554762D02*
X146278059Y-91269048D01*
X146278059Y-91411905D02*
X145778059Y-91411905D01*
X145778059Y-91411905D02*
X145849488Y-91364286D01*
X145849488Y-91364286D02*
X145897107Y-91316667D01*
X145897107Y-91316667D02*
X145920916Y-91269048D01*
X145778059Y-91983333D02*
X145778059Y-91888095D01*
X145778059Y-91888095D02*
X145801869Y-91840476D01*
X145801869Y-91840476D02*
X145825678Y-91816666D01*
X145825678Y-91816666D02*
X145897107Y-91769047D01*
X145897107Y-91769047D02*
X145992345Y-91745238D01*
X145992345Y-91745238D02*
X146182821Y-91745238D01*
X146182821Y-91745238D02*
X146230440Y-91769047D01*
X146230440Y-91769047D02*
X146254250Y-91792857D01*
X146254250Y-91792857D02*
X146278059Y-91840476D01*
X146278059Y-91840476D02*
X146278059Y-91935714D01*
X146278059Y-91935714D02*
X146254250Y-91983333D01*
X146254250Y-91983333D02*
X146230440Y-92007142D01*
X146230440Y-92007142D02*
X146182821Y-92030952D01*
X146182821Y-92030952D02*
X146063773Y-92030952D01*
X146063773Y-92030952D02*
X146016154Y-92007142D01*
X146016154Y-92007142D02*
X145992345Y-91983333D01*
X145992345Y-91983333D02*
X145968535Y-91935714D01*
X145968535Y-91935714D02*
X145968535Y-91840476D01*
X145968535Y-91840476D02*
X145992345Y-91792857D01*
X145992345Y-91792857D02*
X146016154Y-91769047D01*
X146016154Y-91769047D02*
X146063773Y-91745238D01*
X149121428Y-78880440D02*
X149145237Y-78904250D01*
X149145237Y-78904250D02*
X149216666Y-78928059D01*
X149216666Y-78928059D02*
X149264285Y-78928059D01*
X149264285Y-78928059D02*
X149335713Y-78904250D01*
X149335713Y-78904250D02*
X149383332Y-78856630D01*
X149383332Y-78856630D02*
X149407142Y-78809011D01*
X149407142Y-78809011D02*
X149430951Y-78713773D01*
X149430951Y-78713773D02*
X149430951Y-78642345D01*
X149430951Y-78642345D02*
X149407142Y-78547107D01*
X149407142Y-78547107D02*
X149383332Y-78499488D01*
X149383332Y-78499488D02*
X149335713Y-78451869D01*
X149335713Y-78451869D02*
X149264285Y-78428059D01*
X149264285Y-78428059D02*
X149216666Y-78428059D01*
X149216666Y-78428059D02*
X149145237Y-78451869D01*
X149145237Y-78451869D02*
X149121428Y-78475678D01*
X148930951Y-78475678D02*
X148907142Y-78451869D01*
X148907142Y-78451869D02*
X148859523Y-78428059D01*
X148859523Y-78428059D02*
X148740475Y-78428059D01*
X148740475Y-78428059D02*
X148692856Y-78451869D01*
X148692856Y-78451869D02*
X148669047Y-78475678D01*
X148669047Y-78475678D02*
X148645237Y-78523297D01*
X148645237Y-78523297D02*
X148645237Y-78570916D01*
X148645237Y-78570916D02*
X148669047Y-78642345D01*
X148669047Y-78642345D02*
X148954761Y-78928059D01*
X148954761Y-78928059D02*
X148645237Y-78928059D01*
X148335714Y-78428059D02*
X148288095Y-78428059D01*
X148288095Y-78428059D02*
X148240476Y-78451869D01*
X148240476Y-78451869D02*
X148216666Y-78475678D01*
X148216666Y-78475678D02*
X148192857Y-78523297D01*
X148192857Y-78523297D02*
X148169047Y-78618535D01*
X148169047Y-78618535D02*
X148169047Y-78737583D01*
X148169047Y-78737583D02*
X148192857Y-78832821D01*
X148192857Y-78832821D02*
X148216666Y-78880440D01*
X148216666Y-78880440D02*
X148240476Y-78904250D01*
X148240476Y-78904250D02*
X148288095Y-78928059D01*
X148288095Y-78928059D02*
X148335714Y-78928059D01*
X148335714Y-78928059D02*
X148383333Y-78904250D01*
X148383333Y-78904250D02*
X148407142Y-78880440D01*
X148407142Y-78880440D02*
X148430952Y-78832821D01*
X148430952Y-78832821D02*
X148454761Y-78737583D01*
X148454761Y-78737583D02*
X148454761Y-78618535D01*
X148454761Y-78618535D02*
X148430952Y-78523297D01*
X148430952Y-78523297D02*
X148407142Y-78475678D01*
X148407142Y-78475678D02*
X148383333Y-78451869D01*
X148383333Y-78451869D02*
X148335714Y-78428059D01*
X151430440Y-82128571D02*
X151454250Y-82104762D01*
X151454250Y-82104762D02*
X151478059Y-82033333D01*
X151478059Y-82033333D02*
X151478059Y-81985714D01*
X151478059Y-81985714D02*
X151454250Y-81914286D01*
X151454250Y-81914286D02*
X151406630Y-81866667D01*
X151406630Y-81866667D02*
X151359011Y-81842857D01*
X151359011Y-81842857D02*
X151263773Y-81819048D01*
X151263773Y-81819048D02*
X151192345Y-81819048D01*
X151192345Y-81819048D02*
X151097107Y-81842857D01*
X151097107Y-81842857D02*
X151049488Y-81866667D01*
X151049488Y-81866667D02*
X151001869Y-81914286D01*
X151001869Y-81914286D02*
X150978059Y-81985714D01*
X150978059Y-81985714D02*
X150978059Y-82033333D01*
X150978059Y-82033333D02*
X151001869Y-82104762D01*
X151001869Y-82104762D02*
X151025678Y-82128571D01*
X151025678Y-82319048D02*
X151001869Y-82342857D01*
X151001869Y-82342857D02*
X150978059Y-82390476D01*
X150978059Y-82390476D02*
X150978059Y-82509524D01*
X150978059Y-82509524D02*
X151001869Y-82557143D01*
X151001869Y-82557143D02*
X151025678Y-82580952D01*
X151025678Y-82580952D02*
X151073297Y-82604762D01*
X151073297Y-82604762D02*
X151120916Y-82604762D01*
X151120916Y-82604762D02*
X151192345Y-82580952D01*
X151192345Y-82580952D02*
X151478059Y-82295238D01*
X151478059Y-82295238D02*
X151478059Y-82604762D01*
X150978059Y-82771428D02*
X150978059Y-83080952D01*
X150978059Y-83080952D02*
X151168535Y-82914285D01*
X151168535Y-82914285D02*
X151168535Y-82985714D01*
X151168535Y-82985714D02*
X151192345Y-83033333D01*
X151192345Y-83033333D02*
X151216154Y-83057142D01*
X151216154Y-83057142D02*
X151263773Y-83080952D01*
X151263773Y-83080952D02*
X151382821Y-83080952D01*
X151382821Y-83080952D02*
X151430440Y-83057142D01*
X151430440Y-83057142D02*
X151454250Y-83033333D01*
X151454250Y-83033333D02*
X151478059Y-82985714D01*
X151478059Y-82985714D02*
X151478059Y-82842857D01*
X151478059Y-82842857D02*
X151454250Y-82795238D01*
X151454250Y-82795238D02*
X151430440Y-82771428D01*
D11*
X135916666Y-85554819D02*
X136392856Y-85554819D01*
X136392856Y-85554819D02*
X136392856Y-84554819D01*
X135059523Y-85554819D02*
X135630951Y-85554819D01*
X135345237Y-85554819D02*
X135345237Y-84554819D01*
X135345237Y-84554819D02*
X135440475Y-84697676D01*
X135440475Y-84697676D02*
X135535713Y-84792914D01*
X135535713Y-84792914D02*
X135630951Y-84840533D01*
X147311904Y-79754819D02*
X147311904Y-80564342D01*
X147311904Y-80564342D02*
X147264285Y-80659580D01*
X147264285Y-80659580D02*
X147216666Y-80707200D01*
X147216666Y-80707200D02*
X147121428Y-80754819D01*
X147121428Y-80754819D02*
X146930952Y-80754819D01*
X146930952Y-80754819D02*
X146835714Y-80707200D01*
X146835714Y-80707200D02*
X146788095Y-80659580D01*
X146788095Y-80659580D02*
X146740476Y-80564342D01*
X146740476Y-80564342D02*
X146740476Y-79754819D01*
X145835714Y-79754819D02*
X146026190Y-79754819D01*
X146026190Y-79754819D02*
X146121428Y-79802438D01*
X146121428Y-79802438D02*
X146169047Y-79850057D01*
X146169047Y-79850057D02*
X146264285Y-79992914D01*
X146264285Y-79992914D02*
X146311904Y-80183390D01*
X146311904Y-80183390D02*
X146311904Y-80564342D01*
X146311904Y-80564342D02*
X146264285Y-80659580D01*
X146264285Y-80659580D02*
X146216666Y-80707200D01*
X146216666Y-80707200D02*
X146121428Y-80754819D01*
X146121428Y-80754819D02*
X145930952Y-80754819D01*
X145930952Y-80754819D02*
X145835714Y-80707200D01*
X145835714Y-80707200D02*
X145788095Y-80659580D01*
X145788095Y-80659580D02*
X145740476Y-80564342D01*
X145740476Y-80564342D02*
X145740476Y-80326247D01*
X145740476Y-80326247D02*
X145788095Y-80231009D01*
X145788095Y-80231009D02*
X145835714Y-80183390D01*
X145835714Y-80183390D02*
X145930952Y-80135771D01*
X145930952Y-80135771D02*
X146121428Y-80135771D01*
X146121428Y-80135771D02*
X146216666Y-80183390D01*
X146216666Y-80183390D02*
X146264285Y-80231009D01*
X146264285Y-80231009D02*
X146311904Y-80326247D01*
X143461904Y-87704819D02*
X143461904Y-88514342D01*
X143461904Y-88514342D02*
X143414285Y-88609580D01*
X143414285Y-88609580D02*
X143366666Y-88657200D01*
X143366666Y-88657200D02*
X143271428Y-88704819D01*
X143271428Y-88704819D02*
X143080952Y-88704819D01*
X143080952Y-88704819D02*
X142985714Y-88657200D01*
X142985714Y-88657200D02*
X142938095Y-88609580D01*
X142938095Y-88609580D02*
X142890476Y-88514342D01*
X142890476Y-88514342D02*
X142890476Y-87704819D01*
X141938095Y-87704819D02*
X142414285Y-87704819D01*
X142414285Y-87704819D02*
X142461904Y-88181009D01*
X142461904Y-88181009D02*
X142414285Y-88133390D01*
X142414285Y-88133390D02*
X142319047Y-88085771D01*
X142319047Y-88085771D02*
X142080952Y-88085771D01*
X142080952Y-88085771D02*
X141985714Y-88133390D01*
X141985714Y-88133390D02*
X141938095Y-88181009D01*
X141938095Y-88181009D02*
X141890476Y-88276247D01*
X141890476Y-88276247D02*
X141890476Y-88514342D01*
X141890476Y-88514342D02*
X141938095Y-88609580D01*
X141938095Y-88609580D02*
X141985714Y-88657200D01*
X141985714Y-88657200D02*
X142080952Y-88704819D01*
X142080952Y-88704819D02*
X142319047Y-88704819D01*
X142319047Y-88704819D02*
X142414285Y-88657200D01*
X142414285Y-88657200D02*
X142461904Y-88609580D01*
D10*
X147321428Y-93030440D02*
X147345237Y-93054250D01*
X147345237Y-93054250D02*
X147416666Y-93078059D01*
X147416666Y-93078059D02*
X147464285Y-93078059D01*
X147464285Y-93078059D02*
X147535713Y-93054250D01*
X147535713Y-93054250D02*
X147583332Y-93006630D01*
X147583332Y-93006630D02*
X147607142Y-92959011D01*
X147607142Y-92959011D02*
X147630951Y-92863773D01*
X147630951Y-92863773D02*
X147630951Y-92792345D01*
X147630951Y-92792345D02*
X147607142Y-92697107D01*
X147607142Y-92697107D02*
X147583332Y-92649488D01*
X147583332Y-92649488D02*
X147535713Y-92601869D01*
X147535713Y-92601869D02*
X147464285Y-92578059D01*
X147464285Y-92578059D02*
X147416666Y-92578059D01*
X147416666Y-92578059D02*
X147345237Y-92601869D01*
X147345237Y-92601869D02*
X147321428Y-92625678D01*
X146845237Y-93078059D02*
X147130951Y-93078059D01*
X146988094Y-93078059D02*
X146988094Y-92578059D01*
X146988094Y-92578059D02*
X147035713Y-92649488D01*
X147035713Y-92649488D02*
X147083332Y-92697107D01*
X147083332Y-92697107D02*
X147130951Y-92720916D01*
X146678571Y-92578059D02*
X146345238Y-92578059D01*
X146345238Y-92578059D02*
X146559523Y-93078059D01*
X154280440Y-85278571D02*
X154304250Y-85254762D01*
X154304250Y-85254762D02*
X154328059Y-85183333D01*
X154328059Y-85183333D02*
X154328059Y-85135714D01*
X154328059Y-85135714D02*
X154304250Y-85064286D01*
X154304250Y-85064286D02*
X154256630Y-85016667D01*
X154256630Y-85016667D02*
X154209011Y-84992857D01*
X154209011Y-84992857D02*
X154113773Y-84969048D01*
X154113773Y-84969048D02*
X154042345Y-84969048D01*
X154042345Y-84969048D02*
X153947107Y-84992857D01*
X153947107Y-84992857D02*
X153899488Y-85016667D01*
X153899488Y-85016667D02*
X153851869Y-85064286D01*
X153851869Y-85064286D02*
X153828059Y-85135714D01*
X153828059Y-85135714D02*
X153828059Y-85183333D01*
X153828059Y-85183333D02*
X153851869Y-85254762D01*
X153851869Y-85254762D02*
X153875678Y-85278571D01*
X154328059Y-85754762D02*
X154328059Y-85469048D01*
X154328059Y-85611905D02*
X153828059Y-85611905D01*
X153828059Y-85611905D02*
X153899488Y-85564286D01*
X153899488Y-85564286D02*
X153947107Y-85516667D01*
X153947107Y-85516667D02*
X153970916Y-85469048D01*
X153994726Y-86183333D02*
X154328059Y-86183333D01*
X153804250Y-86064285D02*
X154161392Y-85945238D01*
X154161392Y-85945238D02*
X154161392Y-86254761D01*
X152080440Y-82128571D02*
X152104250Y-82104762D01*
X152104250Y-82104762D02*
X152128059Y-82033333D01*
X152128059Y-82033333D02*
X152128059Y-81985714D01*
X152128059Y-81985714D02*
X152104250Y-81914286D01*
X152104250Y-81914286D02*
X152056630Y-81866667D01*
X152056630Y-81866667D02*
X152009011Y-81842857D01*
X152009011Y-81842857D02*
X151913773Y-81819048D01*
X151913773Y-81819048D02*
X151842345Y-81819048D01*
X151842345Y-81819048D02*
X151747107Y-81842857D01*
X151747107Y-81842857D02*
X151699488Y-81866667D01*
X151699488Y-81866667D02*
X151651869Y-81914286D01*
X151651869Y-81914286D02*
X151628059Y-81985714D01*
X151628059Y-81985714D02*
X151628059Y-82033333D01*
X151628059Y-82033333D02*
X151651869Y-82104762D01*
X151651869Y-82104762D02*
X151675678Y-82128571D01*
X151675678Y-82319048D02*
X151651869Y-82342857D01*
X151651869Y-82342857D02*
X151628059Y-82390476D01*
X151628059Y-82390476D02*
X151628059Y-82509524D01*
X151628059Y-82509524D02*
X151651869Y-82557143D01*
X151651869Y-82557143D02*
X151675678Y-82580952D01*
X151675678Y-82580952D02*
X151723297Y-82604762D01*
X151723297Y-82604762D02*
X151770916Y-82604762D01*
X151770916Y-82604762D02*
X151842345Y-82580952D01*
X151842345Y-82580952D02*
X152128059Y-82295238D01*
X152128059Y-82295238D02*
X152128059Y-82604762D01*
X152128059Y-83080952D02*
X152128059Y-82795238D01*
X152128059Y-82938095D02*
X151628059Y-82938095D01*
X151628059Y-82938095D02*
X151699488Y-82890476D01*
X151699488Y-82890476D02*
X151747107Y-82842857D01*
X151747107Y-82842857D02*
X151770916Y-82795238D01*
D11*
X152454819Y-91438095D02*
X153264342Y-91438095D01*
X153264342Y-91438095D02*
X153359580Y-91485714D01*
X153359580Y-91485714D02*
X153407200Y-91533333D01*
X153407200Y-91533333D02*
X153454819Y-91628571D01*
X153454819Y-91628571D02*
X153454819Y-91819047D01*
X153454819Y-91819047D02*
X153407200Y-91914285D01*
X153407200Y-91914285D02*
X153359580Y-91961904D01*
X153359580Y-91961904D02*
X153264342Y-92009523D01*
X153264342Y-92009523D02*
X152454819Y-92009523D01*
X152454819Y-92390476D02*
X152454819Y-93009523D01*
X152454819Y-93009523D02*
X152835771Y-92676190D01*
X152835771Y-92676190D02*
X152835771Y-92819047D01*
X152835771Y-92819047D02*
X152883390Y-92914285D01*
X152883390Y-92914285D02*
X152931009Y-92961904D01*
X152931009Y-92961904D02*
X153026247Y-93009523D01*
X153026247Y-93009523D02*
X153264342Y-93009523D01*
X153264342Y-93009523D02*
X153359580Y-92961904D01*
X153359580Y-92961904D02*
X153407200Y-92914285D01*
X153407200Y-92914285D02*
X153454819Y-92819047D01*
X153454819Y-92819047D02*
X153454819Y-92533333D01*
X153454819Y-92533333D02*
X153407200Y-92438095D01*
X153407200Y-92438095D02*
X153359580Y-92390476D01*
X135254819Y-93388095D02*
X136064342Y-93388095D01*
X136064342Y-93388095D02*
X136159580Y-93435714D01*
X136159580Y-93435714D02*
X136207200Y-93483333D01*
X136207200Y-93483333D02*
X136254819Y-93578571D01*
X136254819Y-93578571D02*
X136254819Y-93769047D01*
X136254819Y-93769047D02*
X136207200Y-93864285D01*
X136207200Y-93864285D02*
X136159580Y-93911904D01*
X136159580Y-93911904D02*
X136064342Y-93959523D01*
X136064342Y-93959523D02*
X135254819Y-93959523D01*
X135588152Y-94864285D02*
X136254819Y-94864285D01*
X135207200Y-94626190D02*
X135921485Y-94388095D01*
X135921485Y-94388095D02*
X135921485Y-95007142D01*
X137966666Y-98304819D02*
X138299999Y-97828628D01*
X138538094Y-98304819D02*
X138538094Y-97304819D01*
X138538094Y-97304819D02*
X138157142Y-97304819D01*
X138157142Y-97304819D02*
X138061904Y-97352438D01*
X138061904Y-97352438D02*
X138014285Y-97400057D01*
X138014285Y-97400057D02*
X137966666Y-97495295D01*
X137966666Y-97495295D02*
X137966666Y-97638152D01*
X137966666Y-97638152D02*
X138014285Y-97733390D01*
X138014285Y-97733390D02*
X138061904Y-97781009D01*
X138061904Y-97781009D02*
X138157142Y-97828628D01*
X138157142Y-97828628D02*
X138538094Y-97828628D01*
X137109523Y-97304819D02*
X137299999Y-97304819D01*
X137299999Y-97304819D02*
X137395237Y-97352438D01*
X137395237Y-97352438D02*
X137442856Y-97400057D01*
X137442856Y-97400057D02*
X137538094Y-97542914D01*
X137538094Y-97542914D02*
X137585713Y-97733390D01*
X137585713Y-97733390D02*
X137585713Y-98114342D01*
X137585713Y-98114342D02*
X137538094Y-98209580D01*
X137538094Y-98209580D02*
X137490475Y-98257200D01*
X137490475Y-98257200D02*
X137395237Y-98304819D01*
X137395237Y-98304819D02*
X137204761Y-98304819D01*
X137204761Y-98304819D02*
X137109523Y-98257200D01*
X137109523Y-98257200D02*
X137061904Y-98209580D01*
X137061904Y-98209580D02*
X137014285Y-98114342D01*
X137014285Y-98114342D02*
X137014285Y-97876247D01*
X137014285Y-97876247D02*
X137061904Y-97781009D01*
X137061904Y-97781009D02*
X137109523Y-97733390D01*
X137109523Y-97733390D02*
X137204761Y-97685771D01*
X137204761Y-97685771D02*
X137395237Y-97685771D01*
X137395237Y-97685771D02*
X137490475Y-97733390D01*
X137490475Y-97733390D02*
X137538094Y-97781009D01*
X137538094Y-97781009D02*
X137585713Y-97876247D01*
D10*
X150780440Y-82128571D02*
X150804250Y-82104762D01*
X150804250Y-82104762D02*
X150828059Y-82033333D01*
X150828059Y-82033333D02*
X150828059Y-81985714D01*
X150828059Y-81985714D02*
X150804250Y-81914286D01*
X150804250Y-81914286D02*
X150756630Y-81866667D01*
X150756630Y-81866667D02*
X150709011Y-81842857D01*
X150709011Y-81842857D02*
X150613773Y-81819048D01*
X150613773Y-81819048D02*
X150542345Y-81819048D01*
X150542345Y-81819048D02*
X150447107Y-81842857D01*
X150447107Y-81842857D02*
X150399488Y-81866667D01*
X150399488Y-81866667D02*
X150351869Y-81914286D01*
X150351869Y-81914286D02*
X150328059Y-81985714D01*
X150328059Y-81985714D02*
X150328059Y-82033333D01*
X150328059Y-82033333D02*
X150351869Y-82104762D01*
X150351869Y-82104762D02*
X150375678Y-82128571D01*
X150375678Y-82319048D02*
X150351869Y-82342857D01*
X150351869Y-82342857D02*
X150328059Y-82390476D01*
X150328059Y-82390476D02*
X150328059Y-82509524D01*
X150328059Y-82509524D02*
X150351869Y-82557143D01*
X150351869Y-82557143D02*
X150375678Y-82580952D01*
X150375678Y-82580952D02*
X150423297Y-82604762D01*
X150423297Y-82604762D02*
X150470916Y-82604762D01*
X150470916Y-82604762D02*
X150542345Y-82580952D01*
X150542345Y-82580952D02*
X150828059Y-82295238D01*
X150828059Y-82295238D02*
X150828059Y-82604762D01*
X150375678Y-82795238D02*
X150351869Y-82819047D01*
X150351869Y-82819047D02*
X150328059Y-82866666D01*
X150328059Y-82866666D02*
X150328059Y-82985714D01*
X150328059Y-82985714D02*
X150351869Y-83033333D01*
X150351869Y-83033333D02*
X150375678Y-83057142D01*
X150375678Y-83057142D02*
X150423297Y-83080952D01*
X150423297Y-83080952D02*
X150470916Y-83080952D01*
X150470916Y-83080952D02*
X150542345Y-83057142D01*
X150542345Y-83057142D02*
X150828059Y-82771428D01*
X150828059Y-82771428D02*
X150828059Y-83080952D01*
D11*
X133992857Y-92259580D02*
X134040476Y-92307200D01*
X134040476Y-92307200D02*
X134183333Y-92354819D01*
X134183333Y-92354819D02*
X134278571Y-92354819D01*
X134278571Y-92354819D02*
X134421428Y-92307200D01*
X134421428Y-92307200D02*
X134516666Y-92211961D01*
X134516666Y-92211961D02*
X134564285Y-92116723D01*
X134564285Y-92116723D02*
X134611904Y-91926247D01*
X134611904Y-91926247D02*
X134611904Y-91783390D01*
X134611904Y-91783390D02*
X134564285Y-91592914D01*
X134564285Y-91592914D02*
X134516666Y-91497676D01*
X134516666Y-91497676D02*
X134421428Y-91402438D01*
X134421428Y-91402438D02*
X134278571Y-91354819D01*
X134278571Y-91354819D02*
X134183333Y-91354819D01*
X134183333Y-91354819D02*
X134040476Y-91402438D01*
X134040476Y-91402438D02*
X133992857Y-91450057D01*
X133040476Y-92354819D02*
X133611904Y-92354819D01*
X133326190Y-92354819D02*
X133326190Y-91354819D01*
X133326190Y-91354819D02*
X133421428Y-91497676D01*
X133421428Y-91497676D02*
X133516666Y-91592914D01*
X133516666Y-91592914D02*
X133611904Y-91640533D01*
X132088095Y-92354819D02*
X132659523Y-92354819D01*
X132373809Y-92354819D02*
X132373809Y-91354819D01*
X132373809Y-91354819D02*
X132469047Y-91497676D01*
X132469047Y-91497676D02*
X132564285Y-91592914D01*
X132564285Y-91592914D02*
X132659523Y-91640533D01*
D10*
X152180440Y-84178571D02*
X152204250Y-84154762D01*
X152204250Y-84154762D02*
X152228059Y-84083333D01*
X152228059Y-84083333D02*
X152228059Y-84035714D01*
X152228059Y-84035714D02*
X152204250Y-83964286D01*
X152204250Y-83964286D02*
X152156630Y-83916667D01*
X152156630Y-83916667D02*
X152109011Y-83892857D01*
X152109011Y-83892857D02*
X152013773Y-83869048D01*
X152013773Y-83869048D02*
X151942345Y-83869048D01*
X151942345Y-83869048D02*
X151847107Y-83892857D01*
X151847107Y-83892857D02*
X151799488Y-83916667D01*
X151799488Y-83916667D02*
X151751869Y-83964286D01*
X151751869Y-83964286D02*
X151728059Y-84035714D01*
X151728059Y-84035714D02*
X151728059Y-84083333D01*
X151728059Y-84083333D02*
X151751869Y-84154762D01*
X151751869Y-84154762D02*
X151775678Y-84178571D01*
X152228059Y-84654762D02*
X152228059Y-84369048D01*
X152228059Y-84511905D02*
X151728059Y-84511905D01*
X151728059Y-84511905D02*
X151799488Y-84464286D01*
X151799488Y-84464286D02*
X151847107Y-84416667D01*
X151847107Y-84416667D02*
X151870916Y-84369048D01*
X151775678Y-84845238D02*
X151751869Y-84869047D01*
X151751869Y-84869047D02*
X151728059Y-84916666D01*
X151728059Y-84916666D02*
X151728059Y-85035714D01*
X151728059Y-85035714D02*
X151751869Y-85083333D01*
X151751869Y-85083333D02*
X151775678Y-85107142D01*
X151775678Y-85107142D02*
X151823297Y-85130952D01*
X151823297Y-85130952D02*
X151870916Y-85130952D01*
X151870916Y-85130952D02*
X151942345Y-85107142D01*
X151942345Y-85107142D02*
X152228059Y-84821428D01*
X152228059Y-84821428D02*
X152228059Y-85130952D01*
D11*
X144142857Y-83859580D02*
X144190476Y-83907200D01*
X144190476Y-83907200D02*
X144333333Y-83954819D01*
X144333333Y-83954819D02*
X144428571Y-83954819D01*
X144428571Y-83954819D02*
X144571428Y-83907200D01*
X144571428Y-83907200D02*
X144666666Y-83811961D01*
X144666666Y-83811961D02*
X144714285Y-83716723D01*
X144714285Y-83716723D02*
X144761904Y-83526247D01*
X144761904Y-83526247D02*
X144761904Y-83383390D01*
X144761904Y-83383390D02*
X144714285Y-83192914D01*
X144714285Y-83192914D02*
X144666666Y-83097676D01*
X144666666Y-83097676D02*
X144571428Y-83002438D01*
X144571428Y-83002438D02*
X144428571Y-82954819D01*
X144428571Y-82954819D02*
X144333333Y-82954819D01*
X144333333Y-82954819D02*
X144190476Y-83002438D01*
X144190476Y-83002438D02*
X144142857Y-83050057D01*
X143190476Y-83954819D02*
X143761904Y-83954819D01*
X143476190Y-83954819D02*
X143476190Y-82954819D01*
X143476190Y-82954819D02*
X143571428Y-83097676D01*
X143571428Y-83097676D02*
X143666666Y-83192914D01*
X143666666Y-83192914D02*
X143761904Y-83240533D01*
X142714285Y-83954819D02*
X142523809Y-83954819D01*
X142523809Y-83954819D02*
X142428571Y-83907200D01*
X142428571Y-83907200D02*
X142380952Y-83859580D01*
X142380952Y-83859580D02*
X142285714Y-83716723D01*
X142285714Y-83716723D02*
X142238095Y-83526247D01*
X142238095Y-83526247D02*
X142238095Y-83145295D01*
X142238095Y-83145295D02*
X142285714Y-83050057D01*
X142285714Y-83050057D02*
X142333333Y-83002438D01*
X142333333Y-83002438D02*
X142428571Y-82954819D01*
X142428571Y-82954819D02*
X142619047Y-82954819D01*
X142619047Y-82954819D02*
X142714285Y-83002438D01*
X142714285Y-83002438D02*
X142761904Y-83050057D01*
X142761904Y-83050057D02*
X142809523Y-83145295D01*
X142809523Y-83145295D02*
X142809523Y-83383390D01*
X142809523Y-83383390D02*
X142761904Y-83478628D01*
X142761904Y-83478628D02*
X142714285Y-83526247D01*
X142714285Y-83526247D02*
X142619047Y-83573866D01*
X142619047Y-83573866D02*
X142428571Y-83573866D01*
X142428571Y-83573866D02*
X142333333Y-83526247D01*
X142333333Y-83526247D02*
X142285714Y-83478628D01*
X142285714Y-83478628D02*
X142238095Y-83383390D01*
X138854819Y-93233333D02*
X138378628Y-92900000D01*
X138854819Y-92661905D02*
X137854819Y-92661905D01*
X137854819Y-92661905D02*
X137854819Y-93042857D01*
X137854819Y-93042857D02*
X137902438Y-93138095D01*
X137902438Y-93138095D02*
X137950057Y-93185714D01*
X137950057Y-93185714D02*
X138045295Y-93233333D01*
X138045295Y-93233333D02*
X138188152Y-93233333D01*
X138188152Y-93233333D02*
X138283390Y-93185714D01*
X138283390Y-93185714D02*
X138331009Y-93138095D01*
X138331009Y-93138095D02*
X138378628Y-93042857D01*
X138378628Y-93042857D02*
X138378628Y-92661905D01*
X138854819Y-94185714D02*
X138854819Y-93614286D01*
X138854819Y-93900000D02*
X137854819Y-93900000D01*
X137854819Y-93900000D02*
X137997676Y-93804762D01*
X137997676Y-93804762D02*
X138092914Y-93709524D01*
X138092914Y-93709524D02*
X138140533Y-93614286D01*
D10*
X154180440Y-83878571D02*
X154204250Y-83854762D01*
X154204250Y-83854762D02*
X154228059Y-83783333D01*
X154228059Y-83783333D02*
X154228059Y-83735714D01*
X154228059Y-83735714D02*
X154204250Y-83664286D01*
X154204250Y-83664286D02*
X154156630Y-83616667D01*
X154156630Y-83616667D02*
X154109011Y-83592857D01*
X154109011Y-83592857D02*
X154013773Y-83569048D01*
X154013773Y-83569048D02*
X153942345Y-83569048D01*
X153942345Y-83569048D02*
X153847107Y-83592857D01*
X153847107Y-83592857D02*
X153799488Y-83616667D01*
X153799488Y-83616667D02*
X153751869Y-83664286D01*
X153751869Y-83664286D02*
X153728059Y-83735714D01*
X153728059Y-83735714D02*
X153728059Y-83783333D01*
X153728059Y-83783333D02*
X153751869Y-83854762D01*
X153751869Y-83854762D02*
X153775678Y-83878571D01*
X154228059Y-84354762D02*
X154228059Y-84069048D01*
X154228059Y-84211905D02*
X153728059Y-84211905D01*
X153728059Y-84211905D02*
X153799488Y-84164286D01*
X153799488Y-84164286D02*
X153847107Y-84116667D01*
X153847107Y-84116667D02*
X153870916Y-84069048D01*
X153728059Y-84807142D02*
X153728059Y-84569047D01*
X153728059Y-84569047D02*
X153966154Y-84545238D01*
X153966154Y-84545238D02*
X153942345Y-84569047D01*
X153942345Y-84569047D02*
X153918535Y-84616666D01*
X153918535Y-84616666D02*
X153918535Y-84735714D01*
X153918535Y-84735714D02*
X153942345Y-84783333D01*
X153942345Y-84783333D02*
X153966154Y-84807142D01*
X153966154Y-84807142D02*
X154013773Y-84830952D01*
X154013773Y-84830952D02*
X154132821Y-84830952D01*
X154132821Y-84830952D02*
X154180440Y-84807142D01*
X154180440Y-84807142D02*
X154204250Y-84783333D01*
X154204250Y-84783333D02*
X154228059Y-84735714D01*
X154228059Y-84735714D02*
X154228059Y-84616666D01*
X154228059Y-84616666D02*
X154204250Y-84569047D01*
X154204250Y-84569047D02*
X154180440Y-84545238D01*
D11*
X132916666Y-89909580D02*
X132964285Y-89957200D01*
X132964285Y-89957200D02*
X133107142Y-90004819D01*
X133107142Y-90004819D02*
X133202380Y-90004819D01*
X133202380Y-90004819D02*
X133345237Y-89957200D01*
X133345237Y-89957200D02*
X133440475Y-89861961D01*
X133440475Y-89861961D02*
X133488094Y-89766723D01*
X133488094Y-89766723D02*
X133535713Y-89576247D01*
X133535713Y-89576247D02*
X133535713Y-89433390D01*
X133535713Y-89433390D02*
X133488094Y-89242914D01*
X133488094Y-89242914D02*
X133440475Y-89147676D01*
X133440475Y-89147676D02*
X133345237Y-89052438D01*
X133345237Y-89052438D02*
X133202380Y-89004819D01*
X133202380Y-89004819D02*
X133107142Y-89004819D01*
X133107142Y-89004819D02*
X132964285Y-89052438D01*
X132964285Y-89052438D02*
X132916666Y-89100057D01*
X132535713Y-89100057D02*
X132488094Y-89052438D01*
X132488094Y-89052438D02*
X132392856Y-89004819D01*
X132392856Y-89004819D02*
X132154761Y-89004819D01*
X132154761Y-89004819D02*
X132059523Y-89052438D01*
X132059523Y-89052438D02*
X132011904Y-89100057D01*
X132011904Y-89100057D02*
X131964285Y-89195295D01*
X131964285Y-89195295D02*
X131964285Y-89290533D01*
X131964285Y-89290533D02*
X132011904Y-89433390D01*
X132011904Y-89433390D02*
X132583332Y-90004819D01*
X132583332Y-90004819D02*
X131964285Y-90004819D01*
X146066666Y-94609580D02*
X146114285Y-94657200D01*
X146114285Y-94657200D02*
X146257142Y-94704819D01*
X146257142Y-94704819D02*
X146352380Y-94704819D01*
X146352380Y-94704819D02*
X146495237Y-94657200D01*
X146495237Y-94657200D02*
X146590475Y-94561961D01*
X146590475Y-94561961D02*
X146638094Y-94466723D01*
X146638094Y-94466723D02*
X146685713Y-94276247D01*
X146685713Y-94276247D02*
X146685713Y-94133390D01*
X146685713Y-94133390D02*
X146638094Y-93942914D01*
X146638094Y-93942914D02*
X146590475Y-93847676D01*
X146590475Y-93847676D02*
X146495237Y-93752438D01*
X146495237Y-93752438D02*
X146352380Y-93704819D01*
X146352380Y-93704819D02*
X146257142Y-93704819D01*
X146257142Y-93704819D02*
X146114285Y-93752438D01*
X146114285Y-93752438D02*
X146066666Y-93800057D01*
X145114285Y-94704819D02*
X145685713Y-94704819D01*
X145399999Y-94704819D02*
X145399999Y-93704819D01*
X145399999Y-93704819D02*
X145495237Y-93847676D01*
X145495237Y-93847676D02*
X145590475Y-93942914D01*
X145590475Y-93942914D02*
X145685713Y-93990533D01*
D12*
G04 #@! TO.C,C9*
X142340580Y-97990000D02*
X142059420Y-97990000D01*
X142340580Y-99010000D02*
X142059420Y-99010000D01*
G04 #@! TO.C,L1*
X132790000Y-82540000D02*
X132790000Y-84090000D01*
X132790000Y-86410000D02*
X132790000Y-87960000D01*
X132790000Y-87960000D02*
X138710000Y-87960000D01*
X138710000Y-82540000D02*
X132790000Y-82540000D01*
X138710000Y-84090000D02*
X138710000Y-82540000D01*
X138710000Y-87960000D02*
X138710000Y-86410000D01*
D13*
G04 #@! TO.C,U6*
X147807000Y-79805000D02*
X147807000Y-80059000D01*
X147807000Y-82345000D02*
X147807000Y-82119000D01*
X148442000Y-79805000D02*
X147807000Y-79805000D01*
X148442000Y-82345000D02*
X147807000Y-82345000D01*
X150093000Y-79805000D02*
X149458000Y-79805000D01*
X150093000Y-80059000D02*
X150093000Y-79805000D01*
X150093000Y-82091000D02*
X150093000Y-82345000D01*
X150093000Y-82345000D02*
X149458000Y-82345000D01*
D11*
X147567500Y-81825000D02*
G75*
G02*
X147417500Y-81825000I-75000J0D01*
G01*
X147417500Y-81825000D02*
G75*
G02*
X147567500Y-81825000I75000J0D01*
G01*
D14*
G04 #@! TO.C,U5*
X139900000Y-86706500D02*
X139900000Y-90190000D01*
X144914500Y-86706500D02*
X139900000Y-86706500D01*
X144914500Y-87764000D02*
X144914500Y-86706500D01*
X144914500Y-90050000D02*
X144914500Y-89136000D01*
X144914500Y-90190000D02*
X139900000Y-90190000D01*
X144914500Y-89136000D02*
G75*
G02*
X144914500Y-87764000I0J686000D01*
G01*
D15*
X144230000Y-89560000D02*
G75*
G02*
X143830000Y-89560000I-200000J0D01*
G01*
X143830000Y-89560000D02*
G75*
G02*
X144230000Y-89560000I200000J0D01*
G01*
D16*
G04 #@! TO.C,U3*
X147349995Y-85500000D02*
X147754995Y-85500000D01*
X147349995Y-85905000D02*
X147349995Y-85500000D01*
X147349995Y-90495000D02*
X147349995Y-90900000D01*
X147349995Y-90900000D02*
X147754995Y-90900000D01*
X152344995Y-85500000D02*
X152749995Y-85500000D01*
X152344995Y-90900000D02*
X152749995Y-90900000D01*
X152749995Y-85500000D02*
X152749995Y-85905000D01*
X152749995Y-90900000D02*
X152749995Y-90495000D01*
D17*
X146999495Y-90728000D02*
G75*
G02*
X146999495Y-90725500I-149999J1250D01*
G01*
D14*
G04 #@! TO.C,U4*
X134900000Y-92614000D02*
X136700000Y-92614000D01*
X134900000Y-95714000D02*
X136700000Y-95714000D01*
X137324000Y-92513000D02*
G75*
G02*
X137070000Y-92513000I-127000J0D01*
G01*
X137070000Y-92513000D02*
G75*
G02*
X137324000Y-92513000I127000J0D01*
G01*
D12*
G04 #@! TO.C,R6*
X137662742Y-95927500D02*
X138137258Y-95927500D01*
X137662742Y-96972500D02*
X138137258Y-96972500D01*
G04 #@! TO.C,C11*
X135542164Y-90840000D02*
X135757836Y-90840000D01*
X135542164Y-91560000D02*
X135757836Y-91560000D01*
G04 #@! TO.C,R1*
X137565000Y-90388748D02*
X137565000Y-90911252D01*
X139035000Y-90388748D02*
X139035000Y-90911252D01*
G04 #@! TO.C,C2*
X135711252Y-88765000D02*
X135188748Y-88765000D01*
X135711252Y-90235000D02*
X135188748Y-90235000D01*
G04 #@! TO.C,C1*
X142961252Y-93290000D02*
X141538748Y-93290000D01*
X142961252Y-95110000D02*
X141538748Y-95110000D01*
G04 #@! TD*
%LPC*%
D18*
G04 #@! TO.C,J1*
X145600000Y-85000000D03*
D19*
X145600000Y-84000000D03*
X145600000Y-83000000D03*
X145600000Y-82000000D03*
G04 #@! TD*
D20*
G04 #@! TO.C,-BAT+1*
X140900000Y-96750000D03*
D21*
X143400000Y-96750000D03*
G04 #@! TD*
D22*
G04 #@! TO.C,U8*
X145590000Y-78200000D03*
D23*
X143050000Y-78200000D03*
X140510000Y-78200000D03*
G04 #@! TD*
D24*
G04 #@! TO.C,M2*
X136000000Y-79900000D03*
G04 #@! TD*
G04 #@! TO.C,M2*
X148850000Y-96300000D03*
G04 #@! TD*
D25*
G04 #@! TO.C,C13*
X150850000Y-84100000D03*
X151350000Y-84100000D03*
G04 #@! TD*
D26*
G04 #@! TO.C,C9*
X142975000Y-98500000D03*
X141425000Y-98500000D03*
G04 #@! TD*
D27*
G04 #@! TO.C,C16*
X147200000Y-91600000D03*
X146700000Y-91600000D03*
G04 #@! TD*
D25*
G04 #@! TO.C,C20*
X148700000Y-79475000D03*
X149200000Y-79475000D03*
G04 #@! TD*
D28*
G04 #@! TO.C,C23*
X151100000Y-81325000D03*
X151100000Y-80825000D03*
G04 #@! TD*
D29*
G04 #@! TO.C,L1*
X133500000Y-85250000D03*
X138000000Y-85250000D03*
G04 #@! TD*
D30*
G04 #@! TO.C,U6*
X148075000Y-81825000D03*
X148075000Y-81325000D03*
X148075000Y-80825000D03*
X148075000Y-80325000D03*
D31*
X148700000Y-80200000D03*
X149200000Y-80200000D03*
D30*
X149825000Y-80325000D03*
X149825000Y-80825000D03*
X149825000Y-81325000D03*
X149825000Y-81825000D03*
D31*
X149200000Y-81950000D03*
X148700000Y-81950000D03*
G04 #@! TD*
D32*
G04 #@! TO.C,U5*
X144350000Y-91250000D03*
X143700000Y-91250000D03*
X143050000Y-91250000D03*
X142400000Y-91250000D03*
X141750000Y-91250000D03*
X141100000Y-91250000D03*
X140450000Y-91250000D03*
X140450000Y-85650000D03*
X141100000Y-85650000D03*
X141750000Y-85650000D03*
X142400000Y-85650000D03*
X143050000Y-85650000D03*
X143700000Y-85650000D03*
X144350000Y-85650000D03*
G04 #@! TD*
D27*
G04 #@! TO.C,C17*
X147200000Y-92250000D03*
X146700000Y-92250000D03*
G04 #@! TD*
D25*
G04 #@! TO.C,C14*
X152600000Y-85250000D03*
X153100000Y-85250000D03*
G04 #@! TD*
D28*
G04 #@! TO.C,C21*
X151700000Y-81325000D03*
X151700000Y-80825000D03*
G04 #@! TD*
D33*
G04 #@! TO.C,U3*
X147499995Y-89950000D03*
X147499995Y-89450000D03*
X147499995Y-88950000D03*
X147499995Y-88450000D03*
X147499995Y-87950000D03*
X147499995Y-87450000D03*
X147499995Y-86950000D03*
X147499995Y-86450000D03*
D34*
X148299995Y-85650000D03*
X148799995Y-85650000D03*
X149299995Y-85650000D03*
X149799995Y-85650000D03*
X150299995Y-85650000D03*
X150799995Y-85650000D03*
X151299995Y-85650000D03*
X151799995Y-85650000D03*
D33*
X152599995Y-86450000D03*
X152599995Y-86950000D03*
X152599995Y-87450000D03*
X152599995Y-87950000D03*
X152599995Y-88450000D03*
X152599995Y-88950000D03*
X152599995Y-89450000D03*
X152599995Y-89950000D03*
D34*
X151799995Y-90750000D03*
X151299995Y-90750000D03*
X150799995Y-90750000D03*
X150299995Y-90750000D03*
X149799995Y-90750000D03*
X149299995Y-90750000D03*
X148799995Y-90750000D03*
X148299995Y-90750000D03*
D35*
X150049995Y-88200000D03*
G04 #@! TD*
D36*
G04 #@! TO.C,U4*
X137150000Y-93214000D03*
X137150000Y-94164000D03*
X137150000Y-95114000D03*
X134450000Y-95114000D03*
X134450000Y-94164000D03*
X134450000Y-93214000D03*
G04 #@! TD*
D37*
G04 #@! TO.C,R6*
X137075000Y-96450000D03*
X138725000Y-96450000D03*
G04 #@! TD*
D28*
G04 #@! TO.C,C22*
X150500000Y-81325000D03*
X150500000Y-80825000D03*
G04 #@! TD*
D38*
G04 #@! TO.C,C11*
X135170000Y-91200000D03*
X136130000Y-91200000D03*
G04 #@! TD*
D25*
G04 #@! TO.C,C12*
X150850000Y-84750000D03*
X151350000Y-84750000D03*
G04 #@! TD*
G04 #@! TO.C,C19*
X143150000Y-84400000D03*
X143650000Y-84400000D03*
G04 #@! TD*
D39*
G04 #@! TO.C,R1*
X138300000Y-89700000D03*
X138300000Y-91600000D03*
G04 #@! TD*
D25*
G04 #@! TO.C,C15*
X152600000Y-84650000D03*
X153100000Y-84650000D03*
G04 #@! TD*
D40*
G04 #@! TO.C,C2*
X136400000Y-89500000D03*
X134500000Y-89500000D03*
G04 #@! TD*
D41*
G04 #@! TO.C,C1*
X143725000Y-94200000D03*
X140775000Y-94200000D03*
G04 #@! TD*
%LPD*%
M02*
