G04 #@! TF.GenerationSoftware,KiCad,Pcbnew,9.0.4*
G04 #@! TF.CreationDate,2025-10-13T14:39:45-04:00*
G04 #@! TF.ProjectId,bldc motor controller,626c6463-206d-46f7-946f-7220636f6e74,rev?*
G04 #@! TF.SameCoordinates,Original*
G04 #@! TF.FileFunction,AssemblyDrawing,Top*
%FSLAX46Y46*%
G04 Gerber Fmt 4.6, Leading zero omitted, Abs format (unit mm)*
G04 Created by KiCad (PCBNEW 9.0.4) date 2025-10-13 14:39:45*
%MOMM*%
%LPD*%
G01*
G04 APERTURE LIST*
%ADD10C,0.150000*%
%ADD11C,0.114000*%
%ADD12C,0.040000*%
%ADD13C,0.060000*%
%ADD14C,0.140000*%
%ADD15C,0.100000*%
G04 APERTURE END LIST*
D10*
X148638095Y-91346866D02*
X148685714Y-91299247D01*
X148685714Y-91299247D02*
X148780952Y-91251628D01*
X148780952Y-91251628D02*
X148971428Y-91346866D01*
X148971428Y-91346866D02*
X149066666Y-91299247D01*
X149066666Y-91299247D02*
X149114285Y-91251628D01*
X146250866Y-92561904D02*
X146203247Y-92514285D01*
X146203247Y-92514285D02*
X146155628Y-92419047D01*
X146155628Y-92419047D02*
X146250866Y-92228571D01*
X146250866Y-92228571D02*
X146203247Y-92133333D01*
X146203247Y-92133333D02*
X146155628Y-92085714D01*
X136038595Y-98694866D02*
X136086214Y-98647247D01*
X136086214Y-98647247D02*
X136181452Y-98599628D01*
X136181452Y-98599628D02*
X136371928Y-98694866D01*
X136371928Y-98694866D02*
X136467166Y-98647247D01*
X136467166Y-98647247D02*
X136514785Y-98599628D01*
X140290475Y-80749580D02*
X140242856Y-80797200D01*
X140242856Y-80797200D02*
X140099999Y-80844819D01*
X140099999Y-80844819D02*
X140004761Y-80844819D01*
X140004761Y-80844819D02*
X139861904Y-80797200D01*
X139861904Y-80797200D02*
X139766666Y-80701961D01*
X139766666Y-80701961D02*
X139719047Y-80606723D01*
X139719047Y-80606723D02*
X139671428Y-80416247D01*
X139671428Y-80416247D02*
X139671428Y-80273390D01*
X139671428Y-80273390D02*
X139719047Y-80082914D01*
X139719047Y-80082914D02*
X139766666Y-79987676D01*
X139766666Y-79987676D02*
X139861904Y-79892438D01*
X139861904Y-79892438D02*
X140004761Y-79844819D01*
X140004761Y-79844819D02*
X140099999Y-79844819D01*
X140099999Y-79844819D02*
X140242856Y-79892438D01*
X140242856Y-79892438D02*
X140290475Y-79940057D01*
X140861904Y-80844819D02*
X140766666Y-80797200D01*
X140766666Y-80797200D02*
X140719047Y-80749580D01*
X140719047Y-80749580D02*
X140671428Y-80654342D01*
X140671428Y-80654342D02*
X140671428Y-80368628D01*
X140671428Y-80368628D02*
X140719047Y-80273390D01*
X140719047Y-80273390D02*
X140766666Y-80225771D01*
X140766666Y-80225771D02*
X140861904Y-80178152D01*
X140861904Y-80178152D02*
X141004761Y-80178152D01*
X141004761Y-80178152D02*
X141099999Y-80225771D01*
X141099999Y-80225771D02*
X141147618Y-80273390D01*
X141147618Y-80273390D02*
X141195237Y-80368628D01*
X141195237Y-80368628D02*
X141195237Y-80654342D01*
X141195237Y-80654342D02*
X141147618Y-80749580D01*
X141147618Y-80749580D02*
X141099999Y-80797200D01*
X141099999Y-80797200D02*
X141004761Y-80844819D01*
X141004761Y-80844819D02*
X140861904Y-80844819D01*
X141623809Y-80178152D02*
X141623809Y-80844819D01*
X141623809Y-80273390D02*
X141671428Y-80225771D01*
X141671428Y-80225771D02*
X141766666Y-80178152D01*
X141766666Y-80178152D02*
X141909523Y-80178152D01*
X141909523Y-80178152D02*
X142004761Y-80225771D01*
X142004761Y-80225771D02*
X142052380Y-80321009D01*
X142052380Y-80321009D02*
X142052380Y-80844819D01*
X142528571Y-80178152D02*
X142528571Y-80844819D01*
X142528571Y-80273390D02*
X142576190Y-80225771D01*
X142576190Y-80225771D02*
X142671428Y-80178152D01*
X142671428Y-80178152D02*
X142814285Y-80178152D01*
X142814285Y-80178152D02*
X142909523Y-80225771D01*
X142909523Y-80225771D02*
X142957142Y-80321009D01*
X142957142Y-80321009D02*
X142957142Y-80844819D01*
X143195238Y-80940057D02*
X143957142Y-80940057D01*
X144385714Y-79844819D02*
X144480952Y-79844819D01*
X144480952Y-79844819D02*
X144576190Y-79892438D01*
X144576190Y-79892438D02*
X144623809Y-79940057D01*
X144623809Y-79940057D02*
X144671428Y-80035295D01*
X144671428Y-80035295D02*
X144719047Y-80225771D01*
X144719047Y-80225771D02*
X144719047Y-80463866D01*
X144719047Y-80463866D02*
X144671428Y-80654342D01*
X144671428Y-80654342D02*
X144623809Y-80749580D01*
X144623809Y-80749580D02*
X144576190Y-80797200D01*
X144576190Y-80797200D02*
X144480952Y-80844819D01*
X144480952Y-80844819D02*
X144385714Y-80844819D01*
X144385714Y-80844819D02*
X144290476Y-80797200D01*
X144290476Y-80797200D02*
X144242857Y-80749580D01*
X144242857Y-80749580D02*
X144195238Y-80654342D01*
X144195238Y-80654342D02*
X144147619Y-80463866D01*
X144147619Y-80463866D02*
X144147619Y-80225771D01*
X144147619Y-80225771D02*
X144195238Y-80035295D01*
X144195238Y-80035295D02*
X144242857Y-79940057D01*
X144242857Y-79940057D02*
X144290476Y-79892438D01*
X144290476Y-79892438D02*
X144385714Y-79844819D01*
X145671428Y-80844819D02*
X145100000Y-80844819D01*
X145385714Y-80844819D02*
X145385714Y-79844819D01*
X145385714Y-79844819D02*
X145290476Y-79987676D01*
X145290476Y-79987676D02*
X145195238Y-80082914D01*
X145195238Y-80082914D02*
X145100000Y-80130533D01*
X146004762Y-80844819D02*
X146528571Y-80178152D01*
X146004762Y-80178152D02*
X146528571Y-80844819D01*
X147100000Y-79844819D02*
X147195238Y-79844819D01*
X147195238Y-79844819D02*
X147290476Y-79892438D01*
X147290476Y-79892438D02*
X147338095Y-79940057D01*
X147338095Y-79940057D02*
X147385714Y-80035295D01*
X147385714Y-80035295D02*
X147433333Y-80225771D01*
X147433333Y-80225771D02*
X147433333Y-80463866D01*
X147433333Y-80463866D02*
X147385714Y-80654342D01*
X147385714Y-80654342D02*
X147338095Y-80749580D01*
X147338095Y-80749580D02*
X147290476Y-80797200D01*
X147290476Y-80797200D02*
X147195238Y-80844819D01*
X147195238Y-80844819D02*
X147100000Y-80844819D01*
X147100000Y-80844819D02*
X147004762Y-80797200D01*
X147004762Y-80797200D02*
X146957143Y-80749580D01*
X146957143Y-80749580D02*
X146909524Y-80654342D01*
X146909524Y-80654342D02*
X146861905Y-80463866D01*
X146861905Y-80463866D02*
X146861905Y-80225771D01*
X146861905Y-80225771D02*
X146909524Y-80035295D01*
X146909524Y-80035295D02*
X146957143Y-79940057D01*
X146957143Y-79940057D02*
X147004762Y-79892438D01*
X147004762Y-79892438D02*
X147100000Y-79844819D01*
X148290476Y-80178152D02*
X148290476Y-80844819D01*
X148052381Y-79797200D02*
X147814286Y-80511485D01*
X147814286Y-80511485D02*
X148433333Y-80511485D01*
X148576191Y-80940057D02*
X149338095Y-80940057D01*
X149576191Y-80844819D02*
X149576191Y-79844819D01*
X149576191Y-79844819D02*
X149957143Y-79844819D01*
X149957143Y-79844819D02*
X150052381Y-79892438D01*
X150052381Y-79892438D02*
X150100000Y-79940057D01*
X150100000Y-79940057D02*
X150147619Y-80035295D01*
X150147619Y-80035295D02*
X150147619Y-80178152D01*
X150147619Y-80178152D02*
X150100000Y-80273390D01*
X150100000Y-80273390D02*
X150052381Y-80321009D01*
X150052381Y-80321009D02*
X149957143Y-80368628D01*
X149957143Y-80368628D02*
X149576191Y-80368628D01*
X150576191Y-80844819D02*
X150576191Y-80178152D01*
X150576191Y-79844819D02*
X150528572Y-79892438D01*
X150528572Y-79892438D02*
X150576191Y-79940057D01*
X150576191Y-79940057D02*
X150623810Y-79892438D01*
X150623810Y-79892438D02*
X150576191Y-79844819D01*
X150576191Y-79844819D02*
X150576191Y-79940057D01*
X151052381Y-80178152D02*
X151052381Y-80844819D01*
X151052381Y-80273390D02*
X151100000Y-80225771D01*
X151100000Y-80225771D02*
X151195238Y-80178152D01*
X151195238Y-80178152D02*
X151338095Y-80178152D01*
X151338095Y-80178152D02*
X151433333Y-80225771D01*
X151433333Y-80225771D02*
X151480952Y-80321009D01*
X151480952Y-80321009D02*
X151480952Y-80844819D01*
D11*
X145185662Y-83753333D02*
X145728519Y-83753333D01*
X145728519Y-83753333D02*
X145837091Y-83789524D01*
X145837091Y-83789524D02*
X145909472Y-83861905D01*
X145909472Y-83861905D02*
X145945662Y-83970476D01*
X145945662Y-83970476D02*
X145945662Y-84042857D01*
X145945662Y-82993333D02*
X145945662Y-83427619D01*
X145945662Y-83210476D02*
X145185662Y-83210476D01*
X145185662Y-83210476D02*
X145294233Y-83282857D01*
X145294233Y-83282857D02*
X145366614Y-83355238D01*
X145366614Y-83355238D02*
X145402805Y-83427619D01*
D10*
X141888095Y-100223866D02*
X141935714Y-100176247D01*
X141935714Y-100176247D02*
X142030952Y-100128628D01*
X142030952Y-100128628D02*
X142221428Y-100223866D01*
X142221428Y-100223866D02*
X142316666Y-100176247D01*
X142316666Y-100176247D02*
X142364285Y-100128628D01*
X139364286Y-98323866D02*
X140126191Y-98323866D01*
X140935714Y-98181009D02*
X141078571Y-98228628D01*
X141078571Y-98228628D02*
X141126190Y-98276247D01*
X141126190Y-98276247D02*
X141173809Y-98371485D01*
X141173809Y-98371485D02*
X141173809Y-98514342D01*
X141173809Y-98514342D02*
X141126190Y-98609580D01*
X141126190Y-98609580D02*
X141078571Y-98657200D01*
X141078571Y-98657200D02*
X140983333Y-98704819D01*
X140983333Y-98704819D02*
X140602381Y-98704819D01*
X140602381Y-98704819D02*
X140602381Y-97704819D01*
X140602381Y-97704819D02*
X140935714Y-97704819D01*
X140935714Y-97704819D02*
X141030952Y-97752438D01*
X141030952Y-97752438D02*
X141078571Y-97800057D01*
X141078571Y-97800057D02*
X141126190Y-97895295D01*
X141126190Y-97895295D02*
X141126190Y-97990533D01*
X141126190Y-97990533D02*
X141078571Y-98085771D01*
X141078571Y-98085771D02*
X141030952Y-98133390D01*
X141030952Y-98133390D02*
X140935714Y-98181009D01*
X140935714Y-98181009D02*
X140602381Y-98181009D01*
X141554762Y-98419104D02*
X142030952Y-98419104D01*
X141459524Y-98704819D02*
X141792857Y-97704819D01*
X141792857Y-97704819D02*
X142126190Y-98704819D01*
X142316667Y-97704819D02*
X142888095Y-97704819D01*
X142602381Y-98704819D02*
X142602381Y-97704819D01*
X143221429Y-98323866D02*
X143983334Y-98323866D01*
X143602381Y-98704819D02*
X143602381Y-97942914D01*
X144983333Y-98704819D02*
X144411905Y-98704819D01*
X144697619Y-98704819D02*
X144697619Y-97704819D01*
X144697619Y-97704819D02*
X144602381Y-97847676D01*
X144602381Y-97847676D02*
X144507143Y-97942914D01*
X144507143Y-97942914D02*
X144411905Y-97990533D01*
X138885714Y-92350057D02*
X138933333Y-92302438D01*
X138933333Y-92302438D02*
X139028571Y-92254819D01*
X139028571Y-92254819D02*
X139266666Y-92254819D01*
X139266666Y-92254819D02*
X139361904Y-92302438D01*
X139361904Y-92302438D02*
X139409523Y-92350057D01*
X139409523Y-92350057D02*
X139457142Y-92445295D01*
X139457142Y-92445295D02*
X139457142Y-92540533D01*
X139457142Y-92540533D02*
X139409523Y-92683390D01*
X139409523Y-92683390D02*
X138838095Y-93254819D01*
X138838095Y-93254819D02*
X139457142Y-93254819D01*
X140076190Y-92254819D02*
X140171428Y-92254819D01*
X140171428Y-92254819D02*
X140266666Y-92302438D01*
X140266666Y-92302438D02*
X140314285Y-92350057D01*
X140314285Y-92350057D02*
X140361904Y-92445295D01*
X140361904Y-92445295D02*
X140409523Y-92635771D01*
X140409523Y-92635771D02*
X140409523Y-92873866D01*
X140409523Y-92873866D02*
X140361904Y-93064342D01*
X140361904Y-93064342D02*
X140314285Y-93159580D01*
X140314285Y-93159580D02*
X140266666Y-93207200D01*
X140266666Y-93207200D02*
X140171428Y-93254819D01*
X140171428Y-93254819D02*
X140076190Y-93254819D01*
X140076190Y-93254819D02*
X139980952Y-93207200D01*
X139980952Y-93207200D02*
X139933333Y-93159580D01*
X139933333Y-93159580D02*
X139885714Y-93064342D01*
X139885714Y-93064342D02*
X139838095Y-92873866D01*
X139838095Y-92873866D02*
X139838095Y-92635771D01*
X139838095Y-92635771D02*
X139885714Y-92445295D01*
X139885714Y-92445295D02*
X139933333Y-92350057D01*
X139933333Y-92350057D02*
X139980952Y-92302438D01*
X139980952Y-92302438D02*
X140076190Y-92254819D01*
X141028571Y-92254819D02*
X141123809Y-92254819D01*
X141123809Y-92254819D02*
X141219047Y-92302438D01*
X141219047Y-92302438D02*
X141266666Y-92350057D01*
X141266666Y-92350057D02*
X141314285Y-92445295D01*
X141314285Y-92445295D02*
X141361904Y-92635771D01*
X141361904Y-92635771D02*
X141361904Y-92873866D01*
X141361904Y-92873866D02*
X141314285Y-93064342D01*
X141314285Y-93064342D02*
X141266666Y-93159580D01*
X141266666Y-93159580D02*
X141219047Y-93207200D01*
X141219047Y-93207200D02*
X141123809Y-93254819D01*
X141123809Y-93254819D02*
X141028571Y-93254819D01*
X141028571Y-93254819D02*
X140933333Y-93207200D01*
X140933333Y-93207200D02*
X140885714Y-93159580D01*
X140885714Y-93159580D02*
X140838095Y-93064342D01*
X140838095Y-93064342D02*
X140790476Y-92873866D01*
X140790476Y-92873866D02*
X140790476Y-92635771D01*
X140790476Y-92635771D02*
X140838095Y-92445295D01*
X140838095Y-92445295D02*
X140885714Y-92350057D01*
X140885714Y-92350057D02*
X140933333Y-92302438D01*
X140933333Y-92302438D02*
X141028571Y-92254819D01*
X141980952Y-92254819D02*
X142076190Y-92254819D01*
X142076190Y-92254819D02*
X142171428Y-92302438D01*
X142171428Y-92302438D02*
X142219047Y-92350057D01*
X142219047Y-92350057D02*
X142266666Y-92445295D01*
X142266666Y-92445295D02*
X142314285Y-92635771D01*
X142314285Y-92635771D02*
X142314285Y-92873866D01*
X142314285Y-92873866D02*
X142266666Y-93064342D01*
X142266666Y-93064342D02*
X142219047Y-93159580D01*
X142219047Y-93159580D02*
X142171428Y-93207200D01*
X142171428Y-93207200D02*
X142076190Y-93254819D01*
X142076190Y-93254819D02*
X141980952Y-93254819D01*
X141980952Y-93254819D02*
X141885714Y-93207200D01*
X141885714Y-93207200D02*
X141838095Y-93159580D01*
X141838095Y-93159580D02*
X141790476Y-93064342D01*
X141790476Y-93064342D02*
X141742857Y-92873866D01*
X141742857Y-92873866D02*
X141742857Y-92635771D01*
X141742857Y-92635771D02*
X141790476Y-92445295D01*
X141790476Y-92445295D02*
X141838095Y-92350057D01*
X141838095Y-92350057D02*
X141885714Y-92302438D01*
X141885714Y-92302438D02*
X141980952Y-92254819D01*
D12*
X140439285Y-91293574D02*
X140355952Y-91174527D01*
X140296428Y-91293574D02*
X140296428Y-91043574D01*
X140296428Y-91043574D02*
X140391666Y-91043574D01*
X140391666Y-91043574D02*
X140415476Y-91055479D01*
X140415476Y-91055479D02*
X140427381Y-91067384D01*
X140427381Y-91067384D02*
X140439285Y-91091193D01*
X140439285Y-91091193D02*
X140439285Y-91126908D01*
X140439285Y-91126908D02*
X140427381Y-91150717D01*
X140427381Y-91150717D02*
X140415476Y-91162622D01*
X140415476Y-91162622D02*
X140391666Y-91174527D01*
X140391666Y-91174527D02*
X140296428Y-91174527D01*
X140677381Y-91293574D02*
X140534524Y-91293574D01*
X140605952Y-91293574D02*
X140605952Y-91043574D01*
X140605952Y-91043574D02*
X140582143Y-91079289D01*
X140582143Y-91079289D02*
X140558333Y-91103098D01*
X140558333Y-91103098D02*
X140534524Y-91115003D01*
X140832142Y-91043574D02*
X140855952Y-91043574D01*
X140855952Y-91043574D02*
X140879761Y-91055479D01*
X140879761Y-91055479D02*
X140891666Y-91067384D01*
X140891666Y-91067384D02*
X140903571Y-91091193D01*
X140903571Y-91091193D02*
X140915476Y-91138812D01*
X140915476Y-91138812D02*
X140915476Y-91198336D01*
X140915476Y-91198336D02*
X140903571Y-91245955D01*
X140903571Y-91245955D02*
X140891666Y-91269765D01*
X140891666Y-91269765D02*
X140879761Y-91281670D01*
X140879761Y-91281670D02*
X140855952Y-91293574D01*
X140855952Y-91293574D02*
X140832142Y-91293574D01*
X140832142Y-91293574D02*
X140808333Y-91281670D01*
X140808333Y-91281670D02*
X140796428Y-91269765D01*
X140796428Y-91269765D02*
X140784523Y-91245955D01*
X140784523Y-91245955D02*
X140772619Y-91198336D01*
X140772619Y-91198336D02*
X140772619Y-91138812D01*
X140772619Y-91138812D02*
X140784523Y-91091193D01*
X140784523Y-91091193D02*
X140796428Y-91067384D01*
X140796428Y-91067384D02*
X140808333Y-91055479D01*
X140808333Y-91055479D02*
X140832142Y-91043574D01*
D10*
X141252380Y-89704819D02*
X140680952Y-89704819D01*
X140966666Y-89704819D02*
X140966666Y-88704819D01*
X140966666Y-88704819D02*
X140871428Y-88847676D01*
X140871428Y-88847676D02*
X140776190Y-88942914D01*
X140776190Y-88942914D02*
X140680952Y-88990533D01*
X141871428Y-88704819D02*
X141966666Y-88704819D01*
X141966666Y-88704819D02*
X142061904Y-88752438D01*
X142061904Y-88752438D02*
X142109523Y-88800057D01*
X142109523Y-88800057D02*
X142157142Y-88895295D01*
X142157142Y-88895295D02*
X142204761Y-89085771D01*
X142204761Y-89085771D02*
X142204761Y-89323866D01*
X142204761Y-89323866D02*
X142157142Y-89514342D01*
X142157142Y-89514342D02*
X142109523Y-89609580D01*
X142109523Y-89609580D02*
X142061904Y-89657200D01*
X142061904Y-89657200D02*
X141966666Y-89704819D01*
X141966666Y-89704819D02*
X141871428Y-89704819D01*
X141871428Y-89704819D02*
X141776190Y-89657200D01*
X141776190Y-89657200D02*
X141728571Y-89609580D01*
X141728571Y-89609580D02*
X141680952Y-89514342D01*
X141680952Y-89514342D02*
X141633333Y-89323866D01*
X141633333Y-89323866D02*
X141633333Y-89085771D01*
X141633333Y-89085771D02*
X141680952Y-88895295D01*
X141680952Y-88895295D02*
X141728571Y-88800057D01*
X141728571Y-88800057D02*
X141776190Y-88752438D01*
X141776190Y-88752438D02*
X141871428Y-88704819D01*
X142823809Y-88704819D02*
X142919047Y-88704819D01*
X142919047Y-88704819D02*
X143014285Y-88752438D01*
X143014285Y-88752438D02*
X143061904Y-88800057D01*
X143061904Y-88800057D02*
X143109523Y-88895295D01*
X143109523Y-88895295D02*
X143157142Y-89085771D01*
X143157142Y-89085771D02*
X143157142Y-89323866D01*
X143157142Y-89323866D02*
X143109523Y-89514342D01*
X143109523Y-89514342D02*
X143061904Y-89609580D01*
X143061904Y-89609580D02*
X143014285Y-89657200D01*
X143014285Y-89657200D02*
X142919047Y-89704819D01*
X142919047Y-89704819D02*
X142823809Y-89704819D01*
X142823809Y-89704819D02*
X142728571Y-89657200D01*
X142728571Y-89657200D02*
X142680952Y-89609580D01*
X142680952Y-89609580D02*
X142633333Y-89514342D01*
X142633333Y-89514342D02*
X142585714Y-89323866D01*
X142585714Y-89323866D02*
X142585714Y-89085771D01*
X142585714Y-89085771D02*
X142633333Y-88895295D01*
X142633333Y-88895295D02*
X142680952Y-88800057D01*
X142680952Y-88800057D02*
X142728571Y-88752438D01*
X142728571Y-88752438D02*
X142823809Y-88704819D01*
X143585714Y-89038152D02*
X143585714Y-90038152D01*
X143585714Y-89085771D02*
X143680952Y-89038152D01*
X143680952Y-89038152D02*
X143871428Y-89038152D01*
X143871428Y-89038152D02*
X143966666Y-89085771D01*
X143966666Y-89085771D02*
X144014285Y-89133390D01*
X144014285Y-89133390D02*
X144061904Y-89228628D01*
X144061904Y-89228628D02*
X144061904Y-89514342D01*
X144061904Y-89514342D02*
X144014285Y-89609580D01*
X144014285Y-89609580D02*
X143966666Y-89657200D01*
X143966666Y-89657200D02*
X143871428Y-89704819D01*
X143871428Y-89704819D02*
X143680952Y-89704819D01*
X143680952Y-89704819D02*
X143585714Y-89657200D01*
X144823809Y-89181009D02*
X144490476Y-89181009D01*
X144490476Y-89704819D02*
X144490476Y-88704819D01*
X144490476Y-88704819D02*
X144966666Y-88704819D01*
D12*
X142758333Y-87719765D02*
X142746429Y-87731670D01*
X142746429Y-87731670D02*
X142710714Y-87743574D01*
X142710714Y-87743574D02*
X142686905Y-87743574D01*
X142686905Y-87743574D02*
X142651191Y-87731670D01*
X142651191Y-87731670D02*
X142627381Y-87707860D01*
X142627381Y-87707860D02*
X142615476Y-87684050D01*
X142615476Y-87684050D02*
X142603572Y-87636431D01*
X142603572Y-87636431D02*
X142603572Y-87600717D01*
X142603572Y-87600717D02*
X142615476Y-87553098D01*
X142615476Y-87553098D02*
X142627381Y-87529289D01*
X142627381Y-87529289D02*
X142651191Y-87505479D01*
X142651191Y-87505479D02*
X142686905Y-87493574D01*
X142686905Y-87493574D02*
X142710714Y-87493574D01*
X142710714Y-87493574D02*
X142746429Y-87505479D01*
X142746429Y-87505479D02*
X142758333Y-87517384D01*
X142984524Y-87493574D02*
X142865476Y-87493574D01*
X142865476Y-87493574D02*
X142853572Y-87612622D01*
X142853572Y-87612622D02*
X142865476Y-87600717D01*
X142865476Y-87600717D02*
X142889286Y-87588812D01*
X142889286Y-87588812D02*
X142948810Y-87588812D01*
X142948810Y-87588812D02*
X142972619Y-87600717D01*
X142972619Y-87600717D02*
X142984524Y-87612622D01*
X142984524Y-87612622D02*
X142996429Y-87636431D01*
X142996429Y-87636431D02*
X142996429Y-87695955D01*
X142996429Y-87695955D02*
X142984524Y-87719765D01*
X142984524Y-87719765D02*
X142972619Y-87731670D01*
X142972619Y-87731670D02*
X142948810Y-87743574D01*
X142948810Y-87743574D02*
X142889286Y-87743574D01*
X142889286Y-87743574D02*
X142865476Y-87731670D01*
X142865476Y-87731670D02*
X142853572Y-87719765D01*
D10*
X142526190Y-90564819D02*
X142621428Y-90564819D01*
X142621428Y-90564819D02*
X142716666Y-90612438D01*
X142716666Y-90612438D02*
X142764285Y-90660057D01*
X142764285Y-90660057D02*
X142811904Y-90755295D01*
X142811904Y-90755295D02*
X142859523Y-90945771D01*
X142859523Y-90945771D02*
X142859523Y-91183866D01*
X142859523Y-91183866D02*
X142811904Y-91374342D01*
X142811904Y-91374342D02*
X142764285Y-91469580D01*
X142764285Y-91469580D02*
X142716666Y-91517200D01*
X142716666Y-91517200D02*
X142621428Y-91564819D01*
X142621428Y-91564819D02*
X142526190Y-91564819D01*
X142526190Y-91564819D02*
X142430952Y-91517200D01*
X142430952Y-91517200D02*
X142383333Y-91469580D01*
X142383333Y-91469580D02*
X142335714Y-91374342D01*
X142335714Y-91374342D02*
X142288095Y-91183866D01*
X142288095Y-91183866D02*
X142288095Y-90945771D01*
X142288095Y-90945771D02*
X142335714Y-90755295D01*
X142335714Y-90755295D02*
X142383333Y-90660057D01*
X142383333Y-90660057D02*
X142430952Y-90612438D01*
X142430952Y-90612438D02*
X142526190Y-90564819D01*
X143288095Y-91469580D02*
X143335714Y-91517200D01*
X143335714Y-91517200D02*
X143288095Y-91564819D01*
X143288095Y-91564819D02*
X143240476Y-91517200D01*
X143240476Y-91517200D02*
X143288095Y-91469580D01*
X143288095Y-91469580D02*
X143288095Y-91564819D01*
X144288094Y-91564819D02*
X143716666Y-91564819D01*
X144002380Y-91564819D02*
X144002380Y-90564819D01*
X144002380Y-90564819D02*
X143907142Y-90707676D01*
X143907142Y-90707676D02*
X143811904Y-90802914D01*
X143811904Y-90802914D02*
X143716666Y-90850533D01*
X145907142Y-90898152D02*
X145907142Y-91564819D01*
X145478571Y-90898152D02*
X145478571Y-91421961D01*
X145478571Y-91421961D02*
X145526190Y-91517200D01*
X145526190Y-91517200D02*
X145621428Y-91564819D01*
X145621428Y-91564819D02*
X145764285Y-91564819D01*
X145764285Y-91564819D02*
X145859523Y-91517200D01*
X145859523Y-91517200D02*
X145907142Y-91469580D01*
X146716666Y-91041009D02*
X146383333Y-91041009D01*
X146383333Y-91564819D02*
X146383333Y-90564819D01*
X146383333Y-90564819D02*
X146859523Y-90564819D01*
D12*
X144389285Y-90039765D02*
X144377381Y-90051670D01*
X144377381Y-90051670D02*
X144341666Y-90063574D01*
X144341666Y-90063574D02*
X144317857Y-90063574D01*
X144317857Y-90063574D02*
X144282143Y-90051670D01*
X144282143Y-90051670D02*
X144258333Y-90027860D01*
X144258333Y-90027860D02*
X144246428Y-90004050D01*
X144246428Y-90004050D02*
X144234524Y-89956431D01*
X144234524Y-89956431D02*
X144234524Y-89920717D01*
X144234524Y-89920717D02*
X144246428Y-89873098D01*
X144246428Y-89873098D02*
X144258333Y-89849289D01*
X144258333Y-89849289D02*
X144282143Y-89825479D01*
X144282143Y-89825479D02*
X144317857Y-89813574D01*
X144317857Y-89813574D02*
X144341666Y-89813574D01*
X144341666Y-89813574D02*
X144377381Y-89825479D01*
X144377381Y-89825479D02*
X144389285Y-89837384D01*
X144484524Y-89837384D02*
X144496428Y-89825479D01*
X144496428Y-89825479D02*
X144520238Y-89813574D01*
X144520238Y-89813574D02*
X144579762Y-89813574D01*
X144579762Y-89813574D02*
X144603571Y-89825479D01*
X144603571Y-89825479D02*
X144615476Y-89837384D01*
X144615476Y-89837384D02*
X144627381Y-89861193D01*
X144627381Y-89861193D02*
X144627381Y-89885003D01*
X144627381Y-89885003D02*
X144615476Y-89920717D01*
X144615476Y-89920717D02*
X144472619Y-90063574D01*
X144472619Y-90063574D02*
X144627381Y-90063574D01*
X144841666Y-89896908D02*
X144841666Y-90063574D01*
X144782142Y-89801670D02*
X144722619Y-89980241D01*
X144722619Y-89980241D02*
X144877380Y-89980241D01*
D10*
X130674819Y-91176190D02*
X130674819Y-91747618D01*
X130674819Y-91461904D02*
X129674819Y-91461904D01*
X129674819Y-91461904D02*
X129817676Y-91557142D01*
X129817676Y-91557142D02*
X129912914Y-91652380D01*
X129912914Y-91652380D02*
X129960533Y-91747618D01*
X130008152Y-89557142D02*
X130674819Y-89557142D01*
X130008152Y-89985713D02*
X130531961Y-89985713D01*
X130531961Y-89985713D02*
X130627200Y-89938094D01*
X130627200Y-89938094D02*
X130674819Y-89842856D01*
X130674819Y-89842856D02*
X130674819Y-89699999D01*
X130674819Y-89699999D02*
X130627200Y-89604761D01*
X130627200Y-89604761D02*
X130579580Y-89557142D01*
X130151009Y-88747618D02*
X130151009Y-89080951D01*
X130674819Y-89080951D02*
X129674819Y-89080951D01*
X129674819Y-89080951D02*
X129674819Y-88604761D01*
D13*
X131793832Y-90266666D02*
X131812880Y-90285714D01*
X131812880Y-90285714D02*
X131831927Y-90342856D01*
X131831927Y-90342856D02*
X131831927Y-90380952D01*
X131831927Y-90380952D02*
X131812880Y-90438095D01*
X131812880Y-90438095D02*
X131774784Y-90476190D01*
X131774784Y-90476190D02*
X131736689Y-90495237D01*
X131736689Y-90495237D02*
X131660499Y-90514285D01*
X131660499Y-90514285D02*
X131603356Y-90514285D01*
X131603356Y-90514285D02*
X131527165Y-90495237D01*
X131527165Y-90495237D02*
X131489070Y-90476190D01*
X131489070Y-90476190D02*
X131450975Y-90438095D01*
X131450975Y-90438095D02*
X131431927Y-90380952D01*
X131431927Y-90380952D02*
X131431927Y-90342856D01*
X131431927Y-90342856D02*
X131450975Y-90285714D01*
X131450975Y-90285714D02*
X131470022Y-90266666D01*
X131431927Y-90133333D02*
X131431927Y-89866666D01*
X131431927Y-89866666D02*
X131831927Y-90038095D01*
D10*
X138203866Y-78461904D02*
X138156247Y-78414285D01*
X138156247Y-78414285D02*
X138108628Y-78319047D01*
X138108628Y-78319047D02*
X138203866Y-78128571D01*
X138203866Y-78128571D02*
X138156247Y-78033333D01*
X138156247Y-78033333D02*
X138108628Y-77985714D01*
X142288095Y-77654819D02*
X142288095Y-78464342D01*
X142288095Y-78464342D02*
X142335714Y-78559580D01*
X142335714Y-78559580D02*
X142383333Y-78607200D01*
X142383333Y-78607200D02*
X142478571Y-78654819D01*
X142478571Y-78654819D02*
X142669047Y-78654819D01*
X142669047Y-78654819D02*
X142764285Y-78607200D01*
X142764285Y-78607200D02*
X142811904Y-78559580D01*
X142811904Y-78559580D02*
X142859523Y-78464342D01*
X142859523Y-78464342D02*
X142859523Y-77654819D01*
X143478571Y-78083390D02*
X143383333Y-78035771D01*
X143383333Y-78035771D02*
X143335714Y-77988152D01*
X143335714Y-77988152D02*
X143288095Y-77892914D01*
X143288095Y-77892914D02*
X143288095Y-77845295D01*
X143288095Y-77845295D02*
X143335714Y-77750057D01*
X143335714Y-77750057D02*
X143383333Y-77702438D01*
X143383333Y-77702438D02*
X143478571Y-77654819D01*
X143478571Y-77654819D02*
X143669047Y-77654819D01*
X143669047Y-77654819D02*
X143764285Y-77702438D01*
X143764285Y-77702438D02*
X143811904Y-77750057D01*
X143811904Y-77750057D02*
X143859523Y-77845295D01*
X143859523Y-77845295D02*
X143859523Y-77892914D01*
X143859523Y-77892914D02*
X143811904Y-77988152D01*
X143811904Y-77988152D02*
X143764285Y-78035771D01*
X143764285Y-78035771D02*
X143669047Y-78083390D01*
X143669047Y-78083390D02*
X143478571Y-78083390D01*
X143478571Y-78083390D02*
X143383333Y-78131009D01*
X143383333Y-78131009D02*
X143335714Y-78178628D01*
X143335714Y-78178628D02*
X143288095Y-78273866D01*
X143288095Y-78273866D02*
X143288095Y-78464342D01*
X143288095Y-78464342D02*
X143335714Y-78559580D01*
X143335714Y-78559580D02*
X143383333Y-78607200D01*
X143383333Y-78607200D02*
X143478571Y-78654819D01*
X143478571Y-78654819D02*
X143669047Y-78654819D01*
X143669047Y-78654819D02*
X143764285Y-78607200D01*
X143764285Y-78607200D02*
X143811904Y-78559580D01*
X143811904Y-78559580D02*
X143859523Y-78464342D01*
X143859523Y-78464342D02*
X143859523Y-78273866D01*
X143859523Y-78273866D02*
X143811904Y-78178628D01*
X143811904Y-78178628D02*
X143764285Y-78131009D01*
X143764285Y-78131009D02*
X143669047Y-78083390D01*
X141552380Y-88854819D02*
X140980952Y-88854819D01*
X141266666Y-88854819D02*
X141266666Y-87854819D01*
X141266666Y-87854819D02*
X141171428Y-87997676D01*
X141171428Y-87997676D02*
X141076190Y-88092914D01*
X141076190Y-88092914D02*
X140980952Y-88140533D01*
X142171428Y-87854819D02*
X142266666Y-87854819D01*
X142266666Y-87854819D02*
X142361904Y-87902438D01*
X142361904Y-87902438D02*
X142409523Y-87950057D01*
X142409523Y-87950057D02*
X142457142Y-88045295D01*
X142457142Y-88045295D02*
X142504761Y-88235771D01*
X142504761Y-88235771D02*
X142504761Y-88473866D01*
X142504761Y-88473866D02*
X142457142Y-88664342D01*
X142457142Y-88664342D02*
X142409523Y-88759580D01*
X142409523Y-88759580D02*
X142361904Y-88807200D01*
X142361904Y-88807200D02*
X142266666Y-88854819D01*
X142266666Y-88854819D02*
X142171428Y-88854819D01*
X142171428Y-88854819D02*
X142076190Y-88807200D01*
X142076190Y-88807200D02*
X142028571Y-88759580D01*
X142028571Y-88759580D02*
X141980952Y-88664342D01*
X141980952Y-88664342D02*
X141933333Y-88473866D01*
X141933333Y-88473866D02*
X141933333Y-88235771D01*
X141933333Y-88235771D02*
X141980952Y-88045295D01*
X141980952Y-88045295D02*
X142028571Y-87950057D01*
X142028571Y-87950057D02*
X142076190Y-87902438D01*
X142076190Y-87902438D02*
X142171428Y-87854819D01*
X143123809Y-87854819D02*
X143219047Y-87854819D01*
X143219047Y-87854819D02*
X143314285Y-87902438D01*
X143314285Y-87902438D02*
X143361904Y-87950057D01*
X143361904Y-87950057D02*
X143409523Y-88045295D01*
X143409523Y-88045295D02*
X143457142Y-88235771D01*
X143457142Y-88235771D02*
X143457142Y-88473866D01*
X143457142Y-88473866D02*
X143409523Y-88664342D01*
X143409523Y-88664342D02*
X143361904Y-88759580D01*
X143361904Y-88759580D02*
X143314285Y-88807200D01*
X143314285Y-88807200D02*
X143219047Y-88854819D01*
X143219047Y-88854819D02*
X143123809Y-88854819D01*
X143123809Y-88854819D02*
X143028571Y-88807200D01*
X143028571Y-88807200D02*
X142980952Y-88759580D01*
X142980952Y-88759580D02*
X142933333Y-88664342D01*
X142933333Y-88664342D02*
X142885714Y-88473866D01*
X142885714Y-88473866D02*
X142885714Y-88235771D01*
X142885714Y-88235771D02*
X142933333Y-88045295D01*
X142933333Y-88045295D02*
X142980952Y-87950057D01*
X142980952Y-87950057D02*
X143028571Y-87902438D01*
X143028571Y-87902438D02*
X143123809Y-87854819D01*
X143885714Y-88188152D02*
X143885714Y-89188152D01*
X143885714Y-88235771D02*
X143980952Y-88188152D01*
X143980952Y-88188152D02*
X144171428Y-88188152D01*
X144171428Y-88188152D02*
X144266666Y-88235771D01*
X144266666Y-88235771D02*
X144314285Y-88283390D01*
X144314285Y-88283390D02*
X144361904Y-88378628D01*
X144361904Y-88378628D02*
X144361904Y-88664342D01*
X144361904Y-88664342D02*
X144314285Y-88759580D01*
X144314285Y-88759580D02*
X144266666Y-88807200D01*
X144266666Y-88807200D02*
X144171428Y-88854819D01*
X144171428Y-88854819D02*
X143980952Y-88854819D01*
X143980952Y-88854819D02*
X143885714Y-88807200D01*
X145123809Y-88331009D02*
X144790476Y-88331009D01*
X144790476Y-88854819D02*
X144790476Y-87854819D01*
X144790476Y-87854819D02*
X145266666Y-87854819D01*
D12*
X143058333Y-86869765D02*
X143046429Y-86881670D01*
X143046429Y-86881670D02*
X143010714Y-86893574D01*
X143010714Y-86893574D02*
X142986905Y-86893574D01*
X142986905Y-86893574D02*
X142951191Y-86881670D01*
X142951191Y-86881670D02*
X142927381Y-86857860D01*
X142927381Y-86857860D02*
X142915476Y-86834050D01*
X142915476Y-86834050D02*
X142903572Y-86786431D01*
X142903572Y-86786431D02*
X142903572Y-86750717D01*
X142903572Y-86750717D02*
X142915476Y-86703098D01*
X142915476Y-86703098D02*
X142927381Y-86679289D01*
X142927381Y-86679289D02*
X142951191Y-86655479D01*
X142951191Y-86655479D02*
X142986905Y-86643574D01*
X142986905Y-86643574D02*
X143010714Y-86643574D01*
X143010714Y-86643574D02*
X143046429Y-86655479D01*
X143046429Y-86655479D02*
X143058333Y-86667384D01*
X143272619Y-86726908D02*
X143272619Y-86893574D01*
X143213095Y-86631670D02*
X143153572Y-86810241D01*
X143153572Y-86810241D02*
X143308333Y-86810241D01*
D10*
X136180952Y-97284819D02*
X135609524Y-97284819D01*
X135895238Y-97284819D02*
X135895238Y-96284819D01*
X135895238Y-96284819D02*
X135800000Y-96427676D01*
X135800000Y-96427676D02*
X135704762Y-96522914D01*
X135704762Y-96522914D02*
X135609524Y-96570533D01*
X136609524Y-97284819D02*
X136609524Y-96284819D01*
X136704762Y-96903866D02*
X136990476Y-97284819D01*
X136990476Y-96618152D02*
X136609524Y-96999104D01*
D13*
X136233333Y-95581927D02*
X136100000Y-95391451D01*
X136004762Y-95581927D02*
X136004762Y-95181927D01*
X136004762Y-95181927D02*
X136157143Y-95181927D01*
X136157143Y-95181927D02*
X136195238Y-95200975D01*
X136195238Y-95200975D02*
X136214285Y-95220022D01*
X136214285Y-95220022D02*
X136233333Y-95258118D01*
X136233333Y-95258118D02*
X136233333Y-95315260D01*
X136233333Y-95315260D02*
X136214285Y-95353356D01*
X136214285Y-95353356D02*
X136195238Y-95372403D01*
X136195238Y-95372403D02*
X136157143Y-95391451D01*
X136157143Y-95391451D02*
X136004762Y-95391451D01*
X136461904Y-95353356D02*
X136423809Y-95334308D01*
X136423809Y-95334308D02*
X136404762Y-95315260D01*
X136404762Y-95315260D02*
X136385714Y-95277165D01*
X136385714Y-95277165D02*
X136385714Y-95258118D01*
X136385714Y-95258118D02*
X136404762Y-95220022D01*
X136404762Y-95220022D02*
X136423809Y-95200975D01*
X136423809Y-95200975D02*
X136461904Y-95181927D01*
X136461904Y-95181927D02*
X136538095Y-95181927D01*
X136538095Y-95181927D02*
X136576190Y-95200975D01*
X136576190Y-95200975D02*
X136595238Y-95220022D01*
X136595238Y-95220022D02*
X136614285Y-95258118D01*
X136614285Y-95258118D02*
X136614285Y-95277165D01*
X136614285Y-95277165D02*
X136595238Y-95315260D01*
X136595238Y-95315260D02*
X136576190Y-95334308D01*
X136576190Y-95334308D02*
X136538095Y-95353356D01*
X136538095Y-95353356D02*
X136461904Y-95353356D01*
X136461904Y-95353356D02*
X136423809Y-95372403D01*
X136423809Y-95372403D02*
X136404762Y-95391451D01*
X136404762Y-95391451D02*
X136385714Y-95429546D01*
X136385714Y-95429546D02*
X136385714Y-95505737D01*
X136385714Y-95505737D02*
X136404762Y-95543832D01*
X136404762Y-95543832D02*
X136423809Y-95562880D01*
X136423809Y-95562880D02*
X136461904Y-95581927D01*
X136461904Y-95581927D02*
X136538095Y-95581927D01*
X136538095Y-95581927D02*
X136576190Y-95562880D01*
X136576190Y-95562880D02*
X136595238Y-95543832D01*
X136595238Y-95543832D02*
X136614285Y-95505737D01*
X136614285Y-95505737D02*
X136614285Y-95429546D01*
X136614285Y-95429546D02*
X136595238Y-95391451D01*
X136595238Y-95391451D02*
X136576190Y-95372403D01*
X136576190Y-95372403D02*
X136538095Y-95353356D01*
D10*
X142338095Y-87254819D02*
X142147619Y-87254819D01*
X142147619Y-87254819D02*
X142052381Y-87302438D01*
X142052381Y-87302438D02*
X142004762Y-87350057D01*
X142004762Y-87350057D02*
X141909524Y-87492914D01*
X141909524Y-87492914D02*
X141861905Y-87683390D01*
X141861905Y-87683390D02*
X141861905Y-88064342D01*
X141861905Y-88064342D02*
X141909524Y-88159580D01*
X141909524Y-88159580D02*
X141957143Y-88207200D01*
X141957143Y-88207200D02*
X142052381Y-88254819D01*
X142052381Y-88254819D02*
X142242857Y-88254819D01*
X142242857Y-88254819D02*
X142338095Y-88207200D01*
X142338095Y-88207200D02*
X142385714Y-88159580D01*
X142385714Y-88159580D02*
X142433333Y-88064342D01*
X142433333Y-88064342D02*
X142433333Y-87826247D01*
X142433333Y-87826247D02*
X142385714Y-87731009D01*
X142385714Y-87731009D02*
X142338095Y-87683390D01*
X142338095Y-87683390D02*
X142242857Y-87635771D01*
X142242857Y-87635771D02*
X142052381Y-87635771D01*
X142052381Y-87635771D02*
X141957143Y-87683390D01*
X141957143Y-87683390D02*
X141909524Y-87731009D01*
X141909524Y-87731009D02*
X141861905Y-87826247D01*
X143052381Y-87254819D02*
X143147619Y-87254819D01*
X143147619Y-87254819D02*
X143242857Y-87302438D01*
X143242857Y-87302438D02*
X143290476Y-87350057D01*
X143290476Y-87350057D02*
X143338095Y-87445295D01*
X143338095Y-87445295D02*
X143385714Y-87635771D01*
X143385714Y-87635771D02*
X143385714Y-87873866D01*
X143385714Y-87873866D02*
X143338095Y-88064342D01*
X143338095Y-88064342D02*
X143290476Y-88159580D01*
X143290476Y-88159580D02*
X143242857Y-88207200D01*
X143242857Y-88207200D02*
X143147619Y-88254819D01*
X143147619Y-88254819D02*
X143052381Y-88254819D01*
X143052381Y-88254819D02*
X142957143Y-88207200D01*
X142957143Y-88207200D02*
X142909524Y-88159580D01*
X142909524Y-88159580D02*
X142861905Y-88064342D01*
X142861905Y-88064342D02*
X142814286Y-87873866D01*
X142814286Y-87873866D02*
X142814286Y-87635771D01*
X142814286Y-87635771D02*
X142861905Y-87445295D01*
X142861905Y-87445295D02*
X142909524Y-87350057D01*
X142909524Y-87350057D02*
X142957143Y-87302438D01*
X142957143Y-87302438D02*
X143052381Y-87254819D01*
X144004762Y-87254819D02*
X144100000Y-87254819D01*
X144100000Y-87254819D02*
X144195238Y-87302438D01*
X144195238Y-87302438D02*
X144242857Y-87350057D01*
X144242857Y-87350057D02*
X144290476Y-87445295D01*
X144290476Y-87445295D02*
X144338095Y-87635771D01*
X144338095Y-87635771D02*
X144338095Y-87873866D01*
X144338095Y-87873866D02*
X144290476Y-88064342D01*
X144290476Y-88064342D02*
X144242857Y-88159580D01*
X144242857Y-88159580D02*
X144195238Y-88207200D01*
X144195238Y-88207200D02*
X144100000Y-88254819D01*
X144100000Y-88254819D02*
X144004762Y-88254819D01*
X144004762Y-88254819D02*
X143909524Y-88207200D01*
X143909524Y-88207200D02*
X143861905Y-88159580D01*
X143861905Y-88159580D02*
X143814286Y-88064342D01*
X143814286Y-88064342D02*
X143766667Y-87873866D01*
X143766667Y-87873866D02*
X143766667Y-87635771D01*
X143766667Y-87635771D02*
X143814286Y-87445295D01*
X143814286Y-87445295D02*
X143861905Y-87350057D01*
X143861905Y-87350057D02*
X143909524Y-87302438D01*
X143909524Y-87302438D02*
X144004762Y-87254819D01*
D12*
X143058333Y-86293574D02*
X142975000Y-86174527D01*
X142915476Y-86293574D02*
X142915476Y-86043574D01*
X142915476Y-86043574D02*
X143010714Y-86043574D01*
X143010714Y-86043574D02*
X143034524Y-86055479D01*
X143034524Y-86055479D02*
X143046429Y-86067384D01*
X143046429Y-86067384D02*
X143058333Y-86091193D01*
X143058333Y-86091193D02*
X143058333Y-86126908D01*
X143058333Y-86126908D02*
X143046429Y-86150717D01*
X143046429Y-86150717D02*
X143034524Y-86162622D01*
X143034524Y-86162622D02*
X143010714Y-86174527D01*
X143010714Y-86174527D02*
X142915476Y-86174527D01*
X143141667Y-86043574D02*
X143296429Y-86043574D01*
X143296429Y-86043574D02*
X143213095Y-86138812D01*
X143213095Y-86138812D02*
X143248810Y-86138812D01*
X143248810Y-86138812D02*
X143272619Y-86150717D01*
X143272619Y-86150717D02*
X143284524Y-86162622D01*
X143284524Y-86162622D02*
X143296429Y-86186431D01*
X143296429Y-86186431D02*
X143296429Y-86245955D01*
X143296429Y-86245955D02*
X143284524Y-86269765D01*
X143284524Y-86269765D02*
X143272619Y-86281670D01*
X143272619Y-86281670D02*
X143248810Y-86293574D01*
X143248810Y-86293574D02*
X143177381Y-86293574D01*
X143177381Y-86293574D02*
X143153572Y-86281670D01*
X143153572Y-86281670D02*
X143141667Y-86269765D01*
D10*
X146423866Y-87761904D02*
X146376247Y-87714285D01*
X146376247Y-87714285D02*
X146328628Y-87619047D01*
X146328628Y-87619047D02*
X146423866Y-87428571D01*
X146423866Y-87428571D02*
X146376247Y-87333333D01*
X146376247Y-87333333D02*
X146328628Y-87285714D01*
X151304819Y-88261904D02*
X152114342Y-88261904D01*
X152114342Y-88261904D02*
X152209580Y-88214285D01*
X152209580Y-88214285D02*
X152257200Y-88166666D01*
X152257200Y-88166666D02*
X152304819Y-88071428D01*
X152304819Y-88071428D02*
X152304819Y-87880952D01*
X152304819Y-87880952D02*
X152257200Y-87785714D01*
X152257200Y-87785714D02*
X152209580Y-87738095D01*
X152209580Y-87738095D02*
X152114342Y-87690476D01*
X152114342Y-87690476D02*
X151304819Y-87690476D01*
X151304819Y-87309523D02*
X151304819Y-86642857D01*
X151304819Y-86642857D02*
X152304819Y-87071428D01*
X139835714Y-89800057D02*
X139883333Y-89752438D01*
X139883333Y-89752438D02*
X139978571Y-89704819D01*
X139978571Y-89704819D02*
X140216666Y-89704819D01*
X140216666Y-89704819D02*
X140311904Y-89752438D01*
X140311904Y-89752438D02*
X140359523Y-89800057D01*
X140359523Y-89800057D02*
X140407142Y-89895295D01*
X140407142Y-89895295D02*
X140407142Y-89990533D01*
X140407142Y-89990533D02*
X140359523Y-90133390D01*
X140359523Y-90133390D02*
X139788095Y-90704819D01*
X139788095Y-90704819D02*
X140407142Y-90704819D01*
X141026190Y-89704819D02*
X141121428Y-89704819D01*
X141121428Y-89704819D02*
X141216666Y-89752438D01*
X141216666Y-89752438D02*
X141264285Y-89800057D01*
X141264285Y-89800057D02*
X141311904Y-89895295D01*
X141311904Y-89895295D02*
X141359523Y-90085771D01*
X141359523Y-90085771D02*
X141359523Y-90323866D01*
X141359523Y-90323866D02*
X141311904Y-90514342D01*
X141311904Y-90514342D02*
X141264285Y-90609580D01*
X141264285Y-90609580D02*
X141216666Y-90657200D01*
X141216666Y-90657200D02*
X141121428Y-90704819D01*
X141121428Y-90704819D02*
X141026190Y-90704819D01*
X141026190Y-90704819D02*
X140930952Y-90657200D01*
X140930952Y-90657200D02*
X140883333Y-90609580D01*
X140883333Y-90609580D02*
X140835714Y-90514342D01*
X140835714Y-90514342D02*
X140788095Y-90323866D01*
X140788095Y-90323866D02*
X140788095Y-90085771D01*
X140788095Y-90085771D02*
X140835714Y-89895295D01*
X140835714Y-89895295D02*
X140883333Y-89800057D01*
X140883333Y-89800057D02*
X140930952Y-89752438D01*
X140930952Y-89752438D02*
X141026190Y-89704819D01*
X141978571Y-89704819D02*
X142073809Y-89704819D01*
X142073809Y-89704819D02*
X142169047Y-89752438D01*
X142169047Y-89752438D02*
X142216666Y-89800057D01*
X142216666Y-89800057D02*
X142264285Y-89895295D01*
X142264285Y-89895295D02*
X142311904Y-90085771D01*
X142311904Y-90085771D02*
X142311904Y-90323866D01*
X142311904Y-90323866D02*
X142264285Y-90514342D01*
X142264285Y-90514342D02*
X142216666Y-90609580D01*
X142216666Y-90609580D02*
X142169047Y-90657200D01*
X142169047Y-90657200D02*
X142073809Y-90704819D01*
X142073809Y-90704819D02*
X141978571Y-90704819D01*
X141978571Y-90704819D02*
X141883333Y-90657200D01*
X141883333Y-90657200D02*
X141835714Y-90609580D01*
X141835714Y-90609580D02*
X141788095Y-90514342D01*
X141788095Y-90514342D02*
X141740476Y-90323866D01*
X141740476Y-90323866D02*
X141740476Y-90085771D01*
X141740476Y-90085771D02*
X141788095Y-89895295D01*
X141788095Y-89895295D02*
X141835714Y-89800057D01*
X141835714Y-89800057D02*
X141883333Y-89752438D01*
X141883333Y-89752438D02*
X141978571Y-89704819D01*
X142930952Y-89704819D02*
X143026190Y-89704819D01*
X143026190Y-89704819D02*
X143121428Y-89752438D01*
X143121428Y-89752438D02*
X143169047Y-89800057D01*
X143169047Y-89800057D02*
X143216666Y-89895295D01*
X143216666Y-89895295D02*
X143264285Y-90085771D01*
X143264285Y-90085771D02*
X143264285Y-90323866D01*
X143264285Y-90323866D02*
X143216666Y-90514342D01*
X143216666Y-90514342D02*
X143169047Y-90609580D01*
X143169047Y-90609580D02*
X143121428Y-90657200D01*
X143121428Y-90657200D02*
X143026190Y-90704819D01*
X143026190Y-90704819D02*
X142930952Y-90704819D01*
X142930952Y-90704819D02*
X142835714Y-90657200D01*
X142835714Y-90657200D02*
X142788095Y-90609580D01*
X142788095Y-90609580D02*
X142740476Y-90514342D01*
X142740476Y-90514342D02*
X142692857Y-90323866D01*
X142692857Y-90323866D02*
X142692857Y-90085771D01*
X142692857Y-90085771D02*
X142740476Y-89895295D01*
X142740476Y-89895295D02*
X142788095Y-89800057D01*
X142788095Y-89800057D02*
X142835714Y-89752438D01*
X142835714Y-89752438D02*
X142930952Y-89704819D01*
D12*
X141389285Y-88743574D02*
X141305952Y-88624527D01*
X141246428Y-88743574D02*
X141246428Y-88493574D01*
X141246428Y-88493574D02*
X141341666Y-88493574D01*
X141341666Y-88493574D02*
X141365476Y-88505479D01*
X141365476Y-88505479D02*
X141377381Y-88517384D01*
X141377381Y-88517384D02*
X141389285Y-88541193D01*
X141389285Y-88541193D02*
X141389285Y-88576908D01*
X141389285Y-88576908D02*
X141377381Y-88600717D01*
X141377381Y-88600717D02*
X141365476Y-88612622D01*
X141365476Y-88612622D02*
X141341666Y-88624527D01*
X141341666Y-88624527D02*
X141246428Y-88624527D01*
X141627381Y-88743574D02*
X141484524Y-88743574D01*
X141555952Y-88743574D02*
X141555952Y-88493574D01*
X141555952Y-88493574D02*
X141532143Y-88529289D01*
X141532143Y-88529289D02*
X141508333Y-88553098D01*
X141508333Y-88553098D02*
X141484524Y-88565003D01*
X141865476Y-88743574D02*
X141722619Y-88743574D01*
X141794047Y-88743574D02*
X141794047Y-88493574D01*
X141794047Y-88493574D02*
X141770238Y-88529289D01*
X141770238Y-88529289D02*
X141746428Y-88553098D01*
X141746428Y-88553098D02*
X141722619Y-88565003D01*
D10*
X143238095Y-88704819D02*
X143047619Y-88704819D01*
X143047619Y-88704819D02*
X142952381Y-88752438D01*
X142952381Y-88752438D02*
X142904762Y-88800057D01*
X142904762Y-88800057D02*
X142809524Y-88942914D01*
X142809524Y-88942914D02*
X142761905Y-89133390D01*
X142761905Y-89133390D02*
X142761905Y-89514342D01*
X142761905Y-89514342D02*
X142809524Y-89609580D01*
X142809524Y-89609580D02*
X142857143Y-89657200D01*
X142857143Y-89657200D02*
X142952381Y-89704819D01*
X142952381Y-89704819D02*
X143142857Y-89704819D01*
X143142857Y-89704819D02*
X143238095Y-89657200D01*
X143238095Y-89657200D02*
X143285714Y-89609580D01*
X143285714Y-89609580D02*
X143333333Y-89514342D01*
X143333333Y-89514342D02*
X143333333Y-89276247D01*
X143333333Y-89276247D02*
X143285714Y-89181009D01*
X143285714Y-89181009D02*
X143238095Y-89133390D01*
X143238095Y-89133390D02*
X143142857Y-89085771D01*
X143142857Y-89085771D02*
X142952381Y-89085771D01*
X142952381Y-89085771D02*
X142857143Y-89133390D01*
X142857143Y-89133390D02*
X142809524Y-89181009D01*
X142809524Y-89181009D02*
X142761905Y-89276247D01*
X143952381Y-88704819D02*
X144047619Y-88704819D01*
X144047619Y-88704819D02*
X144142857Y-88752438D01*
X144142857Y-88752438D02*
X144190476Y-88800057D01*
X144190476Y-88800057D02*
X144238095Y-88895295D01*
X144238095Y-88895295D02*
X144285714Y-89085771D01*
X144285714Y-89085771D02*
X144285714Y-89323866D01*
X144285714Y-89323866D02*
X144238095Y-89514342D01*
X144238095Y-89514342D02*
X144190476Y-89609580D01*
X144190476Y-89609580D02*
X144142857Y-89657200D01*
X144142857Y-89657200D02*
X144047619Y-89704819D01*
X144047619Y-89704819D02*
X143952381Y-89704819D01*
X143952381Y-89704819D02*
X143857143Y-89657200D01*
X143857143Y-89657200D02*
X143809524Y-89609580D01*
X143809524Y-89609580D02*
X143761905Y-89514342D01*
X143761905Y-89514342D02*
X143714286Y-89323866D01*
X143714286Y-89323866D02*
X143714286Y-89085771D01*
X143714286Y-89085771D02*
X143761905Y-88895295D01*
X143761905Y-88895295D02*
X143809524Y-88800057D01*
X143809524Y-88800057D02*
X143857143Y-88752438D01*
X143857143Y-88752438D02*
X143952381Y-88704819D01*
X144904762Y-88704819D02*
X145000000Y-88704819D01*
X145000000Y-88704819D02*
X145095238Y-88752438D01*
X145095238Y-88752438D02*
X145142857Y-88800057D01*
X145142857Y-88800057D02*
X145190476Y-88895295D01*
X145190476Y-88895295D02*
X145238095Y-89085771D01*
X145238095Y-89085771D02*
X145238095Y-89323866D01*
X145238095Y-89323866D02*
X145190476Y-89514342D01*
X145190476Y-89514342D02*
X145142857Y-89609580D01*
X145142857Y-89609580D02*
X145095238Y-89657200D01*
X145095238Y-89657200D02*
X145000000Y-89704819D01*
X145000000Y-89704819D02*
X144904762Y-89704819D01*
X144904762Y-89704819D02*
X144809524Y-89657200D01*
X144809524Y-89657200D02*
X144761905Y-89609580D01*
X144761905Y-89609580D02*
X144714286Y-89514342D01*
X144714286Y-89514342D02*
X144666667Y-89323866D01*
X144666667Y-89323866D02*
X144666667Y-89085771D01*
X144666667Y-89085771D02*
X144714286Y-88895295D01*
X144714286Y-88895295D02*
X144761905Y-88800057D01*
X144761905Y-88800057D02*
X144809524Y-88752438D01*
X144809524Y-88752438D02*
X144904762Y-88704819D01*
D12*
X143958333Y-87743574D02*
X143875000Y-87624527D01*
X143815476Y-87743574D02*
X143815476Y-87493574D01*
X143815476Y-87493574D02*
X143910714Y-87493574D01*
X143910714Y-87493574D02*
X143934524Y-87505479D01*
X143934524Y-87505479D02*
X143946429Y-87517384D01*
X143946429Y-87517384D02*
X143958333Y-87541193D01*
X143958333Y-87541193D02*
X143958333Y-87576908D01*
X143958333Y-87576908D02*
X143946429Y-87600717D01*
X143946429Y-87600717D02*
X143934524Y-87612622D01*
X143934524Y-87612622D02*
X143910714Y-87624527D01*
X143910714Y-87624527D02*
X143815476Y-87624527D01*
X144172619Y-87576908D02*
X144172619Y-87743574D01*
X144113095Y-87481670D02*
X144053572Y-87660241D01*
X144053572Y-87660241D02*
X144208333Y-87660241D01*
D10*
X143364819Y-93883333D02*
X143364819Y-93788095D01*
X143364819Y-93788095D02*
X143412438Y-93692857D01*
X143412438Y-93692857D02*
X143460057Y-93645238D01*
X143460057Y-93645238D02*
X143555295Y-93597619D01*
X143555295Y-93597619D02*
X143745771Y-93550000D01*
X143745771Y-93550000D02*
X143983866Y-93550000D01*
X143983866Y-93550000D02*
X144174342Y-93597619D01*
X144174342Y-93597619D02*
X144269580Y-93645238D01*
X144269580Y-93645238D02*
X144317200Y-93692857D01*
X144317200Y-93692857D02*
X144364819Y-93788095D01*
X144364819Y-93788095D02*
X144364819Y-93883333D01*
X144364819Y-93883333D02*
X144317200Y-93978571D01*
X144317200Y-93978571D02*
X144269580Y-94026190D01*
X144269580Y-94026190D02*
X144174342Y-94073809D01*
X144174342Y-94073809D02*
X143983866Y-94121428D01*
X143983866Y-94121428D02*
X143745771Y-94121428D01*
X143745771Y-94121428D02*
X143555295Y-94073809D01*
X143555295Y-94073809D02*
X143460057Y-94026190D01*
X143460057Y-94026190D02*
X143412438Y-93978571D01*
X143412438Y-93978571D02*
X143364819Y-93883333D01*
X144269580Y-93121428D02*
X144317200Y-93073809D01*
X144317200Y-93073809D02*
X144364819Y-93121428D01*
X144364819Y-93121428D02*
X144317200Y-93169047D01*
X144317200Y-93169047D02*
X144269580Y-93121428D01*
X144269580Y-93121428D02*
X144364819Y-93121428D01*
X144364819Y-92121429D02*
X144364819Y-92692857D01*
X144364819Y-92407143D02*
X143364819Y-92407143D01*
X143364819Y-92407143D02*
X143507676Y-92502381D01*
X143507676Y-92502381D02*
X143602914Y-92597619D01*
X143602914Y-92597619D02*
X143650533Y-92692857D01*
X143698152Y-90502381D02*
X144364819Y-90502381D01*
X143698152Y-90930952D02*
X144221961Y-90930952D01*
X144221961Y-90930952D02*
X144317200Y-90883333D01*
X144317200Y-90883333D02*
X144364819Y-90788095D01*
X144364819Y-90788095D02*
X144364819Y-90645238D01*
X144364819Y-90645238D02*
X144317200Y-90550000D01*
X144317200Y-90550000D02*
X144269580Y-90502381D01*
X143698152Y-90169047D02*
X143698152Y-89788095D01*
X144364819Y-90026190D02*
X143507676Y-90026190D01*
X143507676Y-90026190D02*
X143412438Y-89978571D01*
X143412438Y-89978571D02*
X143364819Y-89883333D01*
X143364819Y-89883333D02*
X143364819Y-89788095D01*
X143364819Y-88264285D02*
X143364819Y-88454761D01*
X143364819Y-88454761D02*
X143412438Y-88549999D01*
X143412438Y-88549999D02*
X143460057Y-88597618D01*
X143460057Y-88597618D02*
X143602914Y-88692856D01*
X143602914Y-88692856D02*
X143793390Y-88740475D01*
X143793390Y-88740475D02*
X144174342Y-88740475D01*
X144174342Y-88740475D02*
X144269580Y-88692856D01*
X144269580Y-88692856D02*
X144317200Y-88645237D01*
X144317200Y-88645237D02*
X144364819Y-88549999D01*
X144364819Y-88549999D02*
X144364819Y-88359523D01*
X144364819Y-88359523D02*
X144317200Y-88264285D01*
X144317200Y-88264285D02*
X144269580Y-88216666D01*
X144269580Y-88216666D02*
X144174342Y-88169047D01*
X144174342Y-88169047D02*
X143936247Y-88169047D01*
X143936247Y-88169047D02*
X143841009Y-88216666D01*
X143841009Y-88216666D02*
X143793390Y-88264285D01*
X143793390Y-88264285D02*
X143745771Y-88359523D01*
X143745771Y-88359523D02*
X143745771Y-88549999D01*
X143745771Y-88549999D02*
X143793390Y-88645237D01*
X143793390Y-88645237D02*
X143841009Y-88692856D01*
X143841009Y-88692856D02*
X143936247Y-88740475D01*
X144269580Y-87740475D02*
X144317200Y-87692856D01*
X144317200Y-87692856D02*
X144364819Y-87740475D01*
X144364819Y-87740475D02*
X144317200Y-87788094D01*
X144317200Y-87788094D02*
X144269580Y-87740475D01*
X144269580Y-87740475D02*
X144364819Y-87740475D01*
X143364819Y-87359523D02*
X143364819Y-86740476D01*
X143364819Y-86740476D02*
X143745771Y-87073809D01*
X143745771Y-87073809D02*
X143745771Y-86930952D01*
X143745771Y-86930952D02*
X143793390Y-86835714D01*
X143793390Y-86835714D02*
X143841009Y-86788095D01*
X143841009Y-86788095D02*
X143936247Y-86740476D01*
X143936247Y-86740476D02*
X144174342Y-86740476D01*
X144174342Y-86740476D02*
X144269580Y-86788095D01*
X144269580Y-86788095D02*
X144317200Y-86835714D01*
X144317200Y-86835714D02*
X144364819Y-86930952D01*
X144364819Y-86930952D02*
X144364819Y-87216666D01*
X144364819Y-87216666D02*
X144317200Y-87311904D01*
X144317200Y-87311904D02*
X144269580Y-87359523D01*
X143698152Y-86407142D02*
X144364819Y-86169047D01*
X144364819Y-86169047D02*
X143698152Y-85930952D01*
D12*
X142839765Y-90210714D02*
X142851670Y-90222618D01*
X142851670Y-90222618D02*
X142863574Y-90258333D01*
X142863574Y-90258333D02*
X142863574Y-90282142D01*
X142863574Y-90282142D02*
X142851670Y-90317856D01*
X142851670Y-90317856D02*
X142827860Y-90341666D01*
X142827860Y-90341666D02*
X142804050Y-90353571D01*
X142804050Y-90353571D02*
X142756431Y-90365475D01*
X142756431Y-90365475D02*
X142720717Y-90365475D01*
X142720717Y-90365475D02*
X142673098Y-90353571D01*
X142673098Y-90353571D02*
X142649289Y-90341666D01*
X142649289Y-90341666D02*
X142625479Y-90317856D01*
X142625479Y-90317856D02*
X142613574Y-90282142D01*
X142613574Y-90282142D02*
X142613574Y-90258333D01*
X142613574Y-90258333D02*
X142625479Y-90222618D01*
X142625479Y-90222618D02*
X142637384Y-90210714D01*
X142863574Y-89972618D02*
X142863574Y-90115475D01*
X142863574Y-90044047D02*
X142613574Y-90044047D01*
X142613574Y-90044047D02*
X142649289Y-90067856D01*
X142649289Y-90067856D02*
X142673098Y-90091666D01*
X142673098Y-90091666D02*
X142685003Y-90115475D01*
X142720717Y-89829761D02*
X142708812Y-89853571D01*
X142708812Y-89853571D02*
X142696908Y-89865476D01*
X142696908Y-89865476D02*
X142673098Y-89877380D01*
X142673098Y-89877380D02*
X142661193Y-89877380D01*
X142661193Y-89877380D02*
X142637384Y-89865476D01*
X142637384Y-89865476D02*
X142625479Y-89853571D01*
X142625479Y-89853571D02*
X142613574Y-89829761D01*
X142613574Y-89829761D02*
X142613574Y-89782142D01*
X142613574Y-89782142D02*
X142625479Y-89758333D01*
X142625479Y-89758333D02*
X142637384Y-89746428D01*
X142637384Y-89746428D02*
X142661193Y-89734523D01*
X142661193Y-89734523D02*
X142673098Y-89734523D01*
X142673098Y-89734523D02*
X142696908Y-89746428D01*
X142696908Y-89746428D02*
X142708812Y-89758333D01*
X142708812Y-89758333D02*
X142720717Y-89782142D01*
X142720717Y-89782142D02*
X142720717Y-89829761D01*
X142720717Y-89829761D02*
X142732622Y-89853571D01*
X142732622Y-89853571D02*
X142744527Y-89865476D01*
X142744527Y-89865476D02*
X142768336Y-89877380D01*
X142768336Y-89877380D02*
X142815955Y-89877380D01*
X142815955Y-89877380D02*
X142839765Y-89865476D01*
X142839765Y-89865476D02*
X142851670Y-89853571D01*
X142851670Y-89853571D02*
X142863574Y-89829761D01*
X142863574Y-89829761D02*
X142863574Y-89782142D01*
X142863574Y-89782142D02*
X142851670Y-89758333D01*
X142851670Y-89758333D02*
X142839765Y-89746428D01*
X142839765Y-89746428D02*
X142815955Y-89734523D01*
X142815955Y-89734523D02*
X142768336Y-89734523D01*
X142768336Y-89734523D02*
X142744527Y-89746428D01*
X142744527Y-89746428D02*
X142732622Y-89758333D01*
X142732622Y-89758333D02*
X142720717Y-89782142D01*
D10*
X129744819Y-88923809D02*
X129744819Y-88828571D01*
X129744819Y-88828571D02*
X129792438Y-88733333D01*
X129792438Y-88733333D02*
X129840057Y-88685714D01*
X129840057Y-88685714D02*
X129935295Y-88638095D01*
X129935295Y-88638095D02*
X130125771Y-88590476D01*
X130125771Y-88590476D02*
X130363866Y-88590476D01*
X130363866Y-88590476D02*
X130554342Y-88638095D01*
X130554342Y-88638095D02*
X130649580Y-88685714D01*
X130649580Y-88685714D02*
X130697200Y-88733333D01*
X130697200Y-88733333D02*
X130744819Y-88828571D01*
X130744819Y-88828571D02*
X130744819Y-88923809D01*
X130744819Y-88923809D02*
X130697200Y-89019047D01*
X130697200Y-89019047D02*
X130649580Y-89066666D01*
X130649580Y-89066666D02*
X130554342Y-89114285D01*
X130554342Y-89114285D02*
X130363866Y-89161904D01*
X130363866Y-89161904D02*
X130125771Y-89161904D01*
X130125771Y-89161904D02*
X129935295Y-89114285D01*
X129935295Y-89114285D02*
X129840057Y-89066666D01*
X129840057Y-89066666D02*
X129792438Y-89019047D01*
X129792438Y-89019047D02*
X129744819Y-88923809D01*
X130649580Y-88161904D02*
X130697200Y-88114285D01*
X130697200Y-88114285D02*
X130744819Y-88161904D01*
X130744819Y-88161904D02*
X130697200Y-88209523D01*
X130697200Y-88209523D02*
X130649580Y-88161904D01*
X130649580Y-88161904D02*
X130744819Y-88161904D01*
X130744819Y-87161905D02*
X130744819Y-87733333D01*
X130744819Y-87447619D02*
X129744819Y-87447619D01*
X129744819Y-87447619D02*
X129887676Y-87542857D01*
X129887676Y-87542857D02*
X129982914Y-87638095D01*
X129982914Y-87638095D02*
X130030533Y-87733333D01*
X130078152Y-85542857D02*
X130744819Y-85542857D01*
X130078152Y-85971428D02*
X130601961Y-85971428D01*
X130601961Y-85971428D02*
X130697200Y-85923809D01*
X130697200Y-85923809D02*
X130744819Y-85828571D01*
X130744819Y-85828571D02*
X130744819Y-85685714D01*
X130744819Y-85685714D02*
X130697200Y-85590476D01*
X130697200Y-85590476D02*
X130649580Y-85542857D01*
X130221009Y-84733333D02*
X130221009Y-85066666D01*
X130744819Y-85066666D02*
X129744819Y-85066666D01*
X129744819Y-85066666D02*
X129744819Y-84590476D01*
D12*
X131539765Y-87060714D02*
X131551670Y-87072618D01*
X131551670Y-87072618D02*
X131563574Y-87108333D01*
X131563574Y-87108333D02*
X131563574Y-87132142D01*
X131563574Y-87132142D02*
X131551670Y-87167856D01*
X131551670Y-87167856D02*
X131527860Y-87191666D01*
X131527860Y-87191666D02*
X131504050Y-87203571D01*
X131504050Y-87203571D02*
X131456431Y-87215475D01*
X131456431Y-87215475D02*
X131420717Y-87215475D01*
X131420717Y-87215475D02*
X131373098Y-87203571D01*
X131373098Y-87203571D02*
X131349289Y-87191666D01*
X131349289Y-87191666D02*
X131325479Y-87167856D01*
X131325479Y-87167856D02*
X131313574Y-87132142D01*
X131313574Y-87132142D02*
X131313574Y-87108333D01*
X131313574Y-87108333D02*
X131325479Y-87072618D01*
X131325479Y-87072618D02*
X131337384Y-87060714D01*
X131563574Y-86822618D02*
X131563574Y-86965475D01*
X131563574Y-86894047D02*
X131313574Y-86894047D01*
X131313574Y-86894047D02*
X131349289Y-86917856D01*
X131349289Y-86917856D02*
X131373098Y-86941666D01*
X131373098Y-86941666D02*
X131385003Y-86965475D01*
X131313574Y-86667857D02*
X131313574Y-86644047D01*
X131313574Y-86644047D02*
X131325479Y-86620238D01*
X131325479Y-86620238D02*
X131337384Y-86608333D01*
X131337384Y-86608333D02*
X131361193Y-86596428D01*
X131361193Y-86596428D02*
X131408812Y-86584523D01*
X131408812Y-86584523D02*
X131468336Y-86584523D01*
X131468336Y-86584523D02*
X131515955Y-86596428D01*
X131515955Y-86596428D02*
X131539765Y-86608333D01*
X131539765Y-86608333D02*
X131551670Y-86620238D01*
X131551670Y-86620238D02*
X131563574Y-86644047D01*
X131563574Y-86644047D02*
X131563574Y-86667857D01*
X131563574Y-86667857D02*
X131551670Y-86691666D01*
X131551670Y-86691666D02*
X131539765Y-86703571D01*
X131539765Y-86703571D02*
X131515955Y-86715476D01*
X131515955Y-86715476D02*
X131468336Y-86727380D01*
X131468336Y-86727380D02*
X131408812Y-86727380D01*
X131408812Y-86727380D02*
X131361193Y-86715476D01*
X131361193Y-86715476D02*
X131337384Y-86703571D01*
X131337384Y-86703571D02*
X131325479Y-86691666D01*
X131325479Y-86691666D02*
X131313574Y-86667857D01*
D10*
X142654819Y-87711904D02*
X142654819Y-87902380D01*
X142654819Y-87902380D02*
X142702438Y-87997618D01*
X142702438Y-87997618D02*
X142750057Y-88045237D01*
X142750057Y-88045237D02*
X142892914Y-88140475D01*
X142892914Y-88140475D02*
X143083390Y-88188094D01*
X143083390Y-88188094D02*
X143464342Y-88188094D01*
X143464342Y-88188094D02*
X143559580Y-88140475D01*
X143559580Y-88140475D02*
X143607200Y-88092856D01*
X143607200Y-88092856D02*
X143654819Y-87997618D01*
X143654819Y-87997618D02*
X143654819Y-87807142D01*
X143654819Y-87807142D02*
X143607200Y-87711904D01*
X143607200Y-87711904D02*
X143559580Y-87664285D01*
X143559580Y-87664285D02*
X143464342Y-87616666D01*
X143464342Y-87616666D02*
X143226247Y-87616666D01*
X143226247Y-87616666D02*
X143131009Y-87664285D01*
X143131009Y-87664285D02*
X143083390Y-87711904D01*
X143083390Y-87711904D02*
X143035771Y-87807142D01*
X143035771Y-87807142D02*
X143035771Y-87997618D01*
X143035771Y-87997618D02*
X143083390Y-88092856D01*
X143083390Y-88092856D02*
X143131009Y-88140475D01*
X143131009Y-88140475D02*
X143226247Y-88188094D01*
X142654819Y-86997618D02*
X142654819Y-86902380D01*
X142654819Y-86902380D02*
X142702438Y-86807142D01*
X142702438Y-86807142D02*
X142750057Y-86759523D01*
X142750057Y-86759523D02*
X142845295Y-86711904D01*
X142845295Y-86711904D02*
X143035771Y-86664285D01*
X143035771Y-86664285D02*
X143273866Y-86664285D01*
X143273866Y-86664285D02*
X143464342Y-86711904D01*
X143464342Y-86711904D02*
X143559580Y-86759523D01*
X143559580Y-86759523D02*
X143607200Y-86807142D01*
X143607200Y-86807142D02*
X143654819Y-86902380D01*
X143654819Y-86902380D02*
X143654819Y-86997618D01*
X143654819Y-86997618D02*
X143607200Y-87092856D01*
X143607200Y-87092856D02*
X143559580Y-87140475D01*
X143559580Y-87140475D02*
X143464342Y-87188094D01*
X143464342Y-87188094D02*
X143273866Y-87235713D01*
X143273866Y-87235713D02*
X143035771Y-87235713D01*
X143035771Y-87235713D02*
X142845295Y-87188094D01*
X142845295Y-87188094D02*
X142750057Y-87140475D01*
X142750057Y-87140475D02*
X142702438Y-87092856D01*
X142702438Y-87092856D02*
X142654819Y-86997618D01*
X142654819Y-86045237D02*
X142654819Y-85949999D01*
X142654819Y-85949999D02*
X142702438Y-85854761D01*
X142702438Y-85854761D02*
X142750057Y-85807142D01*
X142750057Y-85807142D02*
X142845295Y-85759523D01*
X142845295Y-85759523D02*
X143035771Y-85711904D01*
X143035771Y-85711904D02*
X143273866Y-85711904D01*
X143273866Y-85711904D02*
X143464342Y-85759523D01*
X143464342Y-85759523D02*
X143559580Y-85807142D01*
X143559580Y-85807142D02*
X143607200Y-85854761D01*
X143607200Y-85854761D02*
X143654819Y-85949999D01*
X143654819Y-85949999D02*
X143654819Y-86045237D01*
X143654819Y-86045237D02*
X143607200Y-86140475D01*
X143607200Y-86140475D02*
X143559580Y-86188094D01*
X143559580Y-86188094D02*
X143464342Y-86235713D01*
X143464342Y-86235713D02*
X143273866Y-86283332D01*
X143273866Y-86283332D02*
X143035771Y-86283332D01*
X143035771Y-86283332D02*
X142845295Y-86235713D01*
X142845295Y-86235713D02*
X142750057Y-86188094D01*
X142750057Y-86188094D02*
X142702438Y-86140475D01*
X142702438Y-86140475D02*
X142654819Y-86045237D01*
D12*
X141693574Y-86991666D02*
X141574527Y-87074999D01*
X141693574Y-87134523D02*
X141443574Y-87134523D01*
X141443574Y-87134523D02*
X141443574Y-87039285D01*
X141443574Y-87039285D02*
X141455479Y-87015475D01*
X141455479Y-87015475D02*
X141467384Y-87003570D01*
X141467384Y-87003570D02*
X141491193Y-86991666D01*
X141491193Y-86991666D02*
X141526908Y-86991666D01*
X141526908Y-86991666D02*
X141550717Y-87003570D01*
X141550717Y-87003570D02*
X141562622Y-87015475D01*
X141562622Y-87015475D02*
X141574527Y-87039285D01*
X141574527Y-87039285D02*
X141574527Y-87134523D01*
X141467384Y-86896427D02*
X141455479Y-86884523D01*
X141455479Y-86884523D02*
X141443574Y-86860713D01*
X141443574Y-86860713D02*
X141443574Y-86801189D01*
X141443574Y-86801189D02*
X141455479Y-86777380D01*
X141455479Y-86777380D02*
X141467384Y-86765475D01*
X141467384Y-86765475D02*
X141491193Y-86753570D01*
X141491193Y-86753570D02*
X141515003Y-86753570D01*
X141515003Y-86753570D02*
X141550717Y-86765475D01*
X141550717Y-86765475D02*
X141693574Y-86908332D01*
X141693574Y-86908332D02*
X141693574Y-86753570D01*
D10*
X133521366Y-88361904D02*
X133473747Y-88314285D01*
X133473747Y-88314285D02*
X133426128Y-88219047D01*
X133426128Y-88219047D02*
X133521366Y-88028571D01*
X133521366Y-88028571D02*
X133473747Y-87933333D01*
X133473747Y-87933333D02*
X133426128Y-87885714D01*
X140644819Y-84530952D02*
X140644819Y-84435714D01*
X140644819Y-84435714D02*
X140692438Y-84340476D01*
X140692438Y-84340476D02*
X140740057Y-84292857D01*
X140740057Y-84292857D02*
X140835295Y-84245238D01*
X140835295Y-84245238D02*
X141025771Y-84197619D01*
X141025771Y-84197619D02*
X141263866Y-84197619D01*
X141263866Y-84197619D02*
X141454342Y-84245238D01*
X141454342Y-84245238D02*
X141549580Y-84292857D01*
X141549580Y-84292857D02*
X141597200Y-84340476D01*
X141597200Y-84340476D02*
X141644819Y-84435714D01*
X141644819Y-84435714D02*
X141644819Y-84530952D01*
X141644819Y-84530952D02*
X141597200Y-84626190D01*
X141597200Y-84626190D02*
X141549580Y-84673809D01*
X141549580Y-84673809D02*
X141454342Y-84721428D01*
X141454342Y-84721428D02*
X141263866Y-84769047D01*
X141263866Y-84769047D02*
X141025771Y-84769047D01*
X141025771Y-84769047D02*
X140835295Y-84721428D01*
X140835295Y-84721428D02*
X140740057Y-84673809D01*
X140740057Y-84673809D02*
X140692438Y-84626190D01*
X140692438Y-84626190D02*
X140644819Y-84530952D01*
X141549580Y-83769047D02*
X141597200Y-83721428D01*
X141597200Y-83721428D02*
X141644819Y-83769047D01*
X141644819Y-83769047D02*
X141597200Y-83816666D01*
X141597200Y-83816666D02*
X141549580Y-83769047D01*
X141549580Y-83769047D02*
X141644819Y-83769047D01*
X141644819Y-82769048D02*
X141644819Y-83340476D01*
X141644819Y-83054762D02*
X140644819Y-83054762D01*
X140644819Y-83054762D02*
X140787676Y-83150000D01*
X140787676Y-83150000D02*
X140882914Y-83245238D01*
X140882914Y-83245238D02*
X140930533Y-83340476D01*
X140978152Y-81150000D02*
X141644819Y-81150000D01*
X140978152Y-81578571D02*
X141501961Y-81578571D01*
X141501961Y-81578571D02*
X141597200Y-81530952D01*
X141597200Y-81530952D02*
X141644819Y-81435714D01*
X141644819Y-81435714D02*
X141644819Y-81292857D01*
X141644819Y-81292857D02*
X141597200Y-81197619D01*
X141597200Y-81197619D02*
X141549580Y-81150000D01*
X140978152Y-80816666D02*
X140978152Y-80435714D01*
X141644819Y-80673809D02*
X140787676Y-80673809D01*
X140787676Y-80673809D02*
X140692438Y-80626190D01*
X140692438Y-80626190D02*
X140644819Y-80530952D01*
X140644819Y-80530952D02*
X140644819Y-80435714D01*
D12*
X142439765Y-82691666D02*
X142451670Y-82703570D01*
X142451670Y-82703570D02*
X142463574Y-82739285D01*
X142463574Y-82739285D02*
X142463574Y-82763094D01*
X142463574Y-82763094D02*
X142451670Y-82798808D01*
X142451670Y-82798808D02*
X142427860Y-82822618D01*
X142427860Y-82822618D02*
X142404050Y-82834523D01*
X142404050Y-82834523D02*
X142356431Y-82846427D01*
X142356431Y-82846427D02*
X142320717Y-82846427D01*
X142320717Y-82846427D02*
X142273098Y-82834523D01*
X142273098Y-82834523D02*
X142249289Y-82822618D01*
X142249289Y-82822618D02*
X142225479Y-82798808D01*
X142225479Y-82798808D02*
X142213574Y-82763094D01*
X142213574Y-82763094D02*
X142213574Y-82739285D01*
X142213574Y-82739285D02*
X142225479Y-82703570D01*
X142225479Y-82703570D02*
X142237384Y-82691666D01*
X142320717Y-82548808D02*
X142308812Y-82572618D01*
X142308812Y-82572618D02*
X142296908Y-82584523D01*
X142296908Y-82584523D02*
X142273098Y-82596427D01*
X142273098Y-82596427D02*
X142261193Y-82596427D01*
X142261193Y-82596427D02*
X142237384Y-82584523D01*
X142237384Y-82584523D02*
X142225479Y-82572618D01*
X142225479Y-82572618D02*
X142213574Y-82548808D01*
X142213574Y-82548808D02*
X142213574Y-82501189D01*
X142213574Y-82501189D02*
X142225479Y-82477380D01*
X142225479Y-82477380D02*
X142237384Y-82465475D01*
X142237384Y-82465475D02*
X142261193Y-82453570D01*
X142261193Y-82453570D02*
X142273098Y-82453570D01*
X142273098Y-82453570D02*
X142296908Y-82465475D01*
X142296908Y-82465475D02*
X142308812Y-82477380D01*
X142308812Y-82477380D02*
X142320717Y-82501189D01*
X142320717Y-82501189D02*
X142320717Y-82548808D01*
X142320717Y-82548808D02*
X142332622Y-82572618D01*
X142332622Y-82572618D02*
X142344527Y-82584523D01*
X142344527Y-82584523D02*
X142368336Y-82596427D01*
X142368336Y-82596427D02*
X142415955Y-82596427D01*
X142415955Y-82596427D02*
X142439765Y-82584523D01*
X142439765Y-82584523D02*
X142451670Y-82572618D01*
X142451670Y-82572618D02*
X142463574Y-82548808D01*
X142463574Y-82548808D02*
X142463574Y-82501189D01*
X142463574Y-82501189D02*
X142451670Y-82477380D01*
X142451670Y-82477380D02*
X142439765Y-82465475D01*
X142439765Y-82465475D02*
X142415955Y-82453570D01*
X142415955Y-82453570D02*
X142368336Y-82453570D01*
X142368336Y-82453570D02*
X142344527Y-82465475D01*
X142344527Y-82465475D02*
X142332622Y-82477380D01*
X142332622Y-82477380D02*
X142320717Y-82501189D01*
D10*
X122023809Y-83204819D02*
X122023809Y-82204819D01*
X122023809Y-82204819D02*
X122357142Y-82919104D01*
X122357142Y-82919104D02*
X122690475Y-82204819D01*
X122690475Y-82204819D02*
X122690475Y-83204819D01*
X123309523Y-83204819D02*
X123214285Y-83157200D01*
X123214285Y-83157200D02*
X123166666Y-83109580D01*
X123166666Y-83109580D02*
X123119047Y-83014342D01*
X123119047Y-83014342D02*
X123119047Y-82728628D01*
X123119047Y-82728628D02*
X123166666Y-82633390D01*
X123166666Y-82633390D02*
X123214285Y-82585771D01*
X123214285Y-82585771D02*
X123309523Y-82538152D01*
X123309523Y-82538152D02*
X123452380Y-82538152D01*
X123452380Y-82538152D02*
X123547618Y-82585771D01*
X123547618Y-82585771D02*
X123595237Y-82633390D01*
X123595237Y-82633390D02*
X123642856Y-82728628D01*
X123642856Y-82728628D02*
X123642856Y-83014342D01*
X123642856Y-83014342D02*
X123595237Y-83109580D01*
X123595237Y-83109580D02*
X123547618Y-83157200D01*
X123547618Y-83157200D02*
X123452380Y-83204819D01*
X123452380Y-83204819D02*
X123309523Y-83204819D01*
X124499999Y-82538152D02*
X124499999Y-83204819D01*
X124071428Y-82538152D02*
X124071428Y-83061961D01*
X124071428Y-83061961D02*
X124119047Y-83157200D01*
X124119047Y-83157200D02*
X124214285Y-83204819D01*
X124214285Y-83204819D02*
X124357142Y-83204819D01*
X124357142Y-83204819D02*
X124452380Y-83157200D01*
X124452380Y-83157200D02*
X124499999Y-83109580D01*
X124976190Y-82538152D02*
X124976190Y-83204819D01*
X124976190Y-82633390D02*
X125023809Y-82585771D01*
X125023809Y-82585771D02*
X125119047Y-82538152D01*
X125119047Y-82538152D02*
X125261904Y-82538152D01*
X125261904Y-82538152D02*
X125357142Y-82585771D01*
X125357142Y-82585771D02*
X125404761Y-82681009D01*
X125404761Y-82681009D02*
X125404761Y-83204819D01*
X125738095Y-82538152D02*
X126119047Y-82538152D01*
X125880952Y-82204819D02*
X125880952Y-83061961D01*
X125880952Y-83061961D02*
X125928571Y-83157200D01*
X125928571Y-83157200D02*
X126023809Y-83204819D01*
X126023809Y-83204819D02*
X126119047Y-83204819D01*
X126452381Y-83204819D02*
X126452381Y-82538152D01*
X126452381Y-82204819D02*
X126404762Y-82252438D01*
X126404762Y-82252438D02*
X126452381Y-82300057D01*
X126452381Y-82300057D02*
X126500000Y-82252438D01*
X126500000Y-82252438D02*
X126452381Y-82204819D01*
X126452381Y-82204819D02*
X126452381Y-82300057D01*
X126928571Y-82538152D02*
X126928571Y-83204819D01*
X126928571Y-82633390D02*
X126976190Y-82585771D01*
X126976190Y-82585771D02*
X127071428Y-82538152D01*
X127071428Y-82538152D02*
X127214285Y-82538152D01*
X127214285Y-82538152D02*
X127309523Y-82585771D01*
X127309523Y-82585771D02*
X127357142Y-82681009D01*
X127357142Y-82681009D02*
X127357142Y-83204819D01*
X128261904Y-82538152D02*
X128261904Y-83347676D01*
X128261904Y-83347676D02*
X128214285Y-83442914D01*
X128214285Y-83442914D02*
X128166666Y-83490533D01*
X128166666Y-83490533D02*
X128071428Y-83538152D01*
X128071428Y-83538152D02*
X127928571Y-83538152D01*
X127928571Y-83538152D02*
X127833333Y-83490533D01*
X128261904Y-83157200D02*
X128166666Y-83204819D01*
X128166666Y-83204819D02*
X127976190Y-83204819D01*
X127976190Y-83204819D02*
X127880952Y-83157200D01*
X127880952Y-83157200D02*
X127833333Y-83109580D01*
X127833333Y-83109580D02*
X127785714Y-83014342D01*
X127785714Y-83014342D02*
X127785714Y-82728628D01*
X127785714Y-82728628D02*
X127833333Y-82633390D01*
X127833333Y-82633390D02*
X127880952Y-82585771D01*
X127880952Y-82585771D02*
X127976190Y-82538152D01*
X127976190Y-82538152D02*
X128166666Y-82538152D01*
X128166666Y-82538152D02*
X128261904Y-82585771D01*
X128738095Y-83204819D02*
X128738095Y-82204819D01*
X128738095Y-82681009D02*
X129309523Y-82681009D01*
X129309523Y-83204819D02*
X129309523Y-82204819D01*
X129928571Y-83204819D02*
X129833333Y-83157200D01*
X129833333Y-83157200D02*
X129785714Y-83109580D01*
X129785714Y-83109580D02*
X129738095Y-83014342D01*
X129738095Y-83014342D02*
X129738095Y-82728628D01*
X129738095Y-82728628D02*
X129785714Y-82633390D01*
X129785714Y-82633390D02*
X129833333Y-82585771D01*
X129833333Y-82585771D02*
X129928571Y-82538152D01*
X129928571Y-82538152D02*
X130071428Y-82538152D01*
X130071428Y-82538152D02*
X130166666Y-82585771D01*
X130166666Y-82585771D02*
X130214285Y-82633390D01*
X130214285Y-82633390D02*
X130261904Y-82728628D01*
X130261904Y-82728628D02*
X130261904Y-83014342D01*
X130261904Y-83014342D02*
X130214285Y-83109580D01*
X130214285Y-83109580D02*
X130166666Y-83157200D01*
X130166666Y-83157200D02*
X130071428Y-83204819D01*
X130071428Y-83204819D02*
X129928571Y-83204819D01*
X130833333Y-83204819D02*
X130738095Y-83157200D01*
X130738095Y-83157200D02*
X130690476Y-83061961D01*
X130690476Y-83061961D02*
X130690476Y-82204819D01*
X131595238Y-83157200D02*
X131500000Y-83204819D01*
X131500000Y-83204819D02*
X131309524Y-83204819D01*
X131309524Y-83204819D02*
X131214286Y-83157200D01*
X131214286Y-83157200D02*
X131166667Y-83061961D01*
X131166667Y-83061961D02*
X131166667Y-82681009D01*
X131166667Y-82681009D02*
X131214286Y-82585771D01*
X131214286Y-82585771D02*
X131309524Y-82538152D01*
X131309524Y-82538152D02*
X131500000Y-82538152D01*
X131500000Y-82538152D02*
X131595238Y-82585771D01*
X131595238Y-82585771D02*
X131642857Y-82681009D01*
X131642857Y-82681009D02*
X131642857Y-82776247D01*
X131642857Y-82776247D02*
X131166667Y-82871485D01*
X131833334Y-83300057D02*
X132595238Y-83300057D01*
X132785715Y-82300057D02*
X132833334Y-82252438D01*
X132833334Y-82252438D02*
X132928572Y-82204819D01*
X132928572Y-82204819D02*
X133166667Y-82204819D01*
X133166667Y-82204819D02*
X133261905Y-82252438D01*
X133261905Y-82252438D02*
X133309524Y-82300057D01*
X133309524Y-82300057D02*
X133357143Y-82395295D01*
X133357143Y-82395295D02*
X133357143Y-82490533D01*
X133357143Y-82490533D02*
X133309524Y-82633390D01*
X133309524Y-82633390D02*
X132738096Y-83204819D01*
X132738096Y-83204819D02*
X133357143Y-83204819D01*
X133785715Y-83109580D02*
X133833334Y-83157200D01*
X133833334Y-83157200D02*
X133785715Y-83204819D01*
X133785715Y-83204819D02*
X133738096Y-83157200D01*
X133738096Y-83157200D02*
X133785715Y-83109580D01*
X133785715Y-83109580D02*
X133785715Y-83204819D01*
X134214286Y-82300057D02*
X134261905Y-82252438D01*
X134261905Y-82252438D02*
X134357143Y-82204819D01*
X134357143Y-82204819D02*
X134595238Y-82204819D01*
X134595238Y-82204819D02*
X134690476Y-82252438D01*
X134690476Y-82252438D02*
X134738095Y-82300057D01*
X134738095Y-82300057D02*
X134785714Y-82395295D01*
X134785714Y-82395295D02*
X134785714Y-82490533D01*
X134785714Y-82490533D02*
X134738095Y-82633390D01*
X134738095Y-82633390D02*
X134166667Y-83204819D01*
X134166667Y-83204819D02*
X134785714Y-83204819D01*
X135214286Y-83204819D02*
X135214286Y-82538152D01*
X135214286Y-82633390D02*
X135261905Y-82585771D01*
X135261905Y-82585771D02*
X135357143Y-82538152D01*
X135357143Y-82538152D02*
X135500000Y-82538152D01*
X135500000Y-82538152D02*
X135595238Y-82585771D01*
X135595238Y-82585771D02*
X135642857Y-82681009D01*
X135642857Y-82681009D02*
X135642857Y-83204819D01*
X135642857Y-82681009D02*
X135690476Y-82585771D01*
X135690476Y-82585771D02*
X135785714Y-82538152D01*
X135785714Y-82538152D02*
X135928571Y-82538152D01*
X135928571Y-82538152D02*
X136023810Y-82585771D01*
X136023810Y-82585771D02*
X136071429Y-82681009D01*
X136071429Y-82681009D02*
X136071429Y-83204819D01*
X136547619Y-83204819D02*
X136547619Y-82538152D01*
X136547619Y-82633390D02*
X136595238Y-82585771D01*
X136595238Y-82585771D02*
X136690476Y-82538152D01*
X136690476Y-82538152D02*
X136833333Y-82538152D01*
X136833333Y-82538152D02*
X136928571Y-82585771D01*
X136928571Y-82585771D02*
X136976190Y-82681009D01*
X136976190Y-82681009D02*
X136976190Y-83204819D01*
X136976190Y-82681009D02*
X137023809Y-82585771D01*
X137023809Y-82585771D02*
X137119047Y-82538152D01*
X137119047Y-82538152D02*
X137261904Y-82538152D01*
X137261904Y-82538152D02*
X137357143Y-82585771D01*
X137357143Y-82585771D02*
X137404762Y-82681009D01*
X137404762Y-82681009D02*
X137404762Y-83204819D01*
X137642857Y-83300057D02*
X138404761Y-83300057D01*
X138642857Y-83204819D02*
X138642857Y-82204819D01*
X138642857Y-82204819D02*
X138976190Y-82919104D01*
X138976190Y-82919104D02*
X139309523Y-82204819D01*
X139309523Y-82204819D02*
X139309523Y-83204819D01*
X139738095Y-82300057D02*
X139785714Y-82252438D01*
X139785714Y-82252438D02*
X139880952Y-82204819D01*
X139880952Y-82204819D02*
X140119047Y-82204819D01*
X140119047Y-82204819D02*
X140214285Y-82252438D01*
X140214285Y-82252438D02*
X140261904Y-82300057D01*
X140261904Y-82300057D02*
X140309523Y-82395295D01*
X140309523Y-82395295D02*
X140309523Y-82490533D01*
X140309523Y-82490533D02*
X140261904Y-82633390D01*
X140261904Y-82633390D02*
X139690476Y-83204819D01*
X139690476Y-83204819D02*
X140309523Y-83204819D01*
X140500000Y-83300057D02*
X141261904Y-83300057D01*
X141500000Y-83204819D02*
X141500000Y-82204819D01*
X141500000Y-82204819D02*
X141738095Y-82204819D01*
X141738095Y-82204819D02*
X141880952Y-82252438D01*
X141880952Y-82252438D02*
X141976190Y-82347676D01*
X141976190Y-82347676D02*
X142023809Y-82442914D01*
X142023809Y-82442914D02*
X142071428Y-82633390D01*
X142071428Y-82633390D02*
X142071428Y-82776247D01*
X142071428Y-82776247D02*
X142023809Y-82966723D01*
X142023809Y-82966723D02*
X141976190Y-83061961D01*
X141976190Y-83061961D02*
X141880952Y-83157200D01*
X141880952Y-83157200D02*
X141738095Y-83204819D01*
X141738095Y-83204819D02*
X141500000Y-83204819D01*
X142500000Y-83204819D02*
X142500000Y-82204819D01*
X142976190Y-83204819D02*
X142976190Y-82204819D01*
X142976190Y-82204819D02*
X143547618Y-83204819D01*
X143547618Y-83204819D02*
X143547618Y-82204819D01*
X144071428Y-83204819D02*
X144261904Y-83204819D01*
X144261904Y-83204819D02*
X144357142Y-83157200D01*
X144357142Y-83157200D02*
X144404761Y-83109580D01*
X144404761Y-83109580D02*
X144499999Y-82966723D01*
X144499999Y-82966723D02*
X144547618Y-82776247D01*
X144547618Y-82776247D02*
X144547618Y-82395295D01*
X144547618Y-82395295D02*
X144499999Y-82300057D01*
X144499999Y-82300057D02*
X144452380Y-82252438D01*
X144452380Y-82252438D02*
X144357142Y-82204819D01*
X144357142Y-82204819D02*
X144166666Y-82204819D01*
X144166666Y-82204819D02*
X144071428Y-82252438D01*
X144071428Y-82252438D02*
X144023809Y-82300057D01*
X144023809Y-82300057D02*
X143976190Y-82395295D01*
X143976190Y-82395295D02*
X143976190Y-82633390D01*
X143976190Y-82633390D02*
X144023809Y-82728628D01*
X144023809Y-82728628D02*
X144071428Y-82776247D01*
X144071428Y-82776247D02*
X144166666Y-82823866D01*
X144166666Y-82823866D02*
X144357142Y-82823866D01*
X144357142Y-82823866D02*
X144452380Y-82776247D01*
X144452380Y-82776247D02*
X144499999Y-82728628D01*
X144499999Y-82728628D02*
X144547618Y-82633390D01*
X145404761Y-82204819D02*
X145214285Y-82204819D01*
X145214285Y-82204819D02*
X145119047Y-82252438D01*
X145119047Y-82252438D02*
X145071428Y-82300057D01*
X145071428Y-82300057D02*
X144976190Y-82442914D01*
X144976190Y-82442914D02*
X144928571Y-82633390D01*
X144928571Y-82633390D02*
X144928571Y-83014342D01*
X144928571Y-83014342D02*
X144976190Y-83109580D01*
X144976190Y-83109580D02*
X145023809Y-83157200D01*
X145023809Y-83157200D02*
X145119047Y-83204819D01*
X145119047Y-83204819D02*
X145309523Y-83204819D01*
X145309523Y-83204819D02*
X145404761Y-83157200D01*
X145404761Y-83157200D02*
X145452380Y-83109580D01*
X145452380Y-83109580D02*
X145499999Y-83014342D01*
X145499999Y-83014342D02*
X145499999Y-82776247D01*
X145499999Y-82776247D02*
X145452380Y-82681009D01*
X145452380Y-82681009D02*
X145404761Y-82633390D01*
X145404761Y-82633390D02*
X145309523Y-82585771D01*
X145309523Y-82585771D02*
X145119047Y-82585771D01*
X145119047Y-82585771D02*
X145023809Y-82633390D01*
X145023809Y-82633390D02*
X144976190Y-82681009D01*
X144976190Y-82681009D02*
X144928571Y-82776247D01*
X146404761Y-82204819D02*
X145928571Y-82204819D01*
X145928571Y-82204819D02*
X145880952Y-82681009D01*
X145880952Y-82681009D02*
X145928571Y-82633390D01*
X145928571Y-82633390D02*
X146023809Y-82585771D01*
X146023809Y-82585771D02*
X146261904Y-82585771D01*
X146261904Y-82585771D02*
X146357142Y-82633390D01*
X146357142Y-82633390D02*
X146404761Y-82681009D01*
X146404761Y-82681009D02*
X146452380Y-82776247D01*
X146452380Y-82776247D02*
X146452380Y-83014342D01*
X146452380Y-83014342D02*
X146404761Y-83109580D01*
X146404761Y-83109580D02*
X146357142Y-83157200D01*
X146357142Y-83157200D02*
X146261904Y-83204819D01*
X146261904Y-83204819D02*
X146023809Y-83204819D01*
X146023809Y-83204819D02*
X145928571Y-83157200D01*
X145928571Y-83157200D02*
X145880952Y-83109580D01*
X146642857Y-83300057D02*
X147404761Y-83300057D01*
X147642857Y-83204819D02*
X147642857Y-82204819D01*
X147642857Y-82204819D02*
X148023809Y-82204819D01*
X148023809Y-82204819D02*
X148119047Y-82252438D01*
X148119047Y-82252438D02*
X148166666Y-82300057D01*
X148166666Y-82300057D02*
X148214285Y-82395295D01*
X148214285Y-82395295D02*
X148214285Y-82538152D01*
X148214285Y-82538152D02*
X148166666Y-82633390D01*
X148166666Y-82633390D02*
X148119047Y-82681009D01*
X148119047Y-82681009D02*
X148023809Y-82728628D01*
X148023809Y-82728628D02*
X147642857Y-82728628D01*
X149071428Y-83204819D02*
X149071428Y-82681009D01*
X149071428Y-82681009D02*
X149023809Y-82585771D01*
X149023809Y-82585771D02*
X148928571Y-82538152D01*
X148928571Y-82538152D02*
X148738095Y-82538152D01*
X148738095Y-82538152D02*
X148642857Y-82585771D01*
X149071428Y-83157200D02*
X148976190Y-83204819D01*
X148976190Y-83204819D02*
X148738095Y-83204819D01*
X148738095Y-83204819D02*
X148642857Y-83157200D01*
X148642857Y-83157200D02*
X148595238Y-83061961D01*
X148595238Y-83061961D02*
X148595238Y-82966723D01*
X148595238Y-82966723D02*
X148642857Y-82871485D01*
X148642857Y-82871485D02*
X148738095Y-82823866D01*
X148738095Y-82823866D02*
X148976190Y-82823866D01*
X148976190Y-82823866D02*
X149071428Y-82776247D01*
X149976190Y-83204819D02*
X149976190Y-82204819D01*
X149976190Y-83157200D02*
X149880952Y-83204819D01*
X149880952Y-83204819D02*
X149690476Y-83204819D01*
X149690476Y-83204819D02*
X149595238Y-83157200D01*
X149595238Y-83157200D02*
X149547619Y-83109580D01*
X149547619Y-83109580D02*
X149500000Y-83014342D01*
X149500000Y-83014342D02*
X149500000Y-82728628D01*
X149500000Y-82728628D02*
X149547619Y-82633390D01*
X149547619Y-82633390D02*
X149595238Y-82585771D01*
X149595238Y-82585771D02*
X149690476Y-82538152D01*
X149690476Y-82538152D02*
X149880952Y-82538152D01*
X149880952Y-82538152D02*
X149976190Y-82585771D01*
D14*
X135230952Y-80332208D02*
X135230952Y-79382208D01*
X135230952Y-79382208D02*
X135547619Y-80060779D01*
X135547619Y-80060779D02*
X135864285Y-79382208D01*
X135864285Y-79382208D02*
X135864285Y-80332208D01*
X136271428Y-79472684D02*
X136316666Y-79427446D01*
X136316666Y-79427446D02*
X136407142Y-79382208D01*
X136407142Y-79382208D02*
X136633333Y-79382208D01*
X136633333Y-79382208D02*
X136723809Y-79427446D01*
X136723809Y-79427446D02*
X136769047Y-79472684D01*
X136769047Y-79472684D02*
X136814285Y-79563160D01*
X136814285Y-79563160D02*
X136814285Y-79653636D01*
X136814285Y-79653636D02*
X136769047Y-79789350D01*
X136769047Y-79789350D02*
X136226190Y-80332208D01*
X136226190Y-80332208D02*
X136814285Y-80332208D01*
D10*
X134873809Y-99604819D02*
X134873809Y-98604819D01*
X134873809Y-98604819D02*
X135207142Y-99319104D01*
X135207142Y-99319104D02*
X135540475Y-98604819D01*
X135540475Y-98604819D02*
X135540475Y-99604819D01*
X136159523Y-99604819D02*
X136064285Y-99557200D01*
X136064285Y-99557200D02*
X136016666Y-99509580D01*
X136016666Y-99509580D02*
X135969047Y-99414342D01*
X135969047Y-99414342D02*
X135969047Y-99128628D01*
X135969047Y-99128628D02*
X136016666Y-99033390D01*
X136016666Y-99033390D02*
X136064285Y-98985771D01*
X136064285Y-98985771D02*
X136159523Y-98938152D01*
X136159523Y-98938152D02*
X136302380Y-98938152D01*
X136302380Y-98938152D02*
X136397618Y-98985771D01*
X136397618Y-98985771D02*
X136445237Y-99033390D01*
X136445237Y-99033390D02*
X136492856Y-99128628D01*
X136492856Y-99128628D02*
X136492856Y-99414342D01*
X136492856Y-99414342D02*
X136445237Y-99509580D01*
X136445237Y-99509580D02*
X136397618Y-99557200D01*
X136397618Y-99557200D02*
X136302380Y-99604819D01*
X136302380Y-99604819D02*
X136159523Y-99604819D01*
X137349999Y-98938152D02*
X137349999Y-99604819D01*
X136921428Y-98938152D02*
X136921428Y-99461961D01*
X136921428Y-99461961D02*
X136969047Y-99557200D01*
X136969047Y-99557200D02*
X137064285Y-99604819D01*
X137064285Y-99604819D02*
X137207142Y-99604819D01*
X137207142Y-99604819D02*
X137302380Y-99557200D01*
X137302380Y-99557200D02*
X137349999Y-99509580D01*
X137826190Y-98938152D02*
X137826190Y-99604819D01*
X137826190Y-99033390D02*
X137873809Y-98985771D01*
X137873809Y-98985771D02*
X137969047Y-98938152D01*
X137969047Y-98938152D02*
X138111904Y-98938152D01*
X138111904Y-98938152D02*
X138207142Y-98985771D01*
X138207142Y-98985771D02*
X138254761Y-99081009D01*
X138254761Y-99081009D02*
X138254761Y-99604819D01*
X138588095Y-98938152D02*
X138969047Y-98938152D01*
X138730952Y-98604819D02*
X138730952Y-99461961D01*
X138730952Y-99461961D02*
X138778571Y-99557200D01*
X138778571Y-99557200D02*
X138873809Y-99604819D01*
X138873809Y-99604819D02*
X138969047Y-99604819D01*
X139302381Y-99604819D02*
X139302381Y-98938152D01*
X139302381Y-98604819D02*
X139254762Y-98652438D01*
X139254762Y-98652438D02*
X139302381Y-98700057D01*
X139302381Y-98700057D02*
X139350000Y-98652438D01*
X139350000Y-98652438D02*
X139302381Y-98604819D01*
X139302381Y-98604819D02*
X139302381Y-98700057D01*
X139778571Y-98938152D02*
X139778571Y-99604819D01*
X139778571Y-99033390D02*
X139826190Y-98985771D01*
X139826190Y-98985771D02*
X139921428Y-98938152D01*
X139921428Y-98938152D02*
X140064285Y-98938152D01*
X140064285Y-98938152D02*
X140159523Y-98985771D01*
X140159523Y-98985771D02*
X140207142Y-99081009D01*
X140207142Y-99081009D02*
X140207142Y-99604819D01*
X141111904Y-98938152D02*
X141111904Y-99747676D01*
X141111904Y-99747676D02*
X141064285Y-99842914D01*
X141064285Y-99842914D02*
X141016666Y-99890533D01*
X141016666Y-99890533D02*
X140921428Y-99938152D01*
X140921428Y-99938152D02*
X140778571Y-99938152D01*
X140778571Y-99938152D02*
X140683333Y-99890533D01*
X141111904Y-99557200D02*
X141016666Y-99604819D01*
X141016666Y-99604819D02*
X140826190Y-99604819D01*
X140826190Y-99604819D02*
X140730952Y-99557200D01*
X140730952Y-99557200D02*
X140683333Y-99509580D01*
X140683333Y-99509580D02*
X140635714Y-99414342D01*
X140635714Y-99414342D02*
X140635714Y-99128628D01*
X140635714Y-99128628D02*
X140683333Y-99033390D01*
X140683333Y-99033390D02*
X140730952Y-98985771D01*
X140730952Y-98985771D02*
X140826190Y-98938152D01*
X140826190Y-98938152D02*
X141016666Y-98938152D01*
X141016666Y-98938152D02*
X141111904Y-98985771D01*
X141588095Y-99604819D02*
X141588095Y-98604819D01*
X141588095Y-99081009D02*
X142159523Y-99081009D01*
X142159523Y-99604819D02*
X142159523Y-98604819D01*
X142778571Y-99604819D02*
X142683333Y-99557200D01*
X142683333Y-99557200D02*
X142635714Y-99509580D01*
X142635714Y-99509580D02*
X142588095Y-99414342D01*
X142588095Y-99414342D02*
X142588095Y-99128628D01*
X142588095Y-99128628D02*
X142635714Y-99033390D01*
X142635714Y-99033390D02*
X142683333Y-98985771D01*
X142683333Y-98985771D02*
X142778571Y-98938152D01*
X142778571Y-98938152D02*
X142921428Y-98938152D01*
X142921428Y-98938152D02*
X143016666Y-98985771D01*
X143016666Y-98985771D02*
X143064285Y-99033390D01*
X143064285Y-99033390D02*
X143111904Y-99128628D01*
X143111904Y-99128628D02*
X143111904Y-99414342D01*
X143111904Y-99414342D02*
X143064285Y-99509580D01*
X143064285Y-99509580D02*
X143016666Y-99557200D01*
X143016666Y-99557200D02*
X142921428Y-99604819D01*
X142921428Y-99604819D02*
X142778571Y-99604819D01*
X143683333Y-99604819D02*
X143588095Y-99557200D01*
X143588095Y-99557200D02*
X143540476Y-99461961D01*
X143540476Y-99461961D02*
X143540476Y-98604819D01*
X144445238Y-99557200D02*
X144350000Y-99604819D01*
X144350000Y-99604819D02*
X144159524Y-99604819D01*
X144159524Y-99604819D02*
X144064286Y-99557200D01*
X144064286Y-99557200D02*
X144016667Y-99461961D01*
X144016667Y-99461961D02*
X144016667Y-99081009D01*
X144016667Y-99081009D02*
X144064286Y-98985771D01*
X144064286Y-98985771D02*
X144159524Y-98938152D01*
X144159524Y-98938152D02*
X144350000Y-98938152D01*
X144350000Y-98938152D02*
X144445238Y-98985771D01*
X144445238Y-98985771D02*
X144492857Y-99081009D01*
X144492857Y-99081009D02*
X144492857Y-99176247D01*
X144492857Y-99176247D02*
X144016667Y-99271485D01*
X144683334Y-99700057D02*
X145445238Y-99700057D01*
X145635715Y-98700057D02*
X145683334Y-98652438D01*
X145683334Y-98652438D02*
X145778572Y-98604819D01*
X145778572Y-98604819D02*
X146016667Y-98604819D01*
X146016667Y-98604819D02*
X146111905Y-98652438D01*
X146111905Y-98652438D02*
X146159524Y-98700057D01*
X146159524Y-98700057D02*
X146207143Y-98795295D01*
X146207143Y-98795295D02*
X146207143Y-98890533D01*
X146207143Y-98890533D02*
X146159524Y-99033390D01*
X146159524Y-99033390D02*
X145588096Y-99604819D01*
X145588096Y-99604819D02*
X146207143Y-99604819D01*
X146635715Y-99509580D02*
X146683334Y-99557200D01*
X146683334Y-99557200D02*
X146635715Y-99604819D01*
X146635715Y-99604819D02*
X146588096Y-99557200D01*
X146588096Y-99557200D02*
X146635715Y-99509580D01*
X146635715Y-99509580D02*
X146635715Y-99604819D01*
X147064286Y-98700057D02*
X147111905Y-98652438D01*
X147111905Y-98652438D02*
X147207143Y-98604819D01*
X147207143Y-98604819D02*
X147445238Y-98604819D01*
X147445238Y-98604819D02*
X147540476Y-98652438D01*
X147540476Y-98652438D02*
X147588095Y-98700057D01*
X147588095Y-98700057D02*
X147635714Y-98795295D01*
X147635714Y-98795295D02*
X147635714Y-98890533D01*
X147635714Y-98890533D02*
X147588095Y-99033390D01*
X147588095Y-99033390D02*
X147016667Y-99604819D01*
X147016667Y-99604819D02*
X147635714Y-99604819D01*
X148064286Y-99604819D02*
X148064286Y-98938152D01*
X148064286Y-99033390D02*
X148111905Y-98985771D01*
X148111905Y-98985771D02*
X148207143Y-98938152D01*
X148207143Y-98938152D02*
X148350000Y-98938152D01*
X148350000Y-98938152D02*
X148445238Y-98985771D01*
X148445238Y-98985771D02*
X148492857Y-99081009D01*
X148492857Y-99081009D02*
X148492857Y-99604819D01*
X148492857Y-99081009D02*
X148540476Y-98985771D01*
X148540476Y-98985771D02*
X148635714Y-98938152D01*
X148635714Y-98938152D02*
X148778571Y-98938152D01*
X148778571Y-98938152D02*
X148873810Y-98985771D01*
X148873810Y-98985771D02*
X148921429Y-99081009D01*
X148921429Y-99081009D02*
X148921429Y-99604819D01*
X149397619Y-99604819D02*
X149397619Y-98938152D01*
X149397619Y-99033390D02*
X149445238Y-98985771D01*
X149445238Y-98985771D02*
X149540476Y-98938152D01*
X149540476Y-98938152D02*
X149683333Y-98938152D01*
X149683333Y-98938152D02*
X149778571Y-98985771D01*
X149778571Y-98985771D02*
X149826190Y-99081009D01*
X149826190Y-99081009D02*
X149826190Y-99604819D01*
X149826190Y-99081009D02*
X149873809Y-98985771D01*
X149873809Y-98985771D02*
X149969047Y-98938152D01*
X149969047Y-98938152D02*
X150111904Y-98938152D01*
X150111904Y-98938152D02*
X150207143Y-98985771D01*
X150207143Y-98985771D02*
X150254762Y-99081009D01*
X150254762Y-99081009D02*
X150254762Y-99604819D01*
X150492857Y-99700057D02*
X151254761Y-99700057D01*
X151492857Y-99604819D02*
X151492857Y-98604819D01*
X151492857Y-98604819D02*
X151826190Y-99319104D01*
X151826190Y-99319104D02*
X152159523Y-98604819D01*
X152159523Y-98604819D02*
X152159523Y-99604819D01*
X152588095Y-98700057D02*
X152635714Y-98652438D01*
X152635714Y-98652438D02*
X152730952Y-98604819D01*
X152730952Y-98604819D02*
X152969047Y-98604819D01*
X152969047Y-98604819D02*
X153064285Y-98652438D01*
X153064285Y-98652438D02*
X153111904Y-98700057D01*
X153111904Y-98700057D02*
X153159523Y-98795295D01*
X153159523Y-98795295D02*
X153159523Y-98890533D01*
X153159523Y-98890533D02*
X153111904Y-99033390D01*
X153111904Y-99033390D02*
X152540476Y-99604819D01*
X152540476Y-99604819D02*
X153159523Y-99604819D01*
X153350000Y-99700057D02*
X154111904Y-99700057D01*
X154350000Y-99604819D02*
X154350000Y-98604819D01*
X154350000Y-98604819D02*
X154588095Y-98604819D01*
X154588095Y-98604819D02*
X154730952Y-98652438D01*
X154730952Y-98652438D02*
X154826190Y-98747676D01*
X154826190Y-98747676D02*
X154873809Y-98842914D01*
X154873809Y-98842914D02*
X154921428Y-99033390D01*
X154921428Y-99033390D02*
X154921428Y-99176247D01*
X154921428Y-99176247D02*
X154873809Y-99366723D01*
X154873809Y-99366723D02*
X154826190Y-99461961D01*
X154826190Y-99461961D02*
X154730952Y-99557200D01*
X154730952Y-99557200D02*
X154588095Y-99604819D01*
X154588095Y-99604819D02*
X154350000Y-99604819D01*
X155350000Y-99604819D02*
X155350000Y-98604819D01*
X155826190Y-99604819D02*
X155826190Y-98604819D01*
X155826190Y-98604819D02*
X156397618Y-99604819D01*
X156397618Y-99604819D02*
X156397618Y-98604819D01*
X156921428Y-99604819D02*
X157111904Y-99604819D01*
X157111904Y-99604819D02*
X157207142Y-99557200D01*
X157207142Y-99557200D02*
X157254761Y-99509580D01*
X157254761Y-99509580D02*
X157349999Y-99366723D01*
X157349999Y-99366723D02*
X157397618Y-99176247D01*
X157397618Y-99176247D02*
X157397618Y-98795295D01*
X157397618Y-98795295D02*
X157349999Y-98700057D01*
X157349999Y-98700057D02*
X157302380Y-98652438D01*
X157302380Y-98652438D02*
X157207142Y-98604819D01*
X157207142Y-98604819D02*
X157016666Y-98604819D01*
X157016666Y-98604819D02*
X156921428Y-98652438D01*
X156921428Y-98652438D02*
X156873809Y-98700057D01*
X156873809Y-98700057D02*
X156826190Y-98795295D01*
X156826190Y-98795295D02*
X156826190Y-99033390D01*
X156826190Y-99033390D02*
X156873809Y-99128628D01*
X156873809Y-99128628D02*
X156921428Y-99176247D01*
X156921428Y-99176247D02*
X157016666Y-99223866D01*
X157016666Y-99223866D02*
X157207142Y-99223866D01*
X157207142Y-99223866D02*
X157302380Y-99176247D01*
X157302380Y-99176247D02*
X157349999Y-99128628D01*
X157349999Y-99128628D02*
X157397618Y-99033390D01*
X158254761Y-98604819D02*
X158064285Y-98604819D01*
X158064285Y-98604819D02*
X157969047Y-98652438D01*
X157969047Y-98652438D02*
X157921428Y-98700057D01*
X157921428Y-98700057D02*
X157826190Y-98842914D01*
X157826190Y-98842914D02*
X157778571Y-99033390D01*
X157778571Y-99033390D02*
X157778571Y-99414342D01*
X157778571Y-99414342D02*
X157826190Y-99509580D01*
X157826190Y-99509580D02*
X157873809Y-99557200D01*
X157873809Y-99557200D02*
X157969047Y-99604819D01*
X157969047Y-99604819D02*
X158159523Y-99604819D01*
X158159523Y-99604819D02*
X158254761Y-99557200D01*
X158254761Y-99557200D02*
X158302380Y-99509580D01*
X158302380Y-99509580D02*
X158349999Y-99414342D01*
X158349999Y-99414342D02*
X158349999Y-99176247D01*
X158349999Y-99176247D02*
X158302380Y-99081009D01*
X158302380Y-99081009D02*
X158254761Y-99033390D01*
X158254761Y-99033390D02*
X158159523Y-98985771D01*
X158159523Y-98985771D02*
X157969047Y-98985771D01*
X157969047Y-98985771D02*
X157873809Y-99033390D01*
X157873809Y-99033390D02*
X157826190Y-99081009D01*
X157826190Y-99081009D02*
X157778571Y-99176247D01*
X159254761Y-98604819D02*
X158778571Y-98604819D01*
X158778571Y-98604819D02*
X158730952Y-99081009D01*
X158730952Y-99081009D02*
X158778571Y-99033390D01*
X158778571Y-99033390D02*
X158873809Y-98985771D01*
X158873809Y-98985771D02*
X159111904Y-98985771D01*
X159111904Y-98985771D02*
X159207142Y-99033390D01*
X159207142Y-99033390D02*
X159254761Y-99081009D01*
X159254761Y-99081009D02*
X159302380Y-99176247D01*
X159302380Y-99176247D02*
X159302380Y-99414342D01*
X159302380Y-99414342D02*
X159254761Y-99509580D01*
X159254761Y-99509580D02*
X159207142Y-99557200D01*
X159207142Y-99557200D02*
X159111904Y-99604819D01*
X159111904Y-99604819D02*
X158873809Y-99604819D01*
X158873809Y-99604819D02*
X158778571Y-99557200D01*
X158778571Y-99557200D02*
X158730952Y-99509580D01*
X159492857Y-99700057D02*
X160254761Y-99700057D01*
X160492857Y-99604819D02*
X160492857Y-98604819D01*
X160492857Y-98604819D02*
X160873809Y-98604819D01*
X160873809Y-98604819D02*
X160969047Y-98652438D01*
X160969047Y-98652438D02*
X161016666Y-98700057D01*
X161016666Y-98700057D02*
X161064285Y-98795295D01*
X161064285Y-98795295D02*
X161064285Y-98938152D01*
X161064285Y-98938152D02*
X161016666Y-99033390D01*
X161016666Y-99033390D02*
X160969047Y-99081009D01*
X160969047Y-99081009D02*
X160873809Y-99128628D01*
X160873809Y-99128628D02*
X160492857Y-99128628D01*
X161921428Y-99604819D02*
X161921428Y-99081009D01*
X161921428Y-99081009D02*
X161873809Y-98985771D01*
X161873809Y-98985771D02*
X161778571Y-98938152D01*
X161778571Y-98938152D02*
X161588095Y-98938152D01*
X161588095Y-98938152D02*
X161492857Y-98985771D01*
X161921428Y-99557200D02*
X161826190Y-99604819D01*
X161826190Y-99604819D02*
X161588095Y-99604819D01*
X161588095Y-99604819D02*
X161492857Y-99557200D01*
X161492857Y-99557200D02*
X161445238Y-99461961D01*
X161445238Y-99461961D02*
X161445238Y-99366723D01*
X161445238Y-99366723D02*
X161492857Y-99271485D01*
X161492857Y-99271485D02*
X161588095Y-99223866D01*
X161588095Y-99223866D02*
X161826190Y-99223866D01*
X161826190Y-99223866D02*
X161921428Y-99176247D01*
X162826190Y-99604819D02*
X162826190Y-98604819D01*
X162826190Y-99557200D02*
X162730952Y-99604819D01*
X162730952Y-99604819D02*
X162540476Y-99604819D01*
X162540476Y-99604819D02*
X162445238Y-99557200D01*
X162445238Y-99557200D02*
X162397619Y-99509580D01*
X162397619Y-99509580D02*
X162350000Y-99414342D01*
X162350000Y-99414342D02*
X162350000Y-99128628D01*
X162350000Y-99128628D02*
X162397619Y-99033390D01*
X162397619Y-99033390D02*
X162445238Y-98985771D01*
X162445238Y-98985771D02*
X162540476Y-98938152D01*
X162540476Y-98938152D02*
X162730952Y-98938152D01*
X162730952Y-98938152D02*
X162826190Y-98985771D01*
D14*
X148080952Y-96732208D02*
X148080952Y-95782208D01*
X148080952Y-95782208D02*
X148397619Y-96460779D01*
X148397619Y-96460779D02*
X148714285Y-95782208D01*
X148714285Y-95782208D02*
X148714285Y-96732208D01*
X149121428Y-95872684D02*
X149166666Y-95827446D01*
X149166666Y-95827446D02*
X149257142Y-95782208D01*
X149257142Y-95782208D02*
X149483333Y-95782208D01*
X149483333Y-95782208D02*
X149573809Y-95827446D01*
X149573809Y-95827446D02*
X149619047Y-95872684D01*
X149619047Y-95872684D02*
X149664285Y-95963160D01*
X149664285Y-95963160D02*
X149664285Y-96053636D01*
X149664285Y-96053636D02*
X149619047Y-96189350D01*
X149619047Y-96189350D02*
X149076190Y-96732208D01*
X149076190Y-96732208D02*
X149664285Y-96732208D01*
D10*
X142954819Y-88497619D02*
X142954819Y-89069047D01*
X142954819Y-88783333D02*
X141954819Y-88783333D01*
X141954819Y-88783333D02*
X142097676Y-88878571D01*
X142097676Y-88878571D02*
X142192914Y-88973809D01*
X142192914Y-88973809D02*
X142240533Y-89069047D01*
X141954819Y-87878571D02*
X141954819Y-87783333D01*
X141954819Y-87783333D02*
X142002438Y-87688095D01*
X142002438Y-87688095D02*
X142050057Y-87640476D01*
X142050057Y-87640476D02*
X142145295Y-87592857D01*
X142145295Y-87592857D02*
X142335771Y-87545238D01*
X142335771Y-87545238D02*
X142573866Y-87545238D01*
X142573866Y-87545238D02*
X142764342Y-87592857D01*
X142764342Y-87592857D02*
X142859580Y-87640476D01*
X142859580Y-87640476D02*
X142907200Y-87688095D01*
X142907200Y-87688095D02*
X142954819Y-87783333D01*
X142954819Y-87783333D02*
X142954819Y-87878571D01*
X142954819Y-87878571D02*
X142907200Y-87973809D01*
X142907200Y-87973809D02*
X142859580Y-88021428D01*
X142859580Y-88021428D02*
X142764342Y-88069047D01*
X142764342Y-88069047D02*
X142573866Y-88116666D01*
X142573866Y-88116666D02*
X142335771Y-88116666D01*
X142335771Y-88116666D02*
X142145295Y-88069047D01*
X142145295Y-88069047D02*
X142050057Y-88021428D01*
X142050057Y-88021428D02*
X142002438Y-87973809D01*
X142002438Y-87973809D02*
X141954819Y-87878571D01*
X141954819Y-86926190D02*
X141954819Y-86830952D01*
X141954819Y-86830952D02*
X142002438Y-86735714D01*
X142002438Y-86735714D02*
X142050057Y-86688095D01*
X142050057Y-86688095D02*
X142145295Y-86640476D01*
X142145295Y-86640476D02*
X142335771Y-86592857D01*
X142335771Y-86592857D02*
X142573866Y-86592857D01*
X142573866Y-86592857D02*
X142764342Y-86640476D01*
X142764342Y-86640476D02*
X142859580Y-86688095D01*
X142859580Y-86688095D02*
X142907200Y-86735714D01*
X142907200Y-86735714D02*
X142954819Y-86830952D01*
X142954819Y-86830952D02*
X142954819Y-86926190D01*
X142954819Y-86926190D02*
X142907200Y-87021428D01*
X142907200Y-87021428D02*
X142859580Y-87069047D01*
X142859580Y-87069047D02*
X142764342Y-87116666D01*
X142764342Y-87116666D02*
X142573866Y-87164285D01*
X142573866Y-87164285D02*
X142335771Y-87164285D01*
X142335771Y-87164285D02*
X142145295Y-87116666D01*
X142145295Y-87116666D02*
X142050057Y-87069047D01*
X142050057Y-87069047D02*
X142002438Y-87021428D01*
X142002438Y-87021428D02*
X141954819Y-86926190D01*
X142288152Y-86164285D02*
X143288152Y-86164285D01*
X142335771Y-86164285D02*
X142288152Y-86069047D01*
X142288152Y-86069047D02*
X142288152Y-85878571D01*
X142288152Y-85878571D02*
X142335771Y-85783333D01*
X142335771Y-85783333D02*
X142383390Y-85735714D01*
X142383390Y-85735714D02*
X142478628Y-85688095D01*
X142478628Y-85688095D02*
X142764342Y-85688095D01*
X142764342Y-85688095D02*
X142859580Y-85735714D01*
X142859580Y-85735714D02*
X142907200Y-85783333D01*
X142907200Y-85783333D02*
X142954819Y-85878571D01*
X142954819Y-85878571D02*
X142954819Y-86069047D01*
X142954819Y-86069047D02*
X142907200Y-86164285D01*
X142431009Y-84926190D02*
X142431009Y-85259523D01*
X142954819Y-85259523D02*
X141954819Y-85259523D01*
X141954819Y-85259523D02*
X141954819Y-84783333D01*
D12*
X140969765Y-86991666D02*
X140981670Y-87003570D01*
X140981670Y-87003570D02*
X140993574Y-87039285D01*
X140993574Y-87039285D02*
X140993574Y-87063094D01*
X140993574Y-87063094D02*
X140981670Y-87098808D01*
X140981670Y-87098808D02*
X140957860Y-87122618D01*
X140957860Y-87122618D02*
X140934050Y-87134523D01*
X140934050Y-87134523D02*
X140886431Y-87146427D01*
X140886431Y-87146427D02*
X140850717Y-87146427D01*
X140850717Y-87146427D02*
X140803098Y-87134523D01*
X140803098Y-87134523D02*
X140779289Y-87122618D01*
X140779289Y-87122618D02*
X140755479Y-87098808D01*
X140755479Y-87098808D02*
X140743574Y-87063094D01*
X140743574Y-87063094D02*
X140743574Y-87039285D01*
X140743574Y-87039285D02*
X140755479Y-87003570D01*
X140755479Y-87003570D02*
X140767384Y-86991666D01*
X140743574Y-86908332D02*
X140743574Y-86753570D01*
X140743574Y-86753570D02*
X140838812Y-86836904D01*
X140838812Y-86836904D02*
X140838812Y-86801189D01*
X140838812Y-86801189D02*
X140850717Y-86777380D01*
X140850717Y-86777380D02*
X140862622Y-86765475D01*
X140862622Y-86765475D02*
X140886431Y-86753570D01*
X140886431Y-86753570D02*
X140945955Y-86753570D01*
X140945955Y-86753570D02*
X140969765Y-86765475D01*
X140969765Y-86765475D02*
X140981670Y-86777380D01*
X140981670Y-86777380D02*
X140993574Y-86801189D01*
X140993574Y-86801189D02*
X140993574Y-86872618D01*
X140993574Y-86872618D02*
X140981670Y-86896427D01*
X140981670Y-86896427D02*
X140969765Y-86908332D01*
D10*
X134104819Y-90573809D02*
X134104819Y-90478571D01*
X134104819Y-90478571D02*
X134152438Y-90383333D01*
X134152438Y-90383333D02*
X134200057Y-90335714D01*
X134200057Y-90335714D02*
X134295295Y-90288095D01*
X134295295Y-90288095D02*
X134485771Y-90240476D01*
X134485771Y-90240476D02*
X134723866Y-90240476D01*
X134723866Y-90240476D02*
X134914342Y-90288095D01*
X134914342Y-90288095D02*
X135009580Y-90335714D01*
X135009580Y-90335714D02*
X135057200Y-90383333D01*
X135057200Y-90383333D02*
X135104819Y-90478571D01*
X135104819Y-90478571D02*
X135104819Y-90573809D01*
X135104819Y-90573809D02*
X135057200Y-90669047D01*
X135057200Y-90669047D02*
X135009580Y-90716666D01*
X135009580Y-90716666D02*
X134914342Y-90764285D01*
X134914342Y-90764285D02*
X134723866Y-90811904D01*
X134723866Y-90811904D02*
X134485771Y-90811904D01*
X134485771Y-90811904D02*
X134295295Y-90764285D01*
X134295295Y-90764285D02*
X134200057Y-90716666D01*
X134200057Y-90716666D02*
X134152438Y-90669047D01*
X134152438Y-90669047D02*
X134104819Y-90573809D01*
X135009580Y-89811904D02*
X135057200Y-89764285D01*
X135057200Y-89764285D02*
X135104819Y-89811904D01*
X135104819Y-89811904D02*
X135057200Y-89859523D01*
X135057200Y-89859523D02*
X135009580Y-89811904D01*
X135009580Y-89811904D02*
X135104819Y-89811904D01*
X135104819Y-88811905D02*
X135104819Y-89383333D01*
X135104819Y-89097619D02*
X134104819Y-89097619D01*
X134104819Y-89097619D02*
X134247676Y-89192857D01*
X134247676Y-89192857D02*
X134342914Y-89288095D01*
X134342914Y-89288095D02*
X134390533Y-89383333D01*
X134438152Y-87192857D02*
X135104819Y-87192857D01*
X134438152Y-87621428D02*
X134961961Y-87621428D01*
X134961961Y-87621428D02*
X135057200Y-87573809D01*
X135057200Y-87573809D02*
X135104819Y-87478571D01*
X135104819Y-87478571D02*
X135104819Y-87335714D01*
X135104819Y-87335714D02*
X135057200Y-87240476D01*
X135057200Y-87240476D02*
X135009580Y-87192857D01*
X134581009Y-86383333D02*
X134581009Y-86716666D01*
X135104819Y-86716666D02*
X134104819Y-86716666D01*
X134104819Y-86716666D02*
X134104819Y-86240476D01*
D12*
X133119765Y-88591666D02*
X133131670Y-88603570D01*
X133131670Y-88603570D02*
X133143574Y-88639285D01*
X133143574Y-88639285D02*
X133143574Y-88663094D01*
X133143574Y-88663094D02*
X133131670Y-88698808D01*
X133131670Y-88698808D02*
X133107860Y-88722618D01*
X133107860Y-88722618D02*
X133084050Y-88734523D01*
X133084050Y-88734523D02*
X133036431Y-88746427D01*
X133036431Y-88746427D02*
X133000717Y-88746427D01*
X133000717Y-88746427D02*
X132953098Y-88734523D01*
X132953098Y-88734523D02*
X132929289Y-88722618D01*
X132929289Y-88722618D02*
X132905479Y-88698808D01*
X132905479Y-88698808D02*
X132893574Y-88663094D01*
X132893574Y-88663094D02*
X132893574Y-88639285D01*
X132893574Y-88639285D02*
X132905479Y-88603570D01*
X132905479Y-88603570D02*
X132917384Y-88591666D01*
X132893574Y-88377380D02*
X132893574Y-88424999D01*
X132893574Y-88424999D02*
X132905479Y-88448808D01*
X132905479Y-88448808D02*
X132917384Y-88460713D01*
X132917384Y-88460713D02*
X132953098Y-88484523D01*
X132953098Y-88484523D02*
X133000717Y-88496427D01*
X133000717Y-88496427D02*
X133095955Y-88496427D01*
X133095955Y-88496427D02*
X133119765Y-88484523D01*
X133119765Y-88484523D02*
X133131670Y-88472618D01*
X133131670Y-88472618D02*
X133143574Y-88448808D01*
X133143574Y-88448808D02*
X133143574Y-88401189D01*
X133143574Y-88401189D02*
X133131670Y-88377380D01*
X133131670Y-88377380D02*
X133119765Y-88365475D01*
X133119765Y-88365475D02*
X133095955Y-88353570D01*
X133095955Y-88353570D02*
X133036431Y-88353570D01*
X133036431Y-88353570D02*
X133012622Y-88365475D01*
X133012622Y-88365475D02*
X133000717Y-88377380D01*
X133000717Y-88377380D02*
X132988812Y-88401189D01*
X132988812Y-88401189D02*
X132988812Y-88448808D01*
X132988812Y-88448808D02*
X133000717Y-88472618D01*
X133000717Y-88472618D02*
X133012622Y-88484523D01*
X133012622Y-88484523D02*
X133036431Y-88496427D01*
D10*
X147824819Y-92695238D02*
X147824819Y-93266666D01*
X147824819Y-92980952D02*
X146824819Y-92980952D01*
X146824819Y-92980952D02*
X146967676Y-93076190D01*
X146967676Y-93076190D02*
X147062914Y-93171428D01*
X147062914Y-93171428D02*
X147110533Y-93266666D01*
X146824819Y-92076190D02*
X146824819Y-91980952D01*
X146824819Y-91980952D02*
X146872438Y-91885714D01*
X146872438Y-91885714D02*
X146920057Y-91838095D01*
X146920057Y-91838095D02*
X147015295Y-91790476D01*
X147015295Y-91790476D02*
X147205771Y-91742857D01*
X147205771Y-91742857D02*
X147443866Y-91742857D01*
X147443866Y-91742857D02*
X147634342Y-91790476D01*
X147634342Y-91790476D02*
X147729580Y-91838095D01*
X147729580Y-91838095D02*
X147777200Y-91885714D01*
X147777200Y-91885714D02*
X147824819Y-91980952D01*
X147824819Y-91980952D02*
X147824819Y-92076190D01*
X147824819Y-92076190D02*
X147777200Y-92171428D01*
X147777200Y-92171428D02*
X147729580Y-92219047D01*
X147729580Y-92219047D02*
X147634342Y-92266666D01*
X147634342Y-92266666D02*
X147443866Y-92314285D01*
X147443866Y-92314285D02*
X147205771Y-92314285D01*
X147205771Y-92314285D02*
X147015295Y-92266666D01*
X147015295Y-92266666D02*
X146920057Y-92219047D01*
X146920057Y-92219047D02*
X146872438Y-92171428D01*
X146872438Y-92171428D02*
X146824819Y-92076190D01*
X147824819Y-91314285D02*
X146824819Y-91314285D01*
X147443866Y-91219047D02*
X147824819Y-90933333D01*
X147158152Y-90933333D02*
X147539104Y-91314285D01*
D12*
X146318200Y-92143332D02*
X146194391Y-92229999D01*
X146318200Y-92291904D02*
X146058200Y-92291904D01*
X146058200Y-92291904D02*
X146058200Y-92192856D01*
X146058200Y-92192856D02*
X146070581Y-92168094D01*
X146070581Y-92168094D02*
X146082962Y-92155713D01*
X146082962Y-92155713D02*
X146107724Y-92143332D01*
X146107724Y-92143332D02*
X146144867Y-92143332D01*
X146144867Y-92143332D02*
X146169629Y-92155713D01*
X146169629Y-92155713D02*
X146182010Y-92168094D01*
X146182010Y-92168094D02*
X146194391Y-92192856D01*
X146194391Y-92192856D02*
X146194391Y-92291904D01*
X146058200Y-92056666D02*
X146058200Y-91883332D01*
X146058200Y-91883332D02*
X146318200Y-91994761D01*
D10*
X139835714Y-90800057D02*
X139883333Y-90752438D01*
X139883333Y-90752438D02*
X139978571Y-90704819D01*
X139978571Y-90704819D02*
X140216666Y-90704819D01*
X140216666Y-90704819D02*
X140311904Y-90752438D01*
X140311904Y-90752438D02*
X140359523Y-90800057D01*
X140359523Y-90800057D02*
X140407142Y-90895295D01*
X140407142Y-90895295D02*
X140407142Y-90990533D01*
X140407142Y-90990533D02*
X140359523Y-91133390D01*
X140359523Y-91133390D02*
X139788095Y-91704819D01*
X139788095Y-91704819D02*
X140407142Y-91704819D01*
X141026190Y-90704819D02*
X141121428Y-90704819D01*
X141121428Y-90704819D02*
X141216666Y-90752438D01*
X141216666Y-90752438D02*
X141264285Y-90800057D01*
X141264285Y-90800057D02*
X141311904Y-90895295D01*
X141311904Y-90895295D02*
X141359523Y-91085771D01*
X141359523Y-91085771D02*
X141359523Y-91323866D01*
X141359523Y-91323866D02*
X141311904Y-91514342D01*
X141311904Y-91514342D02*
X141264285Y-91609580D01*
X141264285Y-91609580D02*
X141216666Y-91657200D01*
X141216666Y-91657200D02*
X141121428Y-91704819D01*
X141121428Y-91704819D02*
X141026190Y-91704819D01*
X141026190Y-91704819D02*
X140930952Y-91657200D01*
X140930952Y-91657200D02*
X140883333Y-91609580D01*
X140883333Y-91609580D02*
X140835714Y-91514342D01*
X140835714Y-91514342D02*
X140788095Y-91323866D01*
X140788095Y-91323866D02*
X140788095Y-91085771D01*
X140788095Y-91085771D02*
X140835714Y-90895295D01*
X140835714Y-90895295D02*
X140883333Y-90800057D01*
X140883333Y-90800057D02*
X140930952Y-90752438D01*
X140930952Y-90752438D02*
X141026190Y-90704819D01*
X141978571Y-90704819D02*
X142073809Y-90704819D01*
X142073809Y-90704819D02*
X142169047Y-90752438D01*
X142169047Y-90752438D02*
X142216666Y-90800057D01*
X142216666Y-90800057D02*
X142264285Y-90895295D01*
X142264285Y-90895295D02*
X142311904Y-91085771D01*
X142311904Y-91085771D02*
X142311904Y-91323866D01*
X142311904Y-91323866D02*
X142264285Y-91514342D01*
X142264285Y-91514342D02*
X142216666Y-91609580D01*
X142216666Y-91609580D02*
X142169047Y-91657200D01*
X142169047Y-91657200D02*
X142073809Y-91704819D01*
X142073809Y-91704819D02*
X141978571Y-91704819D01*
X141978571Y-91704819D02*
X141883333Y-91657200D01*
X141883333Y-91657200D02*
X141835714Y-91609580D01*
X141835714Y-91609580D02*
X141788095Y-91514342D01*
X141788095Y-91514342D02*
X141740476Y-91323866D01*
X141740476Y-91323866D02*
X141740476Y-91085771D01*
X141740476Y-91085771D02*
X141788095Y-90895295D01*
X141788095Y-90895295D02*
X141835714Y-90800057D01*
X141835714Y-90800057D02*
X141883333Y-90752438D01*
X141883333Y-90752438D02*
X141978571Y-90704819D01*
X142930952Y-90704819D02*
X143026190Y-90704819D01*
X143026190Y-90704819D02*
X143121428Y-90752438D01*
X143121428Y-90752438D02*
X143169047Y-90800057D01*
X143169047Y-90800057D02*
X143216666Y-90895295D01*
X143216666Y-90895295D02*
X143264285Y-91085771D01*
X143264285Y-91085771D02*
X143264285Y-91323866D01*
X143264285Y-91323866D02*
X143216666Y-91514342D01*
X143216666Y-91514342D02*
X143169047Y-91609580D01*
X143169047Y-91609580D02*
X143121428Y-91657200D01*
X143121428Y-91657200D02*
X143026190Y-91704819D01*
X143026190Y-91704819D02*
X142930952Y-91704819D01*
X142930952Y-91704819D02*
X142835714Y-91657200D01*
X142835714Y-91657200D02*
X142788095Y-91609580D01*
X142788095Y-91609580D02*
X142740476Y-91514342D01*
X142740476Y-91514342D02*
X142692857Y-91323866D01*
X142692857Y-91323866D02*
X142692857Y-91085771D01*
X142692857Y-91085771D02*
X142740476Y-90895295D01*
X142740476Y-90895295D02*
X142788095Y-90800057D01*
X142788095Y-90800057D02*
X142835714Y-90752438D01*
X142835714Y-90752438D02*
X142930952Y-90704819D01*
D12*
X141508333Y-89743574D02*
X141425000Y-89624527D01*
X141365476Y-89743574D02*
X141365476Y-89493574D01*
X141365476Y-89493574D02*
X141460714Y-89493574D01*
X141460714Y-89493574D02*
X141484524Y-89505479D01*
X141484524Y-89505479D02*
X141496429Y-89517384D01*
X141496429Y-89517384D02*
X141508333Y-89541193D01*
X141508333Y-89541193D02*
X141508333Y-89576908D01*
X141508333Y-89576908D02*
X141496429Y-89600717D01*
X141496429Y-89600717D02*
X141484524Y-89612622D01*
X141484524Y-89612622D02*
X141460714Y-89624527D01*
X141460714Y-89624527D02*
X141365476Y-89624527D01*
X141627381Y-89743574D02*
X141675000Y-89743574D01*
X141675000Y-89743574D02*
X141698810Y-89731670D01*
X141698810Y-89731670D02*
X141710714Y-89719765D01*
X141710714Y-89719765D02*
X141734524Y-89684050D01*
X141734524Y-89684050D02*
X141746429Y-89636431D01*
X141746429Y-89636431D02*
X141746429Y-89541193D01*
X141746429Y-89541193D02*
X141734524Y-89517384D01*
X141734524Y-89517384D02*
X141722619Y-89505479D01*
X141722619Y-89505479D02*
X141698810Y-89493574D01*
X141698810Y-89493574D02*
X141651191Y-89493574D01*
X141651191Y-89493574D02*
X141627381Y-89505479D01*
X141627381Y-89505479D02*
X141615476Y-89517384D01*
X141615476Y-89517384D02*
X141603572Y-89541193D01*
X141603572Y-89541193D02*
X141603572Y-89600717D01*
X141603572Y-89600717D02*
X141615476Y-89624527D01*
X141615476Y-89624527D02*
X141627381Y-89636431D01*
X141627381Y-89636431D02*
X141651191Y-89648336D01*
X141651191Y-89648336D02*
X141698810Y-89648336D01*
X141698810Y-89648336D02*
X141722619Y-89636431D01*
X141722619Y-89636431D02*
X141734524Y-89624527D01*
X141734524Y-89624527D02*
X141746429Y-89600717D01*
D15*
G04 #@! TO.C,J1*
X146235000Y-85182500D02*
X145917500Y-85500000D01*
X146235000Y-81500000D02*
X146235000Y-85182500D01*
X145917500Y-85500000D02*
X144965000Y-85500000D01*
X144965000Y-85500000D02*
X144965000Y-81500000D01*
X144965000Y-81500000D02*
X146235000Y-81500000D01*
G04 #@! TO.C,-BAT+1*
X137990000Y-96860000D02*
X137990000Y-99360000D01*
X137990000Y-99360000D02*
X140490000Y-99360000D01*
X138400000Y-95150000D02*
X138400000Y-98950000D01*
X138400000Y-98950000D02*
X145900000Y-98950000D01*
X145900000Y-95150000D02*
X138400000Y-95150000D01*
X145900000Y-98950000D02*
X145900000Y-95150000D01*
G04 #@! TO.C,R10*
X140400000Y-91700000D02*
X140800000Y-91700000D01*
X140400000Y-91900000D02*
X140400000Y-91700000D01*
X140800000Y-91700000D02*
X140800000Y-91900000D01*
X140800000Y-91900000D02*
X140400000Y-91900000D01*
G04 #@! TO.C,C5*
X142600000Y-88150000D02*
X143000000Y-88150000D01*
X142600000Y-88350000D02*
X142600000Y-88150000D01*
X143000000Y-88150000D02*
X143000000Y-88350000D01*
X143000000Y-88350000D02*
X142600000Y-88350000D01*
G04 #@! TO.C,C24*
X144050000Y-89700000D02*
X145050000Y-89700000D01*
X144050000Y-90200000D02*
X144050000Y-89700000D01*
X145050000Y-89700000D02*
X145050000Y-90200000D01*
X145050000Y-90200000D02*
X144050000Y-90200000D01*
G04 #@! TO.C,C7*
X131250000Y-89400000D02*
X132050000Y-89400000D01*
X131250000Y-91000000D02*
X131250000Y-89400000D01*
X132050000Y-89400000D02*
X132050000Y-91000000D01*
X132050000Y-91000000D02*
X131250000Y-91000000D01*
G04 #@! TO.C,U8*
X139240000Y-76930000D02*
X146225000Y-76930000D01*
X139240000Y-79470000D02*
X139240000Y-76930000D01*
X146225000Y-76930000D02*
X146860000Y-77565000D01*
X146860000Y-77565000D02*
X146860000Y-79470000D01*
X146860000Y-79470000D02*
X139240000Y-79470000D01*
G04 #@! TO.C,C4*
X142900000Y-87300000D02*
X143300000Y-87300000D01*
X142900000Y-87500000D02*
X142900000Y-87300000D01*
X143300000Y-87300000D02*
X143300000Y-87500000D01*
X143300000Y-87500000D02*
X142900000Y-87500000D01*
G04 #@! TO.C,R8*
X135500000Y-94987500D02*
X137100000Y-94987500D01*
X135500000Y-95812500D02*
X135500000Y-94987500D01*
X137100000Y-94987500D02*
X137100000Y-95812500D01*
X137100000Y-95812500D02*
X135500000Y-95812500D01*
G04 #@! TO.C,R3*
X142900000Y-86700000D02*
X143300000Y-86700000D01*
X142900000Y-86900000D02*
X142900000Y-86700000D01*
X143300000Y-86700000D02*
X143300000Y-86900000D01*
X143300000Y-86900000D02*
X142900000Y-86900000D01*
G04 #@! TO.C,U7*
X148600000Y-84625000D02*
X148600000Y-90375000D01*
X148600000Y-84625000D02*
X152850000Y-84625000D01*
X148600000Y-86375000D02*
X149307107Y-86875000D01*
X148600000Y-90375000D02*
X152850000Y-90375000D01*
X149307107Y-86875000D02*
X148600000Y-87375000D01*
X152850000Y-84625000D02*
X152850000Y-90375000D01*
X150850000Y-86625000D02*
X150350000Y-86625000D01*
X150350000Y-87125000D01*
X150850000Y-87125000D01*
X150850000Y-86625000D01*
X150850000Y-87875000D02*
X150350000Y-87875000D01*
X150350000Y-88375000D01*
X150850000Y-88375000D01*
X150850000Y-87875000D01*
G04 #@! TO.C,R11*
X141350000Y-89150000D02*
X141750000Y-89150000D01*
X141350000Y-89350000D02*
X141350000Y-89150000D01*
X141750000Y-89150000D02*
X141750000Y-89350000D01*
X141750000Y-89350000D02*
X141350000Y-89350000D01*
G04 #@! TO.C,R4*
X143800000Y-88150000D02*
X144200000Y-88150000D01*
X143800000Y-88350000D02*
X143800000Y-88150000D01*
X144200000Y-88150000D02*
X144200000Y-88350000D01*
X144200000Y-88350000D02*
X143800000Y-88350000D01*
G04 #@! TO.C,C18*
X142500000Y-89550000D02*
X143000000Y-89550000D01*
X142500000Y-90550000D02*
X142500000Y-89550000D01*
X143000000Y-89550000D02*
X143000000Y-90550000D01*
X143000000Y-90550000D02*
X142500000Y-90550000D01*
G04 #@! TO.C,C10*
X131200000Y-86400000D02*
X131700000Y-86400000D01*
X131200000Y-87400000D02*
X131200000Y-86400000D01*
X131700000Y-86400000D02*
X131700000Y-87400000D01*
X131700000Y-87400000D02*
X131200000Y-87400000D01*
G04 #@! TO.C,R2*
X142100000Y-86750000D02*
X142300000Y-86750000D01*
X142100000Y-87150000D02*
X142100000Y-86750000D01*
X142300000Y-86750000D02*
X142300000Y-87150000D01*
X142300000Y-87150000D02*
X142100000Y-87150000D01*
G04 #@! TO.C,C8*
X142100000Y-82150000D02*
X142600000Y-82150000D01*
X142100000Y-83150000D02*
X142100000Y-82150000D01*
X142600000Y-82150000D02*
X142600000Y-83150000D01*
X142600000Y-83150000D02*
X142100000Y-83150000D01*
G04 #@! TO.C,C3*
X141400000Y-86750000D02*
X141600000Y-86750000D01*
X141400000Y-87150000D02*
X141400000Y-86750000D01*
X141600000Y-86750000D02*
X141600000Y-87150000D01*
X141600000Y-87150000D02*
X141400000Y-87150000D01*
G04 #@! TO.C,C6*
X133550000Y-88350000D02*
X133750000Y-88350000D01*
X133550000Y-88750000D02*
X133550000Y-88350000D01*
X133750000Y-88350000D02*
X133750000Y-88750000D01*
X133750000Y-88750000D02*
X133550000Y-88750000D01*
G04 #@! TO.C,R7*
X145930000Y-91575000D02*
X146470000Y-91575000D01*
X145930000Y-92625000D02*
X145930000Y-91575000D01*
X146470000Y-91575000D02*
X146470000Y-92625000D01*
X146470000Y-92625000D02*
X145930000Y-92625000D01*
G04 #@! TO.C,R9*
X141350000Y-90150000D02*
X141750000Y-90150000D01*
X141350000Y-90350000D02*
X141350000Y-90150000D01*
X141750000Y-90150000D02*
X141750000Y-90350000D01*
X141750000Y-90350000D02*
X141350000Y-90350000D01*
G04 #@! TD*
M02*
