G04 #@! TF.GenerationSoftware,KiCad,Pcbnew,9.0.4*
G04 #@! TF.CreationDate,2025-10-13T14:39:45-04:00*
G04 #@! TF.ProjectId,bldc motor controller,626c6463-206d-46f7-946f-7220636f6e74,rev?*
G04 #@! TF.SameCoordinates,Original*
G04 #@! TF.FileFunction,Copper,L4,Inr*
G04 #@! TF.FilePolarity,Positive*
%FSLAX46Y46*%
G04 Gerber Fmt 4.6, Leading zero omitted, Abs format (unit mm)*
G04 Created by KiCad (PCBNEW 9.0.4) date 2025-10-13 14:39:45*
%MOMM*%
%LPD*%
G01*
G04 APERTURE LIST*
G04 Aperture macros list*
%AMRoundRect*
0 Rectangle with rounded corners*
0 $1 Rounding radius*
0 $2 $3 $4 $5 $6 $7 $8 $9 X,Y pos of 4 corners*
0 Add a 4 corners polygon primitive as box body*
4,1,4,$2,$3,$4,$5,$6,$7,$8,$9,$2,$3,0*
0 Add four circle primitives for the rounded corners*
1,1,$1+$1,$2,$3*
1,1,$1+$1,$4,$5*
1,1,$1+$1,$6,$7*
1,1,$1+$1,$8,$9*
0 Add four rect primitives between the rounded corners*
20,1,$1+$1,$2,$3,$4,$5,0*
20,1,$1+$1,$4,$5,$6,$7,0*
20,1,$1+$1,$6,$7,$8,$9,0*
20,1,$1+$1,$8,$9,$2,$3,0*%
G04 Aperture macros list end*
G04 #@! TA.AperFunction,ComponentPad*
%ADD10R,0.850000X0.850000*%
G04 #@! TD*
G04 #@! TA.AperFunction,ComponentPad*
%ADD11C,0.850000*%
G04 #@! TD*
G04 #@! TA.AperFunction,ComponentPad*
%ADD12RoundRect,0.250000X-0.600000X-0.750000X0.600000X-0.750000X0.600000X0.750000X-0.600000X0.750000X0*%
G04 #@! TD*
G04 #@! TA.AperFunction,ComponentPad*
%ADD13O,1.700000X2.000000*%
G04 #@! TD*
G04 #@! TA.AperFunction,ComponentPad*
%ADD14R,1.700000X1.700000*%
G04 #@! TD*
G04 #@! TA.AperFunction,ComponentPad*
%ADD15C,1.700000*%
G04 #@! TD*
G04 #@! TA.AperFunction,ComponentPad*
%ADD16C,3.800000*%
G04 #@! TD*
G04 #@! TA.AperFunction,ViaPad*
%ADD17C,0.600000*%
G04 #@! TD*
G04 #@! TA.AperFunction,Conductor*
%ADD18C,0.200000*%
G04 #@! TD*
G04 #@! TA.AperFunction,Conductor*
%ADD19C,0.500000*%
G04 #@! TD*
G04 APERTURE END LIST*
D10*
G04 #@! TO.N,UART_TX*
G04 #@! TO.C,J1*
X145600000Y-85000000D03*
D11*
G04 #@! TO.N,UART_RX*
X145600000Y-84000000D03*
G04 #@! TO.N,TI_VREF*
X145600000Y-83000000D03*
G04 #@! TO.N,TI_AGND*
X145600000Y-82000000D03*
G04 #@! TD*
D12*
G04 #@! TO.N,-BATT*
G04 #@! TO.C,-BAT+1*
X140900000Y-96750000D03*
D13*
G04 #@! TO.N,+BATT*
X143400000Y-96750000D03*
G04 #@! TD*
D14*
G04 #@! TO.N,PHASE-A*
G04 #@! TO.C,U8*
X145590000Y-78200000D03*
D15*
G04 #@! TO.N,PHASE-B*
X143050000Y-78200000D03*
G04 #@! TO.N,PHASE-C*
X140510000Y-78200000D03*
G04 #@! TD*
D16*
G04 #@! TO.N,N/C*
G04 #@! TO.C,M2*
X136000000Y-79900000D03*
G04 #@! TD*
G04 #@! TO.N,N/C*
G04 #@! TO.C,M2*
X148850000Y-96300000D03*
G04 #@! TD*
D17*
G04 #@! TO.N,+BATT*
X135500000Y-94300000D03*
X141500000Y-82050000D03*
X131446446Y-85196446D03*
G04 #@! TO.N,TI_AGND*
X141746088Y-92560334D03*
X148050000Y-91550000D03*
X153100000Y-82000000D03*
X132950000Y-89050000D03*
X143829103Y-83630224D03*
X152178554Y-84099000D03*
X150800000Y-83400000D03*
X145200000Y-87650000D03*
X132850000Y-87200000D03*
X148000000Y-77650000D03*
G04 #@! TO.N,TI_VREF*
X142393614Y-88799279D03*
X143200000Y-82750000D03*
X153100000Y-84000000D03*
X151450000Y-93600000D03*
X134450000Y-83900000D03*
G04 #@! TO.N,I-LIMIT*
X142550000Y-84399998D03*
X132850000Y-88350000D03*
G04 #@! TO.N,TI_AVDD*
X142055022Y-83905023D03*
X130600000Y-85700000D03*
G04 #@! TO.N,Reset*
X146050000Y-88450000D03*
G04 #@! TO.N,SOA*
X146650000Y-87950000D03*
G04 #@! TO.N,SOB*
X146155099Y-87454948D03*
G04 #@! TO.N,SOC*
X148999991Y-84103030D03*
X144250000Y-89000000D03*
G04 #@! TO.N,BOOT0*
X148799995Y-91600000D03*
G04 #@! TO.N,TIM1_CH1N*
X132250000Y-92286454D03*
X149799995Y-84800000D03*
G04 #@! TO.N,TIM1_CH1*
X132842186Y-91857815D03*
X153450000Y-86950000D03*
G04 #@! TO.N,TI_FAULT*
X146650000Y-88950000D03*
X132500000Y-90100000D03*
G04 #@! TO.N,TIM1_CH3*
X153450000Y-87950000D03*
X138500000Y-94300000D03*
G04 #@! TO.N,TIM1_CH3N*
X145824293Y-89125707D03*
X138648055Y-92740948D03*
G04 #@! TO.N,TIM1_CH2N*
X147428554Y-84621446D03*
X132800000Y-93300000D03*
G04 #@! TO.N,TIM1_CH2*
X154000000Y-87450000D03*
X133499999Y-93108259D03*
G04 #@! TO.N,SDA1*
X147250000Y-79850000D03*
X153950000Y-90200000D03*
G04 #@! TO.N,NSS1*
X148299995Y-84100000D03*
X145450000Y-91801000D03*
G04 #@! TO.N,SCL1*
X148100000Y-82550000D03*
X154150000Y-89450000D03*
G04 #@! TO.N,ENAB_XL*
X147200000Y-83000000D03*
X151299995Y-92249995D03*
G04 #@! TO.N,SCK1*
X148799995Y-84800000D03*
X145700000Y-90800000D03*
G04 #@! TO.N,CAN_RX*
X153950000Y-88450000D03*
G04 #@! TO.N,ENAB_MAG*
X146659435Y-80225814D03*
X151799995Y-91649995D03*
G04 #@! TO.N,CAN_TX*
X153450000Y-88950000D03*
G04 #@! TO.N,-BATT*
X141500000Y-83200000D03*
G04 #@! TD*
D18*
G04 #@! TO.N,ENAB_MAG*
X150959514Y-82851013D02*
X150142485Y-82850987D01*
G04 #@! TO.N,SCK1*
X145657520Y-92301999D02*
X145242479Y-92301999D01*
X145242479Y-92301999D02*
X144949000Y-92008520D01*
G04 #@! TO.N,ENAB_XL*
X148601046Y-82414234D02*
X148601019Y-82757528D01*
G04 #@! TO.N,SDA1*
X153601023Y-86090488D02*
X152948996Y-86742477D01*
G04 #@! TO.N,SOC*
X146927581Y-84413936D02*
X146927550Y-84828965D01*
G04 #@! TO.N,TI_VREF*
X132300000Y-90604760D02*
X132299960Y-90601039D01*
X132296239Y-90601000D02*
X132299960Y-90601039D01*
X132302659Y-90611180D02*
X132299984Y-90608527D01*
X132300000Y-90604760D02*
X132299984Y-90608527D01*
X132300000Y-89595239D02*
X132299961Y-89598961D01*
X132296239Y-89599000D02*
X132299961Y-89598961D01*
X131999000Y-90307520D02*
X131999000Y-89892480D01*
X132289819Y-89601659D02*
X132292472Y-89598984D01*
X132296239Y-89599000D02*
X132292472Y-89598984D01*
X132289819Y-90598340D02*
X132292472Y-90601016D01*
X132296239Y-90601000D02*
X132292472Y-90601016D01*
D19*
G04 #@! TO.N,+BATT*
X134278324Y-82151000D02*
X131446443Y-84982844D01*
X141398999Y-82151000D02*
X134278324Y-82151000D01*
X141500000Y-82050000D02*
X141398999Y-82151000D01*
X131446461Y-92867092D02*
X131446443Y-84982844D01*
X137479351Y-98899988D02*
X131446461Y-92867092D01*
X137479351Y-98899988D02*
X141200000Y-98900000D01*
X141200000Y-98900000D02*
X143550000Y-96550000D01*
D18*
G04 #@! TO.N,TI_VREF*
X131999000Y-89892480D02*
X132289819Y-89601659D01*
X151450000Y-93600000D02*
X151091941Y-93241964D01*
X131999000Y-90307520D02*
X132289819Y-90598340D01*
X151091941Y-93241964D02*
X134933420Y-93241964D01*
X134933420Y-93241964D02*
X132302659Y-90611180D01*
X132300012Y-85050005D02*
X132300000Y-89595239D01*
X137494340Y-83899987D02*
X142393614Y-88799279D01*
X132300012Y-85050005D02*
X133450000Y-83900000D01*
X137494340Y-83899987D02*
X133450000Y-83900000D01*
G04 #@! TO.N,SOC*
X148999991Y-84103030D02*
X148999992Y-84091474D01*
X144250000Y-89000000D02*
X144249992Y-87506518D01*
X148999992Y-84091474D02*
X148507518Y-83598993D01*
X146927550Y-84828965D02*
X144249992Y-87506518D01*
X146927581Y-84413936D02*
X147742481Y-83599005D01*
X148507518Y-83598993D02*
X147742481Y-83599005D01*
G04 #@! TO.N,TI_FAULT*
X146650000Y-88950000D02*
X146649999Y-89008520D01*
X146649999Y-89008520D02*
X145558520Y-90099999D01*
X145558520Y-90099999D02*
X132500000Y-90100000D01*
G04 #@! TO.N,SDA1*
X147725000Y-80324999D02*
X147250000Y-79850000D01*
X150133520Y-80325000D02*
X147725000Y-80324999D01*
X153601015Y-83792473D02*
X153601023Y-86090488D01*
X152948995Y-89199002D02*
X153950000Y-90200000D01*
X152948995Y-89199002D02*
X152948996Y-86742477D01*
X150133520Y-80325000D02*
X153601015Y-83792473D01*
G04 #@! TO.N,NSS1*
X148299996Y-89208526D02*
X148299995Y-84100000D01*
X145450000Y-91801000D02*
X145707510Y-91800974D01*
X148299996Y-89208526D02*
X145707510Y-91800974D01*
G04 #@! TO.N,ENAB_XL*
X147251000Y-83050999D02*
X147200000Y-83000000D01*
X151300011Y-84608510D02*
X151299995Y-92249995D01*
X149105660Y-82414202D02*
X148601046Y-82414234D01*
X151300011Y-84608510D02*
X149105660Y-82414202D01*
X148307520Y-83050999D02*
X148601019Y-82757528D01*
X147251000Y-83050999D02*
X148307520Y-83050999D01*
G04 #@! TO.N,SCK1*
X148799995Y-84800000D02*
X148799988Y-89159523D01*
X145700000Y-90800000D02*
X144948995Y-91550998D01*
X148799988Y-89159523D02*
X145657520Y-92301999D01*
X144948995Y-91550998D02*
X144949000Y-92008520D01*
G04 #@! TO.N,ENAB_MAG*
X146659435Y-80225814D02*
X147258620Y-80825003D01*
X151677537Y-83569040D02*
X151677569Y-91527547D01*
X147258620Y-80825003D02*
X148116475Y-80825007D01*
X148116475Y-80825007D02*
X150142485Y-82850987D01*
X151799995Y-91649995D02*
X151677569Y-91527547D01*
X150959514Y-82851013D02*
X151677537Y-83569040D01*
G04 #@! TD*
M02*
