%TF.GenerationSoftware,KiCad,Pcbnew,9.0.4*%
%TF.CreationDate,2025-10-13T14:39:45-04:00*%
%TF.ProjectId,bldc motor controller,626c6463-206d-46f7-946f-7220636f6e74,rev?*%
%TF.SameCoordinates,Original*%
%TF.FileFunction,Drillmap*%
%TF.FilePolarity,Positive*%
%FSLAX45Y45*%
G04 Gerber Fmt 4.5, Leading zero omitted, Abs format (unit mm)*
G04 Created by KiCad (PCBNEW 9.0.4) date 2025-10-13 14:39:45*
%MOMM*%
%LPD*%
G01*
G04 APERTURE LIST*
%ADD10C,0.050000*%
%ADD11C,0.200000*%
%ADD12C,0.100000*%
%ADD13C,0.220000*%
G04 APERTURE END LIST*
D10*
X15550000Y-8800000D02*
G75*
G02*
X12950000Y-8800000I-1300000J0D01*
G01*
X12950000Y-8800000D02*
G75*
G02*
X15550000Y-8800000I1300000J0D01*
G01*
D11*
D12*
X13045000Y-8555000D02*
X13075000Y-8585000D01*
X13075000Y-8555000D02*
X13045000Y-8585000D01*
X13129645Y-8504645D02*
X13159645Y-8534645D01*
X13159645Y-8504645D02*
X13129645Y-8534645D01*
X13210000Y-9213645D02*
X13240000Y-9243645D01*
X13240000Y-9213645D02*
X13210000Y-9243645D01*
X13235000Y-8995000D02*
X13265000Y-9025000D01*
X13265000Y-8995000D02*
X13235000Y-9025000D01*
X13265000Y-9315000D02*
X13295000Y-9345000D01*
X13295000Y-9315000D02*
X13265000Y-9345000D01*
X13269219Y-9170782D02*
X13299219Y-9200782D01*
X13299219Y-9170782D02*
X13269219Y-9200782D01*
X13270000Y-8705000D02*
X13300000Y-8735000D01*
X13300000Y-8705000D02*
X13270000Y-8735000D01*
X13270000Y-8820000D02*
X13300000Y-8850000D01*
X13300000Y-8820000D02*
X13270000Y-8850000D01*
X13280000Y-8890000D02*
X13310000Y-8920000D01*
X13310000Y-8890000D02*
X13280000Y-8920000D01*
X13335000Y-9295826D02*
X13365000Y-9325826D01*
X13365000Y-9295826D02*
X13335000Y-9325826D01*
X13430000Y-8375000D02*
X13460000Y-8405000D01*
X13460000Y-8375000D02*
X13430000Y-8405000D01*
X13535000Y-9415000D02*
X13565000Y-9445000D01*
X13565000Y-9415000D02*
X13535000Y-9445000D01*
X13835000Y-9415000D02*
X13865000Y-9445000D01*
X13865000Y-9415000D02*
X13835000Y-9445000D01*
X13849805Y-9259095D02*
X13879805Y-9289095D01*
X13879805Y-9259095D02*
X13849805Y-9289095D01*
X14135000Y-8190000D02*
X14165000Y-8220000D01*
X14165000Y-8190000D02*
X14135000Y-8220000D01*
X14135000Y-8305000D02*
X14165000Y-8335000D01*
X14165000Y-8305000D02*
X14135000Y-8335000D01*
X14159609Y-9241033D02*
X14189609Y-9271033D01*
X14189609Y-9241033D02*
X14159609Y-9271033D01*
X14190502Y-8375502D02*
X14220502Y-8405502D01*
X14220502Y-8375502D02*
X14190502Y-8405502D01*
X14224361Y-8864928D02*
X14254361Y-8894928D01*
X14254361Y-8864928D02*
X14224361Y-8894928D01*
X14240000Y-8425000D02*
X14270000Y-8455000D01*
X14270000Y-8425000D02*
X14240000Y-8455000D01*
X14305000Y-8260000D02*
X14335000Y-8290000D01*
X14335000Y-8260000D02*
X14305000Y-8290000D01*
X14367910Y-8348022D02*
X14397910Y-8378022D01*
X14397910Y-8348022D02*
X14367910Y-8378022D01*
X14410000Y-8885000D02*
X14440000Y-8915000D01*
X14440000Y-8885000D02*
X14410000Y-8915000D01*
X14505000Y-8750000D02*
X14535000Y-8780000D01*
X14535000Y-8750000D02*
X14505000Y-8780000D01*
X14530000Y-9165100D02*
X14560000Y-9195100D01*
X14560000Y-9165100D02*
X14530000Y-9195100D01*
X14555000Y-9065000D02*
X14585000Y-9095000D01*
X14585000Y-9065000D02*
X14555000Y-9095000D01*
X14567429Y-8897571D02*
X14597429Y-8927571D01*
X14597429Y-8897571D02*
X14567429Y-8927571D01*
X14590000Y-8830000D02*
X14620000Y-8860000D01*
X14620000Y-8830000D02*
X14590000Y-8860000D01*
X14600510Y-8730495D02*
X14630510Y-8760495D01*
X14630510Y-8730495D02*
X14600510Y-8760495D01*
X14650000Y-8780000D02*
X14680000Y-8810000D01*
X14680000Y-8780000D02*
X14650000Y-8810000D01*
X14650000Y-8880000D02*
X14680000Y-8910000D01*
X14680000Y-8880000D02*
X14650000Y-8910000D01*
X14650943Y-8007581D02*
X14680943Y-8037581D01*
X14680943Y-8007581D02*
X14650943Y-8037581D01*
X14705000Y-8285000D02*
X14735000Y-8315000D01*
X14735000Y-8285000D02*
X14705000Y-8315000D01*
X14710000Y-7970000D02*
X14740000Y-8000000D01*
X14740000Y-7970000D02*
X14710000Y-8000000D01*
X14727855Y-8447145D02*
X14757855Y-8477145D01*
X14757855Y-8447145D02*
X14727855Y-8477145D01*
X14785000Y-7750000D02*
X14815000Y-7780000D01*
X14815000Y-7750000D02*
X14785000Y-7780000D01*
X14790000Y-9140000D02*
X14820000Y-9170000D01*
X14820000Y-9140000D02*
X14790000Y-9170000D01*
X14795000Y-8240000D02*
X14825000Y-8270000D01*
X14825000Y-8240000D02*
X14795000Y-8270000D01*
X14814999Y-8395000D02*
X14844999Y-8425000D01*
X14844999Y-8395000D02*
X14814999Y-8425000D01*
X14864999Y-8465000D02*
X14894999Y-8495000D01*
X14894999Y-8465000D02*
X14864999Y-8495000D01*
X14864999Y-9145000D02*
X14894999Y-9175000D01*
X14894999Y-9145000D02*
X14864999Y-9175000D01*
X14884999Y-8395303D02*
X14914999Y-8425303D01*
X14914999Y-8395303D02*
X14884999Y-8425303D01*
X14964999Y-8465000D02*
X14994999Y-8495000D01*
X14994999Y-8465000D02*
X14964999Y-8495000D01*
X15065000Y-8325000D02*
X15095000Y-8355000D01*
X15095000Y-8325000D02*
X15065000Y-8355000D01*
X15114999Y-9210000D02*
X15144999Y-9240000D01*
X15144999Y-9210000D02*
X15114999Y-9240000D01*
X15130000Y-9345000D02*
X15160000Y-9375000D01*
X15160000Y-9345000D02*
X15130000Y-9375000D01*
X15164999Y-9150000D02*
X15194999Y-9180000D01*
X15194999Y-9150000D02*
X15164999Y-9180000D01*
X15202855Y-8394900D02*
X15232855Y-8424900D01*
X15232855Y-8394900D02*
X15202855Y-8424900D01*
X15295000Y-8185000D02*
X15325000Y-8215000D01*
X15325000Y-8185000D02*
X15295000Y-8215000D01*
X15295000Y-8385000D02*
X15325000Y-8415000D01*
X15325000Y-8385000D02*
X15295000Y-8415000D01*
X15330000Y-8680000D02*
X15360000Y-8710000D01*
X15360000Y-8680000D02*
X15330000Y-8710000D01*
X15330000Y-8780000D02*
X15360000Y-8810000D01*
X15360000Y-8780000D02*
X15330000Y-8810000D01*
X15330000Y-8880000D02*
X15360000Y-8910000D01*
X15360000Y-8880000D02*
X15330000Y-8910000D01*
X15380000Y-8830000D02*
X15410000Y-8860000D01*
X15410000Y-8830000D02*
X15380000Y-8860000D01*
X15380000Y-9005000D02*
X15410000Y-9035000D01*
X15410000Y-9005000D02*
X15380000Y-9035000D01*
X15385000Y-8730000D02*
X15415000Y-8760000D01*
X15415000Y-8730000D02*
X15385000Y-8760000D01*
X15400000Y-8930000D02*
X15430000Y-8960000D01*
X15430000Y-8930000D02*
X15400000Y-8960000D01*
X14585000Y-8200000D02*
G75*
G02*
X14535000Y-8200000I-25000J0D01*
G01*
X14535000Y-8200000D02*
G75*
G02*
X14585000Y-8200000I25000J0D01*
G01*
X14585000Y-8300000D02*
G75*
G02*
X14535000Y-8300000I-25000J0D01*
G01*
X14535000Y-8300000D02*
G75*
G02*
X14585000Y-8300000I25000J0D01*
G01*
X14585000Y-8400000D02*
G75*
G02*
X14535000Y-8400000I-25000J0D01*
G01*
X14535000Y-8400000D02*
G75*
G02*
X14585000Y-8400000I25000J0D01*
G01*
X14585000Y-8500000D02*
G75*
G02*
X14535000Y-8500000I-25000J0D01*
G01*
X14535000Y-8500000D02*
G75*
G02*
X14585000Y-8500000I25000J0D01*
G01*
X14051000Y-7770000D02*
X14051000Y-7870000D01*
X14001000Y-7820000D02*
X14101000Y-7820000D01*
X14090000Y-9625000D02*
X14090000Y-9725000D01*
X14040000Y-9675000D02*
X14140000Y-9675000D01*
X14305000Y-7770000D02*
X14305000Y-7870000D01*
X14255000Y-7820000D02*
X14355000Y-7820000D01*
X14340000Y-9625000D02*
X14340000Y-9725000D01*
X14290000Y-9675000D02*
X14390000Y-9675000D01*
X14559000Y-7770000D02*
X14559000Y-7870000D01*
X14509000Y-7820000D02*
X14609000Y-7820000D01*
D13*
X13677782Y-8067782D02*
X13677782Y-7912217D01*
X13522217Y-7912217D01*
X13522217Y-8067782D01*
X13677782Y-8067782D01*
X14962782Y-9707783D02*
X14962782Y-9552218D01*
X14807217Y-9552218D01*
X14807217Y-9707783D01*
X14962782Y-9707783D01*
D11*
X13208277Y-10413984D02*
X13208277Y-10213984D01*
X13208277Y-10213984D02*
X13255896Y-10213984D01*
X13255896Y-10213984D02*
X13284467Y-10223508D01*
X13284467Y-10223508D02*
X13303515Y-10242555D01*
X13303515Y-10242555D02*
X13313039Y-10261603D01*
X13313039Y-10261603D02*
X13322562Y-10299698D01*
X13322562Y-10299698D02*
X13322562Y-10328270D01*
X13322562Y-10328270D02*
X13313039Y-10366365D01*
X13313039Y-10366365D02*
X13303515Y-10385412D01*
X13303515Y-10385412D02*
X13284467Y-10404460D01*
X13284467Y-10404460D02*
X13255896Y-10413984D01*
X13255896Y-10413984D02*
X13208277Y-10413984D01*
X13408277Y-10413984D02*
X13408277Y-10280650D01*
X13408277Y-10318746D02*
X13417801Y-10299698D01*
X13417801Y-10299698D02*
X13427324Y-10290174D01*
X13427324Y-10290174D02*
X13446372Y-10280650D01*
X13446372Y-10280650D02*
X13465420Y-10280650D01*
X13532086Y-10413984D02*
X13532086Y-10280650D01*
X13532086Y-10213984D02*
X13522562Y-10223508D01*
X13522562Y-10223508D02*
X13532086Y-10233031D01*
X13532086Y-10233031D02*
X13541610Y-10223508D01*
X13541610Y-10223508D02*
X13532086Y-10213984D01*
X13532086Y-10213984D02*
X13532086Y-10233031D01*
X13655896Y-10413984D02*
X13636848Y-10404460D01*
X13636848Y-10404460D02*
X13627324Y-10385412D01*
X13627324Y-10385412D02*
X13627324Y-10213984D01*
X13760658Y-10413984D02*
X13741610Y-10404460D01*
X13741610Y-10404460D02*
X13732086Y-10385412D01*
X13732086Y-10385412D02*
X13732086Y-10213984D01*
X13989229Y-10413984D02*
X13989229Y-10213984D01*
X13989229Y-10213984D02*
X14055896Y-10356841D01*
X14055896Y-10356841D02*
X14122562Y-10213984D01*
X14122562Y-10213984D02*
X14122562Y-10413984D01*
X14303515Y-10413984D02*
X14303515Y-10309222D01*
X14303515Y-10309222D02*
X14293991Y-10290174D01*
X14293991Y-10290174D02*
X14274943Y-10280650D01*
X14274943Y-10280650D02*
X14236848Y-10280650D01*
X14236848Y-10280650D02*
X14217801Y-10290174D01*
X14303515Y-10404460D02*
X14284467Y-10413984D01*
X14284467Y-10413984D02*
X14236848Y-10413984D01*
X14236848Y-10413984D02*
X14217801Y-10404460D01*
X14217801Y-10404460D02*
X14208277Y-10385412D01*
X14208277Y-10385412D02*
X14208277Y-10366365D01*
X14208277Y-10366365D02*
X14217801Y-10347317D01*
X14217801Y-10347317D02*
X14236848Y-10337793D01*
X14236848Y-10337793D02*
X14284467Y-10337793D01*
X14284467Y-10337793D02*
X14303515Y-10328270D01*
X14398753Y-10280650D02*
X14398753Y-10480650D01*
X14398753Y-10290174D02*
X14417801Y-10280650D01*
X14417801Y-10280650D02*
X14455896Y-10280650D01*
X14455896Y-10280650D02*
X14474943Y-10290174D01*
X14474943Y-10290174D02*
X14484467Y-10299698D01*
X14484467Y-10299698D02*
X14493991Y-10318746D01*
X14493991Y-10318746D02*
X14493991Y-10375889D01*
X14493991Y-10375889D02*
X14484467Y-10394936D01*
X14484467Y-10394936D02*
X14474943Y-10404460D01*
X14474943Y-10404460D02*
X14455896Y-10413984D01*
X14455896Y-10413984D02*
X14417801Y-10413984D01*
X14417801Y-10413984D02*
X14398753Y-10404460D01*
X14579705Y-10394936D02*
X14589229Y-10404460D01*
X14589229Y-10404460D02*
X14579705Y-10413984D01*
X14579705Y-10413984D02*
X14570182Y-10404460D01*
X14570182Y-10404460D02*
X14579705Y-10394936D01*
X14579705Y-10394936D02*
X14579705Y-10413984D01*
X14579705Y-10290174D02*
X14589229Y-10299698D01*
X14589229Y-10299698D02*
X14579705Y-10309222D01*
X14579705Y-10309222D02*
X14570182Y-10299698D01*
X14570182Y-10299698D02*
X14579705Y-10290174D01*
X14579705Y-10290174D02*
X14579705Y-10309222D01*
D12*
X12917500Y-10727500D02*
X12947500Y-10757500D01*
X12947500Y-10727500D02*
X12917500Y-10757500D01*
D11*
X13246372Y-10633984D02*
X13265420Y-10633984D01*
X13265420Y-10633984D02*
X13284467Y-10643508D01*
X13284467Y-10643508D02*
X13293991Y-10653031D01*
X13293991Y-10653031D02*
X13303515Y-10672079D01*
X13303515Y-10672079D02*
X13313039Y-10710174D01*
X13313039Y-10710174D02*
X13313039Y-10757793D01*
X13313039Y-10757793D02*
X13303515Y-10795889D01*
X13303515Y-10795889D02*
X13293991Y-10814936D01*
X13293991Y-10814936D02*
X13284467Y-10824460D01*
X13284467Y-10824460D02*
X13265420Y-10833984D01*
X13265420Y-10833984D02*
X13246372Y-10833984D01*
X13246372Y-10833984D02*
X13227324Y-10824460D01*
X13227324Y-10824460D02*
X13217801Y-10814936D01*
X13217801Y-10814936D02*
X13208277Y-10795889D01*
X13208277Y-10795889D02*
X13198753Y-10757793D01*
X13198753Y-10757793D02*
X13198753Y-10710174D01*
X13198753Y-10710174D02*
X13208277Y-10672079D01*
X13208277Y-10672079D02*
X13217801Y-10653031D01*
X13217801Y-10653031D02*
X13227324Y-10643508D01*
X13227324Y-10643508D02*
X13246372Y-10633984D01*
X13398753Y-10814936D02*
X13408277Y-10824460D01*
X13408277Y-10824460D02*
X13398753Y-10833984D01*
X13398753Y-10833984D02*
X13389229Y-10824460D01*
X13389229Y-10824460D02*
X13398753Y-10814936D01*
X13398753Y-10814936D02*
X13398753Y-10833984D01*
X13474943Y-10633984D02*
X13598753Y-10633984D01*
X13598753Y-10633984D02*
X13532086Y-10710174D01*
X13532086Y-10710174D02*
X13560658Y-10710174D01*
X13560658Y-10710174D02*
X13579705Y-10719698D01*
X13579705Y-10719698D02*
X13589229Y-10729222D01*
X13589229Y-10729222D02*
X13598753Y-10748270D01*
X13598753Y-10748270D02*
X13598753Y-10795889D01*
X13598753Y-10795889D02*
X13589229Y-10814936D01*
X13589229Y-10814936D02*
X13579705Y-10824460D01*
X13579705Y-10824460D02*
X13560658Y-10833984D01*
X13560658Y-10833984D02*
X13503515Y-10833984D01*
X13503515Y-10833984D02*
X13484467Y-10824460D01*
X13484467Y-10824460D02*
X13474943Y-10814936D01*
X13722562Y-10633984D02*
X13741610Y-10633984D01*
X13741610Y-10633984D02*
X13760658Y-10643508D01*
X13760658Y-10643508D02*
X13770182Y-10653031D01*
X13770182Y-10653031D02*
X13779705Y-10672079D01*
X13779705Y-10672079D02*
X13789229Y-10710174D01*
X13789229Y-10710174D02*
X13789229Y-10757793D01*
X13789229Y-10757793D02*
X13779705Y-10795889D01*
X13779705Y-10795889D02*
X13770182Y-10814936D01*
X13770182Y-10814936D02*
X13760658Y-10824460D01*
X13760658Y-10824460D02*
X13741610Y-10833984D01*
X13741610Y-10833984D02*
X13722562Y-10833984D01*
X13722562Y-10833984D02*
X13703515Y-10824460D01*
X13703515Y-10824460D02*
X13693991Y-10814936D01*
X13693991Y-10814936D02*
X13684467Y-10795889D01*
X13684467Y-10795889D02*
X13674943Y-10757793D01*
X13674943Y-10757793D02*
X13674943Y-10710174D01*
X13674943Y-10710174D02*
X13684467Y-10672079D01*
X13684467Y-10672079D02*
X13693991Y-10653031D01*
X13693991Y-10653031D02*
X13703515Y-10643508D01*
X13703515Y-10643508D02*
X13722562Y-10633984D01*
X13913039Y-10633984D02*
X13932086Y-10633984D01*
X13932086Y-10633984D02*
X13951134Y-10643508D01*
X13951134Y-10643508D02*
X13960658Y-10653031D01*
X13960658Y-10653031D02*
X13970182Y-10672079D01*
X13970182Y-10672079D02*
X13979705Y-10710174D01*
X13979705Y-10710174D02*
X13979705Y-10757793D01*
X13979705Y-10757793D02*
X13970182Y-10795889D01*
X13970182Y-10795889D02*
X13960658Y-10814936D01*
X13960658Y-10814936D02*
X13951134Y-10824460D01*
X13951134Y-10824460D02*
X13932086Y-10833984D01*
X13932086Y-10833984D02*
X13913039Y-10833984D01*
X13913039Y-10833984D02*
X13893991Y-10824460D01*
X13893991Y-10824460D02*
X13884467Y-10814936D01*
X13884467Y-10814936D02*
X13874943Y-10795889D01*
X13874943Y-10795889D02*
X13865420Y-10757793D01*
X13865420Y-10757793D02*
X13865420Y-10710174D01*
X13865420Y-10710174D02*
X13874943Y-10672079D01*
X13874943Y-10672079D02*
X13884467Y-10653031D01*
X13884467Y-10653031D02*
X13893991Y-10643508D01*
X13893991Y-10643508D02*
X13913039Y-10633984D01*
X14065420Y-10833984D02*
X14065420Y-10700650D01*
X14065420Y-10719698D02*
X14074943Y-10710174D01*
X14074943Y-10710174D02*
X14093991Y-10700650D01*
X14093991Y-10700650D02*
X14122563Y-10700650D01*
X14122563Y-10700650D02*
X14141610Y-10710174D01*
X14141610Y-10710174D02*
X14151134Y-10729222D01*
X14151134Y-10729222D02*
X14151134Y-10833984D01*
X14151134Y-10729222D02*
X14160658Y-10710174D01*
X14160658Y-10710174D02*
X14179705Y-10700650D01*
X14179705Y-10700650D02*
X14208277Y-10700650D01*
X14208277Y-10700650D02*
X14227324Y-10710174D01*
X14227324Y-10710174D02*
X14236848Y-10729222D01*
X14236848Y-10729222D02*
X14236848Y-10833984D01*
X14332086Y-10833984D02*
X14332086Y-10700650D01*
X14332086Y-10719698D02*
X14341610Y-10710174D01*
X14341610Y-10710174D02*
X14360658Y-10700650D01*
X14360658Y-10700650D02*
X14389229Y-10700650D01*
X14389229Y-10700650D02*
X14408277Y-10710174D01*
X14408277Y-10710174D02*
X14417801Y-10729222D01*
X14417801Y-10729222D02*
X14417801Y-10833984D01*
X14417801Y-10729222D02*
X14427324Y-10710174D01*
X14427324Y-10710174D02*
X14446372Y-10700650D01*
X14446372Y-10700650D02*
X14474943Y-10700650D01*
X14474943Y-10700650D02*
X14493991Y-10710174D01*
X14493991Y-10710174D02*
X14503515Y-10729222D01*
X14503515Y-10729222D02*
X14503515Y-10833984D01*
X14893991Y-10624460D02*
X14722563Y-10881603D01*
X15151134Y-10633984D02*
X15170182Y-10633984D01*
X15170182Y-10633984D02*
X15189229Y-10643508D01*
X15189229Y-10643508D02*
X15198753Y-10653031D01*
X15198753Y-10653031D02*
X15208277Y-10672079D01*
X15208277Y-10672079D02*
X15217801Y-10710174D01*
X15217801Y-10710174D02*
X15217801Y-10757793D01*
X15217801Y-10757793D02*
X15208277Y-10795889D01*
X15208277Y-10795889D02*
X15198753Y-10814936D01*
X15198753Y-10814936D02*
X15189229Y-10824460D01*
X15189229Y-10824460D02*
X15170182Y-10833984D01*
X15170182Y-10833984D02*
X15151134Y-10833984D01*
X15151134Y-10833984D02*
X15132086Y-10824460D01*
X15132086Y-10824460D02*
X15122563Y-10814936D01*
X15122563Y-10814936D02*
X15113039Y-10795889D01*
X15113039Y-10795889D02*
X15103515Y-10757793D01*
X15103515Y-10757793D02*
X15103515Y-10710174D01*
X15103515Y-10710174D02*
X15113039Y-10672079D01*
X15113039Y-10672079D02*
X15122563Y-10653031D01*
X15122563Y-10653031D02*
X15132086Y-10643508D01*
X15132086Y-10643508D02*
X15151134Y-10633984D01*
X15303515Y-10814936D02*
X15313039Y-10824460D01*
X15313039Y-10824460D02*
X15303515Y-10833984D01*
X15303515Y-10833984D02*
X15293991Y-10824460D01*
X15293991Y-10824460D02*
X15303515Y-10814936D01*
X15303515Y-10814936D02*
X15303515Y-10833984D01*
X15436848Y-10633984D02*
X15455896Y-10633984D01*
X15455896Y-10633984D02*
X15474944Y-10643508D01*
X15474944Y-10643508D02*
X15484467Y-10653031D01*
X15484467Y-10653031D02*
X15493991Y-10672079D01*
X15493991Y-10672079D02*
X15503515Y-10710174D01*
X15503515Y-10710174D02*
X15503515Y-10757793D01*
X15503515Y-10757793D02*
X15493991Y-10795889D01*
X15493991Y-10795889D02*
X15484467Y-10814936D01*
X15484467Y-10814936D02*
X15474944Y-10824460D01*
X15474944Y-10824460D02*
X15455896Y-10833984D01*
X15455896Y-10833984D02*
X15436848Y-10833984D01*
X15436848Y-10833984D02*
X15417801Y-10824460D01*
X15417801Y-10824460D02*
X15408277Y-10814936D01*
X15408277Y-10814936D02*
X15398753Y-10795889D01*
X15398753Y-10795889D02*
X15389229Y-10757793D01*
X15389229Y-10757793D02*
X15389229Y-10710174D01*
X15389229Y-10710174D02*
X15398753Y-10672079D01*
X15398753Y-10672079D02*
X15408277Y-10653031D01*
X15408277Y-10653031D02*
X15417801Y-10643508D01*
X15417801Y-10643508D02*
X15436848Y-10633984D01*
X15693991Y-10833984D02*
X15579706Y-10833984D01*
X15636848Y-10833984D02*
X15636848Y-10633984D01*
X15636848Y-10633984D02*
X15617801Y-10662555D01*
X15617801Y-10662555D02*
X15598753Y-10681603D01*
X15598753Y-10681603D02*
X15579706Y-10691127D01*
X15884467Y-10833984D02*
X15770182Y-10833984D01*
X15827325Y-10833984D02*
X15827325Y-10633984D01*
X15827325Y-10633984D02*
X15808277Y-10662555D01*
X15808277Y-10662555D02*
X15789229Y-10681603D01*
X15789229Y-10681603D02*
X15770182Y-10691127D01*
X15998753Y-10719698D02*
X15979706Y-10710174D01*
X15979706Y-10710174D02*
X15970182Y-10700650D01*
X15970182Y-10700650D02*
X15960658Y-10681603D01*
X15960658Y-10681603D02*
X15960658Y-10672079D01*
X15960658Y-10672079D02*
X15970182Y-10653031D01*
X15970182Y-10653031D02*
X15979706Y-10643508D01*
X15979706Y-10643508D02*
X15998753Y-10633984D01*
X15998753Y-10633984D02*
X16036848Y-10633984D01*
X16036848Y-10633984D02*
X16055896Y-10643508D01*
X16055896Y-10643508D02*
X16065420Y-10653031D01*
X16065420Y-10653031D02*
X16074944Y-10672079D01*
X16074944Y-10672079D02*
X16074944Y-10681603D01*
X16074944Y-10681603D02*
X16065420Y-10700650D01*
X16065420Y-10700650D02*
X16055896Y-10710174D01*
X16055896Y-10710174D02*
X16036848Y-10719698D01*
X16036848Y-10719698D02*
X15998753Y-10719698D01*
X15998753Y-10719698D02*
X15979706Y-10729222D01*
X15979706Y-10729222D02*
X15970182Y-10738746D01*
X15970182Y-10738746D02*
X15960658Y-10757793D01*
X15960658Y-10757793D02*
X15960658Y-10795889D01*
X15960658Y-10795889D02*
X15970182Y-10814936D01*
X15970182Y-10814936D02*
X15979706Y-10824460D01*
X15979706Y-10824460D02*
X15998753Y-10833984D01*
X15998753Y-10833984D02*
X16036848Y-10833984D01*
X16036848Y-10833984D02*
X16055896Y-10824460D01*
X16055896Y-10824460D02*
X16065420Y-10814936D01*
X16065420Y-10814936D02*
X16074944Y-10795889D01*
X16074944Y-10795889D02*
X16074944Y-10757793D01*
X16074944Y-10757793D02*
X16065420Y-10738746D01*
X16065420Y-10738746D02*
X16055896Y-10729222D01*
X16055896Y-10729222D02*
X16036848Y-10719698D01*
X16151134Y-10633984D02*
X16151134Y-10672079D01*
X16227325Y-10633984D02*
X16227325Y-10672079D01*
X16522563Y-10910174D02*
X16513039Y-10900650D01*
X16513039Y-10900650D02*
X16493991Y-10872079D01*
X16493991Y-10872079D02*
X16484468Y-10853031D01*
X16484468Y-10853031D02*
X16474944Y-10824460D01*
X16474944Y-10824460D02*
X16465420Y-10776841D01*
X16465420Y-10776841D02*
X16465420Y-10738746D01*
X16465420Y-10738746D02*
X16474944Y-10691127D01*
X16474944Y-10691127D02*
X16484468Y-10662555D01*
X16484468Y-10662555D02*
X16493991Y-10643508D01*
X16493991Y-10643508D02*
X16513039Y-10614936D01*
X16513039Y-10614936D02*
X16522563Y-10605412D01*
X16693991Y-10633984D02*
X16598753Y-10633984D01*
X16598753Y-10633984D02*
X16589229Y-10729222D01*
X16589229Y-10729222D02*
X16598753Y-10719698D01*
X16598753Y-10719698D02*
X16617801Y-10710174D01*
X16617801Y-10710174D02*
X16665420Y-10710174D01*
X16665420Y-10710174D02*
X16684468Y-10719698D01*
X16684468Y-10719698D02*
X16693991Y-10729222D01*
X16693991Y-10729222D02*
X16703515Y-10748270D01*
X16703515Y-10748270D02*
X16703515Y-10795889D01*
X16703515Y-10795889D02*
X16693991Y-10814936D01*
X16693991Y-10814936D02*
X16684468Y-10824460D01*
X16684468Y-10824460D02*
X16665420Y-10833984D01*
X16665420Y-10833984D02*
X16617801Y-10833984D01*
X16617801Y-10833984D02*
X16598753Y-10824460D01*
X16598753Y-10824460D02*
X16589229Y-10814936D01*
X16770182Y-10633984D02*
X16903515Y-10633984D01*
X16903515Y-10633984D02*
X16817801Y-10833984D01*
X17132087Y-10833984D02*
X17132087Y-10633984D01*
X17217801Y-10833984D02*
X17217801Y-10729222D01*
X17217801Y-10729222D02*
X17208277Y-10710174D01*
X17208277Y-10710174D02*
X17189230Y-10700650D01*
X17189230Y-10700650D02*
X17160658Y-10700650D01*
X17160658Y-10700650D02*
X17141611Y-10710174D01*
X17141611Y-10710174D02*
X17132087Y-10719698D01*
X17341611Y-10833984D02*
X17322563Y-10824460D01*
X17322563Y-10824460D02*
X17313039Y-10814936D01*
X17313039Y-10814936D02*
X17303515Y-10795889D01*
X17303515Y-10795889D02*
X17303515Y-10738746D01*
X17303515Y-10738746D02*
X17313039Y-10719698D01*
X17313039Y-10719698D02*
X17322563Y-10710174D01*
X17322563Y-10710174D02*
X17341611Y-10700650D01*
X17341611Y-10700650D02*
X17370182Y-10700650D01*
X17370182Y-10700650D02*
X17389230Y-10710174D01*
X17389230Y-10710174D02*
X17398753Y-10719698D01*
X17398753Y-10719698D02*
X17408277Y-10738746D01*
X17408277Y-10738746D02*
X17408277Y-10795889D01*
X17408277Y-10795889D02*
X17398753Y-10814936D01*
X17398753Y-10814936D02*
X17389230Y-10824460D01*
X17389230Y-10824460D02*
X17370182Y-10833984D01*
X17370182Y-10833984D02*
X17341611Y-10833984D01*
X17522563Y-10833984D02*
X17503515Y-10824460D01*
X17503515Y-10824460D02*
X17493992Y-10805412D01*
X17493992Y-10805412D02*
X17493992Y-10633984D01*
X17674944Y-10824460D02*
X17655896Y-10833984D01*
X17655896Y-10833984D02*
X17617801Y-10833984D01*
X17617801Y-10833984D02*
X17598753Y-10824460D01*
X17598753Y-10824460D02*
X17589230Y-10805412D01*
X17589230Y-10805412D02*
X17589230Y-10729222D01*
X17589230Y-10729222D02*
X17598753Y-10710174D01*
X17598753Y-10710174D02*
X17617801Y-10700650D01*
X17617801Y-10700650D02*
X17655896Y-10700650D01*
X17655896Y-10700650D02*
X17674944Y-10710174D01*
X17674944Y-10710174D02*
X17684468Y-10729222D01*
X17684468Y-10729222D02*
X17684468Y-10748270D01*
X17684468Y-10748270D02*
X17589230Y-10767317D01*
X17760658Y-10824460D02*
X17779706Y-10833984D01*
X17779706Y-10833984D02*
X17817801Y-10833984D01*
X17817801Y-10833984D02*
X17836849Y-10824460D01*
X17836849Y-10824460D02*
X17846373Y-10805412D01*
X17846373Y-10805412D02*
X17846373Y-10795889D01*
X17846373Y-10795889D02*
X17836849Y-10776841D01*
X17836849Y-10776841D02*
X17817801Y-10767317D01*
X17817801Y-10767317D02*
X17789230Y-10767317D01*
X17789230Y-10767317D02*
X17770182Y-10757793D01*
X17770182Y-10757793D02*
X17760658Y-10738746D01*
X17760658Y-10738746D02*
X17760658Y-10729222D01*
X17760658Y-10729222D02*
X17770182Y-10710174D01*
X17770182Y-10710174D02*
X17789230Y-10700650D01*
X17789230Y-10700650D02*
X17817801Y-10700650D01*
X17817801Y-10700650D02*
X17836849Y-10710174D01*
X17913039Y-10910174D02*
X17922563Y-10900650D01*
X17922563Y-10900650D02*
X17941611Y-10872079D01*
X17941611Y-10872079D02*
X17951134Y-10853031D01*
X17951134Y-10853031D02*
X17960658Y-10824460D01*
X17960658Y-10824460D02*
X17970182Y-10776841D01*
X17970182Y-10776841D02*
X17970182Y-10738746D01*
X17970182Y-10738746D02*
X17960658Y-10691127D01*
X17960658Y-10691127D02*
X17951134Y-10662555D01*
X17951134Y-10662555D02*
X17941611Y-10643508D01*
X17941611Y-10643508D02*
X17922563Y-10614936D01*
X17922563Y-10614936D02*
X17913039Y-10605412D01*
D12*
X12947500Y-11006500D02*
G75*
G02*
X12897500Y-11006500I-25000J0D01*
G01*
X12897500Y-11006500D02*
G75*
G02*
X12947500Y-11006500I25000J0D01*
G01*
D11*
X13246372Y-10897984D02*
X13265420Y-10897984D01*
X13265420Y-10897984D02*
X13284467Y-10907508D01*
X13284467Y-10907508D02*
X13293991Y-10917031D01*
X13293991Y-10917031D02*
X13303515Y-10936079D01*
X13303515Y-10936079D02*
X13313039Y-10974174D01*
X13313039Y-10974174D02*
X13313039Y-11021793D01*
X13313039Y-11021793D02*
X13303515Y-11059889D01*
X13303515Y-11059889D02*
X13293991Y-11078936D01*
X13293991Y-11078936D02*
X13284467Y-11088460D01*
X13284467Y-11088460D02*
X13265420Y-11097984D01*
X13265420Y-11097984D02*
X13246372Y-11097984D01*
X13246372Y-11097984D02*
X13227324Y-11088460D01*
X13227324Y-11088460D02*
X13217801Y-11078936D01*
X13217801Y-11078936D02*
X13208277Y-11059889D01*
X13208277Y-11059889D02*
X13198753Y-11021793D01*
X13198753Y-11021793D02*
X13198753Y-10974174D01*
X13198753Y-10974174D02*
X13208277Y-10936079D01*
X13208277Y-10936079D02*
X13217801Y-10917031D01*
X13217801Y-10917031D02*
X13227324Y-10907508D01*
X13227324Y-10907508D02*
X13246372Y-10897984D01*
X13398753Y-11078936D02*
X13408277Y-11088460D01*
X13408277Y-11088460D02*
X13398753Y-11097984D01*
X13398753Y-11097984D02*
X13389229Y-11088460D01*
X13389229Y-11088460D02*
X13398753Y-11078936D01*
X13398753Y-11078936D02*
X13398753Y-11097984D01*
X13589229Y-10897984D02*
X13493991Y-10897984D01*
X13493991Y-10897984D02*
X13484467Y-10993222D01*
X13484467Y-10993222D02*
X13493991Y-10983698D01*
X13493991Y-10983698D02*
X13513039Y-10974174D01*
X13513039Y-10974174D02*
X13560658Y-10974174D01*
X13560658Y-10974174D02*
X13579705Y-10983698D01*
X13579705Y-10983698D02*
X13589229Y-10993222D01*
X13589229Y-10993222D02*
X13598753Y-11012270D01*
X13598753Y-11012270D02*
X13598753Y-11059889D01*
X13598753Y-11059889D02*
X13589229Y-11078936D01*
X13589229Y-11078936D02*
X13579705Y-11088460D01*
X13579705Y-11088460D02*
X13560658Y-11097984D01*
X13560658Y-11097984D02*
X13513039Y-11097984D01*
X13513039Y-11097984D02*
X13493991Y-11088460D01*
X13493991Y-11088460D02*
X13484467Y-11078936D01*
X13722562Y-10897984D02*
X13741610Y-10897984D01*
X13741610Y-10897984D02*
X13760658Y-10907508D01*
X13760658Y-10907508D02*
X13770182Y-10917031D01*
X13770182Y-10917031D02*
X13779705Y-10936079D01*
X13779705Y-10936079D02*
X13789229Y-10974174D01*
X13789229Y-10974174D02*
X13789229Y-11021793D01*
X13789229Y-11021793D02*
X13779705Y-11059889D01*
X13779705Y-11059889D02*
X13770182Y-11078936D01*
X13770182Y-11078936D02*
X13760658Y-11088460D01*
X13760658Y-11088460D02*
X13741610Y-11097984D01*
X13741610Y-11097984D02*
X13722562Y-11097984D01*
X13722562Y-11097984D02*
X13703515Y-11088460D01*
X13703515Y-11088460D02*
X13693991Y-11078936D01*
X13693991Y-11078936D02*
X13684467Y-11059889D01*
X13684467Y-11059889D02*
X13674943Y-11021793D01*
X13674943Y-11021793D02*
X13674943Y-10974174D01*
X13674943Y-10974174D02*
X13684467Y-10936079D01*
X13684467Y-10936079D02*
X13693991Y-10917031D01*
X13693991Y-10917031D02*
X13703515Y-10907508D01*
X13703515Y-10907508D02*
X13722562Y-10897984D01*
X13913039Y-10897984D02*
X13932086Y-10897984D01*
X13932086Y-10897984D02*
X13951134Y-10907508D01*
X13951134Y-10907508D02*
X13960658Y-10917031D01*
X13960658Y-10917031D02*
X13970182Y-10936079D01*
X13970182Y-10936079D02*
X13979705Y-10974174D01*
X13979705Y-10974174D02*
X13979705Y-11021793D01*
X13979705Y-11021793D02*
X13970182Y-11059889D01*
X13970182Y-11059889D02*
X13960658Y-11078936D01*
X13960658Y-11078936D02*
X13951134Y-11088460D01*
X13951134Y-11088460D02*
X13932086Y-11097984D01*
X13932086Y-11097984D02*
X13913039Y-11097984D01*
X13913039Y-11097984D02*
X13893991Y-11088460D01*
X13893991Y-11088460D02*
X13884467Y-11078936D01*
X13884467Y-11078936D02*
X13874943Y-11059889D01*
X13874943Y-11059889D02*
X13865420Y-11021793D01*
X13865420Y-11021793D02*
X13865420Y-10974174D01*
X13865420Y-10974174D02*
X13874943Y-10936079D01*
X13874943Y-10936079D02*
X13884467Y-10917031D01*
X13884467Y-10917031D02*
X13893991Y-10907508D01*
X13893991Y-10907508D02*
X13913039Y-10897984D01*
X14065420Y-11097984D02*
X14065420Y-10964650D01*
X14065420Y-10983698D02*
X14074943Y-10974174D01*
X14074943Y-10974174D02*
X14093991Y-10964650D01*
X14093991Y-10964650D02*
X14122563Y-10964650D01*
X14122563Y-10964650D02*
X14141610Y-10974174D01*
X14141610Y-10974174D02*
X14151134Y-10993222D01*
X14151134Y-10993222D02*
X14151134Y-11097984D01*
X14151134Y-10993222D02*
X14160658Y-10974174D01*
X14160658Y-10974174D02*
X14179705Y-10964650D01*
X14179705Y-10964650D02*
X14208277Y-10964650D01*
X14208277Y-10964650D02*
X14227324Y-10974174D01*
X14227324Y-10974174D02*
X14236848Y-10993222D01*
X14236848Y-10993222D02*
X14236848Y-11097984D01*
X14332086Y-11097984D02*
X14332086Y-10964650D01*
X14332086Y-10983698D02*
X14341610Y-10974174D01*
X14341610Y-10974174D02*
X14360658Y-10964650D01*
X14360658Y-10964650D02*
X14389229Y-10964650D01*
X14389229Y-10964650D02*
X14408277Y-10974174D01*
X14408277Y-10974174D02*
X14417801Y-10993222D01*
X14417801Y-10993222D02*
X14417801Y-11097984D01*
X14417801Y-10993222D02*
X14427324Y-10974174D01*
X14427324Y-10974174D02*
X14446372Y-10964650D01*
X14446372Y-10964650D02*
X14474943Y-10964650D01*
X14474943Y-10964650D02*
X14493991Y-10974174D01*
X14493991Y-10974174D02*
X14503515Y-10993222D01*
X14503515Y-10993222D02*
X14503515Y-11097984D01*
X14893991Y-10888460D02*
X14722563Y-11145603D01*
X15151134Y-10897984D02*
X15170182Y-10897984D01*
X15170182Y-10897984D02*
X15189229Y-10907508D01*
X15189229Y-10907508D02*
X15198753Y-10917031D01*
X15198753Y-10917031D02*
X15208277Y-10936079D01*
X15208277Y-10936079D02*
X15217801Y-10974174D01*
X15217801Y-10974174D02*
X15217801Y-11021793D01*
X15217801Y-11021793D02*
X15208277Y-11059889D01*
X15208277Y-11059889D02*
X15198753Y-11078936D01*
X15198753Y-11078936D02*
X15189229Y-11088460D01*
X15189229Y-11088460D02*
X15170182Y-11097984D01*
X15170182Y-11097984D02*
X15151134Y-11097984D01*
X15151134Y-11097984D02*
X15132086Y-11088460D01*
X15132086Y-11088460D02*
X15122563Y-11078936D01*
X15122563Y-11078936D02*
X15113039Y-11059889D01*
X15113039Y-11059889D02*
X15103515Y-11021793D01*
X15103515Y-11021793D02*
X15103515Y-10974174D01*
X15103515Y-10974174D02*
X15113039Y-10936079D01*
X15113039Y-10936079D02*
X15122563Y-10917031D01*
X15122563Y-10917031D02*
X15132086Y-10907508D01*
X15132086Y-10907508D02*
X15151134Y-10897984D01*
X15303515Y-11078936D02*
X15313039Y-11088460D01*
X15313039Y-11088460D02*
X15303515Y-11097984D01*
X15303515Y-11097984D02*
X15293991Y-11088460D01*
X15293991Y-11088460D02*
X15303515Y-11078936D01*
X15303515Y-11078936D02*
X15303515Y-11097984D01*
X15436848Y-10897984D02*
X15455896Y-10897984D01*
X15455896Y-10897984D02*
X15474944Y-10907508D01*
X15474944Y-10907508D02*
X15484467Y-10917031D01*
X15484467Y-10917031D02*
X15493991Y-10936079D01*
X15493991Y-10936079D02*
X15503515Y-10974174D01*
X15503515Y-10974174D02*
X15503515Y-11021793D01*
X15503515Y-11021793D02*
X15493991Y-11059889D01*
X15493991Y-11059889D02*
X15484467Y-11078936D01*
X15484467Y-11078936D02*
X15474944Y-11088460D01*
X15474944Y-11088460D02*
X15455896Y-11097984D01*
X15455896Y-11097984D02*
X15436848Y-11097984D01*
X15436848Y-11097984D02*
X15417801Y-11088460D01*
X15417801Y-11088460D02*
X15408277Y-11078936D01*
X15408277Y-11078936D02*
X15398753Y-11059889D01*
X15398753Y-11059889D02*
X15389229Y-11021793D01*
X15389229Y-11021793D02*
X15389229Y-10974174D01*
X15389229Y-10974174D02*
X15398753Y-10936079D01*
X15398753Y-10936079D02*
X15408277Y-10917031D01*
X15408277Y-10917031D02*
X15417801Y-10907508D01*
X15417801Y-10907508D02*
X15436848Y-10897984D01*
X15693991Y-11097984D02*
X15579706Y-11097984D01*
X15636848Y-11097984D02*
X15636848Y-10897984D01*
X15636848Y-10897984D02*
X15617801Y-10926555D01*
X15617801Y-10926555D02*
X15598753Y-10945603D01*
X15598753Y-10945603D02*
X15579706Y-10955127D01*
X15789229Y-11097984D02*
X15827325Y-11097984D01*
X15827325Y-11097984D02*
X15846372Y-11088460D01*
X15846372Y-11088460D02*
X15855896Y-11078936D01*
X15855896Y-11078936D02*
X15874944Y-11050365D01*
X15874944Y-11050365D02*
X15884467Y-11012270D01*
X15884467Y-11012270D02*
X15884467Y-10936079D01*
X15884467Y-10936079D02*
X15874944Y-10917031D01*
X15874944Y-10917031D02*
X15865420Y-10907508D01*
X15865420Y-10907508D02*
X15846372Y-10897984D01*
X15846372Y-10897984D02*
X15808277Y-10897984D01*
X15808277Y-10897984D02*
X15789229Y-10907508D01*
X15789229Y-10907508D02*
X15779706Y-10917031D01*
X15779706Y-10917031D02*
X15770182Y-10936079D01*
X15770182Y-10936079D02*
X15770182Y-10983698D01*
X15770182Y-10983698D02*
X15779706Y-11002746D01*
X15779706Y-11002746D02*
X15789229Y-11012270D01*
X15789229Y-11012270D02*
X15808277Y-11021793D01*
X15808277Y-11021793D02*
X15846372Y-11021793D01*
X15846372Y-11021793D02*
X15865420Y-11012270D01*
X15865420Y-11012270D02*
X15874944Y-11002746D01*
X15874944Y-11002746D02*
X15884467Y-10983698D01*
X15951134Y-10897984D02*
X16084467Y-10897984D01*
X16084467Y-10897984D02*
X15998753Y-11097984D01*
X16151134Y-10897984D02*
X16151134Y-10936079D01*
X16227325Y-10897984D02*
X16227325Y-10936079D01*
X16522563Y-11174174D02*
X16513039Y-11164650D01*
X16513039Y-11164650D02*
X16493991Y-11136079D01*
X16493991Y-11136079D02*
X16484468Y-11117031D01*
X16484468Y-11117031D02*
X16474944Y-11088460D01*
X16474944Y-11088460D02*
X16465420Y-11040841D01*
X16465420Y-11040841D02*
X16465420Y-11002746D01*
X16465420Y-11002746D02*
X16474944Y-10955127D01*
X16474944Y-10955127D02*
X16484468Y-10926555D01*
X16484468Y-10926555D02*
X16493991Y-10907508D01*
X16493991Y-10907508D02*
X16513039Y-10878936D01*
X16513039Y-10878936D02*
X16522563Y-10869412D01*
X16684468Y-10964650D02*
X16684468Y-11097984D01*
X16636848Y-10888460D02*
X16589229Y-11031317D01*
X16589229Y-11031317D02*
X16713039Y-11031317D01*
X16941611Y-11097984D02*
X16941611Y-10897984D01*
X17027325Y-11097984D02*
X17027325Y-10993222D01*
X17027325Y-10993222D02*
X17017801Y-10974174D01*
X17017801Y-10974174D02*
X16998753Y-10964650D01*
X16998753Y-10964650D02*
X16970182Y-10964650D01*
X16970182Y-10964650D02*
X16951134Y-10974174D01*
X16951134Y-10974174D02*
X16941611Y-10983698D01*
X17151134Y-11097984D02*
X17132087Y-11088460D01*
X17132087Y-11088460D02*
X17122563Y-11078936D01*
X17122563Y-11078936D02*
X17113039Y-11059889D01*
X17113039Y-11059889D02*
X17113039Y-11002746D01*
X17113039Y-11002746D02*
X17122563Y-10983698D01*
X17122563Y-10983698D02*
X17132087Y-10974174D01*
X17132087Y-10974174D02*
X17151134Y-10964650D01*
X17151134Y-10964650D02*
X17179706Y-10964650D01*
X17179706Y-10964650D02*
X17198753Y-10974174D01*
X17198753Y-10974174D02*
X17208277Y-10983698D01*
X17208277Y-10983698D02*
X17217801Y-11002746D01*
X17217801Y-11002746D02*
X17217801Y-11059889D01*
X17217801Y-11059889D02*
X17208277Y-11078936D01*
X17208277Y-11078936D02*
X17198753Y-11088460D01*
X17198753Y-11088460D02*
X17179706Y-11097984D01*
X17179706Y-11097984D02*
X17151134Y-11097984D01*
X17332087Y-11097984D02*
X17313039Y-11088460D01*
X17313039Y-11088460D02*
X17303515Y-11069412D01*
X17303515Y-11069412D02*
X17303515Y-10897984D01*
X17484468Y-11088460D02*
X17465420Y-11097984D01*
X17465420Y-11097984D02*
X17427325Y-11097984D01*
X17427325Y-11097984D02*
X17408277Y-11088460D01*
X17408277Y-11088460D02*
X17398753Y-11069412D01*
X17398753Y-11069412D02*
X17398753Y-10993222D01*
X17398753Y-10993222D02*
X17408277Y-10974174D01*
X17408277Y-10974174D02*
X17427325Y-10964650D01*
X17427325Y-10964650D02*
X17465420Y-10964650D01*
X17465420Y-10964650D02*
X17484468Y-10974174D01*
X17484468Y-10974174D02*
X17493992Y-10993222D01*
X17493992Y-10993222D02*
X17493992Y-11012270D01*
X17493992Y-11012270D02*
X17398753Y-11031317D01*
X17570182Y-11088460D02*
X17589230Y-11097984D01*
X17589230Y-11097984D02*
X17627325Y-11097984D01*
X17627325Y-11097984D02*
X17646373Y-11088460D01*
X17646373Y-11088460D02*
X17655896Y-11069412D01*
X17655896Y-11069412D02*
X17655896Y-11059889D01*
X17655896Y-11059889D02*
X17646373Y-11040841D01*
X17646373Y-11040841D02*
X17627325Y-11031317D01*
X17627325Y-11031317D02*
X17598753Y-11031317D01*
X17598753Y-11031317D02*
X17579706Y-11021793D01*
X17579706Y-11021793D02*
X17570182Y-11002746D01*
X17570182Y-11002746D02*
X17570182Y-10993222D01*
X17570182Y-10993222D02*
X17579706Y-10974174D01*
X17579706Y-10974174D02*
X17598753Y-10964650D01*
X17598753Y-10964650D02*
X17627325Y-10964650D01*
X17627325Y-10964650D02*
X17646373Y-10974174D01*
X17722563Y-11174174D02*
X17732087Y-11164650D01*
X17732087Y-11164650D02*
X17751134Y-11136079D01*
X17751134Y-11136079D02*
X17760658Y-11117031D01*
X17760658Y-11117031D02*
X17770182Y-11088460D01*
X17770182Y-11088460D02*
X17779706Y-11040841D01*
X17779706Y-11040841D02*
X17779706Y-11002746D01*
X17779706Y-11002746D02*
X17770182Y-10955127D01*
X17770182Y-10955127D02*
X17760658Y-10926555D01*
X17760658Y-10926555D02*
X17751134Y-10907508D01*
X17751134Y-10907508D02*
X17732087Y-10878936D01*
X17732087Y-10878936D02*
X17722563Y-10869412D01*
D12*
X12897500Y-11220500D02*
X12897500Y-11320500D01*
X12847500Y-11270500D02*
X12947500Y-11270500D01*
D11*
X13313039Y-11361984D02*
X13198753Y-11361984D01*
X13255896Y-11361984D02*
X13255896Y-11161984D01*
X13255896Y-11161984D02*
X13236848Y-11190555D01*
X13236848Y-11190555D02*
X13217801Y-11209603D01*
X13217801Y-11209603D02*
X13198753Y-11219127D01*
X13398753Y-11342936D02*
X13408277Y-11352460D01*
X13408277Y-11352460D02*
X13398753Y-11361984D01*
X13398753Y-11361984D02*
X13389229Y-11352460D01*
X13389229Y-11352460D02*
X13398753Y-11342936D01*
X13398753Y-11342936D02*
X13398753Y-11361984D01*
X13532086Y-11161984D02*
X13551134Y-11161984D01*
X13551134Y-11161984D02*
X13570182Y-11171508D01*
X13570182Y-11171508D02*
X13579705Y-11181031D01*
X13579705Y-11181031D02*
X13589229Y-11200079D01*
X13589229Y-11200079D02*
X13598753Y-11238174D01*
X13598753Y-11238174D02*
X13598753Y-11285793D01*
X13598753Y-11285793D02*
X13589229Y-11323888D01*
X13589229Y-11323888D02*
X13579705Y-11342936D01*
X13579705Y-11342936D02*
X13570182Y-11352460D01*
X13570182Y-11352460D02*
X13551134Y-11361984D01*
X13551134Y-11361984D02*
X13532086Y-11361984D01*
X13532086Y-11361984D02*
X13513039Y-11352460D01*
X13513039Y-11352460D02*
X13503515Y-11342936D01*
X13503515Y-11342936D02*
X13493991Y-11323888D01*
X13493991Y-11323888D02*
X13484467Y-11285793D01*
X13484467Y-11285793D02*
X13484467Y-11238174D01*
X13484467Y-11238174D02*
X13493991Y-11200079D01*
X13493991Y-11200079D02*
X13503515Y-11181031D01*
X13503515Y-11181031D02*
X13513039Y-11171508D01*
X13513039Y-11171508D02*
X13532086Y-11161984D01*
X13722562Y-11161984D02*
X13741610Y-11161984D01*
X13741610Y-11161984D02*
X13760658Y-11171508D01*
X13760658Y-11171508D02*
X13770182Y-11181031D01*
X13770182Y-11181031D02*
X13779705Y-11200079D01*
X13779705Y-11200079D02*
X13789229Y-11238174D01*
X13789229Y-11238174D02*
X13789229Y-11285793D01*
X13789229Y-11285793D02*
X13779705Y-11323888D01*
X13779705Y-11323888D02*
X13770182Y-11342936D01*
X13770182Y-11342936D02*
X13760658Y-11352460D01*
X13760658Y-11352460D02*
X13741610Y-11361984D01*
X13741610Y-11361984D02*
X13722562Y-11361984D01*
X13722562Y-11361984D02*
X13703515Y-11352460D01*
X13703515Y-11352460D02*
X13693991Y-11342936D01*
X13693991Y-11342936D02*
X13684467Y-11323888D01*
X13684467Y-11323888D02*
X13674943Y-11285793D01*
X13674943Y-11285793D02*
X13674943Y-11238174D01*
X13674943Y-11238174D02*
X13684467Y-11200079D01*
X13684467Y-11200079D02*
X13693991Y-11181031D01*
X13693991Y-11181031D02*
X13703515Y-11171508D01*
X13703515Y-11171508D02*
X13722562Y-11161984D01*
X13913039Y-11161984D02*
X13932086Y-11161984D01*
X13932086Y-11161984D02*
X13951134Y-11171508D01*
X13951134Y-11171508D02*
X13960658Y-11181031D01*
X13960658Y-11181031D02*
X13970182Y-11200079D01*
X13970182Y-11200079D02*
X13979705Y-11238174D01*
X13979705Y-11238174D02*
X13979705Y-11285793D01*
X13979705Y-11285793D02*
X13970182Y-11323888D01*
X13970182Y-11323888D02*
X13960658Y-11342936D01*
X13960658Y-11342936D02*
X13951134Y-11352460D01*
X13951134Y-11352460D02*
X13932086Y-11361984D01*
X13932086Y-11361984D02*
X13913039Y-11361984D01*
X13913039Y-11361984D02*
X13893991Y-11352460D01*
X13893991Y-11352460D02*
X13884467Y-11342936D01*
X13884467Y-11342936D02*
X13874943Y-11323888D01*
X13874943Y-11323888D02*
X13865420Y-11285793D01*
X13865420Y-11285793D02*
X13865420Y-11238174D01*
X13865420Y-11238174D02*
X13874943Y-11200079D01*
X13874943Y-11200079D02*
X13884467Y-11181031D01*
X13884467Y-11181031D02*
X13893991Y-11171508D01*
X13893991Y-11171508D02*
X13913039Y-11161984D01*
X14065420Y-11361984D02*
X14065420Y-11228650D01*
X14065420Y-11247698D02*
X14074943Y-11238174D01*
X14074943Y-11238174D02*
X14093991Y-11228650D01*
X14093991Y-11228650D02*
X14122563Y-11228650D01*
X14122563Y-11228650D02*
X14141610Y-11238174D01*
X14141610Y-11238174D02*
X14151134Y-11257222D01*
X14151134Y-11257222D02*
X14151134Y-11361984D01*
X14151134Y-11257222D02*
X14160658Y-11238174D01*
X14160658Y-11238174D02*
X14179705Y-11228650D01*
X14179705Y-11228650D02*
X14208277Y-11228650D01*
X14208277Y-11228650D02*
X14227324Y-11238174D01*
X14227324Y-11238174D02*
X14236848Y-11257222D01*
X14236848Y-11257222D02*
X14236848Y-11361984D01*
X14332086Y-11361984D02*
X14332086Y-11228650D01*
X14332086Y-11247698D02*
X14341610Y-11238174D01*
X14341610Y-11238174D02*
X14360658Y-11228650D01*
X14360658Y-11228650D02*
X14389229Y-11228650D01*
X14389229Y-11228650D02*
X14408277Y-11238174D01*
X14408277Y-11238174D02*
X14417801Y-11257222D01*
X14417801Y-11257222D02*
X14417801Y-11361984D01*
X14417801Y-11257222D02*
X14427324Y-11238174D01*
X14427324Y-11238174D02*
X14446372Y-11228650D01*
X14446372Y-11228650D02*
X14474943Y-11228650D01*
X14474943Y-11228650D02*
X14493991Y-11238174D01*
X14493991Y-11238174D02*
X14503515Y-11257222D01*
X14503515Y-11257222D02*
X14503515Y-11361984D01*
X14893991Y-11152460D02*
X14722563Y-11409603D01*
X15151134Y-11161984D02*
X15170182Y-11161984D01*
X15170182Y-11161984D02*
X15189229Y-11171508D01*
X15189229Y-11171508D02*
X15198753Y-11181031D01*
X15198753Y-11181031D02*
X15208277Y-11200079D01*
X15208277Y-11200079D02*
X15217801Y-11238174D01*
X15217801Y-11238174D02*
X15217801Y-11285793D01*
X15217801Y-11285793D02*
X15208277Y-11323888D01*
X15208277Y-11323888D02*
X15198753Y-11342936D01*
X15198753Y-11342936D02*
X15189229Y-11352460D01*
X15189229Y-11352460D02*
X15170182Y-11361984D01*
X15170182Y-11361984D02*
X15151134Y-11361984D01*
X15151134Y-11361984D02*
X15132086Y-11352460D01*
X15132086Y-11352460D02*
X15122563Y-11342936D01*
X15122563Y-11342936D02*
X15113039Y-11323888D01*
X15113039Y-11323888D02*
X15103515Y-11285793D01*
X15103515Y-11285793D02*
X15103515Y-11238174D01*
X15103515Y-11238174D02*
X15113039Y-11200079D01*
X15113039Y-11200079D02*
X15122563Y-11181031D01*
X15122563Y-11181031D02*
X15132086Y-11171508D01*
X15132086Y-11171508D02*
X15151134Y-11161984D01*
X15303515Y-11342936D02*
X15313039Y-11352460D01*
X15313039Y-11352460D02*
X15303515Y-11361984D01*
X15303515Y-11361984D02*
X15293991Y-11352460D01*
X15293991Y-11352460D02*
X15303515Y-11342936D01*
X15303515Y-11342936D02*
X15303515Y-11361984D01*
X15436848Y-11161984D02*
X15455896Y-11161984D01*
X15455896Y-11161984D02*
X15474944Y-11171508D01*
X15474944Y-11171508D02*
X15484467Y-11181031D01*
X15484467Y-11181031D02*
X15493991Y-11200079D01*
X15493991Y-11200079D02*
X15503515Y-11238174D01*
X15503515Y-11238174D02*
X15503515Y-11285793D01*
X15503515Y-11285793D02*
X15493991Y-11323888D01*
X15493991Y-11323888D02*
X15484467Y-11342936D01*
X15484467Y-11342936D02*
X15474944Y-11352460D01*
X15474944Y-11352460D02*
X15455896Y-11361984D01*
X15455896Y-11361984D02*
X15436848Y-11361984D01*
X15436848Y-11361984D02*
X15417801Y-11352460D01*
X15417801Y-11352460D02*
X15408277Y-11342936D01*
X15408277Y-11342936D02*
X15398753Y-11323888D01*
X15398753Y-11323888D02*
X15389229Y-11285793D01*
X15389229Y-11285793D02*
X15389229Y-11238174D01*
X15389229Y-11238174D02*
X15398753Y-11200079D01*
X15398753Y-11200079D02*
X15408277Y-11181031D01*
X15408277Y-11181031D02*
X15417801Y-11171508D01*
X15417801Y-11171508D02*
X15436848Y-11161984D01*
X15570182Y-11161984D02*
X15693991Y-11161984D01*
X15693991Y-11161984D02*
X15627325Y-11238174D01*
X15627325Y-11238174D02*
X15655896Y-11238174D01*
X15655896Y-11238174D02*
X15674944Y-11247698D01*
X15674944Y-11247698D02*
X15684467Y-11257222D01*
X15684467Y-11257222D02*
X15693991Y-11276269D01*
X15693991Y-11276269D02*
X15693991Y-11323888D01*
X15693991Y-11323888D02*
X15684467Y-11342936D01*
X15684467Y-11342936D02*
X15674944Y-11352460D01*
X15674944Y-11352460D02*
X15655896Y-11361984D01*
X15655896Y-11361984D02*
X15598753Y-11361984D01*
X15598753Y-11361984D02*
X15579706Y-11352460D01*
X15579706Y-11352460D02*
X15570182Y-11342936D01*
X15789229Y-11361984D02*
X15827325Y-11361984D01*
X15827325Y-11361984D02*
X15846372Y-11352460D01*
X15846372Y-11352460D02*
X15855896Y-11342936D01*
X15855896Y-11342936D02*
X15874944Y-11314365D01*
X15874944Y-11314365D02*
X15884467Y-11276269D01*
X15884467Y-11276269D02*
X15884467Y-11200079D01*
X15884467Y-11200079D02*
X15874944Y-11181031D01*
X15874944Y-11181031D02*
X15865420Y-11171508D01*
X15865420Y-11171508D02*
X15846372Y-11161984D01*
X15846372Y-11161984D02*
X15808277Y-11161984D01*
X15808277Y-11161984D02*
X15789229Y-11171508D01*
X15789229Y-11171508D02*
X15779706Y-11181031D01*
X15779706Y-11181031D02*
X15770182Y-11200079D01*
X15770182Y-11200079D02*
X15770182Y-11247698D01*
X15770182Y-11247698D02*
X15779706Y-11266746D01*
X15779706Y-11266746D02*
X15789229Y-11276269D01*
X15789229Y-11276269D02*
X15808277Y-11285793D01*
X15808277Y-11285793D02*
X15846372Y-11285793D01*
X15846372Y-11285793D02*
X15865420Y-11276269D01*
X15865420Y-11276269D02*
X15874944Y-11266746D01*
X15874944Y-11266746D02*
X15884467Y-11247698D01*
X16055896Y-11228650D02*
X16055896Y-11361984D01*
X16008277Y-11152460D02*
X15960658Y-11295317D01*
X15960658Y-11295317D02*
X16084467Y-11295317D01*
X16151134Y-11161984D02*
X16151134Y-11200079D01*
X16227325Y-11161984D02*
X16227325Y-11200079D01*
X16522563Y-11438174D02*
X16513039Y-11428650D01*
X16513039Y-11428650D02*
X16493991Y-11400079D01*
X16493991Y-11400079D02*
X16484468Y-11381031D01*
X16484468Y-11381031D02*
X16474944Y-11352460D01*
X16474944Y-11352460D02*
X16465420Y-11304841D01*
X16465420Y-11304841D02*
X16465420Y-11266746D01*
X16465420Y-11266746D02*
X16474944Y-11219127D01*
X16474944Y-11219127D02*
X16484468Y-11190555D01*
X16484468Y-11190555D02*
X16493991Y-11171508D01*
X16493991Y-11171508D02*
X16513039Y-11142936D01*
X16513039Y-11142936D02*
X16522563Y-11133412D01*
X16693991Y-11161984D02*
X16598753Y-11161984D01*
X16598753Y-11161984D02*
X16589229Y-11257222D01*
X16589229Y-11257222D02*
X16598753Y-11247698D01*
X16598753Y-11247698D02*
X16617801Y-11238174D01*
X16617801Y-11238174D02*
X16665420Y-11238174D01*
X16665420Y-11238174D02*
X16684468Y-11247698D01*
X16684468Y-11247698D02*
X16693991Y-11257222D01*
X16693991Y-11257222D02*
X16703515Y-11276269D01*
X16703515Y-11276269D02*
X16703515Y-11323888D01*
X16703515Y-11323888D02*
X16693991Y-11342936D01*
X16693991Y-11342936D02*
X16684468Y-11352460D01*
X16684468Y-11352460D02*
X16665420Y-11361984D01*
X16665420Y-11361984D02*
X16617801Y-11361984D01*
X16617801Y-11361984D02*
X16598753Y-11352460D01*
X16598753Y-11352460D02*
X16589229Y-11342936D01*
X16941611Y-11361984D02*
X16941611Y-11161984D01*
X17027325Y-11361984D02*
X17027325Y-11257222D01*
X17027325Y-11257222D02*
X17017801Y-11238174D01*
X17017801Y-11238174D02*
X16998753Y-11228650D01*
X16998753Y-11228650D02*
X16970182Y-11228650D01*
X16970182Y-11228650D02*
X16951134Y-11238174D01*
X16951134Y-11238174D02*
X16941611Y-11247698D01*
X17151134Y-11361984D02*
X17132087Y-11352460D01*
X17132087Y-11352460D02*
X17122563Y-11342936D01*
X17122563Y-11342936D02*
X17113039Y-11323888D01*
X17113039Y-11323888D02*
X17113039Y-11266746D01*
X17113039Y-11266746D02*
X17122563Y-11247698D01*
X17122563Y-11247698D02*
X17132087Y-11238174D01*
X17132087Y-11238174D02*
X17151134Y-11228650D01*
X17151134Y-11228650D02*
X17179706Y-11228650D01*
X17179706Y-11228650D02*
X17198753Y-11238174D01*
X17198753Y-11238174D02*
X17208277Y-11247698D01*
X17208277Y-11247698D02*
X17217801Y-11266746D01*
X17217801Y-11266746D02*
X17217801Y-11323888D01*
X17217801Y-11323888D02*
X17208277Y-11342936D01*
X17208277Y-11342936D02*
X17198753Y-11352460D01*
X17198753Y-11352460D02*
X17179706Y-11361984D01*
X17179706Y-11361984D02*
X17151134Y-11361984D01*
X17332087Y-11361984D02*
X17313039Y-11352460D01*
X17313039Y-11352460D02*
X17303515Y-11333412D01*
X17303515Y-11333412D02*
X17303515Y-11161984D01*
X17484468Y-11352460D02*
X17465420Y-11361984D01*
X17465420Y-11361984D02*
X17427325Y-11361984D01*
X17427325Y-11361984D02*
X17408277Y-11352460D01*
X17408277Y-11352460D02*
X17398753Y-11333412D01*
X17398753Y-11333412D02*
X17398753Y-11257222D01*
X17398753Y-11257222D02*
X17408277Y-11238174D01*
X17408277Y-11238174D02*
X17427325Y-11228650D01*
X17427325Y-11228650D02*
X17465420Y-11228650D01*
X17465420Y-11228650D02*
X17484468Y-11238174D01*
X17484468Y-11238174D02*
X17493992Y-11257222D01*
X17493992Y-11257222D02*
X17493992Y-11276269D01*
X17493992Y-11276269D02*
X17398753Y-11295317D01*
X17570182Y-11352460D02*
X17589230Y-11361984D01*
X17589230Y-11361984D02*
X17627325Y-11361984D01*
X17627325Y-11361984D02*
X17646373Y-11352460D01*
X17646373Y-11352460D02*
X17655896Y-11333412D01*
X17655896Y-11333412D02*
X17655896Y-11323888D01*
X17655896Y-11323888D02*
X17646373Y-11304841D01*
X17646373Y-11304841D02*
X17627325Y-11295317D01*
X17627325Y-11295317D02*
X17598753Y-11295317D01*
X17598753Y-11295317D02*
X17579706Y-11285793D01*
X17579706Y-11285793D02*
X17570182Y-11266746D01*
X17570182Y-11266746D02*
X17570182Y-11257222D01*
X17570182Y-11257222D02*
X17579706Y-11238174D01*
X17579706Y-11238174D02*
X17598753Y-11228650D01*
X17598753Y-11228650D02*
X17627325Y-11228650D01*
X17627325Y-11228650D02*
X17646373Y-11238174D01*
X17722563Y-11438174D02*
X17732087Y-11428650D01*
X17732087Y-11428650D02*
X17751134Y-11400079D01*
X17751134Y-11400079D02*
X17760658Y-11381031D01*
X17760658Y-11381031D02*
X17770182Y-11352460D01*
X17770182Y-11352460D02*
X17779706Y-11304841D01*
X17779706Y-11304841D02*
X17779706Y-11266746D01*
X17779706Y-11266746D02*
X17770182Y-11219127D01*
X17770182Y-11219127D02*
X17760658Y-11190555D01*
X17760658Y-11190555D02*
X17751134Y-11171508D01*
X17751134Y-11171508D02*
X17732087Y-11142936D01*
X17732087Y-11142936D02*
X17722563Y-11133412D01*
X12918211Y-11605211D02*
X12918211Y-11463789D01*
X12776789Y-11463789D01*
X12776789Y-11605211D01*
X12918211Y-11605211D01*
X13198753Y-11445031D02*
X13208277Y-11435508D01*
X13208277Y-11435508D02*
X13227324Y-11425984D01*
X13227324Y-11425984D02*
X13274943Y-11425984D01*
X13274943Y-11425984D02*
X13293991Y-11435508D01*
X13293991Y-11435508D02*
X13303515Y-11445031D01*
X13303515Y-11445031D02*
X13313039Y-11464079D01*
X13313039Y-11464079D02*
X13313039Y-11483127D01*
X13313039Y-11483127D02*
X13303515Y-11511698D01*
X13303515Y-11511698D02*
X13189229Y-11625984D01*
X13189229Y-11625984D02*
X13313039Y-11625984D01*
X13398753Y-11606936D02*
X13408277Y-11616460D01*
X13408277Y-11616460D02*
X13398753Y-11625984D01*
X13398753Y-11625984D02*
X13389229Y-11616460D01*
X13389229Y-11616460D02*
X13398753Y-11606936D01*
X13398753Y-11606936D02*
X13398753Y-11625984D01*
X13484467Y-11445031D02*
X13493991Y-11435508D01*
X13493991Y-11435508D02*
X13513039Y-11425984D01*
X13513039Y-11425984D02*
X13560658Y-11425984D01*
X13560658Y-11425984D02*
X13579705Y-11435508D01*
X13579705Y-11435508D02*
X13589229Y-11445031D01*
X13589229Y-11445031D02*
X13598753Y-11464079D01*
X13598753Y-11464079D02*
X13598753Y-11483127D01*
X13598753Y-11483127D02*
X13589229Y-11511698D01*
X13589229Y-11511698D02*
X13474943Y-11625984D01*
X13474943Y-11625984D02*
X13598753Y-11625984D01*
X13722562Y-11425984D02*
X13741610Y-11425984D01*
X13741610Y-11425984D02*
X13760658Y-11435508D01*
X13760658Y-11435508D02*
X13770182Y-11445031D01*
X13770182Y-11445031D02*
X13779705Y-11464079D01*
X13779705Y-11464079D02*
X13789229Y-11502174D01*
X13789229Y-11502174D02*
X13789229Y-11549793D01*
X13789229Y-11549793D02*
X13779705Y-11587888D01*
X13779705Y-11587888D02*
X13770182Y-11606936D01*
X13770182Y-11606936D02*
X13760658Y-11616460D01*
X13760658Y-11616460D02*
X13741610Y-11625984D01*
X13741610Y-11625984D02*
X13722562Y-11625984D01*
X13722562Y-11625984D02*
X13703515Y-11616460D01*
X13703515Y-11616460D02*
X13693991Y-11606936D01*
X13693991Y-11606936D02*
X13684467Y-11587888D01*
X13684467Y-11587888D02*
X13674943Y-11549793D01*
X13674943Y-11549793D02*
X13674943Y-11502174D01*
X13674943Y-11502174D02*
X13684467Y-11464079D01*
X13684467Y-11464079D02*
X13693991Y-11445031D01*
X13693991Y-11445031D02*
X13703515Y-11435508D01*
X13703515Y-11435508D02*
X13722562Y-11425984D01*
X13913039Y-11425984D02*
X13932086Y-11425984D01*
X13932086Y-11425984D02*
X13951134Y-11435508D01*
X13951134Y-11435508D02*
X13960658Y-11445031D01*
X13960658Y-11445031D02*
X13970182Y-11464079D01*
X13970182Y-11464079D02*
X13979705Y-11502174D01*
X13979705Y-11502174D02*
X13979705Y-11549793D01*
X13979705Y-11549793D02*
X13970182Y-11587888D01*
X13970182Y-11587888D02*
X13960658Y-11606936D01*
X13960658Y-11606936D02*
X13951134Y-11616460D01*
X13951134Y-11616460D02*
X13932086Y-11625984D01*
X13932086Y-11625984D02*
X13913039Y-11625984D01*
X13913039Y-11625984D02*
X13893991Y-11616460D01*
X13893991Y-11616460D02*
X13884467Y-11606936D01*
X13884467Y-11606936D02*
X13874943Y-11587888D01*
X13874943Y-11587888D02*
X13865420Y-11549793D01*
X13865420Y-11549793D02*
X13865420Y-11502174D01*
X13865420Y-11502174D02*
X13874943Y-11464079D01*
X13874943Y-11464079D02*
X13884467Y-11445031D01*
X13884467Y-11445031D02*
X13893991Y-11435508D01*
X13893991Y-11435508D02*
X13913039Y-11425984D01*
X14065420Y-11625984D02*
X14065420Y-11492650D01*
X14065420Y-11511698D02*
X14074943Y-11502174D01*
X14074943Y-11502174D02*
X14093991Y-11492650D01*
X14093991Y-11492650D02*
X14122563Y-11492650D01*
X14122563Y-11492650D02*
X14141610Y-11502174D01*
X14141610Y-11502174D02*
X14151134Y-11521222D01*
X14151134Y-11521222D02*
X14151134Y-11625984D01*
X14151134Y-11521222D02*
X14160658Y-11502174D01*
X14160658Y-11502174D02*
X14179705Y-11492650D01*
X14179705Y-11492650D02*
X14208277Y-11492650D01*
X14208277Y-11492650D02*
X14227324Y-11502174D01*
X14227324Y-11502174D02*
X14236848Y-11521222D01*
X14236848Y-11521222D02*
X14236848Y-11625984D01*
X14332086Y-11625984D02*
X14332086Y-11492650D01*
X14332086Y-11511698D02*
X14341610Y-11502174D01*
X14341610Y-11502174D02*
X14360658Y-11492650D01*
X14360658Y-11492650D02*
X14389229Y-11492650D01*
X14389229Y-11492650D02*
X14408277Y-11502174D01*
X14408277Y-11502174D02*
X14417801Y-11521222D01*
X14417801Y-11521222D02*
X14417801Y-11625984D01*
X14417801Y-11521222D02*
X14427324Y-11502174D01*
X14427324Y-11502174D02*
X14446372Y-11492650D01*
X14446372Y-11492650D02*
X14474943Y-11492650D01*
X14474943Y-11492650D02*
X14493991Y-11502174D01*
X14493991Y-11502174D02*
X14503515Y-11521222D01*
X14503515Y-11521222D02*
X14503515Y-11625984D01*
X14893991Y-11416460D02*
X14722563Y-11673603D01*
X15151134Y-11425984D02*
X15170182Y-11425984D01*
X15170182Y-11425984D02*
X15189229Y-11435508D01*
X15189229Y-11435508D02*
X15198753Y-11445031D01*
X15198753Y-11445031D02*
X15208277Y-11464079D01*
X15208277Y-11464079D02*
X15217801Y-11502174D01*
X15217801Y-11502174D02*
X15217801Y-11549793D01*
X15217801Y-11549793D02*
X15208277Y-11587888D01*
X15208277Y-11587888D02*
X15198753Y-11606936D01*
X15198753Y-11606936D02*
X15189229Y-11616460D01*
X15189229Y-11616460D02*
X15170182Y-11625984D01*
X15170182Y-11625984D02*
X15151134Y-11625984D01*
X15151134Y-11625984D02*
X15132086Y-11616460D01*
X15132086Y-11616460D02*
X15122563Y-11606936D01*
X15122563Y-11606936D02*
X15113039Y-11587888D01*
X15113039Y-11587888D02*
X15103515Y-11549793D01*
X15103515Y-11549793D02*
X15103515Y-11502174D01*
X15103515Y-11502174D02*
X15113039Y-11464079D01*
X15113039Y-11464079D02*
X15122563Y-11445031D01*
X15122563Y-11445031D02*
X15132086Y-11435508D01*
X15132086Y-11435508D02*
X15151134Y-11425984D01*
X15303515Y-11606936D02*
X15313039Y-11616460D01*
X15313039Y-11616460D02*
X15303515Y-11625984D01*
X15303515Y-11625984D02*
X15293991Y-11616460D01*
X15293991Y-11616460D02*
X15303515Y-11606936D01*
X15303515Y-11606936D02*
X15303515Y-11625984D01*
X15436848Y-11425984D02*
X15455896Y-11425984D01*
X15455896Y-11425984D02*
X15474944Y-11435508D01*
X15474944Y-11435508D02*
X15484467Y-11445031D01*
X15484467Y-11445031D02*
X15493991Y-11464079D01*
X15493991Y-11464079D02*
X15503515Y-11502174D01*
X15503515Y-11502174D02*
X15503515Y-11549793D01*
X15503515Y-11549793D02*
X15493991Y-11587888D01*
X15493991Y-11587888D02*
X15484467Y-11606936D01*
X15484467Y-11606936D02*
X15474944Y-11616460D01*
X15474944Y-11616460D02*
X15455896Y-11625984D01*
X15455896Y-11625984D02*
X15436848Y-11625984D01*
X15436848Y-11625984D02*
X15417801Y-11616460D01*
X15417801Y-11616460D02*
X15408277Y-11606936D01*
X15408277Y-11606936D02*
X15398753Y-11587888D01*
X15398753Y-11587888D02*
X15389229Y-11549793D01*
X15389229Y-11549793D02*
X15389229Y-11502174D01*
X15389229Y-11502174D02*
X15398753Y-11464079D01*
X15398753Y-11464079D02*
X15408277Y-11445031D01*
X15408277Y-11445031D02*
X15417801Y-11435508D01*
X15417801Y-11435508D02*
X15436848Y-11425984D01*
X15617801Y-11511698D02*
X15598753Y-11502174D01*
X15598753Y-11502174D02*
X15589229Y-11492650D01*
X15589229Y-11492650D02*
X15579706Y-11473603D01*
X15579706Y-11473603D02*
X15579706Y-11464079D01*
X15579706Y-11464079D02*
X15589229Y-11445031D01*
X15589229Y-11445031D02*
X15598753Y-11435508D01*
X15598753Y-11435508D02*
X15617801Y-11425984D01*
X15617801Y-11425984D02*
X15655896Y-11425984D01*
X15655896Y-11425984D02*
X15674944Y-11435508D01*
X15674944Y-11435508D02*
X15684467Y-11445031D01*
X15684467Y-11445031D02*
X15693991Y-11464079D01*
X15693991Y-11464079D02*
X15693991Y-11473603D01*
X15693991Y-11473603D02*
X15684467Y-11492650D01*
X15684467Y-11492650D02*
X15674944Y-11502174D01*
X15674944Y-11502174D02*
X15655896Y-11511698D01*
X15655896Y-11511698D02*
X15617801Y-11511698D01*
X15617801Y-11511698D02*
X15598753Y-11521222D01*
X15598753Y-11521222D02*
X15589229Y-11530746D01*
X15589229Y-11530746D02*
X15579706Y-11549793D01*
X15579706Y-11549793D02*
X15579706Y-11587888D01*
X15579706Y-11587888D02*
X15589229Y-11606936D01*
X15589229Y-11606936D02*
X15598753Y-11616460D01*
X15598753Y-11616460D02*
X15617801Y-11625984D01*
X15617801Y-11625984D02*
X15655896Y-11625984D01*
X15655896Y-11625984D02*
X15674944Y-11616460D01*
X15674944Y-11616460D02*
X15684467Y-11606936D01*
X15684467Y-11606936D02*
X15693991Y-11587888D01*
X15693991Y-11587888D02*
X15693991Y-11549793D01*
X15693991Y-11549793D02*
X15684467Y-11530746D01*
X15684467Y-11530746D02*
X15674944Y-11521222D01*
X15674944Y-11521222D02*
X15655896Y-11511698D01*
X15865420Y-11425984D02*
X15827325Y-11425984D01*
X15827325Y-11425984D02*
X15808277Y-11435508D01*
X15808277Y-11435508D02*
X15798753Y-11445031D01*
X15798753Y-11445031D02*
X15779706Y-11473603D01*
X15779706Y-11473603D02*
X15770182Y-11511698D01*
X15770182Y-11511698D02*
X15770182Y-11587888D01*
X15770182Y-11587888D02*
X15779706Y-11606936D01*
X15779706Y-11606936D02*
X15789229Y-11616460D01*
X15789229Y-11616460D02*
X15808277Y-11625984D01*
X15808277Y-11625984D02*
X15846372Y-11625984D01*
X15846372Y-11625984D02*
X15865420Y-11616460D01*
X15865420Y-11616460D02*
X15874944Y-11606936D01*
X15874944Y-11606936D02*
X15884467Y-11587888D01*
X15884467Y-11587888D02*
X15884467Y-11540269D01*
X15884467Y-11540269D02*
X15874944Y-11521222D01*
X15874944Y-11521222D02*
X15865420Y-11511698D01*
X15865420Y-11511698D02*
X15846372Y-11502174D01*
X15846372Y-11502174D02*
X15808277Y-11502174D01*
X15808277Y-11502174D02*
X15789229Y-11511698D01*
X15789229Y-11511698D02*
X15779706Y-11521222D01*
X15779706Y-11521222D02*
X15770182Y-11540269D01*
X16055896Y-11425984D02*
X16017801Y-11425984D01*
X16017801Y-11425984D02*
X15998753Y-11435508D01*
X15998753Y-11435508D02*
X15989229Y-11445031D01*
X15989229Y-11445031D02*
X15970182Y-11473603D01*
X15970182Y-11473603D02*
X15960658Y-11511698D01*
X15960658Y-11511698D02*
X15960658Y-11587888D01*
X15960658Y-11587888D02*
X15970182Y-11606936D01*
X15970182Y-11606936D02*
X15979706Y-11616460D01*
X15979706Y-11616460D02*
X15998753Y-11625984D01*
X15998753Y-11625984D02*
X16036848Y-11625984D01*
X16036848Y-11625984D02*
X16055896Y-11616460D01*
X16055896Y-11616460D02*
X16065420Y-11606936D01*
X16065420Y-11606936D02*
X16074944Y-11587888D01*
X16074944Y-11587888D02*
X16074944Y-11540269D01*
X16074944Y-11540269D02*
X16065420Y-11521222D01*
X16065420Y-11521222D02*
X16055896Y-11511698D01*
X16055896Y-11511698D02*
X16036848Y-11502174D01*
X16036848Y-11502174D02*
X15998753Y-11502174D01*
X15998753Y-11502174D02*
X15979706Y-11511698D01*
X15979706Y-11511698D02*
X15970182Y-11521222D01*
X15970182Y-11521222D02*
X15960658Y-11540269D01*
X16151134Y-11425984D02*
X16151134Y-11464079D01*
X16227325Y-11425984D02*
X16227325Y-11464079D01*
X16522563Y-11702174D02*
X16513039Y-11692650D01*
X16513039Y-11692650D02*
X16493991Y-11664079D01*
X16493991Y-11664079D02*
X16484468Y-11645031D01*
X16484468Y-11645031D02*
X16474944Y-11616460D01*
X16474944Y-11616460D02*
X16465420Y-11568841D01*
X16465420Y-11568841D02*
X16465420Y-11530746D01*
X16465420Y-11530746D02*
X16474944Y-11483127D01*
X16474944Y-11483127D02*
X16484468Y-11454555D01*
X16484468Y-11454555D02*
X16493991Y-11435508D01*
X16493991Y-11435508D02*
X16513039Y-11406936D01*
X16513039Y-11406936D02*
X16522563Y-11397412D01*
X16589229Y-11445031D02*
X16598753Y-11435508D01*
X16598753Y-11435508D02*
X16617801Y-11425984D01*
X16617801Y-11425984D02*
X16665420Y-11425984D01*
X16665420Y-11425984D02*
X16684468Y-11435508D01*
X16684468Y-11435508D02*
X16693991Y-11445031D01*
X16693991Y-11445031D02*
X16703515Y-11464079D01*
X16703515Y-11464079D02*
X16703515Y-11483127D01*
X16703515Y-11483127D02*
X16693991Y-11511698D01*
X16693991Y-11511698D02*
X16579706Y-11625984D01*
X16579706Y-11625984D02*
X16703515Y-11625984D01*
X16941611Y-11625984D02*
X16941611Y-11425984D01*
X17027325Y-11625984D02*
X17027325Y-11521222D01*
X17027325Y-11521222D02*
X17017801Y-11502174D01*
X17017801Y-11502174D02*
X16998753Y-11492650D01*
X16998753Y-11492650D02*
X16970182Y-11492650D01*
X16970182Y-11492650D02*
X16951134Y-11502174D01*
X16951134Y-11502174D02*
X16941611Y-11511698D01*
X17151134Y-11625984D02*
X17132087Y-11616460D01*
X17132087Y-11616460D02*
X17122563Y-11606936D01*
X17122563Y-11606936D02*
X17113039Y-11587888D01*
X17113039Y-11587888D02*
X17113039Y-11530746D01*
X17113039Y-11530746D02*
X17122563Y-11511698D01*
X17122563Y-11511698D02*
X17132087Y-11502174D01*
X17132087Y-11502174D02*
X17151134Y-11492650D01*
X17151134Y-11492650D02*
X17179706Y-11492650D01*
X17179706Y-11492650D02*
X17198753Y-11502174D01*
X17198753Y-11502174D02*
X17208277Y-11511698D01*
X17208277Y-11511698D02*
X17217801Y-11530746D01*
X17217801Y-11530746D02*
X17217801Y-11587888D01*
X17217801Y-11587888D02*
X17208277Y-11606936D01*
X17208277Y-11606936D02*
X17198753Y-11616460D01*
X17198753Y-11616460D02*
X17179706Y-11625984D01*
X17179706Y-11625984D02*
X17151134Y-11625984D01*
X17332087Y-11625984D02*
X17313039Y-11616460D01*
X17313039Y-11616460D02*
X17303515Y-11597412D01*
X17303515Y-11597412D02*
X17303515Y-11425984D01*
X17484468Y-11616460D02*
X17465420Y-11625984D01*
X17465420Y-11625984D02*
X17427325Y-11625984D01*
X17427325Y-11625984D02*
X17408277Y-11616460D01*
X17408277Y-11616460D02*
X17398753Y-11597412D01*
X17398753Y-11597412D02*
X17398753Y-11521222D01*
X17398753Y-11521222D02*
X17408277Y-11502174D01*
X17408277Y-11502174D02*
X17427325Y-11492650D01*
X17427325Y-11492650D02*
X17465420Y-11492650D01*
X17465420Y-11492650D02*
X17484468Y-11502174D01*
X17484468Y-11502174D02*
X17493992Y-11521222D01*
X17493992Y-11521222D02*
X17493992Y-11540269D01*
X17493992Y-11540269D02*
X17398753Y-11559317D01*
X17570182Y-11616460D02*
X17589230Y-11625984D01*
X17589230Y-11625984D02*
X17627325Y-11625984D01*
X17627325Y-11625984D02*
X17646373Y-11616460D01*
X17646373Y-11616460D02*
X17655896Y-11597412D01*
X17655896Y-11597412D02*
X17655896Y-11587888D01*
X17655896Y-11587888D02*
X17646373Y-11568841D01*
X17646373Y-11568841D02*
X17627325Y-11559317D01*
X17627325Y-11559317D02*
X17598753Y-11559317D01*
X17598753Y-11559317D02*
X17579706Y-11549793D01*
X17579706Y-11549793D02*
X17570182Y-11530746D01*
X17570182Y-11530746D02*
X17570182Y-11521222D01*
X17570182Y-11521222D02*
X17579706Y-11502174D01*
X17579706Y-11502174D02*
X17598753Y-11492650D01*
X17598753Y-11492650D02*
X17627325Y-11492650D01*
X17627325Y-11492650D02*
X17646373Y-11502174D01*
X17722563Y-11702174D02*
X17732087Y-11692650D01*
X17732087Y-11692650D02*
X17751134Y-11664079D01*
X17751134Y-11664079D02*
X17760658Y-11645031D01*
X17760658Y-11645031D02*
X17770182Y-11616460D01*
X17770182Y-11616460D02*
X17779706Y-11568841D01*
X17779706Y-11568841D02*
X17779706Y-11530746D01*
X17779706Y-11530746D02*
X17770182Y-11483127D01*
X17770182Y-11483127D02*
X17760658Y-11454555D01*
X17760658Y-11454555D02*
X17751134Y-11435508D01*
X17751134Y-11435508D02*
X17732087Y-11406936D01*
X17732087Y-11406936D02*
X17722563Y-11397412D01*
M02*
