G04 #@! TF.GenerationSoftware,KiCad,Pcbnew,9.0.4*
G04 #@! TF.CreationDate,2025-10-13T14:39:45-04:00*
G04 #@! TF.ProjectId,bldc motor controller,626c6463-206d-46f7-946f-7220636f6e74,rev?*
G04 #@! TF.SameCoordinates,Original*
G04 #@! TF.FileFunction,Paste,Bot*
G04 #@! TF.FilePolarity,Positive*
%FSLAX46Y46*%
G04 Gerber Fmt 4.6, Leading zero omitted, Abs format (unit mm)*
G04 Created by KiCad (PCBNEW 9.0.4) date 2025-10-13 14:39:45*
%MOMM*%
%LPD*%
G01*
G04 APERTURE LIST*
G04 Aperture macros list*
%AMRoundRect*
0 Rectangle with rounded corners*
0 $1 Rounding radius*
0 $2 $3 $4 $5 $6 $7 $8 $9 X,Y pos of 4 corners*
0 Add a 4 corners polygon primitive as box body*
4,1,4,$2,$3,$4,$5,$6,$7,$8,$9,$2,$3,0*
0 Add four circle primitives for the rounded corners*
1,1,$1+$1,$2,$3*
1,1,$1+$1,$4,$5*
1,1,$1+$1,$6,$7*
1,1,$1+$1,$8,$9*
0 Add four rect primitives between the rounded corners*
20,1,$1+$1,$2,$3,$4,$5,0*
20,1,$1+$1,$4,$5,$6,$7,0*
20,1,$1+$1,$6,$7,$8,$9,0*
20,1,$1+$1,$8,$9,$2,$3,0*%
G04 Aperture macros list end*
%ADD10C,0.000000*%
%ADD11RoundRect,0.067500X-0.067500X-0.067500X0.067500X-0.067500X0.067500X0.067500X-0.067500X0.067500X0*%
%ADD12RoundRect,0.225000X0.225000X0.250000X-0.225000X0.250000X-0.225000X-0.250000X0.225000X-0.250000X0*%
%ADD13RoundRect,0.067500X0.067500X0.067500X-0.067500X0.067500X-0.067500X-0.067500X0.067500X-0.067500X0*%
%ADD14RoundRect,0.067500X0.067500X-0.067500X0.067500X0.067500X-0.067500X0.067500X-0.067500X-0.067500X0*%
%ADD15RoundRect,0.250000X-0.750000X-0.650000X0.750000X-0.650000X0.750000X0.650000X-0.750000X0.650000X0*%
%ADD16R,0.500000X0.280000*%
%ADD17R,0.280000X0.500000*%
%ADD18R,0.400000X1.700000*%
%ADD19O,0.900000X0.280000*%
%ADD20O,0.280000X0.900000*%
%ADD21R,3.700000X3.700000*%
%ADD22R,1.100000X0.600000*%
%ADD23RoundRect,0.200000X-0.200000X-0.275000X0.200000X-0.275000X0.200000X0.275000X-0.200000X0.275000X0*%
%ADD24RoundRect,0.140000X-0.140000X-0.170000X0.140000X-0.170000X0.140000X0.170000X-0.140000X0.170000X0*%
%ADD25RoundRect,0.250000X-0.475000X0.250000X-0.475000X-0.250000X0.475000X-0.250000X0.475000X0.250000X0*%
%ADD26RoundRect,0.250000X0.250000X0.475000X-0.250000X0.475000X-0.250000X-0.475000X0.250000X-0.475000X0*%
%ADD27RoundRect,0.250000X0.325000X0.650000X-0.325000X0.650000X-0.325000X-0.650000X0.325000X-0.650000X0*%
G04 APERTURE END LIST*
D10*
G04 #@! TO.C,U3*
G36*
X151549995Y-89700000D02*
G01*
X148549995Y-89700000D01*
X148549995Y-86700000D01*
X151549995Y-86700000D01*
X151549995Y-89700000D01*
G37*
G36*
X147809995Y-86310000D02*
G01*
X147809995Y-86310000D01*
G75*
G02*
X147809995Y-86590000I5J-140000D01*
G01*
X147189995Y-86590000D01*
G75*
G02*
X147189995Y-86310000I5J140000D01*
G01*
X147809995Y-86310000D01*
G37*
G36*
X147809995Y-86810500D02*
G01*
X147809995Y-86810500D01*
G75*
G02*
X147809995Y-87090500I5J-140000D01*
G01*
X147189995Y-87090500D01*
G75*
G02*
X147189995Y-86810500I5J140000D01*
G01*
X147809995Y-86810500D01*
G37*
G36*
X147809995Y-87311000D02*
G01*
X147809995Y-87311000D01*
G75*
G02*
X147809995Y-87591000I5J-140000D01*
G01*
X147189995Y-87591000D01*
G75*
G02*
X147189995Y-87311000I5J140000D01*
G01*
X147809995Y-87311000D01*
G37*
G36*
X147809995Y-87811000D02*
G01*
X147809995Y-87811000D01*
G75*
G02*
X147809995Y-88091000I5J-140000D01*
G01*
X147189995Y-88091000D01*
G75*
G02*
X147189995Y-87811000I5J140000D01*
G01*
X147809995Y-87811000D01*
G37*
G36*
X147809995Y-88309000D02*
G01*
X147809995Y-88309000D01*
G75*
G02*
X147809995Y-88589000I5J-140000D01*
G01*
X147189995Y-88589000D01*
G75*
G02*
X147189995Y-88309000I5J140000D01*
G01*
X147809995Y-88309000D01*
G37*
G36*
X147809995Y-88809500D02*
G01*
X147809995Y-88809500D01*
G75*
G02*
X147809995Y-89089500I5J-140000D01*
G01*
X147189995Y-89089500D01*
G75*
G02*
X147189995Y-88809500I5J140000D01*
G01*
X147809995Y-88809500D01*
G37*
G36*
X147809995Y-89310000D02*
G01*
X147809995Y-89310000D01*
G75*
G02*
X147809995Y-89590000I5J-140000D01*
G01*
X147189995Y-89590000D01*
G75*
G02*
X147189995Y-89310000I5J140000D01*
G01*
X147809995Y-89310000D01*
G37*
G36*
X147809995Y-89810000D02*
G01*
X147809995Y-89810000D01*
G75*
G02*
X147809995Y-90090000I5J-140000D01*
G01*
X147189995Y-90090000D01*
G75*
G02*
X147189995Y-89810000I5J140000D01*
G01*
X147809995Y-89810000D01*
G37*
G36*
X148159995Y-85340000D02*
G01*
X148159995Y-85340000D01*
G75*
G02*
X148439995Y-85340000I140000J0D01*
G01*
X148439995Y-85960000D01*
G75*
G02*
X148159995Y-85960000I-140000J0D01*
G01*
X148159995Y-85340000D01*
G37*
G36*
X148159995Y-90440500D02*
G01*
X148159995Y-90440500D01*
G75*
G02*
X148439995Y-90440500I140000J0D01*
G01*
X148439995Y-91060000D01*
G75*
G02*
X148159995Y-91060000I-140000J0D01*
G01*
X148159995Y-90440500D01*
G37*
G36*
X148660495Y-85340000D02*
G01*
X148660495Y-85340000D01*
G75*
G02*
X148940495Y-85340000I140000J0D01*
G01*
X148940495Y-85960000D01*
G75*
G02*
X148660495Y-85960000I-140000J0D01*
G01*
X148660495Y-85340000D01*
G37*
G36*
X148660495Y-90440500D02*
G01*
X148660495Y-90440500D01*
G75*
G02*
X148940495Y-90440500I140000J0D01*
G01*
X148940495Y-91060000D01*
G75*
G02*
X148660495Y-91060000I-140000J0D01*
G01*
X148660495Y-90440500D01*
G37*
G36*
X149160995Y-85340000D02*
G01*
X149160995Y-85340000D01*
G75*
G02*
X149440995Y-85340000I140000J0D01*
G01*
X149440995Y-85960000D01*
G75*
G02*
X149160995Y-85960000I-140000J0D01*
G01*
X149160995Y-85340000D01*
G37*
G36*
X149160995Y-90440500D02*
G01*
X149160995Y-90440500D01*
G75*
G02*
X149440995Y-90440500I140000J0D01*
G01*
X149440995Y-91060000D01*
G75*
G02*
X149160995Y-91060000I-140000J0D01*
G01*
X149160995Y-90440500D01*
G37*
G36*
X149660995Y-85340000D02*
G01*
X149660995Y-85340000D01*
G75*
G02*
X149940995Y-85340000I140000J0D01*
G01*
X149940995Y-85960000D01*
G75*
G02*
X149660995Y-85960000I-140000J0D01*
G01*
X149660995Y-85340000D01*
G37*
G36*
X149660995Y-90440500D02*
G01*
X149660995Y-90440500D01*
G75*
G02*
X149940995Y-90440500I140000J0D01*
G01*
X149940995Y-91060000D01*
G75*
G02*
X149660995Y-91060000I-140000J0D01*
G01*
X149660995Y-90440500D01*
G37*
G36*
X150158995Y-85340000D02*
G01*
X150158995Y-85340000D01*
G75*
G02*
X150438995Y-85340000I140000J0D01*
G01*
X150438995Y-85960000D01*
G75*
G02*
X150158995Y-85960000I-140000J0D01*
G01*
X150158995Y-85340000D01*
G37*
G36*
X150158995Y-90440500D02*
G01*
X150158995Y-90440500D01*
G75*
G02*
X150438995Y-90440500I140000J0D01*
G01*
X150438995Y-91060000D01*
G75*
G02*
X150158995Y-91060000I-140000J0D01*
G01*
X150158995Y-90440500D01*
G37*
G36*
X150659495Y-85340000D02*
G01*
X150659495Y-85340000D01*
G75*
G02*
X150939495Y-85340000I140000J0D01*
G01*
X150939495Y-85960000D01*
G75*
G02*
X150659495Y-85960000I-140000J0D01*
G01*
X150659495Y-85340000D01*
G37*
G36*
X150659495Y-90440500D02*
G01*
X150659495Y-90440500D01*
G75*
G02*
X150939495Y-90440500I140000J0D01*
G01*
X150939495Y-91060000D01*
G75*
G02*
X150659495Y-91060000I-140000J0D01*
G01*
X150659495Y-90440500D01*
G37*
G36*
X151159995Y-85340000D02*
G01*
X151159995Y-85340000D01*
G75*
G02*
X151439995Y-85340000I140000J0D01*
G01*
X151439995Y-85960000D01*
G75*
G02*
X151159995Y-85960000I-140000J0D01*
G01*
X151159995Y-85340000D01*
G37*
G36*
X151159995Y-90440500D02*
G01*
X151159995Y-90440500D01*
G75*
G02*
X151439995Y-90440500I140000J0D01*
G01*
X151439995Y-91060000D01*
G75*
G02*
X151159995Y-91060000I-140000J0D01*
G01*
X151159995Y-90440500D01*
G37*
G36*
X151659995Y-85340000D02*
G01*
X151659995Y-85340000D01*
G75*
G02*
X151939995Y-85340000I140000J0D01*
G01*
X151939995Y-85960000D01*
G75*
G02*
X151659995Y-85960000I-140000J0D01*
G01*
X151659995Y-85340000D01*
G37*
G36*
X151659995Y-90440500D02*
G01*
X151659995Y-90440500D01*
G75*
G02*
X151939995Y-90440500I140000J0D01*
G01*
X151939995Y-91060000D01*
G75*
G02*
X151659995Y-91060000I-140000J0D01*
G01*
X151659995Y-90440500D01*
G37*
G36*
X152909995Y-86310000D02*
G01*
X152909995Y-86310000D01*
G75*
G02*
X152909995Y-86590000I5J-140000D01*
G01*
X152289995Y-86590000D01*
G75*
G02*
X152289995Y-86310000I5J140000D01*
G01*
X152909995Y-86310000D01*
G37*
G36*
X152909995Y-86810500D02*
G01*
X152909995Y-86810500D01*
G75*
G02*
X152909995Y-87090500I5J-140000D01*
G01*
X152289995Y-87090500D01*
G75*
G02*
X152289995Y-86810500I5J140000D01*
G01*
X152909995Y-86810500D01*
G37*
G36*
X152909995Y-87311000D02*
G01*
X152909995Y-87311000D01*
G75*
G02*
X152909995Y-87591000I5J-140000D01*
G01*
X152289995Y-87591000D01*
G75*
G02*
X152289995Y-87311000I5J140000D01*
G01*
X152909995Y-87311000D01*
G37*
G36*
X152909995Y-87811000D02*
G01*
X152909995Y-87811000D01*
G75*
G02*
X152909995Y-88091000I5J-140000D01*
G01*
X152289995Y-88091000D01*
G75*
G02*
X152289995Y-87811000I5J140000D01*
G01*
X152909995Y-87811000D01*
G37*
G36*
X152909995Y-88309000D02*
G01*
X152909995Y-88309000D01*
G75*
G02*
X152909995Y-88589000I5J-140000D01*
G01*
X152289995Y-88589000D01*
G75*
G02*
X152289995Y-88309000I5J140000D01*
G01*
X152909995Y-88309000D01*
G37*
G36*
X152909995Y-88809500D02*
G01*
X152909995Y-88809500D01*
G75*
G02*
X152909995Y-89089500I5J-140000D01*
G01*
X152289995Y-89089500D01*
G75*
G02*
X152289995Y-88809500I5J140000D01*
G01*
X152909995Y-88809500D01*
G37*
G36*
X152909995Y-89310000D02*
G01*
X152909995Y-89310000D01*
G75*
G02*
X152909995Y-89590000I5J-140000D01*
G01*
X152289995Y-89590000D01*
G75*
G02*
X152289995Y-89310000I5J140000D01*
G01*
X152909995Y-89310000D01*
G37*
G36*
X152909995Y-89810000D02*
G01*
X152909995Y-89810000D01*
G75*
G02*
X152909995Y-90090000I5J-140000D01*
G01*
X152289995Y-90090000D01*
G75*
G02*
X152289995Y-89810000I5J140000D01*
G01*
X152909995Y-89810000D01*
G37*
G04 #@! TD*
D11*
G04 #@! TO.C,C13*
X150825000Y-84100000D03*
X151375000Y-84100000D03*
G04 #@! TD*
D12*
G04 #@! TO.C,C9*
X142975000Y-98500000D03*
X141425000Y-98500000D03*
G04 #@! TD*
D13*
G04 #@! TO.C,C16*
X147225000Y-91600000D03*
X146675000Y-91600000D03*
G04 #@! TD*
D11*
G04 #@! TO.C,C20*
X148675000Y-79475000D03*
X149225000Y-79475000D03*
G04 #@! TD*
D14*
G04 #@! TO.C,C23*
X151100000Y-81350000D03*
X151100000Y-80800000D03*
G04 #@! TD*
D15*
G04 #@! TO.C,L1*
X133500000Y-85250000D03*
X138000000Y-85250000D03*
G04 #@! TD*
D16*
G04 #@! TO.C,U6*
X148075000Y-81825000D03*
X148075000Y-81325000D03*
X148075000Y-80825000D03*
X148075000Y-80325000D03*
D17*
X148700000Y-80200000D03*
X149200000Y-80200000D03*
D16*
X149825000Y-80325000D03*
X149825000Y-80825000D03*
X149825000Y-81325000D03*
X149825000Y-81825000D03*
D17*
X149200000Y-81950000D03*
X148700000Y-81950000D03*
G04 #@! TD*
D18*
G04 #@! TO.C,U5*
X144350000Y-91250000D03*
X143700000Y-91250000D03*
X143050000Y-91250000D03*
X142400000Y-91250000D03*
X141750000Y-91250000D03*
X141100000Y-91250000D03*
X140450000Y-91250000D03*
X140450000Y-85650000D03*
X141100000Y-85650000D03*
X141750000Y-85650000D03*
X142400000Y-85650000D03*
X143050000Y-85650000D03*
X143700000Y-85650000D03*
X144350000Y-85650000D03*
G04 #@! TD*
D13*
G04 #@! TO.C,C17*
X147225000Y-92250000D03*
X146675000Y-92250000D03*
G04 #@! TD*
D11*
G04 #@! TO.C,C14*
X152575000Y-85250000D03*
X153125000Y-85250000D03*
G04 #@! TD*
D14*
G04 #@! TO.C,C21*
X151700000Y-81350000D03*
X151700000Y-80800000D03*
G04 #@! TD*
D19*
G04 #@! TO.C,U3*
X147499995Y-89950000D03*
X147499995Y-89450000D03*
X147499995Y-88950000D03*
X147499995Y-88450000D03*
X147499995Y-87950000D03*
X147499995Y-87450000D03*
X147499995Y-86950000D03*
X147499995Y-86450000D03*
D20*
X148299995Y-85650000D03*
X148799995Y-85650000D03*
X149299995Y-85650000D03*
X149799995Y-85650000D03*
X150299995Y-85650000D03*
X150799995Y-85650000D03*
X151299995Y-85650000D03*
X151799995Y-85650000D03*
D19*
X152599995Y-86450000D03*
X152599995Y-86950000D03*
X152599995Y-87450000D03*
X152599995Y-87950000D03*
X152599995Y-88450000D03*
X152599995Y-88950000D03*
X152599995Y-89450000D03*
X152599995Y-89950000D03*
D20*
X151799995Y-90750000D03*
X151299995Y-90750000D03*
X150799995Y-90750000D03*
X150299995Y-90750000D03*
X149799995Y-90750000D03*
X149299995Y-90750000D03*
X148799995Y-90750000D03*
X148299995Y-90750000D03*
D21*
X150049995Y-88200000D03*
G04 #@! TD*
D22*
G04 #@! TO.C,U4*
X137150000Y-93214000D03*
X137150000Y-94164000D03*
X137150000Y-95114000D03*
X134450000Y-95114000D03*
X134450000Y-94164000D03*
X134450000Y-93214000D03*
G04 #@! TD*
D23*
G04 #@! TO.C,R6*
X137075000Y-96450000D03*
X138725000Y-96450000D03*
G04 #@! TD*
D14*
G04 #@! TO.C,C22*
X150500000Y-81350000D03*
X150500000Y-80800000D03*
G04 #@! TD*
D24*
G04 #@! TO.C,C11*
X135170000Y-91200000D03*
X136130000Y-91200000D03*
G04 #@! TD*
D11*
G04 #@! TO.C,C12*
X150825000Y-84750000D03*
X151375000Y-84750000D03*
G04 #@! TD*
G04 #@! TO.C,C19*
X143125000Y-84400000D03*
X143675000Y-84400000D03*
G04 #@! TD*
D25*
G04 #@! TO.C,R1*
X138300000Y-89700000D03*
X138300000Y-91600000D03*
G04 #@! TD*
D11*
G04 #@! TO.C,C15*
X152575000Y-84650000D03*
X153125000Y-84650000D03*
G04 #@! TD*
D26*
G04 #@! TO.C,C2*
X136400000Y-89500000D03*
X134500000Y-89500000D03*
G04 #@! TD*
D27*
G04 #@! TO.C,C1*
X143725000Y-94200000D03*
X140775000Y-94200000D03*
G04 #@! TD*
M02*
