G04 #@! TF.GenerationSoftware,KiCad,Pcbnew,9.0.4*
G04 #@! TF.CreationDate,2025-10-13T14:39:45-04:00*
G04 #@! TF.ProjectId,bldc motor controller,626c6463-206d-46f7-946f-7220636f6e74,rev?*
G04 #@! TF.SameCoordinates,Original*
G04 #@! TF.FileFunction,Other,User*
%FSLAX46Y46*%
G04 Gerber Fmt 4.6, Leading zero omitted, Abs format (unit mm)*
G04 Created by KiCad (PCBNEW 9.0.4) date 2025-10-13 14:39:45*
%MOMM*%
%LPD*%
G01*
G04 APERTURE LIST*
%ADD10C,0.000000*%
G04 APERTURE END LIST*
D10*
G04 #@! TO.C,SW2*
G36*
X150455433Y-93727039D02*
G01*
X150455433Y-93772961D01*
X150422961Y-93805433D01*
X150377039Y-93805433D01*
X150344567Y-93772961D01*
X150344567Y-93727039D01*
X150377039Y-93694567D01*
X150422961Y-93694567D01*
X150455433Y-93727039D01*
G37*
G04 #@! TO.C,SW1*
G36*
X143755433Y-93777039D02*
G01*
X143755433Y-93822961D01*
X143722961Y-93855433D01*
X143677039Y-93855433D01*
X143644567Y-93822961D01*
X143644567Y-93777039D01*
X143677039Y-93744567D01*
X143722961Y-93744567D01*
X143755433Y-93777039D01*
G37*
G04 #@! TO.C,LED1*
G36*
X135605933Y-97480539D02*
G01*
X135605933Y-97526461D01*
X135573461Y-97558933D01*
X135527539Y-97558933D01*
X135495067Y-97526461D01*
X135495067Y-97480539D01*
X135527539Y-97448067D01*
X135573461Y-97448067D01*
X135605933Y-97480539D01*
G37*
G04 #@! TO.C,U1*
G36*
X140505433Y-85976789D02*
G01*
X140505433Y-86022711D01*
X140472961Y-86055183D01*
X140427039Y-86055183D01*
X140394567Y-86022711D01*
X140394567Y-85976789D01*
X140427039Y-85944317D01*
X140472961Y-85944317D01*
X140505433Y-85976789D01*
G37*
G04 #@! TO.C,U6*
G36*
X148005433Y-82052039D02*
G01*
X148005433Y-82097961D01*
X147972961Y-82130433D01*
X147927039Y-82130433D01*
X147894567Y-82097961D01*
X147894567Y-82052039D01*
X147927039Y-82019567D01*
X147972961Y-82019567D01*
X148005433Y-82052039D01*
G37*
G04 #@! TO.C,U5*
G36*
X144485433Y-91047039D02*
G01*
X144485433Y-91092961D01*
X144452961Y-91125433D01*
X144407039Y-91125433D01*
X144374567Y-91092961D01*
X144374567Y-91047039D01*
X144407039Y-91014567D01*
X144452961Y-91014567D01*
X144485433Y-91047039D01*
G37*
G04 #@! TO.C,U3*
G36*
X147602428Y-90680039D02*
G01*
X147602428Y-90725961D01*
X147569956Y-90758433D01*
X147524034Y-90758433D01*
X147491562Y-90725961D01*
X147491562Y-90680039D01*
X147524034Y-90647567D01*
X147569956Y-90647567D01*
X147602428Y-90680039D01*
G37*
G04 #@! TO.C,U4*
G36*
X137255433Y-92691039D02*
G01*
X137255433Y-92736961D01*
X137222961Y-92769433D01*
X137177039Y-92769433D01*
X137144567Y-92736961D01*
X137144567Y-92691039D01*
X137177039Y-92658567D01*
X137222961Y-92658567D01*
X137255433Y-92691039D01*
G37*
G04 #@! TD*
M02*
