G04 #@! TF.GenerationSoftware,KiCad,Pcbnew,9.0.4*
G04 #@! TF.CreationDate,2025-10-13T14:39:45-04:00*
G04 #@! TF.ProjectId,bldc motor controller,626c6463-206d-46f7-946f-7220636f6e74,rev?*
G04 #@! TF.SameCoordinates,Original*
G04 #@! TF.FileFunction,Other,User*
%FSLAX46Y46*%
G04 Gerber Fmt 4.6, Leading zero omitted, Abs format (unit mm)*
G04 Created by KiCad (PCBNEW 9.0.4) date 2025-10-13 14:39:45*
%MOMM*%
%LPD*%
G01*
G04 APERTURE LIST*
%ADD10C,0.050000*%
G04 APERTURE END LIST*
D10*
G04 #@! TO.C,C13*
X150500000Y-83800000D02*
X150500000Y-84400000D01*
X150500000Y-84400000D02*
X151700000Y-84400000D01*
X151700000Y-83800000D02*
X150500000Y-83800000D01*
X151700000Y-84400000D02*
X151700000Y-83800000D01*
G04 #@! TO.C,C9*
X140720000Y-97770000D02*
X140720000Y-99230000D01*
X140720000Y-99230000D02*
X143680000Y-99230000D01*
X143680000Y-97770000D02*
X140720000Y-97770000D01*
X143680000Y-99230000D02*
X143680000Y-97770000D01*
G04 #@! TO.C,C16*
X146350000Y-91300000D02*
X146350000Y-91900000D01*
X146350000Y-91900000D02*
X147550000Y-91900000D01*
X147550000Y-91300000D02*
X146350000Y-91300000D01*
X147550000Y-91900000D02*
X147550000Y-91300000D01*
G04 #@! TO.C,C20*
X148350000Y-79175000D02*
X148350000Y-79775000D01*
X148350000Y-79775000D02*
X149550000Y-79775000D01*
X149550000Y-79175000D02*
X148350000Y-79175000D01*
X149550000Y-79775000D02*
X149550000Y-79175000D01*
G04 #@! TO.C,C23*
X150800000Y-80475000D02*
X150800000Y-81675000D01*
X150800000Y-81675000D02*
X151400000Y-81675000D01*
X151400000Y-80475000D02*
X150800000Y-80475000D01*
X151400000Y-81675000D02*
X151400000Y-80475000D01*
G04 #@! TO.C,L1*
X132250000Y-84100000D02*
X132250000Y-86400000D01*
X132250000Y-86400000D02*
X132650000Y-86400000D01*
X132650000Y-82400000D02*
X132650000Y-84100000D01*
X132650000Y-84100000D02*
X132250000Y-84100000D01*
X132650000Y-86400000D02*
X132650000Y-88100000D01*
X132650000Y-88100000D02*
X138850000Y-88100000D01*
X138850000Y-82400000D02*
X132650000Y-82400000D01*
X138850000Y-84100000D02*
X138850000Y-82400000D01*
X138850000Y-86400000D02*
X139250000Y-86400000D01*
X138850000Y-88100000D02*
X138850000Y-86400000D01*
X139250000Y-84100000D02*
X138850000Y-84100000D01*
X139250000Y-86400000D02*
X139250000Y-84100000D01*
G04 #@! TO.C,C17*
X146350000Y-91950000D02*
X146350000Y-92550000D01*
X146350000Y-92550000D02*
X147550000Y-92550000D01*
X147550000Y-91950000D02*
X146350000Y-91950000D01*
X147550000Y-92550000D02*
X147550000Y-91950000D01*
G04 #@! TO.C,C14*
X152250000Y-84950000D02*
X152250000Y-85550000D01*
X152250000Y-85550000D02*
X153450000Y-85550000D01*
X153450000Y-84950000D02*
X152250000Y-84950000D01*
X153450000Y-85550000D02*
X153450000Y-84950000D01*
G04 #@! TO.C,C21*
X151400000Y-80475000D02*
X151400000Y-81675000D01*
X151400000Y-81675000D02*
X152000000Y-81675000D01*
X152000000Y-80475000D02*
X151400000Y-80475000D01*
X152000000Y-81675000D02*
X152000000Y-80475000D01*
G04 #@! TO.C,R6*
X136420000Y-95720000D02*
X136420000Y-97180000D01*
X136420000Y-97180000D02*
X139380000Y-97180000D01*
X139380000Y-95720000D02*
X136420000Y-95720000D01*
X139380000Y-97180000D02*
X139380000Y-95720000D01*
G04 #@! TO.C,C22*
X150200000Y-80475000D02*
X150200000Y-81675000D01*
X150200000Y-81675000D02*
X150800000Y-81675000D01*
X150800000Y-80475000D02*
X150200000Y-80475000D01*
X150800000Y-81675000D02*
X150800000Y-80475000D01*
G04 #@! TO.C,C11*
X134740000Y-90740000D02*
X134740000Y-91660000D01*
X134740000Y-91660000D02*
X136560000Y-91660000D01*
X136560000Y-90740000D02*
X134740000Y-90740000D01*
X136560000Y-91660000D02*
X136560000Y-90740000D01*
G04 #@! TO.C,C12*
X150500000Y-84450000D02*
X150500000Y-85050000D01*
X150500000Y-85050000D02*
X151700000Y-85050000D01*
X151700000Y-84450000D02*
X150500000Y-84450000D01*
X151700000Y-85050000D02*
X151700000Y-84450000D01*
G04 #@! TO.C,C19*
X142800000Y-84100000D02*
X142800000Y-84700000D01*
X142800000Y-84700000D02*
X144000000Y-84700000D01*
X144000000Y-84100000D02*
X142800000Y-84100000D01*
X144000000Y-84700000D02*
X144000000Y-84100000D01*
G04 #@! TO.C,R1*
X137320000Y-88950000D02*
X137320000Y-92350000D01*
X137320000Y-92350000D02*
X139280000Y-92350000D01*
X139280000Y-88950000D02*
X137320000Y-88950000D01*
X139280000Y-92350000D02*
X139280000Y-88950000D01*
G04 #@! TO.C,C15*
X152250000Y-84350000D02*
X152250000Y-84950000D01*
X152250000Y-84950000D02*
X153450000Y-84950000D01*
X153450000Y-84350000D02*
X152250000Y-84350000D01*
X153450000Y-84950000D02*
X153450000Y-84350000D01*
G04 #@! TO.C,C2*
X133750000Y-88520000D02*
X133750000Y-90480000D01*
X133750000Y-90480000D02*
X137150000Y-90480000D01*
X137150000Y-88520000D02*
X133750000Y-88520000D01*
X137150000Y-90480000D02*
X137150000Y-88520000D01*
G04 #@! TO.C,C1*
X139950000Y-93050000D02*
X139950000Y-95350000D01*
X139950000Y-95350000D02*
X144550000Y-95350000D01*
X144550000Y-93050000D02*
X139950000Y-93050000D01*
X144550000Y-95350000D02*
X144550000Y-93050000D01*
G04 #@! TD*
M02*
