%TF.GenerationSoftware,KiCad,Pcbnew,9.0.4*%
%TF.CreationDate,2025-10-05T00:28:02-04:00*%
%TF.ProjectId,bldc motor controller,626c6463-206d-46f7-946f-7220636f6e74,rev?*%
%TF.SameCoordinates,Original*%
%TF.FileFunction,Paste,Top*%
%TF.FilePolarity,Positive*%
%FSLAX46Y46*%
G04 Gerber Fmt 4.6, Leading zero omitted, Abs format (unit mm)*
G04 Created by KiCad (PCBNEW 9.0.4) date 2025-10-05 00:28:02*
%MOMM*%
%LPD*%
G01*
G04 APERTURE LIST*
G04 Aperture macros list*
%AMRoundRect*
0 Rectangle with rounded corners*
0 $1 Rounding radius*
0 $2 $3 $4 $5 $6 $7 $8 $9 X,Y pos of 4 corners*
0 Add a 4 corners polygon primitive as box body*
4,1,4,$2,$3,$4,$5,$6,$7,$8,$9,$2,$3,0*
0 Add four circle primitives for the rounded corners*
1,1,$1+$1,$2,$3*
1,1,$1+$1,$4,$5*
1,1,$1+$1,$6,$7*
1,1,$1+$1,$8,$9*
0 Add four rect primitives between the rounded corners*
20,1,$1+$1,$2,$3,$4,$5,0*
20,1,$1+$1,$4,$5,$6,$7,0*
20,1,$1+$1,$6,$7,$8,$9,0*
20,1,$1+$1,$8,$9,$2,$3,0*%
G04 Aperture macros list end*
%ADD10RoundRect,0.067500X-0.067500X0.067500X-0.067500X-0.067500X0.067500X-0.067500X0.067500X0.067500X0*%
%ADD11RoundRect,0.067500X0.067500X-0.067500X0.067500X0.067500X-0.067500X0.067500X-0.067500X-0.067500X0*%
%ADD12RoundRect,0.225000X-0.225000X-0.250000X0.225000X-0.250000X0.225000X0.250000X-0.225000X0.250000X0*%
%ADD13RoundRect,0.150000X-0.700000X0.150000X-0.700000X-0.150000X0.700000X-0.150000X0.700000X0.150000X0*%
%ADD14RoundRect,0.250000X-1.150000X0.250000X-1.150000X-0.250000X1.150000X-0.250000X1.150000X0.250000X0*%
%ADD15R,0.550000X0.720000*%
%ADD16O,0.790000X0.280000*%
%ADD17O,0.280000X0.790000*%
%ADD18R,3.000000X4.000000*%
%ADD19RoundRect,0.140000X-0.170000X0.140000X-0.170000X-0.140000X0.170000X-0.140000X0.170000X0.140000X0*%
%ADD20RoundRect,0.140000X-0.140000X-0.170000X0.140000X-0.170000X0.140000X0.170000X-0.140000X0.170000X0*%
%ADD21RoundRect,0.135000X0.135000X0.185000X-0.135000X0.185000X-0.135000X-0.185000X0.135000X-0.185000X0*%
%ADD22RoundRect,0.150000X0.150000X0.275000X-0.150000X0.275000X-0.150000X-0.275000X0.150000X-0.275000X0*%
%ADD23RoundRect,0.187500X0.187500X0.362500X-0.187500X0.362500X-0.187500X-0.362500X0.187500X-0.362500X0*%
%ADD24R,0.800000X0.800000*%
%ADD25R,0.720000X0.550000*%
%ADD26RoundRect,0.140000X0.170000X-0.140000X0.170000X0.140000X-0.170000X0.140000X-0.170000X-0.140000X0*%
%ADD27RoundRect,0.200000X-0.200000X-0.275000X0.200000X-0.275000X0.200000X0.275000X-0.200000X0.275000X0*%
G04 APERTURE END LIST*
D10*
%TO.C,R11*%
X133150000Y-91525000D03*
X133150000Y-92075000D03*
%TD*%
D11*
%TO.C,C6*%
X136349750Y-90875000D03*
X136349750Y-90325000D03*
%TD*%
D10*
%TO.C,C4*%
X136925000Y-92950000D03*
X136925000Y-93500000D03*
%TD*%
D12*
%TO.C,C7*%
X133575000Y-81900000D03*
X135125000Y-81900000D03*
%TD*%
D10*
%TO.C,R9*%
X132049750Y-91525000D03*
X132049750Y-92075000D03*
%TD*%
D13*
%TO.C,U7*%
X147850000Y-87375000D03*
X147850000Y-88625000D03*
D14*
X151200000Y-85525000D03*
X151200000Y-90475000D03*
%TD*%
D11*
%TO.C,C3*%
X136524750Y-92200000D03*
X136524750Y-91650000D03*
%TD*%
D10*
%TO.C,R10*%
X131400000Y-91075000D03*
X131400000Y-91625000D03*
%TD*%
D15*
%TO.C,SW1*%
X141450000Y-90550000D03*
X141450000Y-93250000D03*
X140650000Y-90550000D03*
X140650000Y-93250000D03*
%TD*%
D16*
%TO.C,U1*%
X136257500Y-89550000D03*
X136257500Y-89050000D03*
X136257500Y-88200000D03*
X136257500Y-87350000D03*
X136257500Y-86500000D03*
X136257500Y-85650000D03*
D17*
X135600000Y-84692500D03*
X135100000Y-84692500D03*
X134600000Y-84692500D03*
X134100000Y-84692500D03*
X133600000Y-84692500D03*
X133100000Y-84692500D03*
X132600000Y-84692500D03*
X132100000Y-84692500D03*
D16*
X131442500Y-85650000D03*
X131442500Y-86500000D03*
X131442500Y-87350000D03*
X131442500Y-88200000D03*
X131442500Y-89050000D03*
X131442500Y-89550000D03*
D17*
X132100000Y-90507500D03*
X132600000Y-90507500D03*
X133100000Y-90507500D03*
X133600000Y-90507500D03*
X134100000Y-90507500D03*
X134600000Y-90507500D03*
X135100000Y-90507500D03*
X135600000Y-90507500D03*
D18*
X133850000Y-87600000D03*
%TD*%
D19*
%TO.C,C10*%
X139649750Y-88420000D03*
X139649750Y-89380000D03*
%TD*%
D10*
%TO.C,C5*%
X134249750Y-92625000D03*
X134249750Y-93175000D03*
%TD*%
%TO.C,R4*%
X135000000Y-92625000D03*
X135000000Y-93175000D03*
%TD*%
D20*
%TO.C,C18*%
X132420000Y-93600000D03*
X133380000Y-93600000D03*
%TD*%
D21*
%TO.C,R7*%
X144410000Y-89500000D03*
X143390000Y-89500000D03*
%TD*%
D22*
%TO.C,U2*%
X145050000Y-85200000D03*
X143850000Y-85200000D03*
X142650000Y-85200000D03*
X141450000Y-85200000D03*
D23*
X146225000Y-81575000D03*
X140275000Y-81575000D03*
%TD*%
D24*
%TO.C,LED1*%
X145399500Y-93950000D03*
X143800500Y-93950000D03*
%TD*%
D11*
%TO.C,R2*%
X137325000Y-92200000D03*
X137325000Y-91650000D03*
%TD*%
D25*
%TO.C,SW2*%
X146250000Y-91400000D03*
X143550000Y-91400000D03*
X146250000Y-90600000D03*
X143550000Y-90600000D03*
%TD*%
D10*
%TO.C,R3*%
X135900000Y-92925000D03*
X135900000Y-93475000D03*
%TD*%
D26*
%TO.C,C24*%
X142450000Y-92380000D03*
X142450000Y-91420000D03*
%TD*%
D27*
%TO.C,R8*%
X146725000Y-92650000D03*
X148375000Y-92650000D03*
%TD*%
M02*
