%TF.GenerationSoftware,KiCad,Pcbnew,9.0.4*%
%TF.CreationDate,2025-10-05T00:28:02-04:00*%
%TF.ProjectId,bldc motor controller,626c6463-206d-46f7-946f-7220636f6e74,rev?*%
%TF.SameCoordinates,Original*%
%TF.FileFunction,Copper,L1,Top*%
%TF.FilePolarity,Positive*%
%FSLAX46Y46*%
G04 Gerber Fmt 4.6, Leading zero omitted, Abs format (unit mm)*
G04 Created by KiCad (PCBNEW 9.0.4) date 2025-10-05 00:28:02*
%MOMM*%
%LPD*%
G01*
G04 APERTURE LIST*
G04 Aperture macros list*
%AMRoundRect*
0 Rectangle with rounded corners*
0 $1 Rounding radius*
0 $2 $3 $4 $5 $6 $7 $8 $9 X,Y pos of 4 corners*
0 Add a 4 corners polygon primitive as box body*
4,1,4,$2,$3,$4,$5,$6,$7,$8,$9,$2,$3,0*
0 Add four circle primitives for the rounded corners*
1,1,$1+$1,$2,$3*
1,1,$1+$1,$4,$5*
1,1,$1+$1,$6,$7*
1,1,$1+$1,$8,$9*
0 Add four rect primitives between the rounded corners*
20,1,$1+$1,$2,$3,$4,$5,0*
20,1,$1+$1,$4,$5,$6,$7,0*
20,1,$1+$1,$6,$7,$8,$9,0*
20,1,$1+$1,$8,$9,$2,$3,0*%
G04 Aperture macros list end*
%TA.AperFunction,ComponentPad*%
%ADD10C,3.800000*%
%TD*%
%TA.AperFunction,SMDPad,CuDef*%
%ADD11RoundRect,0.075000X-0.075000X0.125000X-0.075000X-0.125000X0.075000X-0.125000X0.075000X0.125000X0*%
%TD*%
%TA.AperFunction,SMDPad,CuDef*%
%ADD12RoundRect,0.075000X0.075000X-0.125000X0.075000X0.125000X-0.075000X0.125000X-0.075000X-0.125000X0*%
%TD*%
%TA.AperFunction,SMDPad,CuDef*%
%ADD13RoundRect,0.225000X-0.225000X-0.250000X0.225000X-0.250000X0.225000X0.250000X-0.225000X0.250000X0*%
%TD*%
%TA.AperFunction,SMDPad,CuDef*%
%ADD14RoundRect,0.150000X-0.700000X0.150000X-0.700000X-0.150000X0.700000X-0.150000X0.700000X0.150000X0*%
%TD*%
%TA.AperFunction,SMDPad,CuDef*%
%ADD15RoundRect,0.250000X-1.150000X0.250000X-1.150000X-0.250000X1.150000X-0.250000X1.150000X0.250000X0*%
%TD*%
%TA.AperFunction,ComponentPad*%
%ADD16R,1.700000X1.700000*%
%TD*%
%TA.AperFunction,ComponentPad*%
%ADD17C,1.700000*%
%TD*%
%TA.AperFunction,SMDPad,CuDef*%
%ADD18R,0.550000X0.720000*%
%TD*%
%TA.AperFunction,SMDPad,CuDef*%
%ADD19O,0.790000X0.280000*%
%TD*%
%TA.AperFunction,SMDPad,CuDef*%
%ADD20O,0.280000X0.790000*%
%TD*%
%TA.AperFunction,SMDPad,CuDef*%
%ADD21R,3.000000X4.000000*%
%TD*%
%TA.AperFunction,SMDPad,CuDef*%
%ADD22RoundRect,0.140000X-0.170000X0.140000X-0.170000X-0.140000X0.170000X-0.140000X0.170000X0.140000X0*%
%TD*%
%TA.AperFunction,SMDPad,CuDef*%
%ADD23RoundRect,0.140000X-0.140000X-0.170000X0.140000X-0.170000X0.140000X0.170000X-0.140000X0.170000X0*%
%TD*%
%TA.AperFunction,SMDPad,CuDef*%
%ADD24RoundRect,0.135000X0.135000X0.185000X-0.135000X0.185000X-0.135000X-0.185000X0.135000X-0.185000X0*%
%TD*%
%TA.AperFunction,SMDPad,CuDef*%
%ADD25RoundRect,0.150000X0.150000X0.275000X-0.150000X0.275000X-0.150000X-0.275000X0.150000X-0.275000X0*%
%TD*%
%TA.AperFunction,SMDPad,CuDef*%
%ADD26RoundRect,0.187500X0.187500X0.362500X-0.187500X0.362500X-0.187500X-0.362500X0.187500X-0.362500X0*%
%TD*%
%TA.AperFunction,SMDPad,CuDef*%
%ADD27R,0.800000X0.800000*%
%TD*%
%TA.AperFunction,SMDPad,CuDef*%
%ADD28R,0.720000X0.550000*%
%TD*%
%TA.AperFunction,ComponentPad*%
%ADD29RoundRect,0.250000X0.600000X0.750000X-0.600000X0.750000X-0.600000X-0.750000X0.600000X-0.750000X0*%
%TD*%
%TA.AperFunction,ComponentPad*%
%ADD30O,1.700000X2.000000*%
%TD*%
%TA.AperFunction,SMDPad,CuDef*%
%ADD31RoundRect,0.140000X0.170000X-0.140000X0.170000X0.140000X-0.170000X0.140000X-0.170000X-0.140000X0*%
%TD*%
%TA.AperFunction,SMDPad,CuDef*%
%ADD32RoundRect,0.200000X-0.200000X-0.275000X0.200000X-0.275000X0.200000X0.275000X-0.200000X0.275000X0*%
%TD*%
%TA.AperFunction,ViaPad*%
%ADD33C,0.600000*%
%TD*%
%TA.AperFunction,Conductor*%
%ADD34C,0.500000*%
%TD*%
%TA.AperFunction,Conductor*%
%ADD35C,0.200000*%
%TD*%
G04 APERTURE END LIST*
D10*
%TO.P,REF\u002A\u002A,1*%
%TO.N,N/C*%
X136500000Y-96600000D03*
%TD*%
D11*
%TO.P,R11,1*%
%TO.N,Net-(U1-nSCS{slash}OCP)*%
X133150000Y-91550000D03*
%TO.P,R11,2*%
%TO.N,TI_AGND*%
X133150000Y-92050000D03*
%TD*%
D12*
%TO.P,C6,1*%
%TO.N,TI_AGND*%
X136349750Y-90850000D03*
%TO.P,C6,2*%
%TO.N,I-LIMIT*%
X136349750Y-90350000D03*
%TD*%
D11*
%TO.P,C4,1*%
%TO.N,Net-(U1-SOB)*%
X136925000Y-92975000D03*
%TO.P,C4,2*%
%TO.N,TI_AGND*%
X136925000Y-93475000D03*
%TD*%
D13*
%TO.P,C7,1*%
%TO.N,TI_AGND*%
X133575000Y-81900000D03*
%TO.P,C7,2*%
%TO.N,TI_AVDD*%
X135125000Y-81900000D03*
%TD*%
D10*
%TO.P,REF\u002A\u002A,1*%
%TO.N,N/C*%
X149250000Y-79850000D03*
%TD*%
D11*
%TO.P,R9,1*%
%TO.N,Net-(U1-SDI{slash}GAIN)*%
X132049750Y-91550000D03*
%TO.P,R9,2*%
%TO.N,TI_AGND*%
X132049750Y-92050000D03*
%TD*%
D14*
%TO.P,U7,1,1*%
%TO.N,CAN_RX*%
X147850000Y-87375000D03*
%TO.P,U7,2,2*%
%TO.N,CAN_TX*%
X147850000Y-88625000D03*
D15*
%TO.P,U7,MP*%
%TO.N,N/C*%
X151200000Y-85525000D03*
X151200000Y-90475000D03*
%TD*%
D16*
%TO.P,U8,1,1*%
%TO.N,PHASE-A*%
X144990000Y-77550000D03*
D17*
%TO.P,U8,2,2*%
%TO.N,PHASE-B*%
X142450000Y-77550000D03*
%TO.P,U8,3,3*%
%TO.N,PHASE-C*%
X139910000Y-77550000D03*
%TD*%
D12*
%TO.P,C3,1*%
%TO.N,Net-(U1-SOA)*%
X136524750Y-92175000D03*
%TO.P,C3,2*%
%TO.N,TI_AGND*%
X136524750Y-91675000D03*
%TD*%
D11*
%TO.P,R10,1*%
%TO.N,Net-(U1-SDO{slash}MODE_SR)*%
X131400000Y-91100000D03*
%TO.P,R10,2*%
%TO.N,TI_AGND*%
X131400000Y-91600000D03*
%TD*%
D18*
%TO.P,SW1,1,1*%
%TO.N,TI_AGND*%
X141450000Y-90550000D03*
%TO.P,SW1,2,2*%
%TO.N,Reset*%
X141450000Y-93250000D03*
%TO.P,SW1,3,3*%
%TO.N,unconnected-(SW1-Pad3)*%
X140650000Y-90550000D03*
%TO.P,SW1,4,4*%
%TO.N,unconnected-(SW1-Pad4)*%
X140650000Y-93250000D03*
%TD*%
D19*
%TO.P,U1,1,CP*%
%TO.N,TI_AVDD*%
X136257500Y-89550000D03*
%TO.P,U1,2,VM*%
%TO.N,TI_AGND*%
X136257500Y-89050000D03*
%TO.P,U1,3,PGND*%
%TO.N,+BATT*%
X136257500Y-88200000D03*
%TO.P,U1,4,OUTA*%
%TO.N,PHASE-A*%
X136257500Y-87350000D03*
%TO.P,U1,5,OUTB*%
%TO.N,PHASE-B*%
X136257500Y-86500000D03*
%TO.P,U1,6,OUTC*%
%TO.N,PHASE-C*%
X136257500Y-85650000D03*
D20*
%TO.P,U1,7,PGND*%
%TO.N,+BATT*%
X135600000Y-84692500D03*
%TO.P,U1,8,AGND*%
%TO.N,TI_AGND*%
X135100000Y-84692500D03*
%TO.P,U1,9,AVDD*%
%TO.N,TI_AVDD*%
X134600000Y-84692500D03*
%TO.P,U1,10,GVDD*%
%TO.N,I-LIMIT*%
X134100000Y-84692500D03*
%TO.P,U1,11,DRVOFF*%
%TO.N,TI_AGND*%
X133600000Y-84692500D03*
%TO.P,U1,12,nFAULT*%
%TO.N,TI_FAULT*%
X133100000Y-84692500D03*
%TO.P,U1,13,nSLEEP*%
%TO.N,TI_AVDD*%
X132600000Y-84692500D03*
%TO.P,U1,14,INHA*%
%TO.N,TIM1_CH1*%
X132100000Y-84692500D03*
D19*
%TO.P,U1,15,INLA*%
%TO.N,TIM1_CH1N*%
X131442500Y-85650000D03*
%TO.P,U1,16,INHB*%
%TO.N,TIM1_CH2*%
X131442500Y-86500000D03*
%TO.P,U1,17,INLB*%
%TO.N,TIM1_CH2N*%
X131442500Y-87350000D03*
%TO.P,U1,18,INHC*%
%TO.N,TIM1_CH3*%
X131442500Y-88200000D03*
%TO.P,U1,19,INLC*%
%TO.N,TIM1_CH3N*%
X131442500Y-89050000D03*
%TO.P,U1,20,SDO/MODE_SR*%
%TO.N,Net-(U1-SDO{slash}MODE_SR)*%
X131442500Y-89550000D03*
D20*
%TO.P,U1,21,SDI/GAIN*%
%TO.N,Net-(U1-SDI{slash}GAIN)*%
X132100000Y-90507500D03*
%TO.P,U1,22,SCLK/SLEW*%
%TO.N,TI_AGND*%
X132600000Y-90507500D03*
%TO.P,U1,23,nSCS/OCP*%
%TO.N,Net-(U1-nSCS{slash}OCP)*%
X133100000Y-90507500D03*
%TO.P,U1,24,VREF*%
%TO.N,TI_VREF*%
X133600000Y-90507500D03*
%TO.P,U1,25,SOC*%
%TO.N,Net-(U1-SOC)*%
X134100000Y-90507500D03*
%TO.P,U1,26,SOB*%
%TO.N,Net-(U1-SOB)*%
X134600000Y-90507500D03*
%TO.P,U1,27,SOA*%
%TO.N,Net-(U1-SOA)*%
X135100000Y-90507500D03*
%TO.P,U1,28,ILIMIT*%
%TO.N,I-LIMIT*%
X135600000Y-90507500D03*
D21*
%TO.P,U1,29,EP*%
%TO.N,TI_AGND*%
X133850000Y-87600000D03*
%TD*%
D22*
%TO.P,C10,1*%
%TO.N,+BATT*%
X139649750Y-88420000D03*
%TO.P,C10,2*%
%TO.N,TI_AVDD*%
X139649750Y-89380000D03*
%TD*%
D11*
%TO.P,C5,1*%
%TO.N,Net-(U1-SOC)*%
X134249750Y-92650000D03*
%TO.P,C5,2*%
%TO.N,TI_AGND*%
X134249750Y-93150000D03*
%TD*%
%TO.P,R4,1*%
%TO.N,Net-(U1-SOC)*%
X135000000Y-92650000D03*
%TO.P,R4,2*%
%TO.N,SOC*%
X135000000Y-93150000D03*
%TD*%
D23*
%TO.P,C18,1*%
%TO.N,TI_AGND*%
X132420000Y-93600000D03*
%TO.P,C18,2*%
%TO.N,TI_VREF*%
X133380000Y-93600000D03*
%TD*%
D24*
%TO.P,R7,1*%
%TO.N,BOOT0*%
X144410000Y-89500000D03*
%TO.P,R7,2*%
%TO.N,TI_AGND*%
X143390000Y-89500000D03*
%TD*%
D25*
%TO.P,U2,1,1*%
%TO.N,UART_TX*%
X145050000Y-85200000D03*
%TO.P,U2,2,2*%
%TO.N,UART_RX*%
X143850000Y-85200000D03*
%TO.P,U2,3,3*%
%TO.N,TI_VREF*%
X142650000Y-85200000D03*
%TO.P,U2,4,4*%
%TO.N,TI_AGND*%
X141450000Y-85200000D03*
D26*
%TO.P,U2,MP*%
%TO.N,N/C*%
X146225000Y-81575000D03*
X140275000Y-81575000D03*
%TD*%
D27*
%TO.P,LED1,1,K*%
%TO.N,Net-(LED1-K)*%
X145399500Y-93950000D03*
%TO.P,LED1,2,A*%
%TO.N,TI_VREF*%
X143800500Y-93950000D03*
%TD*%
D12*
%TO.P,R2,1*%
%TO.N,Net-(U1-SOA)*%
X137325000Y-92175000D03*
%TO.P,R2,2*%
%TO.N,SOA*%
X137325000Y-91675000D03*
%TD*%
D28*
%TO.P,SW2,1,1*%
%TO.N,unconnected-(SW2-Pad1)*%
X146250000Y-91400000D03*
%TO.P,SW2,2,2*%
%TO.N,unconnected-(SW2-Pad2)*%
X143550000Y-91400000D03*
%TO.P,SW2,3,3*%
%TO.N,TI_VREF*%
X146250000Y-90600000D03*
%TO.P,SW2,4,4*%
%TO.N,BOOT0*%
X143550000Y-90600000D03*
%TD*%
D11*
%TO.P,R3,1*%
%TO.N,Net-(U1-SOB)*%
X135900000Y-92950000D03*
%TO.P,R3,2*%
%TO.N,SOB*%
X135900000Y-93450000D03*
%TD*%
D29*
%TO.P,CN1,1,1*%
%TO.N,TI_AGND*%
X144400000Y-97750000D03*
D30*
%TO.P,CN1,2,2*%
%TO.N,+BATT*%
X141900000Y-97750000D03*
%TD*%
D31*
%TO.P,C24,1*%
%TO.N,Reset*%
X142450000Y-92380000D03*
%TO.P,C24,2*%
%TO.N,TI_AGND*%
X142450000Y-91420000D03*
%TD*%
D32*
%TO.P,R8,1*%
%TO.N,Net-(LED1-K)*%
X146725000Y-92650000D03*
%TO.P,R8,2*%
%TO.N,TI_AGND*%
X148375000Y-92650000D03*
%TD*%
D33*
%TO.N,+BATT*%
X139450000Y-86089416D03*
X136100000Y-83536217D03*
%TO.N,TI_AGND*%
X132900000Y-94600000D03*
X147052917Y-93897083D03*
X136600000Y-78000000D03*
X143037103Y-83361483D03*
X152150000Y-82850000D03*
X138156663Y-89114877D03*
X148715544Y-96357772D03*
X139550000Y-92650000D03*
%TO.N,TI_VREF*%
X132049000Y-92850000D03*
X145000062Y-80700062D03*
X146552917Y-94650000D03*
%TO.N,I-LIMIT*%
X141624555Y-87926974D03*
X135726910Y-80350000D03*
%TO.N,TI_AVDD*%
X136600000Y-79249000D03*
X132325680Y-82924320D03*
X140550001Y-88702000D03*
%TO.N,Reset*%
X153649369Y-89199928D03*
%TO.N,SOA*%
X153678553Y-90127028D03*
%TO.N,SOB*%
X153328641Y-90846446D03*
X137874000Y-93851000D03*
%TO.N,SOC*%
X133150000Y-95400000D03*
X150705514Y-93540000D03*
%TO.N,BOOT0*%
X150500000Y-83550000D03*
%TO.N,TIM1_CH1N*%
X130599750Y-85650000D03*
X149952231Y-93817943D03*
%TO.N,TIM1_CH1*%
X142301000Y-88700000D03*
X132100000Y-83749750D03*
%TO.N,TI_FAULT*%
X153818419Y-87800000D03*
X132560290Y-81654050D03*
%TO.N,TIM1_CH3*%
X143200000Y-87900000D03*
X130549750Y-88200000D03*
%TO.N,TIM1_CH3N*%
X153412018Y-84537980D03*
X130549750Y-89000000D03*
%TO.N,TIM1_CH2N*%
X149155514Y-93745514D03*
X130549750Y-87350000D03*
%TO.N,TIM1_CH2*%
X130549750Y-86500000D03*
X140469778Y-87369221D03*
%TO.N,UART_RX*%
X145640287Y-84443115D03*
X152373265Y-94355583D03*
%TO.N,UART_TX*%
X146634998Y-85334785D03*
X153300000Y-92800000D03*
%TO.N,MOSI1*%
X149450000Y-86450000D03*
X143000000Y-86700000D03*
%TO.N,NSS1*%
X140249997Y-86600000D03*
X151600000Y-95000000D03*
%TO.N,SCL1*%
X149010487Y-85781545D03*
X144550000Y-83500000D03*
%TO.N,MISO1*%
X142050000Y-86725974D03*
X149450000Y-83400000D03*
%TO.N,SCK1*%
X151505374Y-93525002D03*
X141050000Y-86600000D03*
%TO.N,CAN_RX*%
X144634828Y-87343799D03*
%TO.N,CAN_TX*%
X143770762Y-87328263D03*
%TD*%
D34*
%TO.N,+BATT*%
X139409581Y-86089416D02*
X137298997Y-88200000D01*
X139498997Y-88269247D02*
X139649750Y-88420000D01*
X137298997Y-88200000D02*
X136257500Y-88200000D01*
X136100000Y-83536217D02*
X135700000Y-83936217D01*
X136257500Y-88200000D02*
X136358500Y-88099000D01*
X137629750Y-88200000D02*
X136257500Y-88200000D01*
D35*
X135700000Y-84592500D02*
X135600000Y-84692500D01*
D34*
X139472589Y-86089416D02*
X139498997Y-86115824D01*
X139328750Y-88099000D02*
X139649750Y-88420000D01*
X139498997Y-86115824D02*
X139498997Y-88269247D01*
X139450000Y-86089416D02*
X139472589Y-86089416D01*
X136358500Y-88099000D02*
X139328750Y-88099000D01*
X135700000Y-83936217D02*
X135700000Y-84592500D01*
X139450000Y-86089416D02*
X139409581Y-86089416D01*
D35*
%TO.N,TI_AGND*%
X143037103Y-83612897D02*
X141450000Y-85200000D01*
D34*
X138114877Y-89114877D02*
X137959000Y-88959000D01*
D35*
X137701000Y-93249000D02*
X137701000Y-93350000D01*
X134249750Y-93917800D02*
X133567550Y-94600000D01*
X133600000Y-84692500D02*
X133600000Y-87350000D01*
X148700000Y-92975000D02*
X148375000Y-92650000D01*
X148654514Y-93953035D02*
X148654514Y-93537993D01*
X132049750Y-92051000D02*
X131849586Y-92051000D01*
X131400000Y-91600000D02*
X131400000Y-93100000D01*
X143390000Y-89500000D02*
X142500000Y-89500000D01*
X136600000Y-78000000D02*
X133575000Y-81025000D01*
X138366761Y-94066761D02*
X140749000Y-96449000D01*
X140749000Y-98376760D02*
X141423240Y-99051000D01*
X132670000Y-93600000D02*
X132670000Y-94370000D01*
X131849586Y-92051000D02*
X131399293Y-91600707D01*
X148715544Y-96357772D02*
X149403108Y-95670208D01*
X148700000Y-93492507D02*
X148700000Y-92975000D01*
X134249750Y-93150000D02*
X134249750Y-93917800D01*
X135100000Y-83150110D02*
X137150000Y-81100110D01*
X148654514Y-93537993D02*
X148700000Y-93492507D01*
X132600000Y-90507500D02*
X132600000Y-88850000D01*
X138375000Y-93643479D02*
X138375000Y-94058521D01*
X132600750Y-92051000D02*
X133049750Y-92051000D01*
X148715544Y-96357772D02*
X147323316Y-97750000D01*
X138081521Y-93350000D02*
X138375000Y-93643479D01*
X148700000Y-93998521D02*
X148654514Y-93953035D01*
X143037103Y-83361483D02*
X143037103Y-83612897D01*
X140283000Y-91420000D02*
X142450000Y-91420000D01*
X132598750Y-90508750D02*
X132598750Y-92049000D01*
X143099000Y-99051000D02*
X144400000Y-97750000D01*
X136925000Y-93475000D02*
X137475000Y-93475000D01*
X137150000Y-81100110D02*
X137150000Y-78550000D01*
X149403108Y-95670208D02*
X148700000Y-94967100D01*
X148700000Y-94967100D02*
X148700000Y-93998521D01*
X142500000Y-89500000D02*
X141450000Y-90550000D01*
D34*
X137959000Y-88959000D02*
X136257500Y-88959000D01*
D35*
X135300000Y-89050000D02*
X133850000Y-87600000D01*
X136349750Y-90850000D02*
X137750000Y-90850000D01*
X132049750Y-92050000D02*
X133049750Y-92050000D01*
X147323316Y-97750000D02*
X144400000Y-97750000D01*
X133575000Y-81025000D02*
X133575000Y-81900000D01*
X139713000Y-90850000D02*
X140283000Y-91420000D01*
X131400000Y-93100000D02*
X132900000Y-94600000D01*
X132598750Y-92049000D02*
X132600750Y-92051000D01*
X141580000Y-90550000D02*
X142450000Y-91420000D01*
X137475000Y-93475000D02*
X137701000Y-93249000D01*
X131850000Y-92050000D02*
X131400000Y-91600000D01*
X137701000Y-93350000D02*
X138081521Y-93350000D01*
D34*
X138156663Y-89114877D02*
X138114877Y-89114877D01*
D35*
X140749000Y-96449000D02*
X140749000Y-98376760D01*
X133567550Y-94600000D02*
X132900000Y-94600000D01*
X137150000Y-78550000D02*
X136600000Y-78000000D01*
X141423240Y-99051000D02*
X143099000Y-99051000D01*
X137750000Y-90850000D02*
X139550000Y-92650000D01*
X132049750Y-92050000D02*
X131850000Y-92050000D01*
X132670000Y-94370000D02*
X132900000Y-94600000D01*
X135100000Y-86350000D02*
X135100000Y-84692500D01*
X136524750Y-91675000D02*
X136524750Y-91075000D01*
X138375000Y-94058521D02*
X138366761Y-94066761D01*
X136257500Y-89050000D02*
X135300000Y-89050000D01*
X136349750Y-90850000D02*
X139713000Y-90850000D01*
X133600000Y-84692500D02*
X133600000Y-81925000D01*
X135100000Y-84692500D02*
X135100000Y-83150110D01*
X136449750Y-90950000D02*
X136349750Y-90850000D01*
%TO.N,TI_VREF*%
X145100500Y-95250000D02*
X145952917Y-95250000D01*
X147235998Y-85583728D02*
X146883941Y-85935785D01*
X144612000Y-91801000D02*
X144612000Y-93138500D01*
X145550000Y-81250000D02*
X145550000Y-82146040D01*
X143385785Y-85935785D02*
X142650000Y-85200000D01*
X133699000Y-92666350D02*
X133700000Y-92667350D01*
X146883941Y-85935785D02*
X143385785Y-85935785D01*
X145550000Y-82146040D02*
X147235998Y-83832038D01*
X145952917Y-95250000D02*
X146552917Y-94650000D01*
X133630000Y-92869750D02*
X133630000Y-93600000D01*
X144612000Y-93138500D02*
X143800500Y-93950000D01*
X147235998Y-83832038D02*
X147235998Y-85583728D01*
X133700000Y-92799750D02*
X133649750Y-92850000D01*
X133700000Y-92667350D02*
X133700000Y-92799750D01*
X133699000Y-90985168D02*
X133699000Y-92666350D01*
X145000062Y-80700062D02*
X145550000Y-81250000D01*
X133659000Y-90816500D02*
X133659000Y-90945168D01*
X132049000Y-92850000D02*
X133649750Y-92850000D01*
X133649750Y-92850000D02*
X133630000Y-92869750D01*
X146250000Y-90600000D02*
X145813000Y-90600000D01*
X133659000Y-90945168D02*
X133699000Y-90985168D01*
X145813000Y-90600000D02*
X144612000Y-91801000D01*
X143800500Y-93950000D02*
X145100500Y-95250000D01*
X133600000Y-90757500D02*
X133659000Y-90816500D01*
%TO.N,Net-(U1-SOA)*%
X136122500Y-92175000D02*
X137224750Y-92175000D01*
X135100000Y-91102500D02*
X136172500Y-92175000D01*
X135100000Y-90507500D02*
X135100000Y-91102500D01*
X136172500Y-92175000D02*
X136524750Y-92175000D01*
%TO.N,Net-(U1-SOB)*%
X136799000Y-92849000D02*
X135900000Y-92849000D01*
X135900000Y-92666426D02*
X135900000Y-92950000D01*
X134600000Y-90507500D02*
X134600000Y-91366426D01*
X134600000Y-91366426D02*
X135900000Y-92666426D01*
%TO.N,Net-(U1-SOC)*%
X134100000Y-92500250D02*
X134100000Y-90507500D01*
X134249750Y-92650000D02*
X134949750Y-92650000D01*
X134249750Y-92650000D02*
X134100000Y-92500250D01*
%TO.N,I-LIMIT*%
X134100000Y-82600110D02*
X134100000Y-84692500D01*
X141624555Y-87926974D02*
X141624555Y-88477389D01*
X135726910Y-80350000D02*
X135449890Y-80350000D01*
X135600000Y-90507500D02*
X135758500Y-90349000D01*
X135758500Y-90349000D02*
X136349750Y-90349000D01*
X139801944Y-90300000D02*
X136399750Y-90300000D01*
X141624555Y-88477389D02*
X139801944Y-90300000D01*
X135449890Y-80350000D02*
X134374000Y-81425890D01*
X134374000Y-81425890D02*
X134374000Y-82326110D01*
X134374000Y-82326110D02*
X134100000Y-82600110D01*
%TO.N,TI_AVDD*%
X139279750Y-89750000D02*
X139649750Y-89380000D01*
X136257500Y-89550000D02*
X136457500Y-89750000D01*
X136600000Y-79700000D02*
X136227910Y-80072090D01*
X132701000Y-83451000D02*
X132701000Y-83998693D01*
X140548000Y-88702000D02*
X139870000Y-89380000D01*
X132600000Y-84099693D02*
X132600000Y-84692500D01*
X136457500Y-89750000D02*
X139279750Y-89750000D01*
X134600000Y-82667210D02*
X135125000Y-82142210D01*
X132701000Y-83998693D02*
X132600000Y-84099693D01*
X132325680Y-82924320D02*
X132325680Y-83075680D01*
X134600000Y-84692500D02*
X134600000Y-82667210D01*
X132325680Y-83075680D02*
X132701000Y-83451000D01*
X140550001Y-88702000D02*
X140548000Y-88702000D01*
X136600000Y-79249000D02*
X136600000Y-79700000D01*
X136227910Y-80072090D02*
X136227910Y-80797090D01*
X136227910Y-80797090D02*
X135125000Y-81900000D01*
%TO.N,Reset*%
X149120100Y-90024000D02*
X149944172Y-89199928D01*
X142320000Y-92380000D02*
X141450000Y-93250000D01*
X149944172Y-89199928D02*
X153649369Y-89199928D01*
X144211000Y-91976000D02*
X143807000Y-92380000D01*
X144926000Y-90024000D02*
X144211000Y-90739000D01*
X149120100Y-90024000D02*
X144926000Y-90024000D01*
X144211000Y-90739000D02*
X144211000Y-91976000D01*
X143807000Y-92380000D02*
X142200000Y-92380000D01*
%TO.N,Net-(LED1-K)*%
X146699500Y-92650000D02*
X145399500Y-93950000D01*
%TO.N,SOA*%
X148350000Y-94941479D02*
X147641479Y-95650000D01*
X153929641Y-91095389D02*
X153577584Y-91447446D01*
X153678553Y-90127028D02*
X153950000Y-90398475D01*
X153577584Y-91447446D02*
X148388490Y-91447446D01*
X148350000Y-91974000D02*
X148003358Y-91974000D01*
X148350000Y-91485936D02*
X148350000Y-91974000D01*
X147774000Y-93096642D02*
X148003358Y-93326000D01*
X153678553Y-90127028D02*
X153929641Y-90378116D01*
X147641479Y-95650000D02*
X141813000Y-95650000D01*
X148388490Y-91447446D02*
X148350000Y-91485936D01*
X147774000Y-92203358D02*
X147774000Y-93096642D01*
X148350000Y-93326000D02*
X148350000Y-94941479D01*
X137838000Y-91675000D02*
X137325000Y-91675000D01*
X137788000Y-91675000D02*
X137325000Y-91675000D01*
X141813000Y-95650000D02*
X137838000Y-91675000D01*
X153929641Y-90378116D02*
X153929641Y-91095389D01*
X148003358Y-91974000D02*
X147774000Y-92203358D01*
X148003358Y-93326000D02*
X148350000Y-93326000D01*
%TO.N,SOB*%
X136500000Y-94050000D02*
X135900000Y-93450000D01*
X137874000Y-93851000D02*
X137675000Y-94050000D01*
X137675000Y-94050000D02*
X136500000Y-94050000D01*
%TO.N,SOC*%
X133150000Y-95400000D02*
X133566793Y-95400000D01*
X134850750Y-93299250D02*
X135000000Y-93150000D01*
X133566793Y-95400000D02*
X134850750Y-94116043D01*
X134850750Y-94116043D02*
X134850750Y-93299250D01*
%TO.N,BOOT0*%
X149966968Y-88000000D02*
X151900000Y-88000000D01*
X144410000Y-89500000D02*
X148466968Y-89500000D01*
X151900000Y-88000000D02*
X153962048Y-85937952D01*
X144390000Y-89760000D02*
X143550000Y-90600000D01*
X153962048Y-85937952D02*
X151574095Y-83550000D01*
X148466968Y-89500000D02*
X149966968Y-88000000D01*
X144390000Y-89500000D02*
X144390000Y-89760000D01*
X151574095Y-83550000D02*
X150500000Y-83550000D01*
%TO.N,Net-(U1-SDI{slash}GAIN)*%
X132100000Y-90507500D02*
X132100000Y-91499750D01*
%TO.N,Net-(U1-SDO{slash}MODE_SR)*%
X131400000Y-91100000D02*
X131400000Y-89592500D01*
X131349750Y-89642750D02*
X131442500Y-89550000D01*
X131400000Y-89592500D02*
X131442500Y-89550000D01*
%TO.N,Net-(U1-nSCS{slash}OCP)*%
X133049750Y-91449750D02*
X133049750Y-90557750D01*
X133150000Y-91550000D02*
X133049750Y-91449750D01*
X133049750Y-90557750D02*
X133100000Y-90507500D01*
%TO.N,TIM1_CH1N*%
X131442500Y-85650000D02*
X130599750Y-85650000D01*
%TO.N,TIM1_CH1*%
X132100000Y-84692500D02*
X132100000Y-83749750D01*
%TO.N,TI_FAULT*%
X133102000Y-82852110D02*
X133102000Y-84690500D01*
X132560290Y-81654050D02*
X132350000Y-81864340D01*
X132350000Y-81864340D02*
X132350000Y-82100110D01*
X132560290Y-81654050D02*
X132414340Y-81800000D01*
X132414340Y-81800000D02*
X132350000Y-81800000D01*
X132350000Y-82100110D02*
X133102000Y-82852110D01*
D34*
%TO.N,PHASE-B*%
X136872500Y-86500000D02*
X138750000Y-84622500D01*
X138750000Y-81250000D02*
X142450000Y-77550000D01*
X138750000Y-84622500D02*
X138750000Y-81250000D01*
X136257500Y-86500000D02*
X136872500Y-86500000D01*
%TO.N,PHASE-C*%
X136257500Y-85650000D02*
X137850000Y-84057500D01*
X137850000Y-79610000D02*
X139910000Y-77550000D01*
X137850000Y-84057500D02*
X137850000Y-79610000D01*
D35*
%TO.N,TIM1_CH3*%
X131442500Y-88200000D02*
X130549750Y-88200000D01*
%TO.N,TIM1_CH3N*%
X131442500Y-89050000D02*
X130599750Y-89050000D01*
D34*
%TO.N,PHASE-A*%
X136257500Y-87350000D02*
X137013864Y-87350000D01*
X144990000Y-79373864D02*
X144990000Y-77550000D01*
X137013864Y-87350000D02*
X144990000Y-79373864D01*
D35*
%TO.N,TIM1_CH2N*%
X131442500Y-87350000D02*
X130549750Y-87350000D01*
%TO.N,TIM1_CH2*%
X131442500Y-86500000D02*
X130549750Y-86500000D01*
%TO.N,UART_RX*%
X145640287Y-84443115D02*
X145596973Y-84399801D01*
X145596973Y-84399801D02*
X144650199Y-84399801D01*
X144650199Y-84399801D02*
X143850000Y-85200000D01*
%TO.N,UART_TX*%
X146500213Y-85200000D02*
X146634998Y-85334785D01*
X145050000Y-85200000D02*
X146500213Y-85200000D01*
%TO.N,CAN_RX*%
X144948872Y-87375000D02*
X148200000Y-87375000D01*
X144917671Y-87343799D02*
X144948872Y-87375000D01*
X144634828Y-87343799D02*
X144917671Y-87343799D01*
%TO.N,CAN_TX*%
X145067499Y-88625000D02*
X143770762Y-87328263D01*
X148200000Y-88625000D02*
X145067499Y-88625000D01*
%TD*%
%TA.AperFunction,Conductor*%
%TO.N,TI_AGND*%
G36*
X138835066Y-93527550D02*
G01*
X138861388Y-93547623D01*
X141332478Y-96018713D01*
X141332480Y-96018716D01*
X141444284Y-96130520D01*
X141444459Y-96130621D01*
X141450337Y-96136495D01*
X141463385Y-96160374D01*
X141479410Y-96182362D01*
X141479892Y-96190581D01*
X141483841Y-96197808D01*
X141481908Y-96224947D01*
X141483502Y-96252112D01*
X141479462Y-96259289D01*
X141478878Y-96267501D01*
X141462580Y-96289285D01*
X141449234Y-96313001D01*
X141441956Y-96316854D01*
X141437024Y-96323448D01*
X141401004Y-96342134D01*
X141381586Y-96348443D01*
X141192179Y-96444951D01*
X141020213Y-96569890D01*
X140869890Y-96720213D01*
X140744951Y-96892179D01*
X140648444Y-97081585D01*
X140582753Y-97283760D01*
X140549500Y-97493713D01*
X140549500Y-98006286D01*
X140580511Y-98202085D01*
X140582754Y-98216243D01*
X140600019Y-98269380D01*
X140648444Y-98418414D01*
X140744951Y-98607820D01*
X140869890Y-98779786D01*
X141020213Y-98930109D01*
X141192179Y-99055048D01*
X141192181Y-99055049D01*
X141192184Y-99055051D01*
X141381588Y-99151557D01*
X141583757Y-99217246D01*
X141793713Y-99250500D01*
X141793714Y-99250500D01*
X142006286Y-99250500D01*
X142006287Y-99250500D01*
X142216243Y-99217246D01*
X142418412Y-99151557D01*
X142607816Y-99055051D01*
X142629789Y-99039086D01*
X142779786Y-98930109D01*
X142779788Y-98930106D01*
X142779792Y-98930104D01*
X142930104Y-98779792D01*
X142930106Y-98779788D01*
X142930109Y-98779786D01*
X143055048Y-98607820D01*
X143055047Y-98607820D01*
X143055051Y-98607816D01*
X143151557Y-98418412D01*
X143217246Y-98216243D01*
X143250500Y-98006287D01*
X143250500Y-97493713D01*
X143217246Y-97283757D01*
X143151557Y-97081588D01*
X143055051Y-96892184D01*
X143055049Y-96892181D01*
X143055048Y-96892179D01*
X142930109Y-96720213D01*
X142779790Y-96569894D01*
X142779785Y-96569890D01*
X142648929Y-96474818D01*
X142606263Y-96419488D01*
X142600284Y-96349875D01*
X142632889Y-96288080D01*
X142693728Y-96253723D01*
X142721814Y-96250500D01*
X147554810Y-96250500D01*
X147554826Y-96250501D01*
X147562422Y-96250501D01*
X147720533Y-96250501D01*
X147720536Y-96250501D01*
X147873264Y-96209577D01*
X147923383Y-96180639D01*
X148010195Y-96130520D01*
X148121999Y-96018716D01*
X148121999Y-96018714D01*
X148132207Y-96008507D01*
X148132209Y-96008504D01*
X148708506Y-95432207D01*
X148708511Y-95432203D01*
X148718714Y-95421999D01*
X148718716Y-95421999D01*
X148830520Y-95310195D01*
X148900062Y-95189744D01*
X148909577Y-95173264D01*
X148950501Y-95020536D01*
X148950501Y-94862422D01*
X148950501Y-94854827D01*
X148950500Y-94854809D01*
X148950500Y-94670014D01*
X148970185Y-94602975D01*
X149022989Y-94557220D01*
X149074500Y-94546014D01*
X149234358Y-94546014D01*
X149234359Y-94546013D01*
X149389011Y-94515251D01*
X149430221Y-94498180D01*
X149499688Y-94490711D01*
X149546566Y-94509640D01*
X149573043Y-94527332D01*
X149573058Y-94527340D01*
X149678846Y-94571158D01*
X149718734Y-94587680D01*
X149873384Y-94618442D01*
X149873387Y-94618443D01*
X149873389Y-94618443D01*
X150031075Y-94618443D01*
X150031076Y-94618442D01*
X150185728Y-94587680D01*
X150331410Y-94527337D01*
X150462520Y-94439732D01*
X150526104Y-94376147D01*
X150587424Y-94342664D01*
X150608278Y-94339952D01*
X150621061Y-94339383D01*
X150626672Y-94340500D01*
X150784356Y-94340500D01*
X150838556Y-94329718D01*
X150847982Y-94329300D01*
X150873113Y-94335481D01*
X150898886Y-94337788D01*
X150906484Y-94343690D01*
X150915829Y-94345989D01*
X150933626Y-94364774D01*
X150954064Y-94380650D01*
X150957265Y-94389725D01*
X150963883Y-94396710D01*
X150968698Y-94422130D01*
X150977309Y-94446540D01*
X150975096Y-94455904D01*
X150976887Y-94465359D01*
X150967193Y-94489349D01*
X150961242Y-94514537D01*
X150956589Y-94522069D01*
X150890609Y-94620814D01*
X150890602Y-94620827D01*
X150830264Y-94766498D01*
X150830261Y-94766510D01*
X150799500Y-94921153D01*
X150799500Y-95078846D01*
X150830261Y-95233489D01*
X150830264Y-95233501D01*
X150890602Y-95379172D01*
X150890609Y-95379185D01*
X150978210Y-95510288D01*
X150978213Y-95510292D01*
X151089707Y-95621786D01*
X151089711Y-95621789D01*
X151220814Y-95709390D01*
X151220827Y-95709397D01*
X151354263Y-95764667D01*
X151366503Y-95769737D01*
X151521153Y-95800499D01*
X151521156Y-95800500D01*
X151521158Y-95800500D01*
X151678844Y-95800500D01*
X151678845Y-95800499D01*
X151833497Y-95769737D01*
X151979179Y-95709394D01*
X152073887Y-95646112D01*
X152140562Y-95625235D01*
X152207942Y-95643719D01*
X152254633Y-95695698D01*
X152265809Y-95764667D01*
X152239723Y-95826528D01*
X152052256Y-96061604D01*
X152047769Y-96066918D01*
X151585201Y-96584532D01*
X151580422Y-96589586D01*
X151089586Y-97080422D01*
X151084532Y-97085201D01*
X150566918Y-97547769D01*
X150561604Y-97552256D01*
X150018885Y-97985061D01*
X150013327Y-97989244D01*
X149447186Y-98390941D01*
X149441403Y-98394805D01*
X148853633Y-98764125D01*
X148847642Y-98767659D01*
X148240086Y-99103444D01*
X148233907Y-99106636D01*
X147608483Y-99407824D01*
X147602134Y-99410665D01*
X146960814Y-99676309D01*
X146954316Y-99678790D01*
X146299087Y-99908065D01*
X146292460Y-99910177D01*
X145625418Y-100102348D01*
X145618683Y-100104085D01*
X144941923Y-100258551D01*
X144935101Y-100259908D01*
X144250733Y-100376187D01*
X144243845Y-100377159D01*
X143554052Y-100454879D01*
X143547122Y-100455464D01*
X142854036Y-100494388D01*
X142847083Y-100494583D01*
X142152917Y-100494583D01*
X142145964Y-100494388D01*
X141452877Y-100455464D01*
X141445947Y-100454879D01*
X140756154Y-100377159D01*
X140749266Y-100376187D01*
X140064898Y-100259908D01*
X140058076Y-100258551D01*
X139381316Y-100104085D01*
X139374581Y-100102348D01*
X138707539Y-99910177D01*
X138700912Y-99908065D01*
X138045683Y-99678790D01*
X138039185Y-99676309D01*
X137397865Y-99410665D01*
X137391517Y-99407824D01*
X136937252Y-99189062D01*
X136885392Y-99142240D01*
X136867079Y-99074813D01*
X136888127Y-99008189D01*
X136941853Y-98963520D01*
X136963458Y-98956451D01*
X137165591Y-98910316D01*
X137420079Y-98821267D01*
X137662997Y-98704284D01*
X137891289Y-98560838D01*
X138102085Y-98392734D01*
X138292734Y-98202085D01*
X138460838Y-97991289D01*
X138604284Y-97762997D01*
X138721267Y-97520079D01*
X138810316Y-97265591D01*
X138870312Y-97002732D01*
X138900500Y-96734809D01*
X138900500Y-96465191D01*
X138870312Y-96197268D01*
X138810316Y-95934409D01*
X138721267Y-95679921D01*
X138604284Y-95437003D01*
X138460838Y-95208711D01*
X138292734Y-94997915D01*
X138102998Y-94808179D01*
X138069513Y-94746856D01*
X138074497Y-94677164D01*
X138116369Y-94621231D01*
X138143225Y-94605937D01*
X138187309Y-94587678D01*
X138253173Y-94560397D01*
X138253176Y-94560395D01*
X138253179Y-94560394D01*
X138384289Y-94472789D01*
X138495789Y-94361289D01*
X138583394Y-94230179D01*
X138643737Y-94084497D01*
X138674500Y-93929842D01*
X138674500Y-93772158D01*
X138674500Y-93772155D01*
X138652090Y-93659496D01*
X138658317Y-93589904D01*
X138701180Y-93534727D01*
X138767069Y-93511482D01*
X138835066Y-93527550D01*
G37*
%TD.AperFunction*%
%TA.AperFunction,Conductor*%
G36*
X131454824Y-93432437D02*
G01*
X131475736Y-93432011D01*
X131489477Y-93439975D01*
X131502662Y-93442844D01*
X131530916Y-93463995D01*
X131538707Y-93471786D01*
X131538711Y-93471789D01*
X131669814Y-93559390D01*
X131669827Y-93559397D01*
X131813931Y-93619086D01*
X131815503Y-93619737D01*
X131970153Y-93650499D01*
X131970156Y-93650500D01*
X131970158Y-93650500D01*
X132127844Y-93650500D01*
X132127845Y-93650499D01*
X132282497Y-93619737D01*
X132428049Y-93559447D01*
X132497517Y-93551979D01*
X132559996Y-93583254D01*
X132595648Y-93643343D01*
X132599500Y-93674009D01*
X132599500Y-93834697D01*
X132602356Y-93870991D01*
X132602357Y-93870997D01*
X132647504Y-94026390D01*
X132647505Y-94026393D01*
X132647506Y-94026395D01*
X132681863Y-94084489D01*
X132729881Y-94165684D01*
X132729887Y-94165692D01*
X132844307Y-94280112D01*
X132844311Y-94280115D01*
X132844313Y-94280117D01*
X132983605Y-94362494D01*
X132991453Y-94364774D01*
X133015879Y-94371871D01*
X133074764Y-94409477D01*
X133103971Y-94472949D01*
X133094225Y-94542136D01*
X133048621Y-94595070D01*
X133005476Y-94612564D01*
X132916508Y-94630261D01*
X132916498Y-94630264D01*
X132770827Y-94690602D01*
X132770814Y-94690609D01*
X132639711Y-94778210D01*
X132639707Y-94778213D01*
X132528213Y-94889707D01*
X132528210Y-94889711D01*
X132440609Y-95020814D01*
X132440604Y-95020824D01*
X132423515Y-95062081D01*
X132418234Y-95068634D01*
X132416236Y-95076810D01*
X132396636Y-95095434D01*
X132379673Y-95116485D01*
X132371687Y-95119142D01*
X132365587Y-95124940D01*
X132339032Y-95130011D01*
X132313379Y-95138549D01*
X132305223Y-95136467D01*
X132296957Y-95138046D01*
X132271875Y-95127955D01*
X132245680Y-95121269D01*
X132238260Y-95114431D01*
X132232137Y-95111968D01*
X132207825Y-95086383D01*
X132109059Y-94947186D01*
X132105194Y-94941403D01*
X132093411Y-94922651D01*
X131916678Y-94641382D01*
X131735874Y-94353633D01*
X131732340Y-94347642D01*
X131507379Y-93940606D01*
X131396551Y-93740078D01*
X131393363Y-93733906D01*
X131331515Y-93605477D01*
X131329123Y-93590953D01*
X131322069Y-93578034D01*
X131323560Y-93557171D01*
X131320163Y-93536536D01*
X131326002Y-93523025D01*
X131327053Y-93508342D01*
X131339587Y-93491598D01*
X131347885Y-93472402D01*
X131360103Y-93464192D01*
X131368925Y-93452409D01*
X131388520Y-93445100D01*
X131405881Y-93433436D01*
X131420598Y-93433135D01*
X131434389Y-93427992D01*
X131454824Y-93432437D01*
G37*
%TD.AperFunction*%
%TA.AperFunction,Conductor*%
G36*
X147378921Y-93553847D02*
G01*
X147396725Y-93568603D01*
X147412349Y-93584227D01*
X147412355Y-93584232D01*
X147518497Y-93690374D01*
X147518507Y-93690385D01*
X147522837Y-93694715D01*
X147522838Y-93694716D01*
X147634642Y-93806520D01*
X147687500Y-93837037D01*
X147735715Y-93887603D01*
X147749500Y-93944424D01*
X147749500Y-94641382D01*
X147729815Y-94708421D01*
X147713185Y-94729058D01*
X147632926Y-94809318D01*
X147553077Y-94889167D01*
X147491754Y-94922651D01*
X147422062Y-94917667D01*
X147366129Y-94875795D01*
X147341712Y-94810331D01*
X147343778Y-94777296D01*
X147353417Y-94728842D01*
X147353417Y-94571158D01*
X147353417Y-94571155D01*
X147353416Y-94571153D01*
X147350645Y-94557220D01*
X147322654Y-94416503D01*
X147322652Y-94416498D01*
X147262314Y-94270827D01*
X147262307Y-94270814D01*
X147174706Y-94139711D01*
X147174703Y-94139707D01*
X147063209Y-94028213D01*
X147063205Y-94028210D01*
X146932102Y-93940609D01*
X146932089Y-93940602D01*
X146786418Y-93880264D01*
X146786406Y-93880261D01*
X146740437Y-93871117D01*
X146678526Y-93838732D01*
X146643952Y-93778016D01*
X146647691Y-93708247D01*
X146688558Y-93651575D01*
X146753576Y-93625994D01*
X146764628Y-93625500D01*
X146981613Y-93625500D01*
X146981616Y-93625500D01*
X147052196Y-93619086D01*
X147214606Y-93568478D01*
X147244895Y-93550167D01*
X147312447Y-93532331D01*
X147378921Y-93553847D01*
G37*
%TD.AperFunction*%
%TA.AperFunction,Conductor*%
G36*
X152687652Y-92067631D02*
G01*
X152733407Y-92120435D01*
X152743351Y-92189593D01*
X152714326Y-92253149D01*
X152708294Y-92259627D01*
X152678213Y-92289707D01*
X152678210Y-92289711D01*
X152590609Y-92420814D01*
X152590602Y-92420827D01*
X152530264Y-92566498D01*
X152530261Y-92566510D01*
X152499500Y-92721153D01*
X152499500Y-92878846D01*
X152530261Y-93033489D01*
X152530264Y-93033501D01*
X152590602Y-93179172D01*
X152590609Y-93179185D01*
X152678210Y-93310288D01*
X152678213Y-93310292D01*
X152758333Y-93390412D01*
X152791818Y-93451735D01*
X152786834Y-93521427D01*
X152744962Y-93577360D01*
X152679498Y-93601777D01*
X152646974Y-93599811D01*
X152634723Y-93597427D01*
X152606762Y-93585846D01*
X152452107Y-93555083D01*
X152417042Y-93555083D01*
X152405311Y-93552801D01*
X152384467Y-93542009D01*
X152361950Y-93535398D01*
X152354020Y-93526246D01*
X152343264Y-93520678D01*
X152331562Y-93500328D01*
X152316195Y-93482594D01*
X152311635Y-93465676D01*
X152308434Y-93460109D01*
X152308697Y-93454774D01*
X152307938Y-93451959D01*
X152307063Y-93452134D01*
X152278326Y-93307669D01*
X152275111Y-93291505D01*
X152228587Y-93179185D01*
X152214771Y-93145829D01*
X152214764Y-93145816D01*
X152127163Y-93014713D01*
X152127160Y-93014709D01*
X152015666Y-92903215D01*
X152015662Y-92903212D01*
X151884559Y-92815611D01*
X151884546Y-92815604D01*
X151738875Y-92755266D01*
X151738863Y-92755263D01*
X151584219Y-92724502D01*
X151584216Y-92724502D01*
X151426532Y-92724502D01*
X151426529Y-92724502D01*
X151271884Y-92755263D01*
X151271872Y-92755266D01*
X151134792Y-92812046D01*
X151065322Y-92819515D01*
X151039889Y-92812047D01*
X150968595Y-92782517D01*
X150939011Y-92770263D01*
X150939007Y-92770262D01*
X150939003Y-92770261D01*
X150784359Y-92739500D01*
X150784356Y-92739500D01*
X150626672Y-92739500D01*
X150626669Y-92739500D01*
X150472024Y-92770261D01*
X150472012Y-92770264D01*
X150326341Y-92830602D01*
X150326328Y-92830609D01*
X150195228Y-92918208D01*
X150131640Y-92981795D01*
X150070316Y-93015279D01*
X150037164Y-93017205D01*
X150037164Y-93017443D01*
X150033069Y-93017443D01*
X150031812Y-93017516D01*
X150031075Y-93017443D01*
X150031073Y-93017443D01*
X149873389Y-93017443D01*
X149873386Y-93017443D01*
X149718742Y-93048203D01*
X149718737Y-93048205D01*
X149718735Y-93048205D01*
X149718734Y-93048206D01*
X149677520Y-93065277D01*
X149608052Y-93072744D01*
X149561179Y-93053817D01*
X149534698Y-93036123D01*
X149534686Y-93036116D01*
X149389015Y-92975778D01*
X149389003Y-92975775D01*
X149234359Y-92945014D01*
X149234356Y-92945014D01*
X149076672Y-92945014D01*
X149076667Y-92945014D01*
X148926130Y-92974958D01*
X148856539Y-92968731D01*
X148814258Y-92941022D01*
X148718717Y-92845481D01*
X148718709Y-92845475D01*
X148581790Y-92766426D01*
X148581787Y-92766424D01*
X148581784Y-92766423D01*
X148581780Y-92766422D01*
X148577290Y-92764562D01*
X148522886Y-92720722D01*
X148500820Y-92654428D01*
X148518098Y-92586728D01*
X148569235Y-92539117D01*
X148577290Y-92535438D01*
X148581773Y-92533579D01*
X148581784Y-92533577D01*
X148718716Y-92454520D01*
X148830520Y-92342716D01*
X148909577Y-92205784D01*
X148927243Y-92139850D01*
X148963608Y-92080192D01*
X149026455Y-92049663D01*
X149047018Y-92047946D01*
X152620613Y-92047946D01*
X152687652Y-92067631D01*
G37*
%TD.AperFunction*%
%TA.AperFunction,Conductor*%
G36*
X130276158Y-89763148D02*
G01*
X130291814Y-89763355D01*
X130306374Y-89765645D01*
X130316253Y-89769737D01*
X130470908Y-89800500D01*
X130527968Y-89800500D01*
X130537543Y-89802006D01*
X130600710Y-89831868D01*
X130621378Y-89855609D01*
X130689989Y-89958293D01*
X130689990Y-89958294D01*
X130689991Y-89958295D01*
X130763182Y-90031486D01*
X130796666Y-90092807D01*
X130799500Y-90119166D01*
X130799500Y-90715149D01*
X130790061Y-90762601D01*
X130764314Y-90824760D01*
X130764313Y-90824764D01*
X130749500Y-90937272D01*
X130749500Y-91262727D01*
X130764313Y-91375235D01*
X130764313Y-91375236D01*
X130813291Y-91493480D01*
X130822302Y-91515233D01*
X130914549Y-91635451D01*
X131034767Y-91727698D01*
X131174764Y-91785687D01*
X131287280Y-91800500D01*
X131320963Y-91800500D01*
X131388002Y-91820185D01*
X131433757Y-91872989D01*
X131435524Y-91877047D01*
X131472050Y-91965230D01*
X131472052Y-91965234D01*
X131548971Y-92065475D01*
X131574166Y-92130644D01*
X131560128Y-92199089D01*
X131538278Y-92228643D01*
X131427210Y-92339711D01*
X131339609Y-92470814D01*
X131339602Y-92470827D01*
X131279264Y-92616498D01*
X131279261Y-92616510D01*
X131248500Y-92771153D01*
X131248500Y-92863004D01*
X131228815Y-92930043D01*
X131176011Y-92975798D01*
X131106853Y-92985742D01*
X131043297Y-92956717D01*
X131009939Y-92910457D01*
X130823690Y-92460814D01*
X130821209Y-92454316D01*
X130818371Y-92446206D01*
X130591926Y-91799063D01*
X130589829Y-91792484D01*
X130397647Y-91125405D01*
X130395914Y-91118683D01*
X130395580Y-91117220D01*
X130241446Y-90441916D01*
X130240091Y-90435101D01*
X130150299Y-89906620D01*
X130153662Y-89878078D01*
X130154042Y-89849345D01*
X130157700Y-89843815D01*
X130158476Y-89837230D01*
X130176734Y-89815039D01*
X130192590Y-89791071D01*
X130198657Y-89788396D01*
X130202870Y-89783277D01*
X130230227Y-89774480D01*
X130256523Y-89762889D01*
X130265890Y-89763012D01*
X130269385Y-89761889D01*
X130276158Y-89763148D01*
G37*
%TD.AperFunction*%
%TA.AperFunction,Conductor*%
G36*
X143956004Y-88378587D02*
G01*
X144000352Y-88407088D01*
X144104645Y-88511381D01*
X144138130Y-88572704D01*
X144133146Y-88642396D01*
X144091274Y-88698329D01*
X144051560Y-88718138D01*
X144020610Y-88727129D01*
X144020606Y-88727131D01*
X143882404Y-88808863D01*
X143882396Y-88808869D01*
X143768869Y-88922396D01*
X143768863Y-88922404D01*
X143687131Y-89060606D01*
X143687129Y-89060611D01*
X143642335Y-89214791D01*
X143642334Y-89214797D01*
X143639500Y-89250811D01*
X143639500Y-89609902D01*
X143630855Y-89639341D01*
X143624332Y-89669329D01*
X143620577Y-89674344D01*
X143619815Y-89676941D01*
X143603185Y-89697578D01*
X143556919Y-89743845D01*
X143512582Y-89788182D01*
X143451258Y-89821666D01*
X143424901Y-89824500D01*
X143142130Y-89824500D01*
X143142123Y-89824501D01*
X143082516Y-89830908D01*
X142947671Y-89881202D01*
X142947664Y-89881206D01*
X142832455Y-89967452D01*
X142832452Y-89967455D01*
X142746206Y-90082664D01*
X142746202Y-90082671D01*
X142695910Y-90217513D01*
X142695909Y-90217517D01*
X142689500Y-90277127D01*
X142689500Y-90277134D01*
X142689500Y-90277135D01*
X142689500Y-90922870D01*
X142689501Y-90922879D01*
X142696367Y-90986751D01*
X142696367Y-91013257D01*
X142695909Y-91017516D01*
X142695909Y-91017517D01*
X142689500Y-91077127D01*
X142689500Y-91077128D01*
X142689500Y-91077132D01*
X142689500Y-91475500D01*
X142669815Y-91542539D01*
X142617011Y-91588294D01*
X142565500Y-91599500D01*
X142215302Y-91599500D01*
X142179008Y-91602356D01*
X142179002Y-91602357D01*
X142023609Y-91647504D01*
X142023606Y-91647505D01*
X141884315Y-91729881D01*
X141884307Y-91729887D01*
X141769887Y-91844307D01*
X141769881Y-91844315D01*
X141687505Y-91983606D01*
X141687503Y-91983609D01*
X141642356Y-92139006D01*
X141642120Y-92140301D01*
X141639912Y-92150120D01*
X141626281Y-92200988D01*
X141594189Y-92256573D01*
X141497582Y-92353181D01*
X141436259Y-92386666D01*
X141409900Y-92389500D01*
X141127130Y-92389500D01*
X141127120Y-92389501D01*
X141063248Y-92396367D01*
X141036742Y-92396367D01*
X141032483Y-92395909D01*
X140972873Y-92389500D01*
X140972864Y-92389500D01*
X140327129Y-92389500D01*
X140327123Y-92389501D01*
X140267516Y-92395908D01*
X140132671Y-92446202D01*
X140132664Y-92446206D01*
X140017455Y-92532452D01*
X140017452Y-92532455D01*
X139931206Y-92647664D01*
X139931202Y-92647672D01*
X139924930Y-92664488D01*
X139883058Y-92720420D01*
X139817593Y-92744836D01*
X139749320Y-92729983D01*
X139721068Y-92708833D01*
X138325590Y-91313355D01*
X138325588Y-91313352D01*
X138206717Y-91194481D01*
X138206716Y-91194480D01*
X138103071Y-91134641D01*
X138102177Y-91134125D01*
X138098301Y-91131887D01*
X138098299Y-91131885D01*
X138098292Y-91131881D01*
X138077605Y-91110181D01*
X138050086Y-91081319D01*
X138050084Y-91081313D01*
X138050081Y-91081309D01*
X138043523Y-91047266D01*
X138036864Y-91012712D01*
X138036866Y-91012706D01*
X138036865Y-91012701D01*
X138052767Y-90972990D01*
X138062832Y-90947848D01*
X138062836Y-90947844D01*
X138062839Y-90947839D01*
X138093241Y-90926194D01*
X138119746Y-90907320D01*
X138119753Y-90907318D01*
X138119757Y-90907316D01*
X138119774Y-90907315D01*
X138160302Y-90900500D01*
X139715275Y-90900500D01*
X139715291Y-90900501D01*
X139722887Y-90900501D01*
X139756949Y-90900501D01*
X139823988Y-90920186D01*
X139869743Y-90972990D01*
X139880239Y-91011251D01*
X139880908Y-91017482D01*
X139931202Y-91152328D01*
X139931206Y-91152335D01*
X140017452Y-91267544D01*
X140017455Y-91267547D01*
X140132664Y-91353793D01*
X140132671Y-91353797D01*
X140177618Y-91370561D01*
X140267517Y-91404091D01*
X140327127Y-91410500D01*
X140972872Y-91410499D01*
X141032483Y-91404091D01*
X141167331Y-91353796D01*
X141282546Y-91267546D01*
X141368796Y-91152331D01*
X141419091Y-91017483D01*
X141425500Y-90957873D01*
X141425499Y-90142128D01*
X141419091Y-90082517D01*
X141411091Y-90061069D01*
X141368797Y-89947671D01*
X141368793Y-89947664D01*
X141277232Y-89825355D01*
X141280097Y-89823209D01*
X141254805Y-89776779D01*
X141259858Y-89707093D01*
X141288314Y-89662863D01*
X141622637Y-89328540D01*
X141683958Y-89295057D01*
X141753650Y-89300041D01*
X141785624Y-89318437D01*
X141785646Y-89318405D01*
X141786130Y-89318728D01*
X141788978Y-89320367D01*
X141790712Y-89321790D01*
X141921814Y-89409390D01*
X141921827Y-89409397D01*
X142067498Y-89469735D01*
X142067503Y-89469737D01*
X142222017Y-89500472D01*
X142222153Y-89500499D01*
X142222156Y-89500500D01*
X142222158Y-89500500D01*
X142379844Y-89500500D01*
X142379845Y-89500499D01*
X142534497Y-89469737D01*
X142680179Y-89409394D01*
X142811289Y-89321789D01*
X142922789Y-89210289D01*
X143010394Y-89079179D01*
X143070737Y-88933497D01*
X143083530Y-88869185D01*
X143097231Y-88800308D01*
X143129616Y-88738397D01*
X143190332Y-88703823D01*
X143218848Y-88700500D01*
X143278844Y-88700500D01*
X143278845Y-88700499D01*
X143433497Y-88669737D01*
X143579179Y-88609394D01*
X143710289Y-88521789D01*
X143821789Y-88410289D01*
X143821791Y-88410285D01*
X143824989Y-88407088D01*
X143886312Y-88373603D01*
X143956004Y-88378587D01*
G37*
%TD.AperFunction*%
%TA.AperFunction,Conductor*%
G36*
X136784044Y-91027552D02*
G01*
X136819697Y-91087640D01*
X136817204Y-91157465D01*
X136797925Y-91193793D01*
X136747302Y-91259766D01*
X136747300Y-91259769D01*
X136690063Y-91397953D01*
X136678213Y-91412657D01*
X136670683Y-91429977D01*
X136656743Y-91439299D01*
X136646222Y-91452356D01*
X136628303Y-91458319D01*
X136612605Y-91468819D01*
X136583259Y-91473312D01*
X136579928Y-91474421D01*
X136577767Y-91474479D01*
X136576618Y-91474500D01*
X136412030Y-91474500D01*
X136385502Y-91477992D01*
X136378503Y-91478120D01*
X136351276Y-91470663D01*
X136323382Y-91466312D01*
X136315723Y-91460926D01*
X136311115Y-91459664D01*
X136306278Y-91454284D01*
X136288557Y-91441822D01*
X136137432Y-91290697D01*
X136103947Y-91229374D01*
X136108931Y-91159682D01*
X136122011Y-91134125D01*
X136141065Y-91105609D01*
X136194678Y-91060804D01*
X136244167Y-91050500D01*
X136462463Y-91050500D01*
X136462470Y-91050500D01*
X136574986Y-91035687D01*
X136652098Y-91003745D01*
X136721565Y-90996277D01*
X136784044Y-91027552D01*
G37*
%TD.AperFunction*%
%TA.AperFunction,Conductor*%
G36*
X151855703Y-79719669D02*
G01*
X151866954Y-79730749D01*
X152047769Y-79933081D01*
X152052251Y-79938389D01*
X152485069Y-80481125D01*
X152489235Y-80486661D01*
X152765590Y-80876147D01*
X152890941Y-81052813D01*
X152894805Y-81058596D01*
X153264125Y-81646366D01*
X153267659Y-81652357D01*
X153603444Y-82259913D01*
X153606636Y-82266092D01*
X153907824Y-82891516D01*
X153910665Y-82897865D01*
X154176309Y-83539185D01*
X154178790Y-83545683D01*
X154369909Y-84091869D01*
X154408040Y-84200842D01*
X154408065Y-84200912D01*
X154410176Y-84207539D01*
X154410178Y-84207544D01*
X154412434Y-84215376D01*
X154412342Y-84233268D01*
X154416101Y-84237164D01*
X154425380Y-84260311D01*
X154602348Y-84874581D01*
X154604085Y-84881316D01*
X154758551Y-85558076D01*
X154759908Y-85564898D01*
X154794478Y-85768365D01*
X154789208Y-85813080D01*
X154805526Y-85838471D01*
X154808796Y-85852634D01*
X154815249Y-85890609D01*
X154876187Y-86249266D01*
X154877159Y-86256154D01*
X154954879Y-86945947D01*
X154955464Y-86952877D01*
X154994388Y-87645963D01*
X154994583Y-87652916D01*
X154994583Y-88347083D01*
X154994388Y-88354036D01*
X154955464Y-89047122D01*
X154954879Y-89054052D01*
X154877159Y-89743845D01*
X154876187Y-89750733D01*
X154785770Y-90282891D01*
X154783491Y-90287561D01*
X154783678Y-90292755D01*
X154768330Y-90318636D01*
X154755134Y-90345686D01*
X154750691Y-90348383D01*
X154748041Y-90352853D01*
X154721136Y-90366329D01*
X154695412Y-90381949D01*
X154690216Y-90381816D01*
X154685570Y-90384144D01*
X154655651Y-90380935D01*
X154625565Y-90380168D01*
X154621265Y-90377247D01*
X154616098Y-90376693D01*
X154592662Y-90357817D01*
X154567769Y-90340907D01*
X154564639Y-90335246D01*
X154561684Y-90332866D01*
X154553111Y-90314394D01*
X154545878Y-90301309D01*
X154544705Y-90297788D01*
X154509577Y-90166690D01*
X154489383Y-90131713D01*
X154485409Y-90119783D01*
X154484766Y-90101915D01*
X154479053Y-90080594D01*
X154479053Y-90048183D01*
X154479052Y-90048181D01*
X154459058Y-89947664D01*
X154448290Y-89893531D01*
X154409756Y-89800500D01*
X154387950Y-89747856D01*
X154387949Y-89747855D01*
X154387947Y-89747849D01*
X154362914Y-89710385D01*
X154342037Y-89643708D01*
X154356665Y-89583030D01*
X154358756Y-89579117D01*
X154358763Y-89579107D01*
X154419106Y-89433425D01*
X154449869Y-89278770D01*
X154449869Y-89121086D01*
X154449869Y-89121083D01*
X154449868Y-89121081D01*
X154437737Y-89060094D01*
X154419106Y-88966431D01*
X154405466Y-88933501D01*
X154358766Y-88820755D01*
X154358759Y-88820742D01*
X154271158Y-88689639D01*
X154271155Y-88689635D01*
X154240485Y-88658965D01*
X154207000Y-88597642D01*
X154211984Y-88527950D01*
X154253856Y-88472017D01*
X154259249Y-88468199D01*
X154328708Y-88421789D01*
X154440208Y-88310289D01*
X154527813Y-88179179D01*
X154588156Y-88033497D01*
X154618919Y-87878842D01*
X154618919Y-87721158D01*
X154618919Y-87721155D01*
X154618918Y-87721153D01*
X154588156Y-87566503D01*
X154556730Y-87490633D01*
X154527816Y-87420827D01*
X154527809Y-87420814D01*
X154440208Y-87289711D01*
X154440205Y-87289707D01*
X154328711Y-87178213D01*
X154328707Y-87178210D01*
X154197604Y-87090609D01*
X154197591Y-87090602D01*
X154051920Y-87030264D01*
X154051911Y-87030261D01*
X154001739Y-87020281D01*
X153939828Y-86987895D01*
X153905255Y-86927178D01*
X153908996Y-86857409D01*
X153938249Y-86810985D01*
X154382732Y-86366503D01*
X154442568Y-86306668D01*
X154521625Y-86169737D01*
X154562549Y-86017009D01*
X154562549Y-85873406D01*
X154568761Y-85852249D01*
X154560786Y-85843506D01*
X154552459Y-85821240D01*
X154521625Y-85706167D01*
X154442567Y-85569236D01*
X154060821Y-85187490D01*
X154027336Y-85126167D01*
X154032320Y-85056475D01*
X154045395Y-85030924D01*
X154121412Y-84917159D01*
X154181755Y-84771477D01*
X154212518Y-84616822D01*
X154212518Y-84459138D01*
X154212518Y-84459135D01*
X154184609Y-84318831D01*
X154185398Y-84310003D01*
X154178718Y-84297151D01*
X154121415Y-84158807D01*
X154121408Y-84158794D01*
X154033807Y-84027691D01*
X154033804Y-84027687D01*
X153922310Y-83916193D01*
X153922306Y-83916190D01*
X153791203Y-83828589D01*
X153791190Y-83828582D01*
X153645519Y-83768244D01*
X153645507Y-83768241D01*
X153490863Y-83737480D01*
X153490860Y-83737480D01*
X153333176Y-83737480D01*
X153333173Y-83737480D01*
X153178528Y-83768241D01*
X153178516Y-83768244D01*
X153032845Y-83828582D01*
X153032832Y-83828589D01*
X152919079Y-83904597D01*
X152852401Y-83925475D01*
X152785021Y-83906990D01*
X152762507Y-83889176D01*
X152061685Y-83188355D01*
X152061683Y-83188352D01*
X151942812Y-83069481D01*
X151942804Y-83069475D01*
X151827945Y-83003162D01*
X151827945Y-83003161D01*
X151827940Y-83003160D01*
X151820242Y-82998715D01*
X151805881Y-82990423D01*
X151767698Y-82980192D01*
X151653152Y-82949499D01*
X151495038Y-82949499D01*
X151487442Y-82949499D01*
X151487426Y-82949500D01*
X151079766Y-82949500D01*
X151012727Y-82929815D01*
X151010875Y-82928602D01*
X150879185Y-82840609D01*
X150879172Y-82840602D01*
X150733501Y-82780264D01*
X150733489Y-82780261D01*
X150578845Y-82749500D01*
X150578842Y-82749500D01*
X150421158Y-82749500D01*
X150421155Y-82749500D01*
X150266510Y-82780261D01*
X150266498Y-82780264D01*
X150127974Y-82837642D01*
X150058504Y-82845111D01*
X149996025Y-82813835D01*
X149992841Y-82810762D01*
X149960292Y-82778213D01*
X149960288Y-82778210D01*
X149829185Y-82690609D01*
X149829172Y-82690602D01*
X149683501Y-82630264D01*
X149683489Y-82630261D01*
X149528845Y-82599500D01*
X149528842Y-82599500D01*
X149371158Y-82599500D01*
X149371155Y-82599500D01*
X149216510Y-82630261D01*
X149216498Y-82630264D01*
X149070827Y-82690602D01*
X149070814Y-82690609D01*
X148939711Y-82778210D01*
X148939707Y-82778213D01*
X148828213Y-82889707D01*
X148828210Y-82889711D01*
X148740609Y-83020814D01*
X148740602Y-83020827D01*
X148680264Y-83166498D01*
X148680261Y-83166510D01*
X148649500Y-83321153D01*
X148649500Y-83478846D01*
X148680261Y-83633489D01*
X148680264Y-83633501D01*
X148740602Y-83779172D01*
X148740609Y-83779185D01*
X148828210Y-83910288D01*
X148828213Y-83910292D01*
X148939707Y-84021786D01*
X148939711Y-84021789D01*
X149070814Y-84109390D01*
X149070827Y-84109397D01*
X149206870Y-84165747D01*
X149216503Y-84169737D01*
X149371153Y-84200499D01*
X149371156Y-84200500D01*
X149371158Y-84200500D01*
X149528844Y-84200500D01*
X149528845Y-84200499D01*
X149683497Y-84169737D01*
X149822026Y-84112356D01*
X149891494Y-84104888D01*
X149953973Y-84136163D01*
X149957158Y-84139237D01*
X149989707Y-84171786D01*
X149989711Y-84171789D01*
X150120814Y-84259390D01*
X150120821Y-84259394D01*
X150184907Y-84285939D01*
X150239310Y-84329779D01*
X150261376Y-84396073D01*
X150244097Y-84463772D01*
X150192961Y-84511383D01*
X150137456Y-84524500D01*
X149999998Y-84524500D01*
X149999981Y-84524501D01*
X149897203Y-84535000D01*
X149897200Y-84535001D01*
X149730668Y-84590185D01*
X149730663Y-84590187D01*
X149581342Y-84682289D01*
X149457289Y-84806342D01*
X149366326Y-84953817D01*
X149314378Y-85000542D01*
X149245415Y-85011763D01*
X149236596Y-85010337D01*
X149089333Y-84981045D01*
X149089329Y-84981045D01*
X148931645Y-84981045D01*
X148931642Y-84981045D01*
X148776997Y-85011806D01*
X148776985Y-85011809D01*
X148631314Y-85072147D01*
X148631301Y-85072154D01*
X148500198Y-85159755D01*
X148500194Y-85159758D01*
X148388700Y-85271252D01*
X148388697Y-85271256D01*
X148301096Y-85402359D01*
X148301089Y-85402372D01*
X148240751Y-85548043D01*
X148240748Y-85548055D01*
X148209987Y-85702698D01*
X148209987Y-85860391D01*
X148240748Y-86015034D01*
X148240751Y-86015046D01*
X148301089Y-86160717D01*
X148301096Y-86160730D01*
X148388697Y-86291833D01*
X148388700Y-86291837D01*
X148459682Y-86362819D01*
X148493167Y-86424142D01*
X148488183Y-86493834D01*
X148446311Y-86549767D01*
X148380847Y-86574184D01*
X148372001Y-86574500D01*
X147393825Y-86574500D01*
X147372581Y-86568262D01*
X147350494Y-86566683D01*
X147339708Y-86558609D01*
X147326786Y-86554815D01*
X147312288Y-86538083D01*
X147294560Y-86524813D01*
X147289851Y-86512190D01*
X147281031Y-86502011D01*
X147277879Y-86480095D01*
X147270141Y-86459349D01*
X147273004Y-86446185D01*
X147271087Y-86432853D01*
X147280284Y-86412712D01*
X147284991Y-86391076D01*
X147298262Y-86373346D01*
X147300112Y-86369297D01*
X147306142Y-86362821D01*
X147306143Y-86362819D01*
X147364461Y-86304501D01*
X147364462Y-86304499D01*
X147716518Y-85952444D01*
X147795575Y-85815513D01*
X147836499Y-85662785D01*
X147836499Y-85504670D01*
X147836499Y-85497075D01*
X147836498Y-85497057D01*
X147836498Y-83752983D01*
X147836498Y-83752981D01*
X147831338Y-83733721D01*
X147795575Y-83600253D01*
X147760855Y-83540116D01*
X147716518Y-83463322D01*
X147604714Y-83351518D01*
X147604713Y-83351517D01*
X147600383Y-83347187D01*
X147600372Y-83347177D01*
X146875768Y-82622573D01*
X146842283Y-82561250D01*
X146847267Y-82491558D01*
X146875768Y-82447211D01*
X146908951Y-82414028D01*
X146958060Y-82364919D01*
X146978222Y-82331568D01*
X147006270Y-82285170D01*
X147044495Y-82221938D01*
X147094201Y-82062426D01*
X147100500Y-81993107D01*
X147100499Y-81359084D01*
X147120183Y-81292046D01*
X147172987Y-81246291D01*
X147242146Y-81236347D01*
X147305702Y-81265372D01*
X147321446Y-81281772D01*
X147423270Y-81409456D01*
X147457266Y-81452085D01*
X147647915Y-81642734D01*
X147858711Y-81810838D01*
X148087003Y-81954284D01*
X148329921Y-82071267D01*
X148456478Y-82115551D01*
X148584397Y-82160312D01*
X148584405Y-82160315D01*
X148584408Y-82160315D01*
X148584409Y-82160316D01*
X148847268Y-82220312D01*
X149115187Y-82250499D01*
X149115188Y-82250500D01*
X149115191Y-82250500D01*
X149384812Y-82250500D01*
X149384812Y-82250499D01*
X149652732Y-82220312D01*
X149915591Y-82160316D01*
X150170079Y-82071267D01*
X150412997Y-81954284D01*
X150641289Y-81810838D01*
X150852085Y-81642734D01*
X151042734Y-81452085D01*
X151210838Y-81241289D01*
X151354284Y-81012997D01*
X151471267Y-80770079D01*
X151560316Y-80515591D01*
X151620312Y-80252732D01*
X151650500Y-79984809D01*
X151650500Y-79813382D01*
X151670185Y-79746343D01*
X151722989Y-79700588D01*
X151792147Y-79690644D01*
X151855703Y-79719669D01*
G37*
%TD.AperFunction*%
%TA.AperFunction,Conductor*%
G36*
X135106336Y-85409838D02*
G01*
X135139100Y-85410992D01*
X135141872Y-85412378D01*
X135143327Y-85412482D01*
X135147693Y-85415287D01*
X135170669Y-85426774D01*
X135179809Y-85433113D01*
X135191705Y-85445009D01*
X135296610Y-85515104D01*
X135300124Y-85516559D01*
X135308669Y-85522486D01*
X135326280Y-85544318D01*
X135346288Y-85563966D01*
X135347916Y-85571139D01*
X135352537Y-85576867D01*
X135362000Y-85624378D01*
X135362000Y-85713088D01*
X135386612Y-85836819D01*
X135386615Y-85836831D01*
X135424295Y-85927797D01*
X135434896Y-85953390D01*
X135450742Y-85977105D01*
X135470122Y-86006110D01*
X135490999Y-86072788D01*
X135472514Y-86140168D01*
X135470122Y-86143890D01*
X135434894Y-86196613D01*
X135386615Y-86313168D01*
X135386612Y-86313180D01*
X135362000Y-86436911D01*
X135362000Y-86563088D01*
X135386612Y-86686819D01*
X135386615Y-86686831D01*
X135422929Y-86774500D01*
X135434896Y-86803390D01*
X135452123Y-86829172D01*
X135470122Y-86856110D01*
X135490999Y-86922788D01*
X135472514Y-86990168D01*
X135470122Y-86993890D01*
X135434894Y-87046613D01*
X135386615Y-87163168D01*
X135386612Y-87163180D01*
X135362000Y-87286911D01*
X135362000Y-87413088D01*
X135386612Y-87536819D01*
X135386615Y-87536831D01*
X135434894Y-87653386D01*
X135434896Y-87653390D01*
X135443658Y-87666503D01*
X135470122Y-87706110D01*
X135490999Y-87772788D01*
X135472514Y-87840168D01*
X135470122Y-87843890D01*
X135434894Y-87896613D01*
X135386615Y-88013168D01*
X135386612Y-88013180D01*
X135362000Y-88136911D01*
X135362000Y-88263088D01*
X135386612Y-88386819D01*
X135386615Y-88386831D01*
X135434894Y-88503388D01*
X135434896Y-88503392D01*
X135504987Y-88608290D01*
X135504993Y-88608298D01*
X135594201Y-88697506D01*
X135594209Y-88697512D01*
X135704175Y-88770989D01*
X135702872Y-88772939D01*
X135745292Y-88814621D01*
X135760742Y-88882761D01*
X135736900Y-88948437D01*
X135703236Y-88977606D01*
X135704175Y-88979011D01*
X135594209Y-89052487D01*
X135594201Y-89052493D01*
X135504993Y-89141701D01*
X135504987Y-89141709D01*
X135434896Y-89246607D01*
X135434894Y-89246611D01*
X135386615Y-89363168D01*
X135386612Y-89363180D01*
X135362000Y-89486911D01*
X135362000Y-89500472D01*
X135342315Y-89567511D01*
X135289511Y-89613266D01*
X135220353Y-89623210D01*
X135213809Y-89622089D01*
X135163088Y-89612000D01*
X135163084Y-89612000D01*
X135036916Y-89612000D01*
X135036913Y-89612000D01*
X134913180Y-89636612D01*
X134913168Y-89636615D01*
X134897450Y-89643126D01*
X134827980Y-89650593D01*
X134802550Y-89643126D01*
X134786831Y-89636615D01*
X134786819Y-89636612D01*
X134663087Y-89612000D01*
X134663084Y-89612000D01*
X134536916Y-89612000D01*
X134536913Y-89612000D01*
X134413180Y-89636612D01*
X134413168Y-89636615D01*
X134397450Y-89643126D01*
X134327980Y-89650593D01*
X134302550Y-89643126D01*
X134286831Y-89636615D01*
X134286819Y-89636612D01*
X134163087Y-89612000D01*
X134163084Y-89612000D01*
X134036916Y-89612000D01*
X134036913Y-89612000D01*
X133913180Y-89636612D01*
X133913168Y-89636615D01*
X133897450Y-89643126D01*
X133827980Y-89650593D01*
X133802550Y-89643126D01*
X133786831Y-89636615D01*
X133786819Y-89636612D01*
X133663087Y-89612000D01*
X133663084Y-89612000D01*
X133536916Y-89612000D01*
X133536913Y-89612000D01*
X133413180Y-89636612D01*
X133413168Y-89636615D01*
X133397450Y-89643126D01*
X133327980Y-89650593D01*
X133302550Y-89643126D01*
X133286831Y-89636615D01*
X133286819Y-89636612D01*
X133163087Y-89612000D01*
X133163084Y-89612000D01*
X133036916Y-89612000D01*
X133036913Y-89612000D01*
X132913180Y-89636612D01*
X132913168Y-89636615D01*
X132796611Y-89684894D01*
X132796607Y-89684896D01*
X132691709Y-89754987D01*
X132691701Y-89754993D01*
X132687681Y-89759014D01*
X132626358Y-89792499D01*
X132556666Y-89787515D01*
X132529331Y-89773225D01*
X132520187Y-89766883D01*
X132508295Y-89754991D01*
X132403390Y-89684896D01*
X132399879Y-89683441D01*
X132391331Y-89677513D01*
X132373713Y-89655673D01*
X132353703Y-89636017D01*
X132351727Y-89628418D01*
X132347463Y-89623132D01*
X132345408Y-89604116D01*
X132338000Y-89575621D01*
X132338000Y-89486913D01*
X132337999Y-89486911D01*
X132327358Y-89433417D01*
X132313386Y-89363173D01*
X132306874Y-89347454D01*
X132299405Y-89277987D01*
X132306873Y-89252548D01*
X132313386Y-89236827D01*
X132338000Y-89113084D01*
X132338000Y-88986916D01*
X132338000Y-88986913D01*
X132337999Y-88986911D01*
X132330346Y-88948437D01*
X132313386Y-88863173D01*
X132313384Y-88863168D01*
X132265105Y-88746612D01*
X132259616Y-88738397D01*
X132229877Y-88693889D01*
X132209000Y-88627214D01*
X132227484Y-88559834D01*
X132229878Y-88556109D01*
X132265104Y-88503390D01*
X132313386Y-88386827D01*
X132338000Y-88263084D01*
X132338000Y-88136916D01*
X132338000Y-88136913D01*
X132337999Y-88136911D01*
X132313386Y-88013173D01*
X132277636Y-87926865D01*
X132265105Y-87896612D01*
X132261576Y-87891330D01*
X132229877Y-87843889D01*
X132209000Y-87777214D01*
X132227484Y-87709834D01*
X132229867Y-87706125D01*
X132265104Y-87653390D01*
X132313386Y-87536827D01*
X132338000Y-87413084D01*
X132338000Y-87286916D01*
X132338000Y-87286913D01*
X132337999Y-87286911D01*
X132324637Y-87219737D01*
X132313386Y-87163173D01*
X132311821Y-87159394D01*
X132265105Y-87046612D01*
X132254180Y-87030261D01*
X132229877Y-86993889D01*
X132209000Y-86927214D01*
X132227484Y-86859834D01*
X132229867Y-86856125D01*
X132265104Y-86803390D01*
X132313386Y-86686827D01*
X132338000Y-86563084D01*
X132338000Y-86436916D01*
X132338000Y-86436913D01*
X132337999Y-86436911D01*
X132333900Y-86416305D01*
X132313386Y-86313173D01*
X132309793Y-86304499D01*
X132265105Y-86196612D01*
X132247148Y-86169737D01*
X132229877Y-86143889D01*
X132209000Y-86077214D01*
X132227484Y-86009834D01*
X132229867Y-86006125D01*
X132265104Y-85953390D01*
X132313386Y-85836827D01*
X132338000Y-85713084D01*
X132338000Y-85699527D01*
X132357685Y-85632488D01*
X132410489Y-85586733D01*
X132479647Y-85576789D01*
X132486172Y-85577906D01*
X132523850Y-85585401D01*
X132536915Y-85588000D01*
X132536916Y-85588000D01*
X132663086Y-85588000D01*
X132663087Y-85587999D01*
X132786827Y-85563386D01*
X132802545Y-85556874D01*
X132872013Y-85549405D01*
X132897451Y-85556873D01*
X132913173Y-85563386D01*
X133030546Y-85586733D01*
X133036911Y-85587999D01*
X133036914Y-85588000D01*
X133036916Y-85588000D01*
X133163086Y-85588000D01*
X133163087Y-85587999D01*
X133286827Y-85563386D01*
X133364535Y-85531198D01*
X133403388Y-85515105D01*
X133403392Y-85515103D01*
X133455490Y-85480291D01*
X133508295Y-85445009D01*
X133512315Y-85440988D01*
X133573635Y-85407501D01*
X133643327Y-85412482D01*
X133687684Y-85440988D01*
X133691705Y-85445009D01*
X133691708Y-85445011D01*
X133691709Y-85445012D01*
X133796607Y-85515103D01*
X133796611Y-85515105D01*
X133908545Y-85561469D01*
X133913173Y-85563386D01*
X134030546Y-85586733D01*
X134036911Y-85587999D01*
X134036914Y-85588000D01*
X134036916Y-85588000D01*
X134163086Y-85588000D01*
X134163087Y-85587999D01*
X134286827Y-85563386D01*
X134302545Y-85556874D01*
X134372013Y-85549405D01*
X134397451Y-85556873D01*
X134413173Y-85563386D01*
X134530546Y-85586733D01*
X134536911Y-85587999D01*
X134536914Y-85588000D01*
X134536916Y-85588000D01*
X134663086Y-85588000D01*
X134663087Y-85587999D01*
X134786827Y-85563386D01*
X134864535Y-85531198D01*
X134903388Y-85515105D01*
X134903392Y-85515103D01*
X134955490Y-85480291D01*
X135008295Y-85445009D01*
X135012315Y-85440988D01*
X135041083Y-85425277D01*
X135069273Y-85408533D01*
X135071595Y-85408614D01*
X135073635Y-85407501D01*
X135106336Y-85409838D01*
G37*
%TD.AperFunction*%
%TA.AperFunction,Conductor*%
G36*
X138828103Y-88869185D02*
G01*
X138873858Y-88921989D01*
X138883802Y-88991147D01*
X138880141Y-89008094D01*
X138865178Y-89059600D01*
X138865034Y-89060094D01*
X138827428Y-89118980D01*
X138763955Y-89148187D01*
X138745957Y-89149500D01*
X137921994Y-89149500D01*
X137854955Y-89129815D01*
X137809200Y-89077011D01*
X137799256Y-89007853D01*
X137828281Y-88944297D01*
X137874541Y-88910939D01*
X137900950Y-88900000D01*
X137985245Y-88865084D01*
X137985248Y-88865081D01*
X137987012Y-88864140D01*
X137988308Y-88863815D01*
X137990873Y-88862753D01*
X137991030Y-88863133D01*
X138045462Y-88849500D01*
X138761064Y-88849500D01*
X138828103Y-88869185D01*
G37*
%TD.AperFunction*%
%TA.AperFunction,Conductor*%
G36*
X144339910Y-81187835D02*
G01*
X144384257Y-81216336D01*
X144489769Y-81321848D01*
X144489773Y-81321851D01*
X144620876Y-81409452D01*
X144620889Y-81409459D01*
X144723799Y-81452085D01*
X144766565Y-81469799D01*
X144832966Y-81483007D01*
X144849691Y-81486334D01*
X144911602Y-81518718D01*
X144946176Y-81579434D01*
X144949500Y-81607951D01*
X144949500Y-82059370D01*
X144949499Y-82059388D01*
X144949499Y-82225094D01*
X144949498Y-82225094D01*
X144986963Y-82364913D01*
X144990423Y-82377825D01*
X145011325Y-82414028D01*
X145017033Y-82423913D01*
X145017034Y-82423917D01*
X145017035Y-82423917D01*
X145057296Y-82493653D01*
X145069479Y-82514754D01*
X145069481Y-82514757D01*
X145188349Y-82633625D01*
X145188355Y-82633630D01*
X146037841Y-83483116D01*
X146071326Y-83544439D01*
X146066342Y-83614131D01*
X146024470Y-83670064D01*
X145959006Y-83694481D01*
X145902709Y-83685359D01*
X145900400Y-83684402D01*
X145873784Y-83673378D01*
X145873780Y-83673377D01*
X145873776Y-83673376D01*
X145719132Y-83642615D01*
X145719129Y-83642615D01*
X145561445Y-83642615D01*
X145561442Y-83642615D01*
X145498691Y-83655097D01*
X145429100Y-83648870D01*
X145373922Y-83606007D01*
X145350678Y-83540117D01*
X145350500Y-83533480D01*
X145350500Y-83421155D01*
X145350499Y-83421153D01*
X145340439Y-83370577D01*
X145319737Y-83266503D01*
X145293632Y-83203480D01*
X145259397Y-83120827D01*
X145259390Y-83120814D01*
X145171789Y-82989711D01*
X145171786Y-82989707D01*
X145060292Y-82878213D01*
X145060288Y-82878210D01*
X144929185Y-82790609D01*
X144929172Y-82790602D01*
X144783501Y-82730264D01*
X144783489Y-82730261D01*
X144628845Y-82699500D01*
X144628842Y-82699500D01*
X144471158Y-82699500D01*
X144471155Y-82699500D01*
X144316510Y-82730261D01*
X144316498Y-82730264D01*
X144170827Y-82790602D01*
X144170814Y-82790609D01*
X144039711Y-82878210D01*
X144039707Y-82878213D01*
X143928213Y-82989707D01*
X143928210Y-82989711D01*
X143840609Y-83120814D01*
X143840602Y-83120827D01*
X143780264Y-83266498D01*
X143780261Y-83266510D01*
X143749500Y-83421153D01*
X143749500Y-83578846D01*
X143780261Y-83733489D01*
X143780264Y-83733501D01*
X143840602Y-83879172D01*
X143840609Y-83879185D01*
X143928210Y-84010288D01*
X143928213Y-84010292D01*
X143971661Y-84053740D01*
X143975997Y-84061681D01*
X143983243Y-84067105D01*
X143992481Y-84091869D01*
X144005146Y-84115063D01*
X144004500Y-84124088D01*
X144007664Y-84132568D01*
X144002047Y-84158393D01*
X144000162Y-84184755D01*
X143994345Y-84193806D01*
X143992815Y-84200842D01*
X143971666Y-84229097D01*
X143962588Y-84238176D01*
X143901267Y-84271665D01*
X143874902Y-84274500D01*
X143634298Y-84274500D01*
X143597432Y-84277401D01*
X143597426Y-84277402D01*
X143439606Y-84323254D01*
X143439603Y-84323255D01*
X143313121Y-84398056D01*
X143245397Y-84415239D01*
X143186879Y-84398056D01*
X143060396Y-84323255D01*
X143060393Y-84323254D01*
X142902573Y-84277402D01*
X142902567Y-84277401D01*
X142865701Y-84274500D01*
X142865694Y-84274500D01*
X142434306Y-84274500D01*
X142434298Y-84274500D01*
X142397432Y-84277401D01*
X142397426Y-84277402D01*
X142239606Y-84323254D01*
X142239603Y-84323255D01*
X142098137Y-84406917D01*
X142098129Y-84406923D01*
X141981923Y-84523129D01*
X141981917Y-84523137D01*
X141898255Y-84664603D01*
X141898254Y-84664606D01*
X141852402Y-84822426D01*
X141852401Y-84822432D01*
X141849500Y-84859298D01*
X141849500Y-85540701D01*
X141852401Y-85577567D01*
X141852402Y-85577573D01*
X141898254Y-85735393D01*
X141898255Y-85735396D01*
X141917441Y-85767838D01*
X141934624Y-85835562D01*
X141912464Y-85901825D01*
X141857998Y-85945588D01*
X141854127Y-85947109D01*
X141844726Y-85950622D01*
X141816503Y-85956237D01*
X141694343Y-86006836D01*
X141692307Y-86007598D01*
X141659547Y-86009964D01*
X141626872Y-86013478D01*
X141624860Y-86012470D01*
X141622618Y-86012633D01*
X141593772Y-85996909D01*
X141564393Y-85982203D01*
X141561278Y-85979197D01*
X141561271Y-85979193D01*
X141561267Y-85979186D01*
X141561208Y-85979129D01*
X141560292Y-85978213D01*
X141560288Y-85978210D01*
X141429185Y-85890609D01*
X141429172Y-85890602D01*
X141283501Y-85830264D01*
X141283489Y-85830261D01*
X141128845Y-85799500D01*
X141128842Y-85799500D01*
X140971158Y-85799500D01*
X140971155Y-85799500D01*
X140816510Y-85830261D01*
X140816498Y-85830264D01*
X140697450Y-85879575D01*
X140627980Y-85887044D01*
X140602546Y-85879575D01*
X140483498Y-85830264D01*
X140483486Y-85830261D01*
X140328842Y-85799500D01*
X140328839Y-85799500D01*
X140279222Y-85799500D01*
X140212183Y-85779815D01*
X140166428Y-85727011D01*
X140164660Y-85722951D01*
X140159394Y-85710237D01*
X140159390Y-85710230D01*
X140071790Y-85579128D01*
X140061895Y-85569233D01*
X140046626Y-85553964D01*
X140013142Y-85492644D01*
X140018125Y-85422952D01*
X140046625Y-85378605D01*
X144208895Y-81216336D01*
X144270218Y-81182851D01*
X144339910Y-81187835D01*
G37*
%TD.AperFunction*%
%TA.AperFunction,Conductor*%
G36*
X137018834Y-80232915D02*
G01*
X137074767Y-80274787D01*
X137099184Y-80340251D01*
X137099500Y-80349097D01*
X137099500Y-83234026D01*
X137079815Y-83301065D01*
X137027011Y-83346820D01*
X136957853Y-83356764D01*
X136894297Y-83327739D01*
X136860939Y-83281478D01*
X136809397Y-83157044D01*
X136809390Y-83157031D01*
X136721789Y-83025928D01*
X136721786Y-83025924D01*
X136610292Y-82914430D01*
X136610288Y-82914427D01*
X136479185Y-82826826D01*
X136479172Y-82826819D01*
X136333501Y-82766481D01*
X136333489Y-82766478D01*
X136178845Y-82735717D01*
X136178842Y-82735717D01*
X136063310Y-82735717D01*
X135996271Y-82716032D01*
X135950516Y-82663228D01*
X135940572Y-82594070D01*
X135957771Y-82546620D01*
X135972885Y-82522116D01*
X136012003Y-82458697D01*
X136065349Y-82297708D01*
X136075500Y-82198345D01*
X136075499Y-81850095D01*
X136095183Y-81783057D01*
X136111813Y-81762420D01*
X136586416Y-81287818D01*
X136586421Y-81287814D01*
X136596624Y-81277610D01*
X136596626Y-81277610D01*
X136708430Y-81165806D01*
X136764449Y-81068778D01*
X136787487Y-81028875D01*
X136828410Y-80876148D01*
X136828410Y-80718033D01*
X136828410Y-80372187D01*
X136837054Y-80342746D01*
X136843578Y-80312760D01*
X136847332Y-80307744D01*
X136848095Y-80305148D01*
X136864729Y-80284506D01*
X136887819Y-80261416D01*
X136949142Y-80227931D01*
X137018834Y-80232915D01*
G37*
%TD.AperFunction*%
%TA.AperFunction,Conductor*%
G36*
X142854036Y-75505612D02*
G01*
X143547130Y-75544535D01*
X143554049Y-75545119D01*
X144243869Y-75622843D01*
X144250706Y-75623808D01*
X144935108Y-75740092D01*
X144941916Y-75741446D01*
X145618697Y-75895917D01*
X145625405Y-75897647D01*
X145758773Y-75936070D01*
X145829151Y-75956346D01*
X145888121Y-75993821D01*
X145917469Y-76057228D01*
X145907878Y-76126436D01*
X145862393Y-76179472D01*
X145795455Y-76199498D01*
X145794823Y-76199500D01*
X144092129Y-76199500D01*
X144092123Y-76199501D01*
X144032516Y-76205908D01*
X143897671Y-76256202D01*
X143897664Y-76256206D01*
X143782455Y-76342452D01*
X143782452Y-76342455D01*
X143696206Y-76457664D01*
X143696203Y-76457669D01*
X143647189Y-76589083D01*
X143605317Y-76645016D01*
X143539853Y-76669433D01*
X143471580Y-76654581D01*
X143443326Y-76633430D01*
X143329786Y-76519890D01*
X143157820Y-76394951D01*
X142968414Y-76298444D01*
X142968413Y-76298443D01*
X142968412Y-76298443D01*
X142766243Y-76232754D01*
X142766241Y-76232753D01*
X142766240Y-76232753D01*
X142604957Y-76207208D01*
X142556287Y-76199500D01*
X142343713Y-76199500D01*
X142295042Y-76207208D01*
X142133760Y-76232753D01*
X141931585Y-76298444D01*
X141742179Y-76394951D01*
X141570213Y-76519890D01*
X141419890Y-76670213D01*
X141294949Y-76842182D01*
X141290484Y-76850946D01*
X141242509Y-76901742D01*
X141174688Y-76918536D01*
X141108553Y-76895998D01*
X141069516Y-76850946D01*
X141065050Y-76842182D01*
X140940109Y-76670213D01*
X140789786Y-76519890D01*
X140617820Y-76394951D01*
X140428414Y-76298444D01*
X140428413Y-76298443D01*
X140428412Y-76298443D01*
X140226243Y-76232754D01*
X140226241Y-76232753D01*
X140226240Y-76232753D01*
X140064957Y-76207208D01*
X140016287Y-76199500D01*
X139803713Y-76199500D01*
X139755042Y-76207208D01*
X139593760Y-76232753D01*
X139391585Y-76298444D01*
X139202179Y-76394951D01*
X139030213Y-76519890D01*
X138879890Y-76670213D01*
X138754951Y-76842179D01*
X138658444Y-77031585D01*
X138592753Y-77233760D01*
X138559500Y-77443713D01*
X138559500Y-77656291D01*
X138574616Y-77751726D01*
X138565662Y-77821020D01*
X138539824Y-77858806D01*
X137504047Y-78894583D01*
X137442724Y-78928068D01*
X137373032Y-78923084D01*
X137317099Y-78881212D01*
X137312984Y-78874748D01*
X137312779Y-78874886D01*
X137221789Y-78738711D01*
X137221786Y-78738707D01*
X137110292Y-78627213D01*
X137110288Y-78627210D01*
X136979185Y-78539609D01*
X136979172Y-78539602D01*
X136833501Y-78479264D01*
X136833489Y-78479261D01*
X136678845Y-78448500D01*
X136678842Y-78448500D01*
X136521158Y-78448500D01*
X136521155Y-78448500D01*
X136366510Y-78479261D01*
X136366498Y-78479264D01*
X136220827Y-78539602D01*
X136220814Y-78539609D01*
X136089711Y-78627210D01*
X136089707Y-78627213D01*
X135978213Y-78738707D01*
X135978210Y-78738711D01*
X135890609Y-78869814D01*
X135890602Y-78869827D01*
X135830264Y-79015498D01*
X135830261Y-79015510D01*
X135799500Y-79170153D01*
X135799500Y-79327846D01*
X135814113Y-79401309D01*
X135807886Y-79470900D01*
X135765023Y-79526077D01*
X135699133Y-79549322D01*
X135692496Y-79549500D01*
X135648065Y-79549500D01*
X135493420Y-79580261D01*
X135493408Y-79580264D01*
X135347737Y-79640602D01*
X135347724Y-79640609D01*
X135216622Y-79728209D01*
X135105118Y-79839714D01*
X135105116Y-79839716D01*
X135100176Y-79847110D01*
X135084760Y-79865894D01*
X135081174Y-79869479D01*
X135081174Y-79869480D01*
X134969370Y-79981284D01*
X134969369Y-79981284D01*
X134969368Y-79981285D01*
X133893479Y-81057174D01*
X133870122Y-81097630D01*
X133860250Y-81114731D01*
X133814423Y-81194105D01*
X133773499Y-81346833D01*
X133773499Y-81346835D01*
X133773499Y-81514936D01*
X133773500Y-81514949D01*
X133773500Y-82026012D01*
X133766021Y-82051481D01*
X133762190Y-82077752D01*
X133755472Y-82087405D01*
X133753815Y-82093051D01*
X133743048Y-82107404D01*
X133740222Y-82110651D01*
X133731285Y-82119589D01*
X133731284Y-82119590D01*
X133619480Y-82231394D01*
X133588533Y-82284995D01*
X133580673Y-82294030D01*
X133560918Y-82306669D01*
X133543944Y-82322854D01*
X133532036Y-82325148D01*
X133521819Y-82331686D01*
X133498363Y-82331638D01*
X133475337Y-82336076D01*
X133464078Y-82331568D01*
X133451949Y-82331544D01*
X133432245Y-82318824D01*
X133410472Y-82310108D01*
X133399455Y-82300330D01*
X133286633Y-82187507D01*
X133253150Y-82126186D01*
X133258134Y-82056494D01*
X133267193Y-82038798D01*
X133266815Y-82038596D01*
X133269680Y-82033234D01*
X133269684Y-82033229D01*
X133330027Y-81887547D01*
X133360790Y-81732892D01*
X133360790Y-81575208D01*
X133360790Y-81575205D01*
X133360789Y-81575203D01*
X133339823Y-81469800D01*
X133330027Y-81420553D01*
X133325429Y-81409452D01*
X133269687Y-81274877D01*
X133269680Y-81274864D01*
X133182079Y-81143761D01*
X133182076Y-81143757D01*
X133070582Y-81032263D01*
X133070578Y-81032260D01*
X132939475Y-80944659D01*
X132939462Y-80944652D01*
X132793791Y-80884314D01*
X132793779Y-80884311D01*
X132639135Y-80853550D01*
X132639132Y-80853550D01*
X132490468Y-80853550D01*
X132479051Y-80850197D01*
X132467208Y-80851349D01*
X132446142Y-80840534D01*
X132423429Y-80833865D01*
X132415638Y-80824874D01*
X132405051Y-80819439D01*
X132393175Y-80798950D01*
X132377674Y-80781061D01*
X132375980Y-80769286D01*
X132370013Y-80758990D01*
X132371099Y-80735336D01*
X132367730Y-80711903D01*
X132372753Y-80699323D01*
X132373219Y-80689193D01*
X132389338Y-80657795D01*
X132510780Y-80486638D01*
X132514912Y-80481147D01*
X132947765Y-79938367D01*
X132952206Y-79933108D01*
X133414814Y-79415449D01*
X133419559Y-79410431D01*
X133910431Y-78919559D01*
X133915449Y-78914814D01*
X134433108Y-78452206D01*
X134438367Y-78447765D01*
X134981147Y-78014912D01*
X134986637Y-78010780D01*
X135552836Y-77609042D01*
X135558573Y-77605209D01*
X136146368Y-77235872D01*
X136152357Y-77232340D01*
X136412889Y-77088349D01*
X136759935Y-76896543D01*
X136766069Y-76893374D01*
X137391537Y-76592165D01*
X137397843Y-76589343D01*
X138039198Y-76323684D01*
X138045671Y-76321213D01*
X138700946Y-76091923D01*
X138707505Y-76089832D01*
X139374602Y-75897645D01*
X139381293Y-75895919D01*
X140058090Y-75741445D01*
X140064884Y-75740093D01*
X140749298Y-75623807D01*
X140756125Y-75622844D01*
X141445953Y-75545119D01*
X141452866Y-75544535D01*
X142145964Y-75505612D01*
X142152917Y-75505417D01*
X142847083Y-75505417D01*
X142854036Y-75505612D01*
G37*
%TD.AperFunction*%
%TD*%
M02*
