%TF.GenerationSoftware,KiCad,Pcbnew,9.0.4*%
%TF.CreationDate,2025-10-05T00:28:02-04:00*%
%TF.ProjectId,bldc motor controller,626c6463-206d-46f7-946f-7220636f6e74,rev?*%
%TF.SameCoordinates,Original*%
%TF.FileFunction,Legend,Bot*%
%TF.FilePolarity,Positive*%
%FSLAX46Y46*%
G04 Gerber Fmt 4.6, Leading zero omitted, Abs format (unit mm)*
G04 Created by KiCad (PCBNEW 9.0.4) date 2025-10-05 00:28:02*
%MOMM*%
%LPD*%
G01*
G04 APERTURE LIST*
%ADD10C,0.120000*%
%ADD11C,0.254000*%
%ADD12C,0.400000*%
%ADD13C,0.200000*%
%ADD14C,0.300000*%
%ADD15C,0.100000*%
%ADD16C,0.150000*%
G04 APERTURE END LIST*
D10*
%TO.C,R6*%
X141177500Y-82562258D02*
X141177500Y-82087742D01*
X142222500Y-82562258D02*
X142222500Y-82087742D01*
%TO.C,R1*%
X139065000Y-81888748D02*
X139065000Y-82411252D01*
X140535000Y-81888748D02*
X140535000Y-82411252D01*
%TO.C,C9*%
X139040000Y-94815580D02*
X139040000Y-94534420D01*
X140060000Y-94815580D02*
X140060000Y-94534420D01*
%TO.C,C11*%
X136307836Y-93540000D02*
X136092164Y-93540000D01*
X136307836Y-94260000D02*
X136092164Y-94260000D01*
%TO.C,C2*%
X134788748Y-81065000D02*
X135311252Y-81065000D01*
X134788748Y-82535000D02*
X135311252Y-82535000D01*
D11*
%TO.C,U5*%
X139911120Y-86260000D02*
X144925620Y-86260000D01*
X139911120Y-86400000D02*
X139911120Y-87314000D01*
X139911120Y-88686000D02*
X139911120Y-89743500D01*
X139911120Y-89743500D02*
X144925620Y-89743500D01*
X144925620Y-89743500D02*
X144925620Y-86260000D01*
X139911120Y-87314000D02*
G75*
G02*
X139911120Y-88686000I0J-686000D01*
G01*
D12*
X140995620Y-86890000D02*
G75*
G02*
X140595620Y-86890000I-200000J0D01*
G01*
X140595620Y-86890000D02*
G75*
G02*
X140995620Y-86890000I200000J0D01*
G01*
D13*
%TO.C,U3*%
X147100000Y-87200000D02*
X147100000Y-87605000D01*
X147100000Y-92600000D02*
X147100000Y-92195000D01*
X147505000Y-87200000D02*
X147100000Y-87200000D01*
X147505000Y-92600000D02*
X147100000Y-92600000D01*
X152500000Y-87200000D02*
X152095000Y-87200000D01*
X152500000Y-87605000D02*
X152500000Y-87200000D01*
X152500000Y-92195000D02*
X152500000Y-92600000D01*
X152500000Y-92600000D02*
X152095000Y-92600000D01*
D14*
X152850500Y-87372000D02*
G75*
G02*
X152850500Y-87374500I149999J-1250D01*
G01*
D10*
%TO.C,L1*%
X131640000Y-83440000D02*
X131640000Y-89360000D01*
X131640000Y-89360000D02*
X133190000Y-89360000D01*
X133190000Y-83440000D02*
X131640000Y-83440000D01*
X135510000Y-89360000D02*
X137060000Y-89360000D01*
X137060000Y-83440000D02*
X135510000Y-83440000D01*
X137060000Y-89360000D02*
X137060000Y-83440000D01*
D15*
%TO.C,U6*%
X146755000Y-83157000D02*
X146755000Y-83792000D01*
X146755000Y-84808000D02*
X146755000Y-85443000D01*
X146755000Y-85443000D02*
X147009000Y-85443000D01*
X147009000Y-83157000D02*
X146755000Y-83157000D01*
X149041000Y-83157000D02*
X149295000Y-83157000D01*
X149295000Y-83157000D02*
X149295000Y-83792000D01*
X149295000Y-84808000D02*
X149295000Y-85443000D01*
X149295000Y-85443000D02*
X149069000Y-85443000D01*
D16*
X148850000Y-85757500D02*
G75*
G02*
X148700000Y-85757500I-75000J0D01*
G01*
X148700000Y-85757500D02*
G75*
G02*
X148850000Y-85757500I75000J0D01*
G01*
D10*
%TO.C,C8*%
X145640000Y-96707836D02*
X145640000Y-96492164D01*
X146360000Y-96707836D02*
X146360000Y-96492164D01*
%TO.C,C1*%
X142088748Y-94190000D02*
X143511252Y-94190000D01*
X142088748Y-96010000D02*
X143511252Y-96010000D01*
D11*
%TO.C,U4*%
X136050000Y-90250000D02*
X134250000Y-90250000D01*
X136050000Y-93350000D02*
X134250000Y-93350000D01*
X133880000Y-93451000D02*
G75*
G02*
X133626000Y-93451000I-127000J0D01*
G01*
X133626000Y-93451000D02*
G75*
G02*
X133880000Y-93451000I127000J0D01*
G01*
%TD*%
M02*
