M48
; DRILL file {KiCad 9.0.4} date 2025-10-05T00:27:59-0400
; FORMAT={-:-/ absolute / metric / decimal}
; #@! TF.CreationDate,2025-10-05T00:27:59-04:00
; #@! TF.GenerationSoftware,Kicad,Pcbnew,9.0.4
; #@! TF.FileFunction,Plated,1,4,PTH
FMAT,2
METRIC
; #@! TA.AperFunction,Plated,PTH,ViaDrill
T1C0.300
; #@! TA.AperFunction,Plated,PTH,ComponentDrill
T2C1.000
; #@! TA.AperFunction,Plated,PTH,ComponentDrill
T3C2.200
%
G90
G05
T1
X130.55Y-86.5
X130.55Y-87.35
X130.55Y-88.2
X130.55Y-89.0
X130.6Y-85.65
X132.049Y-92.85
X132.1Y-83.75
X132.326Y-82.924
X132.56Y-81.654
X132.9Y-94.6
X133.15Y-95.4
X135.727Y-80.35
X136.1Y-83.536
X136.6Y-78.0
X136.6Y-79.249
X137.874Y-93.851
X138.157Y-89.115
X139.45Y-86.089
X139.55Y-92.65
X140.25Y-86.6
X140.47Y-87.369
X140.55Y-88.702
X141.05Y-86.6
X141.625Y-87.927
X142.05Y-86.726
X142.301Y-88.7
X143.0Y-86.7
X143.037Y-83.361
X143.2Y-87.9
X143.771Y-87.328
X144.55Y-83.5
X144.635Y-87.344
X145.0Y-80.7
X145.64Y-84.443
X146.553Y-94.65
X146.635Y-85.335
X147.053Y-93.897
X148.716Y-96.358
X149.01Y-85.782
X149.156Y-93.746
X149.45Y-83.4
X149.45Y-86.45
X149.952Y-93.818
X150.5Y-83.55
X150.706Y-93.54
X151.505Y-93.525
X151.6Y-95.0
X152.15Y-82.85
X152.373Y-94.356
X153.3Y-92.8
X153.329Y-90.846
X153.412Y-84.538
X153.649Y-89.2
X153.679Y-90.127
X153.818Y-87.8
T2
X139.91Y-77.55
X141.9Y-97.75
X142.45Y-77.55
X144.4Y-97.75
X144.99Y-77.55
T3
X136.5Y-96.6
X149.25Y-79.85
M30
