%TF.GenerationSoftware,KiCad,Pcbnew,9.0.4*%
%TF.CreationDate,2025-10-05T00:27:59-04:00*%
%TF.ProjectId,bldc motor controller,626c6463-206d-46f7-946f-7220636f6e74,rev?*%
%TF.SameCoordinates,Original*%
%TF.FileFunction,Drillmap*%
%TF.FilePolarity,Positive*%
%FSLAX45Y45*%
G04 Gerber Fmt 4.5, Leading zero omitted, Abs format (unit mm)*
G04 Created by KiCad (PCBNEW 9.0.4) date 2025-10-05 00:27:59*
%MOMM*%
%LPD*%
G01*
G04 APERTURE LIST*
%ADD10C,0.050000*%
%ADD11C,0.200000*%
G04 APERTURE END LIST*
D10*
X15550000Y-8800000D02*
G75*
G02*
X12950000Y-8800000I-1300000J0D01*
G01*
X12950000Y-8800000D02*
G75*
G02*
X15550000Y-8800000I1300000J0D01*
G01*
D11*
X13208277Y-10413984D02*
X13208277Y-10213984D01*
X13208277Y-10213984D02*
X13255896Y-10213984D01*
X13255896Y-10213984D02*
X13284467Y-10223508D01*
X13284467Y-10223508D02*
X13303515Y-10242555D01*
X13303515Y-10242555D02*
X13313039Y-10261603D01*
X13313039Y-10261603D02*
X13322562Y-10299698D01*
X13322562Y-10299698D02*
X13322562Y-10328270D01*
X13322562Y-10328270D02*
X13313039Y-10366365D01*
X13313039Y-10366365D02*
X13303515Y-10385412D01*
X13303515Y-10385412D02*
X13284467Y-10404460D01*
X13284467Y-10404460D02*
X13255896Y-10413984D01*
X13255896Y-10413984D02*
X13208277Y-10413984D01*
X13408277Y-10413984D02*
X13408277Y-10280650D01*
X13408277Y-10318746D02*
X13417801Y-10299698D01*
X13417801Y-10299698D02*
X13427324Y-10290174D01*
X13427324Y-10290174D02*
X13446372Y-10280650D01*
X13446372Y-10280650D02*
X13465420Y-10280650D01*
X13532086Y-10413984D02*
X13532086Y-10280650D01*
X13532086Y-10213984D02*
X13522562Y-10223508D01*
X13522562Y-10223508D02*
X13532086Y-10233031D01*
X13532086Y-10233031D02*
X13541610Y-10223508D01*
X13541610Y-10223508D02*
X13532086Y-10213984D01*
X13532086Y-10213984D02*
X13532086Y-10233031D01*
X13655896Y-10413984D02*
X13636848Y-10404460D01*
X13636848Y-10404460D02*
X13627324Y-10385412D01*
X13627324Y-10385412D02*
X13627324Y-10213984D01*
X13760658Y-10413984D02*
X13741610Y-10404460D01*
X13741610Y-10404460D02*
X13732086Y-10385412D01*
X13732086Y-10385412D02*
X13732086Y-10213984D01*
X13989229Y-10413984D02*
X13989229Y-10213984D01*
X13989229Y-10213984D02*
X14055896Y-10356841D01*
X14055896Y-10356841D02*
X14122562Y-10213984D01*
X14122562Y-10213984D02*
X14122562Y-10413984D01*
X14303515Y-10413984D02*
X14303515Y-10309222D01*
X14303515Y-10309222D02*
X14293991Y-10290174D01*
X14293991Y-10290174D02*
X14274943Y-10280650D01*
X14274943Y-10280650D02*
X14236848Y-10280650D01*
X14236848Y-10280650D02*
X14217801Y-10290174D01*
X14303515Y-10404460D02*
X14284467Y-10413984D01*
X14284467Y-10413984D02*
X14236848Y-10413984D01*
X14236848Y-10413984D02*
X14217801Y-10404460D01*
X14217801Y-10404460D02*
X14208277Y-10385412D01*
X14208277Y-10385412D02*
X14208277Y-10366365D01*
X14208277Y-10366365D02*
X14217801Y-10347317D01*
X14217801Y-10347317D02*
X14236848Y-10337793D01*
X14236848Y-10337793D02*
X14284467Y-10337793D01*
X14284467Y-10337793D02*
X14303515Y-10328270D01*
X14398753Y-10280650D02*
X14398753Y-10480650D01*
X14398753Y-10290174D02*
X14417801Y-10280650D01*
X14417801Y-10280650D02*
X14455896Y-10280650D01*
X14455896Y-10280650D02*
X14474943Y-10290174D01*
X14474943Y-10290174D02*
X14484467Y-10299698D01*
X14484467Y-10299698D02*
X14493991Y-10318746D01*
X14493991Y-10318746D02*
X14493991Y-10375889D01*
X14493991Y-10375889D02*
X14484467Y-10394936D01*
X14484467Y-10394936D02*
X14474943Y-10404460D01*
X14474943Y-10404460D02*
X14455896Y-10413984D01*
X14455896Y-10413984D02*
X14417801Y-10413984D01*
X14417801Y-10413984D02*
X14398753Y-10404460D01*
X14579705Y-10394936D02*
X14589229Y-10404460D01*
X14589229Y-10404460D02*
X14579705Y-10413984D01*
X14579705Y-10413984D02*
X14570182Y-10404460D01*
X14570182Y-10404460D02*
X14579705Y-10394936D01*
X14579705Y-10394936D02*
X14579705Y-10413984D01*
X14579705Y-10290174D02*
X14589229Y-10299698D01*
X14589229Y-10299698D02*
X14579705Y-10309222D01*
X14579705Y-10309222D02*
X14570182Y-10299698D01*
X14570182Y-10299698D02*
X14579705Y-10290174D01*
X14579705Y-10290174D02*
X14579705Y-10309222D01*
M02*
