%TF.GenerationSoftware,KiCad,Pcbnew,9.0.4*%
%TF.CreationDate,2025-10-05T00:28:02-04:00*%
%TF.ProjectId,bldc motor controller,626c6463-206d-46f7-946f-7220636f6e74,rev?*%
%TF.SameCoordinates,Original*%
%TF.FileFunction,Paste,Bot*%
%TF.FilePolarity,Positive*%
%FSLAX46Y46*%
G04 Gerber Fmt 4.6, Leading zero omitted, Abs format (unit mm)*
G04 Created by KiCad (PCBNEW 9.0.4) date 2025-10-05 00:28:02*
%MOMM*%
%LPD*%
G01*
G04 APERTURE LIST*
G04 Aperture macros list*
%AMRoundRect*
0 Rectangle with rounded corners*
0 $1 Rounding radius*
0 $2 $3 $4 $5 $6 $7 $8 $9 X,Y pos of 4 corners*
0 Add a 4 corners polygon primitive as box body*
4,1,4,$2,$3,$4,$5,$6,$7,$8,$9,$2,$3,0*
0 Add four circle primitives for the rounded corners*
1,1,$1+$1,$2,$3*
1,1,$1+$1,$4,$5*
1,1,$1+$1,$6,$7*
1,1,$1+$1,$8,$9*
0 Add four rect primitives between the rounded corners*
20,1,$1+$1,$2,$3,$4,$5,0*
20,1,$1+$1,$4,$5,$6,$7,0*
20,1,$1+$1,$6,$7,$8,$9,0*
20,1,$1+$1,$8,$9,$2,$3,0*%
G04 Aperture macros list end*
%ADD10C,0.000000*%
%ADD11RoundRect,0.067500X0.067500X0.067500X-0.067500X0.067500X-0.067500X-0.067500X0.067500X-0.067500X0*%
%ADD12RoundRect,0.067500X-0.067500X-0.067500X0.067500X-0.067500X0.067500X0.067500X-0.067500X0.067500X0*%
%ADD13RoundRect,0.200000X0.275000X-0.200000X0.275000X0.200000X-0.275000X0.200000X-0.275000X-0.200000X0*%
%ADD14RoundRect,0.067500X0.067500X-0.067500X0.067500X0.067500X-0.067500X0.067500X-0.067500X-0.067500X0*%
%ADD15RoundRect,0.250000X-0.475000X0.250000X-0.475000X-0.250000X0.475000X-0.250000X0.475000X0.250000X0*%
%ADD16RoundRect,0.067500X-0.067500X0.067500X-0.067500X-0.067500X0.067500X-0.067500X0.067500X0.067500X0*%
%ADD17RoundRect,0.225000X0.250000X-0.225000X0.250000X0.225000X-0.250000X0.225000X-0.250000X-0.225000X0*%
%ADD18RoundRect,0.140000X0.140000X0.170000X-0.140000X0.170000X-0.140000X-0.170000X0.140000X-0.170000X0*%
%ADD19RoundRect,0.250000X-0.250000X-0.475000X0.250000X-0.475000X0.250000X0.475000X-0.250000X0.475000X0*%
%ADD20R,0.400000X1.700000*%
%ADD21O,0.900000X0.280000*%
%ADD22O,0.280000X0.900000*%
%ADD23R,3.700000X3.700000*%
%ADD24RoundRect,0.250000X0.650000X-0.750000X0.650000X0.750000X-0.650000X0.750000X-0.650000X-0.750000X0*%
%ADD25R,0.280000X0.500000*%
%ADD26R,0.500000X0.280000*%
%ADD27RoundRect,0.140000X0.170000X-0.140000X0.170000X0.140000X-0.170000X0.140000X-0.170000X-0.140000X0*%
%ADD28RoundRect,0.250000X-0.325000X-0.650000X0.325000X-0.650000X0.325000X0.650000X-0.325000X0.650000X0*%
%ADD29R,1.100000X0.600000*%
G04 APERTURE END LIST*
D10*
%TO.C,U3*%
G36*
X151300000Y-91400000D02*
G01*
X148300000Y-91400000D01*
X148300000Y-88400000D01*
X151300000Y-88400000D01*
X151300000Y-91400000D01*
G37*
G36*
X147560000Y-88010000D02*
G01*
X147560000Y-88010000D01*
G75*
G02*
X147560000Y-88290000I0J-140000D01*
G01*
X146940000Y-88290000D01*
G75*
G02*
X146940000Y-88010000I0J140000D01*
G01*
X147560000Y-88010000D01*
G37*
G36*
X147560000Y-88510000D02*
G01*
X147560000Y-88510000D01*
G75*
G02*
X147560000Y-88790000I0J-140000D01*
G01*
X146940000Y-88790000D01*
G75*
G02*
X146940000Y-88510000I0J140000D01*
G01*
X147560000Y-88510000D01*
G37*
G36*
X147560000Y-89010500D02*
G01*
X147560000Y-89010500D01*
G75*
G02*
X147560000Y-89290500I0J-140000D01*
G01*
X146940000Y-89290500D01*
G75*
G02*
X146940000Y-89010500I0J140000D01*
G01*
X147560000Y-89010500D01*
G37*
G36*
X147560000Y-89511000D02*
G01*
X147560000Y-89511000D01*
G75*
G02*
X147560000Y-89791000I0J-140000D01*
G01*
X146940000Y-89791000D01*
G75*
G02*
X146940000Y-89511000I0J140000D01*
G01*
X147560000Y-89511000D01*
G37*
G36*
X147560000Y-90009000D02*
G01*
X147560000Y-90009000D01*
G75*
G02*
X147560000Y-90289000I0J-140000D01*
G01*
X146940000Y-90289000D01*
G75*
G02*
X146940000Y-90009000I0J140000D01*
G01*
X147560000Y-90009000D01*
G37*
G36*
X147560000Y-90509000D02*
G01*
X147560000Y-90509000D01*
G75*
G02*
X147560000Y-90789000I0J-140000D01*
G01*
X146940000Y-90789000D01*
G75*
G02*
X146940000Y-90509000I0J140000D01*
G01*
X147560000Y-90509000D01*
G37*
G36*
X147560000Y-91009500D02*
G01*
X147560000Y-91009500D01*
G75*
G02*
X147560000Y-91289500I0J-140000D01*
G01*
X146940000Y-91289500D01*
G75*
G02*
X146940000Y-91009500I0J140000D01*
G01*
X147560000Y-91009500D01*
G37*
G36*
X147560000Y-91510000D02*
G01*
X147560000Y-91510000D01*
G75*
G02*
X147560000Y-91790000I0J-140000D01*
G01*
X146940000Y-91790000D01*
G75*
G02*
X146940000Y-91510000I0J140000D01*
G01*
X147560000Y-91510000D01*
G37*
G36*
X147910000Y-87040000D02*
G01*
X147910000Y-87040000D01*
G75*
G02*
X148190000Y-87040000I140000J0D01*
G01*
X148190000Y-87659500D01*
G75*
G02*
X147910000Y-87659500I-140000J0D01*
G01*
X147910000Y-87040000D01*
G37*
G36*
X147910000Y-92140000D02*
G01*
X147910000Y-92140000D01*
G75*
G02*
X148190000Y-92140000I140000J0D01*
G01*
X148190000Y-92760000D01*
G75*
G02*
X147910000Y-92760000I-140000J0D01*
G01*
X147910000Y-92140000D01*
G37*
G36*
X148410000Y-87040000D02*
G01*
X148410000Y-87040000D01*
G75*
G02*
X148690000Y-87040000I140000J0D01*
G01*
X148690000Y-87659500D01*
G75*
G02*
X148410000Y-87659500I-140000J0D01*
G01*
X148410000Y-87040000D01*
G37*
G36*
X148410000Y-92140000D02*
G01*
X148410000Y-92140000D01*
G75*
G02*
X148690000Y-92140000I140000J0D01*
G01*
X148690000Y-92760000D01*
G75*
G02*
X148410000Y-92760000I-140000J0D01*
G01*
X148410000Y-92140000D01*
G37*
G36*
X148910500Y-87040000D02*
G01*
X148910500Y-87040000D01*
G75*
G02*
X149190500Y-87040000I140000J0D01*
G01*
X149190500Y-87659500D01*
G75*
G02*
X148910500Y-87659500I-140000J0D01*
G01*
X148910500Y-87040000D01*
G37*
G36*
X148910500Y-92140000D02*
G01*
X148910500Y-92140000D01*
G75*
G02*
X149190500Y-92140000I140000J0D01*
G01*
X149190500Y-92760000D01*
G75*
G02*
X148910500Y-92760000I-140000J0D01*
G01*
X148910500Y-92140000D01*
G37*
G36*
X149411000Y-87040000D02*
G01*
X149411000Y-87040000D01*
G75*
G02*
X149691000Y-87040000I140000J0D01*
G01*
X149691000Y-87659500D01*
G75*
G02*
X149411000Y-87659500I-140000J0D01*
G01*
X149411000Y-87040000D01*
G37*
G36*
X149411000Y-92140000D02*
G01*
X149411000Y-92140000D01*
G75*
G02*
X149691000Y-92140000I140000J0D01*
G01*
X149691000Y-92760000D01*
G75*
G02*
X149411000Y-92760000I-140000J0D01*
G01*
X149411000Y-92140000D01*
G37*
G36*
X149909000Y-87040000D02*
G01*
X149909000Y-87040000D01*
G75*
G02*
X150189000Y-87040000I140000J0D01*
G01*
X150189000Y-87659500D01*
G75*
G02*
X149909000Y-87659500I-140000J0D01*
G01*
X149909000Y-87040000D01*
G37*
G36*
X149909000Y-92140000D02*
G01*
X149909000Y-92140000D01*
G75*
G02*
X150189000Y-92140000I140000J0D01*
G01*
X150189000Y-92760000D01*
G75*
G02*
X149909000Y-92760000I-140000J0D01*
G01*
X149909000Y-92140000D01*
G37*
G36*
X150409000Y-87040000D02*
G01*
X150409000Y-87040000D01*
G75*
G02*
X150689000Y-87040000I140000J0D01*
G01*
X150689000Y-87659500D01*
G75*
G02*
X150409000Y-87659500I-140000J0D01*
G01*
X150409000Y-87040000D01*
G37*
G36*
X150409000Y-92140000D02*
G01*
X150409000Y-92140000D01*
G75*
G02*
X150689000Y-92140000I140000J0D01*
G01*
X150689000Y-92760000D01*
G75*
G02*
X150409000Y-92760000I-140000J0D01*
G01*
X150409000Y-92140000D01*
G37*
G36*
X150909500Y-87040000D02*
G01*
X150909500Y-87040000D01*
G75*
G02*
X151189500Y-87040000I140000J0D01*
G01*
X151189500Y-87659500D01*
G75*
G02*
X150909500Y-87659500I-140000J0D01*
G01*
X150909500Y-87040000D01*
G37*
G36*
X150909500Y-92140000D02*
G01*
X150909500Y-92140000D01*
G75*
G02*
X151189500Y-92140000I140000J0D01*
G01*
X151189500Y-92760000D01*
G75*
G02*
X150909500Y-92760000I-140000J0D01*
G01*
X150909500Y-92140000D01*
G37*
G36*
X151410000Y-87040000D02*
G01*
X151410000Y-87040000D01*
G75*
G02*
X151690000Y-87040000I140000J0D01*
G01*
X151690000Y-87659500D01*
G75*
G02*
X151410000Y-87659500I-140000J0D01*
G01*
X151410000Y-87040000D01*
G37*
G36*
X151410000Y-92140000D02*
G01*
X151410000Y-92140000D01*
G75*
G02*
X151690000Y-92140000I140000J0D01*
G01*
X151690000Y-92760000D01*
G75*
G02*
X151410000Y-92760000I-140000J0D01*
G01*
X151410000Y-92140000D01*
G37*
G36*
X152660000Y-88010000D02*
G01*
X152660000Y-88010000D01*
G75*
G02*
X152660000Y-88290000I0J-140000D01*
G01*
X152040000Y-88290000D01*
G75*
G02*
X152040000Y-88010000I0J140000D01*
G01*
X152660000Y-88010000D01*
G37*
G36*
X152660000Y-88510000D02*
G01*
X152660000Y-88510000D01*
G75*
G02*
X152660000Y-88790000I0J-140000D01*
G01*
X152040000Y-88790000D01*
G75*
G02*
X152040000Y-88510000I0J140000D01*
G01*
X152660000Y-88510000D01*
G37*
G36*
X152660000Y-89010500D02*
G01*
X152660000Y-89010500D01*
G75*
G02*
X152660000Y-89290500I0J-140000D01*
G01*
X152040000Y-89290500D01*
G75*
G02*
X152040000Y-89010500I0J140000D01*
G01*
X152660000Y-89010500D01*
G37*
G36*
X152660000Y-89511000D02*
G01*
X152660000Y-89511000D01*
G75*
G02*
X152660000Y-89791000I0J-140000D01*
G01*
X152040000Y-89791000D01*
G75*
G02*
X152040000Y-89511000I0J140000D01*
G01*
X152660000Y-89511000D01*
G37*
G36*
X152660000Y-90009000D02*
G01*
X152660000Y-90009000D01*
G75*
G02*
X152660000Y-90289000I0J-140000D01*
G01*
X152040000Y-90289000D01*
G75*
G02*
X152040000Y-90009000I0J140000D01*
G01*
X152660000Y-90009000D01*
G37*
G36*
X152660000Y-90509000D02*
G01*
X152660000Y-90509000D01*
G75*
G02*
X152660000Y-90789000I0J-140000D01*
G01*
X152040000Y-90789000D01*
G75*
G02*
X152040000Y-90509000I0J140000D01*
G01*
X152660000Y-90509000D01*
G37*
G36*
X152660000Y-91009500D02*
G01*
X152660000Y-91009500D01*
G75*
G02*
X152660000Y-91289500I0J-140000D01*
G01*
X152040000Y-91289500D01*
G75*
G02*
X152040000Y-91009500I0J140000D01*
G01*
X152660000Y-91009500D01*
G37*
G36*
X152660000Y-91510000D02*
G01*
X152660000Y-91510000D01*
G75*
G02*
X152660000Y-91790000I0J-140000D01*
G01*
X152040000Y-91790000D01*
G75*
G02*
X152040000Y-91510000I0J140000D01*
G01*
X152660000Y-91510000D01*
G37*
%TD*%
D11*
%TO.C,C12*%
X148280514Y-94595514D03*
X147730514Y-94595514D03*
%TD*%
%TO.C,C19*%
X141720620Y-92300000D03*
X141170620Y-92300000D03*
%TD*%
D12*
%TO.C,C16*%
X151475000Y-86250000D03*
X152025000Y-86250000D03*
%TD*%
D13*
%TO.C,R6*%
X141700000Y-83150000D03*
X141700000Y-81500000D03*
%TD*%
D14*
%TO.C,C20*%
X146325000Y-84575000D03*
X146325000Y-84025000D03*
%TD*%
D15*
%TO.C,R1*%
X139800000Y-81200000D03*
X139800000Y-83100000D03*
%TD*%
D14*
%TO.C,C15*%
X147005514Y-92870514D03*
X147005514Y-92320514D03*
%TD*%
D16*
%TO.C,C21*%
X146150000Y-82125000D03*
X146150000Y-82675000D03*
%TD*%
D14*
%TO.C,C14*%
X146305514Y-92870514D03*
X146305514Y-92320514D03*
%TD*%
D17*
%TO.C,C9*%
X139550000Y-95450000D03*
X139550000Y-93900000D03*
%TD*%
D18*
%TO.C,C11*%
X136680000Y-93900000D03*
X135720000Y-93900000D03*
%TD*%
D19*
%TO.C,C2*%
X134100000Y-81800000D03*
X136000000Y-81800000D03*
%TD*%
D16*
%TO.C,C22*%
X146950000Y-82075000D03*
X146950000Y-82625000D03*
%TD*%
D20*
%TO.C,U5*%
X140475620Y-85200000D03*
X141125620Y-85200000D03*
X141775620Y-85200000D03*
X142425620Y-85200000D03*
X143075620Y-85200000D03*
X143725620Y-85200000D03*
X144375620Y-85200000D03*
X144375620Y-90800000D03*
X143725620Y-90800000D03*
X143075620Y-90800000D03*
X142425620Y-90800000D03*
X141775620Y-90800000D03*
X141125620Y-90800000D03*
X140475620Y-90800000D03*
%TD*%
D21*
%TO.C,U3*%
X152350000Y-88150000D03*
X152350000Y-88650000D03*
X152350000Y-89150000D03*
X152350000Y-89650000D03*
X152350000Y-90150000D03*
X152350000Y-90650000D03*
X152350000Y-91150000D03*
X152350000Y-91650000D03*
D22*
X151550000Y-92450000D03*
X151050000Y-92450000D03*
X150550000Y-92450000D03*
X150050000Y-92450000D03*
X149550000Y-92450000D03*
X149050000Y-92450000D03*
X148550000Y-92450000D03*
X148050000Y-92450000D03*
D21*
X147250000Y-91650000D03*
X147250000Y-91150000D03*
X147250000Y-90650000D03*
X147250000Y-90150000D03*
X147250000Y-89650000D03*
X147250000Y-89150000D03*
X147250000Y-88650000D03*
X147250000Y-88150000D03*
D22*
X148050000Y-87350000D03*
X148550000Y-87350000D03*
X149050000Y-87350000D03*
X149550000Y-87350000D03*
X150050000Y-87350000D03*
X150550000Y-87350000D03*
X151050000Y-87350000D03*
X151550000Y-87350000D03*
D23*
X149800000Y-89900000D03*
%TD*%
D24*
%TO.C,L1*%
X134350000Y-88650000D03*
X134350000Y-84150000D03*
%TD*%
D25*
%TO.C,U6*%
X148775000Y-85175000D03*
X148275000Y-85175000D03*
X147775000Y-85175000D03*
X147275000Y-85175000D03*
D26*
X147150000Y-84550000D03*
X147150000Y-84050000D03*
D25*
X147275000Y-83425000D03*
X147775000Y-83425000D03*
X148275000Y-83425000D03*
X148775000Y-83425000D03*
D26*
X148900000Y-84050000D03*
X148900000Y-84550000D03*
%TD*%
D27*
%TO.C,C8*%
X146000000Y-97080000D03*
X146000000Y-96120000D03*
%TD*%
D11*
%TO.C,C13*%
X148280514Y-93795514D03*
X147730514Y-93795514D03*
%TD*%
D28*
%TO.C,C1*%
X141325000Y-95100000D03*
X144275000Y-95100000D03*
%TD*%
D12*
%TO.C,C17*%
X151475000Y-85400000D03*
X152025000Y-85400000D03*
%TD*%
D29*
%TO.C,U4*%
X133800000Y-92750000D03*
X133800000Y-91800000D03*
X133800000Y-90850000D03*
X136500000Y-90850000D03*
X136500000Y-91800000D03*
X136500000Y-92750000D03*
%TD*%
D16*
%TO.C,C23*%
X147800000Y-82025000D03*
X147800000Y-82575000D03*
%TD*%
M02*
